<?xml version="1.0" standalone="no"?>
<!DOCTYPE svg PUBLIC "-//W3C//DTD SVG 20010904//EN"
 "http://www.w3.org/TR/2001/REC-SVG-20010904/DTD/svg10.dtd">
<svg version="1.0" xmlns="http://www.w3.org/2000/svg"
 width="1401.000000pt" height="1401.000000pt" viewBox="0 0 1401.000000 1401.000000"
 preserveAspectRatio="xMidYMid meet">
<metadata>
Created by potrace 1.14, written by Peter Selinger 2001-2017
</metadata>
<g transform="translate(0.000000,1401.000000) scale(0.100000,-0.100000)"
fill="#000000" stroke="none">
<path d="M6718 14005 c-2 -1 -55 -5 -118 -9 -157 -8 -327 -22 -380 -30 -14 -2
-52 -7 -85 -11 -32 -4 -68 -9 -80 -11 -11 -2 -45 -6 -75 -9 -30 -4 -62 -8 -70
-10 -8 -2 -31 -7 -50 -10 -19 -3 -62 -10 -95 -16 -33 -6 -73 -13 -90 -16 -16
-3 -109 -23 -205 -44 -96 -22 -188 -43 -205 -46 -16 -3 -37 -10 -46 -14 -9 -5
-30 -11 -47 -14 -74 -13 -578 -176 -667 -215 -11 -5 -56 -23 -100 -40 -91 -36
-92 -36 -198 -85 -43 -19 -81 -35 -84 -35 -8 0 -376 -183 -458 -228 -190 -104
-312 -177 -500 -301 -109 -71 -299 -204 -355 -247 -82 -64 -373 -300 -400
-324 -19 -18 -62 -55 -94 -83 -66 -58 -399 -388 -461 -457 -392 -435 -713
-878 -955 -1315 -18 -33 -42 -76 -53 -95 -57 -102 -215 -427 -266 -550 -18
-41 -38 -90 -46 -108 -53 -117 -228 -609 -240 -672 -2 -8 -17 -63 -34 -121
-35 -119 -81 -309 -97 -394 -3 -16 -14 -70 -24 -120 -11 -49 -24 -119 -30
-155 -5 -36 -12 -76 -14 -90 -6 -33 -27 -169 -31 -200 -2 -14 -7 -56 -11 -95
-3 -38 -8 -79 -10 -90 -2 -11 -6 -54 -10 -95 -3 -41 -7 -97 -9 -125 -10 -109
-18 -339 -18 -505 -1 -172 10 -488 17 -526 2 -10 7 -62 10 -115 4 -52 8 -104
10 -115 2 -10 7 -50 11 -87 3 -37 8 -76 10 -85 1 -9 6 -39 9 -67 14 -101 25
-171 41 -257 55 -288 57 -299 114 -518 28 -107 53 -202 55 -210 2 -8 16 -53
31 -100 184 -573 363 -975 672 -1511 119 -206 379 -581 547 -789 216 -268 615
-688 816 -861 41 -35 77 -67 80 -70 42 -47 472 -380 600 -464 25 -17 47 -33
48 -37 2 -5 7 -8 11 -8 4 0 61 -35 127 -78 289 -191 695 -408 999 -536 61 -26
119 -51 130 -56 58 -27 488 -185 530 -194 6 -1 48 -14 95 -29 71 -22 139 -41
220 -62 122 -32 257 -66 274 -69 11 -3 90 -18 173 -35 155 -31 362 -65 463
-76 30 -3 66 -8 80 -10 40 -6 174 -19 304 -30 266 -22 796 -22 1046 0 19 2 80
6 135 10 55 3 111 8 125 10 14 2 52 7 85 10 33 4 71 8 85 10 14 2 48 7 75 10
71 9 323 53 435 76 52 11 106 23 120 25 14 3 52 12 85 21 33 8 71 17 85 20 13
2 29 8 35 13 9 7 109 38 175 55 249 61 829 287 1125 438 44 23 82 41 85 42 18
3 336 180 418 231 29 19 55 34 58 34 10 0 362 235 462 309 298 219 576 457
824 704 165 164 209 211 328 347 35 41 70 81 77 88 33 34 249 310 320 408 333
458 631 993 823 1474 23 58 46 114 51 125 36 78 178 512 219 670 16 61 34 126
40 145 5 19 17 67 25 105 8 39 22 102 30 140 15 69 20 94 30 158 3 17 8 39 10
47 2 8 6 29 9 45 10 60 26 161 31 200 3 22 7 49 10 60 2 11 7 51 10 90 4 38 8
77 10 87 2 9 7 57 10 105 4 48 9 96 11 106 24 127 23 905 -1 1142 -2 22 -7 69
-10 105 -7 74 -12 118 -30 260 -8 61 -25 174 -30 205 -3 17 -12 68 -21 115
-25 143 -88 428 -114 520 -5 19 -24 85 -40 145 -31 110 -142 452 -159 490 -5
11 -38 95 -74 186 -80 203 -93 230 -228 504 -120 243 -143 286 -265 490 -183
305 -413 630 -600 851 -23 27 -59 70 -80 95 -133 159 -220 254 -389 423 -105
105 -224 221 -265 257 -239 211 -471 395 -650 513 -203 135 -523 336 -535 336
-3 0 -22 10 -43 23 -179 112 -608 316 -912 434 -187 73 -590 206 -690 228 -8
2 -78 19 -155 38 -198 50 -415 93 -665 132 -14 2 -50 7 -80 10 -30 4 -63 9
-73 11 -10 2 -48 6 -85 9 -37 4 -78 8 -92 10 -14 2 -65 7 -115 10 -49 4 -110
9 -135 12 -46 5 -727 12 -732 8z"/>
</g>
</svg>
