<?xml version="1.0" encoding="UTF-8"?><svg id="Layer_2" xmlns="http://www.w3.org/2000/svg" viewBox="0 0 293.16 189.65"><defs><style>.cls-1{stroke:#fff;stroke-width:36px;}.cls-1,.cls-2,.cls-3,.cls-4{fill:none;font-family:ArgentCF-BoldItalic, 'Argent CF';font-size:143.48px;font-style:italic;font-weight:700;letter-spacing:.02em;}.cls-1,.cls-3,.cls-4{stroke-linejoin:round;}.cls-5{fill:#fff;}.cls-6{opacity:.6;}.cls-7{opacity:.5;}.cls-2{stroke-linecap:round;stroke-miterlimit:16;stroke-width:3.42px;}.cls-2,.cls-4{stroke:#000;}.cls-3{stroke:#d9414e;}.cls-3,.cls-4{stroke-width:35px;}</style></defs><g id="Layer_1-2"><text class="cls-4" transform="translate(23 137.29)"><tspan x="0" y="0">404</tspan></text><g class="cls-7"><text class="cls-1" transform="translate(18 134.29)"><tspan x="0" y="0">404</tspan></text></g><text class="cls-3" transform="translate(18 134.29)"><tspan x="0" y="0">404</tspan></text><g class="cls-6"><text class="cls-2" transform="translate(18 134.29)"><tspan x="0" y="0">404</tspan></text></g><path class="cls-5" d="m37.51,128.26c9.18-.43,12.2-2.73,12.77-7.46l1.87-11.76h-27.83l-1.15-10.76,52.08-55.38h10.62l-8.75,55.1h2.58c5.31,0,7.6-.14,12.63-5.31h3.01l-6.31,13.63c-.86,1.72-2.3,2.73-4.74,2.73h-9.04l-2.01,11.76c-.72,4.74,1.58,7.03,9.18,7.46l-.86,6.03c-14.35-.43-28.84-.43-44.77,0l.72-6.03Zm-6.89-30.27h23.53l4.59-29.7-28.12,29.7Z"/><path class="cls-5" d="m106.96,97.13c0-27.98,17.36-54.23,43.47-54.23,20.52,0,30.99,16.64,30.99,38.6,0,28.26-17.36,54.67-43.33,54.67-20.37,0-31.13-16.64-31.13-39.03Zm52.08-26.11c0-11.33-.86-21.67-8.75-21.67-14.78,0-20.8,35.15-20.8,58.68,0,11.48.86,21.52,8.61,21.52,14.49,0,20.95-35.3,20.95-58.54Z"/><path class="cls-5" d="m206.96,128.26c9.18-.43,12.2-2.73,12.77-7.46l1.87-11.76h-27.83l-1.15-10.76,52.08-55.38h10.62l-8.75,55.1h2.58c5.31,0,7.6-.14,12.63-5.31h3.01l-6.31,13.63c-.86,1.72-2.29,2.73-4.73,2.73h-9.04l-2.01,11.76c-.72,4.74,1.58,7.03,9.18,7.46l-.86,6.03c-14.35-.43-28.84-.43-44.76,0l.72-6.03Zm-6.89-30.27h23.53l4.59-29.7-28.12,29.7Z"/></g></svg>