<svg xmlns="http://www.w3.org/2000/svg" width="95.622" height="42.75" viewBox="0 0 95.622 42.75">
  <g id="Group_73" data-name="Group 73" transform="translate(-912.132 -426.618)">
    <circle id="Ellipse_15" data-name="Ellipse 15" cx="16.5" cy="16.5" r="16.5" transform="translate(913.545 433)"/>
    <circle id="Ellipse_16" data-name="Ellipse 16" cx="16.5" cy="16.5" r="16.5" transform="translate(972.545 433)"/>
    <path id="Path_7" data-name="Path 7" d="M7524.021,442.915s4.941,5.5,9.6,0" transform="translate(-6569.455 18)" fill="none" stroke="#000" stroke-linecap="round" stroke-width="2"/>
    <path id="Path_8" data-name="Path 8" d="M7483,415s5.743-5.42,13.556-5.066" transform="translate(-6569.455 18)" fill="none" stroke="#000" stroke-linecap="round" stroke-width="2"/>
    <path id="Path_9" data-name="Path 9" d="M7562.358,409.917l13.551,5.407" transform="translate(-6569.455 18)" fill="none" stroke="#000" stroke-linecap="round" stroke-width="2"/>
    <path id="Path_10" data-name="Path 10" d="M7485.081,449.638l1.392,1.03" transform="translate(-6569.455 18)" fill="none" stroke="#000" stroke-linecap="round" stroke-width="1"/>
    <path id="Path_11" data-name="Path 11" d="M7486.473,448.771l1.381,1" transform="translate(-6569.455 18)" fill="none" stroke="#000" stroke-linecap="round" stroke-width="1"/>
    <path id="Path_12" data-name="Path 12" d="M7570.634,448.771l1.047.848" transform="translate(-6569.455 18.505)" fill="none" stroke="#000" stroke-linecap="round" stroke-width="1"/>
    <path id="Path_13" data-name="Path 13" d="M7572.325,448.771l1.1.929" transform="translate(-6569.455 18)" fill="none" stroke="#000" stroke-linecap="round" stroke-width="1"/>
  </g>
</svg>
