<?xml version="1.0" encoding="UTF-8"?><svg id="Layer_2" xmlns="http://www.w3.org/2000/svg" viewBox="0 0 282.12 131.76"><defs><style>.cls-1{fill:#fff;}.cls-2{fill:#d9414e;}.cls-3{opacity:.6;}.cls-4{opacity:.5;}</style></defs><g id="exported"><path d="m81.4,129.9c-.18,0-.35,0-.53,0-13.94-.42-28.26-.42-43.77,0-5.09.15-9.97-1.94-13.4-5.7s-5.05-8.82-4.45-13.86l.72-6.03c0-.05.01-.1.02-.16-7.02-1.71-12.45-7.67-13.24-15.15l-1.15-10.76c-.54-5.07,1.16-10.13,4.65-13.85L62.34,9.01c3.31-3.52,7.92-5.51,12.75-5.51h10.62c5.12,0,9.98,2.24,13.31,6.14s4.78,9.05,3.97,14.11l-4.74,29.81c4.76.85,9.02,3.65,11.67,7.81,3.22,5.03,3.64,11.36,1.13,16.78l-6.31,13.63c-.07.16-.15.31-.22.47-1.5,3.01-3.57,5.55-6.05,7.53,1.16,2.85,1.56,5.98,1.12,9.08l-.86,6.03c-1.24,8.64-8.64,15.02-17.32,15.02Z"/><path d="m137.93,131.76c-29.09,0-48.63-22.72-48.63-56.53,0-40.23,26.78-71.73,60.97-71.73,29,0,48.49,22.54,48.49,56.1,0,40.47-26.72,72.17-60.83,72.17Z"/><path d="m250.85,129.9c-.18,0-.35,0-.53,0-13.94-.42-28.26-.42-43.77,0-5.08.15-9.97-1.94-13.4-5.7-3.43-3.76-5.05-8.82-4.45-13.87l.72-6.03c0-.05.01-.1.02-.15-7.02-1.71-12.45-7.67-13.24-15.15l-1.15-10.76c-.54-5.07,1.16-10.13,4.65-13.85l52.08-55.38c3.31-3.52,7.92-5.51,12.75-5.51h10.62c5.12,0,9.98,2.24,13.31,6.14s4.78,9.05,3.97,14.11l-4.74,29.81c4.76.85,9.02,3.65,11.67,7.81,3.22,5.03,3.64,11.36,1.13,16.78l-6.31,13.63c-.07.16-.15.31-.22.47-1.5,3.01-3.57,5.55-6.05,7.53,1.16,2.85,1.56,5.98,1.12,9.08l-.86,6.03c-1.24,8.64-8.64,15.02-17.32,15.02Z"/><g class="cls-4"><path class="cls-1" d="m76.4,127.4c-.18,0-.36,0-.55,0-13.93-.42-28.24-.42-43.74,0-5.22.17-10.26-2-13.78-5.86-3.52-3.86-5.2-9.07-4.58-14.26l.68-5.75c-7.01-1.9-12.39-7.93-13.19-15.47L.1,75.29c-.56-5.22,1.19-10.42,4.79-14.24L56.97,5.67c3.4-3.62,8.15-5.67,13.11-5.67h10.62c5.27,0,10.27,2.31,13.69,6.31,3.42,4.01,4.91,9.31,4.09,14.51l-4.66,29.34c4.7.97,8.88,3.8,11.52,7.94,3.31,5.18,3.75,11.68,1.16,17.26l-6.31,13.63c-.08.16-.15.32-.23.48-1.48,2.96-3.49,5.47-5.89,7.46,1.09,2.83,1.45,5.93,1.01,8.99l-.86,6.03c-1.27,8.89-8.89,15.45-17.81,15.45Z"/><path class="cls-1" d="m132.93,129.26c-29.39,0-49.13-22.92-49.13-57.03C83.79,31.73,110.79,0,145.26,0c29.3,0,48.99,22.74,48.99,56.6,0,40.75-26.94,72.67-61.33,72.67Z"/><path class="cls-1" d="m245.85,127.4c-.18,0-.36,0-.55,0-13.93-.42-28.24-.42-43.74,0-5.21.17-10.26-2-13.78-5.86-3.52-3.86-5.2-9.07-4.58-14.26l.68-5.75c-7.01-1.9-12.39-7.93-13.19-15.47l-1.15-10.76c-.56-5.22,1.19-10.42,4.79-14.24L226.42,5.67c3.4-3.62,8.15-5.67,13.11-5.67h10.62c5.27,0,10.27,2.31,13.69,6.31,3.42,4.01,4.91,9.31,4.09,14.51l-4.66,29.34c4.7.97,8.88,3.8,11.52,7.94,3.31,5.18,3.75,11.68,1.16,17.26l-6.31,13.63c-.08.16-.15.32-.23.48-1.48,2.96-3.49,5.47-5.89,7.46,1.09,2.83,1.45,5.93,1.01,8.99l-.86,6.03c-1.27,8.89-8.89,15.45-17.81,15.45Z"/></g><path class="cls-2" d="m76.4,126.9c-.18,0-.35,0-.53,0-13.94-.42-28.26-.42-43.77,0-5.09.16-9.97-1.94-13.4-5.7-3.43-3.76-5.05-8.82-4.45-13.86l.72-6.03c0-.05.01-.1.02-.16-7.02-1.71-12.45-7.67-13.24-15.15l-1.15-10.76c-.54-5.07,1.16-10.13,4.65-13.85L57.34,6.01c3.31-3.52,7.92-5.51,12.75-5.51h10.62c5.12,0,9.98,2.24,13.31,6.14s4.78,9.05,3.97,14.11l-4.74,29.81c4.76.85,9.02,3.65,11.67,7.81,3.22,5.03,3.64,11.36,1.13,16.78l-6.31,13.63c-.07.16-.15.31-.22.47-1.5,3.01-3.57,5.55-6.05,7.53,1.16,2.85,1.56,5.98,1.12,9.08l-.86,6.03c-1.24,8.64-8.64,15.02-17.32,15.02Z"/><path class="cls-2" d="m132.93,128.76c-29.09,0-48.63-22.72-48.63-56.53C84.29,32.01,111.07.5,145.26.5c29,0,48.49,22.54,48.49,56.1,0,40.47-26.72,72.17-60.83,72.17Z"/><path class="cls-2" d="m245.85,126.9c-.18,0-.35,0-.53,0-13.94-.42-28.26-.42-43.77,0-5.07.16-9.97-1.94-13.4-5.7-3.43-3.76-5.05-8.82-4.45-13.87l.72-6.03c0-.05.01-.1.02-.15-7.02-1.71-12.45-7.67-13.24-15.15l-1.15-10.76c-.54-5.07,1.16-10.13,4.65-13.85L226.78,6.01c3.31-3.52,7.92-5.51,12.75-5.51h10.62c5.12,0,9.98,2.24,13.31,6.14s4.78,9.05,3.97,14.11l-4.74,29.81c4.76.85,9.02,3.65,11.67,7.81,3.22,5.03,3.64,11.36,1.13,16.78l-6.31,13.63c-.07.16-.15.31-.22.47-1.5,3.01-3.57,5.55-6.05,7.53,1.16,2.85,1.56,5.98,1.12,9.08l-.86,6.03c-1.24,8.64-8.64,15.02-17.32,15.02Z"/><g class="cls-3"><path d="m29.7,111.16l1.12-9.43,1.44-.07c9.7-.45,10.79-2.97,11.15-5.96l1.56-9.85h-27.37l-1.39-13.07,53.13-56.49h13.36l-8.75,55.1h.58c4.91,0,6.74,0,11.4-4.79l.5-.52h6.41l-7.44,16.06c-1.24,2.48-3.35,3.72-6.28,3.72h-7.6l-1.77,10.34c-.31,2.06.15,2.92.53,3.39.95,1.17,3.33,1.87,7.07,2.08l1.86.1-1.34,9.38-1.53-.05c-14.25-.43-28.86-.43-44.67,0l-1.98.05Zm24.9-3.79c6.92,0,13.66.09,20.32.28l.39-2.72c-3.84-.42-6.24-1.43-7.67-3.19-1.23-1.52-1.64-3.51-1.25-6.08l2.26-13.22h10.48c2.04,0,2.74-.86,3.21-1.78l4.86-10.49c-4.68,4.44-7.41,4.64-12.66,4.64h-4.58l8.75-55.1h-7.88l-51.04,54.27.9,8.45h28.3l-2.18,13.74c-.67,5.55-4.45,8.17-12.93,8.81l-.31,2.65c7.23-.18,14.22-.27,21.04-.27Zm-4.15-32.56h-28.96l34.62-36.56-5.65,36.56Zm-21.02-3.42h18.1l3.53-22.84-21.63,22.84Z"/><path d="m132.93,112.97c-20.26,0-32.84-15.61-32.84-40.73,0-14.22,4.48-28.31,12.29-38.64,8.43-11.16,20.11-17.3,32.89-17.3,20.17,0,32.7,15.44,32.7,40.3,0,14.34-4.47,28.54-12.27,38.96-8.41,11.23-20.05,17.42-32.77,17.42Zm12.34-93.26c-20.53,0-41.77,19.65-41.77,52.53,0,23.02,11.28,37.32,29.43,37.32,20.46,0,41.62-19.81,41.62-52.96,0-17.83-7.69-36.89-29.28-36.89Zm-12.34,86.66c-10.32,0-10.32-14.54-10.32-23.23,0-13.4,1.84-27.85,4.93-38.63,4.07-14.23,10.15-21.76,17.59-21.76,10.46,0,10.46,14.63,10.46,23.37,0,19.66-5.54,60.25-22.66,60.25Zm12.2-80.21c-13.03,0-19.1,34-19.1,56.97,0,12.23,1.15,19.81,6.9,19.81s10.63-6.86,14.27-19.32c3.07-10.5,4.97-24.87,4.97-37.51,0-16.56-2.82-19.96-7.04-19.96Z"/><path d="m199.15,111.16l1.12-9.43,1.45-.07c9.7-.45,10.79-2.97,11.15-5.96l1.56-9.85h-27.37l-1.39-13.07,53.13-56.49h13.36l-8.75,55.1h.58c4.91,0,6.74,0,11.4-4.79l.5-.52h6.41l-7.44,16.06c-1.24,2.48-3.35,3.72-6.28,3.72h-7.6l-1.77,10.34c-.31,2.06.15,2.92.53,3.39.95,1.17,3.33,1.87,7.07,2.08l1.86.1-1.34,9.38-1.53-.05c-14.24-.43-28.85-.43-44.67,0l-1.98.05Zm24.9-3.79c6.92,0,13.66.09,20.32.28l.39-2.72c-3.84-.42-6.24-1.43-7.67-3.19-1.23-1.52-1.64-3.51-1.25-6.08l2.26-13.22h10.48c2.04,0,2.74-.86,3.21-1.78l4.86-10.49c-4.68,4.44-7.41,4.64-12.66,4.64h-4.58l8.75-55.1h-7.88l-51.04,54.27.9,8.45h28.3l-2.18,13.74c-.67,5.55-4.45,8.17-12.93,8.81l-.32,2.65c7.23-.18,14.22-.27,21.04-.27Zm-4.15-32.56h-28.96l34.62-36.56-5.65,36.56Zm-21.03-3.42h18.1l3.53-22.84-21.63,22.84Z"/></g><path class="cls-1" d="m32.35,103.37c9.18-.43,12.19-2.73,12.77-7.46l1.87-11.76h-27.83l-1.15-10.76,52.08-55.38h10.62l-8.75,55.1h2.58c5.31,0,7.6-.14,12.63-5.31h3.01l-6.31,13.63c-.86,1.72-2.3,2.73-4.73,2.73h-9.04l-2.01,11.76c-.72,4.74,1.58,7.03,9.18,7.46l-.86,6.03c-14.35-.43-28.84-.43-44.76,0l.72-6.03Zm-6.89-30.27h23.53l4.59-29.7-28.12,29.7Z"/><path class="cls-1" d="m101.79,72.23c0-27.98,17.36-54.23,43.47-54.23,20.52,0,30.99,16.64,30.99,38.6,0,28.26-17.36,54.67-43.33,54.67-20.37,0-31.13-16.64-31.13-39.03Zm52.08-26.11c0-11.33-.86-21.67-8.75-21.67-14.78,0-20.8,35.15-20.8,58.68,0,11.48.86,21.52,8.61,21.52,14.49,0,20.95-35.3,20.95-58.54Z"/><path class="cls-1" d="m201.79,103.37c9.18-.43,12.2-2.73,12.77-7.46l1.87-11.76h-27.83l-1.15-10.76,52.08-55.38h10.62l-8.75,55.1h2.58c5.31,0,7.6-.14,12.63-5.31h3.01l-6.31,13.63c-.86,1.72-2.29,2.73-4.73,2.73h-9.04l-2.01,11.76c-.72,4.74,1.58,7.03,9.18,7.46l-.86,6.03c-14.35-.43-28.84-.43-44.76,0l.72-6.03Zm-6.89-30.27h23.53l4.59-29.7-28.12,29.7Z"/></g></svg>