<?xml version="1.0" encoding="UTF-8"?><svg id="Layer_2" xmlns="http://www.w3.org/2000/svg" viewBox="0 0 700 300"><defs><style>.cls-1{fill:#fff;}.cls-2{fill:#ba0c2f;}</style></defs><g id="Layer_2-2"><rect class="cls-1" y="100" width="100" height="100"/><rect class="cls-2" width="100" height="100"/><rect class="cls-1" x="100" width="100" height="100"/><rect class="cls-2" x="100" y="100" width="100" height="100"/><rect class="cls-1" x="200" y="100" width="100" height="100"/><rect class="cls-2" x="200" width="100" height="100"/><rect class="cls-1" x="300" width="100" height="100"/><rect class="cls-2" x="300" y="100" width="100" height="100"/><rect class="cls-1" x="400" y="100" width="100" height="100"/><rect class="cls-2" x="400" width="100" height="100"/><rect class="cls-2" x="500" y="100" width="100" height="100"/><rect class="cls-1" x="100" y="200" width="100" height="100"/><rect class="cls-2" x="200" y="200" width="100" height="100"/><rect class="cls-1" x="300" y="200" width="100" height="100"/><rect class="cls-2" x="400" y="200" width="100" height="100"/><rect class="cls-1" x="500" y="200" width="100" height="100"/><rect class="cls-2" x="600" y="200" width="100" height="100"/><rect class="cls-2" y="200" width="100" height="100"/></g></svg>