<?xml version="1.0" encoding="UTF-8"?><svg id="Layer_2" xmlns="http://www.w3.org/2000/svg" viewBox="0 0 2000 200"><defs><style>.cls-1{fill:#fff;}.cls-2{fill:#333;}</style></defs><g id="Layer_2-2"><rect class="cls-1" width="100" height="100"/><rect class="cls-2" y="100" width="100" height="100"/><rect class="cls-1" x="100" y="100" width="100" height="100"/><rect class="cls-2" x="100" width="100" height="100"/><rect class="cls-1" x="200" width="100" height="100"/><rect class="cls-2" x="200" y="100" width="100" height="100"/><rect class="cls-1" x="300" y="100" width="100" height="100"/><rect class="cls-2" x="300" width="100" height="100"/><rect class="cls-1" x="400" width="100" height="100"/><rect class="cls-2" x="400" y="100" width="100" height="100"/><rect class="cls-1" x="500" y="100" width="100" height="100"/><rect class="cls-2" x="500" width="100" height="100"/><rect class="cls-1" x="600" width="100" height="100"/><rect class="cls-2" x="600" y="100" width="100" height="100"/><rect class="cls-1" x="700" y="100" width="100" height="100"/><rect class="cls-2" x="700" width="100" height="100"/><rect class="cls-1" x="800" width="100" height="100"/><rect class="cls-2" x="800" y="100" width="100" height="100"/><rect class="cls-1" x="900" y="100" width="100" height="100"/><rect class="cls-2" x="900" width="100" height="100"/><rect class="cls-1" x="1000" width="100" height="100"/><rect class="cls-2" x="1000" y="100" width="100" height="100"/><rect class="cls-1" x="1100" y="100" width="100" height="100"/><rect class="cls-2" x="1100" width="100" height="100"/><rect class="cls-1" x="1200" width="100" height="100"/><rect class="cls-2" x="1200" y="100" width="100" height="100"/><rect class="cls-1" x="1300" y="100" width="100" height="100"/><rect class="cls-2" x="1300" width="100" height="100"/><rect class="cls-1" x="1400" width="100" height="100"/><rect class="cls-2" x="1400" y="100" width="100" height="100"/><rect class="cls-1" x="1500" y="100" width="100" height="100"/><rect class="cls-2" x="1500" width="100" height="100"/><rect class="cls-1" x="1600" width="100" height="100"/><rect class="cls-2" x="1600" y="100" width="100" height="100"/><rect class="cls-1" x="1700" y="100" width="100" height="100"/><rect class="cls-2" x="1700" width="100" height="100"/><rect class="cls-1" x="1800" width="100" height="100"/><rect class="cls-2" x="1800" y="100" width="100" height="100"/><rect class="cls-1" x="1900" y="100" width="100" height="100"/><rect class="cls-2" x="1900" width="100" height="100"/></g></svg>