<?xml version="1.0" encoding="UTF-8"?><svg id="Layer_2" xmlns="http://www.w3.org/2000/svg" viewBox="0 0 782.71 142.23"><defs><style>.cls-1{fill:#fff;}.cls-2{fill:#d9414e;}.cls-3{opacity:.6;}.cls-4{opacity:.5;}</style></defs><g id="exported"><path d="m23,140.94c-4.8,0-9.42-1.97-12.75-5.51-3.76-4-5.43-9.53-4.5-14.95l.86-5.02c1.17-6.84,6.23-12.22,12.73-13.95l6.43-47.05c-1.84-1.08-3.48-2.49-4.84-4.2-3.1-3.9-4.4-8.94-3.56-13.85l.86-5.02c1.48-8.6,9.06-14.81,17.8-14.53,3.33.1,9.73.28,15.24.28,3.95,0,8.49-.09,12.49-.16,3.51-.07,6.53-.08,8.89-.12,18.34,0,32.14,3.88,42.18,11.87,11.8,9.38,17.78,23.73,17.78,42.64s-5.87,35.62-16.53,47.94c-12.08,13.97-29.23,21.35-49.61,21.35-4.46,0-8.42-.38-12.24-.75-3.69-.35-7.17-.69-11.14-.69-4.22,0-8.94.55-13.94,1.13-1.43.17-2.85.33-4.26.49-.63.07-1.26.1-1.89.1Z"/><path d="m141.51,141.95c-8.59,0-16.04-3.31-20.98-9.31-4.96-6.03-6.77-14.08-5.1-22.69l4.62-24.3c-2-.99-4.08-2.44-6.06-4.57-8.29-8.66-6.08-19.6-.09-26.82,4.36-5.45,9.23-9.94,14.46-13.38-.78-2.65-1.19-5.46-1.19-8.4,0-16.25,12.67-28.98,28.83-28.98s28.83,12.73,28.83,28.98c0,6.59-2.1,12.59-5.69,17.4,1.31,4.11,1.85,9.34.67,15.86-.01.06-.02.12-.03.17l-4.67,24.26c1.45.76,2.84,1.72,4.17,2.88.29.26.58.52.86.8,7.81,7.81,8.06,19.07.66,27.47-11.45,13.3-25.4,20.62-39.29,20.62Zm12.91-109.18c2.66,0,5.2.32,7.59.95.1-.41.15-.82.15-1.24,0-3.28-2.88-6.17-6.17-6.17s-6.17,2.88-6.17,6.17c0,.18,0,.35.03.53,1.51-.16,3.03-.23,4.56-.23Z"/><path d="m201.49,142.23c-23.47,0-41.17-13.75-41.17-31.99,0-9.56,4.84-17.54,12.34-21.75-2.98-5.41-5.16-11.67-5.16-19.14,0-21.11,17.98-36.44,42.75-36.44,8.19,0,16.39,2.23,23.1,6.28,9.66,5.83,15.2,14.94,15.2,24.99,0,8.36-3.77,15.49-9.78,19.84,3.56,5.9,6.34,12.84,6.34,21.34,0,21.71-17.93,36.87-43.61,36.87Z"/><path d="m264.33,141.95c-20.85,0-41.89-13.62-41.89-44.04,0-34.62,27.29-64.99,58.39-64.99,21.24,0,37.87,15,37.87,34.14,0,9.51-4.13,17.83-10.64,23.11,1.23,1.31,2.29,2.8,3.11,4.46,3.36,6.73,2.43,14.82-2.47,21.8-10.42,16.47-26.15,25.52-44.38,25.52Z"/><path d="m317.85,141.95c-8.33,0-15.62-3.16-20.53-8.9-5.01-5.85-7.01-13.85-5.65-22.51.01-.07.02-.14.03-.21l9.99-58.96c-.84-.61-1.64-1.3-2.37-2.07-3.66-3.83-5.39-9.11-4.71-14.36l.86-6.6c1.01-7.74,7.03-13.88,14.75-15.04,8.9-1.34,14.86-2.83,18.8-3.82,3.92-.98,6.75-1.69,10.06-1.69,6.74,0,12.67,2.67,16.7,7.52,2.94,3.54,6.08,9.7,4.41,19.02l-9.33,55.53c1.56.75,3.17,1.78,4.76,3.18.29.26.58.52.85.8,7.81,7.81,8.07,19.07.66,27.47-11.45,13.3-25.39,20.62-39.29,20.62Zm13.11-43.85s0,0-.01.01c0,0,0,0,.01-.01Z"/><path d="m404.65,141.95c-5.36,0-10.27-1.22-14.43-3.53-4.74,2.17-10.4,3.53-17.14,3.53-22.48,0-37.59-15.45-37.59-38.45,0-36.43,33.54-70.87,69.01-70.87,8.3,0,17.15,1.9,27.08,5.81,7.63,3.01,12.15,10.91,10.87,19.01l-5.11,32.34c1.72.82,3.39,1.9,4.94,3.27.29.26.58.52.85.8,6.27,6.27,9.05,17.02,1.14,26.9-.12.15-.25.3-.37.45-11.3,13.19-25.61,20.75-39.26,20.75Zm29.46-31.73s0,.02,0,.03c0-.01,0-.02,0-.03Z"/><path d="m453.43,141.95c-8.59,0-16.04-3.3-20.98-9.31-4.96-6.03-6.77-14.08-5.1-22.69l4.62-24.3c-2-.99-4.08-2.44-6.06-4.58-8.29-8.66-6.08-19.6-.09-26.82,4.36-5.45,9.23-9.94,14.46-13.38-.78-2.65-1.2-5.46-1.2-8.4,0-16.25,12.67-28.98,28.83-28.98s28.83,12.73,28.83,28.98c0,6.59-2.1,12.59-5.69,17.4,1.31,4.11,1.86,9.34.67,15.87l-.03.17-4.67,24.26c1.45.76,2.84,1.72,4.16,2.87.3.26.58.53.86.81,7.8,7.81,8.06,19.07.66,27.47-11.45,13.3-25.4,20.62-39.3,20.62Zm12.91-109.18c2.66,0,5.2.32,7.59.95.1-.41.15-.82.15-1.24,0-3.28-2.88-6.17-6.17-6.17s-6.17,2.88-6.17,6.17c0,.18,0,.35.03.53,1.51-.16,3.03-.23,4.56-.23Z"/><path d="m592.89,141.95c-7.78,0-14.65-2.7-19.56-7.65-3.23,4.07-8.21,6.64-13.73,6.64h-18.94c-4.57,0-8.94-1.79-12.2-4.95-3.17,3.08-7.49,4.95-12.2,4.95h-18.94c-5.1,0-9.94-2.22-13.27-6.09-3.32-3.86-4.8-8.99-4.04-14.03l5.26-34.79c-2.17-.94-4.44-2.39-6.64-4.59-8.84-8.84-6.47-20.18-.19-27.5.03-.04.06-.07.09-.1,15.07-17.29,29.77-20.93,39.45-20.93,6.97,0,12.09,1.91,15.79,4.35,5.23-2.71,11.42-4.35,18.79-4.35,8.09,0,15.28,2.2,20.91,6.3,5.88-3.85,13.13-6.3,22.13-6.3,14.14,0,22.25,6.22,26.55,11.44,7.05,8.54,9.16,20.46,6.29,35.43l-1.92,10.34c1.49.77,2.93,1.75,4.29,2.94.29.26.58.52.86.8,7.8,7.81,8.06,19.07.66,27.47-11.45,13.3-25.45,20.62-39.44,20.62Z"/><path d="m654.16,141.95c-20.73,0-43.04-14.14-43.04-45.19,0-34.61,27.99-63.84,61.12-63.84,23.16,0,33.71,15.84,33.71,30.56,0,10.17-4.21,18.52-10.26,25.25,1.71,1.46,3.16,3.23,4.29,5.28,2.17,3.94,4.77,12.16-2.07,22.91-.11.18-.23.35-.35.53-10.88,15.8-26.29,24.51-43.4,24.51Z"/><path d="m723.03,140.94h-19.51c-5.11,0-9.97-2.24-13.29-6.12-3.32-3.88-4.78-9.03-4-14.08l5.43-34.75c-2.14-.94-4.37-2.38-6.54-4.55-6.37-6.37-8.89-17.34-.2-27.49.03-.04.06-.07.09-.11,15.07-17.29,29.77-20.93,39.45-20.93,6.09,0,10.72,1.48,14.21,3.5,4.48-2.28,9.62-3.65,15.5-3.65,16.28,0,28.55,12.27,28.55,28.55s-11.78,27.54-26.83,27.54c-2.92,0-5.5-.43-7.76-1.14-2.15,7.12-4.91,18.94-7.78,38.3-1.27,8.58-8.64,14.93-17.31,14.93Z"/><g class="cls-4"><path class="cls-1" d="m18,138.44c-4.94,0-9.69-2.03-13.11-5.67-3.87-4.11-5.58-9.81-4.63-15.37l.86-5.02c1.19-6.92,6.24-12.39,12.77-14.26l6.34-46.4c-1.78-1.09-3.37-2.48-4.69-4.15-3.19-4.01-4.52-9.2-3.66-14.25l.86-5.02c1.52-8.85,9.36-15.21,18.3-14.95,3.32.1,9.72.28,15.22.28,3.94,0,8.48-.09,12.48-.16,3.51-.07,6.51-.17,8.9-.12,18.45,0,32.35,3.92,42.49,11.98,11.93,9.48,17.97,23.96,17.97,43.04s-5.91,35.85-16.65,48.27c-12.18,14.08-29.46,21.52-49.99,21.52-4.48,0-8.45-.38-12.29-.75-3.68-.35-7.15-.69-11.09-.69-4.19,0-8.9.55-13.88,1.13-1.43.17-2.85.33-4.26.49-.65.07-1.3.11-1.95.11Z"/><path class="cls-1" d="m136.51,139.45c-8.74,0-16.33-3.37-21.37-9.49-5.06-6.14-6.9-14.35-5.2-23.1l4.55-23.93c-1.94-1-3.94-2.45-5.86-4.5-8.51-8.88-6.25-20.09-.12-27.48,4.31-5.39,9.11-9.84,14.26-13.28-.73-2.59-1.11-5.33-1.11-8.18,0-16.53,12.89-29.48,29.33-29.48s29.33,12.95,29.33,29.48c0,6.61-2.08,12.64-5.63,17.49,1.28,4.14,1.79,9.37.61,15.86l-.03.18-4.6,23.9c1.36.75,2.68,1.67,3.94,2.77.3.27.6.54.88.82,8,8,8.27,19.54.69,28.15-11.54,13.41-25.63,20.8-39.67,20.8Zm12.91-110.18c2.87,0,5.61.37,8.18,1.09.04-.29.07-.59.07-.88,0-3.55-3.11-6.67-6.67-6.67s-6.67,3.11-6.67,6.67c0,.03,0,.05,0,.08,1.68-.19,3.38-.29,5.09-.29Z"/><path class="cls-1" d="m196.49,139.73c-23.76,0-41.67-13.97-41.67-32.49,0-9.57,4.76-17.59,12.16-21.94-2.89-5.37-4.98-11.57-4.98-18.95,0-21.4,18.19-36.94,43.25-36.94,8.27,0,16.57,2.26,23.36,6.36,9.81,5.92,15.44,15.19,15.44,25.42,0,8.36-3.69,15.51-9.61,19.97,3.48,5.88,6.17,12.78,6.17,21.21,0,22-18.14,37.37-44.11,37.37Z"/><path class="cls-1" d="m259.33,139.45c-21.1,0-42.39-13.77-42.39-44.54,0-34.89,27.52-65.49,58.89-65.49,21.52,0,38.37,15.22,38.37,34.64,0,9.47-4.03,17.77-10.42,23.16,1.11,1.25,2.07,2.65,2.83,4.18,3.45,6.89,2.5,15.17-2.5,22.3-10.51,16.61-26.39,25.75-44.79,25.75Zm15.44-46.59h0s0,0,0,0Z"/><path class="cls-1" d="m312.85,139.45c-8.48,0-15.91-3.22-20.91-9.07-5.1-5.96-7.15-14.1-5.77-22.91.01-.07.02-.14.04-.22l9.94-58.65c-.77-.58-1.51-1.23-2.19-1.94-3.76-3.94-5.54-9.37-4.84-14.77l.86-6.6c1.04-7.96,7.23-14.28,15.17-15.47,8.88-1.34,14.59-2.76,18.76-3.81,3.96-.99,6.81-1.7,10.18-1.7,6.89,0,12.96,2.74,17.09,7.7,3.01,3.62,6.22,9.92,4.52,19.42l-9.26,55.16c1.49.75,3.02,1.76,4.53,3.08.3.26.59.54.88.82,8,8,8.27,19.55.69,28.15-11.54,13.41-25.63,20.8-39.67,20.8Zm12.74-44.68v.02s0-.01,0-.02Zm10.17-54.58h0,0Z"/><path class="cls-1" d="m399.65,139.45c-5.35,0-10.26-1.2-14.44-3.47-4.75,2.13-10.41,3.47-17.12,3.47-22.78,0-38.09-15.65-38.09-38.95,0-36.69,33.78-71.37,69.51-71.37,8.36,0,17.28,1.91,27.26,5.84,7.85,3.09,12.5,11.22,11.18,19.56l-5.05,31.97c1.64.82,3.23,1.88,4.72,3.18.3.26.59.54.88.82,6.43,6.43,9.28,17.44,1.18,27.56-.13.16-.25.31-.38.46-11.4,13.3-25.84,20.92-39.64,20.92Z"/><path class="cls-1" d="m448.43,139.45c-8.74,0-16.33-3.37-21.37-9.49-5.06-6.15-6.9-14.35-5.2-23.11l4.55-23.93c-1.94-1.01-3.95-2.45-5.86-4.51-8.5-8.88-6.25-20.09-.11-27.48,4.31-5.38,9.11-9.84,14.26-13.28-.73-2.59-1.11-5.33-1.11-8.18,0-16.53,12.89-29.48,29.33-29.48s29.33,12.95,29.33,29.48c0,6.61-2.08,12.64-5.63,17.49,1.28,4.14,1.79,9.37.61,15.86-.01.06-.02.12-.03.18l-4.6,23.9c1.36.75,2.68,1.67,3.93,2.76.3.27.6.54.89.83,8,8,8.26,19.54.68,28.15-11.54,13.41-25.63,20.8-39.67,20.8Zm12.91-110.18c2.87,0,5.62.37,8.18,1.09.04-.29.07-.59.07-.88,0-3.55-3.11-6.67-6.67-6.67s-6.67,3.11-6.67,6.67c0,.03,0,.05,0,.08,1.68-.19,3.38-.29,5.09-.29Z"/><path class="cls-1" d="m587.89,139.45c-7.71,0-14.55-2.61-19.52-7.41-3.32,3.94-8.29,6.4-13.77,6.4h-18.94c-4.54,0-8.89-1.72-12.2-4.76-3.23,2.97-7.53,4.76-12.2,4.76h-18.94c-5.24,0-10.23-2.29-13.65-6.26-3.42-3.98-4.94-9.24-4.15-14.43l5.2-34.42c-2.11-.96-4.31-2.41-6.44-4.54-6.53-6.53-9.13-17.78-.22-28.18.03-.04.06-.07.09-.11,15.19-17.44,30.04-21.1,39.83-21.1,7,0,12.17,1.9,15.93,4.34,6.69-3.38,13.31-4.34,18.65-4.34,8.1,0,15.32,2.18,21.01,6.25,7.81-4.95,15.79-6.25,22.03-6.25,14.34,0,22.56,6.32,26.94,11.62,7.15,8.66,9.3,20.72,6.39,35.85l-1.85,9.97c1.41.76,2.77,1.71,4.06,2.83.3.26.6.54.88.82,8,8,8.26,19.54.68,28.15-11.54,13.41-25.68,20.8-39.82,20.8Z"/><path class="cls-1" d="m649.16,139.45c-11.3,0-21.83-3.97-29.65-11.19-6.33-5.84-13.89-16.57-13.89-34.5,0-34.88,28.22-64.34,61.62-64.34,23.51,0,34.21,16.1,34.21,31.06,0,10.13-4.11,18.46-10.06,25.21,1.59,1.43,2.95,3.14,4.02,5.08,2.22,4.04,4.9,12.45-2.08,23.42-.12.18-.24.36-.36.54-10.97,15.94-26.53,24.72-43.81,24.72Z"/><path class="cls-1" d="m718.03,138.44h-19.51c-5.26,0-10.25-2.3-13.67-6.29-3.42-4-4.92-9.29-4.11-14.48l5.37-34.38c-2.08-.96-4.24-2.4-6.34-4.5-6.53-6.54-9.13-17.78-.22-28.17.03-.04.06-.07.1-.11,15.19-17.44,30.04-21.1,39.83-21.1,6.05,0,10.69,1.44,14.21,3.43,4.49-2.24,9.62-3.57,15.49-3.57,16.56,0,29.05,12.49,29.05,29.05s-12,28.04-27.33,28.04c-2.77,0-5.24-.38-7.43-1.02-2.11,7.13-4.81,18.82-7.62,37.74-1.31,8.82-8.88,15.36-17.8,15.36Z"/></g><path class="cls-2" d="m18,137.94c-4.8,0-9.42-1.97-12.75-5.51-3.76-4-5.43-9.53-4.5-14.95l.86-5.02c1.17-6.84,6.23-12.22,12.73-13.95l6.43-47.05c-1.84-1.08-3.48-2.49-4.84-4.2-3.1-3.9-4.4-8.94-3.56-13.85l.86-5.02c1.48-8.61,9.06-14.8,17.8-14.53,3.33.1,9.73.28,15.24.28,3.95,0,8.49-.09,12.49-.16,3.51-.07,6.55-.09,8.89-.12,18.34,0,32.14,3.88,42.18,11.87,11.8,9.38,17.78,23.73,17.78,42.64s-5.87,35.62-16.53,47.94c-12.08,13.97-29.23,21.35-49.61,21.35-4.46,0-8.42-.38-12.24-.75-3.69-.35-7.17-.69-11.14-.69-4.22,0-8.94.55-13.94,1.13-1.43.17-2.85.33-4.26.49-.63.07-1.26.1-1.89.1Z"/><path class="cls-2" d="m136.51,138.95c-8.59,0-16.04-3.31-20.98-9.31-4.96-6.03-6.77-14.08-5.1-22.69l4.62-24.3c-2-.99-4.08-2.44-6.06-4.57-8.29-8.66-6.08-19.6-.09-26.82,4.36-5.45,9.23-9.94,14.46-13.38-.78-2.65-1.19-5.46-1.19-8.4,0-16.25,12.67-28.98,28.83-28.98s28.83,12.73,28.83,28.98c0,6.59-2.1,12.59-5.69,17.4,1.31,4.11,1.85,9.34.67,15.86-.01.06-.02.12-.03.17l-4.67,24.26c1.45.76,2.84,1.72,4.17,2.88.29.26.58.52.86.8,7.81,7.81,8.06,19.07.66,27.47-11.45,13.3-25.4,20.62-39.29,20.62Zm12.91-109.18c2.66,0,5.2.32,7.59.95.1-.41.15-.82.15-1.24,0-3.28-2.88-6.17-6.17-6.17s-6.17,2.88-6.17,6.17c0,.18,0,.35.03.53,1.51-.16,3.03-.23,4.56-.23Z"/><path class="cls-2" d="m196.49,139.23c-23.47,0-41.17-13.75-41.17-31.99,0-9.56,4.84-17.54,12.34-21.75-2.98-5.41-5.16-11.67-5.16-19.14,0-21.11,17.98-36.44,42.75-36.44,8.19,0,16.39,2.23,23.1,6.28,9.66,5.83,15.2,14.94,15.2,24.99,0,8.36-3.77,15.49-9.78,19.84,3.56,5.9,6.34,12.84,6.34,21.34,0,21.71-17.93,36.87-43.61,36.87Z"/><path class="cls-2" d="m259.33,138.95c-20.85,0-41.89-13.62-41.89-44.04,0-34.62,27.29-64.99,58.39-64.99,21.24,0,37.87,15,37.87,34.14,0,9.51-4.13,17.83-10.64,23.11,1.23,1.31,2.29,2.8,3.11,4.46,3.36,6.73,2.43,14.82-2.47,21.8-10.42,16.47-26.15,25.52-44.38,25.52Z"/><path class="cls-2" d="m312.85,138.95c-8.33,0-15.62-3.16-20.53-8.9-5.01-5.85-7.01-13.85-5.65-22.51.01-.07.02-.14.03-.21l9.99-58.96c-.84-.61-1.64-1.3-2.37-2.07-3.66-3.83-5.39-9.11-4.71-14.36l.86-6.6c1.01-7.74,7.03-13.88,14.75-15.04,8.9-1.34,14.86-2.83,18.8-3.82,3.92-.98,6.75-1.69,10.06-1.69,6.74,0,12.67,2.67,16.7,7.52,2.94,3.54,6.08,9.7,4.41,19.02l-9.33,55.53c1.56.75,3.17,1.78,4.76,3.18.29.26.58.52.85.8,7.81,7.81,8.07,19.07.66,27.47-11.45,13.3-25.39,20.62-39.29,20.62Zm13.11-43.85s0,0-.01.01c0,0,0,0,.01-.01Z"/><path class="cls-2" d="m399.65,138.95c-5.36,0-10.27-1.22-14.43-3.53-4.74,2.17-10.4,3.53-17.14,3.53-22.48,0-37.59-15.45-37.59-38.45,0-36.43,33.54-70.87,69.01-70.87,8.3,0,17.15,1.9,27.08,5.81,7.63,3.01,12.15,10.91,10.87,19.01l-5.11,32.34c1.72.82,3.39,1.9,4.94,3.27.29.26.58.52.85.8,6.27,6.27,9.05,17.02,1.14,26.9-.12.15-.25.3-.37.45-11.3,13.19-25.61,20.75-39.26,20.75Zm29.46-31.73s0,.02,0,.03c0-.01,0-.02,0-.03Z"/><path class="cls-2" d="m448.43,138.95c-8.59,0-16.04-3.3-20.98-9.31-4.96-6.03-6.77-14.08-5.1-22.69l4.62-24.3c-2-.99-4.08-2.44-6.06-4.58-8.29-8.66-6.08-19.6-.09-26.82,4.36-5.45,9.23-9.94,14.46-13.38-.78-2.65-1.2-5.46-1.2-8.4,0-16.25,12.67-28.98,28.83-28.98s28.83,12.73,28.83,28.98c0,6.59-2.1,12.59-5.69,17.4,1.31,4.11,1.86,9.34.67,15.87l-.03.17-4.67,24.26c1.45.76,2.84,1.72,4.16,2.87.3.26.58.53.86.81,7.8,7.81,8.06,19.07.66,27.47-11.45,13.3-25.4,20.62-39.3,20.62Zm12.91-109.18c2.66,0,5.2.32,7.59.95.1-.41.15-.82.15-1.24,0-3.28-2.88-6.17-6.17-6.17s-6.17,2.88-6.17,6.17c0,.18,0,.35.03.53,1.51-.16,3.03-.23,4.56-.23Z"/><path class="cls-2" d="m587.89,138.95c-7.78,0-14.65-2.7-19.56-7.65-3.23,4.07-8.21,6.64-13.73,6.64h-18.94c-4.57,0-8.94-1.79-12.2-4.95-3.17,3.08-7.49,4.95-12.2,4.95h-18.94c-5.1,0-9.94-2.22-13.27-6.09-3.32-3.86-4.8-8.99-4.04-14.03l5.26-34.79c-2.17-.94-4.44-2.39-6.64-4.59-8.84-8.84-6.47-20.18-.19-27.5.03-.04.06-.07.09-.1,15.07-17.29,29.77-20.93,39.45-20.93,6.97,0,12.09,1.91,15.79,4.35,5.23-2.71,11.42-4.35,18.79-4.35,8.09,0,15.28,2.2,20.91,6.3,5.88-3.85,13.13-6.3,22.13-6.3,14.14,0,22.25,6.22,26.55,11.44,7.05,8.54,9.16,20.46,6.29,35.43l-1.92,10.34c1.49.77,2.93,1.75,4.29,2.94.29.26.58.52.86.8,7.8,7.81,8.06,19.07.66,27.47-11.45,13.3-25.45,20.62-39.44,20.62Z"/><path class="cls-2" d="m649.16,138.95c-20.73,0-43.04-14.14-43.04-45.19,0-34.61,27.99-63.84,61.12-63.84,23.16,0,33.71,15.84,33.71,30.56,0,10.17-4.21,18.52-10.26,25.25,1.71,1.46,3.16,3.23,4.29,5.28,2.17,3.94,4.77,12.16-2.07,22.91-.11.18-.23.35-.35.53-10.88,15.8-26.29,24.51-43.4,24.51Z"/><path class="cls-2" d="m718.03,137.94h-19.51c-5.11,0-9.97-2.24-13.29-6.12-3.32-3.88-4.78-9.03-4-14.08l5.43-34.75c-2.14-.94-4.37-2.38-6.54-4.55-6.37-6.37-8.89-17.34-.2-27.49.03-.04.06-.07.09-.11,15.07-17.29,29.77-20.93,39.45-20.93,6.09,0,10.72,1.48,14.21,3.5,4.48-2.28,9.62-3.65,15.5-3.65,16.28,0,28.55,12.27,28.55,28.55s-11.78,27.54-26.83,27.54c-2.92,0-5.5-.43-7.76-1.14-2.15,7.12-4.91,18.94-7.78,38.3-1.27,8.58-8.64,14.93-17.31,14.93Z"/><g class="cls-3"><path d="m15.93,122.39l1.47-8.59,1.36-.08c7.93-.44,9.7-2.52,10.32-6.45l8.6-62.95c.28-1.89.09-3.2-.6-4.04-1.03-1.27-3.43-1.96-7.56-2.2l-1.91-.11,1.44-8.37,1.49.05c3.42.11,10.01.29,15.73.29,4.1,0,8.72-.09,12.79-.17,3.28-.06,6.39-.14,8.59-.12,14.63,0,25.21,2.76,32.36,8.44,7.95,6.32,11.82,16.23,11.82,30.28,0,14.8-4.5,28.16-12.68,37.61-8.99,10.4-22.01,15.89-37.66,15.89-3.71,0-7.12-.33-10.74-.67-3.9-.37-7.92-.76-12.65-.76-5.14,0-10.54.63-15.77,1.24-1.39.16-2.77.32-4.14.47l-2.25.24Zm4.38-5.35l-.25,1.46c.62-.07,1.24-.14,1.86-.22,5.32-.62,10.83-1.26,16.16-1.26,4.89,0,9,.39,12.98.78,3.53.34,6.87.66,10.41.66,28.51,0,46.93-19.66,46.93-50.09,0-24.75-12.19-35.31-40.76-35.31h-.02c-2.17,0-5.24.06-8.5.12-4.09.08-8.72.17-12.86.17-5.02,0-10.7-.14-14.35-.24l-.29,1.71c4.13.43,6.61,1.45,8.12,3.3,1.32,1.63,1.76,3.81,1.33,6.68l-8.61,62.97c-1.07,6.76-5.59,8.72-12.14,9.27Zm39.29-.33c-2.8,0-4.89-.78-6.21-2.33-1.39-1.62-1.84-4.02-1.36-7.11l10.18-69.94.88-.38c2.13-.91,3.91-1.29,6.13-1.29,6.53,0,17.49,3.6,17.49,27.68,0,21.52-8.61,53.36-27.1,53.36Zm5.71-76.96l-9.9,68.04c-.33,2.08-.13,3.55.58,4.38.64.75,1.86,1.13,3.62,1.13,8.95,0,14.58-9.48,17.73-17.43,4.39-11.11,5.96-24.08,5.96-32.52,0-20.05-7.65-24.26-14.07-24.26-1.43,0-2.59.19-3.9.66Z"/><path d="m136.51,123.16c-3.84,0-6.88-1.23-8.79-3.55-1.36-1.65-2.76-4.66-1.78-9.67l8.88-46.71c.08-.71-.03-1.01-.07-1.07-.02-.02-.21-.12-.68-.12-1.09,0-4.46,2.15-7.54,5.24-.95,1.04-1.95,1.58-3.02,1.58h-.02c-1.41,0-2.4-.95-3.03-1.65-2.2-2.19-.79-4.24.7-5.98,8.01-10.08,18.06-15.66,28.27-15.66,3.62,0,6.34,1.07,8.1,3.18,2.06,2.47,2.65,6.23,1.75,11.17l-8.61,44.78c-.13.61-.11,1.04.05,1.25.15.19.54.31,1,.31,1.74,0,4.23-1.49,6.83-4.09,1.76-1.76,3.51-1.83,5.35-.22l.08.08c2.48,2.48,1.14,4.58-.08,5.94-8.39,9.79-18.12,15.2-27.38,15.2Zm-2.44-64.54c1.4,0,2.49.43,3.24,1.28.8.9,1.1,2.18.9,3.8l-.02.11-8.9,46.78c-.58,2.93-.21,5.3,1.07,6.85,1.57,1.9,4.21,2.3,6.15,2.3,8.12,0,17.17-5.12,24.82-14.04.42-.47.56-.71.61-.81-.04-.07-.13-.2-.34-.41-.12-.1-.21-.17-.28-.22-.08.06-.2.16-.36.32-2.32,2.32-5.81,5.09-9.24,5.09-1.54,0-2.84-.56-3.66-1.59-.58-.73-1.18-2.03-.73-4.08l8.6-44.72c.71-3.88.36-6.7-1.02-8.35-1.08-1.3-2.93-1.95-5.48-1.95-9.14,0-18.25,5.12-25.64,14.42-.64.75-.88,1.14-.98,1.32.03.04.07.08.13.14.3.33.48.48.57.55.09-.06.27-.19.54-.49.69-.7,6.4-6.3,10.02-6.3Zm-6.46,51.64h0,0Zm23.39-67.74c-7.31,0-13.04-5.73-13.04-13.04s5.73-13.19,13.04-13.19,13.04,5.79,13.04,13.19-5.73,13.04-13.04,13.04Zm0-22.81c-5.49,0-9.63,4.2-9.63,9.77s4.23,9.63,9.63,9.63,9.63-4.23,9.63-9.63-4.14-9.77-9.63-9.77Z"/><path d="m196.49,123.44c-14.23,0-25.38-7.12-25.38-16.2,0-4.42,2.87-9.17,9.17-9.17s8.86,4.98,11,9.38c2.29,4.7,3.97,7.55,8.08,7.55,2.96,0,4.46-1.4,4.46-4.17,0-3.94-3.23-7.91-8.58-14.47-1.3-1.59-2.72-3.34-4.25-5.27-.77-1-1.52-1.95-2.26-2.9-5.37-6.85-10.45-13.31-10.45-21.84,0-12.16,11.09-20.65,26.96-20.65,10.87,0,22.51,6.22,22.51,15.48,0,5.22-3.32,8.6-8.45,8.6-6.69,0-9.67-5.15-12.07-9.3-2.23-3.84-3.73-6.2-6.58-6.2-1.34,0-3.46.74-3.46,2.74,0,2.64,3.84,7.31,8.28,12.72,1.82,2.22,3.89,4.74,6,7.47.78,1.03,1.57,2.03,2.35,3.03,5.16,6.6,10.49,13.43,10.49,22.11,0,12.61-11.18,21.08-27.82,21.08Zm-16.21-21.95c-4.24,0-5.75,2.97-5.75,5.75,0,6.15,8.4,12.78,21.97,12.78,14.83,0,24.4-6.93,24.4-17.66,0-7.51-4.74-13.58-9.77-20.01-.79-1.01-1.59-2.03-2.37-3.06-2.07-2.68-4.12-5.18-5.93-7.38-5.26-6.4-9.06-11.03-9.06-14.89s3.49-6.16,6.87-6.16c4.96,0,7.4,4.2,9.54,7.9,2.26,3.9,4.39,7.59,9.11,7.59,4.38,0,5.04-3.25,5.04-5.18,0-7.11-10.06-12.07-19.1-12.07-14.08,0-23.54,6.92-23.54,17.23,0,7.34,4.51,13.08,9.72,19.73.75.95,1.51,1.92,2.26,2.91,1.51,1.9,2.92,3.63,4.21,5.22,5.83,7.15,9.35,11.47,9.35,16.63,0,4.68-3.02,7.59-7.88,7.59-6.54,0-8.99-5.03-11.15-9.47-2.26-4.64-3.93-7.46-7.93-7.46Z"/><path d="m259.33,123.16c-6.12,0-26.1-2.04-26.1-28.25,0-23.22,18.22-49.2,42.6-49.2,12.38,0,22.08,8.06,22.08,18.35,0,6.46-4.17,13.33-11.9,13.33-5.74,0-9.31-3.68-9.31-9.6,0-3.03.45-5.68.81-7.81.37-2.19.72-4.26.18-4.9-.2-.24-.87-.65-3.01-.65-7,0-11.27,6.2-13.62,11.41-3.3,7.3-4.48,16.17-4.48,22.04,0,16.24,7.38,18.67,11.78,18.67,4.73,0,9.43-2.43,13.97-7.22.21-.21.37-.38.52-.53.88-.92,1.78-1.86,3.59-1.86h2.3c2.11,0,2.98,1.1,3.31,1.76,1.06,2.12-.63,4.81-1.46,5.94-7.53,12.13-18.34,18.54-31.26,18.54Zm16.5-74.03c-22.43,0-39.18,24.17-39.18,45.78s15.86,24.83,22.68,24.83c11.7,0,21.51-5.87,28.39-16.98l.09-.13c.79-1.05,1.09-1.88,1.16-2.28-.06,0-.13-.01-.22-.01h-2.3c-.3,0-.35,0-1.12.81-.17.17-.34.36-.54.56-5.18,5.46-10.72,8.25-16.42,8.25-9.66,0-15.2-8.05-15.2-22.08,0-8.06,1.79-16.82,4.78-23.44,3.97-8.78,9.75-13.42,16.73-13.42,1.74,0,4.21.19,5.62,1.86,1.56,1.85,1.13,4.42.58,7.67-.36,2.11-.76,4.5-.76,7.24s1.02,6.18,5.9,6.18c5.57,0,8.48-4.99,8.48-9.91,0-8.24-8.37-14.94-18.67-14.94Z"/><path d="m312.85,123.16c-3.7,0-6.65-1.16-8.53-3.37-1.99-2.32-2.7-5.71-2.05-9.8v-.02s11.77-69.44,11.77-69.44c.23-1.67.03-2.85-.63-3.54-.94-.99-3.05-1.35-6.3-1.07l-2.11.18,1.3-9.98,1.27-.19c9.65-1.45,16.05-3.05,20.29-4.11,3.04-.76,4.87-1.22,6.23-1.22,2.02,0,3.55.62,4.56,1.83,1.18,1.42,1.5,3.45.99,6.22l-12.76,76.02c-.1.59-.05,1.04.14,1.26.18.21.57.33,1.04.33.99,0,3.22-.53,6.95-4.07.53-.6,1.36-1.35,2.54-1.4,1.16-.05,2.09.64,2.68,1.16l.08.08c2.48,2.48,1.14,4.58-.08,5.94-8.39,9.79-18.12,15.2-27.38,15.2Zm-7.21-12.62c-.48,3.07-.04,5.5,1.28,7.04,1.54,1.8,4.07,2.17,5.93,2.17,8.12,0,17.17-5.12,24.82-14.04.42-.47.56-.71.61-.81-.04-.07-.13-.2-.34-.41-.09-.08-.17-.14-.23-.18-.05.05-.11.11-.19.2l-.11.11c-3.53,3.36-6.67,5.06-9.36,5.06-1.51,0-2.8-.55-3.65-1.54-.6-.71-1.25-1.99-.91-4.03l12.77-76.05c.31-1.66.22-2.87-.25-3.44-.33-.4-.98-.6-1.94-.6s-2.81.47-5.4,1.12c-4.11,1.03-10.23,2.56-19.33,3.98l-.43,3.3c3.24,0,5.52.7,6.96,2.23,1.4,1.47,1.91,3.63,1.52,6.41l-11.77,69.48Z"/><path d="m399.65,123.16c-4.12,0-7.34-1.27-9.33-3.66-1.08-1.3-2.19-3.46-2.12-6.8-5.11,7.24-11.49,10.46-20.12,10.46-13.85,0-21.79-8.26-21.79-22.66,0-12.58,6-26.53,16.04-37.32,10.51-11.29,24.06-17.76,37.17-17.76,6.28,0,13.24,1.54,21.29,4.71l1.28.5-8.54,54.01c-.1.61-.05,1.07.15,1.31.16.19.5.31.89.31,1.86,0,4.33-1.45,6.97-4.09,1.76-1.76,3.5-1.83,5.35-.22l.08.08c2.6,2.6.76,4.89-.02,5.86-8.33,9.72-18.27,15.28-27.3,15.28Zm-1.66-40.41l-6.14,27.88c-.54,2.88-.17,5.15,1.1,6.69,1.66,2.01,4.56,2.43,6.7,2.43,8.03,0,17.03-5.12,24.67-14.04.44-.55.55-.8.58-.88-.02,0-.1-.13-.31-.35-.12-.1-.21-.17-.28-.22-.08.06-.2.16-.36.32-3.33,3.33-6.58,5.09-9.39,5.09-1.41,0-2.68-.55-3.5-1.52-.61-.72-1.26-2-.91-4.06l8.1-51.28c-7.1-2.68-13.24-3.98-18.76-3.98-12.17,0-24.8,6.08-34.67,16.67-9.47,10.17-15.13,23.25-15.13,34.99,0,15.9,9.99,19.24,18.38,19.24,10.49,0,16.98-5.39,22.38-18.59l7.53-18.4Zm-23.02,32.09c-4.96,0-8.16-5.74-8.16-14.62,0-16.52,8.31-48.91,27.53-48.91,1.27,0,5.13,0,6.59,3.32l.21.47-2.25,12.72c-2.27,12.19-5.42,23.29-8.86,31.25-4.52,10.47-9.59,15.77-15.05,15.77Zm19.37-60.12c-9.12,0-14.92,9.22-18.17,16.96-4.11,9.77-5.95,21.37-5.95,28.54,0,6.49,2,11.21,4.75,11.21,7.47,0,15.54-17.36,20.56-44.22l2.04-11.57c-.64-.79-1.97-.9-3.23-.9Zm2.87,12.78h0,0Z"/><path d="m448.43,123.16c-3.84,0-6.88-1.23-8.79-3.55-1.36-1.65-2.76-4.66-1.78-9.67l8.88-46.71c.08-.71-.03-1.01-.08-1.07-.02-.02-.21-.12-.68-.12-1.09,0-4.46,2.15-7.54,5.24-.95,1.04-1.95,1.58-3.02,1.58h-.02c-1.41,0-2.4-.95-3.03-1.65-2.19-2.19-.79-4.24.7-5.98,8.01-10.08,18.06-15.66,28.27-15.66,3.62,0,6.34,1.07,8.1,3.18,2.06,2.47,2.65,6.23,1.75,11.17l-8.61,44.78c-.13.61-.11,1.04.05,1.25.15.19.54.31,1,.31,1.74,0,4.23-1.49,6.83-4.09,1.76-1.76,3.51-1.83,5.35-.22l.08.08c2.48,2.48,1.14,4.58-.08,5.94-8.39,9.79-18.13,15.2-27.38,15.2Zm-2.44-64.54c1.4,0,2.49.43,3.24,1.28.8.9,1.1,2.18.9,3.8l-.02.11-8.9,46.78c-.57,2.93-.21,5.3,1.07,6.85,1.57,1.9,4.21,2.3,6.15,2.3,8.12,0,17.17-5.12,24.82-14.04.42-.47.56-.71.61-.81-.04-.07-.13-.2-.34-.41-.12-.1-.21-.17-.28-.22-.08.06-.2.16-.36.32-2.32,2.32-5.81,5.09-9.24,5.09-1.54,0-2.84-.56-3.67-1.59-.58-.73-1.18-2.03-.73-4.08l8.6-44.72c.71-3.88.36-6.7-1.02-8.35-1.08-1.3-2.93-1.95-5.48-1.95-9.14,0-18.25,5.12-25.64,14.42-.64.75-.88,1.14-.98,1.32.03.04.07.08.13.14.3.33.48.48.57.54.09-.06.27-.19.54-.49.69-.7,6.4-6.3,10.02-6.3Zm-6.46,51.64h0,0Zm23.39-67.74c-7.31,0-13.04-5.73-13.04-13.04s5.73-13.19,13.04-13.19,13.04,5.79,13.04,13.19-5.73,13.04-13.04,13.04Zm0-22.81c-5.49,0-9.63,4.2-9.63,9.77s4.23,9.63,9.63,9.63,9.63-4.23,9.63-9.63-4.14-9.77-9.63-9.77Z"/><path d="m587.89,123.16c-3.8,0-6.83-1.19-8.77-3.43-2.01-2.34-2.72-5.61-2.1-9.72v-.05s6.61-36.73,6.61-36.73c.85-4.8,1.75-11.46-.17-13.74-.32-.38-.91-.89-2.31-.89-6.67,0-18.8,19.26-24.85,62.09l-.21,1.47h-22.39l7.02-48.87c.88-6,1.46-11.82-.29-13.84-.32-.37-.9-.85-2.32-.85-6.08,0-18.28,16.86-25.14,62.11l-.22,1.45h-22.39l8.91-58.92c.12-.64.04-.92-.02-.99-.06-.07-.32-.2-.88-.2-1.09,0-4.46,2.15-7.54,5.24-.89.98-1.86,1.5-2.9,1.53-1.36.04-2.37-.8-3.1-1.53-2.26-2.27-.86-4.31.63-6.05,8.85-10.16,18.37-15.52,27.55-15.52,4.05,0,7.04,1.12,8.87,3.32,2.03,2.44,2.59,6,1.7,10.89l-.51,2.36c4.99-9.07,12.28-16.57,24.51-16.57,6.35,0,11.29,2.02,14.29,5.84,2.38,3.03,3.53,7.12,3.45,12.23,5-9.73,12.41-18.08,25.31-18.08,6.42,0,11.25,1.92,14.37,5.7,3.92,4.74,4.91,12.3,2.94,22.45l-5.74,30.84c-.1.58-.05,1.08.13,1.29.15.17.49.28.91.28,1.74,0,4.23-1.49,6.83-4.09,1.76-1.76,3.5-1.83,5.35-.22l.08.08c2.48,2.48,1.14,4.58-.08,5.94-8.39,9.79-18.18,15.2-27.53,15.2Zm-7.5-12.62c-.46,3.07-.02,5.41,1.32,6.96,1.6,1.86,4.24,2.25,6.18,2.25,8.34,0,17.2-4.99,24.96-14.04.42-.47.56-.71.61-.81-.04-.07-.13-.2-.34-.41-.12-.1-.21-.17-.28-.22-.08.06-.2.16-.36.32-2.32,2.32-5.81,5.09-9.24,5.09-1.46,0-2.71-.53-3.52-1.48-.6-.71-1.24-1.99-.89-4.09l5.74-30.88c1.76-9.12,1.01-15.72-2.22-19.64-2.44-2.96-6.39-4.45-11.74-4.45-13.86,0-20.47,10.7-25.98,24.71,5.03-11.78,10.82-18.66,16.51-18.66,2.1,0,3.76.71,4.93,2.11,2.25,2.68,2.51,7.47.91,16.54l-6.6,36.71Zm-42.76,8.2h15.49c2.19-14.96,5.33-28.1,9.02-38.49l-3.17-.97,1.58-6.17c2.19-8.94,1.72-15.49-1.38-19.45-2.36-3.01-6.26-4.54-11.6-4.54-13.49,0-20.11,10.14-25.54,23.61,4.96-11.17,10.55-17.56,16.07-17.56,2.09,0,3.74.69,4.91,2.04,2.51,2.91,2.3,8.28,1.08,16.56l-6.46,44.96Zm-43.32,0h15.49c1.93-12.35,4.43-23.38,7.3-32.64l-6.56,18.3,9.67-45.14c.68-3.73.35-6.45-.97-8.04-1.16-1.39-3.26-2.09-6.25-2.09-8.16,0-16.8,4.96-24.97,14.34-.6.7-.84,1.08-.93,1.26.03.04.07.08.13.14.33.33.52.46.61.51.08-.05.25-.17.51-.45.69-.7,6.4-6.3,10.02-6.3,1.91,0,2.96.78,3.5,1.44.54.65,1.12,1.83.76,3.74l-8.3,54.94Z"/><path d="m649.16,123.16c-12.57,0-27.25-7.7-27.25-29.4,0-25.6,21.18-48.05,45.33-48.05,13.21,0,17.92,7.63,17.92,14.76,0,17.14-24.08,28.8-39.2,33.29.01,3.98,1.13,7.25,3.26,9.49,1.99,2.09,4.9,3.29,7.98,3.29,3.81,0,9.55-1.82,14.24-6.91l.12-.14c1.29-1.43,2.3-2.56,4.86-2.56h1.44c2.05,0,2.93,1.05,3.27,1.67.87,1.59.37,3.83-1.55,6.83-7.99,11.61-18.5,17.72-30.42,17.72Zm18.08-74.03c-22.33,0-41.91,20.86-41.91,44.64,0,11.99,6.24,25.98,23.83,25.98,10.75,0,20.29-5.6,27.58-16.19,1.11-1.74,1.37-2.77,1.39-3.19-.07,0-.15-.02-.27-.02h-1.44c-1,0-1.16.14-2.32,1.43l-.14.16c-6.86,7.45-14.57,8.03-16.76,8.03-4.01,0-7.82-1.59-10.46-4.36-3-3.16-4.44-7.73-4.16-13.22l.06-1.23,1.18-.33c13.12-3.68,37.92-14.76,37.92-30.35,0-7.11-5.42-11.35-14.5-11.35Zm-24.59,40.24l.22-2.5c1.66-18.87,10.57-35.42,19.06-35.42,1.98,0,6.59.98,6.59,10.03,0,12.69-8.77,22.85-23.46,27.18l-2.41.71Zm19.28-34.5c-4.87,0-13.15,11.74-15.38,29.71,11.67-4.22,18.55-12.72,18.55-23.09,0-2.47-.41-6.61-3.17-6.61Z"/><path d="m719.5,122.15h-22.98l9.2-58.93c.12-.63.04-.91-.02-.98-.06-.07-.32-.2-.88-.2-1.09,0-4.46,2.15-7.54,5.24-.89.98-1.86,1.5-2.9,1.53-1.34.04-2.37-.8-3.1-1.53-2.26-2.27-.86-4.31.63-6.05,8.85-10.16,18.37-15.52,27.55-15.52,3.92,0,6.64,1.02,8.29,3.11,1.9,2.4,2.21,5.96.98,11.19l-.14.54c5.04-8.73,11.56-14.98,20.57-14.98,7.63,0,12.76,5.13,12.76,12.76,0,6.81-4.64,11.75-11.03,11.75-5.04,0-7.05-3.05-8.52-5.28-1.22-1.86-1.88-2.75-3.39-2.75-3.17,0-11.4,5.72-19.26,58.66l-.22,1.46Zm-18.99-3.42h16.05c8.13-53.85,16.68-60.12,22.42-60.12,3.42,0,4.99,2.38,6.24,4.29,1.38,2.09,2.47,3.75,5.67,3.75,3.67,0,7.62-2.61,7.62-8.33s-3.58-9.34-9.34-9.34c-10.45,0-18.25,9.95-26.07,33.27l-3.28-.96,5.6-22.1c.96-4.05.85-6.76-.34-8.26-.96-1.22-2.8-1.81-5.61-1.81-8.16,0-16.8,4.96-24.97,14.34-.6.7-.84,1.08-.93,1.26.03.04.08.08.13.14.33.33.52.46.61.51.08-.05.25-.17.51-.45.69-.7,6.4-6.3,10.02-6.3,1.91,0,2.96.78,3.5,1.44.54.65,1.12,1.83.76,3.74l-8.58,54.94Z"/></g><path class="cls-1" d="m18.86,115.42c7.75-.43,11.05-2.44,11.91-7.89l8.61-62.99c.86-5.74-2.15-7.75-9.76-8.18l.86-5.02c4.59.14,10.62.29,15.78.29,7.46,0,16.5-.29,21.38-.29,26.83,0,42.47,9.18,42.47,37.02s-16.5,51.8-48.64,51.8c-7.6,0-14.2-1.43-23.39-1.43-6.6,0-13.49,1-20.09,1.72l.86-5.02Zm66.14-52.08c0-17.79-6.17-25.97-15.78-25.97-1.87,0-3.44.29-5.45,1.15l-10.04,69.01c-.86,5.45,1.58,7.46,5.88,7.46,17.65,0,25.4-32.14,25.4-51.65Z"/><path class="cls-1" d="m127.62,110.26l8.9-46.77c.29-2.3-.72-3.16-2.44-3.16-2.15,0-6.31,3.3-8.75,5.74-1.43,1.58-2.44,1.29-3.59,0-1-1-1-1.72.72-3.73,8.32-10.47,18.08-15.07,26.97-15.07,7.03,0,9.61,4.45,8.18,12.34l-8.61,44.77c-.57,2.58,1,3.59,2.73,3.59,2.3,0,5.17-1.72,8.03-4.59,1.15-1.15,1.87-1.15,3.01-.14,1.29,1.29,1.15,2.15-.14,3.59-8.61,10.04-18.08,14.63-26.11,14.63-6.46,0-10.33-3.87-8.9-11.19Zm12.05-80.78c0-6.46,4.88-11.48,11.33-11.48s11.33,5.02,11.33,11.48-4.88,11.33-11.33,11.33-11.33-5.02-11.33-11.33Z"/><path class="cls-1" d="m172.81,107.24c0-3.87,2.44-7.46,7.46-7.46,10.76,0,8.18,16.93,19.08,16.93,4.16,0,6.17-2.44,6.17-5.88,0-5.6-5.02-10.47-13.2-20.8-6.17-8.04-12.34-14.63-12.34-23.67,0-11.76,10.9-18.94,25.25-18.94,9.76,0,20.8,5.45,20.8,13.77,0,3.73-2.01,6.89-6.74,6.89-10.76,0-10.19-15.5-18.65-15.5-2.3,0-5.17,1.43-5.17,4.45,0,4.45,6.89,11.19,14.63,21.23,5.88,7.75,12.48,14.78,12.48,24.1,0,12.05-10.76,19.37-26.11,19.37-13.92,0-23.67-6.89-23.67-14.49Z"/><path class="cls-1" d="m234.94,94.9c0-23.67,18.37-47.49,40.89-47.49,11.77,0,20.37,7.75,20.37,16.64,0,6.03-3.73,11.62-10.19,11.62-5.31,0-7.6-3.44-7.6-7.89,0-9.47,4.59-15.07-3.73-15.07-14.06,0-19.8,21.38-19.8,35.15,0,12.48,4.59,20.37,13.49,20.37,4.73,0,9.9-2.15,15.21-7.75,1.15-1.15,1.58-1.87,2.87-1.87h2.3c2.87,0,2.15,2.73.43,5.02-7.46,12.05-17.94,17.79-29.84,17.79-12.63,0-24.39-7.17-24.39-26.54Z"/><path class="cls-1" d="m303.95,110.26l11.76-69.44c.72-5.17-2.01-7.17-8.75-6.6l.86-6.6c16.21-2.44,23.39-5.31,26.26-5.31,3.44,0,4.59,2.15,3.87,6.03l-12.77,76.04c-.43,2.58,1.15,3.59,2.87,3.59,2.3,0,5.17-1.72,8.18-4.59,1-1.15,1.72-1.15,2.87-.14,1.29,1.29,1.15,2.15-.14,3.59-8.61,10.04-18.08,14.63-26.11,14.63-6.46,0-10.04-3.87-8.9-11.19Z"/><path class="cls-1" d="m348,100.5c0-25.25,24.39-53.37,51.51-53.37,4.73,0,11.19.86,20.66,4.59l-8.32,52.66c-.43,2.58,1.15,3.59,2.73,3.59,2.44,0,5.31-1.72,8.18-4.59,1.15-1.15,1.87-1.15,3.01-.14,1.29,1.29,1,2.15-.14,3.59-8.61,10.04-18.22,14.63-25.97,14.63-6.6,0-10.91-3.59-9.47-11.19l1.87-8.47c-5.17,12.63-11.77,19.66-23.96,19.66-9.9,0-20.09-4.59-20.09-20.95Zm49.21-33l2.15-12.2c-1-2.29-3.87-2.29-5.02-2.29-18.22,0-25.83,32.28-25.83,47.2,0,7.46,2.44,12.91,6.46,12.91,10.33,0,18.22-24.1,22.24-45.63Z"/><path class="cls-1" d="m439.54,110.26l8.9-46.77c.29-2.3-.72-3.16-2.44-3.16-2.15,0-6.31,3.3-8.75,5.74-1.43,1.58-2.44,1.29-3.59,0-1-1-1-1.72.72-3.73,8.32-10.47,18.08-15.07,26.97-15.07,7.03,0,9.61,4.45,8.18,12.34l-8.61,44.77c-.57,2.58,1,3.59,2.73,3.59,2.29,0,5.17-1.72,8.03-4.59,1.15-1.15,1.87-1.15,3.01-.14,1.29,1.29,1.15,2.15-.14,3.59-8.61,10.04-18.08,14.63-26.11,14.63-6.46,0-10.33-3.87-8.9-11.19Zm12.05-80.78c0-6.46,4.88-11.48,11.33-11.48s11.33,5.02,11.33,11.48-4.88,11.33-11.33,11.33-11.33-5.02-11.33-11.33Z"/><path class="cls-1" d="m578.71,110.26l6.6-36.73c1.72-9.76,1.72-16.64-4.16-16.64-8.75,0-20.66,21.95-26.54,63.56h-18.94l6.74-46.92c1.43-9.76,1.72-16.64-4.3-16.64-8.75,0-20.52,21.95-26.83,63.56h-18.94l8.61-56.96c.43-2.3-.86-3.16-2.58-3.16-2.15,0-6.31,3.3-8.75,5.74-1.43,1.58-2.44,1.15-3.59,0-1-1-1-1.72.72-3.73,8.75-10.04,17.93-14.92,26.26-14.92,7.75,0,10.33,4.3,8.9,12.2l-4.3,20.09c5.45-15.21,12.05-32.28,29.99-32.28,10.33,0,19.66,5.6,14.63,26.11l-1.58,6.17c5.45-15.21,12.05-32.28,29.99-32.28,10.33,0,19.66,5.31,15.64,26.11l-5.74,30.85c-.43,2.58,1,3.59,2.73,3.59,2.3,0,5.17-1.72,8.04-4.59,1.15-1.15,1.87-1.15,3.01-.14,1.29,1.29,1.15,2.15-.14,3.59-8.61,10.04-18.08,14.63-26.26,14.63-6.31,0-10.33-3.59-9.18-11.19Z"/><path class="cls-1" d="m623.62,93.76c0-24.68,20.23-46.34,43.62-46.34,11.62,0,16.21,6.31,16.21,13.06,0,17.5-27.4,28.7-39.17,32-.57,11.33,6.6,15.78,12.91,15.78,4.3,0,10.47-2.01,15.5-7.46,1.29-1.44,1.87-2.15,3.73-2.15h1.44c2.87,0,2.29,2.73.29,5.88-7.6,11.05-17.65,16.93-28.98,16.93-12.48,0-25.54-7.89-25.54-27.69Zm43.19-32.28c0-5.6-1.87-8.32-4.88-8.32-6.6,0-15.64,14.35-17.36,33.86,13.63-4.02,22.24-13.34,22.24-25.54Z"/><path class="cls-1" d="m698.51,120.44l8.9-56.96c.43-2.3-.86-3.16-2.58-3.16-2.15,0-6.31,3.3-8.75,5.74-1.43,1.58-2.44,1.15-3.59,0-1-1-1-1.72.72-3.73,8.75-10.04,17.93-14.92,26.26-14.92,7.75,0,9.47,4.3,7.6,12.2l-5.6,22.1c7.03-20.95,15.07-34.43,27.69-34.43,6.74,0,11.05,4.45,11.05,11.05s-4.3,10.04-9.33,10.04c-7.6,0-6.46-8.03-11.91-8.03-9.18,0-16.07,27.26-20.95,60.12h-19.51Z"/></g></svg>