<?xml version="1.0" encoding="UTF-8"?><svg id="Layer_2" xmlns="http://www.w3.org/2000/svg" viewBox="0 0 892.96 425.72"><defs><style>.cls-1{fill:#f26b83;}.cls-2{fill:#f7931e;}.cls-3{fill:#fff;}.cls-4{fill:#f2da5e;}.cls-5{fill:#ba0c2f;}.cls-6{fill:#bbb;}.cls-7{fill:#d9414e;}.cls-8{fill:#1b1464;}.cls-9{fill:#702426;}</style></defs><g id="exported"><path class="cls-8" d="m786.2,113.4h-52.91c-2.76,0-5-2.24-5-5s2.24-5,5-5h52.91c2.76,0,5,2.24,5,5s-2.24,5-5,5Z"/><path class="cls-8" d="m774.97,259.29h-52.91c-2.76,0-5-2.24-5-5s2.24-5,5-5h52.91c2.76,0,5,2.24,5,5s-2.24,5-5,5Z"/><path class="cls-9" d="m52.01,356.72c-1.77,0-3.21-1.44-3.21-3.21v-.95L25.83,49.45c.23-1.54,1.57-2.73,3.18-2.73h693.58c1.62,0,2.97,1.21,3.18,2.78l-20.97,303.15v.86c0,1.77-1.44,3.21-3.21,3.21H52.01Z"/><path class="cls-3" d="m52.01,363.72c-1.77,0-3.21-1.44-3.21-3.21v-.95L25.83,56.45c.23-1.54,1.57-2.73,3.18-2.73h693.58c1.62,0,2.97,1.21,3.18,2.78l-20.97,303.15v.86c0,1.77-1.44,3.21-3.21,3.21H52.01Z"/><path class="cls-1" d="m701.58,357.72H52.01c-2.32,0-4.21-1.89-4.21-4.21v-.95L24.82,49.42l.02-.11c.31-2.04,2.1-3.58,4.17-3.58h693.58c2.1,0,3.89,1.56,4.17,3.64v.1s0,.1,0,.1l-20.97,303.15v.79c0,2.32-1.89,4.21-4.21,4.21ZM26.84,49.5l22.96,302.99v1.02c0,1.22,1,2.21,2.21,2.21h649.58c1.22,0,2.21-.99,2.21-2.21v-.86l20.97-303.11c-.19-1.04-1.11-1.82-2.18-1.82H29.01c-1.05,0-1.97.76-2.17,1.78Z"/><path class="cls-9" d="m24.79,361.51c0,15.58,12.59,28.2,28.12,28.2h647.54c15.53,0,28.12-12.63,28.12-28.2"/><path class="cls-9" d="m700.46,390.71H52.92c-16.06,0-29.12-13.1-29.12-29.2h2c0,15,12.17,27.21,27.13,27.21h647.54c14.96,0,27.13-12.2,27.13-27.21h2c0,16.1-13.06,29.2-29.12,29.2Z"/><rect class="cls-6" x="26.03" y="164.73" width="699.93" height="2"/><rect class="cls-6" x="26.77" y="232.39" width="699.94" height="2"/><rect class="cls-6" x="26.77" y="300.06" width="699.94" height="2"/><rect class="cls-6" x="25.77" y="97.06" width="699.94" height="2"/><path class="cls-7" d="m722.79,23.72H29.21C13.63,23.72,1,36.35,1,51.93l23,303.58c0,15.58,12.63,28.21,28.21,28.21h649.58c15.58,0,28.21-12.63,28.21-28.21l21-303.58c0-15.58-12.63-28.21-28.21-28.21Zm-17.79,330.92v.86c0,1.77-1.44,3.21-3.21,3.21H52.21c-1.77,0-3.21-1.44-3.21-3.21v-.95L26.03,51.45c.23-1.54,1.57-2.73,3.18-2.73h693.58c1.62,0,2.97,1.21,3.18,2.78l-20.97,303.15Z"/><path class="cls-1" d="m701.79,384.72H52.21c-16.11,0-29.21-13.1-29.21-29.21L0,52.01c0-16.18,13.1-29.29,29.21-29.29h693.58c16.11,0,29.21,13.1,29.21,29.21l-21,303.65c0,16.04-13.1,29.14-29.21,29.14ZM29.21,24.72c-15,0-27.21,12.21-27.21,27.21l23,303.5c0,15.08,12.21,27.29,27.21,27.29h649.58c15,0,27.21-12.21,27.21-27.21l21-303.65c0-14.94-12.21-27.14-27.21-27.14H29.21Zm672.58,335H52.21c-2.32,0-4.21-1.89-4.21-4.21v-.95L25.03,51.42l.02-.11c.31-2.04,2.1-3.58,4.17-3.58h693.58c2.1,0,3.89,1.56,4.17,3.64v.1s0,.1,0,.1l-20.97,303.11v.83c0,2.32-1.89,4.21-4.21,4.21ZM27.04,51.5l22.96,302.99v1.02c0,1.22,1,2.21,2.21,2.21h649.58c1.22,0,2.21-.99,2.21-2.21v-.93s20.96-303.04,20.96-303.04c-.19-1.04-1.11-1.82-2.18-1.82H29.21c-1.05,0-1.97.76-2.17,1.78Z"/><path class="cls-7" d="m221.42,141.55l12.6-.53c5.85-.22,10.42-6.38,14.4-12.75l1.27.52-3.45,15.22h-35.92v-.15c2.55-4.65,3.15-7.27,3.15-13.42v-28.2c0-6-.6-8.47-3.07-12.97v-.15h14.1v.15c-2.55,4.5-3.07,6.97-3.07,12.97v39.3Z"/><path class="cls-7" d="m288.85,134.35l1.2.98c-2.55,5.4-7.72,9.82-15.52,9.82-10.42,0-17.55-7.65-17.55-19.35,0-12.9,8.7-20.92,18.15-20.92s15.67,8.25,14.7,16.95h-25.27v1.12c0,10.2,5.47,15.9,13.72,15.9,3.97,0,7.8-1.28,10.57-4.5Zm-24-15.3l17.25-.38v-.83c0-6.83-2.4-9.97-7.12-9.97-5.25,0-9.07,4.42-10.12,11.17Z"/><path class="cls-7" d="m296.8,137.12c0-9.08,12.3-13.35,21.3-14.77v-3.75c0-6.08-1.88-8.7-7.72-8.7-3.83,0-7.88,1.12-11.1,3.3l-1.05-1.05c3.37-4.2,9-7.27,15.6-7.27,9,0,11.7,5.47,11.7,11.85v19.57c0,2.33.82,3.75,3.15,3.75,1.65,0,2.85-.67,4.12-2.03l1.05.9c-1.27,2.62-3.9,6-8.77,6-4.2,0-6.38-2.55-6.75-5.78-2.7,3.15-7.05,6-12.37,6s-9.15-3.08-9.15-8.02Zm13.12,3.22c3.52,0,6.6-1.8,8.17-3.67v-11.77c-7.05,1.35-14.25,4.65-14.25,10.27,0,3.15,2.25,5.17,6.08,5.17Z"/><path class="cls-7" d="m339.92,143.87c1.5-4.2,1.88-7.95,1.88-14.62v-10.72c0-4.88-1.72-7.65-3.67-9.67v-.15l10.72-4.2v9.45h.38c3.3-3.6,7.42-9.07,12.75-9.07l-.15,9.3-.98.15c-1.5-.67-4.35-1.35-6.07-1.35-1.28,0-3.67,1.5-5.55,4.12v12.07c0,6.67.15,10.5,1.8,14.7v.15h-11.1v-.15Z"/><path class="cls-7" d="m370.22,143.87c1.5-4.2,1.88-7.95,1.88-14.62v-10.72c0-4.88-1.72-7.65-3.67-9.67v-.15l10.72-4.2v7.65l.38.08c3.45-4.5,7.57-7.35,13.12-7.35,7.28,0,11.33,4.5,11.33,11.55v12.75c0,6.83.15,10.5,1.8,14.7v.15h-11.1v-.15c1.58-4.2,1.88-8.25,1.88-14.62v-11.1c0-4.35-2.03-7.88-7.58-7.88-3.6,0-6.9,1.5-9.45,4.88v14.02c0,6.67.15,10.5,1.8,14.7v.15h-11.1v-.15Z"/><path class="cls-7" d="m434.87,143.87c1.58-4.2,1.88-7.95,1.88-14.62v-31.87c0-4.8-1.72-7.65-3.6-9.6v-.22l10.95-3.97v28.65h.08c3.6-4.5,7.65-7.35,13.2-7.35,7.27,0,11.32,4.5,11.32,11.55v12.75c0,6.83.15,10.5,1.88,14.7v.15h-11.1v-.15c1.5-4.2,1.8-8.25,1.8-14.62v-11.1c0-4.27-2.1-7.88-7.58-7.88-3.67,0-7.05,1.58-9.6,5.1v13.87c0,6.6.3,10.42,1.95,14.62v.15h-11.17v-.15Z"/><path class="cls-7" d="m510.69,134.35l1.2.98c-2.55,5.4-7.72,9.82-15.52,9.82-10.42,0-17.55-7.65-17.55-19.35,0-12.9,8.7-20.92,18.15-20.92s15.67,8.25,14.7,16.95h-25.27v1.12c0,10.2,5.47,15.9,13.72,15.9,3.97,0,7.8-1.28,10.57-4.5Zm-24-15.3l17.25-.38v-.83c0-6.83-2.4-9.97-7.12-9.97-5.25,0-9.08,4.42-10.12,11.17Z"/><path class="cls-7" d="m520.6,143.87c1.5-4.2,1.88-7.95,1.88-14.62v-10.72c0-4.88-1.72-7.65-3.67-9.67v-.15l10.72-4.2v9.45h.38c3.3-3.6,7.42-9.07,12.75-9.07l-.15,9.3-.97.15c-1.5-.67-4.35-1.35-6.08-1.35-1.27,0-3.67,1.5-5.55,4.12v12.07c0,6.67.15,10.5,1.8,14.7v.15h-11.1v-.15Z"/><path d="m110.18,197.94h25.83l37.38,73.81,36.83-73.81h25.27v108.09h-26.46v-70.46l-35.31,70.46h-10.2l-36.51-71.26v71.26h-16.82v-108.09Z"/><path d="m335.25,308.41c-8.72,0-16.85-1.41-24.39-4.22-7.55-2.82-14.08-6.76-19.61-11.84-5.53-5.07-9.87-11.11-13.03-18.09-3.16-6.99-4.74-14.65-4.74-23s1.58-15.69,4.74-22.52c3.16-6.83,7.5-12.69,13.03-17.58,5.53-4.89,12.06-8.69,19.61-11.4s15.68-4.07,24.39-4.07,16.83,1.37,24.35,4.11c7.52,2.74,14.06,6.55,19.61,11.44,5.55,4.89,9.92,10.72,13.11,17.5s4.78,14.2,4.78,22.28c0,5.74-.72,11.15-2.15,16.22-1.43,5.08-3.48,9.74-6.14,13.99-2.66,4.25-5.85,8.05-9.57,11.4-3.72,3.35-7.88,6.19-12.47,8.53-4.6,2.34-9.55,4.13-14.87,5.38-5.31,1.25-10.87,1.87-16.66,1.87Zm0-9.09c5.26,0,9.91-1.21,13.95-3.63,4.04-2.42,7.41-5.75,10.12-10,2.71-4.25,4.77-9.31,6.18-15.18,1.41-5.87,2.11-12.29,2.11-19.25s-.71-13.12-2.11-18.81c-1.41-5.69-3.47-10.57-6.18-14.67-2.71-4.09-6.08-7.28-10.12-9.56-4.04-2.28-8.69-3.43-13.95-3.43s-9.99,1.14-14.03,3.43c-4.04,2.29-7.41,5.47-10.12,9.56-2.71,4.09-4.76,8.98-6.14,14.67-1.38,5.69-2.07,11.96-2.07,18.81s.69,13.38,2.07,19.25c1.38,5.87,3.43,10.93,6.14,15.18,2.71,4.25,6.08,7.59,10.12,10,4.04,2.42,8.71,3.63,14.03,3.63Z"/><path d="m434.78,197.94h40.65c7.01,0,13.14.73,18.37,2.19,5.23,1.46,9.59,3.51,13.07,6.14,3.48,2.63,6.1,5.75,7.85,9.37,1.75,3.61,2.63,7.55,2.63,11.8,0,3.08-.6,5.99-1.79,8.73-1.2,2.74-2.87,5.26-5.02,7.57-2.15,2.31-4.76,4.36-7.81,6.14s-6.42,3.25-10.08,4.42l38.5,51.73h-28.86l-36.27-48.86h-4.7v48.86h-26.54v-108.09Zm26.54,49.74h5.74c3.24,0,6.24-.45,9.01-1.36,2.76-.9,5.15-2.19,7.17-3.87,2.02-1.67,3.6-3.73,4.74-6.18,1.14-2.44,1.71-5.21,1.71-8.29,0-2.87-.44-5.5-1.32-7.89-.88-2.39-2.09-4.45-3.63-6.18-1.54-1.73-3.4-3.07-5.58-4.03-2.18-.96-4.54-1.43-7.09-1.43h-10.76v39.22Z"/><path d="m653.07,197.94v9.25h-54.2v35.63h45.04v9.25h-45.04v42.88h54.2v11.08h-80.75v-108.09h80.75Z"/><path d="m241.48,317.02h-38.46v-51.1l-25.61,51.1h-17.58l-26.84-52.39v52.39h-28.82v-120.09h35.51l33.66,66.45,33.15-66.45h34.98v120.09Zm-26.46-12h14.46v-96.09h-15.56l-40.5,81.17-41.11-81.17h-16.14v96.09h4.82v-90.13l46.17,90.13h2.83l45.02-89.83v89.83Z"/><path d="m335.25,319.41c-9.39,0-18.3-1.55-26.49-4.6-8.24-3.08-15.5-7.46-21.57-13.04-6.1-5.6-10.96-12.34-14.44-20.04-3.5-7.74-5.28-16.3-5.28-25.47s1.78-17.45,5.3-25.04c3.5-7.55,8.38-14.13,14.5-19.55,6.07-5.37,13.33-9.6,21.56-12.55,8.16-2.93,17.05-4.42,26.42-4.42s18.26,1.5,26.4,4.47c8.19,2.98,15.43,7.21,21.52,12.57,6.15,5.41,11.05,11.96,14.58,19.45,3.55,7.55,5.35,15.9,5.35,24.83,0,6.26-.8,12.27-2.38,17.85-1.58,5.59-3.88,10.82-6.82,15.54-2.94,4.71-6.52,8.97-10.64,12.68-4.09,3.68-8.72,6.85-13.77,9.42-5,2.55-10.46,4.52-16.21,5.87-5.75,1.35-11.81,2.03-18.03,2.03Zm19.2-110c3.86,2.6,7.17,5.97,9.87,10.05,3.08,4.65,5.43,10.21,7,16.54,1.52,6.14,2.29,12.95,2.29,20.25s-.77,14.34-2.28,20.65c-1.56,6.5-3.9,12.22-6.95,17.01-2.83,4.45-6.35,8.1-10.47,10.89,3.58-1.05,6.98-2.39,10.15-4,4.11-2.09,7.87-4.66,11.18-7.64,3.29-2.96,6.14-6.36,8.49-10.12,2.34-3.75,4.18-7.94,5.45-12.44,1.28-4.52,1.93-9.43,1.93-14.59,0-7.15-1.42-13.78-4.21-19.72-2.82-6-6.74-11.23-11.65-15.55-4.96-4.37-10.92-7.83-17.7-10.3-1.02-.37-2.05-.71-3.1-1.03Zm-38.45-.02c-1.05.31-2.09.66-3.12,1.02-6.79,2.44-12.73,5.89-17.66,10.25-4.88,4.31-8.77,9.56-11.56,15.6-2.78,6-4.19,12.73-4.19,20s1.42,14.35,4.21,20.52c2.81,6.22,6.72,11.65,11.62,16.15,4.93,4.53,10.87,8.1,17.65,10.64,1.12.42,2.27.8,3.43,1.16-4.06-2.77-7.54-6.4-10.34-10.8-3.06-4.8-5.39-10.53-6.92-17.04-1.48-6.29-2.23-13.23-2.23-20.62s.75-14.11,2.24-20.23c1.54-6.33,3.88-11.91,6.96-16.56,2.71-4.09,6.04-7.47,9.91-10.08Zm19.25,6.4c-4.3,0-7.92.87-11.08,2.65-3.23,1.83-5.87,4.33-8.08,7.66-2.31,3.49-4.1,7.79-5.31,12.77-1.26,5.2-1.9,11.05-1.9,17.39s.64,12.48,1.91,17.88c1.22,5.19,3.02,9.67,5.36,13.33,2.22,3.49,4.89,6.13,8.15,8.08,3.12,1.87,6.7,2.78,10.95,2.78s7.75-.91,10.87-2.77c3.26-1.95,5.92-4.6,8.15-8.08,2.34-3.67,4.16-8.16,5.4-13.36,1.29-5.39,1.95-11.4,1.95-17.85s-.65-12.18-1.94-17.37c-1.24-4.99-3.04-9.3-5.36-12.79-2.2-3.32-4.84-5.83-8.08-7.66-3.15-1.78-6.75-2.65-10.99-2.65Z"/><path d="m543.09,317.02h-43.82l-31.95-43.05v43.05h-38.54v-120.09h46.65c7.52,0,14.25.81,19.99,2.41,5.94,1.66,11.01,4.06,15.08,7.13,4.23,3.2,7.47,7.08,9.63,11.53,2.15,4.42,3.23,9.27,3.23,14.42,0,3.9-.77,7.64-2.29,11.13-1.46,3.35-3.52,6.46-6.13,9.26-2.54,2.73-5.63,5.16-9.18,7.23-1.17.68-2.38,1.32-3.63,1.92l40.97,55.05Zm-37.78-12h13.89l-36.39-48.89,8.01-2.55c3.23-1.03,6.22-2.34,8.88-3.89,2.53-1.48,4.7-3.17,6.44-5.04,1.68-1.8,3-3.79,3.92-5.89.87-1.99,1.29-4.06,1.29-6.33,0-3.36-.66-6.36-2.03-9.18-1.35-2.77-3.33-5.13-6.07-7.2-2.86-2.16-6.58-3.89-11.07-5.15-3.31-.92-7.09-1.53-11.3-1.8.23.09.47.19.7.29,2.96,1.3,5.53,3.16,7.64,5.52,2.04,2.29,3.65,5.01,4.78,8.11,1.12,3.04,1.68,6.39,1.68,9.96,0,3.95-.77,7.6-2.28,10.83-1.52,3.24-3.65,6.02-6.35,8.25-2.6,2.15-5.67,3.82-9.14,4.95-2.25.74-4.65,1.23-7.15,1.47l34.53,46.53Zm-64.53,0h14.54v-96.09h-14.54v96.09Zm26.54-85.56v27.22c2.49-.02,4.81-.38,6.88-1.06,2.03-.66,3.78-1.6,5.21-2.78,1.34-1.11,2.36-2.45,3.14-4.1.77-1.65,1.15-3.53,1.15-5.75s-.32-4.11-.95-5.82c-.62-1.69-1.43-3.08-2.47-4.25-.97-1.09-2.12-1.91-3.51-2.53-1.42-.62-2.95-.93-4.68-.93h-4.76Z"/><path d="m659.07,317.02h-92.75v-120.09h92.75v21.25h-54.2v23.63h45.04v21.25h-45.04v30.88h54.2v23.08Zm-80.75-12h14.54v-96.09h-14.54v96.09Z"/><path d="m240.48,304.02h-36.46v-54.33l-27.22,54.33h-16.35l-28.45-55.53v55.53h-26.82v-118.09h33.9l34.28,67.68,33.77-67.68h33.36v118.09Zm-26.46-10h16.46v-98.09h-17.17l-39.89,79.94-40.49-79.94h-17.75v98.09h6.82v-86.99l44.56,86.99h4.06l43.4-86.6v86.6Z"/><path d="m335.25,306.41c-9.27,0-18.07-1.53-26.14-4.54-8.12-3.03-15.27-7.35-21.24-12.84-6-5.51-10.78-12.14-14.21-19.72-3.44-7.6-5.19-16.04-5.19-25.06s1.75-17.16,5.21-24.62c3.44-7.43,8.23-13.89,14.26-19.22,5.98-5.29,13.12-9.45,21.23-12.36,8.06-2.89,16.83-4.36,26.08-4.36s18.03,1.48,26.06,4.41c8.07,2.94,15.21,7.11,21.2,12.38,6.04,5.32,10.87,11.76,14.33,19.12,3.49,7.42,5.26,15.63,5.26,24.41,0,6.17-.79,12.09-2.34,17.58-1.55,5.5-3.81,10.64-6.71,15.28-2.89,4.63-6.41,8.82-10.46,12.46-4.03,3.62-8.59,6.74-13.55,9.27-4.93,2.51-10.31,4.46-15.99,5.79-5.67,1.33-11.66,2.01-17.8,2.01Zm11.34-111.82c1.77.61,3.46,1.37,5.07,2.27,4.71,2.67,8.69,6.42,11.83,11.16,3.01,4.55,5.32,10.01,6.86,16.23,1.5,6.06,2.26,12.79,2.26,20.01s-.76,14.19-2.25,20.42c-1.53,6.39-3.83,12.01-6.82,16.71-3.12,4.89-7.08,8.79-11.77,11.61-1.74,1.04-3.59,1.9-5.52,2.57,1.53-.24,3.04-.54,4.52-.89,4.9-1.15,9.52-2.82,13.74-4.97,4.19-2.13,8.02-4.75,11.4-7.79,3.36-3.02,6.27-6.5,8.67-10.33,2.39-3.83,4.27-8.11,5.57-12.7,1.3-4.61,1.96-9.61,1.96-14.86,0-7.3-1.45-14.08-4.31-20.15-2.88-6.12-6.88-11.46-11.89-15.87-5.06-4.45-11.12-7.98-18.01-10.49-3.59-1.31-7.37-2.28-11.3-2.92Zm-22.75,0c-3.92.63-7.69,1.59-11.29,2.88-6.91,2.48-12.96,5.99-17.99,10.44-4.98,4.41-8.95,9.77-11.81,15.93-2.84,6.13-4.28,13-4.28,20.42s1.45,14.63,4.3,20.93c2.87,6.34,6.86,11.88,11.86,16.47,5.02,4.61,11.07,8.26,17.98,10.84,3.66,1.36,7.5,2.38,11.49,3.03-1.91-.66-3.73-1.51-5.45-2.54-4.69-2.81-8.65-6.71-11.77-11.6-3-4.71-5.28-10.33-6.79-16.73-1.46-6.22-2.21-13.08-2.21-20.4s.75-13.95,2.21-19.99c1.51-6.22,3.81-11.69,6.83-16.25,3.14-4.74,7.12-8.49,11.83-11.16,1.61-.91,3.3-1.67,5.08-2.27Zm11.42,8.2c-4.42,0-8.31.94-11.57,2.78-3.37,1.91-6.12,4.52-8.42,7.97-2.38,3.59-4.21,7.99-5.45,13.09-1.28,5.27-1.93,11.2-1.93,17.63s.65,12.64,1.94,18.1c1.25,5.3,3.09,9.89,5.49,13.64,2.31,3.62,5.08,6.37,8.48,8.4,3.28,1.96,7.03,2.92,11.46,2.92s8.1-.95,11.38-2.92c3.35-2,6.2-4.83,8.48-8.4,2.4-3.76,4.26-8.36,5.53-13.66,1.31-5.47,1.97-11.55,1.97-18.08s-.66-12.34-1.97-17.61c-1.26-5.1-3.11-9.51-5.49-13.11-2.29-3.46-5.04-6.06-8.42-7.97-3.31-1.87-7.06-2.78-11.49-2.78Z"/><path d="m541.1,304.02h-41.33l-33.46-45.07v45.07h-36.54v-118.09h45.65c7.43,0,14.07.8,19.72,2.38,5.82,1.63,10.78,3.97,14.74,6.96,4.1,3.1,7.24,6.86,9.33,11.17,2.08,4.29,3.13,8.99,3.13,13.98,0,3.76-.74,7.37-2.21,10.73-1.42,3.24-3.42,6.26-5.95,8.98-2.47,2.66-5.49,5.03-8.95,7.05-1.48.86-3.04,1.67-4.66,2.4l40.51,54.43Zm-36.29-10h16.39l-36.74-49.37,6.68-2.13c3.3-1.05,6.36-2.39,9.08-3.98,2.62-1.53,4.86-3.28,6.67-5.22,1.76-1.89,3.14-3.96,4.1-6.17.92-2.12,1.38-4.32,1.38-6.73,0-3.52-.7-6.66-2.13-9.62-1.42-2.92-3.5-5.39-6.37-7.56-2.96-2.24-6.8-4.02-11.4-5.31-4.77-1.33-10.5-2.01-17.03-2.01h-35.65v98.09h16.54v-97.56h15.76c3.24,0,6.3.62,9.1,1.86,2.83,1.24,5.28,3.02,7.3,5.27,1.96,2.19,3.5,4.81,4.59,7.79,1.08,2.93,1.62,6.17,1.62,9.61,0,3.81-.74,7.31-2.18,10.41-1.45,3.11-3.5,5.77-6.08,7.91-2.5,2.07-5.46,3.68-8.81,4.77-2.72.89-5.65,1.41-8.73,1.56l35.92,48.39Zm-38.49-58.35h.74c2.7,0,5.21-.37,7.45-1.11,2.15-.7,4.01-1.7,5.54-2.96,1.45-1.21,2.57-2.66,3.4-4.45.83-1.76,1.24-3.84,1.24-6.17s-.34-4.34-1.01-6.17c-.65-1.79-1.55-3.32-2.66-4.57-1.07-1.2-2.33-2.1-3.86-2.78-1.55-.68-3.22-1.01-5.08-1.01h-5.76v29.22Z"/><path d="m658.07,304.02h-90.75v-118.09h90.75v19.25h-54.2v25.63h45.04v19.25h-45.04v32.88h54.2v21.08Zm-80.75-10h70.75v-1.08h-54.2v-97.01h-16.54v98.09Z"/><path class="cls-7" d="m110.18,190.94h25.83l37.38,73.81,36.83-73.81h25.27v108.09h-26.46v-70.46l-35.31,70.46h-10.2l-36.51-71.26v71.26h-16.82v-108.09Z"/><path class="cls-7" d="m335.25,301.41c-8.72,0-16.85-1.41-24.39-4.22-7.55-2.82-14.08-6.76-19.61-11.84-5.53-5.07-9.87-11.11-13.03-18.09-3.16-6.99-4.74-14.65-4.74-23s1.58-15.69,4.74-22.52c3.16-6.83,7.5-12.69,13.03-17.58,5.53-4.89,12.06-8.69,19.61-11.4s15.68-4.07,24.39-4.07,16.83,1.37,24.35,4.11c7.52,2.74,14.06,6.55,19.61,11.44,5.55,4.89,9.92,10.72,13.11,17.5s4.78,14.2,4.78,22.28c0,5.74-.72,11.15-2.15,16.22-1.43,5.08-3.48,9.74-6.14,13.99-2.66,4.25-5.85,8.05-9.57,11.4-3.72,3.35-7.88,6.19-12.47,8.53-4.6,2.34-9.55,4.13-14.87,5.38-5.31,1.25-10.87,1.87-16.66,1.87Zm0-9.09c5.26,0,9.91-1.21,13.95-3.63,4.04-2.42,7.41-5.75,10.12-10,2.71-4.25,4.77-9.31,6.18-15.18,1.41-5.87,2.11-12.29,2.11-19.25s-.71-13.12-2.11-18.81c-1.41-5.69-3.47-10.57-6.18-14.67-2.71-4.09-6.08-7.28-10.12-9.56-4.04-2.28-8.69-3.43-13.95-3.43s-9.99,1.14-14.03,3.43c-4.04,2.29-7.41,5.47-10.12,9.56-2.71,4.09-4.76,8.98-6.14,14.67-1.38,5.69-2.07,11.96-2.07,18.81s.69,13.38,2.07,19.25c1.38,5.87,3.43,10.93,6.14,15.18,2.71,4.25,6.08,7.59,10.12,10,4.04,2.42,8.71,3.63,14.03,3.63Z"/><path class="cls-7" d="m434.78,190.94h40.65c7.01,0,13.14.73,18.37,2.19,5.23,1.46,9.59,3.51,13.07,6.14,3.48,2.63,6.1,5.75,7.85,9.37,1.75,3.61,2.63,7.55,2.63,11.8,0,3.08-.6,5.99-1.79,8.73-1.2,2.74-2.87,5.26-5.02,7.57-2.15,2.31-4.76,4.36-7.81,6.14s-6.42,3.25-10.08,4.42l38.5,51.73h-28.86l-36.27-48.86h-4.7v48.86h-26.54v-108.09Zm26.54,49.74h5.74c3.24,0,6.24-.45,9.01-1.36,2.76-.9,5.15-2.19,7.17-3.87,2.02-1.67,3.6-3.73,4.74-6.18,1.14-2.44,1.71-5.21,1.71-8.29,0-2.87-.44-5.5-1.32-7.89-.88-2.39-2.09-4.45-3.63-6.18-1.54-1.73-3.4-3.07-5.58-4.03-2.18-.96-4.54-1.43-7.09-1.43h-10.76v39.22Z"/><path class="cls-7" d="m653.07,190.94v9.25h-54.2v35.63h45.04v9.25h-45.04v42.88h54.2v11.08h-80.75v-108.09h80.75Z"/><polygon class="cls-9" points="818.7 425.72 892.79 322.72 744.6 322.72 818.7 425.72"/><rect class="cls-9" x="744.79" y="313.72" width="148" height="9"/><polygon class="cls-5" points="863.23 313.72 863.23 38.72 863.23 2.23 818.73 38.72 774.23 2.23 774.23 38.72 774.23 313.72 748.41 313.72 818.73 410.72 889.04 313.72 863.23 313.72"/><path class="cls-9" d="m818.73,416.13l-74.23-102.41h27.73V0l46.5,38.13L865.23,0v313.72h27.73l-74.23,102.41Zm-66.39-98.41l66.39,91.59,66.39-91.59h-23.89V8.46l-42.5,34.85-42.5-34.85v309.26h-23.89Z"/><path class="cls-1" d="m818.73,412.52l-72.38-99.85h26.83V0l45.55,37.36L864.28,0v312.67h26.83l-72.38,99.85Zm-68.25-97.74l68.25,94.15,68.25-94.15h-24.8V4.46l-43.45,35.63-43.45-35.63v310.32h-24.8Z"/><path class="cls-3" d="m798.6,107.23v-49.84h11.23v21.35h13.87v-21.35h11.23v49.84h-11.23v-22.19h-13.87v22.19h-11.23Z"/><path class="cls-3" d="m801.68,166.73v-49.84h33.46v6.72h-22.23v14.63h19.37v6.72h-19.37v14.63h22.23v7.14h-33.46Z"/><path class="cls-3" d="m798.6,226.23v-49.84h18.05c13.21,0,19.81,4.88,19.81,14.63,0,2.94-.71,5.44-2.15,7.49-1.43,2.05-3.94,3.71-7.54,4.97l12.11,22.75h-11.89l-10.46-21.28h-6.71v21.28h-11.23Zm11.23-43.12v15.54h6.38c1.98,0,3.56-.17,4.73-.53,1.17-.35,2.09-.85,2.75-1.5.59-.65.99-1.46,1.21-2.42.22-.96.33-2.06.33-3.32s-.11-2.37-.33-3.33c-.22-.96-.66-1.79-1.32-2.49-1.39-1.31-4.04-1.96-7.92-1.96h-5.83Z"/><path class="cls-3" d="m801.68,285.73v-49.84h33.46v6.72h-22.23v14.63h19.37v6.72h-19.37v14.63h22.23v7.14h-33.46Z"/><path class="cls-9" d="m834.92,107.38h-11.23c-.09,0-.16-.07-.16-.16v-22.03h-13.55v22.03c0,.09-.07.16-.16.16h-11.23c-.09,0-.16-.07-.16-.16v-49.84c0-.09.07-.16.16-.16h11.23c.09,0,.16.07.16.16v21.19h13.55v-21.19c0-.09.07-.16.16-.16h11.23c.09,0,.16.07.16.16v49.84c0,.09-.07.16-.16.16Zm-11.07-.31h10.91v-49.53h-10.91v21.19c0,.09-.07.16-.16.16h-13.87c-.09,0-.16-.07-.16-.16v-21.19h-10.91v49.53h10.91v-22.03c0-.09.07-.16.16-.16h13.87c.09,0,.16.07.16.16v22.03Z"/><path class="cls-9" d="m835.14,166.88h-33.46c-.09,0-.16-.07-.16-.16v-49.84c0-.09.07-.16.16-.16h33.46c.09,0,.16.07.16.16v6.72c0,.09-.07.16-.16.16h-22.08v14.32h19.21c.09,0,.16.07.16.16v6.72c0,.09-.07.16-.16.16h-19.21v14.32h22.08c.09,0,.16.07.16.16v7.14c0,.09-.07.16-.16.16Zm-33.3-.31h33.15v-6.83h-22.08c-.09,0-.16-.07-.16-.16v-14.63c0-.09.07-.16.16-.16h19.21v-6.41h-19.21c-.09,0-.16-.07-.16-.16v-14.63c0-.09.07-.16.16-.16h22.08v-6.41h-33.15v49.53Z"/><path class="cls-9" d="m838.88,226.38h-11.89c-.06,0-.11-.03-.14-.09l-10.41-21.19h-6.46v21.12c0,.09-.07.16-.16.16h-11.23c-.09,0-.16-.07-.16-.16v-49.84c0-.09.07-.16.16-.16h18.05c13.25,0,19.97,4.98,19.97,14.79,0,2.96-.73,5.51-2.17,7.58-1.42,2.04-3.92,3.71-7.44,4.97l12.02,22.59s.02.11,0,.15c-.03.05-.08.08-.13.08Zm-11.79-.31h11.53l-11.99-22.52s-.02-.09,0-.13c.02-.04.05-.08.09-.09,3.55-1.24,6.06-2.9,7.46-4.91,1.41-2.02,2.12-4.51,2.12-7.4,0-9.6-6.61-14.47-19.65-14.47h-17.89v49.53h10.91v-21.12c0-.09.07-.16.16-.16h6.71c.06,0,.11.03.14.09l10.41,21.19Zm-10.88-27.27h-6.38c-.09,0-.16-.07-.16-.16v-15.54c0-.09.07-.16.16-.16h5.83c3.91,0,6.61.67,8.03,2,.68.72,1.14,1.58,1.37,2.56.22.97.33,2.1.33,3.36s-.11,2.39-.33,3.36c-.23.98-.64,1.81-1.25,2.48-.68.67-1.63,1.19-2.82,1.55-1.18.35-2.79.53-4.78.53Zm-6.23-.31h6.23c1.96,0,3.53-.17,4.69-.52,1.15-.34,2.05-.83,2.69-1.47.56-.62.96-1.41,1.17-2.34.22-.94.33-2.05.33-3.29s-.11-2.35-.33-3.29c-.21-.93-.65-1.74-1.28-2.41-1.35-1.27-3.98-1.91-7.81-1.91h-5.68v15.23Z"/><path class="cls-9" d="m835.14,285.88h-33.46c-.09,0-.16-.07-.16-.16v-49.84c0-.09.07-.16.16-.16h33.46c.09,0,.16.07.16.16v6.72c0,.09-.07.16-.16.16h-22.08v14.32h19.21c.09,0,.16.07.16.16v6.72c0,.09-.07.16-.16.16h-19.21v14.32h22.08c.09,0,.16.07.16.16v7.14c0,.09-.07.16-.16.16Zm-33.3-.31h33.15v-6.83h-22.08c-.09,0-.16-.07-.16-.16v-14.63c0-.09.07-.16.16-.16h19.21v-6.41h-19.21c-.09,0-.16-.07-.16-.16v-14.63c0-.09.07-.16.16-.16h22.08v-6.41h-33.15v49.53Z"/><path class="cls-4" d="m819.23,379.11c-1.93,0-3.5-1.57-3.5-3.5v-74.2c0-1.93,1.57-3.5,3.5-3.5s3.5,1.57,3.5,3.5v74.2c0,1.93-1.57,3.5-3.5,3.5Z"/><path class="cls-4" d="m819.18,380.99c-.88,0-1.72-.42-2.24-1.13l-39.39-53.49c-.91-1.24-.65-2.98.59-3.89,1.24-.91,2.98-.65,3.89.59l37.12,50.41,36.38-50.39c.9-1.25,2.64-1.53,3.89-.63,1.25.9,1.53,2.64.63,3.89l-38.61,53.49c-.52.72-1.36,1.15-2.25,1.15h-.01Z"/><circle class="cls-2" cx="18.29" cy="41.22" r="4.5"/><circle class="cls-4" cx="17.29" cy="40.22" r="4.5"/><circle class="cls-2" cx="41.29" cy="36.22" r="4.5"/><circle class="cls-4" cx="40.29" cy="35.22" r="4.5"/><circle class="cls-2" cx="64.29" cy="36.22" r="4.5"/><circle class="cls-4" cx="63.29" cy="35.22" r="4.5"/><circle class="cls-2" cx="87.29" cy="36.22" r="4.5"/><circle class="cls-4" cx="86.29" cy="35.22" r="4.5"/><circle class="cls-2" cx="110.29" cy="36.22" r="4.5"/><circle class="cls-4" cx="109.29" cy="35.22" r="4.5"/><circle class="cls-2" cx="133.29" cy="36.22" r="4.5"/><circle class="cls-4" cx="132.29" cy="35.22" r="4.5"/><circle class="cls-2" cx="156.29" cy="36.22" r="4.5"/><circle class="cls-4" cx="155.29" cy="35.22" r="4.5"/><circle class="cls-2" cx="179.29" cy="36.22" r="4.5"/><circle class="cls-4" cx="178.29" cy="35.22" r="4.5"/><circle class="cls-2" cx="202.29" cy="36.22" r="4.5"/><circle class="cls-4" cx="201.29" cy="35.22" r="4.5"/><circle class="cls-2" cx="225.29" cy="36.22" r="4.5"/><circle class="cls-4" cx="224.29" cy="35.22" r="4.5"/><circle class="cls-2" cx="248.29" cy="36.22" r="4.5"/><circle class="cls-4" cx="247.29" cy="35.22" r="4.5"/><circle class="cls-2" cx="271.29" cy="36.22" r="4.5"/><circle class="cls-4" cx="270.29" cy="35.22" r="4.5"/><circle class="cls-2" cx="294.29" cy="36.22" r="4.5"/><circle class="cls-4" cx="293.29" cy="35.22" r="4.5"/><circle class="cls-2" cx="317.29" cy="36.22" r="4.5"/><circle class="cls-4" cx="316.29" cy="35.22" r="4.5"/><circle class="cls-2" cx="340.29" cy="36.22" r="4.5"/><circle class="cls-4" cx="339.29" cy="35.22" r="4.5"/><circle class="cls-2" cx="363.29" cy="36.22" r="4.5"/><circle class="cls-4" cx="362.29" cy="35.22" r="4.5"/><circle class="cls-2" cx="386.29" cy="36.22" r="4.5"/><circle class="cls-4" cx="385.29" cy="35.22" r="4.5"/><circle class="cls-2" cx="409.29" cy="36.22" r="4.5"/><circle class="cls-4" cx="408.29" cy="35.22" r="4.5"/><circle class="cls-2" cx="432.29" cy="36.22" r="4.5"/><circle class="cls-4" cx="431.29" cy="35.22" r="4.5"/><circle class="cls-2" cx="455.29" cy="36.22" r="4.5"/><circle class="cls-4" cx="454.29" cy="35.22" r="4.5"/><circle class="cls-2" cx="478.29" cy="36.22" r="4.5"/><circle class="cls-4" cx="477.29" cy="35.22" r="4.5"/><circle class="cls-2" cx="501.29" cy="36.22" r="4.5"/><circle class="cls-4" cx="500.29" cy="35.22" r="4.5"/><circle class="cls-2" cx="524.29" cy="36.22" r="4.5"/><circle class="cls-4" cx="523.29" cy="35.22" r="4.5"/><circle class="cls-2" cx="547.29" cy="36.22" r="4.5"/><circle class="cls-4" cx="546.29" cy="35.22" r="4.5"/><circle class="cls-2" cx="570.29" cy="36.22" r="4.5"/><circle class="cls-4" cx="569.29" cy="35.22" r="4.5"/><circle class="cls-2" cx="593.29" cy="36.22" r="4.5"/><circle class="cls-4" cx="592.29" cy="35.22" r="4.5"/><circle class="cls-2" cx="616.29" cy="36.22" r="4.5"/><circle class="cls-4" cx="615.29" cy="35.22" r="4.5"/><circle class="cls-2" cx="639.29" cy="36.22" r="4.5"/><circle class="cls-4" cx="638.29" cy="35.22" r="4.5"/><circle class="cls-2" cx="662.29" cy="36.22" r="4.5"/><circle class="cls-4" cx="661.29" cy="35.22" r="4.5"/><circle class="cls-2" cx="685.29" cy="36.22" r="4.5"/><circle class="cls-4" cx="684.29" cy="35.22" r="4.5"/><circle class="cls-2" cx="708.29" cy="36.22" r="4.5"/><circle class="cls-4" cx="707.29" cy="35.22" r="4.5"/><circle class="cls-2" cx="66.29" cy="373.22" r="4.5"/><circle class="cls-4" cx="65.29" cy="372.22" r="4.5"/><circle class="cls-2" cx="89.29" cy="373.22" r="4.5"/><circle class="cls-4" cx="88.29" cy="372.22" r="4.5"/><circle class="cls-2" cx="112.29" cy="373.22" r="4.5"/><circle class="cls-4" cx="111.29" cy="372.22" r="4.5"/><circle class="cls-2" cx="135.29" cy="373.22" r="4.5"/><circle class="cls-4" cx="134.29" cy="372.22" r="4.5"/><circle class="cls-2" cx="158.29" cy="373.22" r="4.5"/><circle class="cls-4" cx="157.29" cy="372.22" r="4.5"/><circle class="cls-2" cx="181.29" cy="373.22" r="4.5"/><circle class="cls-4" cx="180.29" cy="372.22" r="4.5"/><circle class="cls-2" cx="204.29" cy="373.22" r="4.5"/><circle class="cls-4" cx="203.29" cy="372.22" r="4.5"/><circle class="cls-2" cx="227.29" cy="373.22" r="4.5"/><circle class="cls-4" cx="226.29" cy="372.22" r="4.5"/><circle class="cls-2" cx="250.29" cy="373.22" r="4.5"/><circle class="cls-4" cx="249.29" cy="372.22" r="4.5"/><circle class="cls-2" cx="273.29" cy="373.22" r="4.5"/><circle class="cls-4" cx="272.29" cy="372.22" r="4.5"/><circle class="cls-2" cx="296.29" cy="373.22" r="4.5"/><circle class="cls-4" cx="295.29" cy="372.22" r="4.5"/><circle class="cls-2" cx="319.29" cy="373.22" r="4.5"/><circle class="cls-4" cx="318.29" cy="372.22" r="4.5"/><circle class="cls-2" cx="342.29" cy="373.22" r="4.5"/><circle class="cls-4" cx="341.29" cy="372.22" r="4.5"/><circle class="cls-2" cx="365.29" cy="373.22" r="4.5"/><circle class="cls-4" cx="364.29" cy="372.22" r="4.5"/><circle class="cls-2" cx="388.29" cy="373.22" r="4.5"/><circle class="cls-4" cx="387.29" cy="372.22" r="4.5"/><circle class="cls-2" cx="411.29" cy="373.22" r="4.5"/><circle class="cls-4" cx="410.29" cy="372.22" r="4.5"/><circle class="cls-2" cx="434.29" cy="373.22" r="4.5"/><circle class="cls-4" cx="433.29" cy="372.22" r="4.5"/><circle class="cls-2" cx="457.29" cy="373.22" r="4.5"/><circle class="cls-4" cx="456.29" cy="372.22" r="4.5"/><circle class="cls-2" cx="480.29" cy="373.22" r="4.5"/><circle class="cls-4" cx="479.29" cy="372.22" r="4.5"/><circle class="cls-2" cx="503.29" cy="373.22" r="4.5"/><circle class="cls-4" cx="502.29" cy="372.22" r="4.5"/><circle class="cls-2" cx="526.29" cy="373.22" r="4.5"/><circle class="cls-4" cx="525.29" cy="372.22" r="4.5"/><circle class="cls-2" cx="549.29" cy="373.22" r="4.5"/><circle class="cls-4" cx="548.29" cy="372.22" r="4.5"/><circle class="cls-2" cx="572.29" cy="373.22" r="4.5"/><circle class="cls-4" cx="571.29" cy="372.22" r="4.5"/><circle class="cls-2" cx="595.29" cy="373.22" r="4.5"/><circle class="cls-4" cx="594.29" cy="372.22" r="4.5"/><circle class="cls-2" cx="618.29" cy="373.22" r="4.5"/><circle class="cls-4" cx="617.29" cy="372.22" r="4.5"/><circle class="cls-2" cx="641.29" cy="373.22" r="4.5"/><circle class="cls-4" cx="640.29" cy="372.22" r="4.5"/><circle class="cls-2" cx="664.29" cy="373.22" r="4.5"/><circle class="cls-4" cx="663.29" cy="372.22" r="4.5"/><circle class="cls-2" cx="687.29" cy="373.22" r="4.5"/><circle class="cls-4" cx="686.29" cy="372.22" r="4.5"/><circle class="cls-2" cx="735.29" cy="41.22" r="4.5"/><circle class="cls-4" cx="734.29" cy="40.22" r="4.5"/><circle class="cls-2" cx="738.29" cy="63.22" r="4.5"/><circle class="cls-4" cx="737.29" cy="62.22" r="4.5"/><circle class="cls-2" cx="737.29" cy="85.22" r="4.5"/><circle class="cls-4" cx="736.29" cy="84.22" r="4.5"/><circle class="cls-2" cx="735.29" cy="107.22" r="4.5"/><circle class="cls-4" cx="734.29" cy="106.22" r="4.5"/><circle class="cls-2" cx="734.29" cy="130.22" r="4.5"/><circle class="cls-4" cx="733.29" cy="129.22" r="4.5"/><circle class="cls-2" cx="732.29" cy="153.22" r="4.5"/><circle class="cls-4" cx="731.29" cy="152.22" r="4.5"/><circle class="cls-2" cx="730.29" cy="175.22" r="4.5"/><circle class="cls-4" cx="729.29" cy="174.22" r="4.5"/><circle class="cls-2" cx="729.29" cy="199.22" r="4.5"/><circle class="cls-4" cx="728.29" cy="198.22" r="4.5"/><circle class="cls-2" cx="727.29" cy="223.22" r="4.5"/><circle class="cls-4" cx="726.29" cy="222.22" r="4.5"/><circle class="cls-2" cx="726.29" cy="247.22" r="4.5"/><circle class="cls-4" cx="725.29" cy="246.22" r="4.5"/><circle class="cls-2" cx="724.29" cy="272.22" r="4.5"/><circle class="cls-4" cx="723.29" cy="271.22" r="4.5"/><circle class="cls-2" cx="722.29" cy="296.22" r="4.5"/><circle class="cls-4" cx="721.29" cy="295.22" r="4.5"/><circle class="cls-2" cx="721.29" cy="322.22" r="4.5"/><circle class="cls-4" cx="720.29" cy="321.22" r="4.5"/><circle class="cls-2" cx="719.29" cy="346.22" r="4.5"/><circle class="cls-4" cx="718.29" cy="345.22" r="4.5"/><circle class="cls-2" cx="16.29" cy="65.22" r="4.5"/><circle class="cls-4" cx="15.29" cy="64.22" r="4.5"/><circle class="cls-2" cx="17.29" cy="87.22" r="4.5"/><circle class="cls-4" cx="16.29" cy="86.22" r="4.5"/><circle class="cls-2" cx="19.29" cy="109.22" r="4.5"/><circle class="cls-4" cx="18.29" cy="108.22" r="4.5"/><circle class="cls-2" cx="20.29" cy="132.22" r="4.5"/><circle class="cls-4" cx="19.29" cy="131.22" r="4.5"/><circle class="cls-2" cx="22.29" cy="155.22" r="4.5"/><circle class="cls-4" cx="21.29" cy="154.22" r="4.5"/><circle class="cls-2" cx="24.29" cy="177.22" r="4.5"/><circle class="cls-4" cx="23.29" cy="176.22" r="4.5"/><circle class="cls-2" cx="25.29" cy="201.22" r="4.5"/><circle class="cls-4" cx="24.29" cy="200.22" r="4.5"/><circle class="cls-2" cx="27.29" cy="225.22" r="4.5"/><circle class="cls-4" cx="26.29" cy="224.22" r="4.5"/><circle class="cls-2" cx="28.29" cy="249.22" r="4.5"/><circle class="cls-4" cx="27.29" cy="248.22" r="4.5"/><circle class="cls-2" cx="30.29" cy="274.22" r="4.5"/><circle class="cls-4" cx="29.29" cy="273.22" r="4.5"/><circle class="cls-2" cx="32.29" cy="298.22" r="4.5"/><circle class="cls-4" cx="31.29" cy="297.22" r="4.5"/><circle class="cls-2" cx="33.29" cy="324.22" r="4.5"/><circle class="cls-4" cx="32.29" cy="323.22" r="4.5"/><circle class="cls-2" cx="35.29" cy="348.22" r="4.5"/><circle class="cls-4" cx="34.29" cy="347.22" r="4.5"/><circle class="cls-2" cx="712.29" cy="368.22" r="4.5"/><circle class="cls-4" cx="711.29" cy="367.22" r="4.5"/><circle class="cls-2" cx="43.29" cy="369.22" r="4.5"/><circle class="cls-4" cx="42.29" cy="368.22" r="4.5"/></g></svg>