<?xml version="1.0" encoding="UTF-8"?><svg id="Layer_2" xmlns="http://www.w3.org/2000/svg" viewBox="0 0 310.51 188.57"><defs><style>.cls-1{fill:#fff;}.cls-2{fill:#6d2127;}.cls-3{fill:#d9414e;}</style></defs><g id="exported_-_who"><path d="m85.52,99.72h-2.65c-2.22,0-4.17-1.46-4.8-3.59l-16.01-54.52-16.11,54.53c-.63,2.13-2.58,3.58-4.8,3.58h-2.39c-2.23,0-4.19-1.48-4.81-3.62L11.31,16.93h-6.31c-2.76,0-5-2.24-5-5v-4.41C0,4.76,2.24,2.52,5,2.52h27.85c2.76,0,5,2.24,5,5v4.41c0,2.76-2.24,5-5,5h-5.11l12.49,44.18L56.27,6.12c.62-2.13,2.58-3.6,4.8-3.6h2.39c2.23,0,4.18,1.47,4.8,3.61l15.94,54.98,12.58-44.18h-4.97c-2.76,0-5-2.24-5-5v-4.41c0-2.76,2.24-5,5-5h27.6c2.76,0,5,2.24,5,5v4.41c0,2.76-2.24,5-5,5h-6.32l-22.77,79.17c-.62,2.14-2.58,3.62-4.81,3.62Z"/><path d="m203.58,96.57h-27.09c-2.76,0-5-2.24-5-5v-4.41c0-2.76,2.24-5,5-5h6.34v-26.54h-35.87v26.54h6.34c2.76,0,5,2.24,5,5v4.41c0,2.76-2.24,5-5,5h-27.09c-2.76,0-5-2.24-5-5v-4.41c0-2.76,2.24-5,5-5h5.08V16.93h-5.08c-2.76,0-5-2.24-5-5v-4.41c0-2.76,2.24-5,5-5h27.09c2.76,0,5,2.24,5,5v4.41c0,2.76-2.24,5-5,5h-6.34v23.9h35.87v-23.9h-6.34c-2.76,0-5-2.24-5-5v-4.41c0-2.76,2.24-5,5-5h27.09c2.76,0,5,2.24,5,5v4.41c0,2.76-2.24,5-5,5h-5.08v65.23h5.08c2.76,0,5,2.24,5,5v4.41c0,2.76-2.24,5-5,5Z"/><path d="m259.14,99.09c-28.26,0-51.25-22.25-51.25-49.61S230.83,0,259.01,0s51.24,22.01,51.24,50.11c0,13.02-5.38,25.32-15.16,34.63-9.71,9.25-22.48,14.34-35.96,14.34Zm-.13-84.3c-19.41,0-35.2,15.56-35.2,34.69s15.85,34.82,35.32,34.82,35.2-15.71,35.2-34.31c0-19.74-15.52-35.2-35.32-35.2Z"/><path d="m72.79,188.57h-12.98c-1.52,0-2.96-.69-3.91-1.88l-25.62-32.07v19.54h5.08c2.76,0,5,2.24,5,5v4.41c0,2.76-2.24,5-5,5H9.54c-2.76,0-5-2.24-5-5v-4.41c0-2.76,2.24-5,5-5h5.08v-65.23h-5.08c-2.76,0-5-2.24-5-5v-4.41c0-2.76,2.24-5,5-5h33.52c18.88,0,31.08,10.62,31.08,27.05s-11.3,26.12-28.99,26.88l20.71,25.7h6.93c2.76,0,5,2.24,5,5v4.41c0,2.76-2.24,5-5,5Zm-42.5-54.48h12.64c5.61,0,9.14-1.01,11.78-3.38,2.69-2.32,4.13-5.59,4.13-9.26s-1.48-6.84-4.06-9.07c-2.72-2.44-6.24-3.45-11.86-3.45h-12.64v25.16Z"/><path d="m110.34,188.57h-25.83c-2.76,0-5-2.24-5-5v-4.41c0-2.76,2.24-5,5-5h5.08v-65.23h-5.08c-2.76,0-5-2.24-5-5v-4.41c0-2.76,2.24-5,5-5h25.83c2.76,0,5,2.24,5,5v4.41c0,2.76-2.24,5-5,5h-5.08v65.23h5.08c2.76,0,5,2.24,5,5v4.41c0,2.76-2.24,5-5,5Z"/><path d="m214.79,188.57h-26.71c-2.76,0-5-2.24-5-5v-4.41c0-2.76,2.24-5,5-5h5.96v-38.62l-21.34,45.73c-.82,1.76-2.58,2.88-4.52,2.89h0c-1.94,0-3.7-1.12-4.52-2.87l-21.6-45.91v38.78h5.96c2.76,0,5,2.24,5,5v4.41c0,2.76-2.24,5-5,5h-26.71c-2.76,0-5-2.24-5-5v-4.41c0-2.76,2.24-5,5-5h5.08v-65.23h-5.08c-2.76,0-5-2.24-5-5v-4.41c0-2.76,2.24-5,5-5h16.13c1.95,0,3.72,1.13,4.54,2.9l26.44,57.08,26.22-57.06c.82-1.77,2.59-2.91,4.54-2.91h15.62c2.76,0,5,2.24,5,5v4.41c0,2.76-2.24,5-5,5h-5.08v65.23h5.08c2.76,0,5,2.24,5,5v4.41c0,2.76-2.24,5-5,5Z"/><path d="m305.51,188.57h-27.97c-2.76,0-5-2.24-5-5v-4.41c0-2.76,2.24-5,5-5h5l-3.92-13.06h-25.82l-4.35,13.06h4.78c2.76,0,5,2.24,5,5v4.41c0,2.76-2.24,5-5,5h-27.72c-2.76,0-5-2.24-5-5v-4.41c0-2.76,2.24-5,5-5h6.5l22.18-65.23h-3.1c-2.76,0-5-2.24-5-5v-4.41c0-2.76,2.24-5,5-5h31.63c2.76,0,5,2.24,5,5v4.41c0,2.76-2.24,5-5,5h-3.34l19.78,65.23h6.37c2.76,0,5,2.24,5,5v4.41c0,2.76-2.24,5-5,5Zm-47.85-41.88h16.69l-7.83-26.25-8.87,26.25Z"/><path class="cls-1" d="m85.52,98.72h-2.65c-1.77,0-3.34-1.17-3.84-2.87l-16.96-57.78-17.07,57.79c-.5,1.7-2.06,2.87-3.84,2.87h-2.39c-1.79,0-3.35-1.18-3.85-2.9L12.06,15.93h-7.06c-2.21,0-4-1.79-4-4v-4.41c0-2.21,1.79-4,4-4h27.85c2.21,0,4,1.79,4,4v4.41c0,2.21-1.79,4-4,4h-6.43l13.8,48.8L57.23,6.4c.5-1.71,2.06-2.88,3.84-2.88h2.39c1.78,0,3.35,1.18,3.84,2.89l16.91,58.33,13.89-48.8h-6.29c-2.21,0-4-1.79-4-4v-4.41c0-2.21,1.79-4,4-4h27.6c2.21,0,4,1.79,4,4v4.41c0,2.21-1.79,4-4,4h-7.07l-22.98,79.89c-.49,1.71-2.06,2.89-3.84,2.89Zm-1.87-15.54l.52,1.76.5-1.74c-.14.01-.27.03-.41.02-.21,0-.41-.02-.61-.05Zm-44.02.01l.38,1.32.38-1.3c-.08,0-.17,0-.25,0-.17,0-.34-.01-.51-.03Zm22.45-63.28h0c.28,0,.56.03.83.09l-.66-2.26-.64,2.2c.15-.02.31-.03.46-.03Z"/><path class="cls-1" d="m203.58,95.57h-27.09c-2.21,0-4-1.79-4-4v-4.41c0-2.21,1.79-4,4-4h7.34v-28.54h-37.87v28.54h7.34c2.21,0,4,1.79,4,4v4.41c0,2.21-1.79,4-4,4h-27.09c-2.21,0-4-1.79-4-4v-4.41c0-2.21,1.79-4,4-4h6.08V15.93h-6.08c-2.21,0-4-1.79-4-4v-4.41c0-2.21,1.79-4,4-4h27.09c2.21,0,4,1.79,4,4v4.41c0,2.21-1.79,4-4,4h-7.34v25.9h37.87V15.93h-7.34c-2.21,0-4-1.79-4-4v-4.41c0-2.21,1.79-4,4-4h27.09c2.21,0,4,1.79,4,4v4.41c0,2.21-1.79,4-4,4h-6.08v67.23h6.08c2.21,0,4,1.79,4,4v4.41c0,2.21-1.79,4-4,4Z"/><path class="cls-1" d="m259.14,98.09c-27.71,0-50.25-21.81-50.25-48.61S231.38,1,259.01,1s50.24,21.57,50.24,49.11c0,12.74-5.27,24.78-14.85,33.91-9.52,9.07-22.04,14.07-35.27,14.07Zm-.13-84.3c-19.96,0-36.2,16.01-36.2,35.69s16.29,35.82,36.32,35.82,36.2-16.17,36.2-35.31c0-20.3-15.96-36.2-36.32-36.2Z"/><path class="cls-1" d="m72.79,187.57h-12.98c-1.22,0-2.37-.55-3.13-1.5l-27.4-34.3v23.39h6.08c2.21,0,4,1.79,4,4v4.41c0,2.21-1.79,4-4,4H9.54c-2.21,0-4-1.79-4-4v-4.41c0-2.21,1.79-4,4-4h6.08v-67.23h-6.08c-2.21,0-4-1.79-4-4v-4.41c0-2.21,1.79-4,4-4h33.52c18.27,0,30.08,10.23,30.08,26.05s-11.79,25.91-30.04,25.92l22.28,27.66h7.41c2.21,0,4,1.79,4,4v4.41c0,2.21-1.79,4-4,4Zm-43.5-52.48h13.64c5.88,0,9.6-1.09,12.45-3.64,2.86-2.47,4.47-6.09,4.47-10s-1.61-7.41-4.41-9.82c-2.91-2.6-6.63-3.69-12.51-3.69h-13.64v27.16Z"/><path class="cls-1" d="m110.34,187.57h-25.83c-2.21,0-4-1.79-4-4v-4.41c0-2.21,1.79-4,4-4h6.08v-67.23h-6.08c-2.21,0-4-1.79-4-4v-4.41c0-2.21,1.79-4,4-4h25.83c2.21,0,4,1.79,4,4v4.41c0,2.21-1.79,4-4,4h-6.08v67.23h6.08c2.21,0,4,1.79,4,4v4.41c0,2.21-1.79,4-4,4Z"/><path class="cls-1" d="m214.79,187.57h-26.71c-2.21,0-4-1.79-4-4v-4.41c0-2.21,1.79-4,4-4h6.96v-44.12l-23.25,49.81c-.66,1.41-2.07,2.31-3.62,2.31h0c-1.55,0-2.96-.89-3.62-2.3l-23.5-49.96v44.26h6.96c2.21,0,4,1.79,4,4v4.41c0,2.21-1.79,4-4,4h-26.71c-2.21,0-4-1.79-4-4v-4.41c0-2.21,1.79-4,4-4h6.08v-67.23h-6.08c-2.21,0-4-1.79-4-4v-4.41c0-2.21,1.79-4,4-4h16.13c1.56,0,2.97.91,3.63,2.32l27.35,59.04,27.13-59.03c.65-1.42,2.07-2.33,3.63-2.33h15.62c2.21,0,4,1.79,4,4v4.41c0,2.21-1.79,4-4,4h-6.08v67.23h6.08c2.21,0,4,1.79,4,4v4.41c0,2.21-1.79,4-4,4Zm-15.58-78.56c.23,0,.46.04.7.09.28.06.55.15.8.27v-3.63l-1.5,3.27Zm-63.83-4.39v4.75c.25-.12.52-.21.8-.27.42-.09.83-.12,1.24-.08l-2.04-4.41Z"/><path class="cls-1" d="m305.51,187.57h-27.97c-2.21,0-4-1.79-4-4v-4.41c0-2.21,1.79-4,4-4h6.34l-4.53-15.06h-27.28l-5.02,15.06h6.17c2.21,0,4,1.79,4,4v4.41c0,2.21-1.79,4-4,4h-27.72c-2.21,0-4-1.79-4-4v-4.41c0-2.21,1.79-4,4-4h7.21l22.86-67.23h-4.5c-2.21,0-4-1.79-4-4v-4.41c0-2.21,1.79-4,4-4h31.63c2.21,0,4,1.79,4,4v4.41c0,2.21-1.79,4-4,4h-4.69l20.38,67.23h7.11c2.21,0,4,1.79,4,4v4.41c0,2.21-1.79,4-4,4Zm-49.24-39.88h19.43l-9.11-30.55-10.32,30.55Z"/><path class="cls-2" d="m82.87,96.72c-.44,0-.83-.29-.96-.72L62.08,28.44l-19.96,67.56c-.13.42-.52.72-.96.72h-2.39c-.45,0-.84-.3-.96-.72L14.33,13.93H5c-.55,0-1-.45-1-1v-4.41c0-.55.45-1,1-1h27.85c.55,0,1,.45,1,1v4.41c0,.55-.45,1-1,1h-10.4l17.72,62.67L60.11,8.24c.12-.43.52-.72.96-.72h2.39c.44,0,.84.29.96.72l19.82,68.35,17.84-62.67h-10.27c-.55,0-1-.45-1-1v-4.41c0-.55.45-1,1-1h27.6c.55,0,1,.45,1,1v4.41c0,.55-.45,1-1,1h-9.33l-23.61,82.06c-.12.43-.52.72-.96.72h-2.65Z"/><path class="cls-2" d="m176.49,93.57c-.55,0-1-.45-1-1v-4.41c0-.55.45-1,1-1h10.34v-34.54h-43.87v34.54h10.34c.55,0,1,.45,1,1v4.41c0,.55-.45,1-1,1h-27.09c-.55,0-1-.45-1-1v-4.41c0-.55.45-1,1-1h9.08V13.93h-9.08c-.55,0-1-.45-1-1v-4.41c0-.55.45-1,1-1h27.09c.55,0,1,.45,1,1v4.41c0,.55-.45,1-1,1h-10.34v31.9h43.87V13.93h-10.34c-.55,0-1-.45-1-1v-4.41c0-.55.45-1,1-1h27.09c.55,0,1,.45,1,1v4.41c0,.55-.45,1-1,1h-9.08v73.23h9.08c.55,0,1,.45,1,1v4.41c0,.55-.45,1-1,1h-27.09Z"/><path class="cls-2" d="m259.14,96.09c-26.05,0-47.25-20.46-47.25-45.61s21.14-45.48,47.12-45.48,47.24,20.25,47.24,46.11c0,11.91-4.94,23.18-13.92,31.74-8.96,8.54-20.75,13.24-33.2,13.24Zm-.13-84.3c-21.61,0-39.2,17.36-39.2,38.69s17.64,38.82,39.32,38.82,39.2-17.55,39.2-38.31c0-21.98-17.27-39.2-39.32-39.2Z"/><path class="cls-2" d="m59.81,185.57c-.3,0-.59-.14-.78-.38l-32.75-40.99v34.96h9.08c.55,0,1,.45,1,1v4.41c0,.55-.45,1-1,1H9.54c-.55,0-1-.45-1-1v-4.41c0-.55.45-1,1-1h9.08v-73.23h-9.08c-.55,0-1-.45-1-1v-4.41c0-.55.45-1,1-1h33.52c16.71,0,27.08,8.83,27.08,23.05s-10.38,22.92-27.08,22.92h-6.23l27.12,33.66h8.85c.55,0,1,.45,1,1v4.41c0,.55-.45,1-1,1h-12.98Zm-16.89-46.48c6.6,0,11.05-1.36,14.45-4.41,3.48-3,5.46-7.45,5.46-12.23s-1.99-9.11-5.45-12.09c-3.41-3.06-7.87-4.42-14.47-4.42h-16.64v33.16h16.64Z"/><path class="cls-2" d="m84.5,185.57c-.55,0-1-.45-1-1v-4.41c0-.55.45-1,1-1h9.08v-73.23h-9.08c-.55,0-1-.45-1-1v-4.41c0-.55.45-1,1-1h25.83c.55,0,1,.45,1,1v4.41c0,.55-.45,1-1,1h-9.08v73.23h9.08c.55,0,1,.45,1,1v4.41c0,.55-.45,1-1,1h-25.83Z"/><path class="cls-2" d="m188.08,185.57c-.55,0-1-.45-1-1v-4.41c0-.55.45-1,1-1h9.96v-60.65l-28.97,62.07c-.16.35-.52.58-.9.58h0c-.39,0-.74-.22-.9-.57l-29.22-62.1v60.68h9.96c.55,0,1,.45,1,1v4.41c0,.55-.45,1-1,1h-26.71c-.55,0-1-.45-1-1v-4.41c0-.55.45-1,1-1h9.08v-73.23h-9.08c-.55,0-1-.45-1-1v-4.41c0-.55.45-1,1-1h16.13c.39,0,.74.23.91.58l30.09,64.94,29.84-64.94c.16-.35.52-.58.91-.58h15.62c.55,0,1,.45,1,1v4.41c0,.55-.45,1-1,1h-9.08v73.23h9.08c.55,0,1,.45,1,1v4.41c0,.55-.45,1-1,1h-26.71Z"/><path class="cls-2" d="m277.54,185.57c-.55,0-1-.45-1-1v-4.41c0-.55.45-1,1-1h10.37l-6.33-21.06h-31.68l-7.02,21.06h10.33c.55,0,1,.45,1,1v4.41c0,.55-.45,1-1,1h-27.72c-.55,0-1-.45-1-1v-4.41c0-.55.45-1,1-1h9.36l24.9-73.23h-8.68c-.55,0-1-.45-1-1v-4.41c0-.55.45-1,1-1h31.63c.55,0,1,.45,1,1v4.41c0,.55-.45,1-1,1h-8.73l22.2,73.23h9.34c.55,0,1,.45,1,1v4.41c0,.55-.45,1-1,1h-27.97Zm2.19-33.88l-12.96-43.46-14.68,43.46h27.63Z"/><path class="cls-2" d="m82.87,95.72c-.44,0-.83-.29-.96-.72L62.08,27.44l-19.96,67.56c-.13.42-.52.72-.96.72h-2.39c-.45,0-.84-.3-.96-.72L14.33,12.93H5c-.55,0-1-.45-1-1v-4.41c0-.55.45-1,1-1h27.85c.55,0,1,.45,1,1v4.41c0,.55-.45,1-1,1h-10.4l17.72,62.67L60.11,7.24c.12-.43.52-.72.96-.72h2.39c.44,0,.84.29.96.72l19.82,68.35,17.84-62.67h-10.27c-.55,0-1-.45-1-1v-4.41c0-.55.45-1,1-1h27.6c.55,0,1,.45,1,1v4.41c0,.55-.45,1-1,1h-9.33l-23.61,82.06c-.12.43-.52.72-.96.72h-2.65Z"/><path class="cls-2" d="m176.49,92.57c-.55,0-1-.45-1-1v-4.41c0-.55.45-1,1-1h10.34v-34.54h-43.87v34.54h10.34c.55,0,1,.45,1,1v4.41c0,.55-.45,1-1,1h-27.09c-.55,0-1-.45-1-1v-4.41c0-.55.45-1,1-1h9.08V12.93h-9.08c-.55,0-1-.45-1-1v-4.41c0-.55.45-1,1-1h27.09c.55,0,1,.45,1,1v4.41c0,.55-.45,1-1,1h-10.34v31.9h43.87V12.93h-10.34c-.55,0-1-.45-1-1v-4.41c0-.55.45-1,1-1h27.09c.55,0,1,.45,1,1v4.41c0,.55-.45,1-1,1h-9.08v73.23h9.08c.55,0,1,.45,1,1v4.41c0,.55-.45,1-1,1h-27.09Z"/><path class="cls-2" d="m259.14,95.09c-26.05,0-47.25-20.46-47.25-45.61s21.14-45.48,47.12-45.48,47.24,20.25,47.24,46.11c0,11.91-4.94,23.18-13.92,31.74-8.96,8.54-20.75,13.24-33.2,13.24Zm-.13-84.3c-21.61,0-39.2,17.36-39.2,38.69s17.64,38.82,39.32,38.82,39.2-17.55,39.2-38.31c0-21.98-17.27-39.2-39.32-39.2Z"/><path class="cls-2" d="m59.81,184.57c-.3,0-.59-.14-.78-.38l-32.75-40.99v34.96h9.08c.55,0,1,.45,1,1v4.41c0,.55-.45,1-1,1H9.54c-.55,0-1-.45-1-1v-4.41c0-.55.45-1,1-1h9.08v-73.23h-9.08c-.55,0-1-.45-1-1v-4.41c0-.55.45-1,1-1h33.52c16.71,0,27.08,8.83,27.08,23.05s-10.38,22.92-27.08,22.92h-6.23l27.12,33.66h8.85c.55,0,1,.45,1,1v4.41c0,.55-.45,1-1,1h-12.98Zm-16.89-46.48c6.6,0,11.05-1.36,14.45-4.41,3.48-3,5.46-7.45,5.46-12.23s-1.99-9.11-5.45-12.09c-3.41-3.06-7.87-4.42-14.47-4.42h-16.64v33.16h16.64Z"/><path class="cls-2" d="m84.5,184.57c-.55,0-1-.45-1-1v-4.41c0-.55.45-1,1-1h9.08v-73.23h-9.08c-.55,0-1-.45-1-1v-4.41c0-.55.45-1,1-1h25.83c.55,0,1,.45,1,1v4.41c0,.55-.45,1-1,1h-9.08v73.23h9.08c.55,0,1,.45,1,1v4.41c0,.55-.45,1-1,1h-25.83Z"/><path class="cls-2" d="m188.08,184.57c-.55,0-1-.45-1-1v-4.41c0-.55.45-1,1-1h9.96v-60.65l-28.97,62.07c-.16.35-.52.58-.9.58h0c-.39,0-.74-.22-.9-.57l-29.22-62.1v60.68h9.96c.55,0,1,.45,1,1v4.41c0,.55-.45,1-1,1h-26.71c-.55,0-1-.45-1-1v-4.41c0-.55.45-1,1-1h9.08v-73.23h-9.08c-.55,0-1-.45-1-1v-4.41c0-.55.45-1,1-1h16.13c.39,0,.74.23.91.58l30.09,64.94,29.84-64.94c.16-.35.52-.58.91-.58h15.62c.55,0,1,.45,1,1v4.41c0,.55-.45,1-1,1h-9.08v73.23h9.08c.55,0,1,.45,1,1v4.41c0,.55-.45,1-1,1h-26.71Z"/><path class="cls-2" d="m277.54,184.57c-.55,0-1-.45-1-1v-4.41c0-.55.45-1,1-1h10.37l-6.33-21.06h-31.68l-7.02,21.06h10.33c.55,0,1,.45,1,1v4.41c0,.55-.45,1-1,1h-27.72c-.55,0-1-.45-1-1v-4.41c0-.55.45-1,1-1h9.36l24.9-73.23h-8.68c-.55,0-1-.45-1-1v-4.41c0-.55.45-1,1-1h31.63c.55,0,1,.45,1,1v4.41c0,.55-.45,1-1,1h-8.73l22.2,73.23h9.34c.55,0,1,.45,1,1v4.41c0,.55-.45,1-1,1h-27.97Zm2.19-33.88l-12.96-43.46-14.68,43.46h27.63Z"/><path class="cls-3" d="m119.41,11.93h-10.08l-23.82,82.79h-2.65L62.08,23.9l-20.92,70.82h-2.39L15.08,11.93H5v-4.41h27.85v4.41h-11.72l19.03,67.29L61.07,7.52h2.39l20.79,71.7L103.41,11.93h-11.59v-4.41h27.6v4.41Z"/><path class="cls-3" d="m141.96,50.61v36.54h11.34v4.41h-27.09v-4.41h10.08V11.93h-10.08v-4.41h27.09v4.41h-11.34v33.9h45.87V11.93h-11.34v-4.41h27.09v4.41h-10.08v75.23h10.08v4.41h-27.09v-4.41h11.34v-36.54h-45.87Z"/><path class="cls-3" d="m305.26,50.11c0,24.07-20.92,43.98-46.12,43.98s-46.25-19.91-46.25-44.61,20.67-44.48,46.12-44.48,46.24,19.78,46.24,45.11Zm-86.44-.63c0,22.05,18.02,39.82,40.32,39.82s40.2-17.77,40.2-39.31-17.77-40.2-40.32-40.2-40.2,17.77-40.2,39.69Z"/><path class="cls-3" d="m25.29,179.16h10.08v4.41H9.54v-4.41h10.08v-75.23h-10.08v-4.41h33.52c16.13,0,26.08,8.32,26.08,22.05s-9.95,21.92-26.08,21.92h-8.32l28.73,35.66h9.32v4.41h-12.98l-34.53-43.22v38.81Zm17.64-40.07c6.8,0,11.47-1.39,15.12-4.66,3.65-3.15,5.8-7.81,5.8-12.98s-2.14-9.7-5.8-12.85c-3.65-3.28-8.32-4.66-15.12-4.66h-17.64v35.16h17.64Z"/><path class="cls-3" d="m110.34,103.93h-10.08v75.23h10.08v4.41h-25.83v-4.41h10.08v-75.23h-10.08v-4.41h25.83v4.41Z"/><path class="cls-3" d="m137.05,113v66.15h10.96v4.41h-26.71v-4.41h10.08v-75.23h-10.08v-4.41h16.13l31,66.91,30.75-66.91h15.62v4.41h-10.08v75.23h10.08v4.41h-26.71v-4.41h10.96v-66.15l-30.87,66.15-31.12-66.15Z"/><path class="cls-3" d="m249.19,156.1l-7.69,23.06h11.72v4.41h-27.72v-4.41h10.08l25.58-75.23h-10.08v-4.41h31.63v4.41h-10.08l22.81,75.23h10.08v4.41h-27.97v-4.41h11.72l-6.93-23.06h-33.14Zm17.64-52.17l-16.13,47.76h30.37l-14.24-47.76Z"/></g></svg>