<?xml version="1.0" encoding="UTF-8"?><svg id="Layer_2" xmlns="http://www.w3.org/2000/svg" viewBox="0 0 493.42 196.32"><defs><style>.cls-1{fill:#fff;}.cls-2{fill:#231f20;}.cls-3{fill:#458c72;}</style></defs><g id="exported"><path d="m123.82,196.32c-9.27,0-22.65-3.09-33.7-17.83-3.74-4.98-7.1-11.26-10.15-18.96l-7.33,16.3c-3.23,7.18-10.37,11.79-18.24,11.79h-24.57c-7.44,0-14.26-4.13-17.72-10.72-3.45-6.59-2.96-14.55,1.27-20.67,2.15-3.11,4.3-6.28,6.39-9.43,2.03-3.07,4.2-6.43,6.45-9.97,2.26-3.57,4.82-7.69,7.6-12.23,2.83-4.62,6.05-10.01,9.58-16,1.87-3.18,3.89-6.63,6.06-10.34-.6.18-1.19.37-1.79.56-7.17,2.25-13.79,4.69-19.67,7.25-6.96,3.03-15.03,1.86-20.84-3.01-5.81-4.88-8.37-12.62-6.59-20l8.19-34.02c1.47-6.13,5.75-11.2,11.54-13.69,13.78-5.93,28.27-10.6,43.08-13.88,11.08-2.45,22.32-4.13,33.55-5.01l.26-.45c3.57-6.19,10.18-10.01,17.32-10.01h18.27c7.97,0,15.18,4.73,18.35,12.05.41.94.74,1.89.99,2.86,5.06,1.74,9.62,3.93,13.71,6.58,13.04,8.45,20.22,21.3,20.22,36.19,0,12.07-3.78,23.54-11.22,34.09-5.11,7.24-11.83,13.91-20.06,19.9,4.71.58,9.17,2.84,12.47,6.53,5.53,6.19,6.65,15.15,2.83,22.52l-19.4,37.42c-2.19,4.22-5.81,7.53-10.22,9.32-4.73,1.93-10.16,2.86-16.61,2.86Z"/><path d="m196.4,170.99c-4.59,0-8.8-1.13-12.35-3.13-5.28,2.08-10.52,3.13-15.62,3.13-7.66,0-14.55-2.51-19.94-7.25-4.28-3.76-9.38-10.73-9.38-22.58,0-6.95,1.74-13.98,5.16-20.9,2.88-5.82,6.83-11.49,11.74-16.86,4.6-5.02,9.98-9.73,15.99-13.98,5.97-4.22,12.48-7.87,19.35-10.84,3.87-1.68,7.84-3.09,11.87-4.24,3.71-4.12,9.07-6.61,14.85-6.61h11.97c7.27,0,13.97,3.95,17.49,10.3,3.52,6.36,3.32,14.13-.53,20.29-2.31,3.7-4.38,7.22-6.15,10.46-.39.72-.78,1.43-1.16,2.12,4.35,6.01,5.05,14.04,1.62,20.79l-11.59,22.81c-1.31,2.57-3.15,4.83-5.41,6.62-3.67,2.91-7.99,5.28-12.83,7.06-5.06,1.86-10.14,2.8-15.09,2.8Zm15.86-18.2h0,0Z"/><path d="m216.56,196.32c-17.02,0-25.92-11.71-25.92-23.28,0-1.54.15-3.09.44-4.75.41-2.26,1.15-4.46,2.25-6.74,2.5-5.41,5.08-10.89,7.69-16.27,2.56-5.29,5.49-11.18,8.72-17.52-2.66-4.43-3.54-9.81-2.29-15l4.91-20.29c1.53-6.33,6.05-11.51,12.1-13.9,4.22-1.66,8.62-3.06,13.14-4.18.91-1.73,1.83-3.5,2.76-5.3,3.44-6.64,10.29-10.81,17.76-10.81h13.48c7.62,0,14.58,4.33,17.95,11.17,1.29,2.62,1.96,5.42,2.04,8.23,10.02,5.96,15.76,16.08,15.76,27.81,0,5.67-1.31,11.47-3.88,17.23-2.11,4.71-4.9,9.27-8.31,13.58-3.3,4.17-7.09,7.99-11.26,11.35-5.97,4.78-13.31,9.04-21.88,12.73-.3,1.35-.74,2.67-1.33,3.96l-6.8,14.87c-1.73,3.77-4.58,6.92-8.18,8.99-2.64,1.53-5.6,2.88-9.03,4.13-3.18,1.15-6.42,2.09-9.64,2.78-3.77.81-7.2,1.2-10.49,1.2Zm12.73-17.25s0,0,0,0c0,0,0,0,0,0Z"/><path d="m279.55,196.32c-17.02,0-25.92-11.71-25.92-23.28,0-1.54.15-3.09.44-4.75.41-2.26,1.15-4.46,2.25-6.74,2.5-5.41,5.08-10.88,7.69-16.26,2.56-5.29,5.49-11.18,8.72-17.52-2.66-4.43-3.54-9.81-2.29-15l4.91-20.29c1.53-6.33,6.05-11.51,12.1-13.9,4.22-1.66,8.62-3.06,13.14-4.18.91-1.73,1.83-3.5,2.76-5.3,3.44-6.64,10.29-10.81,17.76-10.81h13.48c7.62,0,14.58,4.33,17.95,11.17,1.29,2.62,1.96,5.42,2.04,8.23,10.02,5.96,15.76,16.08,15.76,27.81,0,5.67-1.31,11.47-3.88,17.23-2.11,4.71-4.9,9.27-8.31,13.58-3.3,4.17-7.09,7.99-11.26,11.35-5.97,4.78-13.31,9.04-21.88,12.73-.3,1.35-.74,2.67-1.33,3.96l-6.8,14.87c-1.73,3.77-4.58,6.92-8.18,8.99-2.64,1.53-5.59,2.88-9.03,4.13-3.18,1.15-6.42,2.09-9.64,2.78-3.77.81-7.2,1.2-10.49,1.2Zm12.73-17.24s0,0,0,0c0,0,0,0,0,0Z"/><path d="m366.24,170.99c-28.43,0-38.52-18.38-38.52-34.11,0-7.03,1.7-14.15,5.06-21.13,2.86-5.96,6.7-11.66,11.42-16.94,4.46-4.99,9.54-9.54,15.11-13.5,5.72-4.07,11.78-7.35,18.03-9.75,6.99-2.68,13.97-4.04,20.78-4.04,22.26,0,32.22,15.17,32.22,30.21,0,8.46-2.83,16.39-8.24,23.19-.18,2.59-.87,5.17-2.09,7.6l-10.08,20.03c-1.66,3.29-4.19,6.06-7.31,8-11.16,6.93-23.4,10.44-36.38,10.44Z"/><path d="m419.41,168.85h-11.97c-7.32,0-14.05-4-17.56-10.42s-3.22-14.25.74-20.4c2.08-3.23,3.8-5.99,5.21-8.34-.13-.15-.26-.29-.38-.44-5.1-6.14-6.06-14.71-2.45-21.83l8.57-16.88c.75-1.49,1.69-2.87,2.79-4.13,2.79-3.19,6.31-5.9,10.74-8.28,3.39-1.82,7-3.33,10.76-4.5,4.55-1.42,8.66-2.1,12.57-2.1,4.16,0,7.95.81,11.3,2.42,4.9-2.18,10.06-3.58,15.44-4.18,7.3-.82,14.47,2.43,18.66,8.47,4.19,6.04,4.74,13.89,1.41,20.45l-14.36,28.35c-3.91,7.72-12.35,12.04-20.89,10.73-.11,0-.34-.02-.73-.02-.96,0-1.47.19-1.84.38-.38.19-1.22.69-2.47,1.78l-7.15,16.79c-3.14,7.38-10.38,12.16-18.4,12.16Zm30.38-31.14s.05,0,.08.01c-.02,0-.05,0-.08-.01Zm-26.59-48.88s0,0,0,0h0Z"/><path class="cls-1" d="m129.82,190.32c-9.27,0-22.65-3.09-33.7-17.83-3.74-4.98-7.1-11.26-10.15-18.96l-7.33,16.3c-3.23,7.18-10.37,11.79-18.24,11.79h-24.57c-7.44,0-14.26-4.13-17.72-10.72-3.45-6.59-2.96-14.55,1.27-20.67,2.15-3.11,4.3-6.28,6.39-9.43,2.03-3.07,4.2-6.43,6.45-9.97,2.25-3.56,4.81-7.68,7.6-12.23,2.83-4.62,6.05-10.01,9.58-16,1.87-3.18,3.89-6.63,6.06-10.34-.6.18-1.19.37-1.79.56-7.17,2.25-13.79,4.69-19.67,7.25-6.96,3.03-15.03,1.86-20.84-3.01-5.81-4.88-8.37-12.62-6.59-20l8.19-34.02c1.47-6.13,5.75-11.2,11.54-13.69,13.78-5.93,28.27-10.6,43.08-13.88,11.08-2.45,22.32-4.13,33.55-5.01l.26-.45c3.57-6.19,10.18-10.01,17.32-10.01h18.27c7.97,0,15.18,4.73,18.35,12.05.41.94.74,1.89.99,2.86,5.06,1.74,9.62,3.93,13.71,6.58,13.04,8.45,20.22,21.3,20.22,36.19,0,12.07-3.78,23.54-11.22,34.09-5.11,7.24-11.83,13.91-20.06,19.9,4.71.58,9.17,2.84,12.47,6.53,5.53,6.19,6.65,15.15,2.83,22.52l-19.4,37.42c-2.19,4.22-5.81,7.53-10.22,9.32-4.73,1.93-10.16,2.86-16.61,2.86Z"/><path class="cls-1" d="m202.4,164.99c-4.59,0-8.8-1.13-12.35-3.13-5.28,2.08-10.52,3.13-15.62,3.13-7.66,0-14.55-2.51-19.94-7.25-4.28-3.76-9.38-10.73-9.38-22.58,0-6.95,1.74-13.98,5.16-20.9,2.88-5.82,6.83-11.49,11.74-16.86,4.6-5.02,9.98-9.73,15.99-13.98,5.97-4.22,12.48-7.87,19.35-10.84,3.87-1.68,7.84-3.09,11.87-4.24,3.71-4.12,9.07-6.61,14.85-6.61h11.97c7.27,0,13.97,3.95,17.49,10.3s3.32,14.13-.53,20.29c-2.31,3.7-4.38,7.22-6.15,10.46-.39.72-.78,1.43-1.16,2.12,4.35,6.01,5.05,14.04,1.62,20.79l-11.59,22.81c-1.31,2.57-3.15,4.83-5.41,6.62-3.67,2.91-7.99,5.28-12.83,7.06-5.06,1.86-10.14,2.8-15.09,2.8Zm15.86-18.2h0,0Z"/><path class="cls-1" d="m222.56,190.32c-17.02,0-25.92-11.71-25.92-23.28,0-1.54.15-3.09.44-4.75.41-2.26,1.15-4.46,2.25-6.74,2.5-5.41,5.08-10.89,7.69-16.27,2.56-5.28,5.49-11.17,8.72-17.52-2.66-4.43-3.54-9.81-2.29-15l4.91-20.29c1.53-6.33,6.05-11.51,12.1-13.9,4.22-1.66,8.62-3.06,13.14-4.18.91-1.73,1.83-3.5,2.76-5.3,3.44-6.64,10.29-10.81,17.76-10.81h13.48c7.62,0,14.58,4.33,17.95,11.17,1.29,2.62,1.96,5.42,2.04,8.23,10.02,5.96,15.76,16.08,15.76,27.81,0,5.67-1.31,11.47-3.88,17.23-2.11,4.71-4.9,9.27-8.31,13.58-3.3,4.17-7.09,7.99-11.26,11.35-5.97,4.78-13.31,9.04-21.88,12.73-.3,1.35-.74,2.67-1.33,3.96l-6.8,14.87c-1.73,3.77-4.58,6.92-8.18,8.99-2.64,1.53-5.6,2.88-9.03,4.13-3.18,1.15-6.42,2.09-9.64,2.78-3.77.81-7.2,1.2-10.49,1.2Zm12.73-17.25s0,0,0,0c0,0,0,0,0,0Z"/><path class="cls-1" d="m285.55,190.32c-17.02,0-25.92-11.71-25.92-23.28,0-1.54.15-3.09.44-4.75.41-2.26,1.15-4.46,2.25-6.74,2.5-5.41,5.08-10.88,7.69-16.26,2.56-5.28,5.49-11.17,8.72-17.52-2.66-4.43-3.54-9.81-2.29-15l4.91-20.29c1.53-6.33,6.05-11.51,12.1-13.9,4.22-1.66,8.62-3.06,13.14-4.18.91-1.73,1.83-3.5,2.76-5.3,3.44-6.64,10.29-10.81,17.76-10.81h13.48c7.62,0,14.58,4.33,17.95,11.17,1.29,2.62,1.96,5.42,2.04,8.23,10.02,5.96,15.76,16.08,15.76,27.81,0,5.67-1.31,11.47-3.88,17.23-2.11,4.71-4.9,9.27-8.31,13.58-3.3,4.17-7.09,7.99-11.26,11.35-5.97,4.78-13.31,9.04-21.88,12.73-.3,1.35-.74,2.67-1.33,3.96l-6.8,14.87c-1.73,3.77-4.58,6.92-8.18,8.99-2.64,1.53-5.59,2.88-9.03,4.13-3.18,1.15-6.42,2.09-9.64,2.78-3.77.81-7.2,1.2-10.49,1.2Zm12.73-17.24s0,0,0,0c0,0,0,0,0,0Z"/><path class="cls-1" d="m372.24,164.99c-28.43,0-38.52-18.38-38.52-34.11,0-7.03,1.7-14.15,5.06-21.13,2.86-5.96,6.7-11.66,11.42-16.94,4.46-4.99,9.54-9.54,15.11-13.5,5.72-4.07,11.78-7.35,18.03-9.75,6.99-2.68,13.97-4.04,20.78-4.04,22.26,0,32.22,15.17,32.22,30.21,0,8.46-2.83,16.39-8.24,23.19-.18,2.59-.87,5.17-2.09,7.6l-10.08,20.03c-1.66,3.29-4.19,6.06-7.31,8-11.16,6.93-23.4,10.44-36.38,10.44Z"/><path class="cls-1" d="m425.41,162.85h-11.97c-7.32,0-14.05-4-17.56-10.42s-3.22-14.25.74-20.4c2.08-3.23,3.8-5.99,5.21-8.34-.13-.15-.26-.29-.38-.44-5.1-6.14-6.06-14.71-2.45-21.83l8.57-16.88c.75-1.49,1.69-2.87,2.79-4.13,2.79-3.19,6.31-5.9,10.74-8.28,3.39-1.82,7-3.33,10.76-4.5,4.55-1.42,8.66-2.1,12.57-2.1,4.16,0,7.95.81,11.3,2.42,4.9-2.18,10.06-3.58,15.44-4.18,7.3-.82,14.47,2.43,18.66,8.47,4.19,6.04,4.74,13.89,1.41,20.45l-14.36,28.35c-3.91,7.72-12.35,12.04-20.89,10.73-.11,0-.34-.02-.73-.02-.96,0-1.47.19-1.84.38-.38.19-1.22.69-2.47,1.78l-7.15,16.79c-3.14,7.38-10.38,12.16-18.4,12.16Zm30.38-31.14s.05,0,.08.01c-.02,0-.05,0-.08-.01Zm-26.59-48.88s0,0,0,0h0Z"/><path class="cls-3" d="m129.82,183.32c-7.68,0-18.79-2.61-28.1-15.03-5.71-7.61-10.54-18.78-14.73-34.09l-14.74,32.76c-2.1,4.67-6.74,7.67-11.86,7.67h-24.57c-4.84,0-9.27-2.68-11.52-6.97-2.24-4.28-1.92-9.46.83-13.43,2.18-3.14,4.35-6.36,6.47-9.55,2.06-3.11,4.26-6.51,6.53-10.1,2.27-3.59,4.84-7.73,7.65-12.32,2.85-4.66,6.1-10.08,9.64-16.11,3.65-6.2,7.86-13.41,12.63-21.62.69-1.19,1.39-2.4,2.12-3.64-6.33,1.6-12.57,3.36-18.61,5.25-7.41,2.33-14.27,4.85-20.37,7.52-4.52,1.97-9.77,1.21-13.55-1.96-3.78-3.17-5.44-8.21-4.28-13l8.19-34.02c.96-3.98,3.74-7.28,7.5-8.9,13.38-5.76,27.45-10.29,41.83-13.48,11.96-2.65,24.12-4.37,36.24-5.13l2.12-3.67c2.32-4.02,6.61-6.5,11.26-6.5h18.27c5.18,0,9.87,3.08,11.93,7.83.76,1.75,1.11,3.6,1.07,5.44,6.2,1.72,11.59,4.07,16.25,7.09,11.14,7.21,17.02,17.7,17.02,30.32,0,10.6-3.34,20.71-9.94,30.05-6.03,8.55-14.6,16.28-25.47,22.97-4.92,3.03-10.31,5.83-16.13,8.38,3.28,1.39,6.81,2.07,10.7,2.07,3.22,0,6.32-.59,9.48-1.79,5.04-1.93,10.74-.54,14.34,3.49,3.59,4.02,4.32,9.85,1.84,14.64l-19.4,37.42c-1.42,2.74-3.78,4.89-6.64,6.06-3.88,1.58-8.45,2.34-13.97,2.34Zm-14.07-44.28c2.63,7.17,5,11.3,6.77,13.65,3.47,4.63,6.06,4.63,7.3,4.63.16,0,.31,0,.45,0l5.59-10.77c-6.46-.97-12.55-3.1-18.2-6.35-.64-.37-1.28-.75-1.91-1.15Zm-9.84-39.27c.09.51.19,1.02.28,1.54,0,.03.01.06.02.08,2.07-.62,4.09-1.27,6.06-1.95-2.07.13-4.19.23-6.36.32Zm-60.64-42.56l-.95,3.95c7.98-2.49,16.28-4.76,24.66-6.75,8.62-2.04,17.02-3.7,24.96-4.93,2.48-.38,4.96-.03,7.17.93,1.88-1.4,4.12-2.29,6.52-2.53,4.69-.46,9.06-.69,12.98-.69,13.15,0,23.21,1.02,30.76,3.12,2.34.65,4.41,1.41,6.22,2.25-.78-1.13-1.97-2.25-3.73-3.39-5.36-3.47-14.06-5.63-25.15-6.25-2.44-.14-4.75-.95-6.68-2.29-1.99,1.33-4.35,2.1-6.82,2.18-12.91.39-25.94,2.03-38.72,4.86-10.67,2.36-21.15,5.56-31.23,9.53Z"/><path class="cls-3" d="m202.4,157.99c-4.96,0-8.84-1.62-11.59-4.1-5.61,2.72-11.12,4.1-16.39,4.1-5.93,0-11.23-1.9-15.32-5.5-3.19-2.81-7-8.09-7-17.32,0-5.86,1.49-11.85,4.44-17.8,2.59-5.23,6.16-10.35,10.63-15.23,4.27-4.66,9.27-9.02,14.87-12.99,5.58-3.94,11.66-7.35,18.09-10.14,4.27-1.85,8.67-3.36,13.14-4.51,2.37-3.54,6.39-5.76,10.8-5.76h11.97c4.73,0,9.08,2.56,11.37,6.7s2.16,9.18-.35,13.19c-2.38,3.81-4.52,7.45-6.36,10.81-1.29,2.35-2.49,4.58-3.61,6.67.65.47,1.26,1,1.83,1.6,3.78,3.99,4.64,9.93,2.15,14.83l-11.59,22.81c-.85,1.67-2.05,3.14-3.52,4.3-3.09,2.45-6.75,4.46-10.9,5.98-4.28,1.57-8.55,2.37-12.67,2.37Z"/><path class="cls-3" d="m222.56,183.32c-4.25,0-7.76-.8-10.73-2.44-5.13-2.84-8.19-8.01-8.19-13.83,0-1.12.11-2.26.33-3.5.3-1.64.85-3.27,1.69-4.99,2.49-5.39,5.06-10.84,7.66-16.21,2.66-5.49,5.73-11.65,9.12-18.31.51-1,1.03-2.02,1.56-3.07-3.41-3.19-4.86-7.98-3.75-12.55l4.91-20.29c1-4.11,3.93-7.48,7.87-9.03,4.86-1.92,9.98-3.46,15.28-4.6.2-.38.4-.76.61-1.15,1.2-2.28,2.43-4.62,3.67-7.03,2.23-4.32,6.69-7.03,11.55-7.03h13.48c4.96,0,9.48,2.82,11.67,7.26,1.44,2.92,1.7,6.21.86,9.23,14.28,5.9,16.23,17.72,16.23,23.72,0,4.68-1.1,9.52-3.27,14.38-1.87,4.17-4.36,8.24-7.41,12.09-2.98,3.77-6.4,7.21-10.17,10.25-5.55,4.44-12.48,8.44-20.63,11.91-1.11.47-2.24.93-3.38,1.38.08,2.01-.3,4.04-1.17,5.93l-6.81,14.87c-1.12,2.45-2.98,4.5-5.32,5.84-2.28,1.32-4.87,2.5-7.92,3.61-2.88,1.04-5.8,1.89-8.71,2.51-3.28.7-6.23,1.04-9.02,1.04Z"/><path class="cls-3" d="m285.55,183.32c-4.25,0-7.76-.8-10.74-2.44-5.13-2.84-8.19-8.01-8.19-13.83,0-1.12.11-2.26.33-3.5.3-1.64.85-3.27,1.69-4.98,2.49-5.39,5.06-10.85,7.66-16.21,2.66-5.49,5.73-11.65,9.12-18.31.51-1,1.03-2.02,1.57-3.07-3.41-3.19-4.86-7.98-3.75-12.55l4.91-20.29c1-4.11,3.93-7.48,7.87-9.03,4.86-1.92,9.98-3.46,15.28-4.6.2-.38.4-.76.61-1.15,1.2-2.28,2.43-4.62,3.67-7.03,2.23-4.32,6.69-7.03,11.55-7.03h13.48c4.96,0,9.48,2.82,11.67,7.26,1.44,2.92,1.7,6.21.86,9.23,14.28,5.9,16.23,17.72,16.23,23.72,0,4.68-1.1,9.52-3.27,14.38-1.87,4.17-4.36,8.24-7.41,12.09-2.98,3.77-6.4,7.21-10.17,10.25-5.55,4.44-12.48,8.44-20.63,11.91-1.11.47-2.24.93-3.38,1.38.08,2.01-.3,4.04-1.17,5.93l-6.8,14.87c-1.12,2.45-2.98,4.5-5.32,5.84-2.28,1.32-4.87,2.5-7.92,3.61-2.88,1.04-5.8,1.89-8.71,2.51-3.28.7-6.23,1.04-9.02,1.04Z"/><path class="cls-3" d="m372.24,157.99c-9.18,0-16.31-2.02-21.77-6.19-4.45-3.39-9.75-9.77-9.75-20.93,0-5.98,1.47-12.07,4.37-18.1,2.58-5.36,6.05-10.52,10.34-15.31,4.11-4.61,8.8-8.8,13.94-12.46,5.24-3.73,10.78-6.72,16.48-8.92,6.18-2.37,12.33-3.57,18.27-3.57,18.62,0,25.22,12.5,25.22,23.21,0,7.58-2.84,14.67-8.24,20.62.21,2.36-.21,4.79-1.33,7.02l-10.08,20.03c-1.08,2.14-2.72,3.94-4.75,5.2-10.03,6.23-21.03,9.39-32.69,9.39Z"/><path class="cls-3" d="m425.41,155.85h-11.97c-4.76,0-9.13-2.6-11.41-6.77-2.28-4.17-2.09-9.26.48-13.26,3.47-5.39,6.28-10,8.41-13.78-1.54-.79-2.93-1.89-4.08-3.27-3.31-3.99-3.94-9.56-1.59-14.19l8.57-16.88c.49-.97,1.1-1.87,1.81-2.68,2.23-2.55,5.11-4.75,8.79-6.73,2.99-1.61,6.2-2.94,9.53-3.98,3.86-1.2,7.29-1.79,10.49-1.79,4.56,0,8.23,1.31,10.97,3.38,5.19-2.8,10.73-4.53,16.56-5.19,4.76-.53,9.41,1.58,12.13,5.5,2.73,3.92,3.08,9.03.92,13.29l-14.36,28.35c-2.56,5.05-8.12,7.86-13.72,6.95-.02,0-.49-.08-1.66-.08-1.87,0-3.52.38-5.03,1.15-1.13.58-2.88,1.71-5.13,3.89l-7.74,18.17c-2.04,4.79-6.75,7.91-11.96,7.91Z"/><path class="cls-2" d="m129.82,170.32c-6.89,0-12.79-3.28-17.7-9.83s-9.3-17.18-13.17-31.88c-1.01-3.95-2-8.06-2.96-12.35-.97-4.28-1.83-8.48-2.58-12.6-.76-4.11-1.39-7.85-1.89-11.21l-31.12,69.17h-24.57c2.27-3.28,4.47-6.53,6.62-9.76,2.14-3.23,4.37-6.68,6.68-10.33,2.31-3.65,4.89-7.81,7.75-12.47,2.85-4.66,6.11-10.1,9.77-16.32,3.65-6.22,7.88-13.44,12.66-21.67,4.79-8.23,10.33-17.81,16.63-28.73-7.64,1.18-15.62,2.75-23.94,4.73-8.32,1.97-16.42,4.2-24.32,6.68-7.9,2.48-15.12,5.15-21.67,8l8.19-34.02c12.68-5.46,25.85-9.7,39.5-12.73,13.65-3.02,27.36-4.74,41.14-5.17l5.67-9.83h18.27l-9.32,9.95c13.61.76,24.11,3.53,31.5,8.32,7.39,4.79,11.09,11.26,11.09,19.4s-2.52,15.42-7.56,22.55c-5.04,7.14-12.27,13.61-21.67,19.4-9.41,5.8-20.66,10.63-33.77,14.49,4.03,6.38,9.07,11.32,15.12,14.81,6.05,3.49,12.73,5.23,20.03,5.23,4.79,0,9.49-.88,14.11-2.65l-19.4,37.42c-2.27.92-5.29,1.39-9.07,1.39Zm-1.83-85.49c9.45-1.39,16.72-3.3,21.8-5.73,5.08-2.44,7.62-5.29,7.62-8.57s-3.17-5.92-9.51-7.69c-6.34-1.76-15.43-2.65-27.28-2.65-3.53,0-7.43.21-11.72.63l-14.74,26.21c13.1-.08,24.38-.82,33.83-2.21Z"/><path class="cls-2" d="m217.9,139.45c-2.02,1.6-4.45,2.92-7.31,3.97-2.86,1.05-5.59,1.58-8.19,1.58-2.35,0-3.53-.8-3.53-2.39s1.13-4.41,3.4-8.44l9.32-16.13c-3.95,5.46-8.11,10.21-12.47,14.24-4.37,4.03-8.67,7.16-12.92,9.39-4.24,2.22-8.17,3.34-11.78,3.34-2.77,0-5.02-.76-6.74-2.27-1.72-1.51-2.58-4.03-2.58-7.56,0-3.86,1.03-7.88,3.09-12.03,2.06-4.16,4.91-8.23,8.57-12.22,3.65-3.99,7.92-7.71,12.79-11.15,4.87-3.44,10.12-6.38,15.75-8.82,5.63-2.44,11.42-4.16,17.39-5.17l1.39-4.03h11.97c-2.52,4.03-4.77,7.85-6.74,11.47-1.97,3.61-3.76,6.93-5.35,9.95-2.86,5.54-4.28,9.53-4.28,11.97,0,2.27,1.05,3.4,3.15,3.4,1.59,0,3.82-.63,6.68-1.89l-11.59,22.81Zm-33.71-27.47c-2.56,2.1-3.84,4.37-3.84,6.8,0,2.86,2.18,4.28,6.55,4.28,3.44,0,6.95-.73,10.52-2.2,3.57-1.47,6.95-3.51,10.14-6.11,3.19-2.6,5.96-5.63,8.32-9.07-2.69-.5-5.38-.76-8.06-.76-4.79,0-9.28.65-13.48,1.95-4.2,1.3-7.58,3-10.14,5.1Z"/><path class="cls-2" d="m248.51,150.03l-6.8,14.87c-1.6.92-3.55,1.81-5.86,2.65-2.31.84-4.64,1.51-6.99,2.02s-4.45.76-6.3.76c-3.95,0-5.92-1.09-5.92-3.28,0-.34.04-.74.13-1.2.08-.46.29-1.03.63-1.7,2.44-5.29,4.98-10.67,7.62-16.13,2.65-5.46,5.65-11.49,9.01-18.08,3.36-6.59,7.26-14.17,11.72-22.74-4.71,1.18-8.99,2.6-12.85,4.28l4.91-20.29c5.96-2.35,12.3-4.03,19.03-5.04,1.18-2.18,2.37-4.43,3.59-6.74,1.22-2.31,2.46-4.68,3.72-7.12h13.48c-2.27,2.94-4.2,5.46-5.8,7.56-1.6,2.1-2.94,3.91-4.03,5.42h1.26c16.21,0,24.32,4.75,24.32,14.24,0,2.86-.71,5.88-2.14,9.07-1.43,3.19-3.34,6.3-5.73,9.32-2.39,3.02-5.1,5.75-8.13,8.19-4.62,3.7-10.48,7.06-17.58,10.08-7.1,3.02-14.93,5.38-23.5,7.06-.59,1.51-.88,2.69-.88,3.53,0,2.86,1.89,4.28,5.67,4.28,1.01,0,2.12-.08,3.34-.25,1.22-.17,2.58-.42,4.1-.76Zm6.3-44.73c-1.09,1.85-2.25,4.01-3.46,6.49-1.22,2.48-2.71,5.65-4.47,9.51,7.22-.08,13.52-.67,18.9-1.76,5.38-1.09,9.53-2.52,12.47-4.28,2.94-1.76,4.41-3.65,4.41-5.67,0-1.85-1.22-3.23-3.65-4.16-2.44-.92-5.88-1.39-10.33-1.39s-8.91.42-13.86,1.26Z"/><path class="cls-2" d="m311.51,150.03l-6.8,14.87c-1.6.92-3.55,1.81-5.86,2.65-2.31.84-4.64,1.51-6.99,2.02s-4.45.76-6.3.76c-3.95,0-5.92-1.09-5.92-3.28,0-.34.04-.74.13-1.2.08-.46.29-1.03.63-1.7,2.44-5.29,4.98-10.67,7.62-16.13,2.65-5.46,5.65-11.49,9.01-18.08,3.36-6.59,7.26-14.17,11.72-22.74-4.71,1.18-8.99,2.6-12.85,4.28l4.91-20.29c5.96-2.35,12.3-4.03,19.03-5.04,1.18-2.18,2.37-4.43,3.59-6.74,1.22-2.31,2.46-4.68,3.72-7.12h13.48c-2.27,2.94-4.2,5.46-5.8,7.56-1.6,2.1-2.94,3.91-4.03,5.42h1.26c16.21,0,24.32,4.75,24.32,14.24,0,2.86-.71,5.88-2.14,9.07-1.43,3.19-3.34,6.3-5.73,9.32-2.39,3.02-5.1,5.75-8.13,8.19-4.62,3.7-10.48,7.06-17.58,10.08-7.1,3.02-14.93,5.38-23.5,7.06-.59,1.51-.88,2.69-.88,3.53,0,2.86,1.89,4.28,5.67,4.28,1.01,0,2.12-.08,3.34-.25,1.22-.17,2.58-.42,4.1-.76Zm6.3-44.73c-1.09,1.85-2.25,4.01-3.46,6.49-1.22,2.48-2.71,5.65-4.47,9.51,7.22-.08,13.52-.67,18.9-1.76,5.38-1.09,9.53-2.52,12.47-4.28,2.94-1.76,4.41-3.65,4.41-5.67,0-1.85-1.22-3.23-3.65-4.16-2.44-.92-5.88-1.39-10.33-1.39s-8.91.42-13.86,1.26Z"/><path class="cls-2" d="m398.07,137.56c-7.98,4.96-16.59,7.43-25.83,7.43-12.35,0-18.52-4.7-18.52-14.11,0-4.03,1.03-8.19,3.09-12.47,2.06-4.28,4.83-8.38,8.32-12.29,3.49-3.91,7.41-7.41,11.78-10.52,4.37-3.11,8.9-5.56,13.61-7.37,4.7-1.81,9.24-2.71,13.61-2.71,8.15,0,12.22,3.4,12.22,10.21,0,4.71-1.89,8.95-5.67,12.73-3.78,3.78-8.99,6.76-15.62,8.95-6.64,2.19-14.28,3.28-22.93,3.28-2.35,0-4.79-.08-7.31-.25.25,3.19,4.2,4.79,11.84,4.79,5.96,0,11.8-.78,17.51-2.33,5.71-1.55,10.37-3.34,13.99-5.35l-10.08,20.03Zm-16-32.07c-3.53,1.22-6.72,2.77-9.58,4.66-2.86,1.89-4.96,3.89-6.3,5.98,6.3-.08,11.84-.57,16.63-1.45,4.79-.88,8.53-2.02,11.21-3.4,2.69-1.39,4.03-2.96,4.03-4.73,0-1.93-1.89-2.9-5.67-2.9-3.36,0-6.8.61-10.33,1.83Z"/><path class="cls-2" d="m459.05,111.98c-1.01-.17-2.27-.25-3.78-.25-3.95,0-7.6.86-10.96,2.58-3.36,1.72-6.76,4.43-10.21,8.13l-8.69,20.41h-11.97c5.46-8.48,9.39-15.16,11.78-20.03,2.39-4.87,3.59-8.4,3.59-10.58s-1.34-3.28-4.03-3.28c-1.85,0-4.49.5-7.94,1.51l8.57-16.88c1.18-1.34,2.9-2.62,5.17-3.84,2.27-1.22,4.68-2.22,7.25-3.02,2.56-.8,4.77-1.2,6.62-1.2,2.6,0,3.91.8,3.91,2.39,0,.67-.25,1.6-.76,2.77l-9.95,23.31c5.88-9.91,11.63-17.26,17.26-22.05,5.63-4.79,11.8-7.56,18.52-8.32l-14.36,28.35Z"/></g></svg>