<?xml version="1.0" encoding="UTF-8"?><svg id="Layer_2" xmlns="http://www.w3.org/2000/svg" viewBox="0 0 448.2 138.11"><defs><style>.cls-1{fill:#fff;}.cls-2{fill:#231f20;}.cls-3{fill:#458c72;}</style></defs><g id="exported"><path d="m34.24,137.99c-4.56,0-9.25-1.2-14.76-3.77-.16-.08-.33-.15-.49-.24C6.56,127.76.25,115.81.25,98.45c0-13.33,4.73-24.01,8.9-33.43.89-2.02,1.74-3.93,2.51-5.8,1.6-4.07,2.65-8.05,3.1-11.72C5.96,44.72,0,36.89,0,27.76,0,16.05,9.45,6.88,21.51,6.88c27.64,0,47.61,0,72.03.25.62,0,1.24.04,1.85.1,14.72,1.52,25.83,11.39,30.47,27.06.13.44.25.89.35,1.35.57,2.55.85,5.15.85,7.74,0,4.6-.84,8.66-1.52,11.92-.25,1.21-.58,2.77-.7,3.73.2,1.43.46,3.47.46,5.77,0,14.55-10.89,22.4-21.13,22.4-1.37,0-2.68-.07-3.94-.2-1.64,8.98-7.21,15.91-15.33,19.36-.93,15.38-9.05,26.5-22.12,30.04-.13.03-.25.07-.38.1-3.24.81-7.59,1.48-28.16,1.48Zm8.28-49.22c-1.28,3.35-2.17,6.41-2.26,9.2,1.43-.01,2.71-.03,3.86-.05-.03-.15-.06-.31-.1-.46-.53-2.52-1.14-5.44-1.5-8.69Z"/><path d="m136.93,136.98h-1.76c-13.74,0-26.4-4.62-35.66-13.01-10.22-9.26-15.85-22.71-15.85-37.86,0-33.64,22.35-58.05,53.14-58.05,15.34,0,29.27,6.83,39.21,19.22,8.37,10.44,13.17,24.27,13.17,37.95v.76c0,.12,0,.25,0,.38-.55,29.33-22.53,50.62-52.25,50.62Z"/><path d="m207.49,136.98h-1.76c-13.74,0-26.4-4.62-35.66-13.01-10.22-9.26-15.85-22.71-15.85-37.86,0-33.64,22.35-58.05,53.14-58.05,15.34,0,29.27,6.83,39.21,19.22,8.37,10.44,13.17,24.27,13.17,37.95v.76c0,.12,0,.25,0,.38-.55,29.33-22.53,50.62-52.25,50.62Z"/><path d="m297.46,138.11h-.76c-5.51,0-10.68-1.02-15.26-2.91-6.5,2.65-12.71,2.65-15.61,2.65-18.93,0-41.04-13.49-41.04-51.5,0-19.31,7.63-40.56,24-51.25-.93-2.41-1.44-5.06-1.44-7.85,0-9.69,6.77-18,16.47-20.22,1.97-.45,4.01-.66,6.43-.66h10.71c4.4,0,10.43,0,16.2,2.24.06.02.12.05.18.07,6.89,2.76,11.03,7.23,13.5,9.9.25.28.51.56.78.84.05.05.09.1.14.15,11.17,12.02,17.32,28.49,17.32,46.37,0,4.39-.47,8.5-.88,12.12-.33,2.86-.63,5.57-.63,7.79,0,.78,0,1.25,1.39,4.11.04.07.07.15.11.22,2.91,6.19,2.91,12.14,2.91,15.7,0,15.58-9.06,32.22-34.49,32.22Zm-29.36-129.84h.03-.03Z"/><path d="m337.02,137.23h-12.35c-13.38,0-26.93-10.46-26.93-30.46,0-13.44,3.42-22.27,6.17-29.37,1.56-4.04,2.69-6.95,3.12-10.52-6.2-3.66-10.04-10.39-10.04-18.32,0-3.49.87-6.77,2.4-9.66-.17-1.27-.26-2.55-.26-3.82,0-16.85,12.97-29.07,30.84-29.07,15.96,0,28.95,13.27,28.95,29.58,0,3.25-.57,6.33-1.62,9.16,5.45,8.17,8.04,17.2,8.04,27.64v6.68c0,2.51-.07,4.91-.14,7.22-.06,2.03-.11,3.96-.12,5.76.06.44.33,1.56.52,2.39.68,2.83,1.62,6.71,1.62,11.46,0,17.87-12.99,31.34-30.21,31.34Zm-17.19-74.81h0s0,0,0,0Zm-.03-.03s0,0,0,0c0,0,0,0,0,0Zm-.02-.02s0,0,.01.01c0,0,0,0-.01-.01Zm-.02-.02s.01.01.02.02c0,0-.01-.01-.02-.02Zm-.03-.03s.01.01.02.02c0,0-.01-.01-.02-.02Zm4.76-34.52h6.86c1.24,0,3.14,0,5.37.39-2.02-2.74-5.23-4.95-9.37-5.75-.96.51-1.87,1.11-2.71,1.78l-.14,3.57Zm-3.13,0h2.56v-2.96c-.97.88-1.84,1.88-2.56,2.96Z"/><path d="m384.27,137.23c-9.26,0-33.85,0-46.28-25.12-3.79-7.57-5.73-15.88-5.73-24.62,0-6.91,1.25-13.68,3.71-20.12,9.71-25.12,31.28-40.08,57.74-40.08,22.39,0,47.34,17.84,47.34,43.44,0,.98-.05,1.95-.14,2.9.82,2.24,1.27,4.65,1.27,7.18,0,20.28-10.96,39.1-28.61,49.12-8.56,4.91-18.15,7.29-29.32,7.29Z"/><path class="cls-1" d="m40.24,131.99c-4.56,0-9.25-1.2-14.76-3.77-.16-.08-.33-.15-.49-.24-12.44-6.22-18.74-18.17-18.74-35.53,0-13.33,4.73-24,8.9-33.43.89-2.02,1.74-3.93,2.51-5.8,1.6-4.07,2.65-8.05,3.1-11.72-8.79-2.78-14.75-10.61-14.75-19.74C6,10.05,15.45.88,27.51.88c27.64,0,47.61,0,72.03.25.62,0,1.24.04,1.85.1,14.72,1.52,25.83,11.39,30.47,27.06.13.44.25.89.35,1.35.57,2.55.85,5.15.85,7.74,0,4.6-.84,8.66-1.52,11.92-.25,1.21-.58,2.77-.7,3.73.2,1.43.46,3.47.46,5.77,0,14.55-10.89,22.4-21.13,22.4-1.37,0-2.68-.07-3.94-.2-1.64,8.98-7.21,15.91-15.33,19.36-.93,15.38-9.05,26.5-22.12,30.04-.13.03-.25.07-.38.1-3.24.81-7.59,1.48-28.16,1.48Zm8.29-49.22c-1.29,3.35-2.17,6.41-2.26,9.2,1.43-.01,2.71-.03,3.86-.05-.03-.15-.06-.31-.1-.46-.53-2.52-1.14-5.44-1.5-8.69Z"/><path class="cls-1" d="m142.93,130.98h-1.76c-13.74,0-26.4-4.62-35.66-13.01-10.22-9.26-15.85-22.71-15.85-37.86,0-33.64,22.35-58.05,53.14-58.05,15.34,0,29.27,6.83,39.21,19.22,8.37,10.44,13.17,24.27,13.17,37.95v.76c0,.12,0,.25,0,.38-.55,29.33-22.53,50.62-52.25,50.62Z"/><path class="cls-1" d="m213.49,130.98h-1.76c-13.74,0-26.4-4.62-35.66-13.01-10.22-9.26-15.85-22.71-15.85-37.86,0-33.64,22.35-58.05,53.14-58.05,15.34,0,29.27,6.83,39.21,19.22,8.37,10.44,13.17,24.27,13.17,37.95v.76c0,.12,0,.25,0,.38-.55,29.33-22.53,50.62-52.25,50.62Z"/><path class="cls-1" d="m303.46,132.11h-.76c-5.51,0-10.68-1.02-15.26-2.91-6.5,2.65-12.71,2.65-15.61,2.65-18.93,0-41.04-13.49-41.04-51.5,0-19.31,7.63-40.56,24-51.25-.93-2.41-1.44-5.06-1.44-7.85,0-9.69,6.77-18,16.47-20.22,1.97-.45,4.01-.66,6.43-.66h10.71c4.4,0,10.43,0,16.2,2.24.06.02.12.05.18.07,6.89,2.76,11.03,7.23,13.5,9.9.25.28.51.56.78.84.05.05.09.1.14.15,11.17,12.02,17.32,28.49,17.32,46.37,0,4.39-.47,8.5-.88,12.12-.33,2.86-.63,5.57-.63,7.79,0,.78,0,1.25,1.39,4.11.04.07.07.15.11.22,2.91,6.19,2.91,12.14,2.91,15.7,0,15.58-9.06,32.22-34.49,32.22ZM274.09,2.27h.03-.03Z"/><path class="cls-1" d="m343.02,131.23h-12.35c-13.38,0-26.93-10.46-26.93-30.46,0-13.44,3.42-22.27,6.17-29.37,1.56-4.04,2.69-6.95,3.12-10.52-6.2-3.66-10.04-10.39-10.04-18.32,0-3.49.87-6.77,2.4-9.66-.17-1.27-.26-2.55-.26-3.82,0-16.85,12.97-29.07,30.84-29.07,15.96,0,28.95,13.27,28.95,29.58,0,3.25-.57,6.33-1.62,9.16,5.45,8.17,8.04,17.2,8.04,27.64v6.68c0,2.51-.07,4.91-.14,7.22-.06,2.03-.11,3.96-.12,5.76.06.44.33,1.56.52,2.39.68,2.83,1.62,6.71,1.62,11.46,0,17.87-12.99,31.34-30.21,31.34Zm-17.19-74.81h0s0,0,0,0Zm-.03-.03s0,0,0,0c0,0,0,0,0,0Zm-.02-.02s0,0,.01.01c0,0,0,0-.01-.01Zm-.02-.02s.01.01.02.02c0,0-.01-.01-.02-.02Zm-.03-.03s.01.01.02.02c0,0-.01-.01-.02-.02Zm4.76-34.52h6.86c1.24,0,3.14,0,5.37.39-2.02-2.74-5.23-4.95-9.37-5.75-.96.51-1.87,1.11-2.71,1.78l-.14,3.57Zm-3.13,0h2.56v-2.96c-.97.88-1.84,1.88-2.56,2.96Z"/><path class="cls-1" d="m390.27,131.23c-9.26,0-33.85,0-46.28-25.12-3.79-7.57-5.73-15.88-5.73-24.62,0-6.91,1.25-13.68,3.71-20.12,9.71-25.12,31.28-40.08,57.74-40.08,22.39,0,47.34,17.84,47.34,43.44,0,.98-.05,1.95-.14,2.9.82,2.24,1.27,4.65,1.27,7.18,0,20.28-10.96,39.1-28.61,49.12-8.56,4.91-18.15,7.29-29.32,7.29Z"/><path class="cls-3" d="m40.24,124.99c-3.5,0-7.25-.99-11.8-3.11-.11-.05-.21-.1-.32-.15-14.87-7.44-14.87-23.87-14.87-29.27,0-11.85,4.41-21.81,8.3-30.59.92-2.08,1.79-4.05,2.6-6.02,2.52-6.37,3.85-12.66,3.85-18.2,0-.26-.03-.98-.06-1.69,0-.09,0-.18,0-.27-1.2-.08-2.35-.2-3.54-.45-7.87-1.65-11.39-7.95-11.39-13.46,0-7.78,6.37-13.88,14.51-13.88,27.62,0,47.57,0,71.96.25.4,0,.8.03,1.2.07,11.76,1.22,20.68,9.27,24.48,22.09.09.29.16.58.23.87.46,2.05.69,4.15.69,6.22,0,3.88-.73,7.39-1.38,10.49-.42,2.01-.82,3.92-.88,5.37.02.14.04.29.06.44.18,1.32.43,3.13.43,5.12,0,10.11-7.11,15.39-14.13,15.39-4.08,0-7.58-.74-10.59-1.98.09,1,.15,2.04.15,3.09,0,10.39-6.09,17.89-15.81,19.92.04.7.06,1.41.06,2.13,0,13.57-6.37,23.39-17.04,26.28-.08.02-.16.04-.25.06-2.02.51-5.08,1.27-26.46,1.27Zm-.35-26.47c.54.24.92.38,1.16.47,9.27,0,14.27-.17,16.9-.32.03-.37.05-.8.05-1.3,0-2.05-.51-4.51-1.11-7.35-.78-3.72-1.66-7.93-1.66-12.68,0-.94.03-4.26.35-7.45.2-1.95.48-3.57.87-4.96.44-1.57,1.04-2.94,1.77-4.12-.21-1.17-.22-1.98-.22-2.11,0-2.99.36-5.68.67-8.05.25-1.85.46-3.44.46-4.8,0-5.51-1.61-10.3-2.87-11.94-.78,0-1.58,0-2.37,0,.01.33.03.74.04,1.16.04,1.1.07,2.21.07,2.59,0,8.94-1.92,18.31-5.7,27.85-.02.05-.04.09-.05.14-.95,2.33-1.95,4.58-2.91,6.75-3.26,7.36-6.07,13.72-6.07,20.07,0,4.02.42,5.55.63,6.07Z"/><path class="cls-3" d="m142.93,123.98h-1.76c-26.2,0-44.5-18.04-44.5-43.87,0-13.25,4.01-25.57,11.28-34.69,8.41-10.55,20.79-16.36,34.86-16.36,28.03,0,45.38,26.04,45.38,50.17v.76c0,.08,0,.16,0,.24-.25,13.23-5.16,24.48-14.2,32.53-8.13,7.24-19.16,11.23-31.06,11.23Zm17.84-41.03l-.47,1.4c-.49,1.46-.71,3.41-.81,5.69,1.56-2.52,2.6-5.83,2.7-10.18v-.62c0-.12,0-.23,0-.35-.45,1.33-.93,2.69-1.42,4.07Zm-35.18-17.33c-1.77,3.53-2.93,8.23-2.93,14.5,0,.84.04,1.75.14,2.7.42-2.16.94-4.18,1.43-6.08.73-2.8,1.41-5.45,1.41-7.45v-.63c0-1.15-.02-2.14-.06-3.03Z"/><path class="cls-3" d="m213.49,123.98h-1.76c-26.2,0-44.5-18.04-44.5-43.87,0-13.25,4-25.57,11.28-34.69,8.41-10.55,20.79-16.36,34.86-16.36,28.03,0,45.38,26.04,45.38,50.17v.76c0,.08,0,.16,0,.24-.25,13.23-5.16,24.48-14.2,32.53-8.13,7.24-19.16,11.23-31.06,11.23Zm17.84-41.04l-.47,1.4c-.49,1.46-.71,3.41-.81,5.69,1.56-2.52,2.6-5.83,2.7-10.18v-.62c0-.12,0-.23,0-.35-.45,1.33-.93,2.69-1.42,4.07Zm-35.18-17.33c-1.77,3.53-2.93,8.23-2.93,14.5,0,.84.04,1.75.14,2.7.42-2.16.94-4.18,1.43-6.08.73-2.8,1.41-5.45,1.41-7.45v-.63c0-1.15-.02-2.14-.06-3.03Z"/><path class="cls-3" d="m303.46,125.11h-.76c-5.69,0-10.91-1.31-15.26-3.66-6.03,3.41-12.51,3.41-15.61,3.41-21,0-34.04-17.05-34.04-44.5,0-19.52,8.55-41.23,27.1-48.61-2.81-2.55-4.55-6.27-4.55-10.49,0-6.51,4.43-11.89,11.03-13.4,1.45-.33,2.99-.48,4.87-.48h10.71c3.85,0,9.12,0,13.66,1.77.04.01.08.03.12.04,5.43,2.17,8.62,5.63,10.95,8.15.27.3.55.6.84.9.03.03.06.06.09.1,9.96,10.73,15.44,25.5,15.44,41.61,0,4-.42,7.73-.83,11.33-.35,3.07-.68,5.96-.68,8.58,0,2.24.45,3.79,2.1,7.17.02.05.05.1.07.15,2.25,4.77,2.25,9.55,2.25,12.72,0,7.58-2.68,25.22-27.49,25.22Zm-3.26-26.34c.53.17,1.4.34,2.5.34h.76c.58,0,1.07-.01,1.49-.04,0-.51-.02-1.04-.05-1.41-2.04-4.31-3.54-8.43-4.11-13.35-.58,1.42-.66,2.96-.75,6.48-.03.96-.05,1.95-.1,2.98-.05,1.15-.25,2.26-.58,3.33.32.53.6,1.09.84,1.67Z"/><path class="cls-3" d="m343.02,124.23h-12.35c-9.6,0-19.93-7.34-19.93-23.46,0-12.13,3.16-20.29,5.7-26.84,1.98-5.12,3.55-9.17,3.75-15.05,0-1.2-.09-2.04-.19-2.6-4.83-1.36-10.02-5.62-10.02-13.73,0-3.09,1.04-5.95,2.78-8.25-.42-1.72-.64-3.49-.64-5.23,0-13,9.8-22.07,23.84-22.07,12.1,0,21.95,10.13,21.95,22.58,0,3.74-.98,7.14-2.71,9.96,6.2,7.87,9.13,16.58,9.13,26.83v6.68c0,2.41-.07,4.75-.13,7.02-.06,2.13-.12,4.14-.12,6.08,0,.93.33,2.31.72,3.91.63,2.63,1.42,5.9,1.42,9.82,0,14.1-9.76,24.34-23.21,24.34Zm-6.2-26h3.19c-.13-.63-.3-1.34-.48-2.07-.43-1.78-.93-3.86-1.21-6.24-.76,2.54-1.31,5.17-1.5,8.31Zm-6.12-46.84s0,0,0,0c0,0,0,0,0,0Zm-.02-.02s0,0,.01.01c0,0,0,0-.01-.01Zm1.28-22.57h5.39c.24,0,.49,0,.77,0-.14-1.81-1.64-3.55-3.72-4.62-1.34,1.31-2.22,2.98-2.44,4.61Z"/><path class="cls-3" d="m390.27,124.23c-8.83,0-29.5,0-40-21.22-3.31-6.62-5-13.88-5-21.52,0-6.05,1.09-11.98,3.25-17.62,8.61-22.29,27.75-35.58,51.21-35.58,19.08,0,40.34,14.96,40.34,36.44,0,1.35-.11,2.65-.32,3.9.93,1.86,1.46,3.96,1.46,6.18,0,17.79-9.62,34.29-25.12,43.06-7.42,4.26-15.88,6.35-25.81,6.35Zm-17.49-51.02c-1,2.62-1.51,5.42-1.51,8.28,0,3.32.66,6.44,1.98,9.3,0-.12,0-.24,0-.35,0-2.51.32-4.94.97-7.32-.32-.92-.54-1.89-.65-2.89-.16-1.48-.32-2.88-.47-4.21-.11-.96-.21-1.89-.32-2.8Zm36.98,8.95c-2.75.57-8.74,4.7-10.14,7.03-.16.31-.26.53-.31.7,4.75-.26,8.62-3.62,11.27-7.52-.32-.09-.61-.17-.82-.21Z"/><path class="cls-2" d="m36.21,60.7c2.9-7.31,4.79-15.25,4.79-23.06,0-.63-.13-3.65-.13-4.28-1.26-5.67-4.16-10.21-10.33-10.58h-.63c-2.39-.13-3.91-.25-3.91-1.01,0-.38.38-.88,1.51-.88,27.72,0,47.5,0,71.82.25,7.31.76,11.34,6.05,13.36,12.85.25,1.13.38,2.27.38,3.4,0,5.17-2.27,10.71-2.27,16.25,0,1.01.5,3.28.5,5.17,0,1.39-.25,2.39-1.13,2.39-13.61,0-15.25-15.25-20.04-24.19-4.41-8.19-10.96-13.36-19.78-13.36-1.64,0-3.4.25-5.29.63,5.17,5.04,7.06,14.74,7.06,21.55,0,4.41-1.13,8.57-1.13,12.85,0,.88,1.01,1.01,3.02,1.01,4.66,0,8.19-2.77,8.19-7.56,0-4.03-1.01-7.18-2.9-10.71-.5-.88-.63-1.13-.63-1.26,0-.5.5-1.01,1.26-1.01s.76.25,1.39,1.01c3.28,4.66,4.66,8.57,4.66,14.36,0,3.53-.38,7.06-.38,10.58,0,2.77,1.13,6.8,1.13,10.21,0,3.78-1.39,7.06-7.31,7.43-.5-.25-.76-1.01-.76-1.76,0-1.64.76-3.65.76-4.16,0-5.29-4.28-9.58-9.7-9.58-1.26,0-1.51,7.18-1.51,10.08,0,6.8,2.77,13.23,2.77,20.04,0,5.54-1.39,12.1-7.43,13.73-1.01.25-3.91.88-23.31.88-1.89,0-4.41-1.01-6.3-1.89-6.8-3.4-7.69-10.71-7.69-17.64,0-11.47,5.67-21.3,9.95-31.75Z"/><path class="cls-2" d="m142.8,42.05c19.78,0,32.38,18.9,32.38,37.17v.76c-.38,20.16-15.12,31-32.26,31h-1.76c-17.26,0-31.5-10.58-31.5-30.87s11.47-38.05,33.14-38.05Zm-.5,60.86c2.39,0,4.03-2.02,4.03-4.28.13-7.06-.13-13.1,1.64-18.4l.5-1.51c2.14-6.05,4.79-13.61,4.79-18.65-.13-6.17-3.65-15.25-10.96-15.25-2.77,0-6.55,3.02-6.05,5.8,1.51,7.31,2.39,9.95,2.39,18.02v.63c0,7.31-3.65,14.11-3.65,21.42,0,4.79,1.01,12.22,7.31,12.22Z"/><path class="cls-2" d="m213.36,42.05c19.78,0,32.38,18.9,32.38,37.17v.76c-.38,20.16-15.12,31-32.26,31h-1.76c-17.26,0-31.5-10.58-31.5-30.87s11.47-38.05,33.14-38.05Zm-.5,60.86c2.39,0,4.03-2.02,4.03-4.28.13-7.06-.13-13.1,1.64-18.4l.5-1.51c2.14-6.05,4.79-13.61,4.79-18.65-.13-6.17-3.65-15.25-10.96-15.25-2.77,0-6.55,3.02-6.05,5.8,1.51,7.31,2.39,9.95,2.39,18.02v.63c0,7.31-3.65,14.11-3.65,21.42,0,4.79,1.01,12.22,7.31,12.22Z"/><path class="cls-2" d="m282.66,108.96c-2.9,2.65-7.18,2.9-10.84,2.9-16.38,0-21.04-16.63-21.04-31.5,0-12.22,5.29-35.91,25.2-38.05.5,0,1.13-.13,1.64-.13,5.92,0,11.97,3.65,17.01,6.93,0-4.16-1.26-8.82-2.65-12.6-4.03-10.21-8.44-14.11-17.89-14.24-.76,0-.76-.88-.76-1.01,0-.76,1.51-.88,2.9-.88h10.71c2.9,0,6.68,0,8.95.88,3.15,1.26,4.91,3.53,7.18,5.92,8.19,8.82,11.97,20.67,11.97,32.76,0,6.55-1.51,13.23-1.51,19.91,0,4.91,1.26,8.44,3.4,12.85,1.01,2.14,1.01,4.91,1.01,7.18,0,9.58-5.29,12.22-14.49,12.22h-.76c-5.92,0-12.6-2.27-14.49-8.32l-5.54,5.17Zm1.13-14.74c1.13,0,2.14-.63,3.15-1.01.25-5.8-.13-10.21,2.52-15.37,2.65-5.04,5.04-12.22,5.04-18.14,0-6.3-2.65-11.21-10.71-11.21s-12.22,5.04-12.22,12.85c0,3.4.63,5.04,1.51,8.44.5,2.39,1.89,8.44,1.89,8.69.88,10.33,1.51,15.75,8.82,15.75Z"/><path class="cls-2" d="m323.74,43.82c-.5-.13-.76,0-.76-1.26,0-.63.63-.76.88-.76h13.48c1.51,0,2.14,0,2.52.38,7.69,6.93,11.47,13.99,11.47,24.19v6.68c0,4.41-.25,8.82-.25,13.1,0,4.91,2.14,8.95,2.14,13.74,0,6.17-3.53,11.34-10.21,11.34h-12.35c-4.92,0-6.93-5.04-6.93-10.46,0-18.65,8.95-24.57,9.45-41.71,0-5.67-1.13-13.61-9.45-15.25Zm12.22-23.82c5.29,0,8.95,4.66,8.95,9.58,0,2.65-1.39,5.04-4.28,5.04-1.51,0-2.77-.63-4.28-.63-2.27,0-4.28,2.14-6.43,2.14-3.15-.13-4.79-4.41-4.79-7.06,0-6.55,4.79-9.07,10.84-9.07Z"/><path class="cls-2" d="m358.26,81.49c0-4.28.76-8.69,2.39-12.98,6.43-16.63,20.41-27.22,39.06-27.22,12.47,0,27.34,9.83,27.34,23.44,0,3.91-1.76,6.68-5.8,6.68s-7.43-2.27-11.59-2.27c-6.93,0-18.4,7.94-21.55,13.99-1.26,2.39-1.89,4.66-1.89,7.31,0,6.68,6.05,12.47,12.47,12.47,12.47,0,22.05-9.58,26.46-20.41,1.13-2.77,1.39-4.66,2.14-7.81.13-.25.25-.5.5-.5.13,0,.38.13.38.63,0,12.98-7.18,25.33-18.52,31.75-5.92,3.4-12.35,4.66-19.4,4.66-12.48,0-22.43-2.02-28.35-13.99-2.39-4.79-3.65-10.08-3.65-15.75Zm28.23-2.65c4.54-4.79,7.81-6.8,10.71-9.32,4.16-3.65,8.57-10.21,8.57-16.13,0-4.66-3.65-8.82-8.82-8.82-8.82,0-11.97,9.7-11.97,16.63,0,5.42.76,10.58,1.51,17.64Z"/></g></svg>