<?xml version="1.0" encoding="UTF-8"?><svg id="Layer_2" xmlns="http://www.w3.org/2000/svg" viewBox="0 0 1920 1354.23"><defs><style>.cls-1{fill:#ba0c2f;}.cls-2{fill:#b6e1f2;}</style></defs><g id="Layer_3"><polygon class="cls-2" points="1352 223.25 0 146.13 0 300.36 1352 223.25"/><polygon class="cls-2" points="1352 525.25 0 448.13 0 602.36 1352 525.25"/><polygon class="cls-2" points="1352 827.25 0 750.13 0 904.36 1352 827.25"/><polygon class="cls-2" points="1352 1129.25 0 1052.13 0 1206.36 1352 1129.25"/><polygon class="cls-1" points="568 77.12 1920 0 1920 154.23 568 77.12"/><polygon class="cls-1" points="568 377.12 1920 300 1920 454.23 568 377.12"/><polygon class="cls-1" points="568 677.12 1920 600 1920 754.23 568 677.12"/><polygon class="cls-1" points="568 977.12 1920 900 1920 1054.23 568 977.12"/><polygon class="cls-1" points="568 1277.12 1920 1200 1920 1354.23 568 1277.12"/></g></svg>