<?xml version="1.0" encoding="UTF-8"?><svg id="Layer_2" xmlns="http://www.w3.org/2000/svg" viewBox="0 0 71.75 39.2"><g id="exported_-_is"><path d="m7.8,38.55H.75V11.4h7.05v27.15Zm-6.05-1h5.05V12.4H1.75v25.15Zm2.5-29.1c-1.16,0-2.17-.38-2.99-1.13-.84-.76-1.26-1.79-1.26-3.07S.42,1.89,1.26,1.13c.82-.75,1.83-1.13,2.99-1.13s2.11.38,2.94,1.13c.84.76,1.26,1.81,1.26,3.12s-.42,2.31-1.26,3.07c-.82.75-1.81,1.13-2.94,1.13Zm0-7.45c-.91,0-1.67.28-2.31.87-.63.57-.94,1.35-.94,2.38s.31,1.76.94,2.33c.64.59,1.4.87,2.31.87s1.62-.28,2.26-.87c.63-.57.94-1.33.94-2.33s-.31-1.81-.94-2.38c-.64-.59-1.38-.87-2.26-.87Z"/><path d="m21.5,39.2c-2.33,0-4.25-.2-5.68-.59-1.44-.39-2.42-.7-3.01-.95l-.38-.16,1.26-6.04.56.23c.88.36,1.94.71,3.16,1.03,1.2.32,2.6.48,4.15.48s2.61-.17,3.27-.52c.57-.3.83-.78.83-1.53,0-.7-.32-1.27-.97-1.74-.75-.54-2.01-1.14-3.76-1.79-1.1-.4-2.13-.83-3.07-1.29-.95-.47-1.79-1.02-2.49-1.65-.72-.65-1.29-1.43-1.7-2.34-.41-.91-.62-2.03-.62-3.33,0-2.55.96-4.59,2.84-6.07,1.85-1.45,4.38-2.18,7.51-2.18,1.56,0,3.07.15,4.5.43,1.42.29,2.5.57,3.23.85l.41.15-1.33,5.92-.56-.25c-.64-.29-1.46-.55-2.46-.79-.99-.24-2.16-.36-3.48-.36-1.14,0-2.07.19-2.76.56-.61.33-.89.8-.89,1.49,0,.36.06.68.18.94.12.26.33.5.62.73.34.26.79.53,1.36.79.59.28,1.31.56,2.15.85,1.46.54,2.7,1.08,3.72,1.6,1.04.54,1.92,1.16,2.6,1.84.7.7,1.22,1.51,1.54,2.41.32.88.48,1.95.48,3.17,0,2.66-1.01,4.71-2.99,6.09-1.93,1.34-4.69,2.01-8.21,2.01Zm-7.92-2.31c.57.2,1.41.46,2.51.76,1.35.37,3.17.56,5.42.56,3.31,0,5.88-.62,7.64-1.84,1.72-1.19,2.56-2.92,2.56-5.26,0-1.1-.14-2.06-.42-2.83-.27-.76-.71-1.45-1.31-2.04-.61-.61-1.4-1.17-2.35-1.66-.98-.5-2.19-1.03-3.6-1.55-.86-.3-1.62-.6-2.24-.89-.63-.3-1.15-.6-1.54-.91-.43-.33-.74-.71-.92-1.12-.18-.39-.27-.85-.27-1.35,0-1.04.49-1.86,1.41-2.37.84-.46,1.93-.69,3.24-.69,1.4,0,2.65.13,3.72.39.79.19,1.48.4,2.07.62l.87-3.89c-.66-.21-1.55-.43-2.66-.66-1.36-.28-2.81-.42-4.3-.42-2.91,0-5.22.66-6.89,1.97-1.65,1.3-2.46,3.02-2.46,5.28,0,1.16.18,2.14.53,2.92.35.78.84,1.46,1.45,2.01.63.57,1.39,1.07,2.26,1.5.91.44,1.91.87,2.98,1.25,1.86.69,3.17,1.32,4,1.92.92.66,1.38,1.52,1.38,2.55,0,1.11-.47,1.95-1.37,2.42-.81.42-2.04.63-3.73.63s-3.12-.17-4.4-.52c-1.01-.27-1.93-.56-2.73-.85l-.84,4.05Z"/><path d="m40.65,39.2c-1.26,0-2.34-.42-3.2-1.24-.87-.83-1.3-1.91-1.3-3.21s.44-2.39,1.3-3.23c.86-.84,1.94-1.27,3.2-1.27s2.29.42,3.17,1.26c.88.85,1.33,1.93,1.33,3.24s-.45,2.39-1.33,3.21c-.88.82-1.94,1.23-3.17,1.23Zm0-7.95c-1.01,0-1.83.32-2.5.98-.67.66-1,1.48-1,2.52s.33,1.85,1,2.49c.68.65,1.5.96,2.5.96s1.79-.32,2.48-.96c.68-.64,1.02-1.45,1.02-2.48s-.33-1.86-1.02-2.51c-.69-.66-1.5-.99-2.48-.99Z"/><path d="m53.95,39.2c-1.26,0-2.34-.42-3.2-1.24-.87-.83-1.3-1.91-1.3-3.21s.44-2.39,1.3-3.23c.86-.84,1.94-1.27,3.2-1.27s2.29.42,3.17,1.26c.88.85,1.33,1.93,1.33,3.24s-.45,2.39-1.33,3.21c-.88.82-1.94,1.23-3.17,1.23Zm0-7.95c-1.01,0-1.83.32-2.5.98-.67.66-1,1.48-1,2.52s.33,1.85,1,2.49c.68.65,1.5.96,2.5.96s1.79-.32,2.48-.96c.68-.64,1.02-1.45,1.02-2.48s-.33-1.86-1.02-2.51c-.69-.66-1.5-.99-2.48-.99Z"/><path d="m67.25,39.2c-1.26,0-2.34-.42-3.2-1.24-.87-.83-1.3-1.91-1.3-3.21s.44-2.39,1.3-3.23c.86-.84,1.94-1.27,3.2-1.27s2.29.42,3.17,1.26c.88.85,1.33,1.93,1.33,3.24s-.45,2.39-1.33,3.21c-.88.82-1.94,1.23-3.17,1.23Zm0-7.95c-1.01,0-1.83.32-2.5.98-.67.66-1,1.48-1,2.52s.33,1.85,1,2.49c.68.65,1.5.96,2.5.96s1.79-.32,2.48-.96c.68-.64,1.02-1.45,1.02-2.48s-.33-1.86-1.02-2.51c-.69-.66-1.5-.99-2.48-.99Z"/></g></svg>