<?xml version="1.0" encoding="UTF-8"?><svg id="Layer_2" xmlns="http://www.w3.org/2000/svg" viewBox="0 0 1494 87.72"><defs><style>.cls-1{fill:#fff;}</style></defs><g id="exported"><path d="m478.24,0h3.84v83.88h-3.84V0Zm7.92,83.88V0h33.24c2.08,0,4.5.1,7.26.3,2.76.2,5.58.62,8.46,1.26,2.88.64,5.7,1.56,8.46,2.76,2.76,1.2,5.24,2.82,7.44,4.86,2.2,2.04,3.96,4.56,5.28,7.56,1.32,3,1.98,6.58,1.98,10.74,0,2.8-.38,5.28-1.14,7.44-.76,2.16-1.72,4.06-2.88,5.7-1.16,1.64-2.46,3.02-3.9,4.14-1.44,1.12-2.8,2-4.08,2.64.88.64,1.84,1.44,2.88,2.4,1.04.96,2,2.1,2.88,3.42.88,1.32,1.6,2.86,2.16,4.62.56,1.76.84,3.76.84,6,0,4.24-1.02,7.68-3.06,10.32-2.04,2.64-4.62,4.72-7.74,6.24-3.12,1.52-6.56,2.56-10.32,3.12-3.76.56-7.36.84-10.8.84h-1.8c-.56,0-1.16-.04-1.8-.12l-4.68-.36h-28.68Zm29.16-79.8v75.72c1.52.32,3.04.56,4.56.72,1.52.16,3.12.24,4.8.24,3.04,0,6.12-.28,9.24-.84,3.12-.56,5.94-1.5,8.46-2.82,2.52-1.32,4.58-3.06,6.18-5.22,1.6-2.16,2.4-4.88,2.4-8.16,0-2.72-.44-5.02-1.32-6.9-.88-1.88-1.86-3.38-2.94-4.5-1.08-1.12-2.1-1.94-3.06-2.46-.96-.52-1.56-.82-1.8-.9-.8.16-1.68.3-2.64.42-.96.12-1.8.18-2.52.18-1.04,0-2.22-.08-3.54-.24-1.32-.16-2.58-.46-3.78-.9-1.2-.44-2.22-1-3.06-1.68-.84-.68-1.26-1.58-1.26-2.7,0-.24.1-.52.3-.84.2-.32.54-.48,1.02-.48.32,0,.82.16,1.5.48.68.32,1.5.66,2.46,1.02.96.36,2.06.68,3.3.96,1.24.28,2.54.42,3.9.42.48,0,1.62-.12,3.42-.36s3.68-.96,5.64-2.16c1.96-1.2,3.72-3.02,5.28-5.46,1.56-2.44,2.34-5.82,2.34-10.14,0-5.36-1.28-9.6-3.84-12.72-2.56-3.12-5.68-5.48-9.36-7.08-3.68-1.6-7.5-2.6-11.46-3-3.96-.4-7.34-.6-10.14-.6h-4.08Z"/><path d="m563.44,54.12c0-7.52,2.04-14.12,6.12-19.8v38.52c-1.92-2.64-3.42-5.54-4.5-8.7-1.08-3.16-1.62-6.5-1.62-10.02Zm61.08,12.96c.4-.64,1-.96,1.8-.96.64,0,1.22.26,1.74.78.52.52.78,1.14.78,1.86,0,.24-.08.6-.24,1.08-3.36,5.44-7.8,9.72-13.32,12.84-5.52,3.12-11.44,4.68-17.76,4.68-4.56,0-8.9-.86-13.02-2.58-4.12-1.72-7.74-4.1-10.86-7.14V29.52c3.12-3.04,6.8-5.44,11.04-7.2,4.24-1.76,8.84-2.64,13.8-2.64,2.64,0,5.32.36,8.04,1.08,2.72.72,5.24,1.8,7.56,3.24,5.36,3.36,9.32,7.36,11.88,12,2.56,4.64,4.08,10.44,4.56,17.4-.08,1.2-.8,1.88-2.16,2.04h-38.28v26.88c2.16.56,4.52.84,7.08.84,5.68,0,10.9-1.46,15.66-4.38,4.76-2.92,8.66-6.82,11.7-11.7Zm-27.48-43.8c-2.4.16-4.72.52-6.96,1.08v27h16.8v-26.4c-1.6-.64-3.22-1.08-4.86-1.32-1.64-.24-3.3-.36-4.98-.36Z"/><path d="m638.92,54.12c0-3.76.52-7.28,1.56-10.56,1.04-3.28,2.52-6.32,4.44-9.12v38.04c-1.84-2.56-3.3-5.38-4.38-8.46-1.08-3.08-1.62-6.38-1.62-9.9Zm61.2-17.4c-.4.24-.72.36-.96.36-.64,0-1.2-.36-1.68-1.08-.48-.72-1.04-1.44-1.68-2.16-2.72-3.44-6.14-6.06-10.26-7.86-4.12-1.8-8.34-2.7-12.66-2.7-.48,0-.96.02-1.44.06-.48.04-1.04.1-1.68.18v59.4c.48.08.96.12,1.44.12h1.44c2.8,0,5.54-.42,8.22-1.26,2.68-.84,5.18-2,7.5-3.48,2.32-1.48,4.44-3.24,6.36-5.28s3.52-4.26,4.8-6.66c.32-.64.92-.96,1.8-.96.64,0,1.22.26,1.74.78.52.52.78,1.14.78,1.86,0,.24-.08.6-.24,1.08-3.36,5.44-7.72,9.72-13.08,12.84-5.36,3.12-11.2,4.68-17.52,4.68-4.56,0-8.92-.84-13.08-2.52-4.16-1.68-7.8-4-10.92-6.96V29.64c3.12-3.04,6.8-5.46,11.04-7.26,4.24-1.8,8.88-2.7,13.92-2.7,2.56,0,5.16.3,7.8.9,2.64.6,5.4,1.66,8.28,3.18,1.2.64,2.46,1.4,3.78,2.28,1.32.88,2.52,1.8,3.6,2.76,1.08.96,1.98,1.94,2.7,2.94.72,1,1.08,1.94,1.08,2.82,0,.96-.36,1.68-1.08,2.16Z"/><path d="m709.96,64.68c0-3.28.56-6.2,1.68-8.76,1.12-2.56,2.64-4.8,4.56-6.72v30.96c-2-2-3.54-4.3-4.62-6.9-1.08-2.6-1.62-5.46-1.62-8.58Zm12.72-30.96c-.64.48-1.16.72-1.56.72-.64,0-1.3-.38-1.98-1.14-.68-.76-1.02-1.5-1.02-2.22,0-.56.24-1.04.72-1.44,4.96-4.16,10.2-6.96,15.72-8.4,5.52-1.44,11.36-2.16,17.52-2.16,1.92,0,4.22.06,6.9.18,2.68.12,5.42.48,8.22,1.08,2.8.6,5.48,1.52,8.04,2.76,2.56,1.24,4.68,2.98,6.36,5.22,1.84,2.56,2.94,5.28,3.3,8.16s.54,5.8.54,8.76v28.08c0,2.64.3,4.74.9,6.3.6,1.56.9,2.58.9,3.06,0,.4-.1.66-.3.78-.2.12-.42.26-.66.42-.32.16-.6.24-.84.24h-28.56v-6.96c-2.88,2.64-6.14,4.98-9.78,7.02-3.64,2.04-7.82,3.06-12.54,3.06-2.72,0-5.28-.34-7.68-1.02-2.4-.68-4.6-1.62-6.6-2.82v-37.44c2.48-1.6,5.16-2.78,8.04-3.54,2.88-.76,5.84-1.14,8.88-1.14,3.6,0,7.08.44,10.44,1.32,3.36.88,6.44,2.24,9.24,4.08v-18.24c-.24-.8-.78-1.54-1.62-2.22-.84-.68-1.84-1.26-3-1.74-1.16-.48-2.42-.84-3.78-1.08-1.36-.24-2.72-.36-4.08-.36-4.56,0-8.5.92-11.82,2.76-3.32,1.84-6.62,4.48-9.9,7.92Zm19.44,48.48c3.04-.96,5.72-2.38,8.04-4.26,2.32-1.88,4.56-3.98,6.72-6.3v-19.68c-2.48-2.08-5.34-3.68-8.58-4.8-3.24-1.12-6.54-1.76-9.9-1.92v37.92c.64-.16,1.26-.32,1.86-.48.6-.16,1.22-.32,1.86-.48Z"/><path d="m801.64,20.28h3.84v57.72c-1.2-1.44-2.14-3.1-2.82-4.98-.68-1.88-1.02-3.98-1.02-6.3V20.28Zm28.56,59.76c3.92-.88,7.68-2.4,11.28-4.56,3.6-2.16,6.64-4.8,9.12-7.92V20.28h28.56v63.6h-28.56v-10.44c-3.68,3.52-8,6.34-12.96,8.46-4.96,2.12-9.92,3.18-14.88,3.18-2.32,0-4.64-.3-6.96-.9-2.32-.6-4.4-1.5-6.24-2.7V20.28h20.64v59.76Z"/><path d="m891.76,39c0-4.4,1.48-8.32,4.44-11.76-.4,1.12-.66,2.24-.78,3.36-.12,1.12-.18,2.28-.18,3.48,0,3.12.52,6.22,1.56,9.3,1.04,3.08,2.56,5.78,4.56,8.1,3.68,3.92,6.96,7.48,9.84,10.68,1.2,1.36,2.4,2.7,3.6,4.02,1.2,1.32,2.28,2.5,3.24,3.54.96,1.04,1.74,1.88,2.34,2.52.6.64.94,1,1.02,1.08,2.32,2.32,3.48,5.04,3.48,8.16,0,2.16-.64,4.12-1.92,5.88-.64.16-1.28.26-1.92.3-.64.04-1.28.06-1.92.06h-2.04c-4.72,0-9.32-.86-13.8-2.58-4.48-1.72-8.32-4.22-11.52-7.5-.4-.4-.6-.92-.6-1.56,0-1.28.64-1.92,1.92-1.92.64,0,1.24.2,1.8.6,2.56,2.64,5.62,4.7,9.18,6.18,3.56,1.48,7.26,2.34,11.1,2.58,1.68-.08,3.04-.32,4.08-.72,1.04-.4,1.56-1.08,1.56-2.04,0-.72-.28-1.38-.84-1.98-.56-.6-1-1.1-1.32-1.5-.16-.08-.56-.5-1.2-1.26-.64-.76-1.48-1.72-2.52-2.88-1.04-1.16-2.18-2.46-3.42-3.9-1.24-1.44-2.5-2.88-3.78-4.32-3.04-3.44-6.48-7.32-10.32-11.64-1.92-2.24-3.34-4.62-4.26-7.14-.92-2.52-1.38-4.9-1.38-7.14Zm48.48-12.36c.24.48.36.92.36,1.32,0,.64-.2,1.14-.6,1.5-.4.36-.88.54-1.44.54s-1.04-.16-1.44-.48c-2.32-2.32-5.18-4.04-8.58-5.16-3.4-1.12-6.86-1.68-10.38-1.68h-1.32c-.72,0-1.4.1-2.04.3-.64.2-.96.74-.96,1.62s.32,2.02.96,3.42c.64,1.4,1.6,2.86,2.88,4.38.56.72,1.6,1.9,3.12,3.54,1.52,1.64,3.06,3.3,4.62,4.98,1.56,1.68,3.58,3.84,6.06,6.48,1.36,1.44,2.46,2.62,3.3,3.54.84.92,1.62,1.76,2.34,2.52.72.76,1.16,1.22,1.32,1.38,1.36,1.36,2.42,3.16,3.18,5.4.76,2.24,1.14,4.4,1.14,6.48s-.38,4.24-1.14,6.24c-.76,2-1.82,3.84-3.18,5.52-1.36,1.68-2.94,3.16-4.74,4.44-1.8,1.28-3.78,2.32-5.94,3.12.96-1.44,1.44-3.04,1.44-4.8,0-1.92-.46-3.82-1.38-5.7-.92-1.88-2.02-3.5-3.3-4.86-.08-.08-.42-.44-1.02-1.08-.6-.64-1.36-1.46-2.28-2.46-.92-1-1.94-2.12-3.06-3.36-1.12-1.24-2.28-2.54-3.48-3.9-2.8-3.12-5.92-6.6-9.36-10.44-2.08-2.64-3.64-5.4-4.68-8.28-1.04-2.88-1.56-5.72-1.56-8.52,0-3.92.96-7.32,2.88-10.2,2-1.04,4.48-1.98,7.44-2.82,2.96-.84,5.8-1.26,8.52-1.26,4.08,0,8.12.68,12.12,2.04,4,1.36,7.4,3.44,10.2,6.24Z"/><path d="m951.28,54.12c0-7.52,2.04-14.12,6.12-19.8v38.52c-1.92-2.64-3.42-5.54-4.5-8.7-1.08-3.16-1.62-6.5-1.62-10.02Zm61.08,12.96c.4-.64,1-.96,1.8-.96.64,0,1.22.26,1.74.78.52.52.78,1.14.78,1.86,0,.24-.08.6-.24,1.08-3.36,5.44-7.8,9.72-13.32,12.84-5.52,3.12-11.44,4.68-17.76,4.68-4.56,0-8.9-.86-13.02-2.58-4.12-1.72-7.74-4.1-10.86-7.14V29.52c3.12-3.04,6.8-5.44,11.04-7.2,4.24-1.76,8.84-2.64,13.8-2.64,2.64,0,5.32.36,8.04,1.08,2.72.72,5.24,1.8,7.56,3.24,5.36,3.36,9.32,7.36,11.88,12,2.56,4.64,4.08,10.44,4.56,17.4-.08,1.2-.8,1.88-2.16,2.04h-38.28v26.88c2.16.56,4.52.84,7.08.84,5.68,0,10.9-1.46,15.66-4.38,4.76-2.92,8.66-6.82,11.7-11.7Zm-27.48-43.8c-2.4.16-4.72.52-6.96,1.08v27h16.8v-26.4c-1.6-.64-3.22-1.08-4.86-1.32-1.64-.24-3.3-.36-4.98-.36Z"/><rect class="cls-1" y=".55" width="451" height="12"/><rect class="cls-1" y="34.55" width="451" height="12"/><rect class="cls-1" y="68.55" width="451" height="12"/><rect class="cls-1" x="1043" y=".55" width="451" height="12"/><rect class="cls-1" x="1043" y="34.55" width="451" height="12"/><rect class="cls-1" x="1043" y="68.55" width="451" height="12"/></g></svg>