<?xml version="1.0" encoding="UTF-8"?><svg id="Layer_2" xmlns="http://www.w3.org/2000/svg" xmlns:xlink="http://www.w3.org/1999/xlink" viewBox="0 0 540.07 137.11"><defs><style>.cls-1{fill:none;}.cls-2{clip-path:url(#clippath);}.cls-3{fill:#fff;}.cls-4{fill:#ba0c2f;}.cls-5{fill:#231f20;}.cls-6{fill:#1a1a1a;}.cls-7{clip-path:url(#clippath-1);}.cls-8{clip-path:url(#clippath-4);}.cls-9{clip-path:url(#clippath-3);}.cls-10{clip-path:url(#clippath-2);}.cls-11{clip-path:url(#clippath-7);}.cls-12{clip-path:url(#clippath-8);}.cls-13{clip-path:url(#clippath-6);}.cls-14{clip-path:url(#clippath-5);}.cls-15{clip-path:url(#clippath-9);}.cls-16{clip-path:url(#clippath-60);}.cls-17{clip-path:url(#clippath-20);}.cls-18{clip-path:url(#clippath-21);}.cls-19{clip-path:url(#clippath-24);}.cls-20{clip-path:url(#clippath-23);}.cls-21{clip-path:url(#clippath-22);}.cls-22{clip-path:url(#clippath-25);}.cls-23{clip-path:url(#clippath-44);}.cls-24{clip-path:url(#clippath-45);}.cls-25{clip-path:url(#clippath-40);}.cls-26{clip-path:url(#clippath-42);}.cls-27{clip-path:url(#clippath-41);}.cls-28{clip-path:url(#clippath-47);}.cls-29{clip-path:url(#clippath-43);}.cls-30{clip-path:url(#clippath-46);}.cls-31{clip-path:url(#clippath-48);}.cls-32{clip-path:url(#clippath-49);}.cls-33{clip-path:url(#clippath-27);}.cls-34{clip-path:url(#clippath-28);}.cls-35{clip-path:url(#clippath-26);}.cls-36{clip-path:url(#clippath-29);}.cls-37{clip-path:url(#clippath-34);}.cls-38{clip-path:url(#clippath-35);}.cls-39{clip-path:url(#clippath-36);}.cls-40{clip-path:url(#clippath-37);}.cls-41{clip-path:url(#clippath-39);}.cls-42{clip-path:url(#clippath-33);}.cls-43{clip-path:url(#clippath-32);}.cls-44{clip-path:url(#clippath-30);}.cls-45{clip-path:url(#clippath-38);}.cls-46{clip-path:url(#clippath-31);}.cls-47{clip-path:url(#clippath-53);}.cls-48{clip-path:url(#clippath-54);}.cls-49{clip-path:url(#clippath-50);}.cls-50{clip-path:url(#clippath-51);}.cls-51{clip-path:url(#clippath-52);}.cls-52{clip-path:url(#clippath-55);}.cls-53{clip-path:url(#clippath-56);}.cls-54{clip-path:url(#clippath-57);}.cls-55{clip-path:url(#clippath-58);}.cls-56{clip-path:url(#clippath-61);}.cls-57{clip-path:url(#clippath-64);}.cls-58{clip-path:url(#clippath-62);}.cls-59{clip-path:url(#clippath-67);}.cls-60{clip-path:url(#clippath-59);}.cls-61{clip-path:url(#clippath-65);}.cls-62{clip-path:url(#clippath-63);}.cls-63{clip-path:url(#clippath-66);}.cls-64{clip-path:url(#clippath-14);}.cls-65{clip-path:url(#clippath-13);}.cls-66{clip-path:url(#clippath-12);}.cls-67{clip-path:url(#clippath-10);}.cls-68{clip-path:url(#clippath-15);}.cls-69{clip-path:url(#clippath-17);}.cls-70{clip-path:url(#clippath-16);}.cls-71{clip-path:url(#clippath-19);}.cls-72{clip-path:url(#clippath-11);}.cls-73{clip-path:url(#clippath-18);}</style><clipPath id="clippath"><path class="cls-1" d="m69.4,135.61c-9.22,0-18.05-1.8-26.25-5.36-8.03-3.48-15.23-8.25-21.39-14.18-6.23-5.99-11.21-13.12-14.8-21.19-3.63-8.17-5.47-17-5.47-26.25s1.87-18.14,5.56-26.36c3.63-8.09,8.62-15.25,14.83-21.28,6.19-6.02,13.49-10.81,21.67-14.25,8.27-3.47,17.17-5.24,26.45-5.24s17.91,1.62,25.79,4.8c7.93,3.21,15.07,7.95,21.21,14.1,1.48,1.48,3.13,3.24,4.92,5.25,3.37,3.78,5.07,7.7,5.07,11.65,0,2.31-.68,4.55-2.09,6.84-2.22,3.61-6.15,5.77-10.52,5.77-2.21,0-4.37-.57-6.42-1.69-2.54-1.39-4.05-3.21-4.92-4.69-3.37-5.21-7.77-9.21-13.45-12.21-4.94-2.61-10.27-4.09-16.2-4.49v83.42c3.36-.24,6.51-.78,9.42-1.62,3.98-1.15,7.61-2.79,10.79-4.89,3.23-2.12,6.1-4.66,8.53-7.55,2.38-2.82,4.32-6.03,5.75-9.54l.14-.34.16-.33c.59-1.18,1.4-2.29,2.49-3.38.79-.79,1.68-1.48,2.64-2.06,1.78-1.08,3.91-1.64,6.28-1.64,4.08,0,7.7,1.83,9.94,5.01,1.56,2.23,2.36,4.74,2.36,7.3,0,.65-.05,1.29-.15,1.92v1.35l-.8,1.88c-2.41,5.65-5.6,10.95-9.5,15.75-3.97,4.89-8.71,9.13-14.07,12.61-5.28,3.42-11.18,6.12-17.54,8.02-6.39,1.91-13.27,2.88-20.45,2.88Z"/></clipPath><clipPath id="clippath-1"><rect class="cls-1" x="109.52" y="-39.6" width="56.69" height="56.69"/></clipPath><clipPath id="clippath-2"><rect class="cls-1" x="109.52" y="17.09" width="56.69" height="56.69"/></clipPath><clipPath id="clippath-3"><rect class="cls-1" x="109.52" y="73.78" width="56.69" height="56.69"/></clipPath><clipPath id="clippath-4"><rect class="cls-1" x="109.52" y="130.48" width="56.69" height="56.69"/></clipPath><clipPath id="clippath-5"><rect class="cls-1" x="52.83" y="-39.6" width="56.69" height="56.69"/></clipPath><clipPath id="clippath-6"><rect class="cls-1" x="52.83" y="17.09" width="56.69" height="56.69"/></clipPath><clipPath id="clippath-7"><rect class="cls-1" x="52.83" y="73.78" width="56.69" height="56.69"/></clipPath><clipPath id="clippath-8"><rect class="cls-1" x="52.83" y="130.48" width="56.69" height="56.69"/></clipPath><clipPath id="clippath-9"><rect class="cls-1" x="-3.86" y="-39.6" width="56.69" height="56.69"/></clipPath><clipPath id="clippath-10"><rect class="cls-1" x="-3.86" y="17.09" width="56.69" height="56.69"/></clipPath><clipPath id="clippath-11"><rect class="cls-1" x="-3.86" y="73.78" width="56.69" height="56.69"/></clipPath><clipPath id="clippath-12"><rect class="cls-1" x="-3.86" y="130.48" width="56.69" height="56.69"/></clipPath><clipPath id="clippath-13"><path class="cls-1" d="m123.34,131.47V58.47h41.51c2.97-1.26,6.07-1.9,9.29-1.9,1.23,0,2.53.12,3.86.35,1.61.28,3.13.75,4.54,1.38,2.1.94,3.88,2.31,5.3,4.05,1.9,2.35,2.9,5.22,2.9,8.32,0,3.67-1.46,7.07-4.11,9.59-2.52,2.39-5.85,3.71-9.39,3.71-1.88,0-3.76-.44-5.85-1.37-.49.26-.99.63-1.48,1.08-.71.65-1.33,1.38-1.91,2.23-.3.45-.59.9-.86,1.37v44.19h-43.8Z"/></clipPath><clipPath id="clippath-14"><rect class="cls-1" x="166.21" y="17.09" width="56.69" height="56.69"/></clipPath><clipPath id="clippath-15"><rect class="cls-1" x="166.21" y="73.78" width="56.69" height="56.69"/></clipPath><clipPath id="clippath-16"><rect class="cls-1" x="166.21" y="130.48" width="56.69" height="56.69"/></clipPath><clipPath id="clippath-17"><rect class="cls-1" x="109.52" y="17.09" width="56.69" height="56.69"/></clipPath><clipPath id="clippath-18"><rect class="cls-1" x="109.52" y="73.78" width="56.69" height="56.69"/></clipPath><clipPath id="clippath-19"><rect class="cls-1" x="109.52" y="130.48" width="56.69" height="56.69"/></clipPath><clipPath id="clippath-20"><path class="cls-1" d="m210.34,134.37c-5.04,0-9.96-.98-14.6-2.92-4.56-1.9-8.64-4.57-12.13-7.92-3.48-3.35-6.31-7.32-8.39-11.79-2.18-4.68-3.28-9.75-3.28-15.07s1.03-10.55,3.06-15.29c2.01-4.7,4.84-8.85,8.41-12.32,3.53-3.44,7.7-6.18,12.4-8.12,4.74-1.97,9.9-2.96,15.33-2.96,3.05,0,6.17.42,9.26,1.23,3.21.85,6.24,2.15,9.01,3.87,5.94,3.73,10.43,8.32,13.39,13.67,2.83,5.14,4.52,11.41,5.02,18.64l.05.68-.05.68c-.18,2.6-1.12,4.92-2.63,6.75.82,1.66,1.25,3.49,1.25,5.38,0,1.31-.23,2.6-.71,4.05l-.37,1.11-.61.99c-3.68,5.96-8.62,10.72-14.69,14.15-6.1,3.45-12.73,5.19-19.72,5.19Zm3.8-24.04c1.3-.36,2.53-.9,3.72-1.63.48-.29.94-.6,1.38-.93h-5.1v2.56Z"/></clipPath><clipPath id="clippath-21"><rect class="cls-1" x="222.9" y="17.09" width="56.69" height="56.69"/></clipPath><clipPath id="clippath-22"><rect class="cls-1" x="222.9" y="73.78" width="56.69" height="56.69"/></clipPath><clipPath id="clippath-23"><rect class="cls-1" x="222.9" y="130.48" width="56.69" height="56.69"/></clipPath><clipPath id="clippath-24"><rect class="cls-1" x="166.21" y="17.09" width="56.69" height="56.69"/></clipPath><clipPath id="clippath-25"><rect class="cls-1" x="166.21" y="73.78" width="56.69" height="56.69"/></clipPath><clipPath id="clippath-26"><rect class="cls-1" x="166.21" y="130.48" width="56.69" height="56.69"/></clipPath><clipPath id="clippath-27"><rect class="cls-1" x="166.21" y="73.78" width="56.69" height="56.69"/></clipPath><clipPath id="clippath-28"><path class="cls-1" d="m265.44,134.27c-4.12,0-8.03-.68-11.64-2.03-3.69-1.38-6.97-3.36-9.73-5.87-2.84-2.58-5.1-5.7-6.69-9.25-1.61-3.58-2.43-7.5-2.43-11.64,0-4.95,1.09-9.44,3.23-13.36,1.56-2.85,3.53-5.38,5.86-7.52-1.86-2.66-2.29-5.28-2.29-7.12,0-3.41,1.52-6.65,4.18-8.87,5.25-4.4,10.97-7.43,16.99-9.01,5.4-1.41,11.16-2.12,17.12-2.12,1.75,0,3.83.05,6.2.16,2.77.12,5.63.5,8.49,1.11,3.1.66,6.11,1.7,8.96,3.08,3.58,1.74,6.59,4.21,8.95,7.35l.12.16c2.51,3.5,4.04,7.33,4.55,11.4.35,2.8.53,5.67.53,8.54v23.4c0,1.09.09,1.63.12,1.77.83,2.16,1.38,4.03,1.38,6.03,0,3.84-1.89,7.28-5.07,9.2l-.21.13-.52.35-.56.28c-1.66.83-3.39,1.24-5.15,1.24h-29.52c-3.91,1.73-8.23,2.6-12.88,2.6Z"/></clipPath><clipPath id="clippath-29"><rect class="cls-1" x="279.59" y="17.09" width="56.69" height="56.69"/></clipPath><clipPath id="clippath-30"><rect class="cls-1" x="279.59" y="73.78" width="56.69" height="56.69"/></clipPath><clipPath id="clippath-31"><rect class="cls-1" x="279.59" y="130.48" width="56.69" height="56.69"/></clipPath><clipPath id="clippath-32"><rect class="cls-1" x="222.9" y="17.09" width="56.69" height="56.69"/></clipPath><clipPath id="clippath-33"><rect class="cls-1" x="222.9" y="73.78" width="56.69" height="56.69"/></clipPath><clipPath id="clippath-34"><rect class="cls-1" x="222.9" y="130.48" width="56.69" height="56.69"/></clipPath><clipPath id="clippath-35"><path class="cls-1" d="m341.34,134.37c-5.01,0-9.41-.97-13.08-2.88-3.55-1.85-6.48-4.29-8.71-7.25-2.12-2.81-3.64-5.93-4.5-9.28-.74-2.85-1.12-5.62-1.12-8.19v-25.8c-2-.78-3.72-2.04-5.03-3.69-1.66-2.06-2.57-4.58-2.57-7.21,0-4.91,2.99-9.11,7.6-10.9v-3.13l29.33-13.37h1.47c.5-.07,1-.1,1.51-.1,1.88,0,3.71.43,5.44,1.29,3.81,1.9,6.06,5.68,6.06,10.11v4.54c2.81.44,5.25,1.73,7.08,3.77,1.95,2.17,3.02,4.94,3.02,7.79s-1.07,5.63-3.02,7.79c-1.82,2.03-4.27,3.33-7.08,3.77v18.33c1.23-.45,2.54-.69,3.9-.69,1.96,0,3.91.47,5.77,1.41,3.85,1.94,6.23,5.8,6.23,10.09,0,1.8-.41,3.57-1.21,5.28-1.38,3.11-3.33,5.91-5.79,8.32-2.31,2.27-4.98,4.17-7.91,5.67-2.69,1.36-5.53,2.43-8.47,3.18-3.04.77-6.04,1.16-8.91,1.16Z"/></clipPath><clipPath id="clippath-36"><rect class="cls-1" x="336.28" y="17.09" width="56.69" height="56.69"/></clipPath><clipPath id="clippath-37"><rect class="cls-1" x="336.28" y="73.78" width="56.69" height="56.69"/></clipPath><clipPath id="clippath-38"><rect class="cls-1" x="336.28" y="130.48" width="56.69" height="56.69"/></clipPath><clipPath id="clippath-39"><rect class="cls-1" x="279.59" y="17.09" width="56.69" height="56.69"/></clipPath><clipPath id="clippath-40"><rect class="cls-1" x="279.59" y="73.78" width="56.69" height="56.69"/></clipPath><clipPath id="clippath-41"><rect class="cls-1" x="279.59" y="130.48" width="56.69" height="56.69"/></clipPath><clipPath id="clippath-42"><path class="cls-1" d="m360.54,131.47V62.15c-.72-1.88-.9-3.61-.9-4.89,0-3.29,1.12-9.45,8.65-13.74,3.92-2.23,8.75-3.36,14.35-3.36s10.36,1.1,14.25,3.26c7.61,4.23,8.75,10.3,8.75,13.54,0,1.52-.25,3.67-1.3,5.95v68.55h-43.8Z"/></clipPath><clipPath id="clippath-43"><rect class="cls-1" x="392.98" y="17.09" width="56.69" height="56.69"/></clipPath><clipPath id="clippath-44"><rect class="cls-1" x="392.98" y="73.78" width="56.69" height="56.69"/></clipPath><clipPath id="clippath-45"><rect class="cls-1" x="392.98" y="130.48" width="56.69" height="56.69"/></clipPath><clipPath id="clippath-46"><rect class="cls-1" x="336.28" y="17.09" width="56.69" height="56.69"/></clipPath><clipPath id="clippath-47"><rect class="cls-1" x="336.28" y="73.78" width="56.69" height="56.69"/></clipPath><clipPath id="clippath-48"><rect class="cls-1" x="336.28" y="130.48" width="56.69" height="56.69"/></clipPath><clipPath id="clippath-49"><path class="cls-1" d="m437.64,132.67c-1.85,0-4.64-.46-7.47-2.68-1.55-1.21-2.79-2.75-3.66-4.48l-41.88-67.24h51.18l12.88,20.83c.94-1.57,1.88-3.17,2.81-4.78l.09-.15c.95-1.57,1.89-3.31,2.77-5.17,1.21-2.53,2.31-4.59,3.37-6.31,2.17-3.48,5.83-5.54,9.8-5.54,2.14,0,4.26.58,6.31,1.74,3.69,2.07,5.89,5.87,5.89,10.16,0,1.96-.49,3.93-1.45,5.86-.4.79-.84,1.58-1.36,2.44-.45.74-.9,1.45-1.38,2.16-.25.37-.46.71-.63,1.01-4.4,7.73-8.96,15.47-13.54,22.99-4.41,7.23-8.71,14.8-12.8,22.52l-.16.3c-1.25,2.17-3.04,3.89-5.2,4.97-1.8.9-3.67,1.36-5.57,1.36Z"/></clipPath><clipPath id="clippath-50"><rect class="cls-1" x="449.67" y="17.09" width="56.69" height="56.69"/></clipPath><clipPath id="clippath-51"><rect class="cls-1" x="449.67" y="73.78" width="56.69" height="56.69"/></clipPath><clipPath id="clippath-52"><rect class="cls-1" x="449.67" y="130.48" width="56.69" height="56.69"/></clipPath><clipPath id="clippath-53"><rect class="cls-1" x="392.98" y="17.09" width="56.69" height="56.69"/></clipPath><clipPath id="clippath-54"><rect class="cls-1" x="392.98" y="73.78" width="56.69" height="56.69"/></clipPath><clipPath id="clippath-55"><rect class="cls-1" x="392.98" y="130.48" width="56.69" height="56.69"/></clipPath><clipPath id="clippath-56"><rect class="cls-1" x="336.28" y="17.09" width="56.69" height="56.69"/></clipPath><clipPath id="clippath-57"><rect class="cls-1" x="336.28" y="73.78" width="56.69" height="56.69"/></clipPath><clipPath id="clippath-58"><rect class="cls-1" x="336.28" y="130.48" width="56.69" height="56.69"/></clipPath><clipPath id="clippath-59"><path class="cls-1" d="m501.04,134.37c-5.04,0-9.96-.98-14.6-2.92-4.56-1.9-8.64-4.57-12.13-7.92-3.48-3.35-6.31-7.32-8.39-11.79-2.18-4.68-3.28-9.75-3.28-15.07s1.03-10.55,3.06-15.29c2.01-4.7,4.84-8.85,8.41-12.32,3.53-3.44,7.7-6.18,12.4-8.12,4.74-1.97,9.9-2.96,15.33-2.96,3.05,0,6.17.42,9.26,1.23,3.21.85,6.24,2.15,9.01,3.87,5.94,3.73,10.43,8.32,13.39,13.67,2.83,5.14,4.52,11.41,5.02,18.64l.05.68-.05.68c-.18,2.6-1.12,4.92-2.63,6.75.82,1.66,1.25,3.49,1.25,5.38,0,1.31-.23,2.6-.71,4.05l-.37,1.11-.61.99c-3.68,5.96-8.62,10.72-14.69,14.15-6.1,3.45-12.74,5.19-19.72,5.19Zm3.8-24.04c1.3-.36,2.53-.9,3.72-1.63.48-.29.94-.6,1.38-.93h-5.1v2.56Z"/></clipPath><clipPath id="clippath-60"><rect class="cls-1" x="506.36" y="17.09" width="56.69" height="56.69"/></clipPath><clipPath id="clippath-61"><rect class="cls-1" x="506.36" y="73.78" width="56.69" height="56.69"/></clipPath><clipPath id="clippath-62"><rect class="cls-1" x="506.36" y="130.48" width="56.69" height="56.69"/></clipPath><clipPath id="clippath-63"><rect class="cls-1" x="449.67" y="17.09" width="56.69" height="56.69"/></clipPath><clipPath id="clippath-64"><rect class="cls-1" x="449.67" y="73.78" width="56.69" height="56.69"/></clipPath><clipPath id="clippath-65"><rect class="cls-1" x="449.67" y="130.48" width="56.69" height="56.69"/></clipPath><clipPath id="clippath-66"><rect class="cls-1" x="506.36" y="73.78" width="56.69" height="56.69"/></clipPath><clipPath id="clippath-67"><rect class="cls-1" x="449.67" y="73.78" width="56.69" height="56.69"/></clipPath></defs><g id="exported_Creative"><path class="cls-3" d="m69.4,137.11c-9.43,0-18.46-1.84-26.84-5.48-8.2-3.55-15.54-8.42-21.83-14.47-6.37-6.13-11.46-13.42-15.13-21.66-3.71-8.36-5.6-17.4-5.6-26.86s1.92-18.56,5.69-26.98c3.7-8.26,8.8-15.58,15.15-21.74,6.33-6.15,13.78-11.05,22.14-14.56C51.44,1.8,60.53,0,70.02,0s18.3,1.65,26.35,4.91c8.12,3.28,15.42,8.14,21.71,14.43,1.5,1.5,3.17,3.29,4.98,5.31,3.62,4.06,5.45,8.32,5.45,12.65,0,2.56-.78,5.13-2.31,7.63-2.5,4.06-6.9,6.48-11.8,6.48-2.47,0-4.87-.63-7.14-1.87-2.33-1.27-4.21-3.07-5.48-5.23-3.22-4.97-7.43-8.79-12.87-11.66-4.3-2.27-8.92-3.65-14-4.18v80.15c2.65-.27,5.16-.75,7.5-1.42,3.83-1.11,7.33-2.69,10.39-4.7,3.11-2.04,5.87-4.49,8.21-7.26,2.28-2.7,4.13-5.77,5.51-9.14l.35-.77c.66-1.33,1.57-2.57,2.77-3.77.87-.88,1.86-1.65,2.93-2.29,2.01-1.22,4.4-1.86,7.05-1.86,4.57,0,8.64,2.06,11.17,5.64,1.74,2.49,2.64,5.3,2.64,8.16,0,.69-.05,1.37-.15,2.04v1.54l-.92,2.16c-2.46,5.78-5.73,11.2-9.72,16.11-4.07,5.01-8.92,9.36-14.42,12.92-5.4,3.5-11.43,6.26-17.93,8.2-6.53,1.95-13.55,2.94-20.88,2.94ZM51.91,26.55s-.01,0-.02,0c-5.7,2.4-10.76,5.72-15.02,9.86-4.25,4.13-7.68,9.06-10.19,14.66-2.47,5.52-3.68,11.26-3.68,17.56s1.18,12.05,3.62,17.52c2.45,5.51,5.83,10.37,10.06,14.43,4.31,4.14,9.36,7.49,15.03,9.95l.21.09V26.55Z"/><path class="cls-3" d="m168.64,132.97h-46.8V56.97h42.71c3.07-1.26,6.27-1.9,9.59-1.9,1.31,0,2.7.12,4.11.37,1.74.31,3.38.81,4.9,1.49,2.31,1.04,4.28,2.54,5.85,4.47,2.12,2.62,3.24,5.82,3.24,9.27,0,4.08-1.62,7.88-4.57,10.68-2.8,2.66-6.5,4.12-10.43,4.12-1.87,0-3.72-.38-5.72-1.18-.2.14-.4.31-.6.49-.62.57-1.18,1.22-1.69,1.97-.21.31-.41.62-.6.94v45.28Zm-23.8-23h.8v-30h-.8v30Z"/><path class="cls-3" d="m210.34,135.87c-5.24,0-10.35-1.02-15.18-3.04-4.73-1.97-8.97-4.74-12.59-8.22-3.62-3.48-6.55-7.6-8.71-12.24-2.27-4.88-3.42-10.16-3.42-15.7s1.07-10.96,3.18-15.88c2.09-4.88,5.03-9.19,8.75-12.81,3.67-3.58,8-6.42,12.87-8.43,4.92-2.04,10.28-3.08,15.91-3.08,3.18,0,6.43.43,9.64,1.28,3.35.89,6.52,2.25,9.41,4.04,6.17,3.87,10.83,8.64,13.91,14.22,2.94,5.33,4.69,11.81,5.21,19.27l.05.78-.05.78c-.17,2.54-1.03,4.87-2.4,6.81.68,1.64,1.03,3.4,1.03,5.22,0,1.47-.25,2.91-.79,4.53l-.42,1.27-.7,1.14c-3.82,6.18-8.94,11.12-15.23,14.67-6.33,3.58-13.21,5.39-20.46,5.39Z"/><path class="cls-3" d="m265.44,135.77c-2.27,0-4.49-.2-6.64-.6l-1.66.41v-.77c-1.32-.31-2.61-.71-3.87-1.17-3.87-1.45-7.31-3.52-10.22-6.17-3-2.72-5.37-6-7.05-9.75-1.7-3.77-2.56-7.9-2.56-12.26,0-5.21,1.15-9.94,3.42-14.08,1.44-2.62,3.19-4.97,5.25-7.03-1.49-2.59-1.86-5.08-1.86-6.89,0-3.86,1.72-7.51,4.72-10.02,5.42-4.54,11.34-7.68,17.58-9.31,5.53-1.44,11.41-2.17,17.5-2.17,1.77,0,3.88.05,6.27.16,2.85.13,5.8.51,8.74,1.14,3.21.69,6.34,1.76,9.3,3.19,3.8,1.85,6.99,4.47,9.49,7.8l.14.19c2.66,3.7,4.28,7.77,4.82,12.09.36,2.86.54,5.8.54,8.72v23.4c0,.76.05,1.19.08,1.36.86,2.26,1.42,4.24,1.42,6.44,0,4.37-2.17,8.29-5.79,10.49l-.75.49-.64.32c-1.87.93-3.83,1.4-5.81,1.4h-29.21c-4.02,1.73-8.45,2.6-13.2,2.6Zm30.1-25.6h.8v-20.9c0-1.98-.12-3.95-.36-5.88-.03-.25-.11-.62-.44-1.15v27.93Zm-38.4-7.93c-.04.07-.08.13-.12.2-.39.71-.58,1.73-.58,3.02,0,1.1.18,2.03.54,2.83.05.12.11.23.16.34v-6.4Z"/><path class="cls-3" d="m341.34,135.87c-5.25,0-9.88-1.03-13.77-3.05-3.75-1.96-6.85-4.54-9.21-7.67-2.24-2.96-3.84-6.27-4.75-9.81-.77-2.97-1.16-5.86-1.16-8.57v-24.81c-1.85-.88-3.45-2.15-4.71-3.74-1.87-2.32-2.89-5.16-2.89-8.15,0-5.2,2.96-9.69,7.6-11.89v-3.11l30.5-13.9h1.7c2.6-.33,5.28.14,7.71,1.35,4.27,2.13,6.89,6.51,6.89,11.45v3.32c2.61.66,4.94,2.04,6.7,3.99,2.2,2.45,3.4,5.57,3.4,8.79s-1.21,6.36-3.4,8.79c-1.75,1.95-4.08,3.33-6.7,3.99v15.14c2.89-.55,6-.08,8.84,1.34,4.36,2.2,7.06,6.57,7.06,11.44,0,2.01-.45,4-1.35,5.9-1.45,3.28-3.51,6.22-6.11,8.77-2.42,2.37-5.21,4.37-8.28,5.93-2.79,1.41-5.74,2.52-8.78,3.29-3.16.8-6.28,1.21-9.28,1.21Zm-5.9-66v36.9c0,.52.08,1.43.43,2.82.09.34.21.65.37.96v-41.04l-.8.37Zm25,40.2h0,0Z"/><path class="cls-3" d="m405.84,132.97h-46.8V62.44c-.71-1.99-.9-3.81-.9-5.17,0-6.15,3.43-11.64,9.41-15.04,4.15-2.36,9.23-3.56,15.09-3.56s10.87,1.16,14.98,3.45c8.59,4.78,9.52,11.98,9.52,14.85,0,1.35-.2,3.64-1.3,6.19v69.81Zm-23.8-23h.8v-30h-.8v30Z"/><path class="cls-3" d="m437.64,134.17c-2.08,0-5.23-.52-8.4-3-1.7-1.34-3.08-3.02-4.04-4.92l-43.27-69.48h54.72l12.01,19.44c.51-.87,1.03-1.75,1.54-2.63l.1-.17c.93-1.53,1.84-3.22,2.7-5.03,1.23-2.58,2.36-4.69,3.45-6.45l.02-.04c2.43-3.89,6.56-6.21,11.05-6.21,2.4,0,4.77.65,7.04,1.93,4.17,2.34,6.66,6.63,6.66,11.47,0,2.19-.54,4.39-1.61,6.53-.42.83-.88,1.66-1.42,2.55-.46.76-.93,1.48-1.41,2.21-.23.34-.42.65-.58.92-4.4,7.74-8.97,15.5-13.57,23.03-4.39,7.2-8.68,14.75-12.76,22.44l-.19.34c-1.39,2.43-3.41,4.35-5.83,5.56-2.01,1-4.11,1.51-6.24,1.51Zm-14.29-54.4l13.9,22.31c.06-.1.12-.21.18-.31l-13.6-22.01h-.48Z"/><path class="cls-3" d="m501.04,135.87c-5.24,0-10.35-1.02-15.18-3.04-4.73-1.97-8.97-4.74-12.59-8.22-3.62-3.48-6.55-7.6-8.71-12.24-2.27-4.88-3.42-10.16-3.42-15.7s1.07-10.96,3.18-15.88c2.09-4.88,5.03-9.19,8.75-12.81,3.67-3.58,8-6.42,12.87-8.43,4.92-2.04,10.28-3.08,15.91-3.08,3.18,0,6.43.43,9.64,1.28,3.35.89,6.52,2.25,9.41,4.04,6.17,3.87,10.83,8.64,13.91,14.22,2.94,5.33,4.69,11.81,5.21,19.27l.05.78-.05.78c-.17,2.54-1.03,4.87-2.4,6.81.68,1.64,1.03,3.4,1.03,5.22,0,1.47-.25,2.91-.79,4.53l-.42,1.27-.7,1.14c-3.82,6.18-8.94,11.12-15.23,14.67-6.33,3.58-13.21,5.39-20.46,5.39Z"/><path class="cls-4" d="m69.4,135.61c-9.22,0-18.05-1.8-26.25-5.36-8.03-3.48-15.23-8.25-21.39-14.18-6.23-5.99-11.21-13.12-14.8-21.19-3.63-8.17-5.47-17-5.47-26.25s1.87-18.14,5.56-26.36c3.63-8.09,8.62-15.25,14.83-21.28,6.19-6.02,13.49-10.81,21.67-14.25,8.27-3.47,17.17-5.24,26.45-5.24s17.91,1.62,25.79,4.8c7.93,3.21,15.07,7.95,21.21,14.1,1.48,1.48,3.13,3.24,4.92,5.25,3.37,3.78,5.07,7.7,5.07,11.65,0,2.31-.68,4.55-2.09,6.84-2.22,3.61-6.15,5.77-10.52,5.77-2.21,0-4.37-.57-6.42-1.69-2.54-1.39-4.05-3.21-4.92-4.69-3.37-5.21-7.77-9.21-13.45-12.21-4.94-2.61-10.27-4.09-16.2-4.49v83.42c3.36-.24,6.51-.78,9.42-1.62,3.98-1.15,7.61-2.79,10.79-4.89,3.23-2.12,6.1-4.66,8.53-7.55,2.38-2.82,4.32-6.03,5.75-9.54l.14-.34.16-.33c.59-1.18,1.4-2.29,2.49-3.38.79-.79,1.68-1.48,2.64-2.06,1.78-1.08,3.91-1.64,6.28-1.64,4.08,0,7.7,1.83,9.94,5.01,1.56,2.23,2.36,4.74,2.36,7.3,0,.65-.05,1.29-.15,1.92v1.35l-.8,1.88c-2.41,5.65-5.6,10.95-9.5,15.75-3.97,4.89-8.71,9.13-14.07,12.61-5.28,3.42-11.18,6.12-17.54,8.02-6.39,1.91-13.27,2.88-20.45,2.88Z"/><path class="cls-4" d="m123.34,131.47V58.47h41.51c2.97-1.26,6.07-1.9,9.29-1.9,1.23,0,2.53.12,3.86.35,1.61.28,3.13.75,4.54,1.38,2.1.94,3.88,2.31,5.3,4.05,1.9,2.35,2.9,5.22,2.9,8.32,0,3.67-1.46,7.07-4.11,9.59-2.52,2.39-5.85,3.71-9.39,3.71-1.88,0-3.76-.44-5.85-1.37-.49.26-.99.63-1.48,1.08-.71.65-1.33,1.38-1.91,2.23-.3.45-.59.9-.86,1.37v44.19h-43.8Z"/><path class="cls-4" d="m210.34,134.37c-5.04,0-9.96-.98-14.6-2.92-4.56-1.9-8.64-4.57-12.13-7.92-3.48-3.35-6.31-7.32-8.39-11.79-2.18-4.68-3.28-9.75-3.28-15.07s1.03-10.55,3.06-15.29c2.01-4.7,4.84-8.85,8.41-12.32,3.53-3.44,7.7-6.18,12.4-8.12,4.74-1.97,9.9-2.96,15.33-2.96,3.05,0,6.17.42,9.26,1.23,3.21.85,6.24,2.15,9.01,3.87,5.94,3.73,10.43,8.32,13.39,13.67,2.83,5.14,4.52,11.41,5.02,18.64l.05.68-.05.68c-.18,2.6-1.12,4.92-2.63,6.75.82,1.66,1.25,3.49,1.25,5.38,0,1.31-.23,2.6-.71,4.05l-.37,1.11-.61.99c-3.68,5.96-8.62,10.72-14.69,14.15-6.1,3.45-12.73,5.19-19.72,5.19Zm3.8-24.04c1.3-.36,2.53-.9,3.72-1.63.48-.29.94-.6,1.38-.93h-5.1v2.56Z"/><path class="cls-4" d="m265.44,134.27c-4.12,0-8.03-.68-11.64-2.03-3.69-1.38-6.97-3.36-9.73-5.87-2.84-2.58-5.1-5.7-6.69-9.25-1.61-3.58-2.43-7.5-2.43-11.64,0-4.95,1.09-9.44,3.23-13.36,1.56-2.85,3.53-5.38,5.86-7.52-1.86-2.66-2.29-5.28-2.29-7.12,0-3.41,1.52-6.65,4.18-8.87,5.25-4.4,10.97-7.43,16.99-9.01,5.4-1.41,11.16-2.12,17.12-2.12,1.75,0,3.83.05,6.2.16,2.77.12,5.63.5,8.49,1.11,3.1.66,6.11,1.7,8.96,3.08,3.58,1.74,6.59,4.21,8.95,7.35l.12.16c2.51,3.5,4.04,7.33,4.55,11.4.35,2.8.53,5.67.53,8.54v23.4c0,1.09.09,1.63.12,1.77.83,2.16,1.38,4.03,1.38,6.03,0,3.84-1.89,7.28-5.07,9.2l-.21.13-.52.35-.56.28c-1.66.83-3.39,1.24-5.15,1.24h-29.52c-3.91,1.73-8.23,2.6-12.88,2.6Z"/><path class="cls-4" d="m341.34,134.37c-5.01,0-9.41-.97-13.08-2.88-3.55-1.85-6.48-4.29-8.71-7.25-2.12-2.81-3.64-5.93-4.5-9.28-.74-2.85-1.12-5.62-1.12-8.19v-25.8c-2-.78-3.72-2.04-5.03-3.69-1.66-2.06-2.57-4.58-2.57-7.21,0-4.91,2.99-9.11,7.6-10.9v-3.13l29.33-13.37h1.47c.5-.07,1-.1,1.51-.1,1.88,0,3.71.43,5.44,1.29,3.81,1.9,6.06,5.68,6.06,10.11v4.54c2.81.44,5.25,1.73,7.08,3.77,1.95,2.17,3.02,4.94,3.02,7.79s-1.07,5.63-3.02,7.79c-1.82,2.03-4.27,3.33-7.08,3.77v18.33c1.23-.45,2.54-.69,3.9-.69,1.96,0,3.91.47,5.77,1.41,3.85,1.94,6.23,5.8,6.23,10.09,0,1.8-.41,3.57-1.21,5.28-1.38,3.11-3.33,5.91-5.79,8.32-2.31,2.27-4.98,4.17-7.91,5.67-2.69,1.36-5.53,2.43-8.47,3.18-3.04.77-6.04,1.16-8.91,1.16Z"/><path class="cls-4" d="m360.54,131.47V62.15c-.72-1.88-.9-3.61-.9-4.89,0-3.29,1.12-9.45,8.65-13.74,3.92-2.23,8.75-3.36,14.35-3.36s10.36,1.1,14.25,3.26c7.61,4.23,8.75,10.3,8.75,13.54,0,1.52-.25,3.67-1.3,5.95v68.55h-43.8Z"/><path class="cls-4" d="m437.64,132.67c-1.85,0-4.64-.46-7.47-2.68-1.55-1.21-2.79-2.75-3.66-4.48l-41.88-67.24h51.18l12.88,20.83c.94-1.57,1.88-3.17,2.81-4.78l.09-.15c.95-1.57,1.89-3.31,2.77-5.17,1.21-2.53,2.31-4.59,3.37-6.31,2.17-3.48,5.83-5.54,9.8-5.54,2.14,0,4.26.58,6.31,1.74,3.69,2.07,5.89,5.87,5.89,10.16,0,1.96-.49,3.93-1.45,5.86-.4.79-.84,1.58-1.36,2.44-.45.74-.9,1.45-1.38,2.16-.25.37-.46.71-.63,1.01-4.4,7.73-8.96,15.47-13.54,22.99-4.41,7.23-8.71,14.8-12.8,22.52l-.16.3c-1.25,2.17-3.04,3.89-5.2,4.97-1.8.9-3.67,1.36-5.57,1.36Z"/><path class="cls-4" d="m501.04,134.37c-5.04,0-9.96-.98-14.6-2.92-4.56-1.9-8.64-4.57-12.13-7.92-3.48-3.35-6.31-7.32-8.39-11.79-2.18-4.68-3.28-9.75-3.28-15.07s1.03-10.55,3.06-15.29c2.01-4.7,4.84-8.85,8.41-12.32,3.53-3.44,7.7-6.18,12.4-8.12,4.74-1.97,9.9-2.96,15.33-2.96,3.05,0,6.17.42,9.26,1.23,3.21.85,6.24,2.15,9.01,3.87,5.94,3.73,10.43,8.32,13.39,13.67,2.83,5.14,4.52,11.41,5.02,18.64l.05.68-.05.68c-.18,2.6-1.12,4.92-2.63,6.75.82,1.66,1.25,3.49,1.25,5.38,0,1.31-.23,2.6-.71,4.05l-.37,1.11-.61.99c-3.68,5.96-8.62,10.72-14.69,14.15-6.1,3.45-12.74,5.19-19.72,5.19Zm3.8-24.04c1.3-.36,2.53-.9,3.72-1.63.48-.29.94-.6,1.38-.93h-5.1v2.56Z"/><g class="cls-2"><g class="cls-7"><rect class="cls-5" x="151.89" y="16.84" width=".3" height="57.19"/><rect class="cls-5" x="123.54" y="16.84" width=".3" height="57.19"/><rect class="cls-5" x="165.96" y="2.77" width="57.19" height=".3"/><rect class="cls-5" x="109.27" y="2.77" width="57.19" height=".3"/><rect class="cls-5" x="151.89" y="-39.85" width=".3" height="57.19"/><rect class="cls-5" x="123.54" y="-39.85" width=".3" height="57.19"/><rect class="cls-5" x="52.58" y="2.77" width="57.19" height=".3"/></g><g class="cls-10"><rect class="cls-5" x="151.89" y="73.53" width=".3" height="57.19"/><rect class="cls-5" x="123.54" y="73.53" width=".3" height="57.19"/><rect class="cls-5" x="165.96" y="31.11" width="57.19" height=".3"/><rect class="cls-5" x="165.96" y="59.46" width="57.19" height=".3"/><rect class="cls-5" x="109.27" y="31.11" width="57.19" height=".3"/><rect class="cls-5" x="109.27" y="59.46" width="57.19" height=".3"/><rect class="cls-5" x="151.89" y="16.84" width=".3" height="57.19"/><rect class="cls-5" x="123.54" y="16.84" width=".3" height="57.19"/><rect class="cls-5" x="52.58" y="31.11" width="57.19" height=".3"/><rect class="cls-5" x="52.58" y="59.46" width="57.19" height=".3"/><rect class="cls-5" x="151.89" y="-39.85" width=".3" height="57.19"/><rect class="cls-5" x="123.54" y="-39.85" width=".3" height="57.19"/></g><g class="cls-9"><rect class="cls-5" x="151.89" y="130.23" width=".3" height="57.19"/><rect class="cls-5" x="123.54" y="130.23" width=".3" height="57.19"/><rect class="cls-5" x="165.96" y="87.81" width="57.19" height=".3"/><rect class="cls-5" x="165.96" y="116.15" width="57.19" height=".3"/><rect class="cls-5" x="109.27" y="87.81" width="57.19" height=".3"/><rect class="cls-5" x="109.27" y="116.15" width="57.19" height=".3"/><rect class="cls-5" x="151.89" y="73.53" width=".3" height="57.19"/><rect class="cls-5" x="123.54" y="73.53" width=".3" height="57.19"/><rect class="cls-5" x="52.58" y="87.81" width="57.19" height=".3"/><rect class="cls-5" x="52.58" y="116.15" width="57.19" height=".3"/><rect class="cls-5" x="151.89" y="16.84" width=".3" height="57.19"/><rect class="cls-5" x="123.54" y="16.84" width=".3" height="57.19"/></g><g class="cls-8"><rect class="cls-5" x="151.89" y="130.23" width=".3" height="57.19"/><rect class="cls-5" x="123.54" y="130.23" width=".3" height="57.19"/><rect class="cls-5" x="151.89" y="73.53" width=".3" height="57.19"/><rect class="cls-5" x="123.54" y="73.53" width=".3" height="57.19"/></g><g class="cls-14"><rect class="cls-5" x="95.2" y="16.84" width=".3" height="57.19"/><rect class="cls-5" x="66.85" y="16.84" width=".3" height="57.19"/><rect class="cls-5" x="109.27" y="2.77" width="57.19" height=".3"/><rect class="cls-5" x="52.58" y="2.77" width="57.19" height=".3"/><rect class="cls-5" x="95.2" y="-39.85" width=".3" height="57.19"/><rect class="cls-5" x="66.85" y="-39.85" width=".3" height="57.19"/><rect class="cls-5" x="-4.11" y="2.77" width="57.19" height=".3"/></g><g class="cls-13"><rect class="cls-5" x="95.2" y="73.53" width=".3" height="57.19"/><rect class="cls-5" x="66.85" y="73.53" width=".3" height="57.19"/><rect class="cls-5" x="109.27" y="31.11" width="57.19" height=".3"/><rect class="cls-5" x="109.27" y="59.46" width="57.19" height=".3"/><rect class="cls-5" x="52.58" y="31.11" width="57.19" height=".3"/><rect class="cls-5" x="52.58" y="59.46" width="57.19" height=".3"/><rect class="cls-5" x="95.2" y="16.84" width=".3" height="57.19"/><rect class="cls-5" x="66.85" y="16.84" width=".3" height="57.19"/><rect class="cls-5" x="-4.11" y="31.11" width="57.19" height=".3"/><rect class="cls-5" x="-4.11" y="59.46" width="57.19" height=".3"/><rect class="cls-5" x="95.2" y="-39.85" width=".3" height="57.19"/><rect class="cls-5" x="66.85" y="-39.85" width=".3" height="57.19"/></g><g class="cls-11"><rect class="cls-5" x="95.2" y="130.23" width=".3" height="57.19"/><rect class="cls-5" x="66.85" y="130.23" width=".3" height="57.19"/><rect class="cls-5" x="109.27" y="87.81" width="57.19" height=".3"/><rect class="cls-5" x="109.27" y="116.15" width="57.19" height=".3"/><rect class="cls-5" x="52.58" y="87.81" width="57.19" height=".3"/><rect class="cls-5" x="52.58" y="116.15" width="57.19" height=".3"/><rect class="cls-5" x="95.2" y="73.53" width=".3" height="57.19"/><rect class="cls-5" x="66.85" y="73.53" width=".3" height="57.19"/><rect class="cls-5" x="-4.11" y="87.81" width="57.19" height=".3"/><rect class="cls-5" x="-4.11" y="116.15" width="57.19" height=".3"/><rect class="cls-5" x="95.2" y="16.84" width=".3" height="57.19"/><rect class="cls-5" x="66.85" y="16.84" width=".3" height="57.19"/></g><g class="cls-12"><rect class="cls-5" x="95.2" y="130.23" width=".3" height="57.19"/><rect class="cls-5" x="66.85" y="130.23" width=".3" height="57.19"/><rect class="cls-5" x="95.2" y="73.53" width=".3" height="57.19"/><rect class="cls-5" x="66.85" y="73.53" width=".3" height="57.19"/></g><g class="cls-15"><rect class="cls-5" x="38.51" y="16.84" width=".3" height="57.19"/><rect class="cls-5" x="10.16" y="16.84" width=".3" height="57.19"/><rect class="cls-5" x="52.58" y="2.77" width="57.19" height=".3"/><rect class="cls-5" x="-4.11" y="2.77" width="57.19" height=".3"/><rect class="cls-5" x="38.51" y="-39.85" width=".3" height="57.19"/><rect class="cls-5" x="10.16" y="-39.85" width=".3" height="57.19"/></g><g class="cls-67"><rect class="cls-5" x="38.51" y="73.53" width=".3" height="57.19"/><rect class="cls-5" x="10.16" y="73.53" width=".3" height="57.19"/><rect class="cls-5" x="52.58" y="31.11" width="57.19" height=".3"/><rect class="cls-5" x="52.58" y="59.46" width="57.19" height=".3"/><rect class="cls-5" x="-4.11" y="31.11" width="57.19" height=".3"/><rect class="cls-5" x="-4.11" y="59.46" width="57.19" height=".3"/><rect class="cls-5" x="38.51" y="16.84" width=".3" height="57.19"/><rect class="cls-5" x="10.16" y="16.84" width=".3" height="57.19"/><rect class="cls-5" x="38.51" y="-39.85" width=".3" height="57.19"/><rect class="cls-5" x="10.16" y="-39.85" width=".3" height="57.19"/></g><g class="cls-72"><rect class="cls-5" x="38.51" y="130.23" width=".3" height="57.19"/><rect class="cls-5" x="10.16" y="130.23" width=".3" height="57.19"/><rect class="cls-5" x="52.58" y="87.81" width="57.19" height=".3"/><rect class="cls-5" x="52.58" y="116.15" width="57.19" height=".3"/><rect class="cls-5" x="-4.11" y="87.81" width="57.19" height=".3"/><rect class="cls-5" x="-4.11" y="116.15" width="57.19" height=".3"/><rect class="cls-5" x="38.51" y="73.53" width=".3" height="57.19"/><rect class="cls-5" x="10.16" y="73.53" width=".3" height="57.19"/><rect class="cls-5" x="38.51" y="16.84" width=".3" height="57.19"/><rect class="cls-5" x="10.16" y="16.84" width=".3" height="57.19"/></g><g class="cls-66"><rect class="cls-5" x="38.51" y="130.23" width=".3" height="57.19"/><rect class="cls-5" x="10.16" y="130.23" width=".3" height="57.19"/><rect class="cls-5" x="38.51" y="73.53" width=".3" height="57.19"/><rect class="cls-5" x="10.16" y="73.53" width=".3" height="57.19"/></g></g><g class="cls-65"><g class="cls-64"><rect class="cls-5" x="208.58" y="73.53" width=".3" height="57.19"/><rect class="cls-5" x="180.23" y="73.53" width=".3" height="57.19"/><rect class="cls-5" x="222.65" y="31.11" width="57.19" height=".3"/><rect class="cls-5" x="222.65" y="59.46" width="57.19" height=".3"/><rect class="cls-5" x="165.96" y="31.11" width="57.19" height=".3"/><rect class="cls-5" x="165.96" y="59.46" width="57.19" height=".3"/><rect class="cls-5" x="208.58" y="16.84" width=".3" height="57.19"/><rect class="cls-5" x="180.23" y="16.84" width=".3" height="57.19"/><rect class="cls-5" x="109.27" y="31.11" width="57.19" height=".3"/><rect class="cls-5" x="109.27" y="59.46" width="57.19" height=".3"/><rect class="cls-5" x="208.58" y="-39.85" width=".3" height="57.19"/><rect class="cls-5" x="180.23" y="-39.85" width=".3" height="57.19"/></g><g class="cls-68"><rect class="cls-5" x="208.58" y="130.23" width=".3" height="57.19"/><rect class="cls-5" x="180.23" y="130.23" width=".3" height="57.19"/><rect class="cls-5" x="222.65" y="87.81" width="57.19" height=".3"/><rect class="cls-5" x="222.65" y="116.15" width="57.19" height=".3"/><rect class="cls-5" x="165.96" y="87.81" width="57.19" height=".3"/><rect class="cls-5" x="165.96" y="116.15" width="57.19" height=".3"/><rect class="cls-5" x="208.58" y="73.53" width=".3" height="57.19"/><rect class="cls-5" x="180.23" y="73.53" width=".3" height="57.19"/><rect class="cls-5" x="109.27" y="87.81" width="57.19" height=".3"/><rect class="cls-5" x="109.27" y="116.15" width="57.19" height=".3"/><rect class="cls-5" x="208.58" y="16.84" width=".3" height="57.19"/><rect class="cls-5" x="180.23" y="16.84" width=".3" height="57.19"/></g><g class="cls-70"><rect class="cls-5" x="208.58" y="130.23" width=".3" height="57.19"/><rect class="cls-5" x="180.23" y="130.23" width=".3" height="57.19"/><rect class="cls-5" x="208.58" y="73.53" width=".3" height="57.19"/><rect class="cls-5" x="180.23" y="73.53" width=".3" height="57.19"/></g><g class="cls-69"><rect class="cls-5" x="151.89" y="73.53" width=".3" height="57.19"/><rect class="cls-5" x="123.54" y="73.53" width=".3" height="57.19"/><rect class="cls-5" x="165.96" y="31.11" width="57.19" height=".3"/><rect class="cls-5" x="165.96" y="59.46" width="57.19" height=".3"/><rect class="cls-5" x="109.27" y="31.11" width="57.19" height=".3"/><rect class="cls-5" x="109.27" y="59.46" width="57.19" height=".3"/><rect class="cls-5" x="151.89" y="16.84" width=".3" height="57.19"/><rect class="cls-5" x="123.54" y="16.84" width=".3" height="57.19"/><rect class="cls-5" x="52.58" y="31.11" width="57.19" height=".3"/><rect class="cls-5" x="52.58" y="59.46" width="57.19" height=".3"/><rect class="cls-5" x="151.89" y="-39.85" width=".3" height="57.19"/><rect class="cls-5" x="123.54" y="-39.85" width=".3" height="57.19"/></g><g class="cls-73"><rect class="cls-5" x="151.89" y="130.23" width=".3" height="57.19"/><rect class="cls-5" x="123.54" y="130.23" width=".3" height="57.19"/><rect class="cls-5" x="165.96" y="87.81" width="57.19" height=".3"/><rect class="cls-5" x="165.96" y="116.15" width="57.19" height=".3"/><rect class="cls-5" x="109.27" y="87.81" width="57.19" height=".3"/><rect class="cls-5" x="109.27" y="116.15" width="57.19" height=".3"/><rect class="cls-5" x="151.89" y="73.53" width=".3" height="57.19"/><rect class="cls-5" x="123.54" y="73.53" width=".3" height="57.19"/><rect class="cls-5" x="52.58" y="87.81" width="57.19" height=".3"/><rect class="cls-5" x="52.58" y="116.15" width="57.19" height=".3"/><rect class="cls-5" x="151.89" y="16.84" width=".3" height="57.19"/><rect class="cls-5" x="123.54" y="16.84" width=".3" height="57.19"/></g><g class="cls-71"><rect class="cls-5" x="151.89" y="130.23" width=".3" height="57.19"/><rect class="cls-5" x="123.54" y="130.23" width=".3" height="57.19"/><rect class="cls-5" x="151.89" y="73.53" width=".3" height="57.19"/><rect class="cls-5" x="123.54" y="73.53" width=".3" height="57.19"/></g></g><g class="cls-17"><g class="cls-18"><rect class="cls-5" x="265.27" y="73.53" width=".3" height="57.19"/><rect class="cls-5" x="236.92" y="73.53" width=".3" height="57.19"/><rect class="cls-5" x="279.34" y="31.11" width="57.19" height=".3"/><rect class="cls-5" x="279.34" y="59.46" width="57.19" height=".3"/><rect class="cls-5" x="222.65" y="31.11" width="57.19" height=".3"/><rect class="cls-5" x="222.65" y="59.46" width="57.19" height=".3"/><rect class="cls-5" x="265.27" y="16.84" width=".3" height="57.19"/><rect class="cls-5" x="236.92" y="16.84" width=".3" height="57.19"/><rect class="cls-5" x="165.96" y="31.11" width="57.19" height=".3"/><rect class="cls-5" x="165.96" y="59.46" width="57.19" height=".3"/><rect class="cls-5" x="265.27" y="-39.85" width=".3" height="57.19"/><rect class="cls-5" x="236.92" y="-39.85" width=".3" height="57.19"/></g><g class="cls-21"><rect class="cls-5" x="265.27" y="130.23" width=".3" height="57.19"/><rect class="cls-5" x="236.92" y="130.23" width=".3" height="57.19"/><rect class="cls-5" x="279.34" y="87.81" width="57.19" height=".3"/><rect class="cls-5" x="279.34" y="116.15" width="57.19" height=".3"/><rect class="cls-5" x="222.65" y="87.81" width="57.19" height=".3"/><rect class="cls-5" x="222.65" y="116.15" width="57.19" height=".3"/><rect class="cls-5" x="265.27" y="73.53" width=".3" height="57.19"/><rect class="cls-5" x="236.92" y="73.53" width=".3" height="57.19"/><rect class="cls-5" x="165.96" y="87.81" width="57.19" height=".3"/><rect class="cls-5" x="165.96" y="116.15" width="57.19" height=".3"/><rect class="cls-5" x="265.27" y="16.84" width=".3" height="57.19"/><rect class="cls-5" x="236.92" y="16.84" width=".3" height="57.19"/></g><g class="cls-20"><rect class="cls-5" x="265.27" y="130.23" width=".3" height="57.19"/><rect class="cls-5" x="236.92" y="130.23" width=".3" height="57.19"/><rect class="cls-5" x="265.27" y="73.53" width=".3" height="57.19"/><rect class="cls-5" x="236.92" y="73.53" width=".3" height="57.19"/></g><g class="cls-19"><rect class="cls-5" x="208.58" y="73.53" width=".3" height="57.19"/><rect class="cls-5" x="180.23" y="73.53" width=".3" height="57.19"/><rect class="cls-5" x="222.65" y="31.11" width="57.19" height=".3"/><rect class="cls-5" x="222.65" y="59.46" width="57.19" height=".3"/><rect class="cls-5" x="165.96" y="31.11" width="57.19" height=".3"/><rect class="cls-5" x="165.96" y="59.46" width="57.19" height=".3"/><rect class="cls-5" x="208.58" y="16.84" width=".3" height="57.19"/><rect class="cls-5" x="180.23" y="16.84" width=".3" height="57.19"/><rect class="cls-5" x="109.27" y="31.11" width="57.19" height=".3"/><rect class="cls-5" x="109.27" y="59.46" width="57.19" height=".3"/><rect class="cls-5" x="208.58" y="-39.85" width=".3" height="57.19"/><rect class="cls-5" x="180.23" y="-39.85" width=".3" height="57.19"/></g><g class="cls-22"><rect class="cls-5" x="208.58" y="130.23" width=".3" height="57.19"/><rect class="cls-5" x="180.23" y="130.23" width=".3" height="57.19"/><rect class="cls-5" x="222.65" y="87.81" width="57.19" height=".3"/><rect class="cls-5" x="222.65" y="116.15" width="57.19" height=".3"/><rect class="cls-5" x="165.96" y="87.81" width="57.19" height=".3"/><rect class="cls-5" x="165.96" y="116.15" width="57.19" height=".3"/><rect class="cls-5" x="208.58" y="73.53" width=".3" height="57.19"/><rect class="cls-5" x="180.23" y="73.53" width=".3" height="57.19"/><rect class="cls-5" x="109.27" y="87.81" width="57.19" height=".3"/><rect class="cls-5" x="109.27" y="116.15" width="57.19" height=".3"/><rect class="cls-5" x="208.58" y="16.84" width=".3" height="57.19"/><rect class="cls-5" x="180.23" y="16.84" width=".3" height="57.19"/></g><g class="cls-35"><rect class="cls-5" x="208.58" y="130.23" width=".3" height="57.19"/><rect class="cls-5" x="180.23" y="130.23" width=".3" height="57.19"/><rect class="cls-5" x="208.58" y="73.53" width=".3" height="57.19"/><rect class="cls-5" x="180.23" y="73.53" width=".3" height="57.19"/></g><g class="cls-33"><rect class="cls-5" x="208.58" y="130.23" width=".3" height="57.19"/><rect class="cls-5" x="180.23" y="130.23" width=".3" height="57.19"/><rect class="cls-5" x="222.65" y="87.81" width="57.19" height=".3"/><rect class="cls-5" x="222.65" y="116.15" width="57.19" height=".3"/><rect class="cls-5" x="165.96" y="87.81" width="57.19" height=".3"/><rect class="cls-5" x="165.96" y="116.15" width="57.19" height=".3"/><rect class="cls-5" x="208.58" y="73.53" width=".3" height="57.19"/><rect class="cls-5" x="180.23" y="73.53" width=".3" height="57.19"/><rect class="cls-5" x="109.27" y="87.81" width="57.19" height=".3"/><rect class="cls-5" x="109.27" y="116.15" width="57.19" height=".3"/><rect class="cls-5" x="208.58" y="16.84" width=".3" height="57.19"/><rect class="cls-5" x="180.23" y="16.84" width=".3" height="57.19"/></g></g><g class="cls-34"><g class="cls-36"><rect class="cls-5" x="321.96" y="73.53" width=".3" height="57.19"/><rect class="cls-5" x="293.62" y="73.53" width=".3" height="57.19"/><rect class="cls-5" x="336.03" y="31.11" width="57.19" height=".3"/><rect class="cls-5" x="336.03" y="59.46" width="57.19" height=".3"/><rect class="cls-5" x="279.34" y="31.11" width="57.19" height=".3"/><rect class="cls-5" x="279.34" y="59.46" width="57.19" height=".3"/><rect class="cls-5" x="321.96" y="16.84" width=".3" height="57.19"/><rect class="cls-5" x="293.62" y="16.84" width=".3" height="57.19"/><rect class="cls-5" x="222.65" y="31.11" width="57.19" height=".3"/><rect class="cls-5" x="222.65" y="59.46" width="57.19" height=".3"/><rect class="cls-5" x="321.96" y="-39.85" width=".3" height="57.19"/><rect class="cls-5" x="293.62" y="-39.85" width=".3" height="57.19"/></g><g class="cls-44"><rect class="cls-5" x="321.96" y="130.23" width=".3" height="57.19"/><rect class="cls-5" x="293.62" y="130.23" width=".3" height="57.19"/><rect class="cls-5" x="336.03" y="87.81" width="57.19" height=".3"/><rect class="cls-5" x="336.03" y="116.15" width="57.19" height=".3"/><rect class="cls-5" x="279.34" y="87.81" width="57.19" height=".3"/><rect class="cls-5" x="279.34" y="116.15" width="57.19" height=".3"/><rect class="cls-5" x="321.96" y="73.53" width=".3" height="57.19"/><rect class="cls-5" x="293.62" y="73.53" width=".3" height="57.19"/><rect class="cls-5" x="222.65" y="87.81" width="57.19" height=".3"/><rect class="cls-5" x="222.65" y="116.15" width="57.19" height=".3"/><rect class="cls-5" x="321.96" y="16.84" width=".3" height="57.19"/><rect class="cls-5" x="293.62" y="16.84" width=".3" height="57.19"/></g><g class="cls-46"><rect class="cls-5" x="321.96" y="130.23" width=".3" height="57.19"/><rect class="cls-5" x="293.62" y="130.23" width=".3" height="57.19"/><rect class="cls-5" x="321.96" y="73.53" width=".3" height="57.19"/><rect class="cls-5" x="293.62" y="73.53" width=".3" height="57.19"/></g><g class="cls-43"><rect class="cls-5" x="265.27" y="73.53" width=".3" height="57.19"/><rect class="cls-5" x="236.92" y="73.53" width=".3" height="57.19"/><rect class="cls-5" x="279.34" y="31.11" width="57.19" height=".3"/><rect class="cls-5" x="279.34" y="59.46" width="57.19" height=".3"/><rect class="cls-5" x="222.65" y="31.11" width="57.19" height=".3"/><rect class="cls-5" x="222.65" y="59.46" width="57.19" height=".3"/><rect class="cls-5" x="265.27" y="16.84" width=".3" height="57.19"/><rect class="cls-5" x="236.92" y="16.84" width=".3" height="57.19"/><rect class="cls-5" x="165.96" y="31.11" width="57.19" height=".3"/><rect class="cls-5" x="165.96" y="59.46" width="57.19" height=".3"/><rect class="cls-5" x="265.27" y="-39.85" width=".3" height="57.19"/><rect class="cls-5" x="236.92" y="-39.85" width=".3" height="57.19"/></g><g class="cls-42"><rect class="cls-5" x="265.27" y="130.23" width=".3" height="57.19"/><rect class="cls-5" x="236.92" y="130.23" width=".3" height="57.19"/><rect class="cls-5" x="279.34" y="87.81" width="57.19" height=".3"/><rect class="cls-5" x="279.34" y="116.15" width="57.19" height=".3"/><rect class="cls-5" x="222.65" y="87.81" width="57.19" height=".3"/><rect class="cls-5" x="222.65" y="116.15" width="57.19" height=".3"/><rect class="cls-5" x="265.27" y="73.53" width=".3" height="57.19"/><rect class="cls-5" x="236.92" y="73.53" width=".3" height="57.19"/><rect class="cls-5" x="165.96" y="87.81" width="57.19" height=".3"/><rect class="cls-5" x="165.96" y="116.15" width="57.19" height=".3"/><rect class="cls-5" x="265.27" y="16.84" width=".3" height="57.19"/><rect class="cls-5" x="236.92" y="16.84" width=".3" height="57.19"/></g><g class="cls-37"><rect class="cls-5" x="265.27" y="130.23" width=".3" height="57.19"/><rect class="cls-5" x="236.92" y="130.23" width=".3" height="57.19"/><rect class="cls-5" x="265.27" y="73.53" width=".3" height="57.19"/><rect class="cls-5" x="236.92" y="73.53" width=".3" height="57.19"/></g></g><g class="cls-38"><g class="cls-39"><rect class="cls-5" x="378.65" y="73.53" width=".3" height="57.19"/><rect class="cls-5" x="350.31" y="73.53" width=".3" height="57.19"/><rect class="cls-5" x="392.72" y="31.11" width="57.19" height=".3"/><rect class="cls-5" x="392.72" y="59.46" width="57.19" height=".3"/><rect class="cls-5" x="336.03" y="31.11" width="57.19" height=".3"/><rect class="cls-5" x="336.03" y="59.46" width="57.19" height=".3"/><rect class="cls-5" x="378.65" y="16.84" width=".3" height="57.19"/><rect class="cls-5" x="350.31" y="16.84" width=".3" height="57.19"/><rect class="cls-5" x="279.34" y="31.11" width="57.19" height=".3"/><rect class="cls-5" x="279.34" y="59.46" width="57.19" height=".3"/><rect class="cls-5" x="378.65" y="-39.85" width=".3" height="57.19"/><rect class="cls-5" x="350.31" y="-39.85" width=".3" height="57.19"/></g><g class="cls-40"><rect class="cls-5" x="378.65" y="130.23" width=".3" height="57.19"/><rect class="cls-5" x="350.31" y="130.23" width=".3" height="57.19"/><rect class="cls-5" x="392.72" y="87.81" width="57.19" height=".3"/><rect class="cls-5" x="392.72" y="116.15" width="57.19" height=".3"/><rect class="cls-5" x="336.03" y="87.81" width="57.19" height=".3"/><rect class="cls-5" x="336.03" y="116.15" width="57.19" height=".3"/><rect class="cls-5" x="378.65" y="73.53" width=".3" height="57.19"/><rect class="cls-5" x="350.31" y="73.53" width=".3" height="57.19"/><rect class="cls-5" x="279.34" y="87.81" width="57.19" height=".3"/><rect class="cls-5" x="279.34" y="116.15" width="57.19" height=".3"/><rect class="cls-5" x="378.65" y="16.84" width=".3" height="57.19"/><rect class="cls-5" x="350.31" y="16.84" width=".3" height="57.19"/></g><g class="cls-45"><rect class="cls-5" x="378.65" y="130.23" width=".3" height="57.19"/><rect class="cls-5" x="350.31" y="130.23" width=".3" height="57.19"/><rect class="cls-5" x="378.65" y="73.53" width=".3" height="57.19"/><rect class="cls-5" x="350.31" y="73.53" width=".3" height="57.19"/></g><g class="cls-41"><rect class="cls-5" x="321.96" y="73.53" width=".3" height="57.19"/><rect class="cls-5" x="293.62" y="73.53" width=".3" height="57.19"/><rect class="cls-5" x="336.03" y="31.11" width="57.19" height=".3"/><rect class="cls-5" x="336.03" y="59.46" width="57.19" height=".3"/><rect class="cls-5" x="279.34" y="31.11" width="57.19" height=".3"/><rect class="cls-5" x="279.34" y="59.46" width="57.19" height=".3"/><rect class="cls-5" x="321.96" y="16.84" width=".3" height="57.19"/><rect class="cls-5" x="293.62" y="16.84" width=".3" height="57.19"/><rect class="cls-5" x="222.65" y="31.11" width="57.19" height=".3"/><rect class="cls-5" x="222.65" y="59.46" width="57.19" height=".3"/><rect class="cls-5" x="321.96" y="-39.85" width=".3" height="57.19"/><rect class="cls-5" x="293.62" y="-39.85" width=".3" height="57.19"/></g><g class="cls-25"><rect class="cls-5" x="321.96" y="130.23" width=".3" height="57.19"/><rect class="cls-5" x="293.62" y="130.23" width=".3" height="57.19"/><rect class="cls-5" x="336.03" y="87.81" width="57.19" height=".3"/><rect class="cls-5" x="336.03" y="116.15" width="57.19" height=".3"/><rect class="cls-5" x="279.34" y="87.81" width="57.19" height=".3"/><rect class="cls-5" x="279.34" y="116.15" width="57.19" height=".3"/><rect class="cls-5" x="321.96" y="73.53" width=".3" height="57.19"/><rect class="cls-5" x="293.62" y="73.53" width=".3" height="57.19"/><rect class="cls-5" x="222.65" y="87.81" width="57.19" height=".3"/><rect class="cls-5" x="222.65" y="116.15" width="57.19" height=".3"/><rect class="cls-5" x="321.96" y="16.84" width=".3" height="57.19"/><rect class="cls-5" x="293.62" y="16.84" width=".3" height="57.19"/></g><g class="cls-27"><rect class="cls-5" x="321.96" y="130.23" width=".3" height="57.19"/><rect class="cls-5" x="293.62" y="130.23" width=".3" height="57.19"/><rect class="cls-5" x="321.96" y="73.53" width=".3" height="57.19"/><rect class="cls-5" x="293.62" y="73.53" width=".3" height="57.19"/></g></g><g class="cls-26"><g class="cls-29"><rect class="cls-5" x="435.34" y="73.53" width=".3" height="57.19"/><rect class="cls-5" x="407" y="73.53" width=".3" height="57.19"/><rect class="cls-5" x="449.42" y="31.11" width="57.19" height=".3"/><rect class="cls-5" x="449.42" y="59.46" width="57.19" height=".3"/><rect class="cls-5" x="392.72" y="31.11" width="57.19" height=".3"/><rect class="cls-5" x="392.72" y="59.46" width="57.19" height=".3"/><rect class="cls-5" x="435.34" y="16.84" width=".3" height="57.19"/><rect class="cls-5" x="407" y="16.84" width=".3" height="57.19"/><rect class="cls-5" x="336.03" y="31.11" width="57.19" height=".3"/><rect class="cls-5" x="336.03" y="59.46" width="57.19" height=".3"/><rect class="cls-5" x="435.34" y="-39.85" width=".3" height="57.19"/><rect class="cls-5" x="407" y="-39.85" width=".3" height="57.19"/></g><g class="cls-23"><rect class="cls-5" x="435.34" y="130.23" width=".3" height="57.19"/><rect class="cls-5" x="407" y="130.23" width=".3" height="57.19"/><rect class="cls-5" x="449.42" y="87.81" width="57.19" height=".3"/><rect class="cls-5" x="449.42" y="116.15" width="57.19" height=".3"/><rect class="cls-5" x="392.72" y="87.81" width="57.19" height=".3"/><rect class="cls-5" x="392.72" y="116.15" width="57.19" height=".3"/><rect class="cls-5" x="435.34" y="73.53" width=".3" height="57.19"/><rect class="cls-5" x="407" y="73.53" width=".3" height="57.19"/><rect class="cls-5" x="336.03" y="87.81" width="57.19" height=".3"/><rect class="cls-5" x="336.03" y="116.15" width="57.19" height=".3"/><rect class="cls-5" x="435.34" y="16.84" width=".3" height="57.19"/><rect class="cls-5" x="407" y="16.84" width=".3" height="57.19"/></g><g class="cls-24"><rect class="cls-5" x="435.34" y="130.23" width=".3" height="57.19"/><rect class="cls-5" x="407" y="130.23" width=".3" height="57.19"/><rect class="cls-5" x="435.34" y="73.53" width=".3" height="57.19"/><rect class="cls-5" x="407" y="73.53" width=".3" height="57.19"/></g><g class="cls-30"><rect class="cls-5" x="378.65" y="73.53" width=".3" height="57.19"/><rect class="cls-5" x="350.31" y="73.53" width=".3" height="57.19"/><rect class="cls-5" x="392.72" y="31.11" width="57.19" height=".3"/><rect class="cls-5" x="392.72" y="59.46" width="57.19" height=".3"/><rect class="cls-5" x="336.03" y="31.11" width="57.19" height=".3"/><rect class="cls-5" x="336.03" y="59.46" width="57.19" height=".3"/><rect class="cls-5" x="378.65" y="16.84" width=".3" height="57.19"/><rect class="cls-5" x="350.31" y="16.84" width=".3" height="57.19"/><rect class="cls-5" x="279.34" y="31.11" width="57.19" height=".3"/><rect class="cls-5" x="279.34" y="59.46" width="57.19" height=".3"/><rect class="cls-5" x="378.65" y="-39.85" width=".3" height="57.19"/><rect class="cls-5" x="350.31" y="-39.85" width=".3" height="57.19"/></g><g class="cls-28"><rect class="cls-5" x="378.65" y="130.23" width=".3" height="57.19"/><rect class="cls-5" x="350.31" y="130.23" width=".3" height="57.19"/><rect class="cls-5" x="392.72" y="87.81" width="57.19" height=".3"/><rect class="cls-5" x="392.72" y="116.15" width="57.19" height=".3"/><rect class="cls-5" x="336.03" y="87.81" width="57.19" height=".3"/><rect class="cls-5" x="336.03" y="116.15" width="57.19" height=".3"/><rect class="cls-5" x="378.65" y="73.53" width=".3" height="57.19"/><rect class="cls-5" x="350.31" y="73.53" width=".3" height="57.19"/><rect class="cls-5" x="279.34" y="87.81" width="57.19" height=".3"/><rect class="cls-5" x="279.34" y="116.15" width="57.19" height=".3"/><rect class="cls-5" x="378.65" y="16.84" width=".3" height="57.19"/><rect class="cls-5" x="350.31" y="16.84" width=".3" height="57.19"/></g><g class="cls-31"><rect class="cls-5" x="378.65" y="130.23" width=".3" height="57.19"/><rect class="cls-5" x="350.31" y="130.23" width=".3" height="57.19"/><rect class="cls-5" x="378.65" y="73.53" width=".3" height="57.19"/><rect class="cls-5" x="350.31" y="73.53" width=".3" height="57.19"/></g></g><g class="cls-32"><g class="cls-49"><rect class="cls-5" x="492.04" y="73.53" width=".3" height="57.19"/><rect class="cls-5" x="463.69" y="73.53" width=".3" height="57.19"/><rect class="cls-5" x="506.11" y="31.11" width="57.19" height=".3"/><rect class="cls-5" x="506.11" y="59.46" width="57.19" height=".3"/><rect class="cls-5" x="449.42" y="31.11" width="57.19" height=".3"/><rect class="cls-5" x="449.42" y="59.46" width="57.19" height=".3"/><rect class="cls-5" x="492.04" y="16.84" width=".3" height="57.19"/><rect class="cls-5" x="463.69" y="16.84" width=".3" height="57.19"/><rect class="cls-5" x="392.72" y="31.11" width="57.19" height=".3"/><rect class="cls-5" x="392.72" y="59.46" width="57.19" height=".3"/><rect class="cls-5" x="492.04" y="-39.85" width=".3" height="57.19"/><rect class="cls-5" x="463.69" y="-39.85" width=".3" height="57.19"/></g><g class="cls-50"><rect class="cls-5" x="492.04" y="130.23" width=".3" height="57.19"/><rect class="cls-5" x="463.69" y="130.23" width=".3" height="57.19"/><rect class="cls-5" x="506.11" y="87.81" width="57.19" height=".3"/><rect class="cls-5" x="506.11" y="116.15" width="57.19" height=".3"/><rect class="cls-5" x="449.42" y="87.81" width="57.19" height=".3"/><rect class="cls-5" x="449.42" y="116.15" width="57.19" height=".3"/><rect class="cls-5" x="492.04" y="73.53" width=".3" height="57.19"/><rect class="cls-5" x="463.69" y="73.53" width=".3" height="57.19"/><rect class="cls-5" x="392.72" y="87.81" width="57.19" height=".3"/><rect class="cls-5" x="392.72" y="116.15" width="57.19" height=".3"/><rect class="cls-5" x="492.04" y="16.84" width=".3" height="57.19"/><rect class="cls-5" x="463.69" y="16.84" width=".3" height="57.19"/></g><g class="cls-51"><rect class="cls-5" x="492.04" y="130.23" width=".3" height="57.19"/><rect class="cls-5" x="463.69" y="130.23" width=".3" height="57.19"/><rect class="cls-5" x="492.04" y="73.53" width=".3" height="57.19"/><rect class="cls-5" x="463.69" y="73.53" width=".3" height="57.19"/></g><g class="cls-47"><rect class="cls-5" x="435.34" y="73.53" width=".3" height="57.19"/><rect class="cls-5" x="407" y="73.53" width=".3" height="57.19"/><rect class="cls-5" x="449.42" y="31.11" width="57.19" height=".3"/><rect class="cls-5" x="449.42" y="59.46" width="57.19" height=".3"/><rect class="cls-5" x="392.72" y="31.11" width="57.19" height=".3"/><rect class="cls-5" x="392.72" y="59.46" width="57.19" height=".3"/><rect class="cls-5" x="435.34" y="16.84" width=".3" height="57.19"/><rect class="cls-5" x="407" y="16.84" width=".3" height="57.19"/><rect class="cls-5" x="336.03" y="31.11" width="57.19" height=".3"/><rect class="cls-5" x="336.03" y="59.46" width="57.19" height=".3"/><rect class="cls-5" x="435.34" y="-39.85" width=".3" height="57.19"/><rect class="cls-5" x="407" y="-39.85" width=".3" height="57.19"/></g><g class="cls-48"><rect class="cls-5" x="435.34" y="130.23" width=".3" height="57.19"/><rect class="cls-5" x="407" y="130.23" width=".3" height="57.19"/><rect class="cls-5" x="449.42" y="87.81" width="57.19" height=".3"/><rect class="cls-5" x="449.42" y="116.15" width="57.19" height=".3"/><rect class="cls-5" x="392.72" y="87.81" width="57.19" height=".3"/><rect class="cls-5" x="392.72" y="116.15" width="57.19" height=".3"/><rect class="cls-5" x="435.34" y="73.53" width=".3" height="57.19"/><rect class="cls-5" x="407" y="73.53" width=".3" height="57.19"/><rect class="cls-5" x="336.03" y="87.81" width="57.19" height=".3"/><rect class="cls-5" x="336.03" y="116.15" width="57.19" height=".3"/><rect class="cls-5" x="435.34" y="16.84" width=".3" height="57.19"/><rect class="cls-5" x="407" y="16.84" width=".3" height="57.19"/></g><g class="cls-52"><rect class="cls-5" x="435.34" y="130.23" width=".3" height="57.19"/><rect class="cls-5" x="407" y="130.23" width=".3" height="57.19"/><rect class="cls-5" x="435.34" y="73.53" width=".3" height="57.19"/><rect class="cls-5" x="407" y="73.53" width=".3" height="57.19"/></g><g class="cls-53"><rect class="cls-5" x="378.65" y="73.53" width=".3" height="57.19"/><rect class="cls-5" x="350.31" y="73.53" width=".3" height="57.19"/><rect class="cls-5" x="392.72" y="31.11" width="57.19" height=".3"/><rect class="cls-5" x="392.72" y="59.46" width="57.19" height=".3"/><rect class="cls-5" x="336.03" y="31.11" width="57.19" height=".3"/><rect class="cls-5" x="336.03" y="59.46" width="57.19" height=".3"/><rect class="cls-5" x="378.65" y="16.84" width=".3" height="57.19"/><rect class="cls-5" x="350.31" y="16.84" width=".3" height="57.19"/><rect class="cls-5" x="279.34" y="31.11" width="57.19" height=".3"/><rect class="cls-5" x="279.34" y="59.46" width="57.19" height=".3"/><rect class="cls-5" x="378.65" y="-39.85" width=".3" height="57.19"/><rect class="cls-5" x="350.31" y="-39.85" width=".3" height="57.19"/></g><g class="cls-54"><rect class="cls-5" x="378.65" y="130.23" width=".3" height="57.19"/><rect class="cls-5" x="350.31" y="130.23" width=".3" height="57.19"/><rect class="cls-5" x="392.72" y="87.81" width="57.19" height=".3"/><rect class="cls-5" x="392.72" y="116.15" width="57.19" height=".3"/><rect class="cls-5" x="336.03" y="87.81" width="57.19" height=".3"/><rect class="cls-5" x="336.03" y="116.15" width="57.19" height=".3"/><rect class="cls-5" x="378.65" y="73.53" width=".3" height="57.19"/><rect class="cls-5" x="350.31" y="73.53" width=".3" height="57.19"/><rect class="cls-5" x="279.34" y="87.81" width="57.19" height=".3"/><rect class="cls-5" x="279.34" y="116.15" width="57.19" height=".3"/><rect class="cls-5" x="378.65" y="16.84" width=".3" height="57.19"/><rect class="cls-5" x="350.31" y="16.84" width=".3" height="57.19"/></g><g class="cls-55"><rect class="cls-5" x="378.65" y="130.23" width=".3" height="57.19"/><rect class="cls-5" x="350.31" y="130.23" width=".3" height="57.19"/><rect class="cls-5" x="378.65" y="73.53" width=".3" height="57.19"/><rect class="cls-5" x="350.31" y="73.53" width=".3" height="57.19"/></g></g><g class="cls-60"><g class="cls-16"><rect class="cls-5" x="520.38" y="73.53" width=".3" height="57.19"/><rect class="cls-5" x="506.11" y="31.11" width="57.19" height=".3"/><rect class="cls-5" x="506.11" y="59.46" width="57.19" height=".3"/><rect class="cls-5" x="520.38" y="16.84" width=".3" height="57.19"/><rect class="cls-5" x="449.42" y="31.11" width="57.19" height=".3"/><rect class="cls-5" x="449.42" y="59.46" width="57.19" height=".3"/><rect class="cls-5" x="520.38" y="-39.85" width=".3" height="57.19"/></g><g class="cls-56"><rect class="cls-5" x="520.38" y="130.23" width=".3" height="57.19"/><rect class="cls-5" x="506.11" y="87.81" width="57.19" height=".3"/><rect class="cls-5" x="506.11" y="116.15" width="57.19" height=".3"/><rect class="cls-5" x="520.38" y="73.53" width=".3" height="57.19"/><rect class="cls-5" x="449.42" y="87.81" width="57.19" height=".3"/><rect class="cls-5" x="449.42" y="116.15" width="57.19" height=".3"/><rect class="cls-5" x="520.38" y="16.84" width=".3" height="57.19"/></g><g class="cls-58"><rect class="cls-5" x="520.38" y="130.23" width=".3" height="57.19"/><rect class="cls-5" x="520.38" y="73.53" width=".3" height="57.19"/></g><g class="cls-62"><rect class="cls-5" x="492.04" y="73.53" width=".3" height="57.19"/><rect class="cls-5" x="463.69" y="73.53" width=".3" height="57.19"/><rect class="cls-5" x="506.11" y="31.11" width="57.19" height=".3"/><rect class="cls-5" x="506.11" y="59.46" width="57.19" height=".3"/><rect class="cls-5" x="449.42" y="31.11" width="57.19" height=".3"/><rect class="cls-5" x="449.42" y="59.46" width="57.19" height=".3"/><rect class="cls-5" x="492.04" y="16.84" width=".3" height="57.19"/><rect class="cls-5" x="463.69" y="16.84" width=".3" height="57.19"/><rect class="cls-5" x="392.72" y="31.11" width="57.19" height=".3"/><rect class="cls-5" x="392.72" y="59.46" width="57.19" height=".3"/><rect class="cls-5" x="492.04" y="-39.85" width=".3" height="57.19"/><rect class="cls-5" x="463.69" y="-39.85" width=".3" height="57.19"/></g><g class="cls-57"><rect class="cls-5" x="492.04" y="130.23" width=".3" height="57.19"/><rect class="cls-5" x="463.69" y="130.23" width=".3" height="57.19"/><rect class="cls-5" x="506.11" y="87.81" width="57.19" height=".3"/><rect class="cls-5" x="506.11" y="116.15" width="57.19" height=".3"/><rect class="cls-5" x="449.42" y="87.81" width="57.19" height=".3"/><rect class="cls-5" x="449.42" y="116.15" width="57.19" height=".3"/><rect class="cls-5" x="492.04" y="73.53" width=".3" height="57.19"/><rect class="cls-5" x="463.69" y="73.53" width=".3" height="57.19"/><rect class="cls-5" x="392.72" y="87.81" width="57.19" height=".3"/><rect class="cls-5" x="392.72" y="116.15" width="57.19" height=".3"/><rect class="cls-5" x="492.04" y="16.84" width=".3" height="57.19"/><rect class="cls-5" x="463.69" y="16.84" width=".3" height="57.19"/></g><g class="cls-61"><rect class="cls-5" x="492.04" y="130.23" width=".3" height="57.19"/><rect class="cls-5" x="463.69" y="130.23" width=".3" height="57.19"/><rect class="cls-5" x="492.04" y="73.53" width=".3" height="57.19"/><rect class="cls-5" x="463.69" y="73.53" width=".3" height="57.19"/></g><g class="cls-63"><rect class="cls-5" x="520.38" y="130.23" width=".3" height="57.19"/><rect class="cls-5" x="506.11" y="87.81" width="57.19" height=".3"/><rect class="cls-5" x="506.11" y="116.15" width="57.19" height=".3"/><rect class="cls-5" x="520.38" y="73.53" width=".3" height="57.19"/><rect class="cls-5" x="449.42" y="87.81" width="57.19" height=".3"/><rect class="cls-5" x="449.42" y="116.15" width="57.19" height=".3"/><rect class="cls-5" x="520.38" y="16.84" width=".3" height="57.19"/></g><g class="cls-59"><rect class="cls-5" x="492.04" y="130.23" width=".3" height="57.19"/><rect class="cls-5" x="463.69" y="130.23" width=".3" height="57.19"/><rect class="cls-5" x="506.11" y="87.81" width="57.19" height=".3"/><rect class="cls-5" x="506.11" y="116.15" width="57.19" height=".3"/><rect class="cls-5" x="449.42" y="87.81" width="57.19" height=".3"/><rect class="cls-5" x="449.42" y="116.15" width="57.19" height=".3"/><rect class="cls-5" x="492.04" y="73.53" width=".3" height="57.19"/><rect class="cls-5" x="463.69" y="73.53" width=".3" height="57.19"/><rect class="cls-5" x="392.72" y="87.81" width="57.19" height=".3"/><rect class="cls-5" x="392.72" y="116.15" width="57.19" height=".3"/><rect class="cls-5" x="492.04" y="16.84" width=".3" height="57.19"/><rect class="cls-5" x="463.69" y="16.84" width=".3" height="57.19"/></g></g><path class="cls-3" d="m69.4,127.11c-8.05,0-15.74-1.57-22.87-4.65-7.1-3.08-13.45-7.28-18.87-12.5-5.44-5.23-9.79-11.46-12.92-18.52-3.14-7.07-4.74-14.74-4.74-22.8s1.62-15.76,4.82-22.88c3.19-7.1,7.56-13.38,12.99-18.66,5.43-5.28,11.84-9.49,19.05-12.52,7.22-3.03,15.01-4.57,23.16-4.57s15.74,1.41,22.6,4.18c6.87,2.78,13.05,6.89,18.39,12.23,1.36,1.36,2.9,3.01,4.59,4.9,1.96,2.2,2.92,4.16,2.92,5.99,0,.71-.27,1.47-.84,2.4-.48.78-1.44,1.71-3.27,1.71-.77,0-1.55-.22-2.33-.64-.8-.44-1.38-.99-1.73-1.64-4.14-6.48-9.77-11.63-16.75-15.32-7.02-3.71-14.95-5.58-23.57-5.58-1.72,0-3.44.09-5.1.28v100.3c.5.06,1,.09,1.5.09h2.99c5.67,0,10.98-.7,15.79-2.09,4.8-1.38,9.21-3.39,13.11-5.95,3.91-2.57,7.39-5.65,10.35-9.16,2.96-3.5,5.35-7.47,7.13-11.81l.05-.1c.18-.36.46-.72.9-1.16.29-.29.62-.55.98-.77.49-.3,1.12-.44,1.92-.44,1.66,0,2.54.76,2.99,1.4.54.78.81,1.58.81,2.4,0,.36-.05.7-.15,1,0,0,0,0,0,0v.52l-.12.28c-2.09,4.92-4.88,9.54-8.28,13.72-3.41,4.2-7.48,7.84-12.1,10.83-4.6,2.98-9.77,5.34-15.36,7.01-5.6,1.67-11.66,2.52-18.02,2.52Zm.61-114.11c-7.75,0-15.15,1.46-22,4.34-6.86,2.88-12.96,6.89-18.12,11.9-5.16,5.01-9.32,10.98-12.35,17.74-3.02,6.73-4.55,14.02-4.55,21.66s1.51,14.9,4.48,21.58c2.98,6.7,7.1,12.62,12.26,17.57,5.17,4.97,11.22,8.98,17.99,11.92,6.74,2.92,14.04,4.41,21.67,4.41,6.07,0,11.84-.81,17.16-2.39,5.32-1.59,10.22-3.83,14.59-6.66,4.35-2.82,8.19-6.25,11.4-10.21,3.16-3.89,5.76-8.17,7.73-12.72,0-.27.05-.56.16-.87,0-.25-.09-.47-.27-.73-.08-.12-.43-.12-.54-.12-.31,0-.43.04-.43.04-.1.07-.24.17-.35.29-.2.2-.29.32-.33.37-1.89,4.6-4.44,8.81-7.58,12.52-3.15,3.73-6.85,7-11,9.73-4.15,2.73-8.84,4.86-13.92,6.33-5.07,1.47-10.66,2.21-16.62,2.21h-2.99c-1.08,0-2.18-.11-3.29-.34l-1.2-.24V15.88l1.29-.18c2.21-.31,4.5-.47,6.82-.47,9.11,0,17.51,2,24.97,5.93,7.47,3.95,13.5,9.47,17.92,16.42l.08.14s.13.21.53.43c.34.18.64.28.89.28.54,0,.65-.17.72-.28.36-.59.39-.84.39-.84,0-.7-.37-1.98-2.15-3.98-1.65-1.85-3.15-3.45-4.47-4.78-5.05-5.05-10.9-8.95-17.39-11.57-6.5-2.63-13.72-3.96-21.48-3.96Z"/><path class="cls-3" d="m158.64,122.97h-26.8v-56h26.8v6.93c1.69-1.96,3.51-3.68,5.44-5.17,3.15-2.43,6.54-3.66,10.06-3.66.75,0,1.55.08,2.41.22.89.16,1.74.41,2.51.76.88.39,1.62.96,2.2,1.67.66.81.99,1.8.99,2.95,0,1.33-.51,2.52-1.47,3.44-.95.9-2.14,1.36-3.53,1.36-.79,0-1.73-.29-2.97-.91-.8-.4-1.59-.59-2.43-.59-1.43,0-2.77.3-3.99.9-1.29.63-2.54,1.49-3.69,2.56-1.18,1.08-2.25,2.33-3.18,3.69-.89,1.3-1.67,2.68-2.34,4.09v37.77Zm-23.8-3h20.8v-35.43l.14-.3c.76-1.66,1.68-3.29,2.72-4.82,1.06-1.55,2.28-2.97,3.62-4.21,1.37-1.26,2.85-2.29,4.41-3.04,1.63-.8,3.42-1.2,5.31-1.2,1.3,0,2.57.31,3.77.91,1.13.56,1.56.59,1.63.59.61,0,1.08-.17,1.47-.54.37-.35.53-.74.53-1.26,0-.6-.18-.89-.32-1.06-.29-.35-.65-.62-1.1-.83-.55-.25-1.15-.43-1.79-.54-.68-.12-1.32-.18-1.89-.18-2.89,0-5.58.99-8.23,3.04-2.77,2.13-5.3,4.83-7.54,8.02l-2.73,3.9v-13.06h-20.8v50Z"/><path class="cls-3" d="m210.34,125.87c-3.91,0-7.72-.76-11.33-2.27-3.59-1.5-6.79-3.58-9.51-6.2-2.72-2.62-4.93-5.73-6.57-9.25-1.65-3.55-2.49-7.41-2.49-11.48s.8-8.27,2.37-11.94c1.57-3.67,3.77-6.89,6.53-9.58,2.76-2.69,6.03-4.83,9.72-6.36,3.7-1.54,7.76-2.31,12.08-2.31,2.32,0,4.7.32,7.08.95,2.4.63,4.65,1.6,6.71,2.87,4.67,2.93,8.17,6.48,10.42,10.55,2.23,4.04,3.57,9.13,3.98,15.12v.1s0,.1,0,.1c-.12,1.72-1.28,2.87-3.12,3.09h-.17s-30.4,0-30.4,0v19.7c1.37.26,2.84.4,4.4.4,4.43,0,8.56-1.15,12.27-3.43,3.75-2.3,6.86-5.42,9.26-9.26.61-.97,1.59-1.51,2.77-1.51.93,0,1.8.38,2.51,1.09.71.72,1.09,1.62,1.09,2.61,0,.37-.09.8-.28,1.37l-.15.31c-2.92,4.73-6.84,8.5-11.64,11.22-4.81,2.72-10.04,4.09-15.54,4.09Zm-1.42-56.32c-3.09.22-6.01.89-8.71,2.01-3.34,1.39-6.29,3.32-8.78,5.74-2.48,2.42-4.45,5.31-5.87,8.62-1.41,3.3-2.13,6.92-2.13,10.76,0,3.63.74,7.07,2.21,10.22,1.48,3.18,3.47,5.99,5.93,8.35,2.46,2.36,5.35,4.25,8.59,5.6,3.24,1.35,6.66,2.04,10.17,2.04,4.98,0,9.71-1.25,14.06-3.71,4.3-2.43,7.82-5.81,10.46-10.03.06-.21.07-.3.07-.3,0-.17-.06-.3-.21-.46-.21-.21-.33-.21-.39-.21-.17,0-.18.02-.23.09h0c-2.65,4.25-6.09,7.69-10.24,10.24-4.19,2.57-8.84,3.87-13.83,3.87-2.25,0-4.36-.25-6.28-.75l-1.12-.29v-25.06h33.3c.28-.04.36-.11.37-.12,0,0,.01-.03.03-.11-.39-5.5-1.61-10.12-3.61-13.75-2-3.62-5.16-6.8-9.38-9.45-1.79-1.11-3.78-1.96-5.89-2.52-2.34-.62-4.67-.89-6.93-.84,1.27.02,2.54.13,3.78.31,1.47.22,2.95.62,4.39,1.19l.94.38v24.52h-17v-25.17l1.14-.28c1.66-.41,3.38-.71,5.15-.87Zm-3.28,23.32h11v-19.45c-.92-.31-1.84-.53-2.77-.66-1.27-.19-2.58-.28-3.88-.28-1.49.1-2.94.3-4.35.6v19.8Z"/><path class="cls-3" d="m265.44,125.77c-3.1,0-6.02-.5-8.67-1.49-2.67-1-5.02-2.41-6.98-4.2-1.98-1.79-3.55-3.96-4.66-6.45-1.12-2.48-1.68-5.23-1.68-8.16,0-3.51.74-6.62,2.18-9.27,1.43-2.6,3.31-4.82,5.6-6.57,2.27-1.74,4.87-3.05,7.74-3.9,5.83-1.73,12.1-1.59,17.76-.11,2.05.54,4,1.29,5.82,2.24v-12.32c-.14-.31-.41-.63-.79-.95-.58-.47-1.3-.89-2.13-1.23-.86-.36-1.81-.63-2.84-.81-1.05-.18-2.1-.28-3.14-.28-3.52,0-6.59.71-9.12,2.11-2.62,1.46-5.28,3.58-7.89,6.32l-.19.17c-.82.61-1.52.9-2.2.9-.98,0-1.91-.49-2.77-1.45-.81-.91-1.23-1.87-1.23-2.85,0-.92.39-1.73,1.14-2.35,4.29-3.59,8.89-6.05,13.68-7.3,4.7-1.23,9.74-1.85,14.98-1.85,1.62,0,3.58.05,5.82.15,2.3.1,4.69.42,7.1.93,2.43.52,4.8,1.33,7.04,2.42,2.34,1.14,4.31,2.75,5.85,4.8,1.69,2.35,2.71,4.87,3.04,7.51.31,2.45.46,4.97.46,7.49v23.4c0,2,.22,3.59.65,4.71.75,1.95.85,2.65.85,3.09,0,1.17-.61,1.71-.97,1.93-.16.09-.32.2-.5.32l-.16.09c-.48.24-.93.36-1.37.36h-25.3v-4.07c-1.83,1.43-3.81,2.74-5.92,3.93-3.25,1.82-7.01,2.74-11.18,2.74Zm2.2-38.3c-2.64,0-5.27.38-7.82,1.14-2.51.74-4.79,1.89-6.76,3.4-1.96,1.5-3.57,3.39-4.8,5.63-1.21,2.2-1.82,4.83-1.82,7.83,0,2.51.48,4.84,1.42,6.93.94,2.1,2.27,3.94,3.94,5.46,1.68,1.53,3.71,2.74,6.02,3.61,2.32.87,4.89,1.3,7.62,1.3.58,0,1.14-.02,1.7-.06v-35.01l1.57.08c2.93.14,5.85.71,8.67,1.68,2.86.99,5.43,2.43,7.62,4.27l.54.45v17.69l-.4.43c-1.84,1.98-3.78,3.79-5.76,5.39-.16.13-.32.25-.48.37,1.47-1.03,2.85-2.13,4.12-3.3l2.51-2.3v7.71h22.23c-.08-.29-.24-.81-.58-1.71-.57-1.49-.85-3.38-.85-5.79v-23.4c0-2.39-.15-4.78-.44-7.11-.27-2.14-1.1-4.19-2.48-6.11-1.23-1.64-2.83-2.95-4.74-3.88-2.02-.98-4.16-1.71-6.36-2.18-2.24-.48-4.46-.77-6.6-.87-2.2-.1-4.11-.15-5.68-.15-2.06,0-4.09.1-6.08.3,1.11.02,2.23.12,3.34.32,1.24.22,2.4.55,3.46.99,1.1.45,2.06,1.02,2.87,1.67.94.76,1.56,1.63,1.84,2.58l.06.21v18.2l-2.32-1.53c-2.19-1.44-4.63-2.51-7.26-3.2-2.66-.7-5.46-1.05-8.32-1.05Zm8.57,32.33c-1.25.68-2.6,1.25-4.02,1.7l-.09.02c-.53.13-1.04.26-1.53.4-.5.14-1.03.27-1.57.41l-1.39.35c2.79-.25,5.32-1.01,7.54-2.26.35-.2.71-.4,1.05-.61Zm-6.07-28.91v28.04c.39-.1.78-.2,1.19-.31,2.33-.74,4.4-1.84,6.17-3.27,1.73-1.4,3.42-2.97,5.04-4.68v-15.09c-1.79-1.4-3.86-2.51-6.14-3.3-2.04-.71-4.14-1.18-6.26-1.4Zm-6.06-19.65c-3.74,1.24-7.36,3.32-10.78,6.18-.06.05-.07.07-.07.07,0,.18.18.49.48.83.25.28.42.39.5.43.07-.03.18-.09.34-.21,2.79-2.91,5.66-5.19,8.51-6.78.33-.18.67-.36,1.02-.52Z"/><path class="cls-3" d="m341.34,125.87c-3.62,0-6.7-.65-9.14-1.92-2.42-1.26-4.39-2.89-5.85-4.83-1.45-1.91-2.48-4.03-3.05-6.28-.56-2.17-.85-4.22-.85-6.07v-33.5l-4.86-.04c-.86-.21-1.54-.63-2.01-1.22-.48-.59-.72-1.25-.72-1.93,0-.74.27-2.54,2.74-3.15l.36-.04h4.5v-5.37l22.67-10.33h.39c.81-.23,1.62-.08,2.4.31.5.25,1.33.9,1.33,2.49v12.9h6.96c.97.12,1.75.48,2.3,1.1.55.61.83,1.34.83,2.1s-.29,1.5-.83,2.1c-.55.61-1.33.98-2.3,1.09h-.16s-6.8,0-6.8,0v41.6c0,1.54.31,2.03.4,2.14.25.3.46.36.7.36,0,0,.14-.01.58-.12l1.45-.72c1.35-.71,2.64-1.72,3.81-3.02,1.21-1.33,2.19-2.72,2.93-4.13.82-1.62,2.66-2.03,4.51-1.11.97.49,1.53,1.4,1.53,2.49,0,.57-.15,1.16-.46,1.77-.91,2.1-2.26,4.06-3.99,5.75-1.7,1.67-3.66,3.07-5.82,4.17-2.12,1.08-4.38,1.92-6.71,2.52-2.35.59-4.65.9-6.82.9Zm-23.19-55.6h7.29v36.5c0,1.6.25,3.4.75,5.32.48,1.87,1.34,3.62,2.54,5.22,1.19,1.58,2.82,2.92,4.85,3.97,2.01,1.05,4.62,1.58,7.76,1.58,1.93,0,3.97-.27,6.08-.8,2.11-.54,4.16-1.31,6.09-2.28,1.89-.96,3.6-2.18,5.08-3.63,1.45-1.42,2.59-3.06,3.37-4.88.09-.18.13-.3.15-.38-.15-.07-.27-.1-.36-.11-.85,1.63-1.98,3.23-3.36,4.75-1.41,1.55-2.98,2.79-4.67,3.67l-1.93.93c-.69.17-1.12.25-1.46.25-1.18,0-2.22-.5-3-1.44-.74-.89-1.1-2.21-1.1-4.06v-44.6h9.71c.25-.04.33-.1.33-.1.05-.05.06-.09.07-.09,0,0-.01-.04-.07-.1h0s-.07-.06-.33-.1h-9.71v-15.79c-.15.04-.31.07-.46.08l-20.34,9.27v6.44h-7.29c-.22.07-.3.14-.31.15,0,0,.02.04.08.11.03.04.11.09.24.14Zm27.26-19.07s-.01,0-.02,0c0,0,.01,0,.02,0Z"/><path class="cls-3" d="m395.84,122.97h-26.8v-56h26.8v56Zm-23.8-3h20.8v-50h-20.8v50Zm10.6-54.7c-4.1,0-7.5-.72-10.11-2.13-2.91-1.58-4.39-3.55-4.39-5.87,0-2.57,1.47-4.71,4.36-6.35,2.62-1.49,6.03-2.25,10.14-2.25s7.51.74,10.13,2.19c2.9,1.61,4.37,3.67,4.37,6.11s-1.47,4.5-4.37,6.11c-2.61,1.45-6.02,2.19-10.13,2.19Zm0-13.6c-3.58,0-6.5.62-8.66,1.85-2.84,1.62-2.84,3.22-2.84,3.75,0,1.13.95,2.22,2.81,3.23,2.17,1.17,5.09,1.77,8.69,1.77s6.51-.61,8.67-1.81c2.83-1.57,2.83-3.01,2.83-3.49s0-1.92-2.83-3.49c-2.16-1.2-5.08-1.81-8.67-1.81Z"/><path class="cls-3" d="m437.64,124.17c-.74,0-1.49-.29-2.23-.87-.64-.5-1.12-1.12-1.42-1.85l-34.06-54.68h31.14l17.73,28.69c1.43-2.42,2.9-4.89,4.4-7.37,1.85-3.05,3.75-6.24,5.64-9.48,1.11-1.84,2.18-3.83,3.19-5.94,1.06-2.21,2.04-4.06,2.93-5.49h0c.99-1.59,2.73-1.98,4.71-.87,1.01.57,1.56,1.55,1.56,2.76,0,.64-.18,1.32-.56,2.07-.28.57-.61,1.16-1.01,1.81-.38.62-.77,1.24-1.18,1.85-.38.57-.69,1.07-.94,1.51-4.36,7.67-8.88,15.34-13.42,22.79-4.5,7.37-8.89,15.1-13.06,22.97-.44.77-.99,1.31-1.65,1.64-.61.3-1.2.46-1.77.46Zm-32.3-54.4l31.4,50.47c.1.28.27.5.52.7.26.21.39.23.39.23,0,0,.14,0,.41-.14.13-.06.25-.2.37-.4,4.17-7.88,8.59-15.66,13.12-23.09,4.52-7.42,9.03-15.06,13.38-22.71.28-.49.64-1.06,1.06-1.69.39-.58.76-1.17,1.12-1.75.35-.58.64-1.1.89-1.59.22-.45.24-.67.24-.73,0-.1-.02-.14-.02-.14-.38-.2-.58-.25-.65-.26,0,.02-.03.04-.06.09-.83,1.34-1.76,3.09-2.77,5.2-1.05,2.2-2.17,4.28-3.32,6.18-1.89,3.23-3.79,6.44-5.65,9.5-1.94,3.2-3.83,6.39-5.64,9.48l-1.26,2.16-19.47-31.51h-24.06Z"/><path class="cls-3" d="m501.04,125.87c-3.91,0-7.72-.76-11.33-2.27-3.59-1.5-6.79-3.58-9.51-6.2-2.72-2.62-4.93-5.73-6.57-9.25-1.65-3.55-2.49-7.41-2.49-11.48s.8-8.27,2.37-11.94c1.57-3.67,3.77-6.89,6.53-9.58,2.76-2.69,6.03-4.83,9.72-6.36,3.7-1.54,7.76-2.31,12.08-2.31,2.32,0,4.7.32,7.08.95,2.4.63,4.65,1.6,6.71,2.87,4.67,2.93,8.17,6.48,10.42,10.55,2.23,4.04,3.57,9.13,3.98,15.12v.1s0,.1,0,.1c-.12,1.72-1.28,2.87-3.12,3.09h-.17s-30.4,0-30.4,0v19.7c1.37.26,2.84.4,4.4.4,4.43,0,8.56-1.15,12.27-3.43,3.75-2.3,6.86-5.42,9.26-9.26.61-.97,1.59-1.51,2.77-1.51.93,0,1.8.38,2.51,1.09.71.72,1.09,1.62,1.09,2.61,0,.37-.09.8-.28,1.37l-.15.31c-2.92,4.73-6.84,8.5-11.64,11.22-4.81,2.72-10.04,4.09-15.54,4.09Zm-1.42-56.32c-3.09.22-6.01.89-8.71,2.01-3.34,1.39-6.29,3.32-8.78,5.74-2.48,2.42-4.45,5.31-5.87,8.62-1.41,3.3-2.13,6.92-2.13,10.76,0,3.63.74,7.07,2.21,10.22,1.48,3.18,3.47,5.99,5.93,8.35,2.46,2.36,5.35,4.25,8.59,5.6,3.24,1.35,6.66,2.04,10.17,2.04,4.98,0,9.71-1.25,14.06-3.71,4.3-2.43,7.82-5.81,10.46-10.03.06-.21.07-.3.07-.3,0-.17-.06-.3-.21-.46-.21-.21-.33-.21-.39-.21-.17,0-.18.02-.23.09h0c-2.65,4.25-6.09,7.69-10.24,10.24-4.19,2.57-8.84,3.87-13.83,3.87-2.25,0-4.36-.25-6.28-.75l-1.12-.29v-25.06h33.3c.28-.04.36-.11.37-.12,0,0,.01-.03.03-.11-.39-5.5-1.61-10.12-3.61-13.75-2-3.62-5.16-6.8-9.38-9.45-1.79-1.11-3.78-1.96-5.89-2.52-2.34-.62-4.67-.89-6.93-.84,1.27.02,2.54.13,3.78.31,1.47.22,2.95.62,4.39,1.19l.94.38v24.52h-17v-25.17l1.14-.28c1.66-.41,3.38-.71,5.15-.87Zm-3.28,23.32h11v-19.45c-.92-.31-1.84-.53-2.77-.66-1.27-.19-2.58-.28-3.88-.28-1.49.1-2.94.3-4.35.6v19.8Z"/><path class="cls-6" d="m117.17,90.44c.1-.2.31-.46.61-.77.2-.2.43-.38.69-.54.25-.15.64-.23,1.15-.23.82,0,1.41.26,1.77.77.36.51.54,1.02.54,1.54,0,.21-.03.38-.08.54-.05.15-.08.28-.08.38v.31c-2.05,4.81-4.74,9.27-8.06,13.36-3.33,4.1-7.24,7.6-11.75,10.52-4.51,2.92-9.5,5.2-14.97,6.83-5.48,1.64-11.34,2.46-17.59,2.46-7.89,0-15.31-1.51-22.27-4.53-6.96-3.02-13.11-7.09-18.43-12.21-5.32-5.12-9.52-11.13-12.59-18.05-3.07-6.91-4.61-14.31-4.61-22.19,0-7.88,1.56-15.31,4.68-22.27,3.12-6.96,7.35-13.03,12.67-18.2,5.32-5.17,11.52-9.24,18.58-12.21,7.06-2.97,14.59-4.45,22.58-4.45,7.99,0,15.33,1.36,22.04,4.07,6.7,2.71,12.67,6.68,17.89,11.9,1.33,1.33,2.84,2.94,4.53,4.84,1.69,1.9,2.53,3.56,2.53,4.99,0,.41-.21.95-.61,1.61-.41.67-1.08,1-2,1-.51,0-1.05-.15-1.61-.46-.56-.31-.95-.66-1.15-1.08-4.3-6.76-10.09-12.06-17.36-15.9-7.27-3.84-15.36-5.76-24.27-5.76-2.25,0-4.45.15-6.6.46v102.9c1.02.21,2.02.31,3,.31.97,0,1.97,0,2.99,0,5.84,0,11.24-.71,16.2-2.15,4.97-1.43,9.47-3.48,13.52-6.14,4.04-2.66,7.6-5.81,10.67-9.45,3.07-3.63,5.53-7.7,7.37-12.21Z"/><path class="cls-6" d="m133.34,68.47h23.8v9.8c2.33-3.33,4.95-6.12,7.85-8.35,2.9-2.23,5.95-3.35,9.15-3.35.67,0,1.38.07,2.15.2.77.13,1.48.35,2.15.65.67.3,1.22.72,1.65,1.25.43.53.65,1.2.65,2,0,.93-.34,1.72-1,2.35-.67.63-1.5.95-2.5.95-.54,0-1.3-.25-2.3-.75-1-.5-2.03-.75-3.1-.75-1.67,0-3.22.35-4.65,1.05-1.43.7-2.78,1.63-4.05,2.8-1.27,1.17-2.4,2.48-3.4,3.95-1,1.47-1.87,3-2.6,4.6v36.6c-7.93,0-15.87,0-23.8,0v-53Z"/><path class="cls-6" d="m232.84,107.47c.33-.53.83-.8,1.5-.8.53,0,1.02.22,1.45.65.43.43.65.95.65,1.55,0,.2-.07.5-.2.9-2.8,4.53-6.5,8.1-11.1,10.7-4.6,2.6-9.53,3.9-14.8,3.9-3.73,0-7.32-.72-10.75-2.15-3.43-1.43-6.45-3.4-9.05-5.9-2.6-2.5-4.68-5.43-6.25-8.8-1.57-3.37-2.35-6.98-2.35-10.85,0-4.07.75-7.85,2.25-11.35,1.5-3.5,3.57-6.53,6.2-9.1,2.63-2.57,5.72-4.58,9.25-6.05,3.53-1.47,7.37-2.2,11.5-2.2,2.2,0,4.43.3,6.7.9,2.27.6,4.37,1.5,6.3,2.7,4.47,2.8,7.77,6.13,9.9,10,2.13,3.87,3.4,8.7,3.8,14.5-.07,1-.67,1.57-1.8,1.7h-31.9v22.4c1.8.47,3.77.7,5.9.7,4.73,0,9.08-1.22,13.05-3.65,3.96-2.43,7.21-5.68,9.75-9.75Zm-22.9-36.5c-2,.13-3.93.43-5.8.9v22.5h14v-22c-1.34-.53-2.68-.9-4.05-1.1-1.37-.2-2.75-.3-4.15-.3Z"/><path class="cls-6" d="m255.54,79.67c-.53.4-.97.6-1.3.6-.54,0-1.08-.32-1.65-.95-.57-.63-.85-1.25-.85-1.85,0-.47.2-.87.6-1.2,4.13-3.47,8.5-5.8,13.1-7,4.6-1.2,9.47-1.8,14.6-1.8,1.6,0,3.52.05,5.75.15,2.23.1,4.52.4,6.85.9,2.33.5,4.57,1.27,6.7,2.3,2.13,1.04,3.9,2.48,5.3,4.35,1.53,2.13,2.45,4.4,2.75,6.8.3,2.4.45,4.83.45,7.3v23.4c0,2.2.25,3.95.75,5.25.5,1.3.75,2.15.75,2.55,0,.33-.08.55-.25.65-.17.1-.35.22-.55.35-.27.13-.5.2-.7.2h-23.8v-5.8c-2.4,2.2-5.12,4.15-8.15,5.85-3.03,1.7-6.52,2.55-10.45,2.55-2.93,0-5.65-.47-8.15-1.4-2.5-.93-4.67-2.23-6.5-3.9-1.83-1.67-3.27-3.65-4.3-5.95-1.04-2.3-1.55-4.82-1.55-7.55,0-3.27.67-6.12,2-8.55,1.33-2.43,3.07-4.47,5.2-6.1,2.13-1.63,4.55-2.85,7.25-3.65,2.7-.8,5.45-1.2,8.25-1.2,3,0,5.9.37,8.7,1.1,2.8.73,5.37,1.87,7.7,3.4v-15.2c-.2-.67-.65-1.28-1.35-1.85-.7-.57-1.53-1.05-2.5-1.45-.97-.4-2.02-.7-3.15-.9-1.13-.2-2.27-.3-3.4-.3-3.8,0-7.08.77-9.85,2.3-2.77,1.54-5.52,3.73-8.25,6.6Zm16.2,40.4c2.53-.8,4.77-1.98,6.7-3.55,1.93-1.57,3.8-3.32,5.6-5.25v-16.4c-2.07-1.73-4.45-3.07-7.15-4-2.7-.93-5.45-1.47-8.25-1.6v31.6c.53-.13,1.05-.27,1.55-.4.5-.13,1.02-.27,1.55-.4Z"/><path class="cls-6" d="m360.44,110.07c.27-.53.67-.8,1.2-.8.4,0,.83.12,1.3.35.47.23.7.62.7,1.15,0,.33-.1.7-.3,1.1-.87,2-2.1,3.78-3.7,5.35-1.6,1.57-3.42,2.87-5.45,3.9-2.03,1.03-4.17,1.83-6.4,2.4-2.23.57-4.38.85-6.45.85-3.4,0-6.22-.58-8.45-1.75-2.23-1.17-4.02-2.63-5.35-4.4-1.33-1.77-2.27-3.68-2.8-5.75-.54-2.07-.8-3.97-.8-5.7v-35h-6c-.53-.13-.93-.37-1.2-.7-.27-.33-.4-.67-.4-1,0-.87.53-1.43,1.6-1.7h6v-5.9c7.17-3.27,14.33-6.53,21.5-9.8h.2c.07,0,.15-.02.25-.05.1-.03.22-.05.35-.05.33,0,.67.08,1,.25.33.17.5.55.5,1.15v14.4h8.3c.6.07,1.05.27,1.35.6.3.33.45.7.45,1.1,0,.4-.15.77-.45,1.1-.3.33-.75.53-1.35.6h-8.3v43.1c0,1.47.25,2.5.75,3.1.5.6,1.12.9,1.85.9.2,0,.57-.07,1.1-.2.53-.27,1.07-.53,1.6-.8,1.53-.8,2.95-1.92,4.25-3.35,1.3-1.43,2.35-2.92,3.15-4.45Z"/><path class="cls-6" d="m369.64,57.27c0-2,1.2-3.68,3.6-5.05,2.4-1.37,5.53-2.05,9.4-2.05,3.87,0,7,.67,9.4,2,2.4,1.33,3.6,2.93,3.6,4.8,0,1.87-1.2,3.47-3.6,4.8-2.4,1.33-5.54,2-9.4,2-3.87,0-7-.65-9.4-1.95-2.4-1.3-3.6-2.82-3.6-4.55Zm.9,11.2h23.8c0,17.67,0,35.33,0,53-7.93,0-15.87,0-23.8,0v-53Z"/><path class="cls-6" d="m466.24,67.97c.33-.53.77-.8,1.3-.8.4,0,.87.15,1.4.45.53.3.8.78.8,1.45,0,.4-.13.87-.4,1.4-.27.53-.59,1.1-.95,1.7-.37.6-.75,1.2-1.15,1.8-.4.6-.73,1.13-1,1.6-4.4,7.73-8.87,15.32-13.4,22.75-4.53,7.43-8.9,15.12-13.1,23.05-.27.46-.6.8-1,1-.4.2-.77.3-1.1.3-.4,0-.83-.18-1.3-.55-.47-.37-.8-.82-1-1.35-10.9-17.5-21.8-35-32.7-52.5h27.6c6.2,10.03,12.4,20.07,18.6,30.1,1.87-3.2,3.75-6.37,5.65-9.5,1.9-3.13,3.78-6.3,5.65-9.5,1.13-1.87,2.22-3.88,3.25-6.05,1.03-2.17,1.98-3.95,2.85-5.35Z"/><path class="cls-6" d="m523.54,107.47c.33-.53.83-.8,1.5-.8.53,0,1.02.22,1.45.65.43.43.65.95.65,1.55,0,.2-.07.5-.2.9-2.8,4.53-6.5,8.1-11.1,10.7-4.6,2.6-9.53,3.9-14.8,3.9-3.73,0-7.32-.72-10.75-2.15-3.43-1.43-6.45-3.4-9.05-5.9-2.6-2.5-4.68-5.43-6.25-8.8-1.57-3.37-2.35-6.98-2.35-10.85,0-4.07.75-7.85,2.25-11.35,1.5-3.5,3.57-6.53,6.2-9.1,2.63-2.57,5.72-4.58,9.25-6.05,3.53-1.47,7.36-2.2,11.5-2.2,2.2,0,4.43.3,6.7.9,2.27.6,4.36,1.5,6.3,2.7,4.47,2.8,7.77,6.13,9.9,10,2.13,3.87,3.4,8.7,3.8,14.5-.07,1-.67,1.57-1.8,1.7h-31.9v22.4c1.8.47,3.77.7,5.9.7,4.73,0,9.08-1.22,13.05-3.65,3.97-2.43,7.21-5.68,9.75-9.75Zm-22.9-36.5c-2,.13-3.93.43-5.8.9v22.5h14v-22c-1.34-.53-2.68-.9-4.05-1.1-1.37-.2-2.75-.3-4.15-.3Z"/><path class="cls-6" d="m117.17,90.44c.1-.2.31-.46.61-.77.2-.2.43-.38.69-.54.25-.15.64-.23,1.15-.23.82,0,1.41.26,1.77.77.36.51.54,1.02.54,1.54,0,.21-.03.38-.08.54-.05.15-.08.28-.08.38v.31c-2.05,4.81-4.74,9.27-8.06,13.36-3.33,4.1-7.24,7.6-11.75,10.52-4.51,2.92-9.5,5.2-14.97,6.83-5.48,1.64-11.34,2.46-17.59,2.46-7.89,0-15.31-1.51-22.27-4.53-6.96-3.02-13.11-7.09-18.43-12.21-5.32-5.12-9.52-11.13-12.59-18.05-3.07-6.91-4.61-14.31-4.61-22.19,0-7.88,1.56-15.31,4.68-22.27,3.12-6.96,7.35-13.03,12.67-18.2,5.32-5.17,11.52-9.24,18.58-12.21,7.06-2.97,14.59-4.45,22.58-4.45,7.99,0,15.33,1.36,22.04,4.07,6.7,2.71,12.67,6.68,17.89,11.9,1.33,1.33,2.84,2.94,4.53,4.84,1.69,1.9,2.53,3.56,2.53,4.99,0,.41-.21.95-.61,1.61-.41.67-1.08,1-2,1-.51,0-1.05-.15-1.61-.46-.56-.31-.95-.66-1.15-1.08-4.3-6.76-10.09-12.06-17.36-15.9-7.27-3.84-15.36-5.76-24.27-5.76-2.25,0-4.45.15-6.6.46v102.9c1.02.21,2.02.31,3,.31.97,0,1.97,0,2.99,0,5.84,0,11.24-.71,16.2-2.15,4.97-1.43,9.47-3.48,13.52-6.14,4.04-2.66,7.6-5.81,10.67-9.45,3.07-3.63,5.53-7.7,7.37-12.21Z"/></g></svg>