<?xml version="1.0" encoding="UTF-8"?><svg id="Layer_2" xmlns="http://www.w3.org/2000/svg" xmlns:xlink="http://www.w3.org/1999/xlink" viewBox="0 0 484.42 132.72"><defs><style>.cls-1{fill:none;}.cls-2{clip-path:url(#clippath);}.cls-3{fill:#fff;}.cls-4{fill:#ba0c2f;}.cls-5{fill:#231f20;}.cls-6{fill:#1a1a1a;}.cls-7{clip-path:url(#clippath-1);}.cls-8{clip-path:url(#clippath-4);}.cls-9{clip-path:url(#clippath-3);}.cls-10{clip-path:url(#clippath-2);}.cls-11{clip-path:url(#clippath-7);}.cls-12{clip-path:url(#clippath-8);}.cls-13{clip-path:url(#clippath-6);}.cls-14{clip-path:url(#clippath-5);}.cls-15{clip-path:url(#clippath-9);}.cls-16{clip-path:url(#clippath-60);}.cls-17{clip-path:url(#clippath-20);}.cls-18{clip-path:url(#clippath-21);}.cls-19{clip-path:url(#clippath-24);}.cls-20{clip-path:url(#clippath-23);}.cls-21{clip-path:url(#clippath-22);}.cls-22{clip-path:url(#clippath-25);}.cls-23{clip-path:url(#clippath-44);}.cls-24{clip-path:url(#clippath-45);}.cls-25{clip-path:url(#clippath-40);}.cls-26{clip-path:url(#clippath-42);}.cls-27{clip-path:url(#clippath-41);}.cls-28{clip-path:url(#clippath-47);}.cls-29{clip-path:url(#clippath-43);}.cls-30{clip-path:url(#clippath-46);}.cls-31{clip-path:url(#clippath-48);}.cls-32{clip-path:url(#clippath-49);}.cls-33{clip-path:url(#clippath-27);}.cls-34{clip-path:url(#clippath-28);}.cls-35{clip-path:url(#clippath-26);}.cls-36{clip-path:url(#clippath-29);}.cls-37{clip-path:url(#clippath-34);}.cls-38{clip-path:url(#clippath-35);}.cls-39{clip-path:url(#clippath-36);}.cls-40{clip-path:url(#clippath-37);}.cls-41{clip-path:url(#clippath-39);}.cls-42{clip-path:url(#clippath-33);}.cls-43{clip-path:url(#clippath-32);}.cls-44{clip-path:url(#clippath-30);}.cls-45{clip-path:url(#clippath-38);}.cls-46{clip-path:url(#clippath-31);}.cls-47{clip-path:url(#clippath-53);}.cls-48{clip-path:url(#clippath-54);}.cls-49{clip-path:url(#clippath-50);}.cls-50{clip-path:url(#clippath-51);}.cls-51{clip-path:url(#clippath-52);}.cls-52{clip-path:url(#clippath-55);}.cls-53{clip-path:url(#clippath-56);}.cls-54{clip-path:url(#clippath-57);}.cls-55{clip-path:url(#clippath-58);}.cls-56{clip-path:url(#clippath-61);}.cls-57{clip-path:url(#clippath-62);}.cls-58{clip-path:url(#clippath-59);}.cls-59{clip-path:url(#clippath-63);}.cls-60{clip-path:url(#clippath-14);}.cls-61{clip-path:url(#clippath-13);}.cls-62{clip-path:url(#clippath-12);}.cls-63{clip-path:url(#clippath-10);}.cls-64{clip-path:url(#clippath-15);}.cls-65{clip-path:url(#clippath-17);}.cls-66{clip-path:url(#clippath-16);}.cls-67{clip-path:url(#clippath-19);}.cls-68{clip-path:url(#clippath-11);}.cls-69{clip-path:url(#clippath-18);}</style><clipPath id="clippath"><path class="cls-1" d="m1.5,126.14V1.5h58.5c8.6,0,16.73.99,24.17,2.95,8.27,2.18,15.61,6.3,21.82,12.26,5.91,5.68,10.67,12.54,14.13,20.4,3.49,7.94,5.26,16.85,5.26,26.49,0,8.63-1.52,16.82-4.53,24.36-2.97,7.46-7.09,14.15-12.25,19.9-5.94,6.69-13.48,11.53-22.36,14.37-8.13,2.6-17.16,3.92-26.84,3.92H1.5Zm66.26-25.5c3.82-.39,7.32-1.06,10.46-2.01,4.55-1.37,8.35-3.81,11.62-7.44,3.28-3.68,5.9-7.87,7.75-12.43,1.79-4.41,2.71-9.51,2.71-15.17,0-6.06-1.08-11.58-3.2-16.42-2.15-4.89-5.02-9.08-8.53-12.43l-.08-.08c-3.2-3.13-6.86-5.15-11.19-6.18-3.02-.72-6.21-1.23-9.54-1.55v73.7Z"/></clipPath><clipPath id="clippath-1"><rect class="cls-1" x="92.36" y="-55.14" width="56.69" height="56.69"/></clipPath><clipPath id="clippath-2"><rect class="cls-1" x="92.36" y="1.55" width="56.69" height="56.69"/></clipPath><clipPath id="clippath-3"><rect class="cls-1" x="92.36" y="58.24" width="56.69" height="56.69"/></clipPath><clipPath id="clippath-4"><rect class="cls-1" x="92.36" y="114.94" width="56.69" height="56.69"/></clipPath><clipPath id="clippath-5"><rect class="cls-1" x="35.67" y="-55.14" width="56.69" height="56.69"/></clipPath><clipPath id="clippath-6"><rect class="cls-1" x="35.67" y="1.55" width="56.69" height="56.69"/></clipPath><clipPath id="clippath-7"><rect class="cls-1" x="35.67" y="58.24" width="56.69" height="56.69"/></clipPath><clipPath id="clippath-8"><rect class="cls-1" x="35.67" y="114.94" width="56.69" height="56.69"/></clipPath><clipPath id="clippath-9"><rect class="cls-1" x="-21.02" y="-55.14" width="56.69" height="56.69"/></clipPath><clipPath id="clippath-10"><rect class="cls-1" x="-21.02" y="1.55" width="56.69" height="56.69"/></clipPath><clipPath id="clippath-11"><rect class="cls-1" x="-21.02" y="58.24" width="56.69" height="56.69"/></clipPath><clipPath id="clippath-12"><rect class="cls-1" x="-21.02" y="114.94" width="56.69" height="56.69"/></clipPath><clipPath id="clippath-13"><rect class="cls-1" x="92.36" y="1.55" width="56.69" height="56.69"/></clipPath><clipPath id="clippath-14"><rect class="cls-1" x="92.36" y="58.24" width="56.69" height="56.69"/></clipPath><clipPath id="clippath-15"><rect class="cls-1" x="35.67" y="1.55" width="56.69" height="56.69"/></clipPath><clipPath id="clippath-16"><rect class="cls-1" x="35.67" y="58.24" width="56.69" height="56.69"/></clipPath><clipPath id="clippath-17"><path class="cls-1" d="m117.22,126.21V57.94c-.7-1.86-.88-3.57-.88-4.84,0-3.27,1.12-9.4,8.59-13.65,3.88-2.21,8.65-3.33,14.19-3.33s10.24,1.08,14.09,3.22c7.56,4.2,8.69,10.24,8.69,13.46,0,1.51-.25,3.63-1.28,5.89v67.51h-43.39Z"/></clipPath><clipPath id="clippath-18"><rect class="cls-1" x="149.05" y="1.55" width="56.69" height="56.69"/></clipPath><clipPath id="clippath-19"><rect class="cls-1" x="149.05" y="58.24" width="56.69" height="56.69"/></clipPath><clipPath id="clippath-20"><rect class="cls-1" x="149.05" y="114.94" width="56.69" height="56.69"/></clipPath><clipPath id="clippath-21"><rect class="cls-1" x="92.36" y="1.55" width="56.69" height="56.69"/></clipPath><clipPath id="clippath-22"><rect class="cls-1" x="92.36" y="58.24" width="56.69" height="56.69"/></clipPath><clipPath id="clippath-23"><rect class="cls-1" x="92.36" y="114.94" width="56.69" height="56.69"/></clipPath><clipPath id="clippath-24"><rect class="cls-1" x="154.67" y="39.76" width="43.39" height="86.45"/></clipPath><clipPath id="clippath-25"><rect class="cls-1" x="149.05" y="1.55" width="56.69" height="56.69"/></clipPath><clipPath id="clippath-26"><rect class="cls-1" x="149.05" y="58.24" width="56.69" height="56.69"/></clipPath><clipPath id="clippath-27"><rect class="cls-1" x="149.05" y="114.94" width="56.69" height="56.69"/></clipPath><clipPath id="clippath-28"><path class="cls-1" d="m190.75,126.21V57.94c-.7-1.86-.88-3.57-.88-4.84,0-3.27,1.12-9.4,8.59-13.65,3.88-2.21,8.65-3.33,14.19-3.33s10.24,1.08,14.09,3.22c7.56,4.2,8.69,10.24,8.69,13.46,0,1.51-.25,3.63-1.28,5.89v67.51h-43.39Z"/></clipPath><clipPath id="clippath-29"><rect class="cls-1" x="205.74" y="1.55" width="56.69" height="56.69"/></clipPath><clipPath id="clippath-30"><rect class="cls-1" x="205.74" y="58.24" width="56.69" height="56.69"/></clipPath><clipPath id="clippath-31"><rect class="cls-1" x="205.74" y="114.94" width="56.69" height="56.69"/></clipPath><clipPath id="clippath-32"><rect class="cls-1" x="149.05" y="1.55" width="56.69" height="56.69"/></clipPath><clipPath id="clippath-33"><rect class="cls-1" x="149.05" y="58.24" width="56.69" height="56.69"/></clipPath><clipPath id="clippath-34"><rect class="cls-1" x="149.05" y="114.94" width="56.69" height="56.69"/></clipPath><clipPath id="clippath-35"><path class="cls-1" d="m271.32,131.22c-1.39,0-2.79-.21-4.17-.64-1.08-.33-2.2-.88-3.24-1.65-.96.15-1.93.31-2.9.47-3.24.55-6.68.83-10.24.83-2.03,0-4.23-.17-6.52-.49-2.96-.42-5.72-1.3-8.23-2.61-2.89-1.51-5.34-3.63-7.27-6.31-2.26-3.13-3.41-7-3.41-11.5,0-3.82,1.02-7.42,3.03-10.7.07-.11.13-.21.2-.32-.2-.3-.39-.6-.58-.9-2.48-4.04-3.74-8.66-3.74-13.73s1.17-9.52,3.48-13.56c2.11-3.7,4.93-6.89,8.38-9.48,3.26-2.44,6.95-4.32,10.99-5.58,3.91-1.21,7.95-1.83,12.02-1.83,3.33,0,6.69.45,10.04,1.33.14-.09.26-.18.37-.28l.18-.29c2.15-3.44,5.87-5.49,9.96-5.49,3.1,0,6.02,1.21,8.23,3.4,2.23,2.25,3.44,5.2,3.44,8.37,0,2.51-.74,4.98-2.16,7.19.08.1.15.2.23.3,3.3,4.44,4.98,9.66,4.98,15.5,0,5.27-1.39,10.03-4.13,14.14-1.15,1.73-2.46,3.32-3.9,4.78,2.61,3.09,4.01,6.87,4.01,10.96,0,5.47-2.25,10.32-6.33,13.65-3.55,2.89-7.94,4.41-12.71,4.41Z"/></clipPath><clipPath id="clippath-36"><rect class="cls-1" x="262.43" y="1.55" width="56.69" height="56.69"/></clipPath><clipPath id="clippath-37"><rect class="cls-1" x="262.43" y="58.24" width="56.69" height="56.69"/></clipPath><clipPath id="clippath-38"><rect class="cls-1" x="262.43" y="114.94" width="56.69" height="56.69"/></clipPath><clipPath id="clippath-39"><rect class="cls-1" x="205.74" y="1.55" width="56.69" height="56.69"/></clipPath><clipPath id="clippath-40"><rect class="cls-1" x="205.74" y="58.24" width="56.69" height="56.69"/></clipPath><clipPath id="clippath-41"><rect class="cls-1" x="205.74" y="114.94" width="56.69" height="56.69"/></clipPath><clipPath id="clippath-42"><path class="cls-1" d="m318.21,129.06c-4.98,0-9.83-.97-14.42-2.88-4.5-1.88-8.53-4.51-11.98-7.82-3.44-3.31-6.23-7.22-8.28-11.64-2.15-4.62-3.24-9.63-3.24-14.88s1.02-10.42,3.02-15.1c1.99-4.64,4.78-8.73,8.31-12.17,3.49-3.4,7.6-6.1,12.24-8.02,4.68-1.94,9.78-2.93,15.14-2.93,3.02,0,6.09.41,9.14,1.22,3.18.84,6.17,2.13,8.91,3.82,5.86,3.68,10.3,8.21,13.21,13.49,2.8,5.07,4.46,11.26,4.96,18.4l.05.68-.05.68c-.17,2.56-1.08,4.83-2.55,6.65.79,1.63,1.2,3.41,1.2,5.26,0,1.3-.22,2.59-.71,4.04l-.37,1.11-.61.99c-3.63,5.88-8.51,10.58-14.5,13.97-6.02,3.4-12.57,5.13-19.47,5.13Zm3.91-24.03c1.18-.35,2.31-.86,3.39-1.52.31-.19.62-.39.91-.6h-4.31v2.12Z"/></clipPath><clipPath id="clippath-43"><rect class="cls-1" x="319.12" y="1.55" width="56.69" height="56.69"/></clipPath><clipPath id="clippath-44"><rect class="cls-1" x="319.12" y="58.24" width="56.69" height="56.69"/></clipPath><clipPath id="clippath-45"><rect class="cls-1" x="319.12" y="114.94" width="56.69" height="56.69"/></clipPath><clipPath id="clippath-46"><rect class="cls-1" x="262.43" y="1.55" width="56.69" height="56.69"/></clipPath><clipPath id="clippath-47"><rect class="cls-1" x="262.43" y="58.24" width="56.69" height="56.69"/></clipPath><clipPath id="clippath-48"><rect class="cls-1" x="262.43" y="114.94" width="56.69" height="56.69"/></clipPath><clipPath id="clippath-49"><rect class="cls-1" x="319.12" y="58.24" width="56.69" height="56.69"/></clipPath><clipPath id="clippath-50"><path class="cls-1" d="m345.07,126.21V54.11h43.39v1.16c4.2-1.42,8.46-2.14,12.71-2.14,3.13,0,6.23.46,9.22,1.36,3.16.96,6.06,2.4,8.62,4.29,2.83,2.1,5.14,4.79,6.85,7.99,1.8,3.37,2.71,7.2,2.71,11.4v48.04h-83.5Z"/></clipPath><clipPath id="clippath-51"><rect class="cls-1" x="375.82" y="1.55" width="56.69" height="56.69"/></clipPath><clipPath id="clippath-52"><rect class="cls-1" x="375.82" y="58.24" width="56.69" height="56.69"/></clipPath><clipPath id="clippath-53"><rect class="cls-1" x="375.82" y="114.94" width="56.69" height="56.69"/></clipPath><clipPath id="clippath-54"><rect class="cls-1" x="319.12" y="1.55" width="56.69" height="56.69"/></clipPath><clipPath id="clippath-55"><rect class="cls-1" x="319.12" y="58.24" width="56.69" height="56.69"/></clipPath><clipPath id="clippath-56"><rect class="cls-1" x="319.12" y="114.94" width="56.69" height="56.69"/></clipPath><clipPath id="clippath-57"><path class="cls-1" d="m451,129.06c-4.95,0-9.3-.96-12.93-2.85-3.51-1.83-6.41-4.25-8.62-7.17-2.1-2.78-3.6-5.87-4.45-9.18-.73-2.83-1.1-5.55-1.1-8.1v-25.24c-1.95-.78-3.62-2.01-4.9-3.62-1.67-2.08-2.57-4.58-2.57-7.21,0-4.86,2.94-9.03,7.47-10.83v-3.07l28.96-13.2h1.46c.49-.07.99-.1,1.5-.1,1.88,0,3.7.43,5.42,1.29,3.81,1.91,6.05,5.67,6.05,10.09v4.32c2.74.46,5.12,1.74,6.91,3.73,1.94,2.17,3.01,4.92,3.01,7.75,0,2.88-1.07,5.65-3.01,7.8-1.79,1.99-4.17,3.27-6.91,3.73v17.63c1.16-.4,2.39-.61,3.66-.61,1.96,0,3.89.47,5.75,1.4,3.84,1.93,6.21,5.78,6.22,10.06,0,1.81-.41,3.58-1.21,5.28-1.37,3.07-3.29,5.84-5.73,8.23-2.29,2.24-4.92,4.12-7.82,5.6-2.65,1.35-5.46,2.4-8.36,3.14-3,.76-5.96,1.14-8.8,1.14Z"/></clipPath><clipPath id="clippath-58"><rect class="cls-1" x="432.51" y="1.55" width="56.69" height="56.69"/></clipPath><clipPath id="clippath-59"><rect class="cls-1" x="432.51" y="58.24" width="56.69" height="56.69"/></clipPath><clipPath id="clippath-60"><rect class="cls-1" x="432.51" y="114.94" width="56.69" height="56.69"/></clipPath><clipPath id="clippath-61"><rect class="cls-1" x="375.82" y="1.55" width="56.69" height="56.69"/></clipPath><clipPath id="clippath-62"><rect class="cls-1" x="375.82" y="58.24" width="56.69" height="56.69"/></clipPath><clipPath id="clippath-63"><rect class="cls-1" x="375.82" y="114.94" width="56.69" height="56.69"/></clipPath></defs><g id="exported_Diligent"><path class="cls-3" d="m59.41,127.64H0V0h60c8.73,0,16.99,1.01,24.56,3,8.52,2.24,16.08,6.49,22.48,12.63,6.06,5.81,10.92,12.84,14.46,20.88,3.58,8.13,5.39,17.25,5.39,27.09,0,8.82-1.56,17.2-4.63,24.92-3.04,7.62-7.25,14.46-12.53,20.34-6.12,6.88-13.88,11.88-23.02,14.8-8.28,2.65-17.47,3.99-27.3,3.99Zm-36.41-23h23.26V23h-23.26v81.64ZM69.26,28.61v70.36c3.08-.39,5.93-.98,8.53-1.77,4.28-1.29,7.86-3.58,10.94-7.01,3.16-3.54,5.69-7.59,7.48-11.99,1.72-4.23,2.59-9.14,2.59-14.6,0-5.85-1.03-11.17-3.07-15.81-2.1-4.78-4.78-8.69-8.19-11.95l-.09-.09c-3-2.93-6.43-4.83-10.49-5.79-2.46-.58-5.03-1.03-7.7-1.34Z"/><path class="cls-3" d="m162.12,127.71h-46.39V58.22c-.7-1.96-.88-3.77-.88-5.12,0-6.12,3.41-11.57,9.34-14.96,4.11-2.34,9.13-3.52,14.93-3.52s10.74,1.15,14.82,3.41c8.54,4.75,9.46,11.91,9.46,14.77,0,1.33-.2,3.61-1.28,6.13v68.77Zm-23.39-23h.39v-29.1h-.39v29.1Z"/><path class="cls-3" d="m199.57,127.71h-46.39V38.26h46.39v89.45Zm-23.39-23h.39v-43.45h-.39v43.45Z"/><path class="cls-3" d="m235.64,127.71h-46.39V58.22c-.7-1.96-.88-3.77-.88-5.12,0-6.12,3.41-11.57,9.34-14.96,4.11-2.34,9.13-3.52,14.93-3.52s10.74,1.15,14.82,3.41c8.54,4.75,9.46,11.91,9.46,14.77,0,1.33-.2,3.61-1.28,6.13v68.77Zm-23.39-23h.39v-29.1h-.39v29.1Z"/><path class="cls-3" d="m271.32,132.72c-1.54,0-3.09-.24-4.61-.7-1.15-.36-2.22-.86-3.19-1.5-.75.12-1.5.24-2.26.37-3.32.57-6.85.85-10.49.85-2.1,0-4.37-.17-6.74-.51-3.12-.45-6.05-1.38-8.71-2.76-3.1-1.62-5.73-3.9-7.79-6.77-2.45-3.39-3.69-7.55-3.69-12.38,0-3.91,1-7.61,2.96-11-.03-.05-.06-.09-.09-.14-2.62-4.28-3.96-9.16-3.96-14.51s1.24-10.04,3.68-14.31c2.21-3.88,5.17-7.22,8.79-9.93,3.39-2.55,7.24-4.5,11.44-5.81,7.08-2.2,14.57-2.54,21.99-.74,2.45-3.69,6.54-5.87,11.02-5.87,3.5,0,6.8,1.36,9.29,3.83,2.52,2.54,3.88,5.87,3.88,9.43,0,2.46-.64,4.89-1.86,7.1,3.26,4.59,4.91,9.94,4.91,15.9,0,5.57-1.48,10.61-4.39,14.98-.96,1.44-2.01,2.78-3.17,4.04,2.3,3.15,3.52,6.87,3.52,10.86,0,5.93-2.45,11.19-6.89,14.81-3.82,3.11-8.54,4.75-13.66,4.75Z"/><path class="cls-3" d="m318.21,130.56c-5.18,0-10.23-1.01-15-3-4.68-1.95-8.86-4.68-12.44-8.12-3.57-3.43-6.47-7.5-8.6-12.09-2.24-4.82-3.38-10.04-3.38-15.51s1.06-10.82,3.14-15.69c2.07-4.82,4.97-9.08,8.64-12.65,3.62-3.53,7.9-6.33,12.71-8.33,4.87-2.02,10.15-3.04,15.71-3.04,3.14,0,6.35.43,9.53,1.27,3.32.88,6.45,2.22,9.31,4,6.09,3.82,10.69,8.53,13.74,14.04,2.9,5.26,4.63,11.66,5.14,19.02l.05.78-.05.78c-.17,2.5-1,4.79-2.34,6.71.65,1.6.99,3.33.99,5.1,0,1.47-.25,2.9-.79,4.51l-.42,1.27-.7,1.14c-3.77,6.1-8.83,10.98-15.04,14.49-6.25,3.53-13.05,5.32-20.21,5.32Zm31.87-22.02h0s0,0,0,0h0Z"/><path class="cls-3" d="m430.06,127.71h-86.5V52.61h46.39v.62c6.95-1.99,14.14-2.2,20.86-.18,3.33,1,6.38,2.52,9.07,4.52,3.01,2.23,5.46,5.09,7.28,8.49,1.92,3.59,2.88,7.66,2.88,12.11v49.54Zm-23.39-23h.39v-26.54c0-.94-.17-1.26-.17-1.27-.08-.15-.15-.27-.23-.37v28.18Zm-40.1,0h.39v-29.1h-.39v29.1Z"/><path class="cls-3" d="m451,130.56c-5.2,0-9.78-1.02-13.63-3.03-3.71-1.94-6.78-4.49-9.12-7.6-2.22-2.93-3.8-6.2-4.71-9.71-.76-2.95-1.15-5.8-1.15-8.47v-24.27c-1.79-.87-3.34-2.11-4.58-3.67-1.88-2.34-2.89-5.17-2.89-8.14,0-5.14,2.91-9.6,7.47-11.81v-3.06l30.14-13.74h1.69c2.59-.32,5.26.14,7.68,1.34,4.27,2.14,6.88,6.51,6.88,11.43v3.11c2.55.66,4.78,2,6.53,3.94,2.19,2.45,3.39,5.55,3.4,8.75,0,3.26-1.21,6.38-3.4,8.81-1.71,1.9-3.98,3.26-6.53,3.93v14.5c2.82-.48,5.82,0,8.58,1.38,4.35,2.19,7.04,6.55,7.05,11.39,0,2.03-.45,4.01-1.35,5.91-1.44,3.24-3.47,6.16-6.04,8.67-2.39,2.34-5.15,4.32-8.19,5.87-2.75,1.4-5.67,2.49-8.67,3.25-3.12.79-6.2,1.19-9.17,1.19Zm18.77-25.56h0,0Zm-24.38-39.39v36.15c0,.49.07,1.33.39,2.62v-38.95l-.39.18Z"/><path class="cls-4" d="m1.5,126.14V1.5h58.5c8.6,0,16.73.99,24.17,2.95,8.27,2.18,15.61,6.3,21.82,12.26,5.91,5.68,10.67,12.54,14.13,20.4,3.49,7.94,5.26,16.85,5.26,26.49,0,8.63-1.52,16.82-4.53,24.36-2.97,7.46-7.09,14.15-12.25,19.9-5.94,6.69-13.48,11.53-22.36,14.37-8.13,2.6-17.16,3.92-26.84,3.92H1.5Zm66.26-25.5c3.82-.39,7.32-1.06,10.46-2.01,4.55-1.37,8.35-3.81,11.62-7.44,3.28-3.68,5.9-7.87,7.75-12.43,1.79-4.41,2.71-9.51,2.71-15.17,0-6.06-1.08-11.58-3.2-16.42-2.15-4.89-5.02-9.08-8.53-12.43l-.08-.08c-3.2-3.13-6.86-5.15-11.19-6.18-3.02-.72-6.21-1.23-9.54-1.55v73.7Z"/><path class="cls-4" d="m117.22,126.21V57.94c-.7-1.86-.88-3.57-.88-4.84,0-3.27,1.12-9.4,8.59-13.65,3.88-2.21,8.65-3.33,14.19-3.33s10.24,1.08,14.09,3.22c7.56,4.2,8.69,10.24,8.69,13.46,0,1.51-.25,3.63-1.28,5.89v67.51h-43.39Z"/><rect class="cls-4" x="154.67" y="39.76" width="43.39" height="86.45"/><path class="cls-4" d="m190.75,126.21V57.94c-.7-1.86-.88-3.57-.88-4.84,0-3.27,1.12-9.4,8.59-13.65,3.88-2.21,8.65-3.33,14.19-3.33s10.24,1.08,14.09,3.22c7.56,4.2,8.69,10.24,8.69,13.46,0,1.51-.25,3.63-1.28,5.89v67.51h-43.39Z"/><path class="cls-4" d="m271.32,131.22c-1.39,0-2.79-.21-4.17-.64-1.08-.33-2.2-.88-3.24-1.65-.96.15-1.93.31-2.9.47-3.24.55-6.68.83-10.24.83-2.03,0-4.23-.17-6.52-.49-2.96-.42-5.72-1.3-8.23-2.61-2.89-1.51-5.34-3.63-7.27-6.31-2.26-3.13-3.41-7-3.41-11.5,0-3.82,1.02-7.42,3.03-10.7.07-.11.13-.21.2-.32-.2-.3-.39-.6-.58-.9-2.48-4.04-3.74-8.66-3.74-13.73s1.17-9.52,3.48-13.56c2.11-3.7,4.93-6.89,8.38-9.48,3.26-2.44,6.95-4.32,10.99-5.58,3.91-1.21,7.95-1.83,12.02-1.83,3.33,0,6.69.45,10.04,1.33.14-.09.26-.18.37-.28l.18-.29c2.15-3.44,5.87-5.49,9.96-5.49,3.1,0,6.02,1.21,8.23,3.4,2.23,2.25,3.44,5.2,3.44,8.37,0,2.51-.74,4.98-2.16,7.19.08.1.15.2.23.3,3.3,4.44,4.98,9.66,4.98,15.5,0,5.27-1.39,10.03-4.13,14.14-1.15,1.73-2.46,3.32-3.9,4.78,2.61,3.09,4.01,6.87,4.01,10.96,0,5.47-2.25,10.32-6.33,13.65-3.55,2.89-7.94,4.41-12.71,4.41Z"/><path class="cls-4" d="m318.21,129.06c-4.98,0-9.83-.97-14.42-2.88-4.5-1.88-8.53-4.51-11.98-7.82-3.44-3.31-6.23-7.22-8.28-11.64-2.15-4.62-3.24-9.63-3.24-14.88s1.02-10.42,3.02-15.1c1.99-4.64,4.78-8.73,8.31-12.17,3.49-3.4,7.6-6.1,12.24-8.02,4.68-1.94,9.78-2.93,15.14-2.93,3.02,0,6.09.41,9.14,1.22,3.18.84,6.17,2.13,8.91,3.82,5.86,3.68,10.3,8.21,13.21,13.49,2.8,5.07,4.46,11.26,4.96,18.4l.05.68-.05.68c-.17,2.56-1.08,4.83-2.55,6.65.79,1.63,1.2,3.41,1.2,5.26,0,1.3-.22,2.59-.71,4.04l-.37,1.11-.61.99c-3.63,5.88-8.51,10.58-14.5,13.97-6.02,3.4-12.57,5.13-19.47,5.13Zm3.91-24.03c1.18-.35,2.31-.86,3.39-1.52.31-.19.62-.39.91-.6h-4.31v2.12Z"/><path class="cls-4" d="m345.07,126.21V54.11h43.39v1.16c4.2-1.42,8.46-2.14,12.71-2.14,3.13,0,6.23.46,9.22,1.36,3.16.96,6.06,2.4,8.62,4.29,2.83,2.1,5.14,4.79,6.85,7.99,1.8,3.37,2.71,7.2,2.71,11.4v48.04h-83.5Z"/><path class="cls-4" d="m451,129.06c-4.95,0-9.3-.96-12.93-2.85-3.51-1.83-6.41-4.25-8.62-7.17-2.1-2.78-3.6-5.87-4.45-9.18-.73-2.83-1.1-5.55-1.1-8.1v-25.24c-1.95-.78-3.62-2.01-4.9-3.62-1.67-2.08-2.57-4.58-2.57-7.21,0-4.86,2.94-9.03,7.47-10.83v-3.07l28.96-13.2h1.46c.49-.07.99-.1,1.5-.1,1.88,0,3.7.43,5.42,1.29,3.81,1.91,6.05,5.67,6.05,10.09v4.32c2.74.46,5.12,1.74,6.91,3.73,1.94,2.17,3.01,4.92,3.01,7.75,0,2.88-1.07,5.65-3.01,7.8-1.79,1.99-4.17,3.27-6.91,3.73v17.63c1.16-.4,2.39-.61,3.66-.61,1.96,0,3.89.47,5.75,1.4,3.84,1.93,6.21,5.78,6.22,10.06,0,1.81-.41,3.58-1.21,5.28-1.37,3.07-3.29,5.84-5.73,8.23-2.29,2.24-4.92,4.12-7.82,5.6-2.65,1.35-5.46,2.4-8.36,3.14-3,.76-5.96,1.14-8.8,1.14Z"/><g class="cls-2"><g class="cls-7"><rect class="cls-5" x="134.73" y="1.3" width=".3" height="57.19"/><rect class="cls-5" x="106.38" y="1.3" width=".3" height="57.19"/><rect class="cls-5" x="134.73" y="-55.39" width=".3" height="57.19"/><rect class="cls-5" x="106.38" y="-55.39" width=".3" height="57.19"/></g><g class="cls-10"><rect class="cls-5" x="134.73" y="57.99" width=".3" height="57.19"/><rect class="cls-5" x="106.38" y="57.99" width=".3" height="57.19"/><rect class="cls-5" x="148.8" y="15.57" width="57.19" height=".3"/><rect class="cls-5" x="148.8" y="43.92" width="57.19" height=".3"/><rect class="cls-5" x="92.11" y="15.57" width="57.19" height=".3"/><rect class="cls-5" x="92.11" y="43.92" width="57.19" height=".3"/><rect class="cls-5" x="134.73" y="1.3" width=".3" height="57.19"/><rect class="cls-5" x="106.38" y="1.3" width=".3" height="57.19"/><rect class="cls-5" x="35.42" y="15.57" width="57.19" height=".3"/><rect class="cls-5" x="35.42" y="43.92" width="57.19" height=".3"/><rect class="cls-5" x="134.73" y="-55.39" width=".3" height="57.19"/><rect class="cls-5" x="106.38" y="-55.39" width=".3" height="57.19"/></g><g class="cls-9"><rect class="cls-5" x="134.73" y="114.69" width=".3" height="57.19"/><rect class="cls-5" x="106.38" y="114.69" width=".3" height="57.19"/><rect class="cls-5" x="148.8" y="72.27" width="57.19" height=".3"/><rect class="cls-5" x="148.8" y="100.61" width="57.19" height=".3"/><rect class="cls-5" x="92.11" y="72.27" width="57.19" height=".3"/><rect class="cls-5" x="92.11" y="100.61" width="57.19" height=".3"/><rect class="cls-5" x="134.73" y="57.99" width=".3" height="57.19"/><rect class="cls-5" x="106.38" y="57.99" width=".3" height="57.19"/><rect class="cls-5" x="35.42" y="72.27" width="57.19" height=".3"/><rect class="cls-5" x="35.42" y="100.61" width="57.19" height=".3"/><rect class="cls-5" x="134.73" y="1.3" width=".3" height="57.19"/><rect class="cls-5" x="106.38" y="1.3" width=".3" height="57.19"/></g><g class="cls-8"><rect class="cls-5" x="148.8" y="128.96" width="57.19" height=".3"/><rect class="cls-5" x="92.11" y="128.96" width="57.19" height=".3"/><rect class="cls-5" x="134.73" y="114.69" width=".3" height="57.19"/><rect class="cls-5" x="106.38" y="114.69" width=".3" height="57.19"/><rect class="cls-5" x="35.42" y="128.96" width="57.19" height=".3"/><rect class="cls-5" x="134.73" y="57.99" width=".3" height="57.19"/><rect class="cls-5" x="106.38" y="57.99" width=".3" height="57.19"/></g><g class="cls-14"><rect class="cls-5" x="78.04" y="1.3" width=".3" height="57.19"/><rect class="cls-5" x="49.69" y="1.3" width=".3" height="57.19"/><rect class="cls-5" x="78.04" y="-55.39" width=".3" height="57.19"/><rect class="cls-5" x="49.69" y="-55.39" width=".3" height="57.19"/></g><g class="cls-13"><rect class="cls-5" x="78.04" y="57.99" width=".3" height="57.19"/><rect class="cls-5" x="49.69" y="57.99" width=".3" height="57.19"/><rect class="cls-5" x="92.11" y="15.57" width="57.19" height=".3"/><rect class="cls-5" x="92.11" y="43.92" width="57.19" height=".3"/><rect class="cls-5" x="35.42" y="15.57" width="57.19" height=".3"/><rect class="cls-5" x="35.42" y="43.92" width="57.19" height=".3"/><rect class="cls-5" x="78.04" y="1.3" width=".3" height="57.19"/><rect class="cls-5" x="49.69" y="1.3" width=".3" height="57.19"/><rect class="cls-5" x="-21.27" y="15.57" width="57.19" height=".3"/><rect class="cls-5" x="-21.27" y="43.92" width="57.19" height=".3"/><rect class="cls-5" x="78.04" y="-55.39" width=".3" height="57.19"/><rect class="cls-5" x="49.69" y="-55.39" width=".3" height="57.19"/></g><g class="cls-11"><rect class="cls-5" x="78.04" y="114.69" width=".3" height="57.19"/><rect class="cls-5" x="49.69" y="114.69" width=".3" height="57.19"/><rect class="cls-5" x="92.11" y="72.27" width="57.19" height=".3"/><rect class="cls-5" x="92.11" y="100.61" width="57.19" height=".3"/><rect class="cls-5" x="35.42" y="72.27" width="57.19" height=".3"/><rect class="cls-5" x="35.42" y="100.61" width="57.19" height=".3"/><rect class="cls-5" x="78.04" y="57.99" width=".3" height="57.19"/><rect class="cls-5" x="49.69" y="57.99" width=".3" height="57.19"/><rect class="cls-5" x="-21.27" y="72.27" width="57.19" height=".3"/><rect class="cls-5" x="-21.27" y="100.61" width="57.19" height=".3"/><rect class="cls-5" x="78.04" y="1.3" width=".3" height="57.19"/><rect class="cls-5" x="49.69" y="1.3" width=".3" height="57.19"/></g><g class="cls-12"><rect class="cls-5" x="92.11" y="128.96" width="57.19" height=".3"/><rect class="cls-5" x="35.42" y="128.96" width="57.19" height=".3"/><rect class="cls-5" x="78.04" y="114.69" width=".3" height="57.19"/><rect class="cls-5" x="49.69" y="114.69" width=".3" height="57.19"/><rect class="cls-5" x="-21.27" y="128.96" width="57.19" height=".3"/><rect class="cls-5" x="78.04" y="57.99" width=".3" height="57.19"/><rect class="cls-5" x="49.69" y="57.99" width=".3" height="57.19"/></g><g class="cls-15"><rect class="cls-5" x="21.35" y="1.3" width=".3" height="57.19"/><rect class="cls-5" x="21.35" y="-55.39" width=".3" height="57.19"/></g><g class="cls-63"><rect class="cls-5" x="21.35" y="57.99" width=".3" height="57.19"/><rect class="cls-5" x="35.42" y="15.57" width="57.19" height=".3"/><rect class="cls-5" x="35.42" y="43.92" width="57.19" height=".3"/><rect class="cls-5" x="-21.27" y="15.57" width="57.19" height=".3"/><rect class="cls-5" x="-21.27" y="43.92" width="57.19" height=".3"/><rect class="cls-5" x="21.35" y="1.3" width=".3" height="57.19"/><rect class="cls-5" x="21.35" y="-55.39" width=".3" height="57.19"/></g><g class="cls-68"><rect class="cls-5" x="21.35" y="114.69" width=".3" height="57.19"/><rect class="cls-5" x="35.42" y="72.27" width="57.19" height=".3"/><rect class="cls-5" x="35.42" y="100.61" width="57.19" height=".3"/><rect class="cls-5" x="-21.27" y="72.27" width="57.19" height=".3"/><rect class="cls-5" x="-21.27" y="100.61" width="57.19" height=".3"/><rect class="cls-5" x="21.35" y="57.99" width=".3" height="57.19"/><rect class="cls-5" x="21.35" y="1.3" width=".3" height="57.19"/></g><g class="cls-62"><rect class="cls-5" x="35.42" y="128.96" width="57.19" height=".3"/><rect class="cls-5" x="-21.27" y="128.96" width="57.19" height=".3"/><rect class="cls-5" x="21.35" y="114.69" width=".3" height="57.19"/><rect class="cls-5" x="21.35" y="57.99" width=".3" height="57.19"/></g><g class="cls-61"><rect class="cls-5" x="134.73" y="57.99" width=".3" height="57.19"/><rect class="cls-5" x="106.38" y="57.99" width=".3" height="57.19"/><rect class="cls-5" x="148.8" y="15.57" width="57.19" height=".3"/><rect class="cls-5" x="148.8" y="43.92" width="57.19" height=".3"/><rect class="cls-5" x="92.11" y="15.57" width="57.19" height=".3"/><rect class="cls-5" x="92.11" y="43.92" width="57.19" height=".3"/><rect class="cls-5" x="134.73" y="1.3" width=".3" height="57.19"/><rect class="cls-5" x="106.38" y="1.3" width=".3" height="57.19"/><rect class="cls-5" x="35.42" y="15.57" width="57.19" height=".3"/><rect class="cls-5" x="35.42" y="43.92" width="57.19" height=".3"/><rect class="cls-5" x="134.73" y="-55.39" width=".3" height="57.19"/><rect class="cls-5" x="106.38" y="-55.39" width=".3" height="57.19"/></g><g class="cls-60"><rect class="cls-5" x="134.73" y="114.69" width=".3" height="57.19"/><rect class="cls-5" x="106.38" y="114.69" width=".3" height="57.19"/><rect class="cls-5" x="148.8" y="72.27" width="57.19" height=".3"/><rect class="cls-5" x="148.8" y="100.61" width="57.19" height=".3"/><rect class="cls-5" x="92.11" y="72.27" width="57.19" height=".3"/><rect class="cls-5" x="92.11" y="100.61" width="57.19" height=".3"/><rect class="cls-5" x="134.73" y="57.99" width=".3" height="57.19"/><rect class="cls-5" x="106.38" y="57.99" width=".3" height="57.19"/><rect class="cls-5" x="35.42" y="72.27" width="57.19" height=".3"/><rect class="cls-5" x="35.42" y="100.61" width="57.19" height=".3"/><rect class="cls-5" x="134.73" y="1.3" width=".3" height="57.19"/><rect class="cls-5" x="106.38" y="1.3" width=".3" height="57.19"/></g><g class="cls-64"><rect class="cls-5" x="78.04" y="57.99" width=".3" height="57.19"/><rect class="cls-5" x="49.69" y="57.99" width=".3" height="57.19"/><rect class="cls-5" x="92.11" y="15.57" width="57.19" height=".3"/><rect class="cls-5" x="92.11" y="43.92" width="57.19" height=".3"/><rect class="cls-5" x="35.42" y="15.57" width="57.19" height=".3"/><rect class="cls-5" x="35.42" y="43.92" width="57.19" height=".3"/><rect class="cls-5" x="78.04" y="1.3" width=".3" height="57.19"/><rect class="cls-5" x="49.69" y="1.3" width=".3" height="57.19"/><rect class="cls-5" x="-21.27" y="15.57" width="57.19" height=".3"/><rect class="cls-5" x="-21.27" y="43.92" width="57.19" height=".3"/><rect class="cls-5" x="78.04" y="-55.39" width=".3" height="57.19"/><rect class="cls-5" x="49.69" y="-55.39" width=".3" height="57.19"/></g><g class="cls-66"><rect class="cls-5" x="78.04" y="114.69" width=".3" height="57.19"/><rect class="cls-5" x="49.69" y="114.69" width=".3" height="57.19"/><rect class="cls-5" x="92.11" y="72.27" width="57.19" height=".3"/><rect class="cls-5" x="92.11" y="100.61" width="57.19" height=".3"/><rect class="cls-5" x="35.42" y="72.27" width="57.19" height=".3"/><rect class="cls-5" x="35.42" y="100.61" width="57.19" height=".3"/><rect class="cls-5" x="78.04" y="57.99" width=".3" height="57.19"/><rect class="cls-5" x="49.69" y="57.99" width=".3" height="57.19"/><rect class="cls-5" x="-21.27" y="72.27" width="57.19" height=".3"/><rect class="cls-5" x="-21.27" y="100.61" width="57.19" height=".3"/><rect class="cls-5" x="78.04" y="1.3" width=".3" height="57.19"/><rect class="cls-5" x="49.69" y="1.3" width=".3" height="57.19"/></g></g><g class="cls-65"><g class="cls-69"><rect class="cls-5" x="191.42" y="57.99" width=".3" height="57.19"/><rect class="cls-5" x="163.07" y="57.99" width=".3" height="57.19"/><rect class="cls-5" x="205.49" y="15.57" width="57.19" height=".3"/><rect class="cls-5" x="205.49" y="43.92" width="57.19" height=".3"/><rect class="cls-5" x="148.8" y="15.57" width="57.19" height=".3"/><rect class="cls-5" x="148.8" y="43.92" width="57.19" height=".3"/><rect class="cls-5" x="191.42" y="1.3" width=".3" height="57.19"/><rect class="cls-5" x="163.07" y="1.3" width=".3" height="57.19"/><rect class="cls-5" x="92.11" y="15.57" width="57.19" height=".3"/><rect class="cls-5" x="92.11" y="43.92" width="57.19" height=".3"/><rect class="cls-5" x="191.42" y="-55.39" width=".3" height="57.19"/><rect class="cls-5" x="163.07" y="-55.39" width=".3" height="57.19"/></g><g class="cls-67"><rect class="cls-5" x="191.42" y="114.69" width=".3" height="57.19"/><rect class="cls-5" x="163.07" y="114.69" width=".3" height="57.19"/><rect class="cls-5" x="205.49" y="72.27" width="57.19" height=".3"/><rect class="cls-5" x="205.49" y="100.61" width="57.19" height=".3"/><rect class="cls-5" x="148.8" y="72.27" width="57.19" height=".3"/><rect class="cls-5" x="148.8" y="100.61" width="57.19" height=".3"/><rect class="cls-5" x="191.42" y="57.99" width=".3" height="57.19"/><rect class="cls-5" x="163.07" y="57.99" width=".3" height="57.19"/><rect class="cls-5" x="92.11" y="72.27" width="57.19" height=".3"/><rect class="cls-5" x="92.11" y="100.61" width="57.19" height=".3"/><rect class="cls-5" x="191.42" y="1.3" width=".3" height="57.19"/><rect class="cls-5" x="163.07" y="1.3" width=".3" height="57.19"/></g><g class="cls-17"><rect class="cls-5" x="205.49" y="128.96" width="57.19" height=".3"/><rect class="cls-5" x="148.8" y="128.96" width="57.19" height=".3"/><rect class="cls-5" x="191.42" y="114.69" width=".3" height="57.19"/><rect class="cls-5" x="163.07" y="114.69" width=".3" height="57.19"/><rect class="cls-5" x="92.11" y="128.96" width="57.19" height=".3"/><rect class="cls-5" x="191.42" y="57.99" width=".3" height="57.19"/><rect class="cls-5" x="163.07" y="57.99" width=".3" height="57.19"/></g><g class="cls-18"><rect class="cls-5" x="134.73" y="57.99" width=".3" height="57.19"/><rect class="cls-5" x="106.38" y="57.99" width=".3" height="57.19"/><rect class="cls-5" x="148.8" y="15.57" width="57.19" height=".3"/><rect class="cls-5" x="148.8" y="43.92" width="57.19" height=".3"/><rect class="cls-5" x="92.11" y="15.57" width="57.19" height=".3"/><rect class="cls-5" x="92.11" y="43.92" width="57.19" height=".3"/><rect class="cls-5" x="134.73" y="1.3" width=".3" height="57.19"/><rect class="cls-5" x="106.38" y="1.3" width=".3" height="57.19"/><rect class="cls-5" x="35.42" y="15.57" width="57.19" height=".3"/><rect class="cls-5" x="35.42" y="43.92" width="57.19" height=".3"/><rect class="cls-5" x="134.73" y="-55.39" width=".3" height="57.19"/><rect class="cls-5" x="106.38" y="-55.39" width=".3" height="57.19"/></g><g class="cls-21"><rect class="cls-5" x="134.73" y="114.69" width=".3" height="57.19"/><rect class="cls-5" x="106.38" y="114.69" width=".3" height="57.19"/><rect class="cls-5" x="148.8" y="72.27" width="57.19" height=".3"/><rect class="cls-5" x="148.8" y="100.61" width="57.19" height=".3"/><rect class="cls-5" x="92.11" y="72.27" width="57.19" height=".3"/><rect class="cls-5" x="92.11" y="100.61" width="57.19" height=".3"/><rect class="cls-5" x="134.73" y="57.99" width=".3" height="57.19"/><rect class="cls-5" x="106.38" y="57.99" width=".3" height="57.19"/><rect class="cls-5" x="35.42" y="72.27" width="57.19" height=".3"/><rect class="cls-5" x="35.42" y="100.61" width="57.19" height=".3"/><rect class="cls-5" x="134.73" y="1.3" width=".3" height="57.19"/><rect class="cls-5" x="106.38" y="1.3" width=".3" height="57.19"/></g><g class="cls-20"><rect class="cls-5" x="148.8" y="128.96" width="57.19" height=".3"/><rect class="cls-5" x="92.11" y="128.96" width="57.19" height=".3"/><rect class="cls-5" x="134.73" y="114.69" width=".3" height="57.19"/><rect class="cls-5" x="106.38" y="114.69" width=".3" height="57.19"/><rect class="cls-5" x="35.42" y="128.96" width="57.19" height=".3"/><rect class="cls-5" x="134.73" y="57.99" width=".3" height="57.19"/><rect class="cls-5" x="106.38" y="57.99" width=".3" height="57.19"/></g></g><g class="cls-19"><g class="cls-22"><rect class="cls-5" x="191.42" y="57.99" width=".3" height="57.19"/><rect class="cls-5" x="163.07" y="57.99" width=".3" height="57.19"/><rect class="cls-5" x="205.49" y="15.57" width="57.19" height=".3"/><rect class="cls-5" x="205.49" y="43.92" width="57.19" height=".3"/><rect class="cls-5" x="148.8" y="15.57" width="57.19" height=".3"/><rect class="cls-5" x="148.8" y="43.92" width="57.19" height=".3"/><rect class="cls-5" x="191.42" y="1.3" width=".3" height="57.19"/><rect class="cls-5" x="163.07" y="1.3" width=".3" height="57.19"/><rect class="cls-5" x="92.11" y="15.57" width="57.19" height=".3"/><rect class="cls-5" x="92.11" y="43.92" width="57.19" height=".3"/><rect class="cls-5" x="191.42" y="-55.39" width=".3" height="57.19"/><rect class="cls-5" x="163.07" y="-55.39" width=".3" height="57.19"/></g><g class="cls-35"><rect class="cls-5" x="191.42" y="114.69" width=".3" height="57.19"/><rect class="cls-5" x="163.07" y="114.69" width=".3" height="57.19"/><rect class="cls-5" x="205.49" y="72.27" width="57.19" height=".3"/><rect class="cls-5" x="205.49" y="100.61" width="57.19" height=".3"/><rect class="cls-5" x="148.8" y="72.27" width="57.19" height=".3"/><rect class="cls-5" x="148.8" y="100.61" width="57.19" height=".3"/><rect class="cls-5" x="191.42" y="57.99" width=".3" height="57.19"/><rect class="cls-5" x="163.07" y="57.99" width=".3" height="57.19"/><rect class="cls-5" x="92.11" y="72.27" width="57.19" height=".3"/><rect class="cls-5" x="92.11" y="100.61" width="57.19" height=".3"/><rect class="cls-5" x="191.42" y="1.3" width=".3" height="57.19"/><rect class="cls-5" x="163.07" y="1.3" width=".3" height="57.19"/></g><g class="cls-33"><rect class="cls-5" x="205.49" y="128.96" width="57.19" height=".3"/><rect class="cls-5" x="148.8" y="128.96" width="57.19" height=".3"/><rect class="cls-5" x="191.42" y="114.69" width=".3" height="57.19"/><rect class="cls-5" x="163.07" y="114.69" width=".3" height="57.19"/><rect class="cls-5" x="92.11" y="128.96" width="57.19" height=".3"/><rect class="cls-5" x="191.42" y="57.99" width=".3" height="57.19"/><rect class="cls-5" x="163.07" y="57.99" width=".3" height="57.19"/></g></g><g class="cls-34"><g class="cls-36"><rect class="cls-5" x="248.11" y="57.99" width=".3" height="57.19"/><rect class="cls-5" x="219.76" y="57.99" width=".3" height="57.19"/><rect class="cls-5" x="262.18" y="15.57" width="57.19" height=".3"/><rect class="cls-5" x="262.18" y="43.92" width="57.19" height=".3"/><rect class="cls-5" x="205.49" y="15.57" width="57.19" height=".3"/><rect class="cls-5" x="205.49" y="43.92" width="57.19" height=".3"/><rect class="cls-5" x="248.11" y="1.3" width=".3" height="57.19"/><rect class="cls-5" x="219.76" y="1.3" width=".3" height="57.19"/><rect class="cls-5" x="148.8" y="15.57" width="57.19" height=".3"/><rect class="cls-5" x="148.8" y="43.92" width="57.19" height=".3"/><rect class="cls-5" x="248.11" y="-55.39" width=".3" height="57.19"/><rect class="cls-5" x="219.76" y="-55.39" width=".3" height="57.19"/></g><g class="cls-44"><rect class="cls-5" x="248.11" y="114.69" width=".3" height="57.19"/><rect class="cls-5" x="219.76" y="114.69" width=".3" height="57.19"/><rect class="cls-5" x="262.18" y="72.27" width="57.19" height=".3"/><rect class="cls-5" x="262.18" y="100.61" width="57.19" height=".3"/><rect class="cls-5" x="205.49" y="72.27" width="57.19" height=".3"/><rect class="cls-5" x="205.49" y="100.61" width="57.19" height=".3"/><rect class="cls-5" x="248.11" y="57.99" width=".3" height="57.19"/><rect class="cls-5" x="219.76" y="57.99" width=".3" height="57.19"/><rect class="cls-5" x="148.8" y="72.27" width="57.19" height=".3"/><rect class="cls-5" x="148.8" y="100.61" width="57.19" height=".3"/><rect class="cls-5" x="248.11" y="1.3" width=".3" height="57.19"/><rect class="cls-5" x="219.76" y="1.3" width=".3" height="57.19"/></g><g class="cls-46"><rect class="cls-5" x="262.18" y="128.96" width="57.19" height=".3"/><rect class="cls-5" x="205.49" y="128.96" width="57.19" height=".3"/><rect class="cls-5" x="248.11" y="114.69" width=".3" height="57.19"/><rect class="cls-5" x="219.76" y="114.69" width=".3" height="57.19"/><rect class="cls-5" x="148.8" y="128.96" width="57.19" height=".3"/><rect class="cls-5" x="248.11" y="57.99" width=".3" height="57.19"/><rect class="cls-5" x="219.76" y="57.99" width=".3" height="57.19"/></g><g class="cls-43"><rect class="cls-5" x="191.42" y="57.99" width=".3" height="57.19"/><rect class="cls-5" x="163.07" y="57.99" width=".3" height="57.19"/><rect class="cls-5" x="205.49" y="15.57" width="57.19" height=".3"/><rect class="cls-5" x="205.49" y="43.92" width="57.19" height=".3"/><rect class="cls-5" x="148.8" y="15.57" width="57.19" height=".3"/><rect class="cls-5" x="148.8" y="43.92" width="57.19" height=".3"/><rect class="cls-5" x="191.42" y="1.3" width=".3" height="57.19"/><rect class="cls-5" x="163.07" y="1.3" width=".3" height="57.19"/><rect class="cls-5" x="92.11" y="15.57" width="57.19" height=".3"/><rect class="cls-5" x="92.11" y="43.92" width="57.19" height=".3"/><rect class="cls-5" x="191.42" y="-55.39" width=".3" height="57.19"/><rect class="cls-5" x="163.07" y="-55.39" width=".3" height="57.19"/></g><g class="cls-42"><rect class="cls-5" x="191.42" y="114.69" width=".3" height="57.19"/><rect class="cls-5" x="163.07" y="114.69" width=".3" height="57.19"/><rect class="cls-5" x="205.49" y="72.27" width="57.19" height=".3"/><rect class="cls-5" x="205.49" y="100.61" width="57.19" height=".3"/><rect class="cls-5" x="148.8" y="72.27" width="57.19" height=".3"/><rect class="cls-5" x="148.8" y="100.61" width="57.19" height=".3"/><rect class="cls-5" x="191.42" y="57.99" width=".3" height="57.19"/><rect class="cls-5" x="163.07" y="57.99" width=".3" height="57.19"/><rect class="cls-5" x="92.11" y="72.27" width="57.19" height=".3"/><rect class="cls-5" x="92.11" y="100.61" width="57.19" height=".3"/><rect class="cls-5" x="191.42" y="1.3" width=".3" height="57.19"/><rect class="cls-5" x="163.07" y="1.3" width=".3" height="57.19"/></g><g class="cls-37"><rect class="cls-5" x="205.49" y="128.96" width="57.19" height=".3"/><rect class="cls-5" x="148.8" y="128.96" width="57.19" height=".3"/><rect class="cls-5" x="191.42" y="114.69" width=".3" height="57.19"/><rect class="cls-5" x="163.07" y="114.69" width=".3" height="57.19"/><rect class="cls-5" x="92.11" y="128.96" width="57.19" height=".3"/><rect class="cls-5" x="191.42" y="57.99" width=".3" height="57.19"/><rect class="cls-5" x="163.07" y="57.99" width=".3" height="57.19"/></g></g><g class="cls-38"><g class="cls-39"><rect class="cls-5" x="304.8" y="57.99" width=".3" height="57.19"/><rect class="cls-5" x="276.46" y="57.99" width=".3" height="57.19"/><rect class="cls-5" x="318.87" y="15.57" width="57.19" height=".3"/><rect class="cls-5" x="318.87" y="43.92" width="57.19" height=".3"/><rect class="cls-5" x="262.18" y="15.57" width="57.19" height=".3"/><rect class="cls-5" x="262.18" y="43.92" width="57.19" height=".3"/><rect class="cls-5" x="304.8" y="1.3" width=".3" height="57.19"/><rect class="cls-5" x="276.46" y="1.3" width=".3" height="57.19"/><rect class="cls-5" x="205.49" y="15.57" width="57.19" height=".3"/><rect class="cls-5" x="205.49" y="43.92" width="57.19" height=".3"/><rect class="cls-5" x="304.8" y="-55.39" width=".3" height="57.19"/><rect class="cls-5" x="276.46" y="-55.39" width=".3" height="57.19"/></g><g class="cls-40"><rect class="cls-5" x="304.8" y="114.69" width=".3" height="57.19"/><rect class="cls-5" x="276.46" y="114.69" width=".3" height="57.19"/><rect class="cls-5" x="318.87" y="72.27" width="57.19" height=".3"/><rect class="cls-5" x="318.87" y="100.61" width="57.19" height=".3"/><rect class="cls-5" x="262.18" y="72.27" width="57.19" height=".3"/><rect class="cls-5" x="262.18" y="100.61" width="57.19" height=".3"/><rect class="cls-5" x="304.8" y="57.99" width=".3" height="57.19"/><rect class="cls-5" x="276.46" y="57.99" width=".3" height="57.19"/><rect class="cls-5" x="205.49" y="72.27" width="57.19" height=".3"/><rect class="cls-5" x="205.49" y="100.61" width="57.19" height=".3"/><rect class="cls-5" x="304.8" y="1.3" width=".3" height="57.19"/><rect class="cls-5" x="276.46" y="1.3" width=".3" height="57.19"/></g><g class="cls-45"><rect class="cls-5" x="318.87" y="128.96" width="57.19" height=".3"/><rect class="cls-5" x="262.18" y="128.96" width="57.19" height=".3"/><rect class="cls-5" x="304.8" y="114.69" width=".3" height="57.19"/><rect class="cls-5" x="276.46" y="114.69" width=".3" height="57.19"/><rect class="cls-5" x="205.49" y="128.96" width="57.19" height=".3"/><rect class="cls-5" x="304.8" y="57.99" width=".3" height="57.19"/><rect class="cls-5" x="276.46" y="57.99" width=".3" height="57.19"/></g><g class="cls-41"><rect class="cls-5" x="248.11" y="57.99" width=".3" height="57.19"/><rect class="cls-5" x="219.76" y="57.99" width=".3" height="57.19"/><rect class="cls-5" x="262.18" y="15.57" width="57.19" height=".3"/><rect class="cls-5" x="262.18" y="43.92" width="57.19" height=".3"/><rect class="cls-5" x="205.49" y="15.57" width="57.19" height=".3"/><rect class="cls-5" x="205.49" y="43.92" width="57.19" height=".3"/><rect class="cls-5" x="248.11" y="1.3" width=".3" height="57.19"/><rect class="cls-5" x="219.76" y="1.3" width=".3" height="57.19"/><rect class="cls-5" x="148.8" y="15.57" width="57.19" height=".3"/><rect class="cls-5" x="148.8" y="43.92" width="57.19" height=".3"/><rect class="cls-5" x="248.11" y="-55.39" width=".3" height="57.19"/><rect class="cls-5" x="219.76" y="-55.39" width=".3" height="57.19"/></g><g class="cls-25"><rect class="cls-5" x="248.11" y="114.69" width=".3" height="57.19"/><rect class="cls-5" x="219.76" y="114.69" width=".3" height="57.19"/><rect class="cls-5" x="262.18" y="72.27" width="57.19" height=".3"/><rect class="cls-5" x="262.18" y="100.61" width="57.19" height=".3"/><rect class="cls-5" x="205.49" y="72.27" width="57.19" height=".3"/><rect class="cls-5" x="205.49" y="100.61" width="57.19" height=".3"/><rect class="cls-5" x="248.11" y="57.99" width=".3" height="57.19"/><rect class="cls-5" x="219.76" y="57.99" width=".3" height="57.19"/><rect class="cls-5" x="148.8" y="72.27" width="57.19" height=".3"/><rect class="cls-5" x="148.8" y="100.61" width="57.19" height=".3"/><rect class="cls-5" x="248.11" y="1.3" width=".3" height="57.19"/><rect class="cls-5" x="219.76" y="1.3" width=".3" height="57.19"/></g><g class="cls-27"><rect class="cls-5" x="262.18" y="128.96" width="57.19" height=".3"/><rect class="cls-5" x="205.49" y="128.96" width="57.19" height=".3"/><rect class="cls-5" x="248.11" y="114.69" width=".3" height="57.19"/><rect class="cls-5" x="219.76" y="114.69" width=".3" height="57.19"/><rect class="cls-5" x="148.8" y="128.96" width="57.19" height=".3"/><rect class="cls-5" x="248.11" y="57.99" width=".3" height="57.19"/><rect class="cls-5" x="219.76" y="57.99" width=".3" height="57.19"/></g></g><g class="cls-26"><g class="cls-29"><rect class="cls-5" x="361.49" y="57.99" width=".3" height="57.19"/><rect class="cls-5" x="333.15" y="57.99" width=".3" height="57.19"/><rect class="cls-5" x="375.56" y="15.57" width="57.19" height=".3"/><rect class="cls-5" x="375.56" y="43.92" width="57.19" height=".3"/><rect class="cls-5" x="318.87" y="15.57" width="57.19" height=".3"/><rect class="cls-5" x="318.87" y="43.92" width="57.19" height=".3"/><rect class="cls-5" x="361.49" y="1.3" width=".3" height="57.19"/><rect class="cls-5" x="333.15" y="1.3" width=".3" height="57.19"/><rect class="cls-5" x="262.18" y="15.57" width="57.19" height=".3"/><rect class="cls-5" x="262.18" y="43.92" width="57.19" height=".3"/><rect class="cls-5" x="361.49" y="-55.39" width=".3" height="57.19"/><rect class="cls-5" x="333.15" y="-55.39" width=".3" height="57.19"/></g><g class="cls-23"><rect class="cls-5" x="361.49" y="114.69" width=".3" height="57.19"/><rect class="cls-5" x="333.15" y="114.69" width=".3" height="57.19"/><rect class="cls-5" x="375.56" y="72.27" width="57.19" height=".3"/><rect class="cls-5" x="375.56" y="100.61" width="57.19" height=".3"/><rect class="cls-5" x="318.87" y="72.27" width="57.19" height=".3"/><rect class="cls-5" x="318.87" y="100.61" width="57.19" height=".3"/><rect class="cls-5" x="361.49" y="57.99" width=".3" height="57.19"/><rect class="cls-5" x="333.15" y="57.99" width=".3" height="57.19"/><rect class="cls-5" x="262.18" y="72.27" width="57.19" height=".3"/><rect class="cls-5" x="262.18" y="100.61" width="57.19" height=".3"/><rect class="cls-5" x="361.49" y="1.3" width=".3" height="57.19"/><rect class="cls-5" x="333.15" y="1.3" width=".3" height="57.19"/></g><g class="cls-24"><rect class="cls-5" x="375.56" y="128.96" width="57.19" height=".3"/><rect class="cls-5" x="318.87" y="128.96" width="57.19" height=".3"/><rect class="cls-5" x="361.49" y="114.69" width=".3" height="57.19"/><rect class="cls-5" x="333.15" y="114.69" width=".3" height="57.19"/><rect class="cls-5" x="262.18" y="128.96" width="57.19" height=".3"/><rect class="cls-5" x="361.49" y="57.99" width=".3" height="57.19"/><rect class="cls-5" x="333.15" y="57.99" width=".3" height="57.19"/></g><g class="cls-30"><rect class="cls-5" x="304.8" y="57.99" width=".3" height="57.19"/><rect class="cls-5" x="276.46" y="57.99" width=".3" height="57.19"/><rect class="cls-5" x="318.87" y="15.57" width="57.19" height=".3"/><rect class="cls-5" x="318.87" y="43.92" width="57.19" height=".3"/><rect class="cls-5" x="262.18" y="15.57" width="57.19" height=".3"/><rect class="cls-5" x="262.18" y="43.92" width="57.19" height=".3"/><rect class="cls-5" x="304.8" y="1.3" width=".3" height="57.19"/><rect class="cls-5" x="276.46" y="1.3" width=".3" height="57.19"/><rect class="cls-5" x="205.49" y="15.57" width="57.19" height=".3"/><rect class="cls-5" x="205.49" y="43.92" width="57.19" height=".3"/><rect class="cls-5" x="304.8" y="-55.39" width=".3" height="57.19"/><rect class="cls-5" x="276.46" y="-55.39" width=".3" height="57.19"/></g><g class="cls-28"><rect class="cls-5" x="304.8" y="114.69" width=".3" height="57.19"/><rect class="cls-5" x="276.46" y="114.69" width=".3" height="57.19"/><rect class="cls-5" x="318.87" y="72.27" width="57.19" height=".3"/><rect class="cls-5" x="318.87" y="100.61" width="57.19" height=".3"/><rect class="cls-5" x="262.18" y="72.27" width="57.19" height=".3"/><rect class="cls-5" x="262.18" y="100.61" width="57.19" height=".3"/><rect class="cls-5" x="304.8" y="57.99" width=".3" height="57.19"/><rect class="cls-5" x="276.46" y="57.99" width=".3" height="57.19"/><rect class="cls-5" x="205.49" y="72.27" width="57.19" height=".3"/><rect class="cls-5" x="205.49" y="100.61" width="57.19" height=".3"/><rect class="cls-5" x="304.8" y="1.3" width=".3" height="57.19"/><rect class="cls-5" x="276.46" y="1.3" width=".3" height="57.19"/></g><g class="cls-31"><rect class="cls-5" x="318.87" y="128.96" width="57.19" height=".3"/><rect class="cls-5" x="262.18" y="128.96" width="57.19" height=".3"/><rect class="cls-5" x="304.8" y="114.69" width=".3" height="57.19"/><rect class="cls-5" x="276.46" y="114.69" width=".3" height="57.19"/><rect class="cls-5" x="205.49" y="128.96" width="57.19" height=".3"/><rect class="cls-5" x="304.8" y="57.99" width=".3" height="57.19"/><rect class="cls-5" x="276.46" y="57.99" width=".3" height="57.19"/></g><g class="cls-32"><rect class="cls-5" x="361.49" y="114.69" width=".3" height="57.19"/><rect class="cls-5" x="333.15" y="114.69" width=".3" height="57.19"/><rect class="cls-5" x="375.56" y="72.27" width="57.19" height=".3"/><rect class="cls-5" x="375.56" y="100.61" width="57.19" height=".3"/><rect class="cls-5" x="318.87" y="72.27" width="57.19" height=".3"/><rect class="cls-5" x="318.87" y="100.61" width="57.19" height=".3"/><rect class="cls-5" x="361.49" y="57.99" width=".3" height="57.19"/><rect class="cls-5" x="333.15" y="57.99" width=".3" height="57.19"/><rect class="cls-5" x="262.18" y="72.27" width="57.19" height=".3"/><rect class="cls-5" x="262.18" y="100.61" width="57.19" height=".3"/><rect class="cls-5" x="361.49" y="1.3" width=".3" height="57.19"/><rect class="cls-5" x="333.15" y="1.3" width=".3" height="57.19"/></g></g><g class="cls-49"><g class="cls-50"><rect class="cls-5" x="418.18" y="57.99" width=".3" height="57.19"/><rect class="cls-5" x="389.84" y="57.99" width=".3" height="57.19"/><rect class="cls-5" x="432.26" y="15.57" width="57.19" height=".3"/><rect class="cls-5" x="432.26" y="43.92" width="57.19" height=".3"/><rect class="cls-5" x="375.56" y="15.57" width="57.19" height=".3"/><rect class="cls-5" x="375.56" y="43.92" width="57.19" height=".3"/><rect class="cls-5" x="418.18" y="1.3" width=".3" height="57.19"/><rect class="cls-5" x="389.84" y="1.3" width=".3" height="57.19"/><rect class="cls-5" x="318.87" y="15.57" width="57.19" height=".3"/><rect class="cls-5" x="318.87" y="43.92" width="57.19" height=".3"/><rect class="cls-5" x="418.18" y="-55.39" width=".3" height="57.19"/><rect class="cls-5" x="389.84" y="-55.39" width=".3" height="57.19"/></g><g class="cls-51"><rect class="cls-5" x="418.18" y="114.69" width=".3" height="57.19"/><rect class="cls-5" x="389.84" y="114.69" width=".3" height="57.19"/><rect class="cls-5" x="432.26" y="72.27" width="57.19" height=".3"/><rect class="cls-5" x="432.26" y="100.61" width="57.19" height=".3"/><rect class="cls-5" x="375.56" y="72.27" width="57.19" height=".3"/><rect class="cls-5" x="375.56" y="100.61" width="57.19" height=".3"/><rect class="cls-5" x="418.18" y="57.99" width=".3" height="57.19"/><rect class="cls-5" x="389.84" y="57.99" width=".3" height="57.19"/><rect class="cls-5" x="318.87" y="72.27" width="57.19" height=".3"/><rect class="cls-5" x="318.87" y="100.61" width="57.19" height=".3"/><rect class="cls-5" x="418.18" y="1.3" width=".3" height="57.19"/><rect class="cls-5" x="389.84" y="1.3" width=".3" height="57.19"/></g><g class="cls-47"><rect class="cls-5" x="432.26" y="128.96" width="57.19" height=".3"/><rect class="cls-5" x="375.56" y="128.96" width="57.19" height=".3"/><rect class="cls-5" x="418.18" y="114.69" width=".3" height="57.19"/><rect class="cls-5" x="389.84" y="114.69" width=".3" height="57.19"/><rect class="cls-5" x="318.87" y="128.96" width="57.19" height=".3"/><rect class="cls-5" x="418.18" y="57.99" width=".3" height="57.19"/><rect class="cls-5" x="389.84" y="57.99" width=".3" height="57.19"/></g><g class="cls-48"><rect class="cls-5" x="361.49" y="57.99" width=".3" height="57.19"/><rect class="cls-5" x="333.15" y="57.99" width=".3" height="57.19"/><rect class="cls-5" x="375.56" y="15.57" width="57.19" height=".3"/><rect class="cls-5" x="375.56" y="43.92" width="57.19" height=".3"/><rect class="cls-5" x="318.87" y="15.57" width="57.19" height=".3"/><rect class="cls-5" x="318.87" y="43.92" width="57.19" height=".3"/><rect class="cls-5" x="361.49" y="1.3" width=".3" height="57.19"/><rect class="cls-5" x="333.15" y="1.3" width=".3" height="57.19"/><rect class="cls-5" x="262.18" y="15.57" width="57.19" height=".3"/><rect class="cls-5" x="262.18" y="43.92" width="57.19" height=".3"/><rect class="cls-5" x="361.49" y="-55.39" width=".3" height="57.19"/><rect class="cls-5" x="333.15" y="-55.39" width=".3" height="57.19"/></g><g class="cls-52"><rect class="cls-5" x="361.49" y="114.69" width=".3" height="57.19"/><rect class="cls-5" x="333.15" y="114.69" width=".3" height="57.19"/><rect class="cls-5" x="375.56" y="72.27" width="57.19" height=".3"/><rect class="cls-5" x="375.56" y="100.61" width="57.19" height=".3"/><rect class="cls-5" x="318.87" y="72.27" width="57.19" height=".3"/><rect class="cls-5" x="318.87" y="100.61" width="57.19" height=".3"/><rect class="cls-5" x="361.49" y="57.99" width=".3" height="57.19"/><rect class="cls-5" x="333.15" y="57.99" width=".3" height="57.19"/><rect class="cls-5" x="262.18" y="72.27" width="57.19" height=".3"/><rect class="cls-5" x="262.18" y="100.61" width="57.19" height=".3"/><rect class="cls-5" x="361.49" y="1.3" width=".3" height="57.19"/><rect class="cls-5" x="333.15" y="1.3" width=".3" height="57.19"/></g><g class="cls-53"><rect class="cls-5" x="375.56" y="128.96" width="57.19" height=".3"/><rect class="cls-5" x="318.87" y="128.96" width="57.19" height=".3"/><rect class="cls-5" x="361.49" y="114.69" width=".3" height="57.19"/><rect class="cls-5" x="333.15" y="114.69" width=".3" height="57.19"/><rect class="cls-5" x="262.18" y="128.96" width="57.19" height=".3"/><rect class="cls-5" x="361.49" y="57.99" width=".3" height="57.19"/><rect class="cls-5" x="333.15" y="57.99" width=".3" height="57.19"/></g></g><g class="cls-54"><g class="cls-55"><rect class="cls-5" x="474.88" y="57.99" width=".3" height="57.19"/><rect class="cls-5" x="446.53" y="57.99" width=".3" height="57.19"/><rect class="cls-5" x="432.26" y="15.57" width="57.19" height=".3"/><rect class="cls-5" x="432.26" y="43.92" width="57.19" height=".3"/><rect class="cls-5" x="474.88" y="1.3" width=".3" height="57.19"/><rect class="cls-5" x="446.53" y="1.3" width=".3" height="57.19"/><rect class="cls-5" x="375.56" y="15.57" width="57.19" height=".3"/><rect class="cls-5" x="375.56" y="43.92" width="57.19" height=".3"/><rect class="cls-5" x="474.88" y="-55.39" width=".3" height="57.19"/><rect class="cls-5" x="446.53" y="-55.39" width=".3" height="57.19"/></g><g class="cls-58"><rect class="cls-5" x="474.88" y="114.69" width=".3" height="57.19"/><rect class="cls-5" x="446.53" y="114.69" width=".3" height="57.19"/><rect class="cls-5" x="432.26" y="72.27" width="57.19" height=".3"/><rect class="cls-5" x="432.26" y="100.61" width="57.19" height=".3"/><rect class="cls-5" x="474.88" y="57.99" width=".3" height="57.19"/><rect class="cls-5" x="446.53" y="57.99" width=".3" height="57.19"/><rect class="cls-5" x="375.56" y="72.27" width="57.19" height=".3"/><rect class="cls-5" x="375.56" y="100.61" width="57.19" height=".3"/><rect class="cls-5" x="474.88" y="1.3" width=".3" height="57.19"/><rect class="cls-5" x="446.53" y="1.3" width=".3" height="57.19"/></g><g class="cls-16"><rect class="cls-5" x="432.26" y="128.96" width="57.19" height=".3"/><rect class="cls-5" x="474.88" y="114.69" width=".3" height="57.19"/><rect class="cls-5" x="446.53" y="114.69" width=".3" height="57.19"/><rect class="cls-5" x="375.56" y="128.96" width="57.19" height=".3"/><rect class="cls-5" x="474.88" y="57.99" width=".3" height="57.19"/><rect class="cls-5" x="446.53" y="57.99" width=".3" height="57.19"/></g><g class="cls-56"><rect class="cls-5" x="418.18" y="57.99" width=".3" height="57.19"/><rect class="cls-5" x="389.84" y="57.99" width=".3" height="57.19"/><rect class="cls-5" x="432.26" y="15.57" width="57.19" height=".3"/><rect class="cls-5" x="432.26" y="43.92" width="57.19" height=".3"/><rect class="cls-5" x="375.56" y="15.57" width="57.19" height=".3"/><rect class="cls-5" x="375.56" y="43.92" width="57.19" height=".3"/><rect class="cls-5" x="418.18" y="1.3" width=".3" height="57.19"/><rect class="cls-5" x="389.84" y="1.3" width=".3" height="57.19"/><rect class="cls-5" x="318.87" y="15.57" width="57.19" height=".3"/><rect class="cls-5" x="318.87" y="43.92" width="57.19" height=".3"/><rect class="cls-5" x="418.18" y="-55.39" width=".3" height="57.19"/><rect class="cls-5" x="389.84" y="-55.39" width=".3" height="57.19"/></g><g class="cls-57"><rect class="cls-5" x="418.18" y="114.69" width=".3" height="57.19"/><rect class="cls-5" x="389.84" y="114.69" width=".3" height="57.19"/><rect class="cls-5" x="432.26" y="72.27" width="57.19" height=".3"/><rect class="cls-5" x="432.26" y="100.61" width="57.19" height=".3"/><rect class="cls-5" x="375.56" y="72.27" width="57.19" height=".3"/><rect class="cls-5" x="375.56" y="100.61" width="57.19" height=".3"/><rect class="cls-5" x="418.18" y="57.99" width=".3" height="57.19"/><rect class="cls-5" x="389.84" y="57.99" width=".3" height="57.19"/><rect class="cls-5" x="318.87" y="72.27" width="57.19" height=".3"/><rect class="cls-5" x="318.87" y="100.61" width="57.19" height=".3"/><rect class="cls-5" x="418.18" y="1.3" width=".3" height="57.19"/><rect class="cls-5" x="389.84" y="1.3" width=".3" height="57.19"/></g><g class="cls-59"><rect class="cls-5" x="432.26" y="128.96" width="57.19" height=".3"/><rect class="cls-5" x="375.56" y="128.96" width="57.19" height=".3"/><rect class="cls-5" x="418.18" y="114.69" width=".3" height="57.19"/><rect class="cls-5" x="389.84" y="114.69" width=".3" height="57.19"/><rect class="cls-5" x="318.87" y="128.96" width="57.19" height=".3"/><rect class="cls-5" x="418.18" y="57.99" width=".3" height="57.19"/><rect class="cls-5" x="389.84" y="57.99" width=".3" height="57.19"/></g></g><path class="cls-3" d="m59.41,117.64H10V10h50c7.87,0,15.28.9,22.01,2.67,6.86,1.81,12.94,5.23,18.1,10.17,5.11,4.9,9.22,10.86,12.24,17.69,3.01,6.85,4.54,14.61,4.54,23.06,0,7.54-1.32,14.68-3.92,21.21-2.6,6.52-6.19,12.36-10.68,17.36-4.95,5.56-11.21,9.59-18.62,11.95-7.29,2.33-15.46,3.51-24.26,3.51Zm-46.41-3h46.41c8.49,0,16.35-1.13,23.35-3.37,6.89-2.2,12.71-5.93,17.3-11.09,4.26-4.74,7.66-10.28,10.13-16.47,2.46-6.18,3.71-12.94,3.71-20.1,0-8.03-1.44-15.38-4.29-21.85-2.85-6.48-6.75-12.11-11.57-16.74-4.78-4.59-10.43-7.76-16.78-9.44-6.49-1.71-13.64-2.57-21.25-2.57H13v101.64Zm46.41-2.09h-3.15V15.09h3.75c7.07,0,13.78.74,19.96,2.21,6.33,1.5,11.9,4.58,16.57,9.14,4.6,4.4,8.34,9.82,11.1,16.11,2.77,6.3,4.17,13.38,4.17,21.04,0,7.15-1.2,13.71-3.55,19.5-2.35,5.77-5.67,11.08-9.85,15.78-4.66,5.18-10.33,8.8-16.86,10.77-6.39,1.93-13.84,2.91-22.14,2.91Zm-.15-3h.15c8,0,15.16-.94,21.27-2.78,5.99-1.81,11.2-5.14,15.49-9.9,3.95-4.43,7.08-9.45,9.31-14.91,2.21-5.43,3.33-11.61,3.33-18.37,0-7.24-1.32-13.91-3.92-19.83-2.6-5.93-6.12-11.03-10.44-15.16-4.28-4.19-9.39-7-15.18-8.38-5.95-1.41-12.43-2.13-19.26-2.13h-.75v91.46Z"/><path class="cls-3" d="m152.12,117.71h-26.39v-55.1h26.39v55.1Zm-23.39-3h20.39v-49.1h-20.39v49.1Zm10.39-53.72c-4.04,0-7.38-.71-9.95-2.1-2.87-1.56-4.32-3.5-4.32-5.79,0-2.53,1.45-4.64,4.3-6.27,2.58-1.47,5.94-2.21,9.98-2.21s7.39.72,9.97,2.15c2.86,1.59,4.31,3.62,4.31,6.03s-1.45,4.44-4.31,6.03c-2.57,1.43-5.92,2.15-9.97,2.15Zm0-13.37c-3.52,0-6.38.61-8.5,1.82-2.78,1.58-2.78,3.15-2.78,3.66,0,1.1.93,2.16,2.75,3.15,2.13,1.15,4.99,1.73,8.53,1.73s6.39-.6,8.51-1.78c2.77-1.54,2.77-2.94,2.77-3.41s0-1.87-2.77-3.41c-2.12-1.18-4.99-1.78-8.51-1.78Z"/><path class="cls-3" d="m189.57,117.71h-26.39V48.26h26.39v69.45Zm-23.39-3h20.39v-63.45h-20.39v63.45Z"/><path class="cls-3" d="m225.64,117.71h-26.39v-55.1h26.39v55.1Zm-23.39-3h20.39v-49.1h-20.39v49.1Zm10.39-53.72c-4.04,0-7.38-.71-9.95-2.1-2.87-1.56-4.32-3.5-4.32-5.79,0-2.53,1.45-4.64,4.3-6.27,2.58-1.47,5.94-2.21,9.98-2.21s7.39.72,9.97,2.15c2.86,1.59,4.31,3.62,4.31,6.03s-1.45,4.44-4.31,6.03c-2.57,1.43-5.92,2.15-9.97,2.15Zm0-13.37c-3.52,0-6.38.61-8.5,1.82-2.78,1.58-2.78,3.15-2.78,3.66,0,1.1.93,2.16,2.75,3.15,2.13,1.15,4.99,1.73,8.53,1.73s6.39-.6,8.51-1.78c2.77-1.54,2.77-2.94,2.77-3.41s0-1.87-2.77-3.41c-2.12-1.18-4.99-1.78-8.51-1.78Z"/><path class="cls-3" d="m271.32,122.72c-.54,0-1.1-.09-1.67-.26-.59-.18-1.6-.76-1.78-2.59-.03,0-.06,0-.09,0h-.49c-2.49.32-5.08.71-7.71,1.16-2.76.47-5.73.71-8.8.71-1.63,0-3.42-.14-5.32-.41-2-.29-3.85-.87-5.49-1.73-1.71-.89-3.16-2.15-4.31-3.75-1.2-1.66-1.81-3.86-1.81-6.53,0-2.24.6-4.35,1.79-6.28.44-.74,1-1.47,1.64-2.19.58-.59,1.18-1.17,1.85-1.8.25-.24.52-.47.81-.7-1.87-1.55-3.45-3.36-4.69-5.39-1.65-2.68-2.48-5.81-2.48-9.29s.79-6.6,2.36-9.34c1.54-2.69,3.59-5.01,6.1-6.89,2.48-1.86,5.31-3.29,8.42-4.26,6.43-2,13.28-1.97,20.1.46.46-.13,1-.33,1.61-.59.81-.36,1.61-.8,2.39-1.31.76-.5,1.44-1.04,2.02-1.62.52-.52.88-1,1.07-1.42l.1-.18c.6-.96,1.58-1.49,2.75-1.49.85,0,1.63.32,2.24.93.61.62.93,1.42.93,2.34,0,.96-.32,1.91-.96,2.83-.53.76-1.19,1.48-1.97,2.15-.76.65-1.65,1.27-2.64,1.83-.13.07-.25.14-.38.21,2.2,1.56,4.12,3.42,5.7,5.55,2.19,2.94,3.29,6.45,3.29,10.43,0,3.56-.91,6.73-2.71,9.43-1.74,2.62-3.97,4.83-6.62,6.56-2.61,1.72-5.55,3.04-8.73,3.93-.58.16-1.15.31-1.72.44.87-.03,1.72-.04,2.55-.04,4.19,0,7.44.88,9.67,2.63,2.34,1.83,3.52,4.16,3.52,6.93,0,2.95-1.08,5.33-3.21,7.06-2.04,1.66-4.51,2.5-7.34,2.5Zm-.45-3.05c.16.03.31.05.45.05,2.15,0,3.93-.6,5.44-1.83,1.41-1.15,2.1-2.7,2.1-4.73,0-1.82-.78-3.32-2.37-4.57-1.69-1.32-4.32-1.99-7.82-1.99-1.91,0-3.95.08-6.08.24-2.15.16-4.19.34-6.05.54-1.89.2-3.54.38-4.95.54-1.97.23-2.64.26-2.97.26-1.82,0-3.42-.27-4.74-.8-1.72-.69-2.66-2.02-2.66-3.75,0-1.35.61-2.49,1.77-3.29.8-.56,1.58-1.03,2.3-1.39l.66-.33.67.32c1.78.86,3.73,1.52,5.8,1.95.17.04.33.07.5.1v-35.47l1.23-.22c.77-.14,1.56-.25,2.35-.31l2.44-.2c.86,0,1.79.03,2.76.1.37.03.75.06,1.12.11-4.2-.59-8.32-.18-12.28,1.05-2.77.86-5.3,2.14-7.51,3.8-2.19,1.64-3.97,3.65-5.3,5.98-1.3,2.28-1.97,4.92-1.97,7.86s.69,5.51,2.04,7.72c1.39,2.27,3.26,4.21,5.56,5.79l1.98,1.35-2.08,1.19c-.81.47-1.51.97-2.07,1.5-.64.61-1.22,1.18-1.74,1.69-.47.52-.91,1.11-1.25,1.68h0c-.91,1.49-1.35,3.03-1.35,4.73,0,2.03.42,3.64,1.24,4.77.89,1.23,1.95,2.16,3.26,2.84,1.35.7,2.87,1.18,4.53,1.42,1.76.25,3.41.38,4.9.38,2.91,0,5.7-.22,8.3-.67,2.7-.46,5.36-.86,7.92-1.19h.19s.59-.01.59-.01c.47,0,.94.07,1.41.21.91.27,1.49.99,1.56,1.9l.1.55c0,.06.01.11.02.15Zm-24.86-17.71c-.42.24-.85.52-1.3.83-.41.28-.49.54-.49.83,0,.36.06.68.78.97.96.39,2.18.58,3.62.58.27,0,.95-.04,2.63-.24,1.35-.16,2.92-.33,4.72-.52-1.4-.12-2.79-.32-4.16-.61-2.04-.42-3.98-1.05-5.79-1.86Zm19.83-36.38v35.05c.4-.1.79-.2,1.19-.31,2.88-.8,5.53-2,7.89-3.54,2.31-1.52,4.25-3.44,5.77-5.72,1.46-2.2,2.21-4.81,2.21-7.77,0-3.37-.88-6.19-2.7-8.64-1.86-2.5-4.24-4.58-7.05-6.17l-2.55-1.44,2.66-1.23c.81-.38,1.67-.82,2.54-1.32.83-.47,1.56-.98,2.18-1.51.59-.5,1.08-1.04,1.47-1.59.28-.4.42-.77.42-1.11,0-.17-.04-.2-.05-.22-.15-.14-.26-.04-.27-.03h0c-.34.72-.88,1.44-1.63,2.19-.73.73-1.57,1.4-2.5,2.01-.92.6-1.86,1.12-2.82,1.54-1,.44-1.86.73-2.63.89l-.42.08-.4-.15c-1.1-.41-2.19-.75-3.29-1.02Zm-9.93,32.91c.33.04.66.07.98.1,1.93.16,3.91.12,5.95-.23v-30.34c-.45-.07-.91-.12-1.36-.15-.87-.06-1.71-.09-2.48-.09l-2.25.19c-.28.02-.56.05-.84.09v30.44Z"/><path class="cls-3" d="m318.21,120.56c-3.85,0-7.6-.75-11.14-2.23-3.53-1.47-6.68-3.53-9.36-6.1-2.68-2.58-4.85-5.64-6.46-9.1-1.62-3.49-2.45-7.29-2.45-11.3s.79-8.13,2.33-11.75c1.54-3.61,3.71-6.78,6.43-9.43,2.71-2.64,5.93-4.75,9.56-6.26,3.64-1.51,7.64-2.28,11.88-2.28,2.28,0,4.63.31,6.97.93,2.36.63,4.58,1.58,6.6,2.83,4.59,2.88,8.04,6.37,10.25,10.38,2.19,3.98,3.51,8.98,3.92,14.87v.1s0,.1,0,.1c-.12,1.7-1.27,2.85-3.09,3.06h-.17s-29.86,0-29.86,0v19.32c1.33.26,2.77.39,4.3.39,4.35,0,8.4-1.13,12.04-3.37,3.68-2.26,6.74-5.32,9.1-9.1h0c.6-.96,1.58-1.49,2.75-1.49.92,0,1.78.37,2.48,1.08.71.71,1.08,1.6,1.08,2.58,0,.37-.08.79-.27,1.36l-.15.31c-2.87,4.65-6.72,8.36-11.45,11.03-4.73,2.67-9.87,4.03-15.29,4.03Zm-7.59-54.23c-.8.24-1.58.53-2.35.84-3.28,1.36-6.18,3.26-8.62,5.64-2.43,2.37-4.37,5.22-5.76,8.46-1.39,3.24-2.09,6.79-2.09,10.57,0,3.56.73,6.94,2.17,10.03,1.45,3.12,3.41,5.88,5.82,8.2,2.41,2.32,5.25,4.17,8.43,5.5,3.18,1.33,6.54,2,9.99,2,4.89,0,9.54-1.22,13.81-3.64,4.23-2.39,7.68-5.7,10.28-9.84.06-.21.07-.29.07-.29,0-.12-.04-.26-.2-.43-.2-.2-.31-.2-.36-.2-.11,0-.15.02-.15.02l-1.32-.73,1.27.79c-2.61,4.18-5.99,7.57-10.07,10.07-4.12,2.53-8.7,3.81-13.61,3.81-2.22,0-4.29-.25-6.18-.74l-1.12-.29v-24.68h32.76c.26-.04.35-.11.35-.11,0,0,0-.03.02-.08-.39-5.4-1.58-9.94-3.54-13.51-1.96-3.56-5.06-6.68-9.21-9.28-1.76-1.09-3.71-1.92-5.78-2.47-1.81-.48-3.62-.75-5.38-.82.77.05,1.54.13,2.3.24,1.45.21,2.91.61,4.32,1.17l.94.38v24.14h-16.76v-24.74Zm3,21.74h10.76v-19.08c-.89-.3-1.8-.51-2.7-.64-1.25-.18-2.53-.28-3.81-.28-1.45.1-2.88.29-4.25.58v19.42Z"/><path class="cls-3" d="m420.06,117.71h-26.39v-48.52c-2.45.71-4.82,1.75-7.07,3.09-2.62,1.57-4.85,3.52-6.64,5.81v39.62h-26.39v-55.1h26.39v6.83c2.5-1.99,5.32-3.68,8.42-5.03,4.23-1.84,8.53-2.78,12.79-2.78,2.3,0,4.57.34,6.77,1,2.22.67,4.24,1.67,6.01,2.98,1.81,1.34,3.29,3.08,4.41,5.17,1.13,2.11,1.7,4.6,1.7,7.39v39.54Zm-23.39-3h20.39v-36.54c0-2.29-.45-4.3-1.35-5.98-.91-1.69-2.1-3.1-3.55-4.17-1.49-1.1-3.2-1.95-5.09-2.52-1.92-.58-3.9-.87-5.91-.87-3.84,0-7.74.85-11.59,2.53-3.88,1.69-7.26,3.93-10.07,6.68l-2.55,2.49v-10.71h-20.39v49.1h20.39v-37.63l.3-.4c2.08-2.77,4.7-5.11,7.8-6.97,3.07-1.84,6.36-3.16,9.79-3.91l1.82-.4v49.32Z"/><path class="cls-3" d="m451,120.56c-3.57,0-6.6-.64-9-1.89-2.39-1.25-4.32-2.84-5.76-4.75-1.42-1.88-2.44-3.96-3.01-6.18-.55-2.14-.83-4.15-.83-5.98v-32.9l-4.76-.04c-.85-.21-1.52-.62-1.99-1.21-.48-.59-.72-1.24-.72-1.92,0-.74.26-2.51,2.71-3.13l.36-.04h4.4v-5.26l22.31-10.17h.38c.76-.22,1.59-.08,2.38.3.5.25,1.33.9,1.33,2.47v12.65h6.83c.96.12,1.73.48,2.27,1.09.54.6.83,1.32.83,2.08,0,.77-.29,1.49-.83,2.09-.55.61-1.31.97-2.28,1.08h-.16s-6.66,0-6.66,0v40.86c0,1.5.3,1.98.39,2.09.24.29.44.35.67.35-.01,0,.13,0,.56-.11l1.42-.71c1.32-.69,2.59-1.69,3.74-2.96,1.18-1.3,2.15-2.67,2.87-4.05.81-1.61,2.63-2.01,4.46-1.1.96.49,1.52,1.38,1.52,2.47,0,.56-.15,1.15-.45,1.75-.89,2.07-2.23,4-3.93,5.66-1.67,1.64-3.6,3.02-5.73,4.1-2.09,1.06-4.31,1.89-6.6,2.48-2.31.58-4.57.88-6.71.88Zm-22.79-54.7h7.18v35.9c0,1.57.25,3.33.74,5.23.47,1.83,1.31,3.56,2.5,5.12,1.17,1.55,2.77,2.86,4.76,3.9,1.97,1.03,4.53,1.55,7.61,1.55,1.89,0,3.9-.27,5.97-.79,2.08-.53,4.09-1.28,5.98-2.24,1.85-.94,3.53-2.14,4.99-3.57,1.42-1.39,2.54-3,3.31-4.79.08-.16.12-.27.14-.35-.13-.05-.23-.08-.31-.1-.84,1.6-1.95,3.17-3.3,4.66-1.39,1.53-2.93,2.75-4.6,3.61l-1.9.91c-.67.17-1.11.24-1.45.24-1.17,0-2.19-.49-2.97-1.42-.73-.87-1.08-2.19-1.08-4.01v-43.86h9.56c.2-.03.29-.08.31-.09.06-.07.05-.1,0-.16-.01-.01-.11-.06-.31-.09h-9.56v-15.51c-.14.04-.28.06-.42.07l-19.97,9.1v6.33h-7.19c-.17.06-.25.11-.28.13.01,0,.03.04.06.08.03.04.1.08.22.13Zm26.78-18.74s0,0,0,0c0,0,0,0,0,0Z"/><path class="cls-6" d="m11.5,11.5h48.5c7.79,0,14.99.88,21.63,2.62,6.64,1.75,12.45,5.01,17.44,9.8,4.99,4.79,8.96,10.53,11.9,17.22,2.94,6.69,4.42,14.17,4.42,22.46,0,7.39-1.27,14.27-3.82,20.66-2.54,6.39-6.01,12.03-10.4,16.92-4.79,5.39-10.78,9.23-17.96,11.53-7.19,2.3-15.12,3.44-23.8,3.44H11.5V11.5Zm46.26,5.09v94.46h1.65c8.18,0,15.42-.95,21.71-2.84,6.29-1.89,11.68-5.34,16.17-10.33,4.09-4.59,7.28-9.71,9.58-15.34,2.29-5.64,3.44-11.95,3.44-18.94,0-7.49-1.35-14.3-4.04-20.43-2.7-6.14-6.29-11.35-10.78-15.64-4.49-4.39-9.78-7.31-15.87-8.76-6.09-1.45-12.63-2.17-19.61-2.17h-2.25Z"/><path class="cls-6" d="m126.34,53.1c0-1.97,1.18-3.62,3.54-4.96,2.36-1.34,5.44-2.02,9.24-2.02,3.8,0,6.88.66,9.24,1.97,2.36,1.31,3.54,2.88,3.54,4.72,0,1.84-1.18,3.41-3.54,4.72-2.36,1.31-5.44,1.97-9.24,1.97-3.8,0-6.88-.64-9.24-1.92-2.36-1.28-3.54-2.77-3.54-4.47Zm.88,11.01h23.39v52.1c-7.8,0-15.6,0-23.39,0v-52.1Z"/><path class="cls-6" d="m164.67,49.76h23.39c0,22.15,0,44.3,0,66.45-7.8,0-15.6,0-23.39,0V49.76Z"/><path class="cls-6" d="m199.86,53.1c0-1.97,1.18-3.62,3.54-4.96,2.36-1.34,5.44-2.02,9.24-2.02,3.8,0,6.88.66,9.24,1.97,2.36,1.31,3.54,2.88,3.54,4.72,0,1.84-1.18,3.41-3.54,4.72-2.36,1.31-5.44,1.97-9.24,1.97-3.8,0-6.88-.64-9.24-1.92-2.36-1.28-3.54-2.77-3.54-4.47Zm.88,11.01h23.39v52.1c-7.8,0-15.6,0-23.39,0,0-17.37,0-34.73,0-52.1Z"/><path class="cls-6" d="m236.92,103.82c.39-.65.88-1.31,1.47-1.97.52-.52,1.11-1.1,1.77-1.72.65-.62,1.44-1.19,2.36-1.72-2.49-1.7-4.49-3.78-6-6.24-1.51-2.46-2.26-5.29-2.26-8.5,0-3.21.72-6.08,2.16-8.6,1.44-2.52,3.34-4.67,5.7-6.44,2.36-1.77,5.01-3.11,7.96-4.03,2.95-.92,5.96-1.38,9.04-1.38,3.47,0,6.98.66,10.52,1.97.65-.13,1.43-.39,2.31-.79.88-.39,1.75-.87,2.6-1.42.85-.56,1.6-1.16,2.26-1.82.65-.65,1.11-1.28,1.38-1.87.33-.52.82-.79,1.47-.79.46,0,.85.16,1.18.49.33.33.49.75.49,1.28,0,.66-.23,1.31-.69,1.97-.46.66-1.03,1.28-1.72,1.87-.69.59-1.49,1.15-2.41,1.67-.92.53-1.8.98-2.65,1.38,3.01,1.71,5.52,3.9,7.52,6.59,2,2.69,3,5.87,3,9.53,0,3.28-.82,6.14-2.46,8.6-1.64,2.46-3.7,4.51-6.19,6.14-2.49,1.64-5.26,2.88-8.31,3.74-3.05.85-5.95,1.28-8.7,1.28-2.23,0-4.44-.23-6.63-.69-2.2-.46-4.24-1.15-6.14-2.06-.66.33-1.36.75-2.11,1.28-.75.53-1.13,1.21-1.13,2.06,0,1.12.57,1.9,1.72,2.36,1.15.46,2.54.69,4.18.69.46,0,1.39-.08,2.8-.25,1.41-.16,3.06-.34,4.96-.54,1.9-.2,3.93-.38,6.09-.54,2.16-.16,4.23-.25,6.19-.25,3.86,0,6.78.77,8.75,2.31,1.97,1.54,2.95,3.46,2.95,5.75,0,2.49-.88,4.46-2.65,5.9-1.77,1.44-3.9,2.16-6.39,2.16-.39,0-.8-.07-1.23-.2-.43-.13-.67-.59-.74-1.38-.03-.16-.07-.33-.1-.49,0-.33-.17-.54-.49-.64-.33-.1-.66-.15-.98-.15h-.59c-2.56.33-5.18.72-7.86,1.18-2.69.46-5.54.69-8.55.69-1.57,0-3.28-.13-5.11-.39-1.84-.26-3.51-.79-5.01-1.57-1.51-.79-2.77-1.88-3.78-3.29-1.02-1.41-1.52-3.29-1.52-5.65,0-1.97.52-3.8,1.57-5.5Zm22.02-37.55c-.79.07-1.56.13-2.31.2-.75.07-1.49.16-2.21.29v33.03c.79.13,1.57.23,2.36.29.79.07,1.57.1,2.36.1,1.7,0,3.44-.2,5.21-.59v-32.83c-.92-.2-1.84-.33-2.75-.39-.92-.06-1.8-.1-2.65-.1Z"/><path class="cls-6" d="m340.32,102.45c.33-.52.82-.79,1.47-.79.52,0,1,.21,1.42.64.43.43.64.93.64,1.52,0,.2-.07.49-.2.88-2.75,4.46-6.39,7.96-10.91,10.52-4.52,2.56-9.37,3.83-14.55,3.83-3.67,0-7.19-.71-10.57-2.11-3.38-1.41-6.34-3.34-8.9-5.8-2.56-2.46-4.6-5.34-6.14-8.65-1.54-3.31-2.31-6.86-2.31-10.67,0-4,.74-7.72,2.21-11.16,1.47-3.44,3.5-6.42,6.09-8.94,2.59-2.52,5.62-4.5,9.09-5.95,3.47-1.44,7.24-2.16,11.3-2.16,2.16,0,4.36.29,6.59.88,2.23.59,4.29,1.47,6.19,2.65,4.39,2.75,7.63,6.03,9.73,9.83,2.1,3.8,3.34,8.55,3.74,14.25-.07.98-.66,1.54-1.77,1.67h-31.36v22.02c1.77.46,3.7.69,5.8.69,4.65,0,8.93-1.19,12.83-3.59,3.9-2.39,7.09-5.59,9.58-9.58Zm-22.51-35.88c-1.97.13-3.87.43-5.7.88v22.12h13.76v-21.62c-1.31-.52-2.64-.88-3.98-1.08-1.34-.2-2.7-.29-4.08-.29Z"/><path class="cls-6" d="m395.17,67.26c-3.28.72-6.39,1.97-9.34,3.74-2.95,1.77-5.41,3.96-7.37,6.58v38.63c-7.8,0-15.6,0-23.39,0v-52.1h23.39v8.65c2.95-2.88,6.45-5.21,10.52-6.98,4.06-1.77,8.12-2.65,12.19-2.65,2.16,0,4.28.31,6.34.93,2.06.62,3.92,1.54,5.55,2.75,1.64,1.21,2.96,2.77,3.98,4.67,1.02,1.9,1.52,4.13,1.52,6.68v38.04c-7.8,0-15.6,0-23.39,0v-48.95Z"/><path class="cls-6" d="m469.77,105c.26-.52.65-.79,1.18-.79.39,0,.82.12,1.28.34.46.23.69.61.69,1.13,0,.33-.1.69-.29,1.08-.85,1.97-2.06,3.72-3.64,5.26-1.57,1.54-3.36,2.82-5.36,3.83-2,1.01-4.1,1.8-6.29,2.36-2.2.56-4.31.84-6.34.84-3.34,0-6.11-.57-8.31-1.72-2.2-1.15-3.95-2.59-5.26-4.33-1.31-1.74-2.23-3.62-2.75-5.65-.53-2.03-.79-3.9-.79-5.6v-34.4h-5.9c-.53-.13-.92-.36-1.18-.69-.26-.33-.39-.65-.39-.98,0-.85.52-1.41,1.57-1.67h5.9v-5.8c7.04-3.21,14.09-6.42,21.13-9.63h.2c.06,0,.15-.02.25-.05.1-.03.21-.05.34-.05.33,0,.65.08.98.25.33.16.49.54.49,1.13v14.15h8.16c.59.07,1.03.26,1.33.59.29.33.44.69.44,1.08,0,.39-.15.76-.44,1.08-.29.33-.74.53-1.33.59h-8.16v42.36c0,1.44.25,2.46.74,3.05.49.59,1.1.88,1.82.88.2,0,.56-.06,1.08-.2.52-.26,1.05-.52,1.57-.79,1.51-.79,2.9-1.88,4.18-3.29,1.28-1.41,2.31-2.87,3.1-4.37Z"/><path class="cls-6" d="m11.5,11.5h48.5c7.79,0,14.99.88,21.63,2.62,6.64,1.75,12.45,5.01,17.44,9.8,4.99,4.79,8.96,10.53,11.9,17.22,2.94,6.69,4.42,14.17,4.42,22.46,0,7.39-1.27,14.27-3.82,20.66-2.54,6.39-6.01,12.03-10.4,16.92-4.79,5.39-10.78,9.23-17.96,11.53-7.19,2.3-15.12,3.44-23.8,3.44H11.5V11.5Zm46.26,5.09v94.46h1.65c8.18,0,15.42-.95,21.71-2.84,6.29-1.89,11.68-5.34,16.17-10.33,4.09-4.59,7.28-9.71,9.58-15.34,2.29-5.64,3.44-11.95,3.44-18.94,0-7.49-1.35-14.3-4.04-20.43-2.7-6.14-6.29-11.35-10.78-15.64-4.49-4.39-9.78-7.31-15.87-8.76-6.09-1.45-12.63-2.17-19.61-2.17h-2.25Z"/><path class="cls-6" d="m126.34,53.1c0-1.97,1.18-3.62,3.54-4.96,2.36-1.34,5.44-2.02,9.24-2.02,3.8,0,6.88.66,9.24,1.97,2.36,1.31,3.54,2.88,3.54,4.72,0,1.84-1.18,3.41-3.54,4.72-2.36,1.31-5.44,1.97-9.24,1.97-3.8,0-6.88-.64-9.24-1.92-2.36-1.28-3.54-2.77-3.54-4.47Zm.88,11.01h23.39v52.1c-7.8,0-15.6,0-23.39,0v-52.1Z"/><path class="cls-6" d="m164.67,49.76h23.39c0,22.15,0,44.3,0,66.45-7.8,0-15.6,0-23.39,0V49.76Z"/><path class="cls-6" d="m199.86,53.1c0-1.97,1.18-3.62,3.54-4.96,2.36-1.34,5.44-2.02,9.24-2.02,3.8,0,6.88.66,9.24,1.97,2.36,1.31,3.54,2.88,3.54,4.72,0,1.84-1.18,3.41-3.54,4.72-2.36,1.31-5.44,1.97-9.24,1.97-3.8,0-6.88-.64-9.24-1.92-2.36-1.28-3.54-2.77-3.54-4.47Zm.88,11.01h23.39v52.1c-7.8,0-15.6,0-23.39,0,0-17.37,0-34.73,0-52.1Z"/><path class="cls-6" d="m236.92,103.82c.39-.65.88-1.31,1.47-1.97.52-.52,1.11-1.1,1.77-1.72.65-.62,1.44-1.19,2.36-1.72-2.49-1.7-4.49-3.78-6-6.24-1.51-2.46-2.26-5.29-2.26-8.5,0-3.21.72-6.08,2.16-8.6,1.44-2.52,3.34-4.67,5.7-6.44,2.36-1.77,5.01-3.11,7.96-4.03,2.95-.92,5.96-1.38,9.04-1.38,3.47,0,6.98.66,10.52,1.97.65-.13,1.43-.39,2.31-.79.88-.39,1.75-.87,2.6-1.42.85-.56,1.6-1.16,2.26-1.82.65-.65,1.11-1.28,1.38-1.87.33-.52.82-.79,1.47-.79.46,0,.85.16,1.18.49.33.33.49.75.49,1.28,0,.66-.23,1.31-.69,1.97-.46.66-1.03,1.28-1.72,1.87-.69.59-1.49,1.15-2.41,1.67-.92.53-1.8.98-2.65,1.38,3.01,1.71,5.52,3.9,7.52,6.59,2,2.69,3,5.87,3,9.53,0,3.28-.82,6.14-2.46,8.6-1.64,2.46-3.7,4.51-6.19,6.14-2.49,1.64-5.26,2.88-8.31,3.74-3.05.85-5.95,1.28-8.7,1.28-2.23,0-4.44-.23-6.63-.69-2.2-.46-4.24-1.15-6.14-2.06-.66.33-1.36.75-2.11,1.28-.75.53-1.13,1.21-1.13,2.06,0,1.12.57,1.9,1.72,2.36,1.15.46,2.54.69,4.18.69.46,0,1.39-.08,2.8-.25,1.41-.16,3.06-.34,4.96-.54,1.9-.2,3.93-.38,6.09-.54,2.16-.16,4.23-.25,6.19-.25,3.86,0,6.78.77,8.75,2.31,1.97,1.54,2.95,3.46,2.95,5.75,0,2.49-.88,4.46-2.65,5.9-1.77,1.44-3.9,2.16-6.39,2.16-.39,0-.8-.07-1.23-.2-.43-.13-.67-.59-.74-1.38-.03-.16-.07-.33-.1-.49,0-.33-.17-.54-.49-.64-.33-.1-.66-.15-.98-.15h-.59c-2.56.33-5.18.72-7.86,1.18-2.69.46-5.54.69-8.55.69-1.57,0-3.28-.13-5.11-.39-1.84-.26-3.51-.79-5.01-1.57-1.51-.79-2.77-1.88-3.78-3.29-1.02-1.41-1.52-3.29-1.52-5.65,0-1.97.52-3.8,1.57-5.5Zm22.02-37.55c-.79.07-1.56.13-2.31.2-.75.07-1.49.16-2.21.29v33.03c.79.13,1.57.23,2.36.29.79.07,1.57.1,2.36.1,1.7,0,3.44-.2,5.21-.59v-32.83c-.92-.2-1.84-.33-2.75-.39-.92-.06-1.8-.1-2.65-.1Z"/><path class="cls-6" d="m340.32,102.45c.33-.52.82-.79,1.47-.79.52,0,1,.21,1.42.64.43.43.64.93.64,1.52,0,.2-.07.49-.2.88-2.75,4.46-6.39,7.96-10.91,10.52-4.52,2.56-9.37,3.83-14.55,3.83-3.67,0-7.19-.71-10.57-2.11-3.38-1.41-6.34-3.34-8.9-5.8-2.56-2.46-4.6-5.34-6.14-8.65-1.54-3.31-2.31-6.86-2.31-10.67,0-4,.74-7.72,2.21-11.16,1.47-3.44,3.5-6.42,6.09-8.94,2.59-2.52,5.62-4.5,9.09-5.95,3.47-1.44,7.24-2.16,11.3-2.16,2.16,0,4.36.29,6.59.88,2.23.59,4.29,1.47,6.19,2.65,4.39,2.75,7.63,6.03,9.73,9.83,2.1,3.8,3.34,8.55,3.74,14.25-.07.98-.66,1.54-1.77,1.67h-31.36v22.02c1.77.46,3.7.69,5.8.69,4.65,0,8.93-1.19,12.83-3.59,3.9-2.39,7.09-5.59,9.58-9.58Zm-22.51-35.88c-1.97.13-3.87.43-5.7.88v22.12h13.76v-21.62c-1.31-.52-2.64-.88-3.98-1.08-1.34-.2-2.7-.29-4.08-.29Z"/><path class="cls-6" d="m395.17,67.26c-3.28.72-6.39,1.97-9.34,3.74-2.95,1.77-5.41,3.96-7.37,6.58v38.63c-7.8,0-15.6,0-23.39,0v-52.1h23.39v8.65c2.95-2.88,6.45-5.21,10.52-6.98,4.06-1.77,8.12-2.65,12.19-2.65,2.16,0,4.28.31,6.34.93,2.06.62,3.92,1.54,5.55,2.75,1.64,1.21,2.96,2.77,3.98,4.67,1.02,1.9,1.52,4.13,1.52,6.68v38.04c-7.8,0-15.6,0-23.39,0v-48.95Z"/><path class="cls-6" d="m469.77,105c.26-.52.65-.79,1.18-.79.39,0,.82.12,1.28.34.46.23.69.61.69,1.13,0,.33-.1.69-.29,1.08-.85,1.97-2.06,3.72-3.64,5.26-1.57,1.54-3.36,2.82-5.36,3.83-2,1.01-4.1,1.8-6.29,2.36-2.2.56-4.31.84-6.34.84-3.34,0-6.11-.57-8.31-1.72-2.2-1.15-3.95-2.59-5.26-4.33-1.31-1.74-2.23-3.62-2.75-5.65-.53-2.03-.79-3.9-.79-5.6v-34.4h-5.9c-.53-.13-.92-.36-1.18-.69-.26-.33-.39-.65-.39-.98,0-.85.52-1.41,1.57-1.67h5.9v-5.8c7.04-3.21,14.09-6.42,21.13-9.63h.2c.06,0,.15-.02.25-.05.1-.03.21-.05.34-.05.33,0,.65.08.98.25.33.16.49.54.49,1.13v14.15h8.16c.59.07,1.03.26,1.33.59.29.33.44.69.44,1.08,0,.39-.15.76-.44,1.08-.29.33-.74.53-1.33.59h-8.16v42.36c0,1.44.25,2.46.74,3.05.49.59,1.1.88,1.82.88.2,0,.56-.06,1.08-.2.52-.26,1.05-.52,1.57-.79,1.51-.79,2.9-1.88,4.18-3.29,1.28-1.41,2.31-2.87,3.1-4.37Z"/></g></svg>