<?xml version="1.0" encoding="UTF-8"?><svg id="Layer_2" xmlns="http://www.w3.org/2000/svg" viewBox="0 0 436.47 139.51"><defs><style>.cls-1{fill:#fff;}.cls-2{fill:#f2da5e;}.cls-3{fill:#231f20;}</style></defs><g id="exported"><path d="m81.11,139.01h-35.91c-.38,0-.76-.01-1.13-.03-.38.02-.75.03-1.13.03h-22.93c-11.05,0-20-8.95-20-20v-2.27c0-6.91,3.51-13.01,8.84-16.6,4.83-10.72,10.27-33.09,14.42-50.12,2.5-10.29,5.09-20.94,7.84-30.86,2.4-8.67,10.28-14.67,19.28-14.67h5.04c10.07,0,18.57,7.48,19.84,17.47,3.29,25.84,9.8,58.95,18.64,79.38,4.41,3.67,7.22,9.2,7.22,15.39v2.27c0,11.05-8.95,20-20,20Z"/><path d="m142.48,139.51c-3.97,0-7.7-.55-11.14-1.58-2.04.7-4.23,1.08-6.5,1.08h-37.17c-11.05,0-20-8.95-20-20v-2.27c0-5.21,1.99-9.95,5.25-13.51,1.77-6.78,3.7-18.52,3.7-34.63,0-13.31-1.76-22.41-3.39-28-3.44-3.59-5.55-8.46-5.55-13.83v-2.27c0-11.05,8.95-20,20-20h40.32c9.65,0,18.45,2.69,25.42,7.78,7.47,5.45,16.38,16.14,16.38,36.16,0,9.29-2.24,17.51-6.41,24.26,3.09,5.91,4.7,12.76,5.42,20.42,4.7,3.72,7.67,9.54,7.67,16.18,0,15.01-11.67,30.21-33.99,30.21Zm32.45-29.55h0s0,0,0,0Zm0-.04h0s0,0,0,0Zm0-.03s0,0,0,.01c0,0,0,0,0-.01Zm0-.04s0,.02,0,.03c0,0,0-.02,0-.03Zm0-.03s0,.01,0,.02c0,0,0-.01,0-.02Zm0-.29c0,.09,0,.19,0,.28,0-.09,0-.19,0-.28Zm0-.06s0,.04,0,.06c0-.02,0-.04,0-.06Zm0-.06s0,.04,0,.06c0-.02,0-.04,0-.06Zm0-.03v.02-.02Zm0-.04s0,.02,0,.02c0,0,0-.02,0-.02Zm0-.03h0s0,0,0,0Zm0-.03h0s0,0,0,0Zm0-.04h0s0,0,0,0Zm0-.03h0s0,0,0,0Zm0-.04h0s0,0,0,0Zm0-.03h0s0,0,0,0Zm0-.03h0s0,0,0,0Zm0-.03h0s0,0,0,0Z"/><path d="m211.78,139.01h-38.18c-11.05,0-20-8.95-20-20v-2.27c0-5.19,1.98-9.92,5.23-13.48,1.44-4.17,3.52-11.54,4.57-21.65-.75.04-1.51.06-2.27.06-7.09,0-13.54-3.6-17.27-9.62-3.73-6.04-4.06-13.45-.87-19.83.04-.08.08-.15.12-.23.3-.58.51-1.47.54-1.9-.01-6.96-1.34-14.31-2.26-16.33-1.34-2.74-2.02-5.72-2.02-8.77,0-11.5,8.9-20.5,20.25-20.5h66.28c11.36,0,20.25,9.01,20.25,20.5,0,3.05-.7,6.06-2.04,8.8-.9,1.99-2.23,9.34-2.25,16.3.04.43.24,1.32.54,1.9.04.08.08.15.12.23,3.19,6.37,2.86,13.79-.87,19.83-3.72,6.02-10.18,9.62-17.27,9.62-.75,0-1.5-.02-2.24-.06,1.07,9.87,3.15,17.4,4.7,21.96,3.08,3.52,4.94,8.12,4.94,13.16v2.27c0,11.05-8.95,20-20,20Z"/><path d="m270.99,139.01h-38.43c-11.05,0-20-8.95-20-20v-2.27c0-5.51,2.22-10.49,5.82-14.11,1.99-6.19,4.89-17.94,4.89-34.03,0-12.13-2.64-21.9-4.57-27.41-3.79-3.64-6.14-8.76-6.14-14.42v-2.27c0-11.05,8.95-20,20-20h38.43c11.05,0,20,8.95,20,20v2.27c0,5.64-2.33,10.73-6.08,14.36-2,5.68-4.63,15.44-4.63,27.47,0,16.08,2.89,27.83,4.89,34.03,3.6,3.62,5.82,8.6,5.82,14.11v2.27c0,11.05-8.95,20-20,20Zm-54.25-102.71h0s0,0,0,0Z"/><path d="m312.45,139.51c-5.45,0-10.56-1.24-15.06-3.12-5.99,2.1-12.62,3.12-18.69,2.08-.49-.08-.99-.19-1.47-.31-7.27-1.82-13.01-7.34-14.97-14.41-1.31-4.72-.83-9.68,1.2-13.98.44-1.07,1.26-4,1.26-10.91,0-4.42-.12-5.83-1.21-8.17-3.05-6.4-2.68-13.73,1-19.7.38-.61.78-1.2,1.21-1.75-3.11-5.99-5.16-13.16-5.16-22.29,0-29.61,24.37-42.93,41.67-42.93,5.25,0,10.42,1.08,15.16,3.07,4.8-1.54,9.39-2.31,12.65-2.69.77-.09,1.54-.13,2.31-.13,7.15,0,13.67,3.65,17.45,9.76,3.62,5.86,4.09,12.96,1.32,19.15-1.16,2.74-1.16,9.83-1.16,12.51,0,2.85.47,5.42,1.29,7.06,3.44,6.88,2.75,14.98-1.79,21.15,3.59,6.28,5.92,13.6,5.92,22.95,0,27.72-22.12,42.68-42.93,42.68Z"/><path d="m396.11,139.01h-38.18c-11.05,0-20-8.95-20-20v-2.27c0-5.19,1.98-9.92,5.23-13.48,1.44-4.17,3.52-11.54,4.57-21.65-.75.04-1.51.06-2.27.06-7.09,0-13.55-3.6-17.27-9.62-3.73-6.04-4.06-13.45-.87-19.83.04-.08.08-.15.12-.23.3-.58.51-1.47.54-1.9-.01-6.96-1.34-14.31-2.26-16.33-1.34-2.74-2.02-5.72-2.02-8.77,0-11.5,8.9-20.5,20.25-20.5h66.28c11.36,0,20.25,9.01,20.25,20.5,0,3.05-.7,6.06-2.04,8.8-.9,1.99-2.23,9.34-2.25,16.3.04.43.24,1.32.54,1.9.04.08.08.15.12.23,3.19,6.37,2.86,13.79-.87,19.83-3.72,6.02-10.18,9.62-17.27,9.62-.75,0-1.5-.02-2.24-.06,1.07,9.88,3.15,17.4,4.7,21.96,3.08,3.52,4.94,8.12,4.94,13.16v2.27c0,11.05-8.95,20-20,20Z"/><path class="cls-1" d="m87.11,135.01h-35.91c-.38,0-.76-.01-1.13-.03-.38.02-.75.03-1.13.03h-22.93c-11.05,0-20-8.95-20-20v-2.27c0-6.91,3.51-13.01,8.84-16.6,4.83-10.72,10.27-33.09,14.42-50.12,2.5-10.29,5.09-20.94,7.84-30.86C39.49,6.5,47.38.5,56.37.5h5.04c10.07,0,18.57,7.48,19.84,17.47,3.29,25.84,9.8,58.95,18.64,79.38,4.41,3.67,7.22,9.2,7.22,15.39v2.27c0,11.05-8.95,20-20,20Z"/><path class="cls-1" d="m148.48,135.51c-3.97,0-7.7-.55-11.14-1.58-2.04.7-4.23,1.08-6.5,1.08h-37.17c-11.05,0-20-8.95-20-20v-2.27c0-5.21,1.99-9.95,5.25-13.51,1.77-6.78,3.7-18.52,3.7-34.63,0-13.31-1.76-22.41-3.39-28-3.44-3.59-5.55-8.46-5.55-13.83v-2.27c0-11.05,8.95-20,20-20h40.32c9.65,0,18.45,2.69,25.42,7.78,7.47,5.45,16.38,16.14,16.38,36.16,0,9.29-2.24,17.51-6.41,24.26,3.09,5.91,4.7,12.76,5.42,20.42,4.7,3.72,7.67,9.54,7.67,16.18,0,15.01-11.67,30.21-33.99,30.21Zm32.45-29.55h0s0,0,0,0Zm0-.04h0s0,0,0,0Zm0-.03s0,0,0,.01c0,0,0,0,0-.01Zm0-.04s0,.02,0,.03c0,0,0-.02,0-.03Zm0-.03s0,.01,0,.02c0,0,0-.01,0-.02Zm0-.29c0,.09,0,.19,0,.28,0-.09,0-.19,0-.28Zm0-.06s0,.04,0,.06c0-.02,0-.04,0-.06Zm0-.06s0,.04,0,.06c0-.02,0-.04,0-.06Zm0-.03v.02-.02Zm0-.04s0,.02,0,.02c0,0,0-.02,0-.02Zm0-.03h0s0,0,0,0Zm0-.03h0s0,0,0,0Zm0-.04h0s0,0,0,0Zm0-.03h0s0,0,0,0Zm0-.04h0s0,0,0,0Zm0-.03h0s0,0,0,0Zm0-.03h0s0,0,0,0Zm0-.03h0s0,0,0,0Z"/><path class="cls-1" d="m217.78,135.01h-38.18c-11.05,0-20-8.95-20-20v-2.27c0-5.19,1.98-9.92,5.23-13.48,1.44-4.17,3.52-11.54,4.57-21.65-.75.04-1.51.06-2.27.06-7.09,0-13.54-3.6-17.27-9.62-3.73-6.04-4.06-13.45-.87-19.83.04-.08.08-.15.12-.23.3-.58.51-1.47.54-1.9-.01-6.96-1.34-14.31-2.26-16.33-1.34-2.74-2.02-5.72-2.02-8.77,0-11.5,8.9-20.5,20.25-20.5h66.28c11.36,0,20.25,9.01,20.25,20.5,0,3.05-.7,6.06-2.04,8.8-.9,1.99-2.23,9.34-2.25,16.3.04.43.24,1.32.54,1.9.04.08.08.15.12.23,3.19,6.37,2.86,13.79-.87,19.83-3.72,6.02-10.18,9.62-17.27,9.62-.75,0-1.5-.02-2.24-.06,1.07,9.87,3.15,17.4,4.7,21.96,3.08,3.52,4.94,8.12,4.94,13.16v2.27c0,11.05-8.95,20-20,20Z"/><path class="cls-1" d="m276.99,135.01h-38.43c-11.05,0-20-8.95-20-20v-2.27c0-5.51,2.22-10.49,5.82-14.11,1.99-6.19,4.89-17.94,4.89-34.03,0-12.13-2.64-21.9-4.57-27.41-3.79-3.64-6.14-8.76-6.14-14.42v-2.27c0-11.05,8.95-20,20-20h38.43c11.05,0,20,8.95,20,20v2.27c0,5.64-2.33,10.73-6.08,14.36-2,5.68-4.63,15.44-4.63,27.47,0,16.08,2.89,27.83,4.89,34.03,3.6,3.62,5.82,8.6,5.82,14.11v2.27c0,11.05-8.95,20-20,20Zm-54.25-102.71h0s0,0,0,0Z"/><path class="cls-1" d="m318.45,135.51c-5.45,0-10.56-1.24-15.06-3.12-5.99,2.1-12.63,3.12-18.69,2.08-.49-.08-.99-.19-1.47-.31-7.27-1.82-13.01-7.34-14.97-14.41-1.31-4.72-.83-9.68,1.2-13.98.44-1.07,1.26-4,1.26-10.91,0-4.42-.12-5.83-1.21-8.17-3.05-6.4-2.68-13.73,1-19.7.38-.61.78-1.2,1.21-1.75-3.11-5.99-5.16-13.16-5.16-22.29,0-29.61,24.37-42.93,41.67-42.93,5.25,0,10.42,1.08,15.16,3.07,4.8-1.54,9.39-2.31,12.65-2.69.77-.09,1.54-.13,2.31-.13,7.15,0,13.67,3.65,17.45,9.76,3.62,5.86,4.09,12.96,1.32,19.15-1.16,2.74-1.16,9.83-1.16,12.51,0,2.85.47,5.42,1.29,7.06,3.44,6.88,2.75,14.98-1.79,21.15,3.59,6.28,5.92,13.6,5.92,22.95,0,27.72-22.12,42.68-42.93,42.68Z"/><path class="cls-1" d="m402.11,135.01h-38.18c-11.05,0-20-8.95-20-20v-2.27c0-5.19,1.98-9.92,5.23-13.48,1.44-4.17,3.52-11.54,4.57-21.65-.75.04-1.51.06-2.27.06-7.09,0-13.55-3.6-17.27-9.62-3.73-6.04-4.06-13.45-.87-19.83.04-.08.08-.15.12-.23.3-.58.51-1.47.54-1.9-.01-6.96-1.34-14.31-2.26-16.33-1.34-2.74-2.02-5.72-2.02-8.77,0-11.5,8.9-20.5,20.25-20.5h66.28c11.36,0,20.25,9.01,20.25,20.5,0,3.05-.7,6.06-2.04,8.8-.9,1.99-2.23,9.34-2.25,16.3.04.43.24,1.32.54,1.9.04.08.08.15.12.23,3.19,6.37,2.86,13.79-.87,19.83-3.72,6.02-10.18,9.62-17.27,9.62-.75,0-1.5-.02-2.24-.06,1.07,9.88,3.15,17.4,4.7,21.96,3.08,3.52,4.94,8.12,4.94,13.16v2.27c0,11.05-8.95,20-20,20Z"/><path class="cls-2" d="m87.11,128.01h-35.91c-.38,0-.76-.02-1.13-.05-.37.03-.75.05-1.13.05h-22.93c-7.18,0-13-5.82-13-13v-2.27c0-5.09,2.92-9.49,7.18-11.63,5.55-10.97,11.21-34.26,15.87-53.43,2.49-10.24,5.07-20.83,7.78-30.65,1.56-5.63,6.69-9.53,12.53-9.53h5.04c6.54,0,12.07,4.86,12.9,11.36,3.44,27.02,10.39,61.93,19.94,83.01,3.54,2.32,5.87,6.33,5.87,10.87v2.27c0,7.18-5.82,13-13,13Z"/><path class="cls-2" d="m148.48,128.51c-4.18,0-8.02-.73-11.41-2.09-1.85,1.01-3.97,1.59-6.23,1.59h-37.17c-7.18,0-13-5.82-13-13v-2.27c0-3.92,1.74-7.44,4.48-9.82,2.1-7.18,4.46-20.16,4.46-38.31,0-15.5-2.32-25.88-4.26-31.84-2.86-2.38-4.68-5.98-4.68-9.99v-2.27c0-7.18,5.82-13,13-13h40.32c21.14,0,34.8,14.5,34.8,36.94,0,9.65-2.71,17.8-7.78,23.99,4.64,6.43,6.53,14.64,7.08,24.72,4.4,2.17,7.37,6.74,7.37,12.15,0,11.18-8.44,23.21-26.99,23.21Zm25.47-23.38h0Zm0-.02h0s0,0,0,0Zm0-.02h0s0,0,0,0Zm0-.02h0s0,0,0,0Z"/><path class="cls-2" d="m217.78,128.01h-38.18c-7.18,0-13-5.82-13-13v-2.27c0-3.84,1.67-7.3,4.32-9.68,2.17-5.86,5.52-17.88,6.06-33.96-3.02,1.03-6.32,1.57-9.86,1.57-4.65,0-8.88-2.35-11.31-6.3-2.45-3.96-2.66-8.83-.57-13.02.02-.05.05-.1.08-.15.96-1.87,1.32-4.06,1.32-5,0-7.16-1.38-16.27-2.96-19.48-.87-1.78-1.33-3.74-1.33-5.72,0-7.57,5.82-13.5,13.25-13.5h66.28c7.43,0,13.25,5.93,13.25,13.5,0,1.98-.45,3.94-1.33,5.72-1.58,3.22-2.96,12.32-2.96,19.48,0,.94.36,3.13,1.32,5l.08.15c2.09,4.19,1.88,9.06-.57,13.02-2.44,3.95-6.67,6.3-11.31,6.3-3.53,0-6.83-.54-9.86-1.57.57,16.22,4.08,28.26,6.22,34.22,2.49,2.37,4.04,5.71,4.04,9.42v2.27c0,7.18-5.82,13-13,13Zm-19.36-26h.75c-.12-.48-.25-.96-.37-1.46-.12.49-.25.98-.37,1.46Z"/><path class="cls-2" d="m276.99,128.01h-38.43c-7.18,0-13-5.82-13-13v-2.27c0-4.1,1.9-7.75,4.86-10.14,2.21-6.31,5.85-19.52,5.85-38,0-14.52-3.43-25.82-5.59-31.5-3.11-2.38-5.12-6.12-5.12-10.34v-2.27c0-7.18,5.82-13,13-13h38.43c7.18,0,13,5.82,13,13v2.27c0,4.19-1.98,7.91-5.06,10.29-2.27,5.94-5.65,17.22-5.65,31.54,0,18.48,3.64,31.68,5.85,38,2.96,2.38,4.86,6.04,4.86,10.14v2.27c0,7.18-5.82,13-13,13Zm-19.23-26h.02s0-.03-.01-.05c0,.02,0,.03-.01.05Z"/><path class="cls-2" d="m318.45,128.51c-5.51,0-10.6-1.54-14.87-3.72-5.62,2.38-12.18,3.72-17.7,2.78-.32-.06-.64-.12-.96-.2-4.9-1.23-8.61-4.78-9.92-9.49-.87-3.13-.53-6.43.85-9.27,1.24-2.89,1.87-7.52,1.87-13.76,0-4.68-.08-7.31-1.89-11.17-2.03-4.24-1.8-9.09.63-13.02,1.07-1.73,2.49-3.16,4.13-4.22-3.97-5.8-7.03-13.13-7.03-23.51,0-24.78,20.28-35.93,34.67-35.93,5.22,0,10.33,1.29,14.8,3.63,5.43-2.08,10.91-2.95,13.81-3.29.5-.06,1-.09,1.5-.09,4.71,0,9,2.41,11.49,6.44,2.4,3.88,2.71,8.56.87,12.64-1.76,4.06-1.76,11.39-1.76,15.34s.72,7.57,2.03,10.19c2.26,4.52,1.81,9.84-1.19,13.9-.93,1.26-2.05,2.32-3.32,3.16,4.71,6.47,7.89,13.8,7.89,23.91,0,13.06-5.68,23.71-16,30-8.64,5.27-17.44,5.68-19.94,5.68Zm-21.67-5.08h-.01s0,0,.01,0Zm.01-.01h0s0,0,0,0Zm0,0s0,0,0,0h0Z"/><path class="cls-2" d="m402.11,128.01h-38.18c-7.18,0-13-5.82-13-13v-2.27c0-3.84,1.67-7.3,4.32-9.68,2.17-5.86,5.52-17.88,6.06-33.96-3.02,1.03-6.32,1.57-9.86,1.57-4.65,0-8.88-2.36-11.31-6.3-2.45-3.96-2.66-8.83-.57-13.02l.08-.15c.96-1.87,1.32-4.06,1.32-5,0-7.16-1.38-16.27-2.96-19.48-.87-1.78-1.33-3.74-1.33-5.72,0-7.57,5.82-13.5,13.25-13.5h66.28c7.43,0,13.25,5.93,13.25,13.5,0,1.98-.45,3.94-1.33,5.72-1.58,3.22-2.96,12.32-2.96,19.48,0,.94.36,3.13,1.32,5,.03.05.05.1.08.15,2.09,4.19,1.88,9.06-.57,13.02-2.44,3.95-6.67,6.3-11.31,6.3-3.53,0-6.83-.54-9.85-1.57.57,16.22,4.07,28.26,6.22,34.22,2.49,2.37,4.04,5.71,4.04,9.42v2.27c0,7.18-5.82,13-13,13Zm-19.35-26h.75c-.12-.48-.25-.96-.37-1.46-.12.49-.25.98-.37,1.46Z"/><path class="cls-3" d="m87.11,112.74v2.27h-35.91v-2.27h2.27c2.65-4.16,3.65-15.25,3.65-18.15s0-3.78-.5-7.18h-13.1c-.5,2.39-.5,5.17-.5,6.93,0,5.17,1.39,13.99,3.65,18.4h2.27v2.27h-22.93v-2.27h2.27c10.96-14.49,18.65-58.09,28.1-92.24h5.04c3.28,25.71,10.96,68.3,23.69,92.24h2.02Zm-30.75-28.1c-.25-5.29-4.41-24.45-5.8-31h-.25c-1.64,6.3-5.92,26.21-6.43,31h12.47Z"/><path class="cls-3" d="m119.37,75.57c0,20.03,6.68,33.27,8.69,37.17h2.77v2.27h-37.17v-2.27h1.76c2.52-5.67,7.18-21.42,7.18-48.13,0-24.7-5.42-37.93-7.18-41.83h-1.76v-2.27h40.32c7.31,0,21.8,2.52,21.8,23.94,0,12.73-6.3,20.67-18.27,23.31v.25c13.23,4.16,17.77,9.83,17.77,32.76,0,4.03.25,7.06,2.65,7.06,1.26,0,2.77-1.01,3.02-2.77,0,0,0-.25.25-.25h1.01c.25,0,.25.25.25.5,0,1.89-.76,10.21-13.99,10.21-11.47,0-14.49-7.94-14.49-14.99,0-3.91,1.51-7.94,1.51-15.12s-1.26-16-10.71-16h-5.42v6.17Zm3.15-8.69c10.84,0,12.47-9.45,12.47-22.68,0-10.21-1.39-21.42-8.19-21.42-7.31,0-7.43,28.86-7.43,37.68v6.43h3.15Z"/><path class="cls-3" d="m179.59,115.01v-2.27h1.26c2.39-4.41,9.2-22.18,9.2-48.13,0-12.73,0-41.33-4.28-41.33-3.15,0-2.77,2.52-2.77,3.02,0,1.13.76,7.43.76,10.46,0,9.58-3.65,20.92-16.63,20.92-.25,0-.38-.25-.25-.5,2.02-3.91,2.77-8.19,2.77-10.96,0-7.31-1.26-19.03-4.28-25.2,0-.25,0-.5.25-.5h66.28c.25,0,.25.25.25.5-3.02,6.17-4.28,17.89-4.28,25.2,0,2.77.76,7.06,2.77,10.96.13.25,0,.5-.25.5-12.98,0-16.63-11.34-16.63-20.92,0-3.02.76-9.32.76-10.46,0-.5.38-3.02-2.77-3.02-4.28,0-4.28,28.6-4.28,41.33,0,25.96,7.06,43.72,9.07,48.13h1.26v2.27h-38.18Z"/><path class="cls-3" d="m276.99,22.77h-1.76c-1.01,2.02-8.95,18.4-8.95,41.83,0,25.96,6.68,43.72,8.95,48.13h1.76v2.27h-38.43v-2.27h1.76c2.27-4.41,8.95-22.18,8.95-48.13,0-23.44-7.94-40.07-8.95-41.83h-1.76v-2.27h38.43v2.27Z"/><path class="cls-3" d="m296.52,65.36c-5.54-5.92-9.95-11.72-9.95-22.43,0-19.15,16.88-22.93,21.67-22.93,5.92,0,10.96,2.77,13.74,6.05,3.4-3.28,10.96-5.17,16.38-5.8.38,0,.63.5.5.76-2.9,6.55-2.9,15.5-2.9,20.67,0,5.54,1.01,11.21,3.4,16,.13.25,0,.63-.76.5-17.89-3.02-18.15-22.93-18.15-26.97,0-1.76-2.77-8.44-9.95-8.44-1.76,0-7.31,1.76-7.31,9.45s2.39,12.22,5.92,15.88l19.66,20.16c8.19,8.57,12.6,14.36,12.6,24.57,0,20.16-18.4,22.68-22.93,22.68-6.17,0-11.72-3.53-14.24-6.05-3.65,3.28-11.72,6.05-16.13,5.29-.5-.13-.63-.38-.5-.5,2.65-5.8,3.15-13.23,3.15-19.41,0-5.42-.13-10.33-3.15-16.76-.25-.5,0-.76.25-.76,16,0,18.65,28.98,19.28,29.86,1.13,1.64,3.65,5.29,8.57,5.29,5.8,0,9.07-5.17,9.07-9.45,0-5.29-1.13-9.07-6.8-14.99l-21.42-22.68Z"/><path class="cls-3" d="m363.93,115.01v-2.27h1.26c2.39-4.41,9.2-22.18,9.2-48.13,0-12.73,0-41.33-4.28-41.33-3.15,0-2.77,2.52-2.77,3.02,0,1.13.76,7.43.76,10.46,0,9.58-3.65,20.92-16.63,20.92-.25,0-.38-.25-.25-.5,2.02-3.91,2.77-8.19,2.77-10.96,0-7.31-1.26-19.03-4.28-25.2,0-.25,0-.5.25-.5h66.28c.25,0,.25.25.25.5-3.02,6.17-4.28,17.89-4.28,25.2,0,2.77.76,7.06,2.77,10.96.13.25,0,.5-.25.5-12.98,0-16.63-11.34-16.63-20.92,0-3.02.76-9.32.76-10.46,0-.5.38-3.02-2.77-3.02-4.28,0-4.28,28.6-4.28,41.33,0,25.96,7.06,43.72,9.07,48.13h1.26v2.27h-38.18Z"/></g></svg>