<?xml version="1.0" encoding="UTF-8"?><svg id="Layer_2" xmlns="http://www.w3.org/2000/svg" viewBox="0 0 463.37 463.87"><defs><style>.cls-1,.cls-2{fill:#ba0c2f;}.cls-2{opacity:.6;}</style></defs><g id="background"><path class="cls-1" d="m460.43,85.07H.43c-.24,0-.43-.19-.43-.43s.19-.43.43-.43h460c.24,0,.43.19.43.43s-.19.43-.43.43Z"/><path class="cls-1" d="m460.93,158.07H.93c-.24,0-.43-.19-.43-.43s.19-.43.43-.43h460c.24,0,.43.19.43.43s-.19.43-.43.43Z"/><path class="cls-1" d="m461.43,231.07H1.43c-.24,0-.43-.19-.43-.43s.19-.43.43-.43h460c.24,0,.43.19.43.43s-.19.43-.43.43Z"/><path class="cls-1" d="m461.93,303.07H1.93c-.24,0-.43-.19-.43-.43s.19-.43.43-.43h460c.24,0,.43.19.43.43s-.19.43-.43.43Z"/><path class="cls-1" d="m462.93,376.07H2.93c-.24,0-.43-.19-.43-.43s.19-.43.43-.43h460c.24,0,.43.19.43.43s-.19.43-.43.43Z"/><rect class="cls-2" x="154.43" y="85.13" width="76" height="72"/><rect class="cls-2" x="77.43" y="158.13" width="77" height="72"/><rect class="cls-2" x="154.43" y="231.13" width="76" height="72"/><rect class="cls-2" x="77.43" y="303.13" width="77" height="72"/><rect class="cls-2" x="230.43" y="158.13" width="76" height="72"/><rect class="cls-2" x="306.43" y="85.13" width="76" height="72"/><rect class="cls-2" x="230.43" y="303.13" width="76" height="72"/><rect class="cls-2" x="306.43" y="230.13" width="76" height="72"/><path class="cls-1" d="m77.93,1.57v460c0,.24-.19.43-.43.43s-.43-.19-.43-.43V1.57c0-.24.19-.43.43-.43s.43.19.43.43Z"/><path class="cls-1" d="m154.93.43v460c0,.24-.19.43-.43.43s-.43-.19-.43-.43V.43c0-.24.19-.43.43-.43s.43.19.43.43Z"/><path class="cls-1" d="m230.93,1.43v460c0,.24-.19.43-.43.43s-.43-.19-.43-.43V1.43c0-.24.19-.43.43-.43s.43.19.43.43Z"/><path class="cls-1" d="m306.93,2.43v460c0,.24-.19.43-.43.43s-.43-.19-.43-.43V2.43c0-.24.19-.43.43-.43s.43.19.43.43Z"/><path class="cls-1" d="m382.93,3.43v460c0,.24-.19.43-.43.43s-.43-.19-.43-.43V3.43c0-.24.19-.43.43-.43s.43.19.43.43Z"/></g></svg>