<?xml version="1.0" encoding="UTF-8"?><svg id="Layer_2" xmlns="http://www.w3.org/2000/svg" viewBox="0 0 527.6 178.91"><defs><style>.cls-1{fill:#fff;}.cls-2{fill:#d9414e;}.cls-3{fill:#231f20;}</style></defs><g id="exported"><path d="m62.13,151.81C24.39,151.81,0,129.16,0,94.1c0-17.9,7.56-34.73,21.28-47.41,13.27-12.26,30.55-19.01,48.65-19.01s33.03,5.32,44.22,15.37c11.55,10.38,17.91,25.41,17.91,42.34,0,18.42-7.59,35.45-21.38,47.96-13.11,11.9-30.35,18.45-48.56,18.45Z"/><path d="m99.42,178.91c-8.98,0-16.54-1.62-22.48-4.81-8.78-4.72-13.82-12.84-13.82-22.28,0-14.94,11.05-26.21,25.71-26.21,4.91,0,9.35,1.29,13.14,3.71l11.91-38.78c-3.01-2.53-5.65-6.76-5.65-13.81,0-13.2,9.23-17.28,14.94-17.73h0s1.45-.11,1.45-.11c10.41-19.71,31-31.18,56.95-31.18,6.34,0,12.21.97,17.38,2.83,10.46-5.01,22.67-7.62,35.8-7.62,10.74,0,19.53,1.87,26.14,5.56,8.86,4.95,13.94,13.26,13.94,22.8,0,7.15-2.81,13.1-7.09,17.51.44,1.56.67,3.2.67,4.92,0,7.04-4.83,20.9-8.07,29.19,1.12,1.13,2.1,2.4,2.89,3.8,2.88,5.08,2.83,11.29-.11,16.19-.1.16-.2.32-.3.48-12.25,18.73-26.16,27.84-42.54,27.84-7.64,0-14.03-2.11-18.71-5.89-10.41,18.49-29.86,28.83-55.13,28.83-4.56,0-10.3-.46-15.87-2.15-9.1,4.61-19.53,6.94-31.13,6.94Z"/><path d="m276.83,151.44c-22.41,0-38.06-16.07-38.06-39.07,0-14.07,5.76-26.97,17.12-38.33s27.44-17.62,43.87-17.62c18.87,0,33.65,12.57,33.65,28.61,0,6.31-2.45,12.18-6.45,16.72,2,4.32,2,9.24-.04,13.53-10.29,21.97-29.95,36.17-50.09,36.17Z"/><path d="m330.88,151.18c-16.61,0-27.35-9.99-27.35-25.46,0-4.41.98-8.84,2.85-14.06-1.05-.93-1.98-1.99-2.77-3.15-2.98-4.4-3.6-9.94-1.65-14.82.02-.05.04-.11.07-.16,6.25-15.11,14.36-25.71,24.26-31.73-1.43-3.5-2.21-7.4-2.21-11.56,0-16.96,13.51-30.25,30.75-30.25,16.24,0,28.48,12.35,28.48,28.73,0,8.59-3.68,16.35-9.59,21.86,1.65,3.52,2.54,7.58,2.54,12.04,0,5.83-1.83,11.91-5.25,20.29,1.1,1.11,2.06,2.38,2.84,3.76,2.88,5.08,2.84,11.28-.1,16.18-.1.17-.2.33-.31.49-12.25,18.73-26.16,27.83-42.54,27.83Z"/><path d="m416.31,151.44c-8.2,0-15.07-3.06-19.66-8.24-7.28,5.48-14.6,8.24-21.93,8.24-15.83,0-26.47-10.59-26.47-26.34s7.73-33.35,21.21-46.72c12.7-12.59,28.67-20.13,42.76-20.2,2.67-1.47,5.77-2.27,9.12-2.27,8.74,0,20.87,3.78,28.86,8.99.04.03.08.06.13.08,6.87,4.58,8.32,10.69,8.32,15,0,4.07-1.22,7.97-3.24,14.44-.3.97-.62,1.99-.96,3.08l-1.13,3.67c2.12,1.6,3.9,3.64,5.13,6,2.73,5.24,2.42,11.43-.79,16.25-7.89,12.05-20.75,28.01-41.36,28.01Z"/><path d="m462.8,151.06c-15.88,0-27.85-11.65-27.85-27.1,0-8.66,2.89-17.83,5.21-25.2.26-.83.51-1.63.76-2.41l11.19-36.55c-2.28-2.61-4.04-6.47-4.04-12.19,0-13.24,9.63-16.48,12.88-17.19l.47-.1c9.5-2.03,22.5-4.8,30.82-6.85.21-.05.43-.1.65-.14l.25-.05c.88-.18,2.35-.49,4.2-.49,7.66,0,18.28,5.87,18.28,16.89,0,7.4-5.91,26.83-7.1,30.66l-9.67,31.06c1.76,1.42,3.27,3.17,4.41,5.17,2.88,5.08,2.84,11.28-.1,16.18-.1.17-.2.33-.31.49-9.45,14.46-20.84,27.83-40.02,27.83Z"/><path class="cls-1" d="m69.13,141.81c-19.08,0-35.47-5.55-47.4-16.04-12.9-11.35-19.72-27.49-19.72-46.68S10.13,41.65,24.89,28.02C39.09,14.91,57.58,7.69,76.94,7.69c39.52,0,67.13,25.79,67.13,62.72,0,19.84-8.17,38.19-23.02,51.67-14.03,12.73-32.47,19.75-51.92,19.75Z"/><path class="cls-1" d="m106.42,168.91c-30.48,0-41.3-17.29-41.3-32.1,0-17.79,13.2-31.21,30.71-31.21,3.71,0,7.06.6,10.07,1.67l9.32-30.36c-2.83-3.34-4.99-8.18-4.99-15.2,0-2.5.18-5.84,1.55-9.42,2.79-7.26,9.2-12.22,16.75-13.19,11.62-19.91,33.18-31.42,60.03-31.42,6.13,0,11.88.84,17.08,2.46,10.71-4.77,22.98-7.25,36.09-7.25,42.9,0,45.08,27.79,45.08,33.36,0,7.09-2.49,13.64-6.69,18.89.17,1.15.26,2.33.26,3.54,0,7.32-4.26,19.98-7.34,28.17,5.14,6.86,5.9,15.99,1.34,23.59-.13.22-.26.43-.4.64-13.06,19.97-28.78,30.1-46.73,30.1-6.51,0-12.3-1.39-17.12-3.92-11.76,17.28-31.58,26.85-56.72,26.85-5.58,0-10.77-.62-15.43-1.84-9.38,4.36-20.1,6.62-31.57,6.62Zm163.47-59.27s-.02.03-.03.04c0-.01.02-.03.03-.04Zm-133.7-24.74h.05s-.05,0-.05,0Zm125.7-52.49h0s0,0,0,0Z"/><path class="cls-1" d="m283.83,141.44c-24.95,0-43.06-18.53-43.06-44.07,0-15.45,6.25-29.53,18.58-41.86,11.95-11.95,29.68-19.09,47.41-19.09,21.67,0,38.65,14.76,38.65,33.61,0,6.5-2.17,12.62-5.83,17.65,1.39,4.79,1.1,10.01-1.14,14.73-11.12,23.72-32.54,39.04-54.62,39.04Z"/><path class="cls-1" d="m337.88,141.18c-9.08,0-16.59-2.48-22.32-7.37-4.58-3.9-10.03-11.08-10.03-23.09,0-4.17.73-8.25,2.14-12.76-4.81-5.81-6.3-13.75-3.35-21.12.03-.07.06-.14.09-.21,4.61-11.15,11.86-23.59,22.93-31.75-.83-3.03-1.27-6.26-1.27-9.63,0-19.76,15.7-35.25,35.75-35.25s33.48,14.5,33.48,33.73c0,8.8-3.31,16.85-8.77,23.03,1.12,3.33,1.71,6.98,1.71,10.87,0,5.89-1.56,11.77-4.49,19.33,5.07,6.84,5.8,15.91,1.26,23.47-.13.22-.27.44-.41.66-13.06,19.97-28.78,30.1-46.73,30.1Zm42.64-31.55s0,.01-.01.02c0,0,0-.01.01-.02Zm-62.97-36.18h0s0,0,0,0Zm38.34-37.53c3.43.08,6.67.56,9.68,1.4.31-.64.49-1.36.49-2.08,0-2.62-3.41-6.27-6.77-6.27-2.09,0-4,2.27-4,4.75,0,.69.22,1.45.6,2.19Z"/><path class="cls-1" d="m423.31,141.44c-8.03,0-14.98-2.46-20.25-6.76-7.01,4.5-14.14,6.76-21.33,6.76-18.53,0-31.47-12.89-31.47-31.34,0-38.17,36.93-70.96,67.79-71.9,3.11-1.48,6.61-2.29,10.29-2.29,9.75,0,22.74,4.03,31.59,9.8.06.04.11.07.17.11,9.17,6.12,10.54,14.63,10.54,19.16,0,4.83-1.38,9.24-3.46,15.92-.3.96-.62,1.98-.95,3.06l-.19.6c7.06,7.27,8.39,18.2,2.78,26.63-8.53,13.02-22.51,30.24-45.52,30.24Zm41.51-31.81s-.04.05-.05.08c.02-.03.04-.05.05-.08Zm-21.21-43.83s0,.01,0,.02c0,0,0-.01,0-.02Z"/><path class="cls-1" d="m469.8,141.06c-18.42,0-32.85-14.1-32.85-32.1,0-9.42,3.01-19,5.44-26.7.26-.82.51-1.62.75-2.39l10.45-34.13c-2.15-3.36-3.53-7.7-3.53-13.14,0-13.81,8.98-20.48,16.98-22.11l.33-.07c9.46-2.02,22.42-4.78,30.67-6.81.29-.07.57-.13.86-.19l.21-.04c1-.21,2.86-.6,5.22-.6,4.61,0,8.57,1.53,11.07,2.81,7.64,3.91,12.2,11.04,12.2,19.08s-5.12,25.04-7.32,32.14l-8.75,28.08c6.5,7,7.87,17.12,2.89,25.42-.13.22-.27.44-.41.66-9.73,14.88-22.59,30.1-44.21,30.1Zm40.1-31.52l-.02.02.02-.02Zm.02-.03s-.01.02-.02.03c0,0,.01-.02.02-.03Zm-4.32-4.8h0s0,0,0,0Zm-31.19-54.9s-.04,0-.06.01c.02,0,.04,0,.06-.01Z"/><path class="cls-2" d="m69.13,131.81c-34.7,0-57.13-20.69-57.13-52.72,0-16.49,6.99-32.02,19.68-43.73,12.35-11.4,28.42-17.68,45.26-17.68,34.17,0,57.13,21.19,57.13,52.72,0,16.99-7.01,32.71-19.74,44.26-12.18,11.06-28.24,17.15-45.2,17.15Zm32.97-87.15c-.99,18.02-10.32,48.44-20.96,65.71,19.18-4.73,32.92-20.6,32.92-39.97,0-11.33-4.24-20.13-11.97-25.74Zm-37.27-5.39c-18.7,5.01-32.83,21.22-32.83,39.82,0,7.84,1.98,19.09,11.94,26.15.87-17.91,10.21-48.54,20.88-65.96Zm16.54,11.08c-7.04,11.73-14.29,33.78-16.68,48.77,7.04-11.73,14.29-33.78,16.68-48.77Z"/><path class="cls-2" d="m106.42,158.91c-23.07,0-31.3-11.41-31.3-22.1,0-12.09,8.9-21.21,20.71-21.21,3.45,0,10.47.93,15.6,7.71l15.33-49.91c-3.03-1.31-6.53-4.4-6.53-11.69,0-10.98,7.73-12.53,10.3-12.74h0s4.29-.31,4.29-.31c9.1-19.78,28.32-30.97,53.76-30.97,6.59,0,12.56,1.13,17.62,3.3,10.19-5.31,22.36-8.09,35.56-8.09,32.55,0,35.08,17.88,35.08,23.36,0,6.92-3.29,12.45-8,16.12,1.01,1.84,1.58,3.98,1.58,6.31,0,6.82-5.89,23.06-9.09,30.76.1.06.2.13.31.2,5.55,3.67,7.36,10.4,4.21,15.65-.07.11-.13.22-.2.32-11.25,17.21-23.8,25.57-38.36,25.57-6.73,0-11.9-1.63-15.83-4.97-1.37-1.17-2.86-2.8-4.07-5.02-8.38,21.29-27.35,32.93-53.94,32.93-4.71,0-10.78-.52-16.32-2.57-8.81,4.89-19.1,7.36-30.68,7.36Zm-11.29-22.25c.22.18.64.44,1.28.71-.3-.93-.59-1.48-.77-1.76-.22.02-.33.07-.36.08.01.02-.12.3-.14.97Zm54.28-71.96c.14,1.4.02,3-.52,4.79l-19.45,63.33c.43-.28.85-.57,1.26-.86,3.5-2.51,8.21-2.5,11.7.02.1.07.21.15.34.22l-.02-.09c-.88-3.71-1.46-6.17-1.75-8.62-.22-1.84.08-3.71.87-5.4.6-1.29,1.18-2.89,1.74-4.77l15.52-51.11c.47-1.54,1.28-2.9,2.34-4-.15-1.45-.02-3.12.58-5l2.83-9.57c-6.42,3.99-11.02,9.93-13.5,17.61-.42,1.29-1.08,2.46-1.94,3.45Zm44.74,5.12l-17.95,59.02c6.6-3.9,11.16-9.95,13.64-18.11l14.61-48.5c.47-1.55,1.29-2.92,2.35-4.03-.14-1.42-.01-3.05.54-4.9,0,0,0-.02,0-.02l3.61-11.92c-3.34,1.74-7.41,1.47-10.5-.78-.28-.21-.64-.44-1.08-.68.77,2.75,1.3,5.59,1.55,8.32.17,1.92-.21,3.84-1.1,5.54-1.17,2.24-2.24,4.69-3.07,7.09-.45,1.28-1.13,2.43-2,3.4.25,1.72.09,3.61-.61,5.58Zm30.77,41.2c.49.09,1.25.17,2.34.17,2.41,0,5.53-.46,9.33-2.97-.6-1.41-.93-2.99-.93-4.67,0-4.93,1.68-8.85,6.65-20.51l.08-.18c2.36-5.49,4.46-11.45,5.91-16.16-2.29.22-4.79.45-7.51.61-.05,4.35-5.65,17.56-10.35,27.9-2.73,6.02-5.53,12.56-5.53,15.52,0,.1,0,.2,0,.29Zm-93.66-42.08h-.02.02Zm.01,0h0,0Zm101.42-28.84c-.57.98-1.15,2.28-1.67,3.97l-1.06,3.49c1.85,0,4,.01,6-.05-1.03-1.74-1.8-3.51-2.43-5.15l-.85-2.26Zm20.54-2.67c.19.02.47.04.86.04,1.23,0,2.51-.74,2.72-1.13,0,0,0-.03,0-.09,0-.11-.01-.16-.01-.16-.23-.37-1.66-1.44-5.09-2.23l.53,1.41c.45,1.19.79,1.83,1,2.16Z"/><path class="cls-2" d="m283.83,131.44c-19.46,0-33.06-14.01-33.06-34.07,0-12.7,5.27-24.4,15.66-34.79,10.12-10.12,25.2-16.16,40.34-16.16,16.07,0,28.65,10.37,28.65,23.61,0,6.35-3.09,12.14-7.83,15.97,2.97,3.43,3.77,8.08,1.82,12.14-4.88,10.43-11.92,19.04-20.37,24.9-7.8,5.42-16.75,8.4-25.2,8.4Zm-.65-57.03c-.92.73-1.79,1.5-2.61,2.31-6.59,6.59-9.8,13.35-9.8,20.65,0,9.07,4.64,14.07,13.06,14.07,1.74,0,3.67-.27,5.7-.86-5.76-3.69-9.4-10.69-9.4-19.25,0-5.52,1.1-11.36,3.04-16.92Zm17.7,10.58c-.48,2.15-.75,4.3-.75,6.34,0,.92.11,1.59.22,2.04,1.17-.19,3.01-.98,5.95-4.33-2.09-.98-3.92-2.35-5.42-4.05Z"/><path class="cls-2" d="m337.88,131.18c-6.73,0-11.9-1.63-15.83-4.97-2.97-2.54-6.52-7.28-6.52-15.48,0-4.69,1.35-9.6,3.91-15.93-5.5-2.79-8.01-8.84-5.84-14.24.01-.04.03-.07.04-.11,6.65-16.1,15.48-26.62,26.35-31.46-2.5-3.8-3.92-8.5-3.92-13.74,0-14.16,11.31-25.25,25.75-25.25,13.61,0,23.48,9.98,23.48,23.73,0,8.54-4.39,16.11-11.1,20.68,2.61,3.52,4.04,8,4.04,13.22,0,5.76-2.21,12.2-6.31,21.82.1.06.2.12.29.19,5.55,3.67,7.36,10.4,4.21,15.65-.07.11-.13.22-.21.33-11.25,17.21-23.8,25.57-38.36,25.57Zm-2.34-20.17c.49.09,1.25.17,2.34.17,2.41,0,5.53-.46,9.33-2.97-.6-1.41-.93-2.99-.93-4.67,0-4.93,1.68-8.86,6.66-20.53l.07-.15c1.44-3.35,5.25-12.19,5.25-15.23,0-.66-.07-1.05-.13-1.24-.32-.15-1.27-.48-3.23-.48-2.79,0-6.24.53-9.98,3.25,1.48,1.99,2.34,4.5,2.34,7.29,0,2.49-.48,6.19-6.19,18.75-2.73,6.02-5.53,12.57-5.53,15.52,0,.1,0,.2,0,.29Zm-17.73-30.36s-.05.09-.08.14c.03-.05.05-.09.08-.14Zm44.01-50.65c-2.86,0-5.75,1.8-5.75,5.25s1.6,3.73,3.23,3.73c2.95,0,6-1.96,6-5.25s-1.76-3.73-3.48-3.73Z"/><path class="cls-2" d="m423.31,131.44c-8.65,0-15.33-3.99-18.61-10.55-7.74,7.02-15.41,10.55-22.97,10.55-13.04,0-21.47-8.38-21.47-21.34,0-32.76,33.07-61.92,59.14-61.92.42,0,.83.01,1.23.03,2.16-1.48,4.81-2.3,7.71-2.3,7.87,0,18.86,3.44,26.13,8.18.03.02.06.04.08.06,4.04,2.69,6.09,6.34,6.09,10.84,0,3.3-1.13,6.93-3.01,12.95-.3.97-.62,2.01-.96,3.1l-2.29,7.43c.89.38,1.77.88,2.62,1.48,5.45,3.89,6.92,10.62,3.48,15.75-11.66,17.81-23.13,25.75-37.18,25.75Zm-.82-20.04c.21.02.48.04.82.04,1.58,0,4.34,0,8.36-2.87-.7-1.5-1.09-3.2-1.09-5.03,0-4.57,1.53-10.61,2.82-14.86l4.17-13.54c.34-1.11.67-2.17.98-3.17.33-1.07.68-2.19,1-3.23-2.56-1.1-5.37-1.96-7.75-2.43.31,2.17.38,4.09.38,5.35,0,4.43-1.95,10.14-5.17,15.84.68,2.09.7,4.36,0,6.47-.06.19-.13.37-.2.56-2.98,7.46-4.33,14.03-4.33,16.32,0,.21,0,.39.02.54Zm-42.14-.07c.28.06.72.12,1.37.12,2.33,0,7.07-2.28,13.48-9.38-1.5-2.08-2.44-4.83-2.44-8.21,0-3.94,1.1-9,2.81-14.18-9.1,8.98-15.32,21.41-15.32,30.44,0,.57.05.97.09,1.22Zm44.47-16.41s0,0,0,0c0,0,0,0,0,0Zm-23.19-7.26h0,0Z"/><path class="cls-2" d="m469.8,131.06c-13.03,0-22.85-9.5-22.85-22.1,0-7.89,2.76-16.66,4.98-23.7.26-.84.52-1.65.76-2.44l12.12-39.59c-2.41-1.69-4.75-4.83-4.75-10.63,0-2.51.66-10.75,9.08-12.33l.32-.07c9.53-2.03,22.58-4.82,30.97-6.88.14-.04.29-.07.43-.1l.29-.06c.78-.16,1.85-.39,3.18-.39,2.76,0,5.27,1.07,6.52,1.71,6.1,3.12,6.75,8.16,6.75,10.18,0,5.18-3.7,18.95-6.88,29.17l-10.81,34.71c.58.27,1.15.6,1.71.96,5.55,3.67,7.36,10.4,4.21,15.65-.07.11-.13.22-.21.33-11.88,18.16-22.26,25.57-35.84,25.57Zm17.1-94.15c.07,1.16-.05,2.35-.34,3.54-.04.17-.09.34-.14.5l-14.62,47.76c-.26.84-.53,1.69-.8,2.56-1.81,5.74-4.05,12.88-4.05,17.7,0,.52,0,2.1,2.85,2.1,1.72,0,3.9,0,7.11-2.33-.79-1.57-1.23-3.37-1.23-5.32,0-4.3,1.67-9.79,4.62-19.14l11.33-36.38c1.59-5.13,2.79-9.41,3.68-12.85-2.73.61-5.57,1.24-8.41,1.86Zm-14.18-11.52h0,0Z"/><path class="cls-3" d="m69.13,121.81c-28.35,0-47.13-15.25-47.13-42.72s25.58-51.41,54.94-51.41,47.13,16.51,47.13,42.72c0,29.74-25.58,51.41-54.94,51.41Zm15.88-87.32c-2.14,0-4.28.88-6.43,3.02-10.96,10.96-24.7,50.4-24.7,70.31,0,4.79,2.9,7.18,7.18,7.18,2.14,0,4.28-.88,6.43-3.02,10.96-10.96,24.7-50.4,24.7-70.31,0-4.79-2.9-7.18-7.18-7.18Z"/><path class="cls-3" d="m216.93,56.16c-.38,1.26-.25,1.51,1.01,1.51.76,0,5.29-.13,14.99-.13,10.96,0,19.66-1.64,24.57-1.64,1.89,0,2.9,1.13,2.9,2.77,0,3.91-4.54,18.15-8.82,28.1-4.41,10.33-5.92,13.86-5.92,16.76,0,.88.38,1.26,1.13,1.26,1.13,0,3.15-1.89,6.93-6.93,1.01-1.39,4.29,1.01,3.53,2.27-10.71,16.38-20.79,21.04-29.99,21.04-8.44,0-12.35-3.4-12.35-10.46,0-4.41,2.02-9.96,6.43-19.66,3.78-8.32,9.45-22.05,9.45-23.82,0-1.26-.63-1.89-1.76-1.89-4.41,0-11.97-.13-14.99-.25l-14.62,48.51c-6.3,20.79-23.31,30.49-45.99,30.49-7.18,0-13.23-1.39-16.89-4.03-8.06,5.8-18.27,8.82-30.12,8.82-12.6,0-21.3-4.03-21.3-12.1,0-7.18,4.91-11.21,10.71-11.21,4.79,0,8.69,2.9,10.58,10.46,1.51,6.17,2.65,8.32,4.91,8.32,2.39,0,5.42-4.28,8.32-13.73l19.66-64.01c.38-1.26.13-1.51-1.26-1.64l-6.8-.63c-.88-.13-1.01-.5-1.01-2.65,0-2.27.25-2.77,1.01-2.77l10.58-.76c6.3-19.53,23.31-30.49,46.75-30.49,7.56,0,13.61,1.76,17.77,4.79,9.2-6.05,21.17-9.58,35.41-9.58,16.76,0,25.08,5.29,25.08,13.36,0,7.18-6.93,11.21-12.73,11.21-6.3,0-8.95-2.77-11.21-8.69l-1.13-3.02c-2.39-6.43-4.41-8.19-7.31-8.19-4.41,0-10.08,4.03-12.98,13.61l-4.54,14.99Zm-32.26,9.2c-6.43-.13-14.11-.13-16-.25l-15.5,51.03c-.63,2.14-1.39,4.28-2.27,6.17.25,2.14.88,4.66,1.89,8.95,1.51,6.17,2.65,8.32,4.92,8.32,2.39,0,5.8-3.4,8.19-11.21l18.77-61.74c.25-.63.25-1.13,0-1.26Zm-12.1-7.69c.76,0,8.95,0,14.74-.13,1.01-2.9,2.27-5.8,3.65-8.44-.25-2.77-.88-5.67-1.76-8.32l-.5-1.51c-1.64-5.04-2.77-7.06-5.04-7.06-3.15,0-6.43,4.66-9.07,13.73l-3.02,10.21c-.38,1.13-.25,1.51,1.01,1.51Z"/><path class="cls-3" d="m283.83,121.44c-13.73,0-23.06-9.2-23.06-24.07,0-9.2,3.53-18.52,12.73-27.72,8.06-8.06,20.41-13.23,33.27-13.23,11.34,0,18.65,6.68,18.65,13.61,0,6.05-5.67,10.71-11.09,10.71s-8.06-4.16-8.06-8.95c0-3.28,1.26-6.8,1.26-8.95,0-1.89-1.01-2.39-2.14-2.39-1.01,0-2.39.76-3.53,1.89-6.93,6.93-11.72,18.78-11.72,28.98,0,7.43,3.78,12.1,9.32,12.1,6.68,0,11.84-4.03,17.39-11.59,1.01-1.26,4.16.76,3.53,2.02-8.95,19.15-24.32,27.6-36.54,27.6Z"/><path class="cls-3" d="m325.53,110.73c0-4.41,2.02-9.96,6.43-19.66,3.78-8.32,5.29-12.85,5.29-14.62,0-1.26-.63-1.89-1.76-1.89-2.02,0-5.42,4.54-8.95,10.96-.88,1.64-4.16,0-3.65-1.26,7.81-18.9,18.15-28.35,32.01-28.35,8.44,0,13.36,3.91,13.36,11.72,0,3.91-1.76,9.2-6.05,19.15-4.41,10.33-5.92,13.86-5.92,16.76,0,.88.38,1.26,1.13,1.26,1.13,0,3.15-1.89,6.93-6.93,1.01-1.39,4.28,1.01,3.53,2.27-10.71,16.38-20.79,21.04-29.99,21.04-8.44,0-12.35-3.4-12.35-10.46Zm20.54-75.48c0-8.69,7.06-15.25,15.75-15.25,7.94,0,13.48,5.54,13.48,13.73,0,8.69-7.31,15.25-16,15.25-7.94,0-13.23-5.54-13.23-13.73Z"/><path class="cls-3" d="m412.47,110.85c0-4.41,2.02-12.47,5.04-20.04.13-.38-.63-.88-1.13-.88-.13,0-.25,0-.5.5-12.35,20.41-24.45,31-34.15,31-6.55,0-11.47-3.15-11.47-11.34,0-26.97,28.35-51.92,49.14-51.92,2.39,0,3.91.5,5.17,1.01l.76-1.51c.5-1.13,1.39-1.76,3.02-1.76,5.67,0,14.87,2.77,20.67,6.55,1.13.76,1.64,1.26,1.64,2.52,0,2.14-1.51,6.55-3.53,13.1l-4.16,13.48c-1.64,5.42-2.39,9.58-2.39,11.97,0,.88.38,1.26,1.13,1.26,1.13,0,3.15-1.89,6.93-6.93,1.01-1.39,4.41,1.01,3.53,2.27-10.71,16.38-19.66,21.3-28.86,21.3-5.92,0-10.84-2.77-10.84-10.58Zm-2.52-17.26c7.69-7.69,12.22-17.52,12.22-21.93,0-4.79-1.13-8.44-2.27-9.58-.5-.5-.88-.63-1.51-.63-.88,0-2.02.38-3.28,1.64-4.66,4.66-12.35,22.3-12.35,30.75,0,1.89.63,3.02,1.89,3.02s2.65-.63,5.29-3.28Z"/><path class="cls-3" d="m456.95,108.96c0-7.18,3.15-16.26,5.29-23.19l14.62-47.76c.25-1.01-.25-1.51-1.51-1.76l-4.28-1.01c-.76-.13-1.01-.5-1.01-2.65s.25-2.39,1.01-2.52c9.45-2.02,23.06-4.91,31.75-7.06.63-.13,1.13-.25,1.51-.25.88,0,3.28,1.01,3.28,1.89,0,2.14-1.89,11.59-6.43,26.21l-11.34,36.42c-2.27,7.18-4.16,13.23-4.16,16.13,0,.88.38,1.26,1.13,1.26,1.13,0,3.15-1.89,6.93-6.93,1.01-1.39,4.28,1.01,3.53,2.27-10.71,16.38-18.27,21.04-27.47,21.04-7.43,0-12.85-5.04-12.85-12.1Z"/></g></svg>