<?xml version="1.0" encoding="UTF-8"?><svg id="Layer_2" xmlns="http://www.w3.org/2000/svg" viewBox="0 0 1637 952"><defs><style>.cls-1{fill:#f7931e;}.cls-2{fill:#f2da5e;}.cls-3{fill:#fcd7d7;}.cls-4{fill:#d9414e;}.cls-5{fill:#702426;}.cls-6{fill:none;fill-rule:evenodd;}</style></defs><g id="exported"><path class="cls-1" d="m840.5,268c-8.8,0-17.11-4.09-22.5-11.02-5.39,6.92-13.7,11.02-22.5,11.02s-17.41-4.24-22.79-11.4c-6.95,4.7-16.26,7.71-25.14,8.09l-2.04.09,7.92-11.13.11-.06,57.4-88.08h14.08l58.08,87.13,7.78,10.93-2.04-.09c-8.73-.37-17.93-3.3-24.84-7.88-5.33,7.79-14.05,12.41-23.52,12.41Z"/><path class="cls-3" d="m817.1,844H34.2s270.97-107.58,519.8-348c148-143,263.1-318,263.1-318,0,0,129.88,183.3,272.9,320,249,238,510,346,510,346h-782.9Z"/><path class="cls-3" d="m1600,848.85H34.2c-2.33,0-4.33-1.65-4.77-3.94s.81-4.56,2.98-5.42c.68-.27,68.69-27.48,166.14-83.64,89.9-51.81,223.96-139.55,352.08-263.34,145.9-140.97,261.27-315.43,262.42-317.18.88-1.34,2.37-2.16,3.97-2.19.03,0,.06,0,.08,0,1.57,0,3.05.76,3.96,2.05,1.3,1.83,131.27,184.5,272.29,319.3,128.29,122.62,259.77,209.93,347.48,261.58,94.98,55.93,160.37,83.18,161.02,83.45,2.14.89,3.36,3.16,2.9,5.43-.45,2.27-2.44,3.91-4.76,3.91Zm-1542.19-9.71h1519.37c-26.79-12.38-77.44-37.13-141.27-74.72-88.15-51.91-220.3-139.66-349.27-262.92-127.63-122-246.16-282.89-269.41-315-21.44,31.67-128.28,185.85-259.86,312.98-128.89,124.54-263.74,212.78-354.16,264.87-65.39,37.67-117.65,62.41-145.4,74.78Z"/><path class="cls-4" d="m818,178s-77.89,115.39-167,217c-114,130-276,282-555,426h211.72s358.28-168,510.28-643Z"/><path class="cls-4" d="m817.21,176s77.89,115.39,167,217c114,130,276,282,555,426h-211.72s-358.28-168-510.28-643Z"/><path class="cls-4" d="m818.5,182.8s-30.5,475.2-277.5,656.2h555s-253-225-277.5-656.2Z"/><polygon class="cls-3" points="1587 927 47 927 0 813 1637 813 1587 927"/><circle class="cls-3" cx="85.5" cy="910.5" r="41.5"/><circle class="cls-3" cx="162.5" cy="910.5" r="41.5"/><circle class="cls-3" cx="239.5" cy="910.5" r="41.5"/><circle class="cls-3" cx="316.5" cy="910.5" r="41.5"/><circle class="cls-3" cx="393.5" cy="910.5" r="41.5"/><circle class="cls-3" cx="470.5" cy="910.5" r="41.5"/><circle class="cls-3" cx="547.5" cy="910.5" r="41.5"/><circle class="cls-3" cx="624.5" cy="910.5" r="41.5"/><circle class="cls-3" cx="701.5" cy="910.5" r="41.5"/><circle class="cls-3" cx="778.5" cy="910.5" r="41.5"/><circle class="cls-3" cx="855.5" cy="910.5" r="41.5"/><circle class="cls-3" cx="932.5" cy="910.5" r="41.5"/><circle class="cls-3" cx="1009.5" cy="910.5" r="41.5"/><circle class="cls-3" cx="1086.5" cy="910.5" r="41.5"/><circle class="cls-3" cx="1163.5" cy="910.5" r="41.5"/><circle class="cls-3" cx="1240.5" cy="910.5" r="41.5"/><circle class="cls-3" cx="1317.5" cy="910.5" r="41.5"/><circle class="cls-3" cx="1394.5" cy="910.5" r="41.5"/><circle class="cls-3" cx="1471.5" cy="910.5" r="41.5"/><circle class="cls-3" cx="1548.5" cy="910.5" r="41.5"/><path class="cls-4" d="m1517,920.81l-1-2.31h-2.52v-3h3.5c.6,0,1.14.35,1.38.9l1.39,3.21-2.75,1.19Z"/><path class="cls-4" d="m1503,920.81l-2.75-1.19,1.39-3.21c.24-.55.78-.9,1.38-.9h3.5v3h-2.52l-1,2.31Z"/><path class="cls-4" d="m1471.5,943.5c-.71,0-1.43-.02-2.14-.07l-1.5-.09.19-2.99,1.5.09c1.3.08,2.63.08,3.92,0l1.5-.1.2,2.99-1.5.1c-.71.05-1.44.07-2.17.07Zm-11.21-1.92l-1.39-.57c-1.32-.55-2.62-1.19-3.87-1.9l-1.3-.75,1.5-2.6,1.3.75c1.13.65,2.31,1.23,3.52,1.73l1.39.57-1.15,2.77Zm22.44,0l-1.15-2.77,1.39-.57c1.2-.5,2.39-1.08,3.51-1.73l1.3-.75,1.5,2.6-1.3.75c-1.24.72-2.54,1.36-3.87,1.9l-1.39.57Zm-35.01-8.14l-.99-1.13c-.95-1.07-1.83-2.22-2.63-3.41l-.84-1.25,2.49-1.67.84,1.25c.73,1.08,1.53,2.13,2.39,3.1l.99,1.12-2.25,1.98Zm47.57-.01l-2.25-1.98.99-1.12c.86-.98,1.66-2.02,2.39-3.1l.83-1.25,2.49,1.67-.83,1.25c-.8,1.19-1.68,2.34-2.63,3.42l-.99,1.13Z"/><path class="cls-4" d="m1440,920.81l-1-2.31h-2.52v-3h3.5c.6,0,1.14.35,1.38.9l1.39,3.21-2.75,1.19Z"/><path class="cls-4" d="m1426,920.81l-2.75-1.19,1.39-3.21c.24-.55.78-.9,1.38-.9h3.5v3h-2.52l-1,2.31Z"/><path class="cls-4" d="m1394.5,943.5c-.71,0-1.43-.02-2.14-.07l-1.5-.09.19-2.99,1.5.09c1.3.08,2.63.08,3.92,0l1.5-.1.2,2.99-1.5.1c-.71.05-1.44.07-2.17.07Zm-11.21-1.92l-1.39-.57c-1.32-.55-2.62-1.19-3.87-1.9l-1.3-.75,1.5-2.6,1.3.75c1.13.65,2.31,1.23,3.52,1.73l1.39.57-1.15,2.77Zm22.44,0l-1.15-2.77,1.39-.57c1.2-.5,2.39-1.08,3.51-1.73l1.3-.75,1.5,2.6-1.3.75c-1.24.72-2.54,1.36-3.87,1.9l-1.39.57Zm-35.01-8.14l-.99-1.13c-.95-1.07-1.83-2.22-2.63-3.41l-.84-1.25,2.49-1.67.84,1.25c.73,1.08,1.53,2.13,2.39,3.1l.99,1.12-2.25,1.98Zm47.57-.01l-2.25-1.98.99-1.12c.86-.98,1.66-2.02,2.39-3.1l.83-1.25,2.49,1.67-.83,1.25c-.8,1.19-1.68,2.34-2.63,3.42l-.99,1.13Z"/><path class="cls-4" d="m1363,920.81l-1-2.31h-2.52v-3h3.5c.6,0,1.14.35,1.38.9l1.39,3.21-2.75,1.19Z"/><path class="cls-4" d="m1349,920.81l-2.75-1.19,1.39-3.21c.24-.55.78-.9,1.38-.9h3.5v3h-2.52l-1,2.31Z"/><path class="cls-4" d="m1317.5,943.5c-.71,0-1.43-.02-2.14-.07l-1.5-.09.19-2.99,1.5.09c1.3.08,2.63.08,3.92,0l1.5-.1.2,2.99-1.5.1c-.71.05-1.44.07-2.17.07Zm-11.21-1.92l-1.39-.57c-1.32-.55-2.62-1.19-3.87-1.9l-1.3-.75,1.5-2.6,1.3.75c1.13.65,2.31,1.23,3.52,1.73l1.39.57-1.15,2.77Zm22.44,0l-1.15-2.77,1.39-.57c1.2-.5,2.39-1.08,3.51-1.73l1.3-.75,1.5,2.6-1.3.75c-1.24.72-2.54,1.36-3.87,1.9l-1.39.57Zm-35.01-8.14l-.99-1.13c-.95-1.07-1.83-2.22-2.63-3.41l-.84-1.25,2.49-1.67.84,1.25c.73,1.08,1.53,2.13,2.39,3.1l.99,1.12-2.25,1.98Zm47.57-.01l-2.25-1.98.99-1.12c.86-.98,1.66-2.02,2.39-3.1l.83-1.25,2.49,1.67-.83,1.25c-.8,1.19-1.68,2.34-2.63,3.42l-.99,1.13Z"/><path class="cls-4" d="m1286,920.81l-1-2.31h-2.52v-3h3.5c.6,0,1.14.35,1.38.9l1.39,3.21-2.75,1.19Z"/><path class="cls-4" d="m1272,920.81l-2.75-1.19,1.39-3.21c.24-.55.78-.9,1.38-.9h3.5v3h-2.52l-1,2.31Z"/><path class="cls-4" d="m1240.5,943.5c-.71,0-1.43-.02-2.14-.07l-1.5-.09.19-2.99,1.5.09c1.3.08,2.63.08,3.92,0l1.5-.1.2,2.99-1.5.1c-.71.05-1.44.07-2.17.07Zm-11.21-1.92l-1.39-.57c-1.32-.55-2.62-1.19-3.87-1.9l-1.3-.75,1.5-2.6,1.3.75c1.13.65,2.31,1.23,3.52,1.73l1.39.57-1.15,2.77Zm22.44,0l-1.15-2.77,1.39-.57c1.2-.5,2.39-1.08,3.51-1.73l1.3-.75,1.5,2.6-1.3.75c-1.24.72-2.54,1.36-3.87,1.9l-1.39.57Zm-35.01-8.14l-.99-1.13c-.95-1.07-1.83-2.22-2.63-3.41l-.84-1.25,2.49-1.67.84,1.25c.73,1.08,1.53,2.13,2.39,3.1l.99,1.12-2.25,1.98Zm47.57-.01l-2.25-1.98.99-1.12c.86-.98,1.66-2.02,2.39-3.1l.83-1.25,2.49,1.67-.83,1.25c-.8,1.19-1.68,2.34-2.63,3.42l-.99,1.13Z"/><path class="cls-4" d="m1209,920.81l-1-2.31h-2.52v-3h3.5c.6,0,1.14.35,1.38.9l1.39,3.21-2.75,1.19Z"/><path class="cls-4" d="m1195,920.81l-2.75-1.19,1.39-3.21c.24-.55.78-.9,1.38-.9h3.5v3h-2.52l-1,2.31Z"/><path class="cls-4" d="m1163.5,943.5c-.71,0-1.43-.02-2.14-.07l-1.5-.09.19-2.99,1.5.09c1.3.08,2.63.08,3.92,0l1.5-.1.2,2.99-1.5.1c-.71.05-1.44.07-2.17.07Zm-11.21-1.92l-1.39-.57c-1.32-.55-2.62-1.19-3.87-1.9l-1.3-.75,1.5-2.6,1.3.75c1.13.65,2.31,1.23,3.52,1.73l1.39.57-1.15,2.77Zm22.44,0l-1.15-2.77,1.39-.57c1.2-.5,2.39-1.08,3.51-1.73l1.3-.75,1.5,2.6-1.3.75c-1.24.72-2.54,1.36-3.87,1.9l-1.39.57Zm-35.01-8.14l-.99-1.13c-.95-1.07-1.83-2.22-2.63-3.41l-.84-1.25,2.49-1.67.84,1.25c.73,1.08,1.53,2.13,2.39,3.1l.99,1.12-2.25,1.98Zm47.57-.01l-2.25-1.98.99-1.12c.86-.98,1.66-2.02,2.39-3.1l.83-1.25,2.49,1.67-.83,1.25c-.8,1.19-1.68,2.34-2.63,3.42l-.99,1.13Z"/><path class="cls-4" d="m1132,920.81l-1-2.31h-2.52v-3h3.5c.6,0,1.14.35,1.38.9l1.39,3.21-2.75,1.19Z"/><path class="cls-4" d="m1118,920.81l-2.75-1.19,1.39-3.21c.24-.55.78-.9,1.38-.9h3.5v3h-2.52l-1,2.31Z"/><path class="cls-4" d="m1086.5,943.5c-.71,0-1.43-.02-2.14-.07l-1.5-.09.19-2.99,1.5.09c1.3.08,2.63.08,3.92,0l1.5-.1.2,2.99-1.5.1c-.71.05-1.44.07-2.17.07Zm-11.21-1.92l-1.39-.57c-1.32-.55-2.62-1.19-3.87-1.9l-1.3-.75,1.5-2.6,1.3.75c1.13.65,2.31,1.23,3.52,1.73l1.39.57-1.15,2.77Zm22.44,0l-1.15-2.77,1.39-.57c1.2-.5,2.39-1.08,3.51-1.73l1.3-.75,1.5,2.6-1.3.75c-1.24.72-2.54,1.36-3.87,1.9l-1.39.57Zm-35.01-8.14l-.99-1.13c-.95-1.07-1.83-2.22-2.63-3.41l-.84-1.25,2.49-1.67.84,1.25c.73,1.08,1.53,2.13,2.39,3.1l.99,1.12-2.25,1.98Zm47.57-.01l-2.25-1.98.99-1.12c.86-.98,1.66-2.02,2.39-3.1l.83-1.25,2.49,1.67-.83,1.25c-.8,1.19-1.68,2.34-2.63,3.42l-.99,1.13Z"/><path class="cls-4" d="m1055,920.81l-1-2.31h-2.52v-3h3.5c.6,0,1.14.35,1.38.9l1.39,3.21-2.75,1.19Z"/><path class="cls-4" d="m1041,920.81l-2.75-1.19,1.39-3.21c.24-.55.78-.9,1.38-.9h3.5v3h-2.52l-1,2.31Z"/><path class="cls-4" d="m1009.5,943.5c-.71,0-1.43-.02-2.14-.07l-1.5-.09.19-2.99,1.5.09c1.3.08,2.63.08,3.92,0l1.5-.1.2,2.99-1.5.1c-.71.05-1.44.07-2.17.07Zm-11.21-1.92l-1.39-.57c-1.32-.55-2.62-1.19-3.87-1.9l-1.3-.75,1.5-2.6,1.3.75c1.13.65,2.31,1.23,3.52,1.73l1.39.57-1.15,2.77Zm22.44,0l-1.15-2.77,1.39-.57c1.2-.5,2.39-1.08,3.51-1.73l1.3-.75,1.5,2.6-1.3.75c-1.24.72-2.54,1.36-3.87,1.9l-1.39.57Zm-35.01-8.14l-.99-1.13c-.95-1.07-1.83-2.22-2.63-3.41l-.84-1.25,2.49-1.67.84,1.25c.73,1.08,1.53,2.13,2.39,3.1l.99,1.12-2.25,1.98Zm47.57-.01l-2.25-1.98.99-1.12c.86-.98,1.66-2.02,2.39-3.1l.83-1.25,2.49,1.67-.83,1.25c-.8,1.19-1.68,2.34-2.63,3.42l-.99,1.13Z"/><path class="cls-4" d="m978,920.81l-1-2.31h-2.52v-3h3.5c.6,0,1.14.35,1.38.9l1.39,3.21-2.75,1.19Z"/><path class="cls-4" d="m964,920.81l-2.75-1.19,1.39-3.21c.24-.55.78-.9,1.38-.9h3.5v3h-2.52l-1,2.31Z"/><path class="cls-4" d="m932.5,943.5c-.71,0-1.43-.02-2.14-.07l-1.5-.09.19-2.99,1.5.09c1.3.08,2.63.08,3.92,0l1.5-.1.2,2.99-1.5.1c-.71.05-1.44.07-2.17.07Zm-11.21-1.92l-1.39-.57c-1.32-.55-2.62-1.19-3.87-1.9l-1.3-.75,1.5-2.6,1.3.75c1.13.65,2.31,1.23,3.52,1.73l1.39.57-1.15,2.77Zm22.44,0l-1.15-2.77,1.39-.57c1.2-.5,2.39-1.08,3.51-1.73l1.3-.75,1.5,2.6-1.3.75c-1.24.72-2.54,1.36-3.87,1.9l-1.39.57Zm-35.01-8.14l-.99-1.13c-.95-1.07-1.83-2.22-2.63-3.41l-.84-1.25,2.49-1.67.84,1.25c.73,1.08,1.53,2.13,2.39,3.1l.99,1.12-2.25,1.98Zm47.57-.01l-2.25-1.98.99-1.12c.86-.98,1.66-2.02,2.39-3.1l.83-1.25,2.49,1.67-.83,1.25c-.8,1.19-1.68,2.34-2.63,3.42l-.99,1.13Z"/><path class="cls-4" d="m901,920.81l-1-2.31h-2.52v-3h3.5c.6,0,1.14.35,1.38.9l1.39,3.21-2.75,1.19Z"/><path class="cls-4" d="m887,920.81l-2.75-1.19,1.39-3.21c.24-.55.78-.9,1.38-.9h3.5v3h-2.52l-1,2.31Z"/><path class="cls-4" d="m855.5,943.5c-.71,0-1.43-.02-2.14-.07l-1.5-.09.19-2.99,1.5.09c1.3.08,2.63.08,3.92,0l1.5-.1.2,2.99-1.5.1c-.71.05-1.44.07-2.17.07Zm-11.21-1.92l-1.39-.57c-1.32-.55-2.62-1.19-3.87-1.9l-1.3-.75,1.5-2.6,1.3.75c1.13.65,2.31,1.23,3.52,1.73l1.39.57-1.15,2.77Zm22.44,0l-1.15-2.77,1.39-.57c1.2-.5,2.39-1.08,3.51-1.73l1.3-.75,1.5,2.6-1.3.75c-1.24.72-2.54,1.36-3.87,1.9l-1.39.57Zm-35.01-8.14l-.99-1.13c-.95-1.07-1.83-2.22-2.63-3.41l-.84-1.25,2.49-1.67.84,1.25c.73,1.08,1.53,2.13,2.39,3.1l.99,1.12-2.25,1.98Zm47.57-.01l-2.25-1.98.99-1.12c.86-.98,1.66-2.02,2.39-3.1l.83-1.25,2.49,1.67-.83,1.25c-.8,1.19-1.68,2.34-2.63,3.42l-.99,1.13Z"/><path class="cls-4" d="m824,920.81l-1-2.31h-2.52v-3h3.5c.6,0,1.14.35,1.38.9l1.39,3.21-2.75,1.19Z"/><path class="cls-4" d="m810,920.81l-2.75-1.19,1.39-3.21c.24-.55.78-.9,1.38-.9h3.5v3h-2.52l-1,2.31Z"/><path class="cls-4" d="m778.5,943.5c-.71,0-1.43-.02-2.14-.07l-1.5-.09.19-2.99,1.5.09c1.3.08,2.62.08,3.92,0l1.5-.1.2,2.99-1.5.1c-.71.05-1.44.07-2.16.07Zm-11.21-1.92l-1.39-.57c-1.33-.55-2.63-1.19-3.87-1.9l-1.3-.75,1.5-2.6,1.3.75c1.13.65,2.31,1.23,3.52,1.73l1.39.57-1.15,2.77Zm22.44,0l-1.15-2.77,1.39-.57c1.2-.5,2.39-1.08,3.51-1.73l1.3-.75,1.5,2.6-1.3.75c-1.24.72-2.54,1.36-3.87,1.9l-1.39.57Zm-35.01-8.14l-.99-1.13c-.95-1.07-1.83-2.22-2.63-3.41l-.84-1.25,2.49-1.67.84,1.25c.73,1.08,1.53,2.12,2.39,3.1l.99,1.13-2.25,1.98Zm47.57-.01l-2.25-1.98.99-1.13c.86-.98,1.66-2.02,2.39-3.1l.84-1.25,2.49,1.67-.83,1.25c-.8,1.19-1.68,2.34-2.63,3.41l-.99,1.13Z"/><path class="cls-4" d="m747,920.81l-1-2.31h-2.52v-3h3.5c.6,0,1.14.35,1.38.9l1.39,3.21-2.75,1.19Z"/><path class="cls-4" d="m733,920.81l-2.75-1.19,1.39-3.21c.24-.55.78-.9,1.38-.9h3.5v3h-2.52l-1,2.31Z"/><path class="cls-4" d="m701.5,943.5c-.71,0-1.43-.02-2.14-.07l-1.5-.09.19-2.99,1.5.09c1.3.08,2.62.08,3.92,0l1.5-.1.2,2.99-1.5.1c-.71.05-1.44.07-2.16.07Zm-11.21-1.92l-1.39-.57c-1.33-.55-2.63-1.19-3.87-1.9l-1.3-.75,1.5-2.6,1.3.75c1.13.65,2.31,1.23,3.52,1.73l1.39.57-1.15,2.77Zm22.44,0l-1.15-2.77,1.39-.57c1.2-.5,2.39-1.08,3.51-1.73l1.3-.75,1.5,2.6-1.3.75c-1.24.72-2.54,1.36-3.87,1.9l-1.39.57Zm-35.01-8.14l-.99-1.13c-.95-1.07-1.83-2.22-2.63-3.41l-.84-1.25,2.49-1.67.84,1.25c.73,1.08,1.53,2.12,2.39,3.1l.99,1.13-2.25,1.98Zm47.57-.01l-2.25-1.98.99-1.13c.86-.98,1.66-2.02,2.39-3.1l.84-1.25,2.49,1.67-.83,1.25c-.8,1.19-1.68,2.34-2.63,3.41l-.99,1.13Z"/><path class="cls-4" d="m670,920.81l-1-2.31h-2.52v-3h3.5c.6,0,1.14.35,1.38.9l1.39,3.21-2.75,1.19Z"/><path class="cls-4" d="m656,920.81l-2.75-1.19,1.39-3.21c.24-.55.78-.9,1.38-.9h3.5v3h-2.52l-1,2.31Z"/><path class="cls-4" d="m624.5,943.5c-.71,0-1.43-.02-2.14-.07l-1.5-.09.19-2.99,1.5.09c1.3.08,2.62.08,3.92,0l1.5-.1.2,2.99-1.5.1c-.71.05-1.44.07-2.16.07Zm-11.21-1.92l-1.39-.57c-1.33-.55-2.63-1.19-3.87-1.9l-1.3-.75,1.5-2.6,1.3.75c1.13.65,2.31,1.23,3.52,1.73l1.39.57-1.15,2.77Zm22.44,0l-1.15-2.77,1.39-.57c1.2-.5,2.39-1.08,3.51-1.73l1.3-.75,1.5,2.6-1.3.75c-1.24.72-2.54,1.36-3.87,1.9l-1.39.57Zm-35.01-8.14l-.99-1.13c-.95-1.07-1.83-2.22-2.63-3.41l-.84-1.25,2.49-1.67.84,1.25c.73,1.08,1.53,2.12,2.39,3.1l.99,1.13-2.25,1.98Zm47.57-.01l-2.25-1.98.99-1.13c.86-.98,1.66-2.02,2.39-3.1l.84-1.25,2.49,1.67-.83,1.25c-.8,1.19-1.68,2.34-2.63,3.41l-.99,1.13Z"/><path class="cls-4" d="m593,920.81l-1-2.31h-2.52v-3h3.5c.6,0,1.14.35,1.38.9l1.39,3.21-2.75,1.19Z"/><path class="cls-4" d="m579,920.81l-2.75-1.19,1.39-3.21c.24-.55.78-.9,1.38-.9h3.5v3h-2.52l-1,2.31Z"/><path class="cls-4" d="m547.5,943.5c-.71,0-1.43-.02-2.14-.07l-1.5-.09.19-2.99,1.5.09c1.3.08,2.62.08,3.92,0l1.5-.1.2,2.99-1.5.1c-.71.05-1.44.07-2.16.07Zm-11.21-1.92l-1.39-.57c-1.33-.55-2.63-1.19-3.87-1.9l-1.3-.75,1.5-2.6,1.3.75c1.13.65,2.31,1.23,3.52,1.73l1.39.57-1.15,2.77Zm22.44,0l-1.15-2.77,1.39-.57c1.2-.5,2.39-1.08,3.51-1.73l1.3-.75,1.5,2.6-1.3.75c-1.24.72-2.54,1.36-3.87,1.9l-1.39.57Zm-35.01-8.14l-.99-1.13c-.95-1.07-1.83-2.22-2.63-3.41l-.84-1.25,2.49-1.67.84,1.25c.73,1.08,1.53,2.12,2.39,3.1l.99,1.13-2.25,1.98Zm47.57-.01l-2.25-1.98.99-1.13c.86-.98,1.66-2.02,2.39-3.1l.84-1.25,2.49,1.67-.83,1.25c-.8,1.19-1.68,2.34-2.63,3.41l-.99,1.13Z"/><path class="cls-4" d="m516,920.81l-1-2.31h-2.52v-3h3.5c.6,0,1.14.35,1.38.9l1.39,3.21-2.75,1.19Z"/><path class="cls-4" d="m502,920.81l-2.75-1.19,1.39-3.21c.24-.55.78-.9,1.38-.9h3.5v3h-2.52l-1,2.31Z"/><path class="cls-4" d="m470.5,943.5c-.71,0-1.43-.02-2.14-.07l-1.5-.09.19-2.99,1.5.09c1.3.08,2.62.08,3.92,0l1.5-.1.2,2.99-1.5.1c-.71.05-1.44.07-2.16.07Zm-11.21-1.92l-1.39-.57c-1.33-.55-2.63-1.19-3.87-1.9l-1.3-.75,1.5-2.6,1.3.75c1.13.65,2.31,1.23,3.52,1.73l1.39.57-1.15,2.77Zm22.44,0l-1.15-2.77,1.39-.57c1.2-.5,2.39-1.08,3.51-1.73l1.3-.75,1.5,2.6-1.3.75c-1.24.72-2.54,1.36-3.87,1.9l-1.39.57Zm-35.01-8.14l-.99-1.13c-.95-1.07-1.83-2.22-2.63-3.41l-.84-1.25,2.49-1.67.84,1.25c.73,1.08,1.53,2.12,2.39,3.1l.99,1.13-2.25,1.98Zm47.57-.01l-2.25-1.98.99-1.13c.86-.98,1.66-2.02,2.39-3.1l.84-1.25,2.49,1.67-.83,1.25c-.8,1.19-1.68,2.34-2.63,3.41l-.99,1.13Z"/><path class="cls-4" d="m439,920.81l-1-2.31h-2.52v-3h3.5c.6,0,1.14.35,1.38.9l1.39,3.21-2.75,1.19Z"/><path class="cls-4" d="m425,920.81l-2.75-1.19,1.39-3.21c.24-.55.78-.9,1.38-.9h3.5v3h-2.52l-1,2.31Z"/><path class="cls-4" d="m393.5,943.5c-.71,0-1.43-.02-2.14-.07l-1.5-.09.19-2.99,1.5.09c1.3.08,2.62.08,3.92,0l1.5-.1.2,2.99-1.5.1c-.71.05-1.44.07-2.16.07Zm-11.21-1.92l-1.39-.57c-1.33-.55-2.63-1.19-3.87-1.9l-1.3-.75,1.5-2.6,1.3.75c1.13.65,2.31,1.23,3.52,1.73l1.39.57-1.15,2.77Zm22.44,0l-1.15-2.77,1.39-.57c1.2-.5,2.39-1.08,3.51-1.73l1.3-.75,1.5,2.6-1.3.75c-1.24.72-2.54,1.36-3.87,1.9l-1.39.57Zm-35.01-8.14l-.99-1.13c-.95-1.07-1.83-2.22-2.63-3.41l-.84-1.25,2.49-1.67.84,1.25c.73,1.08,1.53,2.12,2.39,3.1l.99,1.13-2.25,1.98Zm47.57-.01l-2.25-1.98.99-1.13c.86-.98,1.66-2.02,2.39-3.1l.84-1.25,2.49,1.67-.83,1.25c-.8,1.19-1.68,2.34-2.63,3.41l-.99,1.13Z"/><path class="cls-4" d="m362,920.81l-1-2.31h-2.52v-3h3.5c.6,0,1.14.35,1.38.9l1.39,3.21-2.75,1.19Z"/><path class="cls-4" d="m348,920.81l-2.75-1.19,1.39-3.21c.24-.55.78-.9,1.38-.9h3.5v3h-2.52l-1,2.31Z"/><path class="cls-4" d="m316.5,943.5c-.71,0-1.43-.02-2.14-.07l-1.5-.09.19-2.99,1.5.09c1.3.08,2.62.08,3.92,0l1.5-.1.2,2.99-1.5.1c-.71.05-1.44.07-2.16.07Zm-11.21-1.92l-1.39-.57c-1.33-.55-2.63-1.19-3.87-1.9l-1.3-.75,1.5-2.6,1.3.75c1.13.65,2.31,1.23,3.52,1.73l1.39.57-1.15,2.77Zm22.44,0l-1.15-2.77,1.39-.57c1.2-.5,2.39-1.08,3.51-1.73l1.3-.75,1.5,2.6-1.3.75c-1.24.72-2.54,1.36-3.87,1.9l-1.39.57Zm-35.01-8.14l-.99-1.13c-.95-1.07-1.83-2.22-2.63-3.41l-.84-1.25,2.49-1.67.84,1.25c.73,1.08,1.53,2.12,2.39,3.1l.99,1.13-2.25,1.98Zm47.57-.01l-2.25-1.98.99-1.13c.86-.98,1.66-2.02,2.39-3.1l.84-1.25,2.49,1.67-.83,1.25c-.8,1.19-1.68,2.34-2.63,3.41l-.99,1.13Z"/><path class="cls-4" d="m285,920.81l-1-2.31h-2.52v-3h3.5c.6,0,1.14.35,1.38.9l1.39,3.21-2.75,1.19Z"/><path class="cls-4" d="m271,920.81l-2.75-1.19,1.39-3.21c.24-.55.78-.9,1.38-.9h3.5v3h-2.52l-1,2.31Z"/><path class="cls-4" d="m239.5,943.5c-.71,0-1.43-.02-2.14-.07l-1.5-.09.19-2.99,1.5.09c1.3.08,2.62.08,3.92,0l1.5-.1.2,2.99-1.5.1c-.71.05-1.44.07-2.16.07Zm-11.21-1.92l-1.39-.57c-1.33-.55-2.63-1.19-3.87-1.9l-1.3-.75,1.5-2.6,1.3.75c1.13.65,2.31,1.23,3.52,1.73l1.39.57-1.15,2.77Zm22.44,0l-1.15-2.77,1.39-.57c1.2-.5,2.39-1.08,3.51-1.73l1.3-.75,1.5,2.6-1.3.75c-1.24.72-2.54,1.36-3.87,1.9l-1.39.57Zm-35.01-8.14l-.99-1.13c-.95-1.07-1.83-2.22-2.63-3.41l-.84-1.25,2.49-1.67.84,1.25c.73,1.08,1.53,2.12,2.39,3.1l.99,1.13-2.25,1.98Zm47.57-.01l-2.25-1.98.99-1.13c.86-.98,1.66-2.02,2.39-3.1l.84-1.25,2.49,1.67-.83,1.25c-.8,1.19-1.68,2.34-2.63,3.41l-.99,1.13Z"/><path class="cls-4" d="m208,920.81l-1-2.31h-2.52v-3h3.5c.6,0,1.14.35,1.38.9l1.39,3.21-2.75,1.19Z"/><path class="cls-4" d="m194,920.81l-2.75-1.19,1.39-3.21c.24-.55.78-.9,1.38-.9h3.5v3h-2.52l-1,2.31Z"/><path class="cls-4" d="m162.5,943.5c-.71,0-1.43-.02-2.14-.07l-1.5-.09.19-2.99,1.5.09c1.3.08,2.62.08,3.92,0l1.5-.1.2,2.99-1.5.1c-.71.05-1.44.07-2.16.07Zm-11.21-1.92l-1.39-.57c-1.33-.55-2.63-1.19-3.87-1.9l-1.3-.75,1.5-2.6,1.3.75c1.13.65,2.31,1.23,3.52,1.73l1.39.57-1.15,2.77Zm22.44,0l-1.15-2.77,1.39-.57c1.2-.5,2.39-1.08,3.51-1.73l1.3-.75,1.5,2.6-1.3.75c-1.24.72-2.54,1.36-3.87,1.9l-1.39.57Zm-35.01-8.14l-.99-1.13c-.95-1.07-1.83-2.22-2.63-3.41l-.84-1.25,2.49-1.67.84,1.25c.73,1.08,1.53,2.12,2.39,3.1l.99,1.13-2.25,1.98Zm47.57-.01l-2.25-1.98.99-1.13c.86-.98,1.66-2.02,2.39-3.1l.84-1.25,2.49,1.67-.83,1.25c-.8,1.19-1.68,2.34-2.63,3.41l-.99,1.13Z"/><path class="cls-4" d="m131,920.81l-1-2.31h-2.52v-3h3.5c.6,0,1.14.35,1.38.9l1.39,3.21-2.75,1.19Z"/><path class="cls-4" d="m117,920.81l-2.75-1.19,1.39-3.21c.24-.55.78-.9,1.38-.9h3.5v3h-2.52l-1,2.31Z"/><path class="cls-4" d="m85.5,943.5c-.71,0-1.43-.02-2.14-.07l-1.5-.09.19-2.99,1.5.09c1.3.08,2.62.08,3.92,0l1.5-.1.2,2.99-1.5.1c-.71.05-1.44.07-2.16.07Zm-11.21-1.92l-1.39-.57c-1.33-.55-2.63-1.19-3.87-1.9l-1.3-.75,1.5-2.6,1.3.75c1.13.65,2.31,1.23,3.52,1.73l1.39.57-1.15,2.77Zm22.44,0l-1.15-2.77,1.39-.57c1.2-.5,2.39-1.08,3.51-1.73l1.3-.75,1.5,2.6-1.3.75c-1.24.72-2.54,1.36-3.87,1.9l-1.39.57Zm-35.01-8.14l-.99-1.13c-.95-1.07-1.83-2.22-2.63-3.41l-.84-1.25,2.49-1.67.84,1.25c.73,1.08,1.53,2.12,2.39,3.1l.99,1.13-2.25,1.98Zm47.57-.01l-2.25-1.98.99-1.13c.86-.98,1.66-2.02,2.39-3.1l.84-1.25,2.49,1.67-.83,1.25c-.8,1.19-1.68,2.34-2.63,3.41l-.99,1.13Z"/><path class="cls-4" d="m54,920.81l-1.1-2.54c-.26-.16-.47-.4-.59-.7l-1.33-3.24,2.77-1.14,1.05,2.55c.24.16.44.38.56.66l1.39,3.21-2.75,1.19Z"/><path class="cls-4" d="m48.16,907.5l-2.73-6.62,2.77-1.14,2.73,6.62-2.77,1.14Zm-5.54-13.45l-2.73-6.62,2.77-1.14,2.73,6.62-2.77,1.14Zm-5.54-13.45l-2.73-6.62,2.77-1.14,2.73,6.62-2.77,1.14Zm-5.54-13.45l-2.73-6.62,2.77-1.14,2.73,6.62-2.77,1.14Zm-5.54-13.45l-2.73-6.62,2.77-1.14,2.73,6.62-2.77,1.14Zm-5.54-13.45l-2.73-6.62,2.77-1.14,2.73,6.62-2.77,1.14Z"/><path class="cls-4" d="m14.89,826.81l-1.33-3.24c-.19-.46-.14-.99.14-1.41s.75-.67,1.25-.67h3.5v3h-1.26l.48,1.16-2.77,1.14Z"/><path class="cls-4" d="m1611.21,824.5h-6.99v-3h6.99v3Zm-13.97,0h-6.99v-3h6.99v3Zm-13.97,0h-6.99v-3h6.99v3Zm-13.97,0h-6.99v-3h6.99v3Zm-13.97,0h-6.99v-3h6.99v3Zm-13.97,0h-6.99v-3h6.99v3Zm-13.97,0h-6.99v-3h6.99v3Zm-13.97,0h-6.99v-3h6.99v3Zm-13.97,0h-6.99v-3h6.99v3Zm-13.97,0h-6.99v-3h6.99v3Zm-13.97,0h-6.99v-3h6.99v3Zm-13.97,0h-6.99v-3h6.99v3Zm-13.97,0h-6.99v-3h6.99v3Zm-13.97,0h-6.99v-3h6.99v3Zm-13.97,0h-6.99v-3h6.99v3Zm-13.97,0h-6.99v-3h6.99v3Zm-13.97,0h-6.99v-3h6.99v3Zm-13.97,0h-6.99v-3h6.99v3Zm-13.97,0h-6.99v-3h6.99v3Zm-13.97,0h-6.99v-3h6.99v3Zm-13.97,0h-6.99v-3h6.99v3Zm-13.97,0h-6.99v-3h6.99v3Zm-13.97,0h-6.99v-3h6.99v3Zm-13.97,0h-6.99v-3h6.99v3Zm-13.97,0h-6.99v-3h6.99v3Zm-13.97,0h-6.99v-3h6.99v3Zm-13.97,0h-6.99v-3h6.99v3Zm-13.97,0h-6.99v-3h6.99v3Zm-13.97,0h-6.99v-3h6.99v3Zm-13.97,0h-6.99v-3h6.99v3Zm-13.97,0h-6.99v-3h6.99v3Zm-13.97,0h-6.99v-3h6.99v3Zm-13.97,0h-6.99v-3h6.99v3Zm-13.97,0h-6.99v-3h6.99v3Zm-13.97,0h-6.99v-3h6.99v3Zm-13.97,0h-6.99v-3h6.99v3Zm-13.97,0h-6.99v-3h6.99v3Zm-13.97,0h-6.99v-3h6.99v3Zm-13.97,0h-6.99v-3h6.99v3Zm-13.97,0h-6.99v-3h6.99v3Zm-13.97,0h-6.99v-3h6.99v3Zm-13.97,0h-6.99v-3h6.99v3Zm-13.97,0h-6.99v-3h6.99v3Zm-13.97,0h-6.99v-3h6.99v3Zm-13.97,0h-6.99v-3h6.99v3Zm-13.97,0h-6.99v-3h6.99v3Zm-13.97,0h-6.99v-3h6.99v3Zm-13.97,0h-6.99v-3h6.99v3Zm-13.97,0h-6.99v-3h6.99v3Zm-13.97,0h-6.99v-3h6.99v3Zm-13.97,0h-6.99v-3h6.99v3Zm-13.97,0h-6.99v-3h6.99v3Zm-13.97,0h-6.99v-3h6.99v3Zm-13.97,0h-6.99v-3h6.99v3Zm-13.97,0h-6.99v-3h6.99v3Zm-13.97,0h-6.99v-3h6.99v3Zm-13.97,0h-6.99v-3h6.99v3Zm-13.97,0h-6.99v-3h6.99v3Zm-13.97,0h-6.99v-3h6.99v3Zm-13.97,0h-6.99v-3h6.99v3Zm-13.97,0h-6.99v-3h6.99v3Zm-13.97,0h-6.99v-3h6.99v3Zm-13.97,0h-6.99v-3h6.99v3Zm-13.97,0h-6.99v-3h6.99v3Zm-13.97,0h-6.99v-3h6.99v3Zm-13.97,0h-6.99v-3h6.99v3Zm-13.97,0h-6.99v-3h6.99v3Zm-13.97,0h-6.99v-3h6.99v3Zm-13.97,0h-6.99v-3h6.99v3Zm-13.97,0h-6.99v-3h6.99v3Zm-13.97,0h-6.99v-3h6.99v3Zm-13.97,0h-6.99v-3h6.99v3Zm-13.97,0h-6.99v-3h6.99v3Zm-13.97,0h-6.99v-3h6.99v3Zm-13.97,0h-6.99v-3h6.99v3Zm-13.97,0h-6.99v-3h6.99v3Zm-13.97,0h-6.99v-3h6.99v3Zm-13.97,0h-6.99v-3h6.99v3Zm-13.97,0h-6.99v-3h6.99v3Zm-13.97,0h-6.99v-3h6.99v3Zm-13.97,0h-6.99v-3h6.99v3Zm-13.97,0h-6.99v-3h6.99v3Zm-13.97,0h-6.99v-3h6.99v3Zm-13.97,0h-6.99v-3h6.99v3Zm-13.97,0h-6.99v-3h6.99v3Zm-13.97,0h-6.99v-3h6.99v3Zm-13.97,0h-6.99v-3h6.99v3Zm-13.97,0h-6.99v-3h6.99v3Zm-13.97,0h-6.99v-3h6.99v3Zm-13.97,0h-6.99v-3h6.99v3Zm-13.97,0h-6.99v-3h6.99v3Zm-13.97,0h-6.99v-3h6.99v3Zm-13.97,0h-6.99v-3h6.99v3Zm-13.97,0h-6.99v-3h6.99v3Zm-13.97,0h-6.99v-3h6.99v3Zm-13.97,0h-6.99v-3h6.99v3Zm-13.97,0h-6.99v-3h6.99v3Zm-13.97,0h-6.99v-3h6.99v3Zm-13.97,0h-6.99v-3h6.99v3Zm-13.97,0h-6.99v-3h6.99v3Zm-13.97,0h-6.99v-3h6.99v3Zm-13.97,0h-6.99v-3h6.99v3Zm-13.97,0h-6.99v-3h6.99v3Zm-13.97,0h-6.99v-3h6.99v3Zm-13.97,0h-6.99v-3h6.99v3Zm-13.97,0h-6.99v-3h6.99v3Zm-13.97,0h-6.99v-3h6.99v3Zm-13.97,0h-6.99v-3h6.99v3Zm-13.97,0h-6.99v-3h6.99v3Zm-13.97,0h-6.99v-3h6.99v3Zm-13.97,0h-6.99v-3h6.99v3Zm-13.97,0h-6.99v-3h6.99v3Zm-13.97,0h-6.99v-3h6.99v3Zm-13.97,0h-6.99v-3h6.99v3Z"/><path class="cls-4" d="m1621.66,826.81l-2.75-1.21.48-1.1h-1.2v-3h3.5c.51,0,.98.26,1.26.68s.32.96.12,1.42l-1.41,3.21Z"/><path class="cls-4" d="m1586.26,907.53l-2.75-1.21,2.89-6.59,2.75,1.21-2.89,6.59Zm5.9-13.45l-2.75-1.21,2.89-6.59,2.75,1.21-2.89,6.59Zm5.9-13.45l-2.75-1.21,2.89-6.59,2.75,1.21-2.89,6.59Zm5.9-13.46l-2.75-1.21,2.89-6.59,2.75,1.21-2.89,6.59Zm5.9-13.45l-2.75-1.21,2.89-6.59,2.75,1.21-2.89,6.59Zm5.9-13.46l-2.75-1.21,2.89-6.59,2.75,1.21-2.89,6.59Z"/><path class="cls-4" d="m1580,920.81l-2.75-1.19,1.39-3.21c.16-.36.44-.64.79-.78l1.06-2.43,2.75,1.21-1.41,3.21c-.16.36-.44.63-.78.78l-1.05,2.43Z"/><path class="cls-4" d="m1548.5,943.5c-.71,0-1.43-.02-2.14-.07l-1.5-.09.19-2.99,1.5.09c1.3.08,2.63.08,3.92,0l1.5-.1.2,2.99-1.5.1c-.71.05-1.44.07-2.17.07Zm-11.21-1.92l-1.39-.57c-1.32-.55-2.62-1.19-3.87-1.9l-1.3-.75,1.5-2.6,1.3.75c1.13.65,2.31,1.23,3.52,1.73l1.39.57-1.15,2.77Zm22.44,0l-1.15-2.77,1.39-.57c1.2-.5,2.39-1.08,3.51-1.73l1.3-.75,1.5,2.6-1.3.75c-1.24.72-2.54,1.36-3.87,1.9l-1.39.57Zm-35.01-8.14l-.99-1.13c-.95-1.07-1.83-2.22-2.63-3.41l-.84-1.25,2.49-1.67.84,1.25c.73,1.08,1.53,2.13,2.39,3.1l.99,1.12-2.25,1.98Zm47.57-.01l-2.25-1.98.99-1.12c.86-.98,1.66-2.02,2.39-3.1l.83-1.25,2.49,1.67-.83,1.25c-.8,1.19-1.68,2.34-2.63,3.42l-.99,1.13Z"/><path class="cls-4" d="m1548.5,927c-6.58,0-12.53-3.91-15.15-9.95-3.96-9.14-12.97-15.05-22.93-15.05h-.84c-9.96,0-18.97,5.91-22.93,15.05-2.62,6.04-8.57,9.95-15.15,9.95s-12.53-3.91-15.15-9.95c-3.96-9.14-12.97-15.05-22.93-15.05h-.84c-9.96,0-18.97,5.91-22.93,15.05-2.62,6.04-8.57,9.95-15.15,9.95s-12.53-3.91-15.15-9.95c-3.96-9.14-12.97-15.05-22.93-15.05h-.84c-9.96,0-18.97,5.91-22.93,15.05-2.62,6.04-8.57,9.95-15.15,9.95s-12.53-3.91-15.15-9.95c-3.96-9.14-12.97-15.05-22.93-15.05h-.84c-9.96,0-18.97,5.91-22.93,15.05-2.62,6.04-8.57,9.95-15.15,9.95s-12.53-3.91-15.15-9.95c-3.96-9.14-12.97-15.05-22.93-15.05h-.84c-9.96,0-18.97,5.91-22.93,15.05-2.62,6.04-8.57,9.95-15.15,9.95s-12.53-3.91-15.15-9.95c-3.96-9.14-12.97-15.05-22.93-15.05h-.84c-9.96,0-18.97,5.91-22.93,15.05-2.62,6.04-8.57,9.95-15.15,9.95s-12.53-3.91-15.15-9.95c-3.96-9.14-12.97-15.05-22.93-15.05h-.84c-9.96,0-18.97,5.91-22.93,15.05-2.62,6.04-8.57,9.95-15.15,9.95s-12.53-3.91-15.15-9.95c-3.96-9.14-12.97-15.05-22.93-15.05h-.84c-9.96,0-18.97,5.91-22.93,15.05-2.62,6.04-8.57,9.95-15.15,9.95s-12.53-3.91-15.15-9.95c-3.96-9.14-12.97-15.05-22.93-15.05h-.84c-9.96,0-18.97,5.91-22.93,15.05-2.62,6.04-8.57,9.95-15.15,9.95s-12.53-3.91-15.15-9.95c-3.96-9.14-12.97-15.05-22.93-15.05h-.84c-9.96,0-18.97,5.91-22.93,15.05-2.62,6.04-8.57,9.95-15.15,9.95s-12.52-3.91-15.15-9.95c-3.96-9.14-12.97-15.05-22.93-15.05h-.84c-9.96,0-18.97,5.91-22.93,15.05-2.62,6.04-8.57,9.95-15.15,9.95s-12.52-3.91-15.15-9.95c-3.96-9.14-12.97-15.05-22.93-15.05h-.84c-9.96,0-18.97,5.91-22.93,15.05-2.62,6.04-8.57,9.95-15.15,9.95s-12.52-3.91-15.15-9.95c-3.96-9.14-12.97-15.05-22.93-15.05h-.84c-9.96,0-18.97,5.91-22.93,15.05-2.62,6.04-8.57,9.95-15.15,9.95s-12.52-3.91-15.15-9.95c-3.96-9.14-12.97-15.05-22.93-15.05h-.84c-9.96,0-18.97,5.91-22.93,15.05-2.62,6.04-8.57,9.95-15.15,9.95s-12.52-3.91-15.15-9.95c-3.96-9.14-12.97-15.05-22.93-15.05h-.84c-9.96,0-18.97,5.91-22.93,15.05-2.62,6.04-8.57,9.95-15.15,9.95s-12.52-3.91-15.15-9.95c-3.96-9.14-12.97-15.05-22.93-15.05h-.84c-9.96,0-18.97,5.91-22.93,15.05-2.62,6.04-8.57,9.95-15.15,9.95s-12.52-3.91-15.15-9.95c-3.96-9.14-12.97-15.05-22.93-15.05h-.84c-9.96,0-18.97,5.91-22.93,15.05-2.62,6.04-8.57,9.95-15.15,9.95s-12.52-3.91-15.15-9.95c-3.96-9.14-12.97-15.05-22.93-15.05h-.84c-9.96,0-18.97,5.91-22.93,15.05-2.62,6.04-8.57,9.95-15.15,9.95s-12.52-3.91-15.15-9.95c-3.96-9.14-12.97-15.05-22.93-15.05h-.84c-9.96,0-18.97,5.91-22.93,15.05-2.62,6.04-8.57,9.95-15.15,9.95s-12.52-3.91-15.15-9.95c-.53-1.22-1.15-2.38-1.85-3.48l-31.15-75.57h1561.39l-32.95,75.12c-.82,1.23-1.54,2.54-2.14,3.93-2.62,6.04-8.57,9.95-15.15,9.95Z"/><path class="cls-4" d="m1548.5,928.5c-7.18,0-13.66-4.26-16.52-10.85-3.73-8.59-12.19-14.15-21.56-14.15h-.84c-9.37,0-17.83,5.55-21.56,14.15-2.86,6.59-9.35,10.85-16.52,10.85s-13.66-4.26-16.52-10.85c-3.73-8.59-12.19-14.15-21.56-14.15h-.84c-9.37,0-17.83,5.55-21.56,14.15-2.86,6.59-9.35,10.85-16.52,10.85s-13.66-4.26-16.52-10.85c-3.73-8.59-12.19-14.15-21.56-14.15h-.84c-9.37,0-17.83,5.55-21.56,14.15-2.86,6.59-9.35,10.85-16.52,10.85s-13.66-4.26-16.52-10.85c-3.73-8.59-12.19-14.15-21.56-14.15h-.84c-9.37,0-17.83,5.55-21.56,14.15-2.86,6.59-9.35,10.85-16.52,10.85s-13.66-4.26-16.52-10.85c-3.73-8.59-12.19-14.15-21.56-14.15h-.84c-9.37,0-17.83,5.55-21.56,14.15-2.86,6.59-9.35,10.85-16.52,10.85s-13.66-4.26-16.52-10.85c-3.73-8.59-12.19-14.15-21.56-14.15h-.84c-9.37,0-17.83,5.55-21.56,14.15-2.86,6.59-9.35,10.85-16.52,10.85s-13.66-4.26-16.52-10.85c-3.73-8.59-12.19-14.15-21.56-14.15h-.84c-9.37,0-17.83,5.55-21.56,14.15-2.86,6.59-9.35,10.85-16.52,10.85s-13.66-4.26-16.52-10.85c-3.73-8.59-12.19-14.15-21.56-14.15h-.84c-9.37,0-17.83,5.55-21.56,14.15-2.86,6.59-9.35,10.85-16.52,10.85s-13.66-4.26-16.52-10.85c-3.73-8.59-12.19-14.15-21.56-14.15h-.84c-9.37,0-17.83,5.55-21.56,14.15-2.86,6.59-9.35,10.85-16.52,10.85s-13.66-4.26-16.52-10.85c-3.73-8.59-12.19-14.15-21.56-14.15h-.84c-9.37,0-17.83,5.55-21.56,14.15-2.86,6.59-9.35,10.85-16.52,10.85s-13.66-4.26-16.52-10.85c-3.73-8.59-12.19-14.15-21.56-14.15h-.84c-9.37,0-17.83,5.55-21.56,14.15-2.86,6.59-9.35,10.85-16.52,10.85s-13.66-4.26-16.52-10.85c-3.73-8.59-12.19-14.15-21.56-14.15h-.84c-9.37,0-17.83,5.55-21.56,14.15-2.86,6.59-9.35,10.85-16.52,10.85s-13.66-4.26-16.52-10.85c-3.73-8.59-12.19-14.15-21.56-14.15h-.84c-9.37,0-17.83,5.55-21.56,14.15-2.86,6.59-9.35,10.85-16.52,10.85s-13.66-4.26-16.52-10.85c-3.73-8.59-12.19-14.15-21.56-14.15h-.84c-9.37,0-17.83,5.55-21.56,14.15-2.86,6.59-9.35,10.85-16.52,10.85s-13.66-4.26-16.52-10.85c-3.73-8.59-12.19-14.15-21.56-14.15h-.84c-9.37,0-17.83,5.55-21.56,14.15-2.86,6.59-9.35,10.85-16.52,10.85s-13.66-4.26-16.52-10.85c-3.73-8.59-12.19-14.15-21.56-14.15h-.84c-9.37,0-17.83,5.55-21.56,14.15-2.86,6.59-9.35,10.85-16.52,10.85s-13.66-4.26-16.52-10.85c-3.73-8.59-12.19-14.15-21.56-14.15h-.84c-9.37,0-17.83,5.55-21.56,14.15-2.86,6.59-9.35,10.85-16.52,10.85s-13.66-4.26-16.52-10.85c-3.73-8.59-12.19-14.15-21.56-14.15h-.84c-9.37,0-17.83,5.55-21.56,14.15-2.86,6.59-9.35,10.85-16.52,10.85s-13.66-4.26-16.52-10.85c-3.73-8.59-12.19-14.15-21.56-14.15h-.84c-9.37,0-17.83,5.55-21.56,14.15-2.86,6.59-9.35,10.85-16.52,10.85s-13.66-4.26-16.52-10.85c-.49-1.13-1.08-2.24-1.74-3.28-.05-.07-.09-.15-.12-.23l-31.15-75.57c-.19-.46-.14-.99.14-1.41s.75-.67,1.25-.67h1561.39c.51,0,.98.26,1.26.68.28.42.32.96.12,1.42l-32.95,75.12c-.04.08-.08.16-.13.23-.78,1.17-1.46,2.41-2.01,3.7-2.86,6.59-9.35,10.85-16.52,10.85Zm-38.92-28h.84c10.56,0,20.11,6.26,24.31,15.95,2.38,5.5,7.79,9.05,13.77,9.05s11.39-3.55,13.77-9.05c.61-1.41,1.35-2.78,2.2-4.06l31.97-72.9H39.59l30.25,73.37c.72,1.14,1.35,2.34,1.89,3.58,2.39,5.5,7.79,9.05,13.77,9.05s11.39-3.55,13.77-9.05c4.2-9.69,13.75-15.95,24.31-15.95h.84c10.56,0,20.11,6.26,24.31,15.95,2.39,5.5,7.79,9.05,13.77,9.05s11.39-3.55,13.77-9.05c4.2-9.69,13.75-15.95,24.31-15.95h.84c10.56,0,20.11,6.26,24.31,15.95,2.39,5.5,7.79,9.05,13.77,9.05s11.39-3.55,13.77-9.05c4.2-9.69,13.75-15.95,24.31-15.95h.84c10.56,0,20.11,6.26,24.31,15.95,2.39,5.5,7.79,9.05,13.77,9.05s11.39-3.55,13.77-9.05c4.2-9.69,13.75-15.95,24.31-15.95h.84c10.56,0,20.11,6.26,24.31,15.95,2.39,5.5,7.79,9.05,13.77,9.05s11.39-3.55,13.77-9.05c4.2-9.69,13.75-15.95,24.31-15.95h.84c10.56,0,20.11,6.26,24.31,15.95,2.39,5.5,7.79,9.05,13.77,9.05s11.39-3.55,13.77-9.05c4.2-9.69,13.75-15.95,24.31-15.95h.84c10.56,0,20.11,6.26,24.31,15.95,2.39,5.5,7.79,9.05,13.77,9.05s11.39-3.55,13.77-9.05c4.2-9.69,13.75-15.95,24.31-15.95h.84c10.56,0,20.11,6.26,24.31,15.95,2.39,5.5,7.79,9.05,13.77,9.05s11.39-3.55,13.77-9.05c4.2-9.69,13.75-15.95,24.31-15.95h.84c10.56,0,20.11,6.26,24.31,15.95,2.39,5.5,7.79,9.05,13.77,9.05s11.39-3.55,13.77-9.05c4.2-9.69,13.75-15.95,24.31-15.95h.84c10.56,0,20.11,6.26,24.31,15.95,2.39,5.5,7.79,9.05,13.77,9.05s11.39-3.55,13.77-9.05c4.2-9.69,13.75-15.95,24.31-15.95h.84c10.56,0,20.11,6.26,24.31,15.95,2.38,5.5,7.79,9.05,13.77,9.05s11.39-3.55,13.77-9.05c4.21-9.69,13.75-15.95,24.31-15.95h.84c10.56,0,20.11,6.26,24.31,15.95,2.38,5.5,7.79,9.05,13.77,9.05s11.39-3.55,13.77-9.05c4.21-9.69,13.75-15.95,24.31-15.95h.84c10.56,0,20.11,6.26,24.31,15.95,2.38,5.5,7.79,9.05,13.77,9.05s11.39-3.55,13.77-9.05c4.21-9.69,13.75-15.95,24.31-15.95h.84c10.56,0,20.11,6.26,24.31,15.95,2.38,5.5,7.79,9.05,13.77,9.05s11.39-3.55,13.77-9.05c4.21-9.69,13.75-15.95,24.31-15.95h.84c10.56,0,20.11,6.26,24.31,15.95,2.38,5.5,7.79,9.05,13.77,9.05s11.39-3.55,13.77-9.05c4.21-9.69,13.75-15.95,24.31-15.95h.84c10.56,0,20.11,6.26,24.31,15.95,2.38,5.5,7.79,9.05,13.77,9.05s11.39-3.55,13.77-9.05c4.21-9.69,13.75-15.95,24.31-15.95h.84c10.56,0,20.11,6.26,24.31,15.95,2.38,5.5,7.79,9.05,13.77,9.05s11.39-3.55,13.77-9.05c4.21-9.69,13.75-15.95,24.31-15.95h.84c10.56,0,20.11,6.26,24.31,15.95,2.38,5.5,7.79,9.05,13.77,9.05s11.39-3.55,13.77-9.05c4.21-9.69,13.75-15.95,24.31-15.95h.84c10.56,0,20.11,6.26,24.31,15.95,2.38,5.5,7.79,9.05,13.77,9.05s11.39-3.55,13.77-9.05c4.21-9.69,13.75-15.95,24.31-15.95Z"/><path class="cls-2" d="m888.9,260.47l-6.61-9.29h0s-57.79-86.68-57.79-86.68h-13l-57.24,87.83-.13.07-6.61,9.29c8.28-.35,18.06-3.2,25.42-8.47,4.97,7.12,13.22,11.78,22.56,11.78s17.52-4.63,22.5-11.7c4.98,7.07,13.2,11.7,22.5,11.7,9.78,0,18.37-5.11,23.24-12.81,7.33,5.15,16.97,7.93,25.16,8.28Z"/><path class="cls-5" d="m826.5,129.86s-.09,0-.13,0c-.61-.07-1.05-.63-.98-1.24l12.85-109.13c.07-.61.62-1.05,1.24-.98.61.07,1.05.63.98,1.24l-12.85,109.13c-.07.57-.55.98-1.11.98Z"/><path class="cls-4" d="m831.07,39.97s-35.69-2.49-63.09,20.66c-18.91,15.98-100.05,13.68-100.05,13.68,0,0,32.64,40.89,88.84,41.43,0,0,40.43,3.4,56.02,28.5,0,0-6.21-71.61,18.28-104.26Z"/><path class="cls-3" d="m818.12,160.24l-8.66-13.93c-13.93-22.42-50.42-26.4-52.89-26.65-57.31-.62-90.33-41.17-91.71-42.9l-5.28-6.61,8.45.24c22.16.63,82.84-.45,97.4-12.76,28.29-23.9,64.37-21.68,65.9-21.57l7.19.5-4.33,5.77c-23.3,31.07-17.57,100.87-17.51,101.57l1.41,16.34Zm-140.92-81.86c11.74,11.23,39.65,33.05,79.62,33.43h.29c1.5.14,32.25,2.95,51.17,20.81-.2-7.3-.21-17.37.56-28.55,1.77-25.81,6.79-45.99,14.94-60.13-11.4.59-34.53,3.85-53.26,19.68-16.2,13.69-70.56,14.87-93.32,14.75Z"/><path class="cls-6" d="m831.07,39.97s-35.69-2.49-63.09,20.66c-18.91,15.98-100.05,13.68-100.05,13.68,0,0,32.64,40.89,88.84,41.43,0,0,40.43,3.4,56.02,28.5,0,0-6.21-71.61,18.28-104.26Z"/><path class="cls-2" d="m817.22,176.84c-.22,0-.45-.02-.67-.05-2.65-.37-4.49-2.81-4.12-5.46l19.79-142c.37-2.65,2.81-4.49,5.46-4.12,2.65.37,4.49,2.81,4.12,5.46l-19.79,142c-.34,2.42-2.41,4.17-4.79,4.17Z"/><circle class="cls-2" cx="841" cy="10" r="10"/></g></svg>