<?xml version="1.0" encoding="UTF-8"?><svg id="Layer_2" xmlns="http://www.w3.org/2000/svg" viewBox="0 0 463.37 708.02"><defs><style>.cls-1,.cls-2{fill:#ba0c2f;}.cls-2{opacity:.6;}</style></defs><g id="background"><path class="cls-1" d="m230.43,708.02c-.28,0-.51-.23-.51-.51V.51c0-.28.23-.51.51-.51s.51.23.51.51v707c0,.28-.23.51-.51.51Z"/><path class="cls-1" d="m153.93,642.62c-.25,0-.46-.21-.46-.46V72.34c0-.25.21-.46.46-.46s.46.21.46.46v569.81c0,.25-.21.46-.46.46Z"/><path class="cls-1" d="m77.43,575.47c-.22,0-.4-.18-.4-.4V155.51c0-.22.18-.4.4-.4s.4.18.4.4v419.55c0,.22-.18.4-.4.4Z"/><path class="cls-1" d="m381.43,577.41c-.22,0-.4-.18-.4-.4V155.51c0-.22.18-.4.4-.4s.4.18.4.4v421.5c0,.22-.18.4-.4.4Z"/><path class="cls-1" d="m304.93,643.47c-.25,0-.46-.21-.46-.46V73.2c0-.25.21-.46.46-.46s.46.21.46.46v569.81c0,.25-.21.46-.46.46Z"/><path class="cls-1" d="m460.43,219.95H.43c-.24,0-.43-.19-.43-.43s.19-.43.43-.43h460c.24,0,.43.19.43.43s-.19.43-.43.43Z"/><path class="cls-1" d="m460.93,292.95H.93c-.24,0-.43-.19-.43-.43s.19-.43.43-.43h460c.24,0,.43.19.43.43s-.19.43-.43.43Z"/><path class="cls-1" d="m461.43,365.95H1.43c-.24,0-.43-.19-.43-.43s.19-.43.43-.43h460c.24,0,.43.19.43.43s-.19.43-.43.43Z"/><path class="cls-1" d="m461.93,437.95H1.93c-.24,0-.43-.19-.43-.43s.19-.43.43-.43h460c.24,0,.43.19.43.43s-.19.43-.43.43Z"/><path class="cls-1" d="m462.93,510.95H2.93c-.24,0-.43-.19-.43-.43s.19-.43.43-.43h460c.24,0,.43.19.43.43s-.19.43-.43.43Z"/><rect class="cls-2" x="154.43" y="220.01" width="76" height="72"/><rect class="cls-2" x="77.43" y="293.01" width="76" height="72"/><rect class="cls-2" x="154.43" y="366.01" width="76" height="72"/><rect class="cls-2" x="77.43" y="438.01" width="76" height="72"/><rect class="cls-2" x="229.43" y="293.01" width="76" height="72"/><rect class="cls-2" x="305.43" y="220.01" width="76" height="72"/><rect class="cls-2" x="230.43" y="438.01" width="76" height="72"/><rect class="cls-2" x="305.43" y="365.01" width="76" height="72"/></g></svg>