<?xml version="1.0" encoding="UTF-8"?><svg id="Layer_2" xmlns="http://www.w3.org/2000/svg" viewBox="0 0 414.21 179.62"><defs><style>.cls-1{fill:#fff;}.cls-2{fill:#f2da5e;}</style></defs><g id="exported"><path d="m28.34,116.99h-6.17c-.25,0-.51,0-.76-.02-11.38-.5-19.63-8.8-19.63-19.75,0-2.94.59-5.89,1.87-9.3.11-.29.22-.58.35-.86,2.83-6.48,8.57-11.1,15.75-12.67,5.39-1.18,10.89-.41,15.65,2.11,1.02-1.57,2.3-3.87,3.83-7.24-2.4-1.28-4.73-2.93-7-4.95-5.24-4.66-8.46-10.71-9.23-17.24-.37-1.78-.55-3.48-.55-5.16,0-8.68,3.6-16.47,10.41-22.53.1-.08.19-.17.29-.25,7.49-6.37,17.42-10.01,30.2-11.05,3.15-1.88,7.2-3.08,12.26-3.08,6.63,0,11.1,2.31,13.96,4.73,3.55.87,6.83,2.06,9.82,3.58,3.95,1.99,7.09,4.75,9.34,8.19,1.59,2.45,3.66,6.24,3.66,11.33,0,5.77-2.8,11.22-7.49,14.57-5.89,4.2-12.23,3.69-16.52,2.66-3.39,9.76-4.42,12.53-4.9,13.76-.67,1.71-1.58,4.07-2.73,7.09-1.21,3.15-2.3,5.77-3.33,7.98,1.46.65,2.91,1.54,4.33,2.74,7.1,6.1,8.43,16.14,3.34,23.8-2.06,3.2-4.88,5.85-8.2,7.68-4.11,2.26-6.84,2.79-26.46,3.36-12.01.35-19.01.51-22.06.51ZM94.27,31.83s0,0,0,0c0,0,0,0,0,0Z"/><path d="m72.81,117.62c-11.66,0-18.63-9.09-18.63-17.88,0-2.33.43-4.64,1.31-7.05.17-.45.86-2.39,2.09-5.85l.33-.92c1.46-4.08,3.04-8.57,4.75-13.45,2.61-7.47,3.11-8.8,3.28-9.24,0,0,0-.01,0-.02.27-1.39.59-2.64.99-3.82.74-2.21,1.86-4.36,3.43-6.49,3.51-4.8,8.96-7.77,14.92-8.12,2.16-.12,4.42.04,6.95.49,2.37.42,4.56,1.22,6.51,2.31,4.78-2.71,9.35-4.03,13.87-4.03,10.33,0,18.41,6.99,20.08,16.78,2.15.15,4.29.67,6.34,1.59,6.81,3.11,10.99,9.45,10.99,16.58,0,3.35-.92,6.64-2.67,9.57-1.99,3.48-4.88,7.21-9.06,11.72-4.14,4.45-8.11,8.01-12.16,10.88-6.03,4.27-12.44,6.43-19.06,6.43-.17,0-.34,0-.52,0-6.79-.2-12.4-2.2-16.69-5.93-.7.59-1.36,1.04-2.1,1.5-.48.3-.97.57-1.47.83-5.21,2.61-9.09,4.12-13.5,4.12Zm-6.96-53.88h0s0,0,0,0Z"/><path d="m135.06,117.24c-10.83,0-19.73-6.37-23.24-16.63-.09-.26-.17-.53-.25-.8-.43-1.48-.71-3.02-.84-4.63-.32-.51-.61-1.03-.88-1.57-1.32-2.62-1.98-5.5-1.98-8.54s.75-7.52,4.34-12c1.51-1.88,2.88-3.63,4.12-5.26-.74-3.83-.31-7.9,1.34-11.65,1.68-3.82,4.99-8.21,11.52-10.71l2.45-4.56c.48-.95,1.01-1.92,1.58-2.89.32-.55.57-.98.74-1.28.26-.47.59-1.04.95-1.65,1.02-1.69,2.04-3.03,3.22-4.22,2.94-3.29,7.85-6.44,15.89-6.44,7.45,0,13.89,3.27,17.77,8.99,2.29,3.31,3.44,7.2,3.44,11.6,0,1.15-.09,2.28-.28,3.41,3.66,3.49,5.57,8.27,5.57,12.91,0,1.91-.38,6.41-3.52,10.65.38.98.68,2.01.88,3.06,2.05,10.51-5.32,18.43-11.25,24.79-7.41,7.99-13.83,12.82-20.19,15.19-.06.02-.12.04-.18.07-4.05,1.46-7.72,2.17-11.22,2.17Zm10.62-82.36s-.03.02-.04.03c.01,0,.03-.02.04-.03Z"/><path d="m169.2,117.74c-15.99,0-23.93-8.23-27.23-13.13-.06-.09-.12-.17-.17-.26-2.75-4.24-4.2-9.32-4.2-14.69,0-4.27.93-8.72,2.86-13.6.08-.2.16-.41.25-.61,3.39-7.74,9.66-14.88,19.18-21.84,10.2-7.46,18.68-10.94,26.71-10.94,13.06,0,22.8,8.7,24.15,21.09,4.82,3.41,7.72,8.87,7.72,14.81,0,3.67-1.09,7.23-3.17,10.38-3.44,5.62-7.8,10.69-12.96,15.06-10.66,9.1-21.81,13.73-33.12,13.73Z"/><path d="m214.31,117.49c-11.4,0-20.02-6.8-22.89-17.28-1.92-.62-3.24-1.36-3.64-1.61-5.69-3.4-9.11-9.34-9.11-15.88,0-4.2,1.43-8.23,4.24-12,.15-.2.31-.4.47-.6,1.84-2.24,3.56-4.58,5.16-6.99-.26-2.6-.02-5.58,1.06-8.93,1.3-4.04,3.77-7.78,8-12.09,3.64-3.71,7.11-6.31,10.61-7.98,2.5-1.18,3.39-1.57,3.99-1.81,2.52-1.01,5.17-1.51,7.9-1.51,6.38,0,12.35,3.39,15.56,8.86,1.09,1.85,1.76,3.69,2.14,5.48.76.32,1.5.68,2.22,1.08,6.32,3.56,9.82,10.03,9.59,16.94,5.42,3.39,8.65,9.05,8.65,15.32,0,3.35-.92,6.64-2.67,9.57-1.99,3.48-4.88,7.22-9.06,11.72-3.99,4.29-8.03,7.91-12.02,10.75-5.99,4.54-12.97,6.94-20.21,6.94Z"/><path d="m253.24,94.43h-.63c-12.84,0-19.77-9.6-19.77-18.63,0-8.07,4.77-15.09,12.77-18.83,2.83-1.36,5.79-2.05,8.8-2.07l18.62-.13c3.72-.02,6.58.24,9.04.78,10.71,2.34,15.5,10.84,15.5,18.23,0,6.27-3.68,14.71-14.07,17.88-2.17.66-4.75,1.16-8.1,1.55-5.06.59-12.18.99-21.76,1.22-.14,0-.27,0-.41,0Zm11.28-28.6c-1.18,2.24-1.95,4.91-1.95,7.95,0,4.02,1.3,7.3,3.13,9.82,1.28-2.17,2.13-4.85,2.13-7.8,0-3.88-1.3-7.28-3.32-9.97Z"/><path d="m18.63,179.62c-11.66,0-18.63-9.09-18.63-17.88,0-2.33.43-4.63,1.3-7.05.16-.43.79-2.19,1.9-5.32l.52-1.46c1.46-4.08,3.04-8.57,4.75-13.45,2.61-7.47,3.11-8.8,3.28-9.24,0,0,0-.01,0-.02.27-1.39.59-2.64.99-3.82.74-2.21,1.86-4.36,3.43-6.49,3.51-4.81,8.97-7.78,14.94-8.12,2.14-.12,4.41.04,6.95.49,2.37.42,4.55,1.21,6.51,2.31,4.78-2.71,9.35-4.03,13.87-4.03,10.33,0,18.41,6.99,20.08,16.78,2.14.15,4.29.67,6.34,1.59,6.81,3.12,10.99,9.46,10.99,16.58,0,3.35-.92,6.64-2.67,9.58-1.99,3.48-4.88,7.22-9.06,11.72-4.13,4.45-8.11,8.01-12.16,10.88-6.02,4.27-12.44,6.43-19.06,6.43-.17,0-.35,0-.52,0-6.79-.2-12.39-2.2-16.69-5.93-.7.59-1.36,1.04-2.1,1.5-.48.3-.97.57-1.47.83-5.21,2.61-9.09,4.12-13.5,4.12Zm-6.96-53.88s0,0,0,0c0,0,0,0,0,0Z"/><path d="m109.73,179.24c-5.68,0-10.83-1.8-14.93-5.04-8.61,4.46-17.49,4.76-26,.4-3.96-2.03-7.34-4.91-10.04-8.55-3.32-4.46-5.08-9.71-5.08-15.15,0-4.35.98-8.54,2.9-12.45,2.69-5.58,6.8-10.86,12.24-15.69,4.58-4.06,9.44-7.61,14.45-10.53,5.6-3.27,10.1-5.26,14.15-6.27,3.74-.93,7.48-1.41,11.12-1.41,5.84,0,11.33,1.71,15.87,4.94,5.69,4.05,8.14,8.86,9.13,12.82,3.16-.22,6.4.39,9.42,1.89,6.52,3.28,10.35,9.33,10.35,16.24,0,8.15-5.08,14.23-10.74,20.24-4.81,5.11-8.48,8.53-11.54,10.75-6.99,5.17-14.15,7.8-21.31,7.8Z"/><path d="m138.46,179.24c-10.83,0-19.73-6.37-23.24-16.63-.09-.27-.18-.53-.25-.8-.43-1.48-.71-3.01-.84-4.63-.31-.5-.6-1.01-.87-1.54-1.33-2.63-2-5.51-2-8.57s.75-7.52,4.34-12.01c1.5-1.87,2.88-3.62,4.11-5.25-.74-3.83-.31-7.9,1.34-11.65,1.68-3.82,4.99-8.21,11.52-10.71l2.45-4.56c.48-.95,1.01-1.92,1.59-2.89.32-.55.57-.98.74-1.28.26-.47.59-1.04.95-1.65,1.02-1.69,2.04-3.03,3.22-4.22,2.94-3.29,7.85-6.44,15.89-6.44,7.45,0,13.89,3.27,17.77,8.99,2.29,3.31,3.44,7.2,3.44,11.6,0,1.15-.09,2.28-.28,3.41,3.66,3.49,5.57,8.28,5.57,12.91,0,1.91-.38,6.41-3.52,10.65.38.99.68,2.01.88,3.06,2.04,10.51-5.33,18.43-11.25,24.79-7.41,7.99-13.83,12.82-20.19,15.19-.06.02-.12.04-.18.07-4.06,1.46-7.72,2.17-11.22,2.17Zm16.72-24.77s0,0,0,0h0Z"/><path d="m166.93,179.24c-10.83,0-19.73-6.37-23.24-16.63-.09-.27-.18-.53-.25-.8-.43-1.48-.71-3.01-.84-4.63-.31-.5-.6-1.01-.87-1.54-1.33-2.63-2-5.51-2-8.57s.75-7.52,4.34-12.01c2.75-3.42,5.06-6.44,6.91-9.01.14-.39.29-.79.45-1.18.73-2.03,1.83-4.91,3.56-7.78-.09-.78-.14-1.56-.14-2.34,0-9.14,5.96-13.71,12.27-18.55l1.72-1.31c2.41-2.08,6.95-5.7,13.6-5.7,9.93,0,18,8.08,18,18,0,1.43-.18,2.86-.52,4.24l-.77,3.09c-.57,3.27-1.89,6.07-3.17,8.26,1.33.32,2.65.79,3.93,1.43,6.43,3.23,10.36,9.46,10.36,16.31,0,3.34-.92,6.63-2.66,9.56-1.99,3.48-4.88,7.22-9.07,11.74-7.42,8-13.85,12.84-20.2,15.2-.06.02-.12.04-.18.07-4.05,1.46-7.72,2.17-11.22,2.17Zm21.98-66.28c.32.34.63.69.92,1.04-.01-.28-.03-.56-.06-.83l-.87-.22Zm-1.89-1.75h2.44c-1.65-7.2-8.1-11.18-11.78-11.33-1.43,0-2.74.18-3.94.47l4.27,5.59,4.93,1.23h-3.99,0c3.03.78,5.77,2.16,8.07,4.03Zm-21.59-4.03c0,.18,0,.36,0,.54.51-.2,1.04-.38,1.58-.54h-1.59Zm2.18-3.83l10.04,2.51-4.64-5.3c-2.28.68-4.1,1.77-5.39,2.79Z"/><path d="m198.69,179.24c-5.65,0-10.93-1.56-15.29-4.52-4.86-3.11-12.29-10.14-12.29-24.07,0-8.37,2.64-16.66,7.85-24.62,2.81-4.38,6.18-8.3,10.01-11.63,7.33-6.43,15.16-9.72,23.21-9.72,2.62,0,5.2.38,7.67,1.11.17.05.35.11.52.16,7.18,2.4,12.35,7.51,14.56,14.03.62.71,1.2,1.48,1.73,2.31,2.53.08,5.07.7,7.49,1.9.03.02.07.03.1.05,6.42,3.24,10.26,9.29,10.26,16.2s-3.88,12.25-8.6,17.77c-3.21,3.94-12.5,15.1-26.16,15.1-.61,0-1.21-.02-1.81-.06-5.75,3.93-12.33,5.99-19.23,5.99Zm50.42-28.3s-.02.03-.03.05c.01-.01.02-.03.03-.05Z"/><path d="m228.92,179.62c-11.66,0-18.63-9.09-18.63-17.88,0-2.32.42-4.62,1.3-7.03.17-.48.92-2.58,2.27-6.34l.16-.45c1.46-4.08,3.04-8.57,4.75-13.45,2.62-7.49,3.12-8.81,3.28-9.24,0,0,0-.02,0-.03.26-1.38.59-2.63.98-3.8.73-2.22,1.87-4.36,3.44-6.5,3.52-4.81,8.97-7.78,14.94-8.12,2.15-.12,4.41.04,6.95.49,2.37.42,4.55,1.21,6.51,2.31,4.78-2.71,9.35-4.03,13.87-4.03,10.33,0,18.41,6.99,20.08,16.78,2.14.15,4.29.67,6.34,1.59,6.81,3.12,10.99,9.46,10.99,16.58,0,3.36-.92,6.65-2.67,9.58-1.99,3.48-4.88,7.21-9.06,11.71-4.14,4.45-8.11,8.01-12.16,10.88-6.02,4.27-12.43,6.43-19.06,6.43-.17,0-.35,0-.52,0-6.79-.2-12.39-2.2-16.69-5.93-.7.59-1.36,1.05-2.1,1.51-.47.3-.96.57-1.46.82-5.21,2.61-9.09,4.12-13.5,4.12Zm-6.96-53.88h0s0,0,0,0Z"/><path d="m320.02,179.24c-5.68,0-10.83-1.8-14.94-5.04-8.61,4.46-17.5,4.76-26,.4-3.96-2.03-7.34-4.91-10.04-8.55-3.32-4.46-5.08-9.7-5.08-15.14,0-4.35.98-8.54,2.9-12.45,2.69-5.59,6.8-10.87,12.24-15.7,4.58-4.07,9.44-7.61,14.45-10.53,5.6-3.27,10.09-5.26,14.15-6.27,3.74-.93,7.48-1.41,11.12-1.41,5.84,0,11.33,1.71,15.87,4.94,5.69,4.05,8.14,8.86,9.13,12.82,3.16-.22,6.4.39,9.43,1.89,6.51,3.27,10.35,9.33,10.35,16.24,0,8.15-5.08,14.23-10.74,20.24-4.8,5.11-8.47,8.53-11.53,10.75-6.99,5.17-14.16,7.8-21.31,7.8Z"/><path d="m350.89,179.11c-15.94,0-27.08-11.03-27.08-26.82v-.76c0-.33,0-.66.03-.99.47-8.34,3.84-18.87,10.6-33.15,6.19-13.07,11.77-22.85,17.06-29.91.1-.13.2-.26.3-.39l3.91-4.91c.11-.14.23-.28.34-.42,1.41-1.67,3.21-3.49,5.5-5.57,8.3-7.8,16.69-9.44,22.28-9.44,9.83,0,17.99,4.38,22.4,12.03.05.08.09.16.14.25,1.88,3.38,2.83,7.34,2.83,11.77,0,4.2-1.16,8.54-3.64,13.67-.18.37-.38.74-.58,1.1-4.37,7.59-9.86,15.23-16.42,22.88.34.39.67.79.98,1.21,3.52,4.76,4.48,10.93,2.64,16.92-.36,1.17-.84,2.29-1.43,3.36-2.05,3.69-5.13,7.61-9.7,12.34-4.11,4.26-7.85,7.63-11.43,10.28-5.84,4.33-12.14,6.53-18.74,6.53Z"/><path class="cls-1" d="m33.34,111.99h-6.17c-.25,0-.51,0-.76-.02-11.38-.5-19.63-8.8-19.63-19.75,0-2.94.59-5.89,1.87-9.3.11-.29.22-.58.35-.86,2.83-6.48,8.57-11.1,15.75-12.67,5.39-1.18,10.9-.41,15.65,2.11,1.02-1.57,2.3-3.87,3.83-7.24-2.4-1.28-4.73-2.93-7-4.95-5.24-4.66-8.46-10.71-9.23-17.24-.37-1.78-.55-3.48-.55-5.16,0-8.68,3.6-16.47,10.41-22.53.1-.08.19-.17.29-.25,7.49-6.37,17.42-10.01,30.2-11.05,3.15-1.88,7.2-3.08,12.26-3.08,6.63,0,11.1,2.31,13.96,4.73,3.55.87,6.83,2.06,9.82,3.58,3.95,1.99,7.09,4.75,9.34,8.19,1.59,2.45,3.66,6.24,3.66,11.33,0,5.77-2.8,11.22-7.49,14.57-5.89,4.2-12.23,3.69-16.52,2.66-3.39,9.76-4.42,12.53-4.9,13.76-.67,1.71-1.58,4.07-2.73,7.09-1.21,3.15-2.3,5.77-3.33,7.98,1.46.65,2.91,1.54,4.33,2.74,7.1,6.1,8.43,16.14,3.34,23.8-2.06,3.2-4.88,5.85-8.2,7.68-4.11,2.26-6.84,2.79-26.46,3.36-12.01.35-19.01.51-22.06.51ZM99.27,26.83s0,0,0,0c0,0,0,0,0,0Z"/><path class="cls-1" d="m77.81,112.62c-11.66,0-18.63-9.09-18.63-17.88,0-2.33.43-4.64,1.31-7.05.17-.45.86-2.39,2.09-5.85l.33-.92c1.46-4.08,3.04-8.57,4.75-13.45,2.61-7.47,3.11-8.8,3.28-9.24,0,0,0-.01,0-.02.27-1.39.59-2.64.99-3.82.74-2.21,1.86-4.36,3.43-6.49,3.51-4.8,8.96-7.77,14.92-8.12,2.16-.12,4.42.04,6.95.49,2.37.42,4.56,1.22,6.51,2.31,4.78-2.71,9.35-4.03,13.87-4.03,10.33,0,18.41,6.99,20.08,16.78,2.15.15,4.29.67,6.34,1.59,6.81,3.11,10.99,9.45,10.99,16.58,0,3.35-.92,6.64-2.67,9.57-1.99,3.48-4.88,7.21-9.06,11.72-4.14,4.45-8.11,8.01-12.16,10.88-6.03,4.27-12.44,6.43-19.06,6.43-.17,0-.34,0-.52,0-6.79-.2-12.4-2.2-16.69-5.93-.7.59-1.36,1.04-2.1,1.5-.48.3-.97.57-1.47.82-5.21,2.61-9.09,4.12-13.5,4.12Zm-6.96-53.88h0s0,0,0,0Z"/><path class="cls-1" d="m140.06,112.24c-10.83,0-19.73-6.37-23.24-16.63-.09-.26-.17-.53-.25-.8-.43-1.48-.71-3.02-.84-4.63-.32-.51-.61-1.03-.88-1.57-1.32-2.62-1.98-5.5-1.98-8.54s.75-7.52,4.34-12c1.51-1.88,2.88-3.63,4.12-5.26-.74-3.83-.31-7.9,1.34-11.65,1.68-3.82,4.99-8.21,11.52-10.71l2.45-4.56c.48-.95,1.01-1.92,1.58-2.89.32-.55.57-.98.74-1.28.26-.47.59-1.04.95-1.65,1.02-1.69,2.04-3.03,3.22-4.22,2.94-3.29,7.85-6.44,15.89-6.44,7.45,0,13.89,3.27,17.77,8.99,2.29,3.31,3.44,7.2,3.44,11.6,0,1.15-.09,2.28-.28,3.41,3.66,3.49,5.57,8.27,5.57,12.91,0,1.91-.38,6.41-3.52,10.65.38.98.68,2.01.88,3.06,2.05,10.51-5.32,18.43-11.25,24.79-7.41,7.99-13.83,12.82-20.19,15.19-.06.02-.12.04-.18.07-4.05,1.46-7.72,2.17-11.22,2.17Zm10.62-82.36s-.03.02-.04.03c.01,0,.03-.02.04-.03Z"/><path class="cls-1" d="m174.2,112.74c-15.99,0-23.93-8.23-27.23-13.13-.06-.09-.12-.17-.17-.26-2.75-4.24-4.2-9.32-4.2-14.69,0-4.27.93-8.72,2.86-13.6.08-.2.16-.41.25-.61,3.39-7.74,9.66-14.88,19.18-21.84,10.2-7.46,18.68-10.94,26.71-10.94,13.06,0,22.8,8.7,24.15,21.09,4.82,3.41,7.72,8.87,7.72,14.81,0,3.67-1.09,7.23-3.17,10.38-3.44,5.62-7.8,10.69-12.96,15.06-10.66,9.1-21.81,13.73-33.12,13.73Z"/><path class="cls-1" d="m219.31,112.49c-11.4,0-20.02-6.8-22.89-17.28-1.92-.62-3.24-1.36-3.64-1.61-5.69-3.4-9.11-9.34-9.11-15.88,0-4.2,1.43-8.23,4.24-12,.15-.2.31-.4.47-.6,1.84-2.24,3.56-4.58,5.16-6.99-.26-2.6-.02-5.58,1.06-8.93,1.3-4.04,3.77-7.78,8-12.09,3.64-3.71,7.11-6.31,10.61-7.98,2.5-1.18,3.39-1.57,3.99-1.81,2.52-1.01,5.17-1.51,7.9-1.51,6.38,0,12.34,3.39,15.56,8.85,1.09,1.85,1.77,3.69,2.14,5.48.76.32,1.5.68,2.22,1.08,6.32,3.56,9.82,10.03,9.59,16.94,5.42,3.39,8.65,9.05,8.65,15.32,0,3.35-.92,6.64-2.67,9.57-1.99,3.48-4.88,7.22-9.06,11.72-3.99,4.29-8.03,7.91-12.02,10.75-5.99,4.54-12.97,6.94-20.21,6.94Zm-10.19-73.73h0s0,0,0,0Z"/><path class="cls-1" d="m258.24,89.43h-.63c-12.84,0-19.77-9.6-19.77-18.63,0-8.07,4.77-15.09,12.77-18.83,2.83-1.36,5.79-2.05,8.8-2.07l18.62-.13c3.7-.04,6.58.24,9.04.78,10.71,2.34,15.5,10.84,15.5,18.23,0,6.27-3.68,14.71-14.07,17.88-2.17.66-4.75,1.16-8.1,1.55-5.06.59-12.18.99-21.76,1.22-.14,0-.27,0-.41,0Zm11.28-28.6c-1.18,2.24-1.95,4.91-1.95,7.95,0,4.02,1.3,7.3,3.13,9.82,1.28-2.17,2.13-4.85,2.13-7.8,0-3.88-1.3-7.28-3.32-9.97Z"/><path class="cls-1" d="m23.63,174.62c-11.66,0-18.63-9.09-18.63-17.88,0-2.33.43-4.63,1.3-7.05.16-.43.79-2.19,1.9-5.32l.52-1.46c1.46-4.08,3.04-8.57,4.75-13.45,2.61-7.47,3.11-8.8,3.28-9.24,0,0,0-.01,0-.02.27-1.39.59-2.64.99-3.82.74-2.21,1.86-4.36,3.43-6.49,3.51-4.81,8.97-7.78,14.94-8.12,2.15-.12,4.41.04,6.95.49,2.37.42,4.55,1.21,6.51,2.31,4.78-2.71,9.35-4.03,13.87-4.03,10.33,0,18.41,6.99,20.08,16.78,2.14.15,4.29.67,6.34,1.59,6.81,3.12,10.99,9.46,10.99,16.58,0,3.35-.92,6.64-2.67,9.58-1.99,3.48-4.88,7.22-9.06,11.72-4.13,4.45-8.11,8.01-12.16,10.88-6.02,4.27-12.44,6.43-19.06,6.43-.17,0-.35,0-.52,0-6.79-.2-12.39-2.2-16.69-5.93-.7.59-1.36,1.04-2.1,1.5-.48.3-.97.57-1.47.83-5.21,2.61-9.09,4.12-13.5,4.12Zm-6.96-53.88s0,0,0,0c0,0,0,0,0,0Z"/><path class="cls-1" d="m114.73,174.24c-5.68,0-10.83-1.8-14.93-5.04-8.61,4.46-17.49,4.76-26,.4-3.96-2.03-7.34-4.91-10.04-8.55-3.32-4.46-5.08-9.71-5.08-15.15,0-4.35.98-8.54,2.9-12.45,2.69-5.58,6.8-10.86,12.24-15.69,4.58-4.06,9.44-7.61,14.45-10.53,5.6-3.27,10.1-5.26,14.15-6.27,3.74-.93,7.48-1.41,11.12-1.41,5.84,0,11.33,1.71,15.87,4.94,5.69,4.05,8.14,8.86,9.13,12.82,3.16-.22,6.4.39,9.42,1.89,6.52,3.28,10.35,9.33,10.35,16.24,0,8.15-5.08,14.23-10.74,20.24-4.81,5.11-8.48,8.53-11.54,10.75-6.99,5.17-14.15,7.8-21.31,7.8Z"/><path class="cls-1" d="m143.46,174.24c-10.83,0-19.73-6.37-23.24-16.63-.09-.27-.18-.53-.25-.8-.43-1.48-.71-3.01-.84-4.63-.31-.5-.6-1.01-.87-1.54-1.33-2.63-2-5.51-2-8.57s.75-7.52,4.34-12.01c1.5-1.87,2.88-3.62,4.11-5.25-.74-3.83-.31-7.9,1.34-11.65,1.68-3.82,4.99-8.21,11.52-10.71l2.45-4.56c.48-.95,1.01-1.92,1.58-2.89.32-.55.57-.98.74-1.28.26-.47.59-1.04.95-1.65,1.02-1.69,2.04-3.03,3.22-4.22,2.94-3.29,7.85-6.44,15.89-6.44,7.45,0,13.89,3.27,17.77,8.99,2.29,3.31,3.44,7.2,3.44,11.6,0,1.15-.09,2.28-.28,3.41,3.66,3.49,5.57,8.28,5.57,12.91,0,1.91-.38,6.41-3.52,10.65.38.99.68,2.01.88,3.06,2.04,10.51-5.33,18.43-11.25,24.79-7.41,7.99-13.83,12.82-20.19,15.19-.06.02-.12.04-.18.07-4.06,1.46-7.72,2.17-11.22,2.17Zm16.72-24.77s0,0,0,0h0Zm-6.09-57.58l-.04.03.04-.03Z"/><path class="cls-1" d="m171.93,174.24c-10.83,0-19.73-6.37-23.24-16.63-.09-.27-.18-.53-.25-.8-.43-1.48-.71-3.01-.84-4.63-.31-.5-.6-1.01-.87-1.54-1.33-2.63-2-5.51-2-8.57s.75-7.52,4.34-12.01c2.75-3.42,5.06-6.44,6.91-9.01.14-.39.29-.79.45-1.18.73-2.03,1.83-4.91,3.56-7.78-.09-.78-.14-1.56-.14-2.34,0-9.14,5.96-13.71,12.27-18.55l1.72-1.31c2.41-2.08,6.95-5.71,13.6-5.71,9.93,0,18,8.08,18,18,0,1.43-.18,2.86-.52,4.24l-.77,3.09c-.57,3.27-1.89,6.07-3.17,8.26,1.33.32,2.65.79,3.93,1.43,6.43,3.23,10.36,9.46,10.36,16.31,0,3.34-.92,6.63-2.66,9.56-1.99,3.48-4.88,7.22-9.07,11.74-7.42,8-13.85,12.84-20.2,15.2-.06.02-.12.04-.18.07-4.05,1.46-7.72,2.17-11.22,2.17Zm21.98-66.28c.32.34.63.69.92,1.04-.01-.28-.03-.56-.06-.83l-.87-.22Zm-1.89-1.75h2.44c-1.65-7.2-8.1-11.18-11.78-11.33-1.43,0-2.74.18-3.94.47l4.27,5.59,4.93,1.23h-3.99,0c3.03.78,5.77,2.16,8.07,4.03Zm-21.59-4.03c0,.18,0,.36,0,.54.51-.2,1.04-.38,1.58-.54h-1.59Zm2.18-3.83l10.04,2.51-4.64-5.3c-2.28.68-4.1,1.77-5.39,2.79Z"/><path class="cls-1" d="m203.69,174.24c-5.65,0-10.93-1.56-15.29-4.52-4.86-3.11-12.29-10.14-12.29-24.07,0-8.37,2.64-16.66,7.85-24.62,2.81-4.38,6.18-8.3,10.01-11.63,7.33-6.43,15.16-9.72,23.21-9.72,2.62,0,5.2.38,7.67,1.11.17.05.35.11.52.16,7.18,2.4,12.35,7.51,14.56,14.03.62.71,1.2,1.48,1.73,2.31,2.53.08,5.07.7,7.49,1.9.03.02.07.03.1.05,6.42,3.24,10.26,9.29,10.26,16.2s-3.88,12.25-8.6,17.77c-3.21,3.94-12.5,15.1-26.16,15.1-.61,0-1.21-.02-1.81-.06-5.75,3.93-12.33,5.99-19.23,5.99Zm50.42-28.3s-.02.03-.03.05c.01-.01.02-.03.03-.05Z"/><path class="cls-1" d="m233.92,174.62c-11.66,0-18.63-9.09-18.63-17.88,0-2.32.42-4.62,1.3-7.03.17-.48.92-2.58,2.27-6.34l.16-.45c1.46-4.08,3.04-8.57,4.75-13.45,2.62-7.49,3.12-8.81,3.28-9.24,0,0,0-.02,0-.03.26-1.38.59-2.63.98-3.8.74-2.22,1.87-4.36,3.44-6.5,3.52-4.81,8.97-7.78,14.94-8.12,2.15-.12,4.41.04,6.95.49,2.37.42,4.55,1.21,6.51,2.31,4.78-2.71,9.35-4.03,13.87-4.03,10.33,0,18.41,6.99,20.08,16.78,2.14.15,4.29.67,6.34,1.59,6.81,3.12,10.99,9.46,10.99,16.58,0,3.36-.92,6.65-2.67,9.58-1.99,3.48-4.88,7.21-9.06,11.71-4.14,4.45-8.11,8.01-12.16,10.88-6.02,4.27-12.43,6.43-19.06,6.43-.17,0-.35,0-.52,0-6.79-.2-12.39-2.2-16.69-5.93-.7.59-1.36,1.05-2.1,1.51-.47.3-.96.57-1.46.82-5.21,2.61-9.09,4.12-13.5,4.12Zm-6.96-53.88s0,0,0,0c0,0,0,0,0,0Z"/><path class="cls-1" d="m325.02,174.24c-5.68,0-10.83-1.8-14.94-5.04-8.61,4.46-17.5,4.76-26,.4-3.96-2.03-7.34-4.91-10.04-8.55-3.32-4.46-5.08-9.7-5.08-15.14,0-4.35.98-8.54,2.9-12.45,2.69-5.59,6.8-10.87,12.24-15.7,4.58-4.07,9.44-7.61,14.45-10.53,5.6-3.27,10.09-5.26,14.15-6.27,3.74-.93,7.48-1.41,11.12-1.41,5.84,0,11.33,1.71,15.87,4.94,5.69,4.05,8.14,8.86,9.13,12.82,3.17-.22,6.4.39,9.43,1.89,6.51,3.27,10.35,9.33,10.35,16.24,0,8.15-5.08,14.23-10.74,20.24-4.8,5.11-8.47,8.53-11.53,10.75-6.99,5.17-14.16,7.8-21.31,7.8Z"/><path class="cls-1" d="m355.89,174.11c-15.94,0-27.08-11.03-27.08-26.82v-.76c0-.33,0-.66.03-.99.47-8.34,3.84-18.87,10.6-33.15,6.19-13.07,11.77-22.85,17.06-29.91.1-.13.2-.26.3-.39l3.91-4.91c.11-.14.23-.28.34-.42,1.41-1.67,3.21-3.49,5.5-5.57,8.3-7.8,16.69-9.44,22.28-9.44,9.83,0,17.99,4.38,22.4,12.03.05.08.09.16.14.25,1.88,3.38,2.83,7.34,2.83,11.77,0,4.2-1.16,8.54-3.64,13.67-.18.37-.38.74-.58,1.1-4.37,7.59-9.85,15.23-16.42,22.88.34.39.67.79.98,1.21,3.52,4.76,4.48,10.93,2.64,16.92-.36,1.17-.84,2.29-1.43,3.36-2.05,3.69-5.13,7.61-9.7,12.34-4.11,4.26-7.85,7.63-11.43,10.28-5.84,4.33-12.14,6.53-18.74,6.53Z"/><path class="cls-2" d="m33.34,104.99h-6.17c-.15,0-.31,0-.46,0-8.49-.37-12.94-6.7-12.94-12.76,0-2.07.45-4.25,1.43-6.84.06-.17.13-.35.21-.51,1.95-4.46,5.8-7.53,10.84-8.64,4.85-1.06,9.63.06,13.46,3.17.24.2.43.33.56.41.8-.06,1.67-.25,2.59-.58.15-.09.96-.61,2.31-2.33,2.1-2.82,4.89-7.82,8.29-16.66-.17-.04-.35-.07-.53-.11-3.76-.82-7.48-2.86-11.06-6.04-4.08-3.63-6.47-8.15-6.96-13.15-.31-1.41-.47-2.74-.47-4.02,0-6.63,2.79-12.61,8.06-17.3.06-.05.12-.1.17-.15,6.68-5.68,15.9-8.82,28.07-9.53,2.13-1.66,5.26-2.93,9.85-2.93s7.99,1.37,10.48,4.07c.02.02.04.04.06.06,3.74.76,7.12,1.91,10.12,3.44,2.78,1.39,5.02,3.34,6.6,5.75,1.18,1.83,2.53,4.3,2.53,7.5,0,3.52-1.71,6.84-4.56,8.88-5.1,3.65-10.86,1.67-13.94.61-.44-.15-1.36-.4-3.05-.62-.55,1.63-1.21,3.58-2.02,5.91-3.4,9.78-4.4,12.49-4.86,13.67-.67,1.71-1.58,4.09-2.75,7.12-1.29,3.37-2.43,6.07-3.48,8.27-.93,1.95-1.99,4.14-3.17,6.59-.16.34-.33.67-.5,1,3.67-.16,7.12.12,10.14,2.7,4.36,3.74,5.17,9.9,2.05,14.61-1.45,2.29-3.38,4.11-5.75,5.41-2.6,1.43-4.46,1.95-23.28,2.5-11.77.34-18.92.51-21.85.51Zm24.49-65.29h0s0,0,0,0Zm33.92-6.39s0,0,.01,0c0,0,0,0-.01,0Zm8.33-15.42h0,0Z"/><path class="cls-2" d="m77.81,105.62c-7.56,0-11.63-5.6-11.63-10.88,0-1.5.29-3.02.88-4.66.16-.44.86-2.4,2.11-5.89l.33-.92c1.46-4.09,3.05-8.59,4.77-13.49,1.72-4.91,2.8-7.97,3.23-9.1.2-.54.26-.78.26-.79.21-1.19.48-2.28.82-3.28.51-1.53,1.31-3.04,2.44-4.57,2.28-3.12,5.82-5.05,9.69-5.27,1.6-.09,3.33.04,5.33.4,3.04.54,5.59,1.96,7.41,3.96.1-.08.2-.15.3-.22,5.13-3.65,9.54-5.34,13.89-5.34,7.76,0,13.4,5.71,13.4,13.59,0,1.54-.21,3.15-.63,4.85,3.18-1.99,7.15-2.31,10.77-.68,5.08,2.32,6.87,6.79,6.87,10.2,0,2.1-.59,4.18-1.71,6.04-1.7,2.98-4.36,6.42-8.15,10.49-3.75,4.04-7.48,7.38-11.08,9.93-4.82,3.41-9.87,5.15-15.02,5.15-.1,0-.21,0-.31,0-5.68-.17-10.15-1.9-13.29-5.15-1.36-1.4-2.44-2.99-3.22-4.72-3.85,4.89-4.85,5.65-6.21,6.51-.29.18-.58.34-.88.49-5.05,2.52-7.66,3.38-10.37,3.38Z"/><path class="cls-2" d="m140.06,105.24c-7.86,0-14.07-4.45-16.61-11.89-.05-.16-.1-.32-.15-.48-.45-1.55-.66-3.2-.66-5.05-.59-.71-1.11-1.51-1.54-2.38-.8-1.58-1.23-3.42-1.23-5.38s.49-4.73,2.8-7.63c2.46-3.06,4.59-5.82,6.37-8.26-1.45-3.16-1.47-6.84.05-10.25,2.09-4.78,6.28-6.83,9.95-7.73l3.8-7.07c.42-.84.9-1.7,1.41-2.57.36-.62.64-1.09.82-1.42.24-.43.53-.94.85-1.47.73-1.21,1.43-2.13,2.23-2.93l.1-.1c2.44-2.81,6.05-4.23,10.78-4.23,5.09,0,9.45,2.17,12.01,5.96,1.47,2.12,2.21,4.69,2.21,7.63,0,2.11-.48,4.2-1.42,6.25,5.18,2.17,6.72,7.12,6.72,10.06,0,2.51-.82,6.56-5.42,9.47,1.47,1.52,2.5,3.46,2.91,5.58,1.16,5.96-2.14,10.78-9.5,18.69-6.65,7.17-12.21,11.43-17.5,13.4-.04.01-.07.03-.11.04-3.28,1.18-6.17,1.75-8.85,1.75Zm24.74-61.75s0,0,0,0c0,0,0,0,0,0Zm.01-.02s0,0,0,.01c0,0,0,0,0-.01Zm-10.41-7.66s0,0-.02,0c0,0,.01,0,.02,0Z"/><path class="cls-2" d="m174.2,105.74c-12.11,0-18.34-5.46-21.43-10.05-.03-.05-.07-.1-.1-.16-2.04-3.15-3.08-6.81-3.08-10.88,0-3.38.78-6.99,2.37-11.03.05-.12.1-.24.15-.36,2.88-6.57,8.41-12.79,16.9-19,8.94-6.54,16.11-9.59,22.58-9.59,10.35,0,17.3,6.85,17.3,17.05,0,.4-.01.8-.03,1.19.93.35,1.82.83,2.64,1.42,3.09,2.1,4.96,5.51,4.96,9.23,0,1.65-.37,4.08-2.07,6.61-3.07,5.03-6.96,9.57-11.59,13.49-9.37,8-19,12.07-28.59,12.07Z"/><path class="cls-2" d="m219.31,105.49c-10.88,0-16.16-7.93-16.85-16.35-2.1.09-4.21-.41-6.08-1.53-3.57-2.13-5.72-5.83-5.72-9.88s2.14-6.86,2.85-7.8c.09-.12.18-.24.28-.36,2.6-3.17,4.98-6.52,7.13-9.99-.6-2.15-.74-4.89.33-8.2.96-2.97,2.91-5.85,6.34-9.35,3.05-3.11,5.86-5.25,8.61-6.55,2.34-1.11,3.13-1.45,3.61-1.64,1.68-.67,3.45-1.01,5.3-1.01,3.97,0,7.53,2.02,9.53,5.41,1.48,2.51,1.73,5.06,1.42,7.36,2.1.26,3.93.84,5.54,1.75,5.16,2.9,7.31,8.94,5.23,14.69-.05.14-.1.28-.16.42.92.17,1.84.45,2.74.86,4.32,1.98,6.87,5.78,6.87,10.2,0,2.1-.59,4.18-1.71,6.04-1.69,2.98-4.36,6.42-8.15,10.49-3.69,3.98-7.41,7.3-11.04,9.88-4.84,3.7-10.25,5.58-16.06,5.58Zm-3.77-63.95h0s0,0,0,0Z"/><path class="cls-2" d="m258.24,82.43h-.63c-8.38,0-12.77-5.85-12.77-11.63,0-2.55.86-8.84,8.77-12.51,1.9-.92,3.86-1.38,5.84-1.39l18.63-.13h0c3.2,0,5.56.2,7.5.62,7.38,1.61,10,7.14,10,11.39,0,1.97-.66,8.6-9.11,11.19-1.76.54-3.95.95-6.88,1.29-4.84.57-11.75.95-21.11,1.17-.08,0-.16,0-.25,0Z"/><path class="cls-2" d="m23.63,167.62c-7.56,0-11.63-5.6-11.63-10.88,0-1.5.29-3.02.88-4.66.15-.42.79-2.2,1.92-5.35l.52-1.46c1.46-4.09,3.05-8.59,4.77-13.49,1.72-4.91,2.8-7.97,3.23-9.1.2-.54.26-.78.26-.79.21-1.19.48-2.28.82-3.28.51-1.53,1.31-3.04,2.44-4.57,2.28-3.12,5.82-5.05,9.69-5.27,1.59-.09,3.33.04,5.33.4,3.04.54,5.59,1.95,7.41,3.95.1-.08.2-.15.3-.22,5.13-3.65,9.54-5.34,13.9-5.34,7.76,0,13.4,5.71,13.4,13.59,0,1.54-.21,3.15-.63,4.85,3.18-1.99,7.15-2.31,10.77-.68,4.32,1.98,6.87,5.78,6.87,10.2,0,2.1-.59,4.18-1.71,6.04-1.7,2.98-4.37,6.42-8.15,10.49-3.75,4.04-7.48,7.38-11.08,9.93-4.82,3.41-9.87,5.15-15.01,5.15-.1,0-.21,0-.31,0-5.68-.17-10.15-1.9-13.29-5.15-1.36-1.41-2.44-2.99-3.22-4.72-3.85,4.89-4.84,5.65-6.21,6.51-.29.18-.58.34-.88.5-5.05,2.52-7.67,3.38-10.37,3.38Z"/><path class="cls-2" d="m114.73,167.24c-5.79,0-10.69-2.52-13.84-6.93-4.97,3.6-9.93,5.42-14.76,5.42-3.02,0-6.1-.79-9.14-2.35-2.99-1.54-5.56-3.72-7.61-6.49-2.42-3.25-3.7-7.05-3.7-10.98,0-3.28.74-6.44,2.19-9.38,2.28-4.76,5.84-9.31,10.6-13.52,4.23-3.76,8.72-7.03,13.33-9.72,5.01-2.92,8.93-4.68,12.32-5.53,3.18-.79,6.35-1.2,9.42-1.2,4.44,0,8.41,1.23,11.82,3.64,5.93,4.21,6.81,9.42,6.81,12.15,0,.51-.03,1.01-.08,1.49.03.07.05.15.07.22.29.89.48,1.81.54,2.73,3.42-2.73,8.11-3.31,12.15-1.31,4.07,2.04,6.46,5.76,6.46,9.97,0,5.09-3.11,9.35-8.84,15.45-4.51,4.8-7.88,7.95-10.58,9.91-5.76,4.27-11.54,6.44-17.17,6.44Z"/><path class="cls-2" d="m143.46,167.24c-7.86,0-14.07-4.45-16.61-11.89-.05-.16-.11-.32-.15-.48-.45-1.55-.66-3.2-.66-5.05-.59-.71-1.11-1.51-1.54-2.38-.8-1.57-1.23-3.41-1.23-5.38s.49-4.73,2.81-7.63c2.46-3.06,4.58-5.82,6.37-8.26-1.45-3.16-1.47-6.84.05-10.25,2.09-4.78,6.28-6.83,9.95-7.73l3.8-7.07c.42-.84.9-1.7,1.41-2.57.36-.62.64-1.09.82-1.42.24-.43.53-.94.85-1.47.73-1.21,1.43-2.13,2.23-2.93l.1-.1c2.44-2.81,6.05-4.23,10.78-4.23,5.09,0,9.45,2.17,12.01,5.96,1.47,2.12,2.21,4.69,2.21,7.63,0,2.11-.48,4.2-1.42,6.25,5.18,2.17,6.72,7.12,6.72,10.06,0,2.51-.82,6.56-5.42,9.46,1.47,1.53,2.5,3.46,2.91,5.59,1.16,5.96-2.14,10.77-9.5,18.69-6.65,7.17-12.21,11.43-17.5,13.4-.04.01-.07.03-.11.04-3.28,1.18-6.18,1.75-8.85,1.75Zm24.74-61.75s0,0,0,0c0,0,0,0,0,0Zm.01-.02h0s0,0,0,0Zm-10.41-7.66s0,0-.01,0c0,0,0,0,.01,0Z"/><path class="cls-2" d="m171.93,167.24c-7.86,0-14.07-4.45-16.61-11.89-.05-.16-.11-.32-.15-.48-.45-1.55-.66-3.2-.66-5.05-.59-.71-1.11-1.51-1.54-2.38-.8-1.57-1.23-3.41-1.23-5.38s.49-4.73,2.81-7.63c3.14-3.92,5.75-7.34,7.78-10.23.16-.58.37-1.17.63-1.78.89-2.49,2.21-5.98,4.47-8.86-.38-1.21-.57-2.49-.57-3.82,0-5.68,3.59-8.44,9.53-12.99l1.88-1.44c1.98-1.73,4.91-4.13,9.17-4.13,6.17,0,11,4.83,11,11,0,.86-.1,1.71-.31,2.55l-.84,3.36c-.45,2.97-1.9,5.52-3.19,7.51-.41.63-1.11,1.71-2.13,2.85.02.09.04.17.06.26.5,2.26.42,4.54-.21,6.71,3.08-1.5,6.74-1.56,9.99.05,4.07,2.04,6.47,5.79,6.47,10.04,0,2.1-.59,4.17-1.71,6.03-1.69,2.98-4.37,6.42-8.16,10.5-6.66,7.17-12.22,11.44-17.51,13.41-.04.01-.07.03-.11.04-3.28,1.18-6.18,1.76-8.85,1.76Zm10.24-43.17s0,0,0,0c0,0,0,0,0,0Zm-2.4-15.55c3.32.32,5.94,1.53,7.89,3.16.12-.61.18-1.26.18-1.94,0-1.3-.3-2.47-.77-3.49l-.15-.04h.14c-.59-1.25-1.44-2.26-2.32-2.99l.17.22-.26-.29c-.52-.42-1.04-.74-1.53-.97h-2.74c-1.18.3-2.14.78-2.86,1.26.25,1.9,1.06,3.66,2.25,5.09Z"/><path class="cls-2" d="m203.69,167.24c-4.35,0-8.2-1.13-11.45-3.37-3.58-2.27-9.13-7.51-9.13-18.22,0-7,2.26-14,6.72-20.82,2.45-3.83,5.39-7.25,8.72-10.15,6.04-5.3,12.31-8,18.61-8,1.94,0,3.85.28,5.66.82.1.03.21.06.31.1,5.47,1.83,9.27,5.88,10.51,10.99,1.52,1.42,2.96,3.44,3.84,6.29,2.97-1,6.07-.62,8.53.59,4.07,2.05,6.47,5.77,6.47,9.98s-2.25,7.76-6.98,13.29c-6.92,8.47-13.72,12.58-20.78,12.58-1.27,0-2.51-.13-3.69-.39-5.06,4.13-11.04,6.31-17.35,6.31Zm44.74-25.4s0,.01-.01.02c0,0,0-.01.01-.02Z"/><path class="cls-2" d="m233.92,167.62c-7.56,0-11.63-5.6-11.63-10.88,0-1.49.29-3.01.88-4.65.17-.46.93-2.58,2.28-6.37l.16-.45c1.46-4.09,3.05-8.59,4.77-13.49,1.72-4.92,2.81-7.98,3.23-9.1.2-.54.26-.78.26-.79.21-1.18.48-2.27.81-3.27.51-1.53,1.31-3.04,2.44-4.58,2.29-3.12,5.82-5.05,9.69-5.27,1.59-.09,3.33.04,5.33.4,3.04.54,5.59,1.95,7.41,3.95.1-.08.2-.15.3-.22,5.13-3.65,9.54-5.34,13.9-5.34,7.76,0,13.4,5.71,13.4,13.59,0,1.54-.21,3.15-.63,4.85,3.18-1.99,7.15-2.31,10.77-.68,4.32,1.98,6.87,5.78,6.87,10.2,0,2.11-.59,4.18-1.72,6.05-1.7,2.98-4.37,6.42-8.15,10.49-3.75,4.04-7.48,7.38-11.08,9.93-4.82,3.41-9.87,5.14-15.01,5.14-.1,0-.21,0-.31,0-5.68-.17-10.15-1.9-13.29-5.15-1.36-1.41-2.44-2.99-3.22-4.72-3.85,4.89-4.85,5.66-6.21,6.51-.29.18-.58.34-.88.49-5.05,2.52-7.67,3.38-10.37,3.38Zm7.93-48.74h0s0,0,0,0Z"/><path class="cls-2" d="m325.02,167.24c-5.79,0-10.69-2.52-13.84-6.93-4.97,3.6-9.93,5.42-14.76,5.42-3.02,0-6.1-.79-9.14-2.35-3-1.54-5.56-3.72-7.61-6.49-2.42-3.25-3.7-7.05-3.7-10.98,0-3.28.74-6.44,2.19-9.39,2.28-4.76,5.85-9.31,10.6-13.52,4.23-3.76,8.72-7.03,13.33-9.72,5.01-2.92,8.92-4.68,12.32-5.53,3.18-.79,6.35-1.2,9.42-1.2,4.44,0,8.41,1.23,11.82,3.64,5.93,4.21,6.81,9.42,6.81,12.15,0,.51-.03,1.01-.08,1.49.03.07.05.15.08.22.29.89.47,1.81.54,2.73,3.42-2.74,8.11-3.31,12.15-1.31,4.06,2.04,6.46,5.76,6.46,9.97,0,5.09-3.11,9.35-8.84,15.45-4.51,4.8-7.88,7.95-10.58,9.91-5.76,4.27-11.54,6.44-17.17,6.44Z"/><path class="cls-2" d="m355.89,167.11c-12.2,0-20.08-7.78-20.08-19.82v-.76c0-.2,0-.4.02-.6.42-7.41,3.58-17.11,9.94-30.55,5.98-12.64,11.33-22.03,16.34-28.71.06-.08.12-.16.18-.23l3.91-4.91c.07-.09.14-.17.21-.25,1.22-1.44,2.83-3.06,4.91-4.95,5.33-5.03,11.23-7.58,17.53-7.58,9.94,0,14.5,5.34,16.34,8.53.03.05.06.1.08.15,1.31,2.36,1.95,5.1,1.95,8.38s-.93,6.48-2.94,10.62c-.11.22-.23.45-.35.66-5.26,9.14-12.25,18.39-20.91,27.67,2.35.67,4.42,2.08,5.9,4.08,1.28,1.74,3.2,5.44,1.58,10.7-.21.7-.5,1.38-.86,2.02-1.72,3.1-4.54,6.66-8.61,10.88-3.84,3.99-7.3,7.1-10.56,9.52-4.61,3.42-9.51,5.16-14.57,5.16Z"/><path d="m47.95,40.43c0,1.34.36,2.52,1.07,3.53.71,1.01,1.36,1.72,1.95,2.14,1.18.76,2.69,1.6,4.54,2.52,1.01.76,1.22,1.22.63,1.39-.25,0-.55-.04-.88-.13-2.02-.42-4.16-1.64-6.43-3.65-2.27-2.02-3.45-4.33-3.53-6.93-.25-.92-.38-1.72-.38-2.39,0-3.61,1.51-6.76,4.54-9.45,5.63-4.79,14.57-7.18,26.84-7.18,0-.33.13-.76.38-1.26.17-1.01,1.47-1.51,3.91-1.51,2.1,0,3.11.5,3.02,1.51-.34.67-.55,1.22-.63,1.64,5.37.34,9.87,1.43,13.48,3.28,1.18.59,2.04,1.3,2.58,2.14.55.84.82,1.43.82,1.76,0,.76-1.53.61-4.6-.44-3.07-1.05-7.75-1.57-14.05-1.57-.42,1.76-1.87,6.22-4.35,13.36-2.48,7.14-4.05,11.57-4.72,13.29-.67,1.72-1.6,4.12-2.77,7.18-1.18,3.07-2.23,5.57-3.15,7.5-.93,1.93-1.97,4.12-3.15,6.55-2.02,4.12-4.41,7.98-7.18,11.59-2.1,2.44-3.7,4.08-4.79,4.91h8.32c4.11,0,7.73-.1,10.84-.31,3.11-.21,4.81-.19,5.1.06.29.25.31.55.06.88-.5.84-1.18,1.49-2.02,1.95-.84.46-7.01.86-18.52,1.2-11.51.33-18.69.5-21.55.5h-6.17c-1.93-.08-2.9-.84-2.9-2.27,0-.76.25-1.81.76-3.15.59-1.34,1.74-2.21,3.46-2.58,1.72-.38,3.25-.02,4.6,1.07,2.27,1.85,4.49,2.77,6.68,2.77s4.43-.42,6.74-1.26c2.31-.84,4.64-2.77,6.99-5.8,6.8-9.07,13.94-28.18,21.42-57.33-7.73.67-14.16,2.25-19.28,4.73-5.12,2.48-7.69,5.73-7.69,9.76Z"/><path d="m117.63,56.06c1.93,0,2.9,1.03,2.9,3.09s-.97,4.89-2.9,8.5c-1.93,3.61-3.36,6.55-4.28,8.82-1.6,3.86-2.39,6.95-2.39,9.26s.33,3.84,1.01,4.6c1.26,1.34,2.98,1.41,5.17.19,2.18-1.22,5.23-3.57,9.14-7.06,3.91-3.48,7.03-6.91,9.39-10.27.33-.42.73-.52,1.2-.31.46.21.69.42.69.63s-.08.44-.25.69c-1.26,2.27-3.53,5.17-6.8,8.69-3.28,3.53-6.43,6.36-9.45,8.5-3.02,2.14-6.01,3.21-8.95,3.21-2.86-.08-4.87-.74-6.05-1.95-1.18-1.22-1.76-2.75-1.76-4.6s.17-3.63.5-5.35c.33-1.72.96-3.72,1.89-5.99,1.51-3.61,2.83-6.43,3.97-8.44,1.13-2.02,1.7-3.34,1.7-3.97s-.34-.95-1.01-.95c-1.34,0-3.91,1.64-7.69,4.91-2.6,2.44-6.45,7.04-11.53,13.8-5.08,6.76-7.96,10.35-8.63,10.77-3.02,1.51-4.91,2.27-5.67,2.27s-1.13-.13-1.13-.38.08-.61.25-1.07c.17-.46.99-2.75,2.46-6.87,1.47-4.11,3.07-8.63,4.79-13.54,1.72-4.91,2.77-7.88,3.15-8.88.38-1.01.63-1.87.76-2.58.13-.71.27-1.32.44-1.83.17-.5.48-1.07.95-1.7.46-.63,1.07-.96,1.83-1.01.76-.04,1.72.04,2.9.25,1.18.21,1.76.74,1.76,1.58,0,.59-.46,1.87-1.39,3.84-.93,1.97-3.57,8.76-7.94,20.35,3.02-3.7,6.85-7.96,11.47-12.79,4.62-4.83,8.52-8.5,11.72-11.02,3.19-2.27,5.8-3.4,7.81-3.4Z"/><path d="m154.17,56.56c6.47-.59,10.4-.88,11.78-.88s2.08.21,2.08.63c0,.5-.99,1.03-2.96,1.58-1.97.55-6.78,1.24-14.43,2.08-.42.76-.93,1.64-1.51,2.65-1.26,2.02-1.93,3.23-2.02,3.65-4.79,9.58-7.31,15.67-7.56,18.27-.08.76-.13,1.72-.13,2.9s.33,2.14,1.01,2.9c1.18,1.34,2.85,1.43,5.04.25,2.18-1.18,5.23-3.53,9.14-7.06,3.91-3.53,7.08-6.97,9.51-10.33.33-.42.76-.5,1.26-.25,1.26.59-.93,3.91-6.55,9.95-5.38,5.8-9.87,9.37-13.48,10.71-2.1.76-3.86,1.13-5.29,1.13-3.36,0-5.59-1.6-6.68-4.79-.17-.59-.25-1.3-.25-2.14,0-2.94,1.34-7.39,4.03-13.36-.42.93-2.06,3.02-4.91,6.3-.76.84-1.34.84-1.76,0-.08-.17-.13-.4-.13-.69s.17-.65.5-1.07c4.11-5.12,7.35-9.45,9.7-12.98,0-.08.92-1.85,2.77-5.29-.84.17-1.7.25-2.58.25s-1.53-.27-1.95-.82c-.42-.55-.46-1.2-.13-1.95.59-1.34,2.81-2.1,6.68-2.27.08-.17.25-.25.5-.25l6.3-11.72c.33-.67.71-1.36,1.13-2.08.42-.71.73-1.26.95-1.64.21-.38.44-.78.69-1.2.25-.42.46-.71.63-.88.17-.17.33-.33.5-.5.33-.5,1.32-.76,2.96-.76s2.75.46,3.34,1.39c.25.34.38.9.38,1.7s-.3,1.68-.88,2.65c-.59.97-1.22,1.66-1.89,2.08-.67.42-1.13.88-1.39,1.39l-6.05,10.58,1.64-.13Z"/><path d="m191.59,55.17c4.54,0,6.8,2.19,6.8,6.55,0,2.27-.63,4.12-1.89,5.54-2.1,3.11-5.5,5.82-10.21,8.13-4.71,2.31-8.69,3.59-11.97,3.84-1.18.08-1.81-.25-1.89-1.01-.08-.33.02-.55.31-.63.29-.08.52-.13.69-.13,1.93-.17,4.41-1.09,7.43-2.77,5.63-3.02,9.74-6.13,12.35-9.32,1.09-1.51,1.64-2.96,1.64-4.35s-.67-2.08-2.02-2.08c-1.09,0-2.56.46-4.41,1.39-3.95,1.85-8.11,5.06-12.47,9.64-4.37,4.58-7.23,9.05-8.57,13.42-.42,1.34-.63,2.67-.63,3.97s.54,2.54,1.64,3.72c1.09,1.18,2.77,1.76,5.04,1.76,2.52,0,5.42-.67,8.69-2.02,9.49-3.86,16.8-9.7,21.92-17.51.5-.67.96-.8,1.39-.38.33.17.5.38.5.63s-.13.55-.38.88c-2.52,4.2-5.71,7.94-9.58,11.21-7.48,6.38-14.74,9.58-21.8,9.58-6.05,0-10.29-1.81-12.73-5.42-.93-1.43-1.39-3.15-1.39-5.17s.55-4.41,1.64-7.18c2.1-4.79,6.59-9.7,13.48-14.74,6.89-5.04,12.35-7.56,16.38-7.56Z"/><path d="m219.31,94.99c-4.28,0-6.43-2.58-6.43-7.75s3.7-11.53,11.09-19.09c.59-.59,1.01-1.05,1.26-1.39l.88-1.26c1.18-1.59,1.72-2.6,1.64-3.02l-.38-1.13c-.34-1.01-1.72-1.74-4.16-2.2-2.44-.46-4.41-.69-5.92-.69-7.56,10.67-11.93,16.76-13.1,18.27-1.18,1.51-1.97,2.14-2.39,1.89-.42-.25-.63-.55-.63-.88s.25-.84.76-1.51c4.54-5.54,8.44-11.47,11.72-17.77-1.01-.17-1.76-.52-2.27-1.07-.5-.55-.55-1.47-.13-2.77.42-1.3,1.7-3.04,3.84-5.23,2.14-2.18,4.01-3.65,5.61-4.41,1.59-.76,2.6-1.22,3.02-1.39.42-.17.88-.25,1.39-.25,1.01,0,.67,1.51-1.01,4.54l-4.91,7.81c3.78.25,7.01.38,9.7.38l4.41-.13c1.43,0,2.48.19,3.15.57.67.38.84,1.03.5,1.95-.59,1.6-2.06,3.74-4.41,6.43-5.04,5.88-8.82,12.14-11.34,18.77-.59,1.6-.88,2.98-.88,4.16,0,2.44.88,3.65,2.65,3.65.59,0,1.7-.46,3.34-1.39,1.64-.92,4.39-3.13,8.25-6.61,3.86-3.48,6.97-6.91,9.32-10.27.33-.42.73-.52,1.2-.31.46.21.69.42.69.63s-.08.44-.25.69c-1.26,2.27-3.53,5.17-6.8,8.69-3.28,3.53-6.47,6.38-9.58,8.57-3.02,2.35-6.3,3.53-9.83,3.53Z"/><path d="m259.5,67.4l18.65-.13c4.62,0,6.93.5,6.93,1.51,0,1.68-8.95,2.73-26.84,3.15h-.63c-1.51,0-2.27-.38-2.27-1.13,0-1.18.92-2.18,2.77-3.02.5-.25.96-.38,1.39-.38Z"/><path d="m63.45,118.06c1.93,0,2.9,1.03,2.9,3.09s-.97,4.89-2.9,8.51c-1.93,3.61-3.36,6.55-4.28,8.82-1.6,3.86-2.39,6.95-2.39,9.26s.33,3.84,1.01,4.6c1.26,1.34,2.98,1.41,5.17.19,2.18-1.22,5.23-3.57,9.14-7.06,3.91-3.48,7.03-6.91,9.39-10.27.33-.42.73-.52,1.2-.31.46.21.69.42.69.63s-.08.44-.25.69c-1.26,2.27-3.53,5.17-6.8,8.69-3.28,3.53-6.43,6.36-9.45,8.5-3.02,2.14-6.01,3.21-8.95,3.21-2.86-.08-4.87-.74-6.05-1.95-1.18-1.22-1.76-2.75-1.76-4.6s.17-3.63.5-5.35c.33-1.72.96-3.72,1.89-5.99,1.51-3.61,2.83-6.43,3.97-8.44,1.13-2.02,1.7-3.34,1.7-3.97s-.34-.95-1.01-.95c-1.34,0-3.91,1.64-7.69,4.92-2.6,2.44-6.45,7.04-11.53,13.8-5.08,6.76-7.96,10.35-8.63,10.77-3.02,1.51-4.91,2.27-5.67,2.27s-1.13-.13-1.13-.38.08-.61.25-1.07c.17-.46.99-2.75,2.46-6.87,1.47-4.11,3.07-8.63,4.79-13.54,1.72-4.91,2.77-7.88,3.15-8.88.38-1.01.63-1.87.76-2.58.13-.71.27-1.32.44-1.83.17-.5.48-1.07.95-1.7.46-.63,1.07-.96,1.83-1.01.76-.04,1.72.04,2.9.25,1.18.21,1.76.74,1.76,1.58,0,.59-.46,1.87-1.39,3.84-.93,1.97-3.57,8.76-7.94,20.35,3.02-3.7,6.85-7.96,11.47-12.79,4.62-4.83,8.52-8.5,11.72-11.02,3.19-2.27,5.8-3.4,7.81-3.4Z"/><path d="m86.13,155.23c-1.34,0-2.79-.4-4.35-1.2-1.56-.8-2.88-1.93-3.97-3.4-1.09-1.47-1.64-3.04-1.64-4.73s.38-3.28,1.13-4.79c1.68-3.53,4.39-6.95,8.13-10.27,3.74-3.32,7.62-6.15,11.65-8.5,4.03-2.35,7.22-3.82,9.58-4.41,2.35-.59,4.64-.88,6.87-.88s4.14.57,5.73,1.7c1.59,1.13,2.39,2.33,2.39,3.59,0,.42-.04.67-.13.76-.08.08-.3.04-.63-.13-1.01-1.59-3.09-2.39-6.24-2.39s-6.72,1.03-10.71,3.09c-3.99,2.06-7.75,4.64-11.28,7.75-2.94,2.77-5.52,5.9-7.75,9.39-2.23,3.49-3.34,6.03-3.34,7.62,0,3.11.88,4.66,2.65,4.66s4.45-1.43,8.06-4.28c5.96-5.04,10.04-8.74,12.22-11.09,7.73-8.32,11.89-12.47,12.47-12.47,1.01,0,2.22.3,3.65.88,1.43.59,1.89,1.3,1.39,2.14-4.28,6.05-6.8,12.14-7.56,18.27-.08.76-.13,1.72-.13,2.9s.33,2.14,1.01,2.9c1.26,1.34,2.98,1.43,5.17.25,2.18-1.18,5.23-3.53,9.14-7.06,3.91-3.53,7.03-6.97,9.39-10.33.33-.42.71-.52,1.13-.31.42.21.63.4.63.57,0,1.26-2,4.01-5.98,8.25-3.99,4.24-7.04,7.12-9.14,8.63-3.95,2.94-7.6,4.41-10.96,4.41s-5.34-1.6-6.43-4.79c-.25-1.01-.38-2.14-.38-3.4,0-3.78.8-7.77,2.39-11.97-.34.17-1.89,1.85-4.66,5.04-2.77,3.19-5.99,6.26-9.64,9.2-3.65,2.94-6.95,4.41-9.89,4.41Z"/><path d="m157.57,118.56c6.47-.59,10.4-.88,11.78-.88s2.08.21,2.08.63c0,.5-.99,1.03-2.96,1.58-1.97.55-6.78,1.24-14.43,2.08-.42.76-.93,1.64-1.51,2.65-1.26,2.02-1.93,3.23-2.02,3.65-4.79,9.58-7.31,15.67-7.56,18.27-.08.76-.13,1.72-.13,2.9s.33,2.14,1.01,2.9c1.18,1.34,2.85,1.43,5.04.25,2.18-1.18,5.23-3.53,9.14-7.06,3.91-3.53,7.08-6.97,9.51-10.33.33-.42.76-.5,1.26-.25,1.26.59-.93,3.91-6.55,9.95-5.38,5.8-9.87,9.37-13.48,10.71-2.1.76-3.86,1.13-5.29,1.13-3.36,0-5.59-1.6-6.68-4.79-.17-.59-.25-1.3-.25-2.14,0-2.94,1.34-7.39,4.03-13.36-.42.92-2.06,3.02-4.91,6.3-.76.84-1.34.84-1.76,0-.08-.17-.13-.4-.13-.69s.17-.65.5-1.07c4.11-5.12,7.35-9.45,9.7-12.98,0-.08.92-1.85,2.77-5.29-.84.17-1.7.25-2.58.25s-1.53-.27-1.95-.82c-.42-.54-.46-1.2-.13-1.95.59-1.34,2.81-2.1,6.68-2.27.08-.17.25-.25.5-.25l6.3-11.72c.33-.67.71-1.36,1.13-2.08.42-.71.73-1.26.95-1.64.21-.38.44-.78.69-1.2.25-.42.46-.71.63-.88.17-.17.33-.33.5-.5.33-.5,1.32-.76,2.96-.76s2.75.46,3.34,1.39c.25.34.38.9.38,1.7s-.3,1.68-.88,2.65c-.59.97-1.22,1.66-1.89,2.08-.67.42-1.13.88-1.39,1.39l-6.05,10.58,1.64-.13Z"/><path d="m177.98,118.94c2.1,0,3.36.67,3.78,2.02.17.76.06,1.49-.32,2.21-.38.71-.65,1.28-.82,1.7-.17.42-.29.76-.38,1.01-.42.84-.84,1.64-1.26,2.39-4.79,9.58-7.31,15.67-7.56,18.27-.08.76-.13,1.72-.13,2.9s.33,2.14,1.01,2.9c1.18,1.34,2.86,1.43,5.04.25,2.18-1.18,5.23-3.53,9.13-7.06,3.91-3.53,7.08-6.97,9.51-10.33.33-.42.71-.52,1.13-.31.42.21.63.42.63.63s-.09.44-.25.69c-1.26,2.27-3.53,5.17-6.8,8.69-5.38,5.8-9.87,9.37-13.48,10.71-2.1.76-3.86,1.13-5.29,1.13-3.36,0-5.59-1.6-6.68-4.79-.17-.59-.25-1.3-.25-2.14,0-2.94,1.34-7.39,4.03-13.36-.42.92-2.06,3.02-4.91,6.3-.76.84-1.34.84-1.76,0-.08-.17-.13-.4-.13-.69s.17-.65.5-1.07c4.11-5.12,7.35-9.45,9.7-12.98-.17-.42-.08-.96.25-1.64,1.68-4.7,3.15-7.18,4.41-7.43h.88Zm9.96-16.76l-1.01,4.03c0,.76-.55,1.97-1.64,3.65-1.09,1.68-1.93,2.52-2.52,2.52-3.61,0-5.42-.88-5.42-2.65,0-.33,1.8-1.89,5.42-4.66l2.14-1.64c1.34-1.18,2.18-1.76,2.52-1.76s.5.17.5.5Z"/><path d="m220.44,139.98c1.51-3.11,2.27-5.5,2.27-7.18s-.19-3-.57-3.97c-.38-.96-.21-1.78.5-2.46.71-.67,1.62-.92,2.71-.76,1.68.42,2.52,2.31,2.52,5.67s-1.97,7.77-5.92,13.23c.08,2.27,1.26,3.4,3.53,3.4s5.71-2.44,10.33-7.31c2.18-2.52,3.55-4.16,4.09-4.91.55-.76,1.03-1.03,1.45-.82.42.21.63.4.63.57,0,.84-1.51,3.02-4.54,6.55-4.79,5.88-9.03,8.82-12.73,8.82-2.44,0-4.16-1.05-5.17-3.15-1.68,1.76-3.32,3.4-4.91,4.91-3.28,2.77-6.93,4.16-10.96,4.16-2.27,0-4.16-.55-5.67-1.64-2.94-1.76-4.41-4.91-4.41-9.45,0-4.96,1.68-10,5.04-15.12,1.93-3.02,4.2-5.67,6.8-7.94,4.12-3.61,8.02-5.42,11.72-5.42.92,0,1.81.13,2.65.38,2.52.84,3.78,2.44,3.78,4.79,0,1.93-.5,2.9-1.51,2.9-.42-.17-.63-.8-.63-1.89,0-1.51-.84-2.27-2.52-2.27-2.94,0-6.72,2.69-11.34,8.06-4.62,5.38-7.39,10.79-8.32,16.25-.17.93-.25,1.95-.25,3.09s.38,2.44,1.13,3.91,2.16,2.21,4.22,2.21,4.3-.92,6.74-2.77c2.44-1.85,4.62-4.2,6.55-7.06l-.38-.76c-.34-1.34-.17-2.44.5-3.28.67-.84,1.55-1.09,2.65-.76Z"/><path d="m273.74,118.06c1.93,0,2.9,1.03,2.9,3.09s-.97,4.89-2.9,8.51c-1.93,3.61-3.36,6.55-4.28,8.82-1.6,3.86-2.39,6.95-2.39,9.26s.33,3.84,1.01,4.6c1.26,1.34,2.98,1.41,5.17.19,2.18-1.22,5.23-3.57,9.13-7.06,3.91-3.48,7.03-6.91,9.39-10.27.33-.42.73-.52,1.2-.31.46.21.69.42.69.63s-.08.44-.25.69c-1.26,2.27-3.53,5.17-6.8,8.69-3.28,3.53-6.43,6.36-9.45,8.5-3.02,2.14-6.01,3.21-8.95,3.21-2.86-.08-4.87-.74-6.05-1.95-1.18-1.22-1.76-2.75-1.76-4.6s.17-3.63.5-5.35c.33-1.72.96-3.72,1.89-5.99,1.51-3.61,2.83-6.43,3.97-8.44,1.13-2.02,1.7-3.34,1.7-3.97s-.34-.95-1.01-.95c-1.34,0-3.91,1.64-7.69,4.92-2.6,2.44-6.45,7.04-11.53,13.8-5.08,6.76-7.96,10.35-8.63,10.77-3.02,1.51-4.91,2.27-5.67,2.27s-1.13-.13-1.13-.38.08-.61.25-1.07c.17-.46.99-2.75,2.46-6.87,1.47-4.11,3.07-8.63,4.79-13.54,1.72-4.91,2.77-7.88,3.15-8.88.38-1.01.63-1.87.76-2.58.13-.71.27-1.32.44-1.83.17-.5.48-1.07.95-1.7.46-.63,1.07-.96,1.83-1.01.76-.04,1.72.04,2.9.25,1.18.21,1.76.74,1.76,1.58,0,.59-.46,1.87-1.39,3.84-.92,1.97-3.57,8.76-7.94,20.35,3.02-3.7,6.84-7.96,11.47-12.79,4.62-4.83,8.52-8.5,11.72-11.02,3.19-2.27,5.8-3.4,7.81-3.4Z"/><path d="m296.42,155.23c-1.34,0-2.79-.4-4.35-1.2-1.56-.8-2.88-1.93-3.97-3.4-1.09-1.47-1.64-3.04-1.64-4.73s.38-3.28,1.13-4.79c1.68-3.53,4.39-6.95,8.13-10.27,3.74-3.32,7.62-6.15,11.65-8.5,4.03-2.35,7.22-3.82,9.58-4.41,2.35-.59,4.64-.88,6.87-.88s4.14.57,5.73,1.7c1.59,1.13,2.39,2.33,2.39,3.59,0,.42-.04.67-.13.76s-.29.04-.63-.13c-1.01-1.59-3.09-2.39-6.24-2.39s-6.72,1.03-10.71,3.09c-3.99,2.06-7.75,4.64-11.28,7.75-2.94,2.77-5.52,5.9-7.75,9.39-2.23,3.49-3.34,6.03-3.34,7.62,0,3.11.88,4.66,2.65,4.66s4.45-1.43,8.06-4.28c5.96-5.04,10.04-8.74,12.22-11.09,7.73-8.32,11.88-12.47,12.47-12.47,1.01,0,2.22.3,3.65.88,1.43.59,1.89,1.3,1.39,2.14-4.28,6.05-6.8,12.14-7.56,18.27-.08.76-.13,1.72-.13,2.9s.33,2.14,1.01,2.9c1.26,1.34,2.98,1.43,5.17.25,2.18-1.18,5.23-3.53,9.13-7.06,3.91-3.53,7.03-6.97,9.39-10.33.33-.42.71-.52,1.13-.31.42.21.63.4.63.57,0,1.26-2,4.01-5.99,8.25-3.99,4.24-7.04,7.12-9.13,8.63-3.95,2.94-7.6,4.41-10.96,4.41s-5.34-1.6-6.43-4.79c-.25-1.01-.38-2.14-.38-3.4,0-3.78.8-7.77,2.39-11.97-.34.17-1.89,1.85-4.66,5.04-2.77,3.19-5.99,6.26-9.64,9.2-3.65,2.94-6.95,4.41-9.89,4.41Z"/><path d="m353.87,137.71c-1.01,2.86-1.56,4.77-1.64,5.73-.08.97-.13,2.27-.13,3.91s.42,3.13,1.26,4.47c1.43,2.27,3.82,2.43,7.18.5,2.52-1.34,5.71-3.8,9.58-7.37,3.86-3.57,6.85-6.82,8.95-9.77.17-.25.42-.38.76-.38.76,0,.96.55.63,1.64-1.26,2.27-3.59,5.17-6.99,8.69-3.4,3.53-6.49,6.32-9.26,8.38-2.77,2.06-5.54,3.09-8.32,3.09-6.38,0-9.58-3.11-9.58-9.32v-.76c.33-5.88,3.32-14.76,8.95-26.65,5.63-11.89,10.71-20.85,15.25-26.9l3.91-4.91c.92-1.09,2.27-2.44,4.03-4.03,3.36-3.19,6.82-4.79,10.39-4.79s5.99,1.09,7.25,3.28c.42.76.63,1.85.63,3.28s-.63,3.45-1.89,6.05c-8.65,15.04-22.3,30.32-40.95,45.86Zm37.55-48.13c1.01-1.85,1.51-3.28,1.51-4.28,0-1.76-.71-2.65-2.14-2.65-1.18,0-2.65.67-4.41,2.02-6.72,5.21-13.23,13.44-19.53,24.7-5.04,9.07-8.74,16.84-11.09,23.31,5.8-3.95,12.29-10.37,19.47-19.28,7.18-8.9,12.58-16.84,16.19-23.81Z"/></g></svg>