<?xml version="1.0" encoding="UTF-8"?><svg id="Layer_2" xmlns="http://www.w3.org/2000/svg" viewBox="0 0 2050 1500"><defs><style>.cls-1{fill:#f26b83;}.cls-2{fill:#fff;}.cls-3{fill:#d9414e;}</style></defs><g id="exported-2"><rect class="cls-3" x="100" width="50" height="1500"/><rect class="cls-1" x="150" width="50" height="1500"/><rect class="cls-3" x="200" width="50" height="1500"/><rect class="cls-2" x="250" width="50" height="1500"/><rect class="cls-3" x="300" width="50" height="1500"/><rect class="cls-1" x="350" width="50" height="1500"/><rect class="cls-3" width="50" height="1500"/><rect class="cls-1" x="50" width="50" height="1500"/><rect class="cls-3" x="700" width="50" height="1500"/><rect class="cls-1" x="750" width="50" height="1500"/><rect class="cls-3" x="800" width="50" height="1500"/><rect class="cls-2" x="850" width="50" height="1500"/><rect class="cls-3" x="900" width="50" height="1500"/><rect class="cls-1" x="950" width="50" height="1500"/><rect class="cls-3" x="400" width="50" height="1500"/><rect class="cls-1" x="450" width="50" height="1500"/><rect class="cls-3" x="500" width="50" height="1500"/><rect class="cls-2" x="550" width="50" height="1500"/><rect class="cls-3" x="600" width="50" height="1500"/><rect class="cls-1" x="650" width="50" height="1500"/><rect class="cls-3" x="1300" width="50" height="1500"/><rect class="cls-1" x="1350" width="50" height="1500"/><rect class="cls-3" x="1400" width="50" height="1500"/><rect class="cls-2" x="1450" width="50" height="1500"/><rect class="cls-3" x="1500" width="50" height="1500"/><rect class="cls-1" x="1550" width="50" height="1500"/><rect class="cls-3" x="1000" width="50" height="1500"/><rect class="cls-1" x="1050" width="50" height="1500"/><rect class="cls-3" x="1100" width="50" height="1500"/><rect class="cls-2" x="1150" width="50" height="1500"/><rect class="cls-3" x="1200" width="50" height="1500"/><rect class="cls-1" x="1250" width="50" height="1500"/><rect class="cls-3" x="1900" width="50" height="1500"/><rect class="cls-1" x="1950" width="50" height="1500"/><rect class="cls-3" x="2000" width="50" height="1500"/><rect class="cls-3" x="1600" width="50" height="1500"/><rect class="cls-1" x="1650" width="50" height="1500"/><rect class="cls-3" x="1700" width="50" height="1500"/><rect class="cls-2" x="1750" width="50" height="1500"/><rect class="cls-3" x="1800" width="50" height="1500"/><rect class="cls-1" x="1850" width="50" height="1500"/></g></svg>