<?xml version="1.0" encoding="UTF-8"?><svg id="Layer_2" xmlns="http://www.w3.org/2000/svg" xmlns:xlink="http://www.w3.org/1999/xlink" viewBox="0 0 837.5 794.67"><defs><style>.cls-1,.cls-2{fill:none;}.cls-3{fill:#f2f2f2;}.cls-4{fill:#fff;}.cls-5{fill:#f2da5e;}.cls-6{fill:#ba0c2f;}.cls-7{fill:#333;}.cls-8{fill:#d9414e;}.cls-9{fill:#4d4d4d;}.cls-10{fill:url(#Grid_.5_inch_Lines);}.cls-2{stroke:#231f20;stroke-width:.3px;}</style><pattern id="Grid_.5_inch_Lines" x="0" y="0" width="72" height="72" patternTransform="translate(-296.92 -102.53)" patternUnits="userSpaceOnUse" viewBox="0 0 72 72"><rect class="cls-1" width="72" height="72"/><line class="cls-2" x1="54" y1="71.75" x2="54" y2="144.25"/><line class="cls-2" x1="18" y1="71.75" x2="18" y2="144.25"/><line class="cls-2" x1="71.75" y1="18" x2="144.25" y2="18"/><line class="cls-2" x1="71.75" y1="54" x2="144.25" y2="54"/><line class="cls-2" x1="-.25" y1="18" x2="72.25" y2="18"/><line class="cls-2" x1="54" y1="-.25" x2="54" y2="72.25"/><line class="cls-2" x1="-.25" y1="54" x2="72.25" y2="54"/><line class="cls-2" x1="18" y1="-.25" x2="18" y2="72.25"/><line class="cls-2" x1="-72.25" y1="18" x2=".25" y2="18"/><line class="cls-2" x1="-72.25" y1="54" x2=".25" y2="54"/><line class="cls-2" x1="54" y1="-72.25" x2="54" y2=".25"/><line class="cls-2" x1="18" y1="-72.25" x2="18" y2=".25"/></pattern></defs><g id="exported-2"><polygon class="cls-7" points="607 472.65 607 515.65 813 515.65 837 488.65 833.29 449.65 633.58 449.65 611.83 449.65 607 472.65"/><polygon class="cls-7" points="438 477.65 606.22 477.65 641.5 440.43 423.08 440.43 438 477.65"/><polyline class="cls-7" points="31.86 105.04 0 136.9 0 477.65 200.75 477.65 233.08 450.54"/><polygon class="cls-7" points="201 475.65 201 519.65 413 519.65 438 487.65 243 440.43 201 475.65"/><polygon class="cls-7" points="432.75 104.04 397.5 132.15 397.5 155.6 463.5 155.6 432.75 104.04"/><rect class="cls-4" x="35" y="107.15" width="200" height="340.5"/><rect class="cls-10" x="35" y="107.15" width="200" height="340.5"/><path class="cls-7" d="m237.5,450.15H32.5V104.65h205v345.5Zm-200-5h195V109.65H37.5v335.5Z"/><path class="cls-5" d="m50.5,435.15h-.5c-1.38,0-2.5-1.12-2.5-2.5v-.5c0-1.38,1.12-2.5,2.5-2.5.82,0,1.54.39,2,1,.61.46,1,1.18,1,2,0,1.38-1.12,2.5-2.5,2.5Z"/><path class="cls-5" d="m50,419.33c-1.38,0-2.5-1.12-2.5-2.5v-1.02c0-1.38,1.12-2.5,2.5-2.5s2.5,1.12,2.5,2.5v1.02c0,1.38-1.12,2.5-2.5,2.5Zm0-16.34c-1.38,0-2.5-1.12-2.5-2.5v-1.02c0-1.38,1.12-2.5,2.5-2.5s2.5,1.12,2.5,2.5v1.02c0,1.38-1.12,2.5-2.5,2.5Zm0-16.34c-1.38,0-2.5-1.12-2.5-2.5v-1.02c0-1.38,1.12-2.5,2.5-2.5s2.5,1.12,2.5,2.5v1.02c0,1.38-1.12,2.5-2.5,2.5Zm0-16.34c-1.38,0-2.5-1.12-2.5-2.5v-1.02c0-1.38,1.12-2.5,2.5-2.5s2.5,1.12,2.5,2.5v1.02c0,1.38-1.12,2.5-2.5,2.5Zm0-16.34c-1.38,0-2.5-1.12-2.5-2.5v-1.02c0-1.38,1.12-2.5,2.5-2.5s2.5,1.12,2.5,2.5v1.02c0,1.38-1.12,2.5-2.5,2.5Zm0-16.34c-1.38,0-2.5-1.12-2.5-2.5v-1.02c0-1.38,1.12-2.5,2.5-2.5s2.5,1.12,2.5,2.5v1.02c0,1.38-1.12,2.5-2.5,2.5Zm0-16.34c-1.38,0-2.5-1.12-2.5-2.5v-1.02c0-1.38,1.12-2.5,2.5-2.5s2.5,1.12,2.5,2.5v1.02c0,1.38-1.12,2.5-2.5,2.5Zm0-16.34c-1.38,0-2.5-1.12-2.5-2.5v-1.02c0-1.38,1.12-2.5,2.5-2.5s2.5,1.12,2.5,2.5v1.02c0,1.38-1.12,2.5-2.5,2.5Zm0-16.34c-1.38,0-2.5-1.12-2.5-2.5v-1.02c0-1.38,1.12-2.5,2.5-2.5s2.5,1.12,2.5,2.5v1.02c0,1.38-1.12,2.5-2.5,2.5Zm0-16.34c-1.38,0-2.5-1.12-2.5-2.5v-1.02c0-1.38,1.12-2.5,2.5-2.5s2.5,1.12,2.5,2.5v1.02c0,1.38-1.12,2.5-2.5,2.5Zm0-16.34c-1.38,0-2.5-1.12-2.5-2.5v-1.02c0-1.38,1.12-2.5,2.5-2.5s2.5,1.12,2.5,2.5v1.02c0,1.38-1.12,2.5-2.5,2.5Zm0-16.34c-1.38,0-2.5-1.12-2.5-2.5v-1.02c0-1.38,1.12-2.5,2.5-2.5s2.5,1.12,2.5,2.5v1.02c0,1.38-1.12,2.5-2.5,2.5Zm0-16.34c-1.38,0-2.5-1.12-2.5-2.5v-1.02c0-1.38,1.12-2.5,2.5-2.5s2.5,1.12,2.5,2.5v1.02c0,1.38-1.12,2.5-2.5,2.5Zm0-16.34c-1.38,0-2.5-1.12-2.5-2.5v-1.02c0-1.38,1.12-2.5,2.5-2.5s2.5,1.12,2.5,2.5v1.02c0,1.38-1.12,2.5-2.5,2.5Zm0-16.34c-1.38,0-2.5-1.12-2.5-2.5v-1.02c0-1.38,1.12-2.5,2.5-2.5s2.5,1.12,2.5,2.5v1.02c0,1.38-1.12,2.5-2.5,2.5Zm0-16.34c-1.38,0-2.5-1.12-2.5-2.5v-1.02c0-1.38,1.12-2.5,2.5-2.5s2.5,1.12,2.5,2.5v1.02c0,1.38-1.12,2.5-2.5,2.5Zm0-16.34c-1.38,0-2.5-1.12-2.5-2.5v-1.02c0-1.38,1.12-2.5,2.5-2.5s2.5,1.12,2.5,2.5v1.02c0,1.38-1.12,2.5-2.5,2.5Zm0-16.34c-1.38,0-2.5-1.12-2.5-2.5v-1.02c0-1.38,1.12-2.5,2.5-2.5s2.5,1.12,2.5,2.5v1.02c0,1.38-1.12,2.5-2.5,2.5Z"/><path class="cls-5" d="m50,125.15c-1.38,0-2.5-1.12-2.5-2.5v-.5c0-1.38,1.12-2.5,2.5-2.5h.5c1.38,0,2.5,1.12,2.5,2.5,0,.82-.39,1.54-1,2-.46.61-1.18,1-2,1Z"/><path class="cls-5" d="m205.01,124.65h-.97c-1.38,0-2.5-1.12-2.5-2.5s1.12-2.5,2.5-2.5h.97c1.38,0,2.5,1.12,2.5,2.5s-1.12,2.5-2.5,2.5Zm-15.45,0h-.97c-1.38,0-2.5-1.12-2.5-2.5s1.12-2.5,2.5-2.5h.97c1.38,0,2.5,1.12,2.5,2.5s-1.12,2.5-2.5,2.5Zm-15.45,0h-.97c-1.38,0-2.5-1.12-2.5-2.5s1.12-2.5,2.5-2.5h.97c1.38,0,2.5,1.12,2.5,2.5s-1.12,2.5-2.5,2.5Zm-15.45,0h-.97c-1.38,0-2.5-1.12-2.5-2.5s1.12-2.5,2.5-2.5h.97c1.38,0,2.5,1.12,2.5,2.5s-1.12,2.5-2.5,2.5Zm-15.45,0h-.97c-1.38,0-2.5-1.12-2.5-2.5s1.12-2.5,2.5-2.5h.97c1.38,0,2.5,1.12,2.5,2.5s-1.12,2.5-2.5,2.5Zm-15.45,0h-.97c-1.38,0-2.5-1.12-2.5-2.5s1.12-2.5,2.5-2.5h.97c1.38,0,2.5,1.12,2.5,2.5s-1.12,2.5-2.5,2.5Zm-15.45,0h-.97c-1.38,0-2.5-1.12-2.5-2.5s1.12-2.5,2.5-2.5h.97c1.38,0,2.5,1.12,2.5,2.5s-1.12,2.5-2.5,2.5Zm-15.45,0h-.97c-1.38,0-2.5-1.12-2.5-2.5s1.12-2.5,2.5-2.5h.97c1.38,0,2.5,1.12,2.5,2.5s-1.12,2.5-2.5,2.5Zm-15.45,0h-.97c-1.38,0-2.5-1.12-2.5-2.5s1.12-2.5,2.5-2.5h.97c1.38,0,2.5,1.12,2.5,2.5s-1.12,2.5-2.5,2.5Zm-15.45,0h-.97c-1.38,0-2.5-1.12-2.5-2.5s1.12-2.5,2.5-2.5h.97c1.38,0,2.5,1.12,2.5,2.5s-1.12,2.5-2.5,2.5Z"/><path class="cls-5" d="m220,125.15c-.82,0-1.54-.39-2-1-.61-.46-1-1.18-1-2,0-1.38,1.12-2.5,2.5-2.5h.5c1.38,0,2.5,1.12,2.5,2.5v.5c0,1.38-1.12,2.5-2.5,2.5Z"/><path class="cls-5" d="m220,419.33c-1.38,0-2.5-1.12-2.5-2.5v-1.02c0-1.38,1.12-2.5,2.5-2.5s2.5,1.12,2.5,2.5v1.02c0,1.38-1.12,2.5-2.5,2.5Zm0-16.34c-1.38,0-2.5-1.12-2.5-2.5v-1.02c0-1.38,1.12-2.5,2.5-2.5s2.5,1.12,2.5,2.5v1.02c0,1.38-1.12,2.5-2.5,2.5Zm0-16.34c-1.38,0-2.5-1.12-2.5-2.5v-1.02c0-1.38,1.12-2.5,2.5-2.5s2.5,1.12,2.5,2.5v1.02c0,1.38-1.12,2.5-2.5,2.5Zm0-16.34c-1.38,0-2.5-1.12-2.5-2.5v-1.02c0-1.38,1.12-2.5,2.5-2.5s2.5,1.12,2.5,2.5v1.02c0,1.38-1.12,2.5-2.5,2.5Zm0-16.34c-1.38,0-2.5-1.12-2.5-2.5v-1.02c0-1.38,1.12-2.5,2.5-2.5s2.5,1.12,2.5,2.5v1.02c0,1.38-1.12,2.5-2.5,2.5Zm0-16.34c-1.38,0-2.5-1.12-2.5-2.5v-1.02c0-1.38,1.12-2.5,2.5-2.5s2.5,1.12,2.5,2.5v1.02c0,1.38-1.12,2.5-2.5,2.5Zm0-16.34c-1.38,0-2.5-1.12-2.5-2.5v-1.02c0-1.38,1.12-2.5,2.5-2.5s2.5,1.12,2.5,2.5v1.02c0,1.38-1.12,2.5-2.5,2.5Zm0-16.34c-1.38,0-2.5-1.12-2.5-2.5v-1.02c0-1.38,1.12-2.5,2.5-2.5s2.5,1.12,2.5,2.5v1.02c0,1.38-1.12,2.5-2.5,2.5Zm0-16.34c-1.38,0-2.5-1.12-2.5-2.5v-1.02c0-1.38,1.12-2.5,2.5-2.5s2.5,1.12,2.5,2.5v1.02c0,1.38-1.12,2.5-2.5,2.5Zm0-16.34c-1.38,0-2.5-1.12-2.5-2.5v-1.02c0-1.38,1.12-2.5,2.5-2.5s2.5,1.12,2.5,2.5v1.02c0,1.38-1.12,2.5-2.5,2.5Zm0-16.34c-1.38,0-2.5-1.12-2.5-2.5v-1.02c0-1.38,1.12-2.5,2.5-2.5s2.5,1.12,2.5,2.5v1.02c0,1.38-1.12,2.5-2.5,2.5Zm0-16.34c-1.38,0-2.5-1.12-2.5-2.5v-1.02c0-1.38,1.12-2.5,2.5-2.5s2.5,1.12,2.5,2.5v1.02c0,1.38-1.12,2.5-2.5,2.5Zm0-16.34c-1.38,0-2.5-1.12-2.5-2.5v-1.02c0-1.38,1.12-2.5,2.5-2.5s2.5,1.12,2.5,2.5v1.02c0,1.38-1.12,2.5-2.5,2.5Zm0-16.34c-1.38,0-2.5-1.12-2.5-2.5v-1.02c0-1.38,1.12-2.5,2.5-2.5s2.5,1.12,2.5,2.5v1.02c0,1.38-1.12,2.5-2.5,2.5Zm0-16.34c-1.38,0-2.5-1.12-2.5-2.5v-1.02c0-1.38,1.12-2.5,2.5-2.5s2.5,1.12,2.5,2.5v1.02c0,1.38-1.12,2.5-2.5,2.5Zm0-16.34c-1.38,0-2.5-1.12-2.5-2.5v-1.02c0-1.38,1.12-2.5,2.5-2.5s2.5,1.12,2.5,2.5v1.02c0,1.38-1.12,2.5-2.5,2.5Zm0-16.34c-1.38,0-2.5-1.12-2.5-2.5v-1.02c0-1.38,1.12-2.5,2.5-2.5s2.5,1.12,2.5,2.5v1.02c0,1.38-1.12,2.5-2.5,2.5Zm0-16.34c-1.38,0-2.5-1.12-2.5-2.5v-1.02c0-1.38,1.12-2.5,2.5-2.5s2.5,1.12,2.5,2.5v1.02c0,1.38-1.12,2.5-2.5,2.5Z"/><path class="cls-5" d="m220,435.15h-.5c-1.38,0-2.5-1.12-2.5-2.5,0-.82.39-1.54,1-2,.46-.61,1.18-1,2-1,1.38,0,2.5,1.12,2.5,2.5v.5c0,1.38-1.12,2.5-2.5,2.5Z"/><path class="cls-5" d="m205.01,435.15h-.97c-1.38,0-2.5-1.12-2.5-2.5s1.12-2.5,2.5-2.5h.97c1.38,0,2.5,1.12,2.5,2.5s-1.12,2.5-2.5,2.5Zm-15.45,0h-.97c-1.38,0-2.5-1.12-2.5-2.5s1.12-2.5,2.5-2.5h.97c1.38,0,2.5,1.12,2.5,2.5s-1.12,2.5-2.5,2.5Zm-15.45,0h-.97c-1.38,0-2.5-1.12-2.5-2.5s1.12-2.5,2.5-2.5h.97c1.38,0,2.5,1.12,2.5,2.5s-1.12,2.5-2.5,2.5Zm-15.45,0h-.97c-1.38,0-2.5-1.12-2.5-2.5s1.12-2.5,2.5-2.5h.97c1.38,0,2.5,1.12,2.5,2.5s-1.12,2.5-2.5,2.5Zm-15.45,0h-.97c-1.38,0-2.5-1.12-2.5-2.5s1.12-2.5,2.5-2.5h.97c1.38,0,2.5,1.12,2.5,2.5s-1.12,2.5-2.5,2.5Zm-15.45,0h-.97c-1.38,0-2.5-1.12-2.5-2.5s1.12-2.5,2.5-2.5h.97c1.38,0,2.5,1.12,2.5,2.5s-1.12,2.5-2.5,2.5Zm-15.45,0h-.97c-1.38,0-2.5-1.12-2.5-2.5s1.12-2.5,2.5-2.5h.97c1.38,0,2.5,1.12,2.5,2.5s-1.12,2.5-2.5,2.5Zm-15.45,0h-.97c-1.38,0-2.5-1.12-2.5-2.5s1.12-2.5,2.5-2.5h.97c1.38,0,2.5,1.12,2.5,2.5s-1.12,2.5-2.5,2.5Zm-15.45,0h-.97c-1.38,0-2.5-1.12-2.5-2.5s1.12-2.5,2.5-2.5h.97c1.38,0,2.5,1.12,2.5,2.5s-1.12,2.5-2.5,2.5Zm-15.45,0h-.97c-1.38,0-2.5-1.12-2.5-2.5s1.12-2.5,2.5-2.5h.97c1.38,0,2.5,1.12,2.5,2.5s-1.12,2.5-2.5,2.5Z"/><rect class="cls-4" x="235" y="145.15" width="200" height="340.5"/><rect class="cls-10" x="235" y="145.15" width="200" height="340.5"/><path class="cls-7" d="m437.5,488.15h-205V142.65h205v345.5Zm-200-5h195V147.65h-195v335.5Z"/><path class="cls-8" d="m250.5,473.15h-.5c-1.38,0-2.5-1.12-2.5-2.5v-.5c0-1.38,1.12-2.5,2.5-2.5.82,0,1.54.39,2,1,.61.46,1,1.18,1,2,0,1.38-1.12,2.5-2.5,2.5Z"/><path class="cls-8" d="m250,457.33c-1.38,0-2.5-1.12-2.5-2.5v-1.02c0-1.38,1.12-2.5,2.5-2.5s2.5,1.12,2.5,2.5v1.02c0,1.38-1.12,2.5-2.5,2.5Zm0-16.34c-1.38,0-2.5-1.12-2.5-2.5v-1.02c0-1.38,1.12-2.5,2.5-2.5s2.5,1.12,2.5,2.5v1.02c0,1.38-1.12,2.5-2.5,2.5Zm0-16.34c-1.38,0-2.5-1.12-2.5-2.5v-1.02c0-1.38,1.12-2.5,2.5-2.5s2.5,1.12,2.5,2.5v1.02c0,1.38-1.12,2.5-2.5,2.5Zm0-16.34c-1.38,0-2.5-1.12-2.5-2.5v-1.02c0-1.38,1.12-2.5,2.5-2.5s2.5,1.12,2.5,2.5v1.02c0,1.38-1.12,2.5-2.5,2.5Zm0-16.34c-1.38,0-2.5-1.12-2.5-2.5v-1.02c0-1.38,1.12-2.5,2.5-2.5s2.5,1.12,2.5,2.5v1.02c0,1.38-1.12,2.5-2.5,2.5Zm0-16.34c-1.38,0-2.5-1.12-2.5-2.5v-1.02c0-1.38,1.12-2.5,2.5-2.5s2.5,1.12,2.5,2.5v1.02c0,1.38-1.12,2.5-2.5,2.5Zm0-16.34c-1.38,0-2.5-1.12-2.5-2.5v-1.02c0-1.38,1.12-2.5,2.5-2.5s2.5,1.12,2.5,2.5v1.02c0,1.38-1.12,2.5-2.5,2.5Zm0-16.34c-1.38,0-2.5-1.12-2.5-2.5v-1.02c0-1.38,1.12-2.5,2.5-2.5s2.5,1.12,2.5,2.5v1.02c0,1.38-1.12,2.5-2.5,2.5Zm0-16.34c-1.38,0-2.5-1.12-2.5-2.5v-1.02c0-1.38,1.12-2.5,2.5-2.5s2.5,1.12,2.5,2.5v1.02c0,1.38-1.12,2.5-2.5,2.5Zm0-16.34c-1.38,0-2.5-1.12-2.5-2.5v-1.02c0-1.38,1.12-2.5,2.5-2.5s2.5,1.12,2.5,2.5v1.02c0,1.38-1.12,2.5-2.5,2.5Zm0-16.34c-1.38,0-2.5-1.12-2.5-2.5v-1.02c0-1.38,1.12-2.5,2.5-2.5s2.5,1.12,2.5,2.5v1.02c0,1.38-1.12,2.5-2.5,2.5Zm0-16.34c-1.38,0-2.5-1.12-2.5-2.5v-1.02c0-1.38,1.12-2.5,2.5-2.5s2.5,1.12,2.5,2.5v1.02c0,1.38-1.12,2.5-2.5,2.5Zm0-16.34c-1.38,0-2.5-1.12-2.5-2.5v-1.02c0-1.38,1.12-2.5,2.5-2.5s2.5,1.12,2.5,2.5v1.02c0,1.38-1.12,2.5-2.5,2.5Zm0-16.34c-1.38,0-2.5-1.12-2.5-2.5v-1.02c0-1.38,1.12-2.5,2.5-2.5s2.5,1.12,2.5,2.5v1.02c0,1.38-1.12,2.5-2.5,2.5Zm0-16.34c-1.38,0-2.5-1.12-2.5-2.5v-1.02c0-1.38,1.12-2.5,2.5-2.5s2.5,1.12,2.5,2.5v1.02c0,1.38-1.12,2.5-2.5,2.5Zm0-16.34c-1.38,0-2.5-1.12-2.5-2.5v-1.02c0-1.38,1.12-2.5,2.5-2.5s2.5,1.12,2.5,2.5v1.02c0,1.38-1.12,2.5-2.5,2.5Zm0-16.34c-1.38,0-2.5-1.12-2.5-2.5v-1.02c0-1.38,1.12-2.5,2.5-2.5s2.5,1.12,2.5,2.5v1.02c0,1.38-1.12,2.5-2.5,2.5Zm0-16.34c-1.38,0-2.5-1.12-2.5-2.5v-1.02c0-1.38,1.12-2.5,2.5-2.5s2.5,1.12,2.5,2.5v1.02c0,1.38-1.12,2.5-2.5,2.5Z"/><path class="cls-8" d="m250,163.15c-1.38,0-2.5-1.12-2.5-2.5v-.5c0-1.38,1.12-2.5,2.5-2.5h.5c1.38,0,2.5,1.12,2.5,2.5,0,.82-.39,1.54-1,2-.46.61-1.18,1-2,1Z"/><path class="cls-8" d="m405.01,162.65h-.97c-1.38,0-2.5-1.12-2.5-2.5s1.12-2.5,2.5-2.5h.97c1.38,0,2.5,1.12,2.5,2.5s-1.12,2.5-2.5,2.5Zm-15.45,0h-.97c-1.38,0-2.5-1.12-2.5-2.5s1.12-2.5,2.5-2.5h.97c1.38,0,2.5,1.12,2.5,2.5s-1.12,2.5-2.5,2.5Zm-15.45,0h-.96c-1.38,0-2.5-1.12-2.5-2.5s1.12-2.5,2.5-2.5h.96c1.38,0,2.5,1.12,2.5,2.5s-1.12,2.5-2.5,2.5Zm-15.45,0h-.97c-1.38,0-2.5-1.12-2.5-2.5s1.12-2.5,2.5-2.5h.97c1.38,0,2.5,1.12,2.5,2.5s-1.12,2.5-2.5,2.5Zm-15.45,0h-.97c-1.38,0-2.5-1.12-2.5-2.5s1.12-2.5,2.5-2.5h.97c1.38,0,2.5,1.12,2.5,2.5s-1.12,2.5-2.5,2.5Zm-15.45,0h-.97c-1.38,0-2.5-1.12-2.5-2.5s1.12-2.5,2.5-2.5h.97c1.38,0,2.5,1.12,2.5,2.5s-1.12,2.5-2.5,2.5Zm-15.45,0h-.97c-1.38,0-2.5-1.12-2.5-2.5s1.12-2.5,2.5-2.5h.97c1.38,0,2.5,1.12,2.5,2.5s-1.12,2.5-2.5,2.5Zm-15.45,0h-.97c-1.38,0-2.5-1.12-2.5-2.5s1.12-2.5,2.5-2.5h.97c1.38,0,2.5,1.12,2.5,2.5s-1.12,2.5-2.5,2.5Zm-15.45,0h-.97c-1.38,0-2.5-1.12-2.5-2.5s1.12-2.5,2.5-2.5h.97c1.38,0,2.5,1.12,2.5,2.5s-1.12,2.5-2.5,2.5Zm-15.45,0h-.97c-1.38,0-2.5-1.12-2.5-2.5s1.12-2.5,2.5-2.5h.97c1.38,0,2.5,1.12,2.5,2.5s-1.12,2.5-2.5,2.5Z"/><path class="cls-8" d="m420,163.15c-.82,0-1.54-.39-2-1-.61-.46-1-1.18-1-2,0-1.38,1.12-2.5,2.5-2.5h.5c1.38,0,2.5,1.12,2.5,2.5v.5c0,1.38-1.12,2.5-2.5,2.5Z"/><path class="cls-8" d="m420,457.33c-1.38,0-2.5-1.12-2.5-2.5v-1.02c0-1.38,1.12-2.5,2.5-2.5s2.5,1.12,2.5,2.5v1.02c0,1.38-1.12,2.5-2.5,2.5Zm0-16.34c-1.38,0-2.5-1.12-2.5-2.5v-1.02c0-1.38,1.12-2.5,2.5-2.5s2.5,1.12,2.5,2.5v1.02c0,1.38-1.12,2.5-2.5,2.5Zm0-16.34c-1.38,0-2.5-1.12-2.5-2.5v-1.02c0-1.38,1.12-2.5,2.5-2.5s2.5,1.12,2.5,2.5v1.02c0,1.38-1.12,2.5-2.5,2.5Zm0-16.34c-1.38,0-2.5-1.12-2.5-2.5v-1.02c0-1.38,1.12-2.5,2.5-2.5s2.5,1.12,2.5,2.5v1.02c0,1.38-1.12,2.5-2.5,2.5Zm0-16.34c-1.38,0-2.5-1.12-2.5-2.5v-1.02c0-1.38,1.12-2.5,2.5-2.5s2.5,1.12,2.5,2.5v1.02c0,1.38-1.12,2.5-2.5,2.5Zm0-16.34c-1.38,0-2.5-1.12-2.5-2.5v-1.02c0-1.38,1.12-2.5,2.5-2.5s2.5,1.12,2.5,2.5v1.02c0,1.38-1.12,2.5-2.5,2.5Zm0-16.34c-1.38,0-2.5-1.12-2.5-2.5v-1.02c0-1.38,1.12-2.5,2.5-2.5s2.5,1.12,2.5,2.5v1.02c0,1.38-1.12,2.5-2.5,2.5Zm0-16.34c-1.38,0-2.5-1.12-2.5-2.5v-1.02c0-1.38,1.12-2.5,2.5-2.5s2.5,1.12,2.5,2.5v1.02c0,1.38-1.12,2.5-2.5,2.5Zm0-16.34c-1.38,0-2.5-1.12-2.5-2.5v-1.02c0-1.38,1.12-2.5,2.5-2.5s2.5,1.12,2.5,2.5v1.02c0,1.38-1.12,2.5-2.5,2.5Zm0-16.34c-1.38,0-2.5-1.12-2.5-2.5v-1.02c0-1.38,1.12-2.5,2.5-2.5s2.5,1.12,2.5,2.5v1.02c0,1.38-1.12,2.5-2.5,2.5Zm0-16.34c-1.38,0-2.5-1.12-2.5-2.5v-1.02c0-1.38,1.12-2.5,2.5-2.5s2.5,1.12,2.5,2.5v1.02c0,1.38-1.12,2.5-2.5,2.5Zm0-16.34c-1.38,0-2.5-1.12-2.5-2.5v-1.02c0-1.38,1.12-2.5,2.5-2.5s2.5,1.12,2.5,2.5v1.02c0,1.38-1.12,2.5-2.5,2.5Zm0-16.34c-1.38,0-2.5-1.12-2.5-2.5v-1.02c0-1.38,1.12-2.5,2.5-2.5s2.5,1.12,2.5,2.5v1.02c0,1.38-1.12,2.5-2.5,2.5Zm0-16.34c-1.38,0-2.5-1.12-2.5-2.5v-1.02c0-1.38,1.12-2.5,2.5-2.5s2.5,1.12,2.5,2.5v1.02c0,1.38-1.12,2.5-2.5,2.5Zm0-16.34c-1.38,0-2.5-1.12-2.5-2.5v-1.02c0-1.38,1.12-2.5,2.5-2.5s2.5,1.12,2.5,2.5v1.02c0,1.38-1.12,2.5-2.5,2.5Zm0-16.34c-1.38,0-2.5-1.12-2.5-2.5v-1.02c0-1.38,1.12-2.5,2.5-2.5s2.5,1.12,2.5,2.5v1.02c0,1.38-1.12,2.5-2.5,2.5Zm0-16.34c-1.38,0-2.5-1.12-2.5-2.5v-1.02c0-1.38,1.12-2.5,2.5-2.5s2.5,1.12,2.5,2.5v1.02c0,1.38-1.12,2.5-2.5,2.5Zm0-16.34c-1.38,0-2.5-1.12-2.5-2.5v-1.02c0-1.38,1.12-2.5,2.5-2.5s2.5,1.12,2.5,2.5v1.02c0,1.38-1.12,2.5-2.5,2.5Z"/><path class="cls-8" d="m420,473.15h-.5c-1.38,0-2.5-1.12-2.5-2.5,0-.82.39-1.54,1-2,.46-.61,1.18-1,2-1,1.38,0,2.5,1.12,2.5,2.5v.5c0,1.38-1.12,2.5-2.5,2.5Z"/><path class="cls-8" d="m405.01,473.15h-.97c-1.38,0-2.5-1.12-2.5-2.5s1.12-2.5,2.5-2.5h.97c1.38,0,2.5,1.12,2.5,2.5s-1.12,2.5-2.5,2.5Zm-15.45,0h-.97c-1.38,0-2.5-1.12-2.5-2.5s1.12-2.5,2.5-2.5h.97c1.38,0,2.5,1.12,2.5,2.5s-1.12,2.5-2.5,2.5Zm-15.45,0h-.97c-1.38,0-2.5-1.12-2.5-2.5s1.12-2.5,2.5-2.5h.97c1.38,0,2.5,1.12,2.5,2.5s-1.12,2.5-2.5,2.5Zm-15.45,0h-.97c-1.38,0-2.5-1.12-2.5-2.5s1.12-2.5,2.5-2.5h.97c1.38,0,2.5,1.12,2.5,2.5s-1.12,2.5-2.5,2.5Zm-15.45,0h-.97c-1.38,0-2.5-1.12-2.5-2.5s1.12-2.5,2.5-2.5h.97c1.38,0,2.5,1.12,2.5,2.5s-1.12,2.5-2.5,2.5Zm-15.45,0h-.97c-1.38,0-2.5-1.12-2.5-2.5s1.12-2.5,2.5-2.5h.97c1.38,0,2.5,1.12,2.5,2.5s-1.12,2.5-2.5,2.5Zm-15.45,0h-.97c-1.38,0-2.5-1.12-2.5-2.5s1.12-2.5,2.5-2.5h.97c1.38,0,2.5,1.12,2.5,2.5s-1.12,2.5-2.5,2.5Zm-15.45,0h-.97c-1.38,0-2.5-1.12-2.5-2.5s1.12-2.5,2.5-2.5h.97c1.38,0,2.5,1.12,2.5,2.5s-1.12,2.5-2.5,2.5Zm-15.45,0h-.97c-1.38,0-2.5-1.12-2.5-2.5s1.12-2.5,2.5-2.5h.97c1.38,0,2.5,1.12,2.5,2.5s-1.12,2.5-2.5,2.5Zm-15.45,0h-.97c-1.38,0-2.5-1.12-2.5-2.5s1.12-2.5,2.5-2.5h.97c1.38,0,2.5,1.12,2.5,2.5s-1.12,2.5-2.5,2.5Z"/><rect class="cls-4" x="435" y="107.15" width="200" height="340.5"/><rect class="cls-10" x="435" y="107.15" width="200" height="340.5"/><path class="cls-7" d="m637.5,450.15h-205V104.65h205v345.5Zm-200-5h195V109.65h-195v335.5Z"/><path class="cls-5" d="m450.5,435.15h-.5c-1.38,0-2.5-1.12-2.5-2.5v-.5c0-1.38,1.12-2.5,2.5-2.5.82,0,1.54.39,2,1,.61.46,1,1.18,1,2,0,1.38-1.12,2.5-2.5,2.5Z"/><path class="cls-5" d="m450,419.33c-1.38,0-2.5-1.12-2.5-2.5v-1.02c0-1.38,1.12-2.5,2.5-2.5s2.5,1.12,2.5,2.5v1.02c0,1.38-1.12,2.5-2.5,2.5Zm0-16.34c-1.38,0-2.5-1.12-2.5-2.5v-1.02c0-1.38,1.12-2.5,2.5-2.5s2.5,1.12,2.5,2.5v1.02c0,1.38-1.12,2.5-2.5,2.5Zm0-16.34c-1.38,0-2.5-1.12-2.5-2.5v-1.02c0-1.38,1.12-2.5,2.5-2.5s2.5,1.12,2.5,2.5v1.02c0,1.38-1.12,2.5-2.5,2.5Zm0-16.34c-1.38,0-2.5-1.12-2.5-2.5v-1.02c0-1.38,1.12-2.5,2.5-2.5s2.5,1.12,2.5,2.5v1.02c0,1.38-1.12,2.5-2.5,2.5Zm0-16.34c-1.38,0-2.5-1.12-2.5-2.5v-1.02c0-1.38,1.12-2.5,2.5-2.5s2.5,1.12,2.5,2.5v1.02c0,1.38-1.12,2.5-2.5,2.5Zm0-16.34c-1.38,0-2.5-1.12-2.5-2.5v-1.02c0-1.38,1.12-2.5,2.5-2.5s2.5,1.12,2.5,2.5v1.02c0,1.38-1.12,2.5-2.5,2.5Zm0-16.34c-1.38,0-2.5-1.12-2.5-2.5v-1.02c0-1.38,1.12-2.5,2.5-2.5s2.5,1.12,2.5,2.5v1.02c0,1.38-1.12,2.5-2.5,2.5Zm0-16.34c-1.38,0-2.5-1.12-2.5-2.5v-1.02c0-1.38,1.12-2.5,2.5-2.5s2.5,1.12,2.5,2.5v1.02c0,1.38-1.12,2.5-2.5,2.5Zm0-16.34c-1.38,0-2.5-1.12-2.5-2.5v-1.02c0-1.38,1.12-2.5,2.5-2.5s2.5,1.12,2.5,2.5v1.02c0,1.38-1.12,2.5-2.5,2.5Zm0-16.34c-1.38,0-2.5-1.12-2.5-2.5v-1.02c0-1.38,1.12-2.5,2.5-2.5s2.5,1.12,2.5,2.5v1.02c0,1.38-1.12,2.5-2.5,2.5Zm0-16.34c-1.38,0-2.5-1.12-2.5-2.5v-1.02c0-1.38,1.12-2.5,2.5-2.5s2.5,1.12,2.5,2.5v1.02c0,1.38-1.12,2.5-2.5,2.5Zm0-16.34c-1.38,0-2.5-1.12-2.5-2.5v-1.02c0-1.38,1.12-2.5,2.5-2.5s2.5,1.12,2.5,2.5v1.02c0,1.38-1.12,2.5-2.5,2.5Zm0-16.34c-1.38,0-2.5-1.12-2.5-2.5v-1.02c0-1.38,1.12-2.5,2.5-2.5s2.5,1.12,2.5,2.5v1.02c0,1.38-1.12,2.5-2.5,2.5Zm0-16.34c-1.38,0-2.5-1.12-2.5-2.5v-1.02c0-1.38,1.12-2.5,2.5-2.5s2.5,1.12,2.5,2.5v1.02c0,1.38-1.12,2.5-2.5,2.5Zm0-16.34c-1.38,0-2.5-1.12-2.5-2.5v-1.02c0-1.38,1.12-2.5,2.5-2.5s2.5,1.12,2.5,2.5v1.02c0,1.38-1.12,2.5-2.5,2.5Zm0-16.34c-1.38,0-2.5-1.12-2.5-2.5v-1.02c0-1.38,1.12-2.5,2.5-2.5s2.5,1.12,2.5,2.5v1.02c0,1.38-1.12,2.5-2.5,2.5Zm0-16.34c-1.38,0-2.5-1.12-2.5-2.5v-1.02c0-1.38,1.12-2.5,2.5-2.5s2.5,1.12,2.5,2.5v1.02c0,1.38-1.12,2.5-2.5,2.5Zm0-16.34c-1.38,0-2.5-1.12-2.5-2.5v-1.02c0-1.38,1.12-2.5,2.5-2.5s2.5,1.12,2.5,2.5v1.02c0,1.38-1.12,2.5-2.5,2.5Z"/><path class="cls-5" d="m450,125.15c-1.38,0-2.5-1.12-2.5-2.5v-.5c0-1.38,1.12-2.5,2.5-2.5h.5c1.38,0,2.5,1.12,2.5,2.5,0,.82-.39,1.54-1,2-.46.61-1.18,1-2,1Z"/><path class="cls-5" d="m605.01,124.65h-.97c-1.38,0-2.5-1.12-2.5-2.5s1.12-2.5,2.5-2.5h.97c1.38,0,2.5,1.12,2.5,2.5s-1.12,2.5-2.5,2.5Zm-15.45,0h-.97c-1.38,0-2.5-1.12-2.5-2.5s1.12-2.5,2.5-2.5h.97c1.38,0,2.5,1.12,2.5,2.5s-1.12,2.5-2.5,2.5Zm-15.45,0h-.97c-1.38,0-2.5-1.12-2.5-2.5s1.12-2.5,2.5-2.5h.97c1.38,0,2.5,1.12,2.5,2.5s-1.12,2.5-2.5,2.5Zm-15.45,0h-.96c-1.38,0-2.5-1.12-2.5-2.5s1.12-2.5,2.5-2.5h.96c1.38,0,2.5,1.12,2.5,2.5s-1.12,2.5-2.5,2.5Zm-15.45,0h-.97c-1.38,0-2.5-1.12-2.5-2.5s1.12-2.5,2.5-2.5h.97c1.38,0,2.5,1.12,2.5,2.5s-1.12,2.5-2.5,2.5Zm-15.45,0h-.97c-1.38,0-2.5-1.12-2.5-2.5s1.12-2.5,2.5-2.5h.97c1.38,0,2.5,1.12,2.5,2.5s-1.12,2.5-2.5,2.5Zm-15.45,0h-.97c-1.38,0-2.5-1.12-2.5-2.5s1.12-2.5,2.5-2.5h.97c1.38,0,2.5,1.12,2.5,2.5s-1.12,2.5-2.5,2.5Zm-15.45,0h-.96c-1.38,0-2.5-1.12-2.5-2.5s1.12-2.5,2.5-2.5h.96c1.38,0,2.5,1.12,2.5,2.5s-1.12,2.5-2.5,2.5Zm-15.45,0h-.97c-1.38,0-2.5-1.12-2.5-2.5s1.12-2.5,2.5-2.5h.97c1.38,0,2.5,1.12,2.5,2.5s-1.12,2.5-2.5,2.5Zm-15.45,0h-.97c-1.38,0-2.5-1.12-2.5-2.5s1.12-2.5,2.5-2.5h.97c1.38,0,2.5,1.12,2.5,2.5s-1.12,2.5-2.5,2.5Z"/><path class="cls-5" d="m620,125.15c-.82,0-1.54-.39-2-1-.61-.46-1-1.18-1-2,0-1.38,1.12-2.5,2.5-2.5h.5c1.38,0,2.5,1.12,2.5,2.5v.5c0,1.38-1.12,2.5-2.5,2.5Z"/><path class="cls-5" d="m620,419.33c-1.38,0-2.5-1.12-2.5-2.5v-1.02c0-1.38,1.12-2.5,2.5-2.5s2.5,1.12,2.5,2.5v1.02c0,1.38-1.12,2.5-2.5,2.5Zm0-16.34c-1.38,0-2.5-1.12-2.5-2.5v-1.02c0-1.38,1.12-2.5,2.5-2.5s2.5,1.12,2.5,2.5v1.02c0,1.38-1.12,2.5-2.5,2.5Zm0-16.34c-1.38,0-2.5-1.12-2.5-2.5v-1.02c0-1.38,1.12-2.5,2.5-2.5s2.5,1.12,2.5,2.5v1.02c0,1.38-1.12,2.5-2.5,2.5Zm0-16.34c-1.38,0-2.5-1.12-2.5-2.5v-1.02c0-1.38,1.12-2.5,2.5-2.5s2.5,1.12,2.5,2.5v1.02c0,1.38-1.12,2.5-2.5,2.5Zm0-16.34c-1.38,0-2.5-1.12-2.5-2.5v-1.02c0-1.38,1.12-2.5,2.5-2.5s2.5,1.12,2.5,2.5v1.02c0,1.38-1.12,2.5-2.5,2.5Zm0-16.34c-1.38,0-2.5-1.12-2.5-2.5v-1.02c0-1.38,1.12-2.5,2.5-2.5s2.5,1.12,2.5,2.5v1.02c0,1.38-1.12,2.5-2.5,2.5Zm0-16.34c-1.38,0-2.5-1.12-2.5-2.5v-1.02c0-1.38,1.12-2.5,2.5-2.5s2.5,1.12,2.5,2.5v1.02c0,1.38-1.12,2.5-2.5,2.5Zm0-16.34c-1.38,0-2.5-1.12-2.5-2.5v-1.02c0-1.38,1.12-2.5,2.5-2.5s2.5,1.12,2.5,2.5v1.02c0,1.38-1.12,2.5-2.5,2.5Zm0-16.34c-1.38,0-2.5-1.12-2.5-2.5v-1.02c0-1.38,1.12-2.5,2.5-2.5s2.5,1.12,2.5,2.5v1.02c0,1.38-1.12,2.5-2.5,2.5Zm0-16.34c-1.38,0-2.5-1.12-2.5-2.5v-1.02c0-1.38,1.12-2.5,2.5-2.5s2.5,1.12,2.5,2.5v1.02c0,1.38-1.12,2.5-2.5,2.5Zm0-16.34c-1.38,0-2.5-1.12-2.5-2.5v-1.02c0-1.38,1.12-2.5,2.5-2.5s2.5,1.12,2.5,2.5v1.02c0,1.38-1.12,2.5-2.5,2.5Zm0-16.34c-1.38,0-2.5-1.12-2.5-2.5v-1.02c0-1.38,1.12-2.5,2.5-2.5s2.5,1.12,2.5,2.5v1.02c0,1.38-1.12,2.5-2.5,2.5Zm0-16.34c-1.38,0-2.5-1.12-2.5-2.5v-1.02c0-1.38,1.12-2.5,2.5-2.5s2.5,1.12,2.5,2.5v1.02c0,1.38-1.12,2.5-2.5,2.5Zm0-16.34c-1.38,0-2.5-1.12-2.5-2.5v-1.02c0-1.38,1.12-2.5,2.5-2.5s2.5,1.12,2.5,2.5v1.02c0,1.38-1.12,2.5-2.5,2.5Zm0-16.34c-1.38,0-2.5-1.12-2.5-2.5v-1.02c0-1.38,1.12-2.5,2.5-2.5s2.5,1.12,2.5,2.5v1.02c0,1.38-1.12,2.5-2.5,2.5Zm0-16.34c-1.38,0-2.5-1.12-2.5-2.5v-1.02c0-1.38,1.12-2.5,2.5-2.5s2.5,1.12,2.5,2.5v1.02c0,1.38-1.12,2.5-2.5,2.5Zm0-16.34c-1.38,0-2.5-1.12-2.5-2.5v-1.02c0-1.38,1.12-2.5,2.5-2.5s2.5,1.12,2.5,2.5v1.02c0,1.38-1.12,2.5-2.5,2.5Zm0-16.34c-1.38,0-2.5-1.12-2.5-2.5v-1.02c0-1.38,1.12-2.5,2.5-2.5s2.5,1.12,2.5,2.5v1.02c0,1.38-1.12,2.5-2.5,2.5Z"/><path class="cls-5" d="m620,435.15h-.5c-1.38,0-2.5-1.12-2.5-2.5,0-.82.39-1.54,1-2,.46-.61,1.18-1,2-1,1.38,0,2.5,1.12,2.5,2.5v.5c0,1.38-1.12,2.5-2.5,2.5Z"/><path class="cls-5" d="m605.01,435.15h-.97c-1.38,0-2.5-1.12-2.5-2.5s1.12-2.5,2.5-2.5h.97c1.38,0,2.5,1.12,2.5,2.5s-1.12,2.5-2.5,2.5Zm-15.45,0h-.97c-1.38,0-2.5-1.12-2.5-2.5s1.12-2.5,2.5-2.5h.97c1.38,0,2.5,1.12,2.5,2.5s-1.12,2.5-2.5,2.5Zm-15.45,0h-.96c-1.38,0-2.5-1.12-2.5-2.5s1.12-2.5,2.5-2.5h.96c1.38,0,2.5,1.12,2.5,2.5s-1.12,2.5-2.5,2.5Zm-15.45,0h-.97c-1.38,0-2.5-1.12-2.5-2.5s1.12-2.5,2.5-2.5h.97c1.38,0,2.5,1.12,2.5,2.5s-1.12,2.5-2.5,2.5Zm-15.45,0h-.97c-1.38,0-2.5-1.12-2.5-2.5s1.12-2.5,2.5-2.5h.97c1.38,0,2.5,1.12,2.5,2.5s-1.12,2.5-2.5,2.5Zm-15.45,0h-.97c-1.38,0-2.5-1.12-2.5-2.5s1.12-2.5,2.5-2.5h.97c1.38,0,2.5,1.12,2.5,2.5s-1.12,2.5-2.5,2.5Zm-15.45,0h-.96c-1.38,0-2.5-1.12-2.5-2.5s1.12-2.5,2.5-2.5h.96c1.38,0,2.5,1.12,2.5,2.5s-1.12,2.5-2.5,2.5Zm-15.45,0h-.97c-1.38,0-2.5-1.12-2.5-2.5s1.12-2.5,2.5-2.5h.97c1.38,0,2.5,1.12,2.5,2.5s-1.12,2.5-2.5,2.5Zm-15.45,0h-.97c-1.38,0-2.5-1.12-2.5-2.5s1.12-2.5,2.5-2.5h.97c1.38,0,2.5,1.12,2.5,2.5s-1.12,2.5-2.5,2.5Zm-15.45,0h-.97c-1.38,0-2.5-1.12-2.5-2.5s1.12-2.5,2.5-2.5h.97c1.38,0,2.5,1.12,2.5,2.5s-1.12,2.5-2.5,2.5Z"/><rect class="cls-4" x="635" y="145.15" width="200" height="340.5"/><rect class="cls-10" x="635" y="145.15" width="200" height="340.5"/><path d="m837.5,488.15h-205V142.65h205v345.5Zm-200-5h195V147.65h-195v335.5Z"/><path class="cls-8" d="m650.5,473.15h-3v-3c0-1.38,1.12-2.5,2.5-2.5.82,0,1.54.39,2,1,.61.46,1,1.18,1,2,0,1.38-1.12,2.5-2.5,2.5Z"/><path class="cls-8" d="m650,457.33c-1.38,0-2.5-1.12-2.5-2.5v-1.02c0-1.38,1.12-2.5,2.5-2.5s2.5,1.12,2.5,2.5v1.02c0,1.38-1.12,2.5-2.5,2.5Zm0-16.34c-1.38,0-2.5-1.12-2.5-2.5v-1.02c0-1.38,1.12-2.5,2.5-2.5s2.5,1.12,2.5,2.5v1.02c0,1.38-1.12,2.5-2.5,2.5Zm0-16.34c-1.38,0-2.5-1.12-2.5-2.5v-1.02c0-1.38,1.12-2.5,2.5-2.5s2.5,1.12,2.5,2.5v1.02c0,1.38-1.12,2.5-2.5,2.5Zm0-16.34c-1.38,0-2.5-1.12-2.5-2.5v-1.02c0-1.38,1.12-2.5,2.5-2.5s2.5,1.12,2.5,2.5v1.02c0,1.38-1.12,2.5-2.5,2.5Zm0-16.34c-1.38,0-2.5-1.12-2.5-2.5v-1.02c0-1.38,1.12-2.5,2.5-2.5s2.5,1.12,2.5,2.5v1.02c0,1.38-1.12,2.5-2.5,2.5Zm0-16.34c-1.38,0-2.5-1.12-2.5-2.5v-1.02c0-1.38,1.12-2.5,2.5-2.5s2.5,1.12,2.5,2.5v1.02c0,1.38-1.12,2.5-2.5,2.5Zm0-16.34c-1.38,0-2.5-1.12-2.5-2.5v-1.02c0-1.38,1.12-2.5,2.5-2.5s2.5,1.12,2.5,2.5v1.02c0,1.38-1.12,2.5-2.5,2.5Zm0-16.34c-1.38,0-2.5-1.12-2.5-2.5v-1.02c0-1.38,1.12-2.5,2.5-2.5s2.5,1.12,2.5,2.5v1.02c0,1.38-1.12,2.5-2.5,2.5Zm0-16.34c-1.38,0-2.5-1.12-2.5-2.5v-1.02c0-1.38,1.12-2.5,2.5-2.5s2.5,1.12,2.5,2.5v1.02c0,1.38-1.12,2.5-2.5,2.5Zm0-16.34c-1.38,0-2.5-1.12-2.5-2.5v-1.02c0-1.38,1.12-2.5,2.5-2.5s2.5,1.12,2.5,2.5v1.02c0,1.38-1.12,2.5-2.5,2.5Zm0-16.34c-1.38,0-2.5-1.12-2.5-2.5v-1.02c0-1.38,1.12-2.5,2.5-2.5s2.5,1.12,2.5,2.5v1.02c0,1.38-1.12,2.5-2.5,2.5Zm0-16.34c-1.38,0-2.5-1.12-2.5-2.5v-1.02c0-1.38,1.12-2.5,2.5-2.5s2.5,1.12,2.5,2.5v1.02c0,1.38-1.12,2.5-2.5,2.5Zm0-16.34c-1.38,0-2.5-1.12-2.5-2.5v-1.02c0-1.38,1.12-2.5,2.5-2.5s2.5,1.12,2.5,2.5v1.02c0,1.38-1.12,2.5-2.5,2.5Zm0-16.34c-1.38,0-2.5-1.12-2.5-2.5v-1.02c0-1.38,1.12-2.5,2.5-2.5s2.5,1.12,2.5,2.5v1.02c0,1.38-1.12,2.5-2.5,2.5Zm0-16.34c-1.38,0-2.5-1.12-2.5-2.5v-1.02c0-1.38,1.12-2.5,2.5-2.5s2.5,1.12,2.5,2.5v1.02c0,1.38-1.12,2.5-2.5,2.5Zm0-16.34c-1.38,0-2.5-1.12-2.5-2.5v-1.02c0-1.38,1.12-2.5,2.5-2.5s2.5,1.12,2.5,2.5v1.02c0,1.38-1.12,2.5-2.5,2.5Zm0-16.34c-1.38,0-2.5-1.12-2.5-2.5v-1.02c0-1.38,1.12-2.5,2.5-2.5s2.5,1.12,2.5,2.5v1.02c0,1.38-1.12,2.5-2.5,2.5Zm0-16.34c-1.38,0-2.5-1.12-2.5-2.5v-1.02c0-1.38,1.12-2.5,2.5-2.5s2.5,1.12,2.5,2.5v1.02c0,1.38-1.12,2.5-2.5,2.5Z"/><path class="cls-8" d="m650,163.15c-1.38,0-2.5-1.12-2.5-2.5v-3h3c1.38,0,2.5,1.12,2.5,2.5,0,.82-.39,1.54-1,2-.46.61-1.18,1-2,1Z"/><path class="cls-8" d="m805.01,162.65h-.97c-1.38,0-2.5-1.12-2.5-2.5s1.12-2.5,2.5-2.5h.97c1.38,0,2.5,1.12,2.5,2.5s-1.12,2.5-2.5,2.5Zm-15.45,0h-.97c-1.38,0-2.5-1.12-2.5-2.5s1.12-2.5,2.5-2.5h.97c1.38,0,2.5,1.12,2.5,2.5s-1.12,2.5-2.5,2.5Zm-15.45,0h-.97c-1.38,0-2.5-1.12-2.5-2.5s1.12-2.5,2.5-2.5h.97c1.38,0,2.5,1.12,2.5,2.5s-1.12,2.5-2.5,2.5Zm-15.45,0h-.96c-1.38,0-2.5-1.12-2.5-2.5s1.12-2.5,2.5-2.5h.96c1.38,0,2.5,1.12,2.5,2.5s-1.12,2.5-2.5,2.5Zm-15.45,0h-.97c-1.38,0-2.5-1.12-2.5-2.5s1.12-2.5,2.5-2.5h.97c1.38,0,2.5,1.12,2.5,2.5s-1.12,2.5-2.5,2.5Zm-15.45,0h-.97c-1.38,0-2.5-1.12-2.5-2.5s1.12-2.5,2.5-2.5h.97c1.38,0,2.5,1.12,2.5,2.5s-1.12,2.5-2.5,2.5Zm-15.45,0h-.97c-1.38,0-2.5-1.12-2.5-2.5s1.12-2.5,2.5-2.5h.97c1.38,0,2.5,1.12,2.5,2.5s-1.12,2.5-2.5,2.5Zm-15.45,0h-.96c-1.38,0-2.5-1.12-2.5-2.5s1.12-2.5,2.5-2.5h.96c1.38,0,2.5,1.12,2.5,2.5s-1.12,2.5-2.5,2.5Zm-15.45,0h-.97c-1.38,0-2.5-1.12-2.5-2.5s1.12-2.5,2.5-2.5h.97c1.38,0,2.5,1.12,2.5,2.5s-1.12,2.5-2.5,2.5Zm-15.45,0h-.97c-1.38,0-2.5-1.12-2.5-2.5s1.12-2.5,2.5-2.5h.97c1.38,0,2.5,1.12,2.5,2.5s-1.12,2.5-2.5,2.5Z"/><path class="cls-8" d="m820,163.15c-.82,0-1.54-.39-2-1-.61-.46-1-1.18-1-2,0-1.38,1.12-2.5,2.5-2.5h3v3c0,1.38-1.12,2.5-2.5,2.5Z"/><path class="cls-8" d="m820,457.33c-1.38,0-2.5-1.12-2.5-2.5v-1.02c0-1.38,1.12-2.5,2.5-2.5s2.5,1.12,2.5,2.5v1.02c0,1.38-1.12,2.5-2.5,2.5Zm0-16.34c-1.38,0-2.5-1.12-2.5-2.5v-1.02c0-1.38,1.12-2.5,2.5-2.5s2.5,1.12,2.5,2.5v1.02c0,1.38-1.12,2.5-2.5,2.5Zm0-16.34c-1.38,0-2.5-1.12-2.5-2.5v-1.02c0-1.38,1.12-2.5,2.5-2.5s2.5,1.12,2.5,2.5v1.02c0,1.38-1.12,2.5-2.5,2.5Zm0-16.34c-1.38,0-2.5-1.12-2.5-2.5v-1.02c0-1.38,1.12-2.5,2.5-2.5s2.5,1.12,2.5,2.5v1.02c0,1.38-1.12,2.5-2.5,2.5Zm0-16.34c-1.38,0-2.5-1.12-2.5-2.5v-1.02c0-1.38,1.12-2.5,2.5-2.5s2.5,1.12,2.5,2.5v1.02c0,1.38-1.12,2.5-2.5,2.5Zm0-16.34c-1.38,0-2.5-1.12-2.5-2.5v-1.02c0-1.38,1.12-2.5,2.5-2.5s2.5,1.12,2.5,2.5v1.02c0,1.38-1.12,2.5-2.5,2.5Zm0-16.34c-1.38,0-2.5-1.12-2.5-2.5v-1.02c0-1.38,1.12-2.5,2.5-2.5s2.5,1.12,2.5,2.5v1.02c0,1.38-1.12,2.5-2.5,2.5Zm0-16.34c-1.38,0-2.5-1.12-2.5-2.5v-1.02c0-1.38,1.12-2.5,2.5-2.5s2.5,1.12,2.5,2.5v1.02c0,1.38-1.12,2.5-2.5,2.5Zm0-16.34c-1.38,0-2.5-1.12-2.5-2.5v-1.02c0-1.38,1.12-2.5,2.5-2.5s2.5,1.12,2.5,2.5v1.02c0,1.38-1.12,2.5-2.5,2.5Zm0-16.34c-1.38,0-2.5-1.12-2.5-2.5v-1.02c0-1.38,1.12-2.5,2.5-2.5s2.5,1.12,2.5,2.5v1.02c0,1.38-1.12,2.5-2.5,2.5Zm0-16.34c-1.38,0-2.5-1.12-2.5-2.5v-1.02c0-1.38,1.12-2.5,2.5-2.5s2.5,1.12,2.5,2.5v1.02c0,1.38-1.12,2.5-2.5,2.5Zm0-16.34c-1.38,0-2.5-1.12-2.5-2.5v-1.02c0-1.38,1.12-2.5,2.5-2.5s2.5,1.12,2.5,2.5v1.02c0,1.38-1.12,2.5-2.5,2.5Zm0-16.34c-1.38,0-2.5-1.12-2.5-2.5v-1.02c0-1.38,1.12-2.5,2.5-2.5s2.5,1.12,2.5,2.5v1.02c0,1.38-1.12,2.5-2.5,2.5Zm0-16.34c-1.38,0-2.5-1.12-2.5-2.5v-1.02c0-1.38,1.12-2.5,2.5-2.5s2.5,1.12,2.5,2.5v1.02c0,1.38-1.12,2.5-2.5,2.5Zm0-16.34c-1.38,0-2.5-1.12-2.5-2.5v-1.02c0-1.38,1.12-2.5,2.5-2.5s2.5,1.12,2.5,2.5v1.02c0,1.38-1.12,2.5-2.5,2.5Zm0-16.34c-1.38,0-2.5-1.12-2.5-2.5v-1.02c0-1.38,1.12-2.5,2.5-2.5s2.5,1.12,2.5,2.5v1.02c0,1.38-1.12,2.5-2.5,2.5Zm0-16.34c-1.38,0-2.5-1.12-2.5-2.5v-1.02c0-1.38,1.12-2.5,2.5-2.5s2.5,1.12,2.5,2.5v1.02c0,1.38-1.12,2.5-2.5,2.5Zm0-16.34c-1.38,0-2.5-1.12-2.5-2.5v-1.02c0-1.38,1.12-2.5,2.5-2.5s2.5,1.12,2.5,2.5v1.02c0,1.38-1.12,2.5-2.5,2.5Z"/><path class="cls-8" d="m822.5,473.15h-3c-1.38,0-2.5-1.12-2.5-2.5,0-.82.39-1.54,1-2,.46-.61,1.18-1,2-1,1.38,0,2.5,1.12,2.5,2.5v3Z"/><path class="cls-8" d="m805.01,473.15h-.97c-1.38,0-2.5-1.12-2.5-2.5s1.12-2.5,2.5-2.5h.97c1.38,0,2.5,1.12,2.5,2.5s-1.12,2.5-2.5,2.5Zm-15.45,0h-.97c-1.38,0-2.5-1.12-2.5-2.5s1.12-2.5,2.5-2.5h.97c1.38,0,2.5,1.12,2.5,2.5s-1.12,2.5-2.5,2.5Zm-15.45,0h-.96c-1.38,0-2.5-1.12-2.5-2.5s1.12-2.5,2.5-2.5h.96c1.38,0,2.5,1.12,2.5,2.5s-1.12,2.5-2.5,2.5Zm-15.45,0h-.97c-1.38,0-2.5-1.12-2.5-2.5s1.12-2.5,2.5-2.5h.97c1.38,0,2.5,1.12,2.5,2.5s-1.12,2.5-2.5,2.5Zm-15.45,0h-.97c-1.38,0-2.5-1.12-2.5-2.5s1.12-2.5,2.5-2.5h.97c1.38,0,2.5,1.12,2.5,2.5s-1.12,2.5-2.5,2.5Zm-15.45,0h-.97c-1.38,0-2.5-1.12-2.5-2.5s1.12-2.5,2.5-2.5h.97c1.38,0,2.5,1.12,2.5,2.5s-1.12,2.5-2.5,2.5Zm-15.45,0h-.96c-1.38,0-2.5-1.12-2.5-2.5s1.12-2.5,2.5-2.5h.96c1.38,0,2.5,1.12,2.5,2.5s-1.12,2.5-2.5,2.5Zm-15.45,0h-.97c-1.38,0-2.5-1.12-2.5-2.5s1.12-2.5,2.5-2.5h.97c1.38,0,2.5,1.12,2.5,2.5s-1.12,2.5-2.5,2.5Zm-15.45,0h-.97c-1.38,0-2.5-1.12-2.5-2.5s1.12-2.5,2.5-2.5h.97c1.38,0,2.5,1.12,2.5,2.5s-1.12,2.5-2.5,2.5Zm-15.45,0h-.97c-1.38,0-2.5-1.12-2.5-2.5s1.12-2.5,2.5-2.5h.97c1.38,0,2.5,1.12,2.5,2.5s-1.12,2.5-2.5,2.5Z"/><path class="cls-7" d="m318.35,407.07v-178h25.5v178h-25.5Z"/><path class="cls-7" d="m480.72,368.49v-178h24.5l32.75,94.25h.5l32.5-94.25h24.75v178h-25.5v-108.25h-.5l-25.25,76.5h-12.75l-25-76.5h-.5v108.25h-25.5Z"/><path class="cls-7" d="m683.76,414.93l39.75-178h21.25l39.75,178h-25.5l-7.5-38.25h-34.75l-7.5,38.25h-25.5Zm63-62.25l-12.5-64.5h-.5l-12.5,64.5h25.5Z"/><path class="cls-7" d="m96.23,368.63v-178h41c30,0,45,17.42,45,52.25,0,10.5-1.62,19.42-4.88,26.75-3.25,7.34-8.96,13.25-17.12,17.75l27.5,81.25h-27l-23.75-76h-15.25v76h-25.5Zm25.5-154v55.5h14.5c4.5,0,8.08-.62,10.75-1.88,2.66-1.25,4.75-3.04,6.25-5.38,1.33-2.33,2.25-5.21,2.75-8.62.5-3.41.75-7.38.75-11.88s-.25-8.46-.75-11.88c-.5-3.41-1.5-6.38-3-8.88-3.17-4.66-9.17-7-18-7h-13.25Z"/><rect x="327" y="505.65" width="49" height="63"/><path d="m327,505.65s24-23,49,0"/><rect x="710" y="505.65" width="49" height="63"/><path d="m710,505.65s24-23,49,0"/><polygon class="cls-7" points="282 542.65 263 561.65 263 679.65 550.63 703.96 789 683.65 808 666.65 779.63 583.65 282 542.65"/><polygon class="cls-8" points="806 664.65 545 679.65 284 664.65 284 545.65 545 531.65 806 545.65 806 664.65"/><path class="cls-7" d="m545,682.16h-.14s-263.36-15.14-263.36-15.14v-123.73l263.5-14.13h.13s263.37,14.13,263.37,14.13v123.73l-263.5,15.14Zm-258.5-19.86l258.5,14.86,258.5-14.86v-114.27l-258.5-13.87-258.5,13.87v114.27Z"/><path class="cls-4" d="m403.34,566.57v68.52h23.52v11.52h-35.76v-80.04h12.24Z"/><path class="cls-4" d="m499.82,627.29h-34.2l-8.76,19.32h-13.2l39.84-84.72,37.92,84.72h-13.2l-8.4-19.32Zm-4.92-11.52l-11.88-27.12-12.36,27.12h24.24Z"/><path class="cls-4" d="m544.7,646.61v-85.44l58.08,60.84v-55.44h12.24v84.96l-58.08-60.84v55.92h-12.24Z"/><path class="cls-4" d="m664.22,566.57c11.16,0,20.88,1.2,29.76,7.8,9.72,7.32,15.36,18.96,15.36,32.28s-5.52,24.84-16.08,32.28c-9.36,6.6-18.12,7.68-29.28,7.68h-16.56v-80.04h16.8Zm-4.56,68.52h5.28c6,0,14.28-.48,21.24-5.64,5.52-4.2,10.92-11.88,10.92-22.8s-5.04-18.84-10.8-23.04c-6.96-5.04-15.48-5.52-21.36-5.52h-5.28v57Z"/><path class="cls-6" d="m549.5,669.66h-.12s-256.38-12.12-256.38-12.12v-82.38c0-1.38,1.12-2.5,2.5-2.5s2.5,1.12,2.5,2.5v77.62l251.5,11.88,242.5-11.88v-94.25l-246.5-12.87-249.87,12.99c-1.39.06-2.55-.99-2.63-2.37s.99-2.55,2.37-2.63l250.13-13.01h.13s251.37,13.13,251.37,13.13v103.75l-247.5,12.12Z"/><path d="m517,694.65s24-23,49,0"/><path d="m83.46,94.9c-8.64,0-16.81-3.54-22.6-9.65-5.9,6.18-13.96,9.65-22.7,9.65-17.35,0-31.47-14.12-31.47-31.47V14.01c0-1.93,1.57-3.5,3.5-3.5h10.51c1.93,0,3.5,1.57,3.5,3.5v49.56c0,7.62,6.27,13.82,13.97,13.82s13.82-6.27,13.82-13.97V14.01c0-1.93,1.57-3.5,3.5-3.5h10.65c1.93,0,3.5,1.57,3.5,3.5v49.56c0,7.62,6.2,13.82,13.82,13.82s13.97-6.27,13.97-13.97V14.01c0-1.93,1.57-3.5,3.5-3.5h10.51c1.93,0,3.5,1.57,3.5,3.5v49.56c0,17.28-14.12,31.33-31.47,31.33Zm-22.58-18.64h.02c1.13,0,2.19.56,2.84,1.49,4.45,6.36,11.82,10.15,19.71,10.15,13.49,0,24.47-10.92,24.47-24.33V17.51h-3.51v45.92c0,11.56-9.41,20.97-20.97,20.97s-20.82-9.34-20.82-20.82V17.51h-3.65v45.92c0,11.56-9.34,20.97-20.82,20.97s-20.97-9.34-20.97-20.82V17.51h-3.51v45.92c0,13.49,10.98,24.47,24.47,24.47,7.97,0,15.22-3.71,19.88-10.19.66-.91,1.72-1.46,2.84-1.46Z"/><path d="m169.79,94.9c-23.38,0-42.41-19.02-42.41-42.41s19.02-42.27,42.41-42.27c17.48,0,33.34,10.89,39.48,27.11.49,1.29.17,2.74-.8,3.71l-36.22,36.22c10.79-1.09,19.81-9.24,21.93-20.19.32-1.65,1.76-2.83,3.44-2.83h10.65c1.01,0,1.97.44,2.63,1.2s.97,1.77.83,2.77c-2.81,20.92-20.84,36.69-41.95,36.69Zm0-77.67c-19.52,0-35.41,15.82-35.41,35.27s15.88,35.41,35.41,35.41c16.25,0,30.33-11.21,34.25-26.65h-3.66c-3.92,13.57-16.35,23.15-30.59,23.15-2.11,0-4.12-.31-6.06-.61-1.3-.2-2.39-1.12-2.8-2.37-.41-1.25-.09-2.63.84-3.57l40.09-40.09c-5.63-12.37-18.25-20.53-32.08-20.53Zm-15.9,62.19c-.68,0-1.37-.2-1.97-.6-8.79-5.97-14.03-15.81-14.03-26.33,0-17.51,14.31-31.76,31.9-31.76,10.46,0,20.3,5.18,26.31,13.86.96,1.39.79,3.27-.4,4.47l-39.33,39.33c-.68.68-1.57,1.02-2.48,1.02Zm15.9-51.69c-13.73,0-24.9,11.11-24.9,24.76,0,7.24,3.2,14.08,8.68,18.79l34.99-34.99c-4.74-5.41-11.56-8.56-18.77-8.56Z"/><path d="m266.49,94.9c-23.31,0-42.27-19.02-42.27-42.41V3.5c0-1.93,1.57-3.5,3.5-3.5h10.51c1.93,0,3.5,1.57,3.5,3.5v48.99c0,13.61,11.12,24.78,24.79,24.9,1.92.02,3.47,1.58,3.47,3.5v10.51c0,1.93-1.57,3.5-3.5,3.5ZM231.23,7v45.49c0,18.34,13.96,33.46,31.77,35.23v-3.55c-15.87-1.87-28.26-15.42-28.26-31.68V7h-3.51Z"/><path d="m319.18,94.9c-23.38,0-42.41-19.02-42.41-42.41s19.02-42.27,42.41-42.27c21.1,0,39.13,15.71,41.95,36.54.13,1-.17,2.01-.83,2.77-.67.76-1.63,1.2-2.64,1.2h-10.65c-1.67,0-3.11-1.19-3.43-2.83-2.29-11.69-12.55-20.18-24.4-20.18-13.73,0-24.9,11.11-24.9,24.76s11.17,24.9,24.9,24.9c11.86,0,22.12-8.54,24.4-20.31.32-1.65,1.76-2.83,3.44-2.83h10.65c1.01,0,1.97.44,2.63,1.2.66.76.97,1.77.83,2.77-2.81,20.92-20.84,36.69-41.95,36.69Zm0-77.67c-19.52,0-35.41,15.82-35.41,35.27s15.88,35.41,35.41,35.41c16.25,0,30.33-11.21,34.25-26.65h-3.66c-3.92,13.57-16.35,23.15-30.59,23.15-17.59,0-31.9-14.31-31.9-31.9s14.31-31.76,31.9-31.76c14.21,0,26.64,9.51,30.58,23h3.66c-3.93-15.37-18-26.51-34.24-26.51Z"/><path d="m416.02,94.9c-23.38,0-42.41-19.02-42.41-42.41s19.02-42.27,42.41-42.27,42.27,18.96,42.27,42.27-18.96,42.41-42.27,42.41Zm0-77.67c-19.52,0-35.41,15.82-35.41,35.27s15.88,35.41,35.41,35.41,35.27-15.88,35.27-35.41-15.82-35.27-35.27-35.27Zm0,67.17c-17.59,0-31.9-14.31-31.9-31.9s14.31-31.76,31.9-31.76,31.76,14.25,31.76,31.76-14.25,31.9-31.76,31.9Zm0-56.66c-13.73,0-24.9,11.11-24.9,24.76s11.17,24.9,24.9,24.9,24.76-11.17,24.76-24.9-11.11-24.76-24.76-24.76Z"/><path d="m575.48,94.19h-10.51c-1.93,0-3.5-1.57-3.5-3.5v-49.42c0-7.62-6.26-13.82-13.97-13.82s-13.97,6.27-13.97,13.97v49.27c0,1.93-1.57,3.5-3.5,3.5h-10.51c-1.93,0-3.5-1.57-3.5-3.5v-49.42c0-7.62-6.26-13.82-13.97-13.82s-13.82,6.27-13.82,13.97v49.27c0,1.93-1.57,3.5-3.5,3.5h-10.51c-1.93,0-3.5-1.57-3.5-3.5v-49.42c0-17.28,14.06-31.33,31.33-31.33,8.75,0,16.82,3.48,22.72,9.67,5.9-6.19,13.97-9.67,22.72-9.67,17.35,0,31.47,14.12,31.47,31.47v49.27c0,1.93-1.57,3.5-3.5,3.5Zm-7.01-7h3.51v-45.77c0-13.49-10.98-24.47-24.47-24.47-7.97,0-15.22,3.71-19.88,10.19-.66.91-1.71,1.46-2.84,1.46s-2.18-.54-2.84-1.46c-4.66-6.48-11.91-10.19-19.88-10.19-13.42,0-24.33,10.92-24.33,24.33v45.92h3.51v-45.77c0-11.56,9.34-20.97,20.82-20.97s20.97,9.34,20.97,20.82v45.92h3.51v-45.77c0-11.56,9.41-20.97,20.97-20.97s20.97,9.34,20.97,20.82v45.92Z"/><path d="m633.84,94.9c-23.38,0-42.41-19.02-42.41-42.41s19.02-42.27,42.41-42.27c17.48,0,33.34,10.89,39.48,27.11.49,1.29.17,2.74-.8,3.71l-36.22,36.22c10.79-1.09,19.81-9.24,21.93-20.19.32-1.65,1.76-2.83,3.44-2.83h10.65c1.01,0,1.97.44,2.63,1.2.66.76.97,1.77.83,2.77-2.81,20.92-20.84,36.69-41.95,36.69Zm0-77.67c-19.52,0-35.41,15.82-35.41,35.27s15.88,35.41,35.41,35.41c16.25,0,30.33-11.21,34.25-26.65h-3.66c-3.92,13.57-16.35,23.15-30.59,23.15-2.11,0-4.12-.31-6.06-.61-1.3-.2-2.39-1.12-2.8-2.37-.41-1.25-.09-2.63.85-3.57l40.09-40.09c-5.63-12.37-18.25-20.53-32.08-20.53Zm-15.9,62.19c-.68,0-1.37-.2-1.97-.6-8.78-5.97-14.03-15.81-14.03-26.33,0-17.51,14.31-31.76,31.9-31.76,10.46,0,20.3,5.18,26.31,13.86.96,1.39.79,3.27-.4,4.47l-39.33,39.33c-.68.68-1.57,1.02-2.48,1.02Zm15.9-51.69c-13.73,0-24.9,11.11-24.9,24.76,0,7.24,3.2,14.08,8.68,18.79l34.99-34.99c-4.74-5.41-11.57-8.56-18.77-8.56Z"/><path class="cls-3" d="m22.69,12.01v49.56c0,9.66,7.81,17.32,17.47,17.32s17.32-7.81,17.32-17.47V12.01h10.65v49.56c0,9.66,7.81,17.32,17.32,17.32s17.47-7.81,17.47-17.47V12.01h10.51v49.56c0,15.48-12.5,27.83-27.97,27.83-9.23,0-17.61-4.54-22.58-11.64-5.11,7.1-13.35,11.64-22.72,11.64-15.48,0-27.97-12.5-27.97-27.97V12.01h10.51Z"/><path class="cls-3" d="m166.26,78.32c1.85.28,3.69.57,5.54.57,13.77,0,25.28-9.94,27.83-23.15h10.65c-2.56,19.03-18.89,33.65-38.48,33.65-21.44,0-38.91-17.47-38.91-38.91s17.47-38.77,38.91-38.77c16.47,0,30.67,10.22,36.21,24.85l-41.75,41.75Zm-10.37-4.4l39.33-39.33c-5.11-7.38-13.77-12.35-23.43-12.35-15.62,0-28.4,12.64-28.4,28.26,0,9.8,4.97,18.32,12.5,23.43Z"/><path class="cls-3" d="m229.73,1.5h10.51v48.99c0,15.62,12.64,28.26,28.26,28.4v10.51c-21.44,0-38.77-17.47-38.77-38.91V1.5Z"/><path class="cls-3" d="m349.01,55.74h10.65c-2.56,19.03-18.89,33.65-38.48,33.65-21.44,0-38.91-17.47-38.91-38.91s17.47-38.77,38.91-38.77c19.6,0,35.93,14.63,38.48,33.51h-10.65c-2.56-13.06-14.06-23-27.83-23-15.62,0-28.4,12.64-28.4,28.26s12.78,28.4,28.4,28.4c13.77,0,25.28-9.94,27.83-23.15Z"/><path class="cls-3" d="m456.78,50.49c0,21.44-17.32,38.91-38.77,38.91s-38.91-17.47-38.91-38.91,17.47-38.77,38.91-38.77,38.77,17.32,38.77,38.77Zm-10.51,0c0-15.62-12.64-28.26-28.26-28.26s-28.4,12.64-28.4,28.26,12.78,28.4,28.4,28.4,28.26-12.78,28.26-28.4Z"/><path class="cls-3" d="m566.97,88.69v-49.42c0-9.66-7.81-17.32-17.47-17.32s-17.47,7.81-17.47,17.47v49.27h-10.51v-49.42c0-9.66-7.81-17.32-17.47-17.32s-17.32,7.81-17.32,17.47v49.27h-10.51v-49.42c0-15.48,12.5-27.83,27.83-27.83,9.37,0,17.61,4.54,22.72,11.64,5.11-7.1,13.35-11.64,22.72-11.64,15.48,0,27.97,12.5,27.97,27.97v49.27h-10.51Z"/><path class="cls-3" d="m630.31,78.32c1.85.28,3.69.57,5.54.57,13.77,0,25.28-9.94,27.83-23.15h10.65c-2.56,19.03-18.89,33.65-38.48,33.65-21.44,0-38.91-17.47-38.91-38.91s17.47-38.77,38.91-38.77c16.47,0,30.67,10.22,36.21,24.85l-41.75,41.75Zm-10.37-4.4l39.33-39.33c-5.11-7.38-13.77-12.35-23.43-12.35-15.62,0-28.4,12.64-28.4,28.26,0,9.8,4.97,18.32,12.5,23.43Z"/><path class="cls-9" d="m742.27,131.64c-21.93,0-39.77-17.71-39.77-39.48v-49.84c0-.55.45-1,1-1h10.51c.55,0,1,.45,1,1v32.65h26.97c.55,0,1,.45,1,1v10.51c0,.55-.45,1-1,1h-26.97v4.25c0,14.97,12.23,27.26,27.27,27.4.55,0,.99.45.99,1v10.51c0,.55-.45,1-1,1Z"/><path class="cls-9" d="m788.28,131.64c-22.01,0-39.91-17.9-39.91-39.91s17.9-39.77,39.91-39.77,39.77,17.84,39.77,39.77-17.84,39.91-39.77,39.91Zm0-67.17c-15.11,0-27.4,12.23-27.4,27.26s12.29,27.4,27.4,27.4,27.26-12.29,27.26-27.4-12.23-27.26-27.26-27.26Z"/><path d="m745.27,131.14c-23.31,0-42.27-18.83-42.27-41.98v-49.84c0-1.93,1.57-3.5,3.5-3.5h10.51c1.93,0,3.5,1.57,3.5,3.5v30.15h24.47c1.93,0,3.5,1.57,3.5,3.5v10.51c0,1.93-1.57,3.5-3.5,3.5h-24.47v1.75c0,13.61,11.12,24.78,24.79,24.9,1.92.02,3.47,1.58,3.47,3.5v10.51c0,1.93-1.57,3.5-3.5,3.5Zm-35.27-88.32v46.34c0,18.12,13.96,33.06,31.77,34.81v-3.56c-15.87-1.87-28.26-15.42-28.26-31.68v-5.25c0-1.93,1.57-3.5,3.5-3.5h24.47v-3.51h-24.47c-1.93,0-3.5-1.57-3.5-3.5v-30.15h-3.51Z"/><path d="m791.28,131.14c-23.38,0-42.41-19.02-42.41-42.41s19.02-42.27,42.41-42.27,42.27,18.96,42.27,42.27-18.96,42.41-42.27,42.41Zm0-77.67c-19.52,0-35.41,15.82-35.41,35.27s15.88,35.41,35.41,35.41,35.27-15.88,35.27-35.41-15.82-35.27-35.27-35.27Zm0,67.17c-17.59,0-31.9-14.31-31.9-31.9s14.31-31.76,31.9-31.76,31.76,14.25,31.76,31.76-14.25,31.9-31.76,31.9Zm0-56.66c-13.73,0-24.9,11.11-24.9,24.76s11.17,24.9,24.9,24.9,24.76-11.17,24.76-24.9-11.11-24.76-24.76-24.76Z"/><path class="cls-3" d="m719.01,37.31v33.65h27.97v10.51h-27.97v5.25c0,15.62,12.64,28.26,28.26,28.4v10.51c-21.44,0-38.77-17.04-38.77-38.48v-49.84h10.51Z"/><path class="cls-3" d="m832.04,86.73c0,21.44-17.32,38.91-38.77,38.91s-38.91-17.47-38.91-38.91,17.47-38.77,38.91-38.77,38.77,17.32,38.77,38.77Zm-10.51,0c0-15.62-12.64-28.26-28.26-28.26s-28.4,12.64-28.4,28.26,12.78,28.4,28.4,28.4,28.26-12.78,28.26-28.4Z"/><rect x="516.85" y="694.67" width="49" height="100"/></g></svg>