<?xml version="1.0" encoding="UTF-8"?><svg id="Layer_2" xmlns="http://www.w3.org/2000/svg" viewBox="0 0 474.34 304.53"><defs><style>.cls-1{fill:#fff;}.cls-2{fill:#f2da5e;}</style></defs><g id="exported"><path d="m46.81,182.28h-19.4c-7.45,0-14.48-3.46-19.02-9.37-4.54-5.91-6.08-13.59-4.17-20.79l20.54-77.37s.02-.07.03-.11C34.52,38.61,65.7,13.44,100.61,13.44h1.13c23.46,0,36.55,10.7,43.4,19.67,11.2,14.67,14.01,36.28,7.73,59.29-4.27,15.59-13.39,29.96-25.69,40.46-14.1,12.05-31.35,18.41-49.88,18.41-2.45,0-4.84-.16-7.15-.47l-.07.24c.86,3.13,1.08,6.44.61,9.73l-.13.88c-1.69,11.82-11.81,20.61-23.76,20.61Z"/><path d="m190.95,161.24c-13.36,0-21.28-6.19-25.31-10.78-5.16,7.1-14,11.04-23.13,9.61-2.2-.34-3.15-.26-3.33-.24-8.21,1.96-16.84-.54-22.74-6.58-5.92-6.06-8.2-14.79-6.01-22.98l24.93-93.06c-1.21-4.25-1.24-8.81,0-13.17l.25-.88c2.94-10.31,12.36-17.41,23.08-17.41,6.27,0,10.25-.06,12.04-.38,8.09-1.44,16.36,1.35,21.91,7.41,5.55,6.06,7.62,14.54,5.48,22.47l-.87,3.21c11.95,2.82,19.25,9.23,23.54,14.83,5.99,7.83,11.89,21.68,6.05,43.23l-5.02,18.75c.84,1.01,1.61,2.09,2.28,3.24,4.31,7.33,4.43,16.39.3,23.83-6.57,11.83-19.08,18.9-33.46,18.9Z"/><path d="m241.73,161.37c-16.11,0-29.75-6.2-38.38-17.45-9.87-12.85-12.35-30.99-6.98-51.06h0c9.08-33.93,34.9-55.85,65.78-55.85,15.98,0,29.54,6.18,38.18,17.41,9.91,12.88,12.47,30.92,7.2,50.79-7.49,27.98-30.72,56.16-65.79,56.16Z"/><path d="m305.36,161.24c-14.91,0-23.03-7.71-26.55-12.3-10.38-13.56-5.79-30.58-4.05-36.99l9.6-35.99c-3.26-5.61-4.13-12.34-2.33-18.65l.25-.88c1.76-6.16,5.84-11.18,11.12-14.22l2-7.46c2.48-9.22,10.18-16.09,19.62-17.51,3.28-.49,5.09-1.2,5.51-1.44,8.41-4.89,18.94-4.2,26.66,1.72,7.72,5.93,11.09,15.93,8.54,25.32l-1.01,3.73c.93.99,1.79,2.07,2.55,3.23,4.44,6.74,5.2,15.25,2.02,22.67l-.38.88c-2.83,6.61-8.41,11.48-15.07,13.51-3.51,13.14-5.93,22.19-7.6,28.43.84,1,1.6,2.08,2.27,3.22,4.31,7.33,4.42,16.39.3,23.83-6.57,11.83-19.08,18.9-33.46,18.9Z"/><path d="m357.65,161.37c-16.11,0-29.75-6.2-38.38-17.45-9.87-12.85-12.35-30.99-6.98-51.06h0c9.08-33.93,34.9-55.85,65.78-55.85,15.98,0,29.54,6.18,38.18,17.41,9.91,12.88,12.47,30.92,7.2,50.79-7.49,27.98-30.72,56.16-65.79,56.16Z"/><path d="m443.2,128.86h-29.99c-7.46,0-14.49-3.47-19.03-9.38s-6.08-13.6-4.16-20.81l2.02-7.56c2.8-10.51,12.32-17.81,23.19-17.81h30.12c7.52,0,14.61,3.53,19.14,9.53,4.54,6,6,13.78,3.95,21.02l-2.14,7.56c-2.93,10.33-12.36,17.46-23.09,17.46Z"/><path d="m51.47,304.53c-13.63,0-24.97-2.89-33.71-8.6-11.29-7.37-17.76-19.23-17.76-32.54,0-8.54,3.03-17.78,8.96-25.55-.26-1.89-.39-3.83-.39-5.82,0-10.07,3.62-20.72,11.22-28.78-.88-6.66-.36-13.59,1.75-20.22,7.49-23.35,29.28-39.01,54.24-39.01,5.57,0,10.47.77,14.75,2.05,9.14-5,19.77-6.7,29.86-2.38.1.04.19.08.29.13,7.4,3.29,12.95,9.22,15.63,16.71,2.72,7.58,2.16,16.15-1.52,23.52-.04.08-.08.17-.13.25-3.24,6.29-8.6,10.95-14.83,13.47-1.15,6.02-3.42,11.92-6.81,17.49-1.51,2.48-3.21,4.83-5.07,7.02,4.62,5.91,9.07,15.44,7.87,29.67-.02.23-.04.45-.07.68-3.63,32.02-28.27,51.91-64.3,51.91Z"/><path d="m131.1,268.24c-14.83,0-28.08-6.2-36.35-17.02-6.34-8.3-12.61-22.93-6.47-45.53.01-.04.02-.08.03-.12l2.82-10.18c2.86-11.29,7.18-20.82,12.87-28.36.11-.15.23-.3.34-.44,11.49-14.51,29.1-22.84,48.3-22.84,13.41,0,25.41,5.23,33.77,14.72,8.2,9.3,12,21.68,10.45,33.97-.02.14-.04.28-.06.42-1.3,8.96-5.25,17.03-11.41,23.54.34.71.64,1.43.91,2.17,2.5,6.91,1.69,14.58-2.19,20.82-11.4,18.33-30.72,28.84-53.02,28.84Z"/><path d="m234.8,268.24c-13.36,0-21.27-6.19-25.31-10.78-5.16,7.1-14,11.04-23.13,9.61-2.2-.34-3.15-.26-3.33-.24-8.19,1.95-16.8-.53-22.7-6.54-5.92-6.03-8.23-14.73-6.08-22.9,2.95-11.24,3.6-13.65,6.33-23.81,1.83-6.82,4.62-17.18,9.68-36.09-1.22-4.26-1.24-8.83,0-13.2l.25-.88c2.95-10.29,12.36-17.38,23.07-17.38,6.27,0,10.24-.06,12.03-.38,3.2-.57,6.42-.48,9.5.21,19.26-5.68,40.89.97,51.34,17.25,4.87,7.58,9.57,20.79,4.24,40.61-2.15,8.04-3.77,14.08-4.98,18.62.82.99,1.57,2.05,2.24,3.18,4.31,7.33,4.42,16.4.29,23.83-6.58,11.83-19.08,18.89-33.45,18.89Z"/><path d="m269.57,268.24c-14.88,0-22.98-7.69-26.49-12.27-10.34-13.5-5.89-29.98-3.99-37.02l11.06-41.44c-1.22-4.26-1.25-8.83,0-13.2l.25-.88c1.49-5.2,4.62-9.59,8.75-12.66-.47-2.16-.72-4.4-.72-6.71,0-16.99,13.82-30.8,30.8-30.8s30.8,13.82,30.8,30.8c0,7.44-2.61,14.28-6.96,19.64.91,3.81.89,7.84-.16,11.75l-12.48,46.82c.84,1.01,1.61,2.09,2.29,3.25,4.31,7.33,4.42,16.39.29,23.83-6.57,11.83-19.08,18.9-33.45,18.9Zm20.16-122.98c5.58,0,11.01,1.95,15.32,5.53.88-2.07,1.37-4.34,1.37-6.73,0-9.34-7.71-16.94-17.2-16.94s-17.2,7.6-17.2,16.94c0,.67.04,1.34.12,1.99.44-.02.88-.04,1.33-.04,6.27,0,10.24-.06,12.03-.38,1.41-.25,2.82-.38,4.23-.38Z"/><path d="m320.73,268.37c-15.43,0-28.72-6.28-37.42-17.68-9.99-13.1-12.85-32.25-7.65-51.22.01-.05.03-.1.04-.15l.16-.56c1.55-5.56,5.18-18.57,13.49-30,.04-.06.08-.11.12-.17,11.74-15.85,29.06-24.58,48.77-24.58,15.83,0,29.1,5.91,37.36,16.64,7.28,9.46,9.65,21.68,6.5,33.54-.02.06-.03.13-.05.19-2.06,7.52-6.71,13.84-12.75,18.27,1.59,2.05,2.85,4.37,3.72,6.88,2.43,7.06,1.45,14.85-2.67,21.07-15.19,22.95-35.37,27.77-49.63,27.77Z"/><path class="cls-1" d="m51.81,177.28h-19.4c-7.45,0-14.48-3.46-19.02-9.37-4.54-5.91-6.08-13.59-4.17-20.79l20.54-77.37s.02-.07.03-.11C39.52,33.61,70.7,8.44,105.61,8.44h1.13c23.46,0,36.55,10.7,43.4,19.67,11.2,14.67,14.01,36.28,7.73,59.29-4.27,15.59-13.39,29.96-25.69,40.46-14.1,12.05-31.35,18.41-49.88,18.41-2.45,0-4.84-.16-7.15-.47l-.07.24c.86,3.13,1.08,6.44.61,9.73l-.13.88c-1.69,11.82-11.81,20.61-23.76,20.61Z"/><path class="cls-1" d="m195.95,156.24c-13.36,0-21.28-6.19-25.31-10.78-5.16,7.1-14,11.03-23.13,9.61-2.2-.34-3.15-.26-3.33-.24-8.21,1.96-16.84-.54-22.74-6.58-5.92-6.06-8.2-14.79-6.01-22.98l24.93-93.06c-1.21-4.25-1.24-8.81,0-13.17l.25-.88c2.94-10.31,12.36-17.41,23.08-17.41,6.27,0,10.25-.06,12.04-.38,8.09-1.44,16.36,1.35,21.91,7.41,5.55,6.06,7.62,14.54,5.48,22.47l-.87,3.21c11.95,2.82,19.25,9.23,23.54,14.83,5.99,7.83,11.89,21.68,6.05,43.23l-5.02,18.75c.84,1.01,1.61,2.09,2.28,3.24,4.31,7.33,4.43,16.39.3,23.83-6.57,11.83-19.08,18.9-33.46,18.9Z"/><path class="cls-1" d="m246.73,156.37c-16.11,0-29.75-6.2-38.38-17.45-9.87-12.85-12.35-30.99-6.98-51.06h0c9.08-33.93,34.9-55.85,65.78-55.85,15.98,0,29.54,6.18,38.18,17.41,9.91,12.88,12.47,30.92,7.2,50.79-7.49,27.98-30.72,56.16-65.79,56.16Z"/><path class="cls-1" d="m310.36,156.24c-14.91,0-23.03-7.71-26.55-12.3-10.38-13.56-5.79-30.58-4.05-36.99l9.6-35.99c-3.26-5.61-4.13-12.34-2.33-18.65l.25-.88c1.76-6.16,5.84-11.18,11.12-14.22l2-7.46c2.48-9.22,10.18-16.09,19.62-17.51,3.28-.49,5.09-1.2,5.51-1.44,8.41-4.89,18.94-4.2,26.66,1.72,7.72,5.93,11.09,15.93,8.54,25.32l-1.01,3.73c.93.99,1.79,2.07,2.55,3.23,4.44,6.74,5.2,15.25,2.02,22.67l-.38.88c-2.83,6.61-8.41,11.48-15.07,13.51-3.51,13.14-5.93,22.19-7.6,28.43.84,1,1.6,2.08,2.27,3.22,4.31,7.33,4.42,16.39.3,23.83-6.57,11.83-19.08,18.9-33.46,18.9Z"/><path class="cls-1" d="m362.65,156.37c-16.11,0-29.75-6.2-38.38-17.45-9.87-12.85-12.35-30.99-6.98-51.06h0c9.08-33.93,34.9-55.85,65.78-55.85,15.98,0,29.54,6.18,38.18,17.41,9.91,12.88,12.47,30.92,7.2,50.79-7.49,27.98-30.72,56.16-65.79,56.16Z"/><path class="cls-1" d="m448.2,123.86h-29.99c-7.46,0-14.49-3.47-19.03-9.38s-6.08-13.6-4.16-20.81l2.02-7.56c2.8-10.51,12.32-17.81,23.19-17.81h30.12c7.52,0,14.61,3.53,19.14,9.53,4.54,6,6,13.78,3.95,21.02l-2.14,7.56c-2.93,10.33-12.36,17.46-23.09,17.46Z"/><path class="cls-1" d="m56.47,299.53c-13.63,0-24.97-2.89-33.71-8.6-11.29-7.37-17.76-19.23-17.76-32.54,0-8.54,3.03-17.78,8.96-25.55-.26-1.89-.39-3.83-.39-5.82,0-10.07,3.62-20.72,11.22-28.78-.88-6.66-.36-13.59,1.75-20.22,7.49-23.35,29.28-39.01,54.24-39.01,5.57,0,10.47.77,14.75,2.05,9.14-5,19.77-6.7,29.86-2.38.1.04.19.08.29.13,7.4,3.29,12.95,9.22,15.63,16.71,2.72,7.58,2.16,16.15-1.52,23.52-.04.08-.08.17-.13.25-3.24,6.29-8.6,10.95-14.83,13.47-1.15,6.02-3.42,11.92-6.81,17.49-1.51,2.48-3.21,4.83-5.07,7.02,4.62,5.91,9.07,15.44,7.87,29.67-.02.23-.04.45-.07.68-3.63,32.02-28.27,51.91-64.3,51.91Z"/><path class="cls-1" d="m136.1,263.24c-14.83,0-28.08-6.2-36.35-17.02-6.34-8.3-12.61-22.93-6.47-45.53.01-.04.02-.08.03-.12l2.82-10.18c2.86-11.29,7.18-20.82,12.87-28.36.11-.15.23-.3.34-.44,11.49-14.51,29.1-22.84,48.3-22.84,13.41,0,25.41,5.23,33.77,14.72,8.2,9.3,12,21.68,10.45,33.97-.02.14-.04.28-.06.42-1.3,8.96-5.25,17.03-11.41,23.54.34.71.64,1.43.91,2.17,2.5,6.91,1.69,14.58-2.19,20.82-11.4,18.33-30.72,28.84-53.02,28.84Z"/><path class="cls-1" d="m239.8,263.24c-13.36,0-21.27-6.19-25.31-10.78-5.16,7.1-14,11.03-23.13,9.61-2.2-.34-3.15-.26-3.33-.24-8.19,1.95-16.8-.53-22.7-6.54-5.92-6.03-8.23-14.73-6.08-22.9,2.95-11.24,3.6-13.65,6.33-23.81,1.83-6.82,4.62-17.18,9.68-36.09-1.22-4.26-1.24-8.83,0-13.2l.25-.88c2.95-10.29,12.36-17.38,23.07-17.38,6.27,0,10.24-.06,12.03-.38,3.2-.57,6.42-.48,9.5.21,19.26-5.68,40.89.97,51.34,17.25,4.87,7.58,9.57,20.79,4.24,40.61-2.15,8.04-3.77,14.08-4.98,18.62.82.99,1.57,2.05,2.24,3.18,4.31,7.33,4.42,16.4.29,23.83-6.58,11.83-19.08,18.89-33.45,18.89Z"/><path class="cls-1" d="m274.57,263.24c-14.88,0-22.98-7.69-26.49-12.27-10.34-13.5-5.89-29.98-3.99-37.02l11.06-41.44c-1.22-4.26-1.25-8.83,0-13.2l.25-.88c1.49-5.2,4.62-9.59,8.75-12.66-.47-2.16-.72-4.4-.72-6.71,0-16.99,13.82-30.8,30.8-30.8s30.8,13.82,30.8,30.8c0,7.44-2.61,14.28-6.96,19.64.91,3.81.89,7.84-.16,11.75l-12.48,46.82c.84,1.01,1.61,2.09,2.29,3.25,4.31,7.33,4.42,16.39.29,23.83-6.57,11.83-19.08,18.9-33.45,18.9Zm20.16-122.98c5.58,0,11.01,1.95,15.32,5.53.88-2.07,1.37-4.34,1.37-6.73,0-9.34-7.71-16.94-17.2-16.94s-17.2,7.6-17.2,16.94c0,.67.04,1.34.12,1.99.44-.02.88-.04,1.33-.04,6.27,0,10.24-.06,12.03-.38,1.41-.25,2.82-.38,4.23-.38Z"/><path class="cls-1" d="m325.73,263.37c-15.43,0-28.72-6.28-37.42-17.68-9.99-13.1-12.85-32.25-7.65-51.22.01-.05.03-.1.04-.15l.16-.56c1.55-5.56,5.18-18.57,13.49-30,.04-.06.08-.11.12-.17,11.74-15.85,29.06-24.58,48.77-24.58,15.83,0,29.1,5.91,37.36,16.64,7.28,9.46,9.65,21.68,6.5,33.54-.02.06-.03.13-.05.19-2.06,7.52-6.71,13.84-12.75,18.27,1.59,2.05,2.85,4.37,3.72,6.88,2.43,7.06,1.45,14.85-2.67,21.07-15.19,22.95-35.37,27.77-49.63,27.77Z"/><path class="cls-2" d="m51.81,164.28h-19.4c-3.42,0-6.64-1.59-8.72-4.29-2.08-2.71-2.79-6.23-1.91-9.53l20.54-77.37c3.86-14.29,12.11-27.27,23.24-36.6,11.57-9.7,25.8-15.05,40.07-15.05h1.13c18.14,0,28,7.92,33.07,14.56,8.72,11.42,10.73,28.91,5.52,47.98-6.5,23.75-29,49.31-63.03,49.31-6.09,0-11.6-1.27-16.29-3.59l-4.6,17.13c1.25,2.13,1.76,4.64,1.41,7.13l-.13.88c-.77,5.42-5.42,9.44-10.89,9.44Zm21.02-59.95c.27,2.39,1.71,5.82,9.62,6.07,12.13-.05,16.47-5.88,23.11-30.88,0-.02.01-.05.02-.07l4.91-18.02c2.63-9.87,1.6-14.73.69-15.92-.49-.64-2.29-1.06-4.57-1.06h-1.13c-11.52,0-19.65,11.32-21.74,19.36l-10.92,40.52Z"/><path class="cls-2" d="m195.95,143.24c-8.85,0-13.71-3.92-16.23-7.2-5.71-7.46-4.13-17.17-1.83-25.69l8.94-33.49c1-3.72,1.22-7.03,1.02-8.91-5.49.59-9.38,5.72-10.26,7.24l-15.75,59.02c-1.45,5.44-6.77,8.9-12.33,8.03-3.49-.54-6.21-.56-8.31-.05-3.77.92-7.75-.23-10.46-3.01s-3.76-6.78-2.75-10.53l26.06-97.27c-1.59-2.61-2.03-5.78-1.18-8.75l.25-.88c1.35-4.72,5.67-7.98,10.58-7.98,8.57,0,11.78-.13,14.32-.58,3.71-.66,7.5.62,10.04,3.4,2.54,2.78,3.49,6.66,2.51,10.3l-4.95,18.33c1.13-.13,2.27-.19,3.4-.19,14.79,0,22.54,6.08,26.45,11.19,4.21,5.5,8.28,15.5,3.83,31.93l-7.27,27.17c2.43.84,4.53,2.53,5.88,4.81,1.98,3.36,2.03,7.51.14,10.92-4.25,7.65-12.5,12.21-22.09,12.21Zm-18.11-69.02s0,0,0,.01c0,0,0,0,0-.01Z"/><path class="cls-2" d="m246.73,143.37c-15.36,0-23.74-6.73-28.07-12.37-7.35-9.58-9.03-23.7-4.73-39.78h0c7.51-28.07,28.4-46.21,53.22-46.21,15.19,0,23.54,6.71,27.87,12.33,7.39,9.61,9.15,23.65,4.94,39.54-3.26,12.19-9.69,23.41-18.1,31.63-9.96,9.72-22.11,14.86-35.12,14.86Zm-1.87-23.05c.38.08,1.02.17,2,.17,4.87,0,9.87-1.84,13.44-15.16l6.43-23.94s0,0,0-.01c2.22-8.22,2.41-11.83,2.27-13.33-.46-.08-1.15-.14-2.11-.14-5.43,0-9.64,1.38-14.46,19.21l-6.42,23.93c-1.5,5.61-1.34,8.29-1.16,9.29Z"/><path class="cls-2" d="m310.36,143.24c-8.85,0-13.71-3.92-16.23-7.2-5.71-7.46-4.13-17.17-1.83-25.69l11.35-42.53c-.88-.63-1.66-1.4-2.33-2.28-2.08-2.76-2.74-6.33-1.79-9.65l.25-.88c1.24-4.35,5.01-7.46,9.43-7.92l3.75-13.96c1.13-4.23,4.67-7.38,8.99-8.03,4.22-.63,7.8-1.71,10.1-3.04,3.86-2.24,8.68-1.93,12.22.79,3.54,2.72,5.08,7.3,3.92,11.61l-3.49,12.86c2.73.63,5.15,2.28,6.72,4.67,2.04,3.09,2.38,6.99.93,10.39l-.38.88c-1.73,4.04-5.71,6.67-10.11,6.67h-3.27c-6.1,22.83-9.47,35.41-11.32,42.33-.31,1.18-.59,2.19-.82,3.06,2.43.84,4.53,2.53,5.87,4.81,1.98,3.36,2.03,7.51.14,10.92-4.25,7.65-12.5,12.21-22.09,12.21Z"/><path class="cls-2" d="m362.65,143.37c-15.36,0-23.74-6.73-28.07-12.37-7.35-9.58-9.03-23.7-4.73-39.78h0c7.51-28.07,28.4-46.21,53.22-46.21,15.19,0,23.54,6.71,27.87,12.33,7.39,9.61,9.15,23.65,4.94,39.54-3.26,12.19-9.69,23.41-18.1,31.63-9.96,9.72-22.11,14.86-35.12,14.86Zm-1.87-23.05c.38.08,1.02.17,2,.17,4.87,0,9.87-1.84,13.44-15.16l6.43-23.94s0,0,0-.01c2.22-8.22,2.41-11.83,2.27-13.33-.46-.08-1.15-.14-2.11-.14-5.43,0-9.64,1.38-14.46,19.21l-6.42,23.93c-1.5,5.61-1.34,8.29-1.16,9.29Z"/><path class="cls-2" d="m448.2,110.86h-29.99c-3.42,0-6.64-1.59-8.72-4.3-2.08-2.71-2.79-6.23-1.91-9.54l2.02-7.56c1.28-4.81,5.64-8.17,10.63-8.17h30.12c3.45,0,6.7,1.62,8.77,4.37,2.08,2.75,2.75,6.31,1.81,9.63l-2.14,7.56c-1.34,4.73-5.66,8-10.58,8Z"/><path class="cls-2" d="m56.47,286.53c-28.36,0-38.47-14.53-38.47-28.14,0-6.24,2.48-12.88,6.81-18.23,1.04-1.28,2.16-2.48,3.36-3.58-1.05-2.87-1.61-6.1-1.61-9.57,0-9.06,4.02-18.38,12.69-23.91-2.28-6.66-2.54-14.2-.33-21.14,5.84-18.21,22.27-29.96,41.86-29.96,6.17,0,11.6,1.21,16.25,3.6,6.91-5.41,15.58-8.26,23.24-4.98.04.02.09.04.13.06,4.12,1.83,7.2,5.1,8.68,9.21,1.53,4.25,1.19,9.11-.91,13.32-.02.04-.04.08-.06.12-2.97,5.77-9.21,9.04-15.48,8.51.34,7.4-1.58,14.85-5.71,21.65-3.57,5.87-8.52,10.77-14.23,14.33,3.49,1.43,6.46,3.47,8.87,6.09,4.96,5.4,7.08,12.77,6.31,21.92,0,.1-.02.21-.03.31-2.87,25.29-22.07,40.38-51.38,40.38Zm-5.17-36.04c-6.19,0-10.45,4.17-10.55,8.05-.02.59.08,1.02.64,1.6,1.65,1.7,6.27,3.51,14.32,3.51,13.59.14,24.44-4.85,26.46-12.02l.23-.8c.03-.1.05-.2.07-.29-.27-.03-.58-.04-.93-.04h-30.24Zm29.12-75.59c-.94.26-4.48,3.32-7.96,15.45l-1,3.52c-.98,3.54-1.16,5.97-1.09,7.37,1.01-.58,3.86-3.24,8.15-15.54l.6-2c1.12-4.68,1.33-7.36,1.31-8.79Z"/><path class="cls-2" d="m136.1,250.24c-10.74,0-20.23-4.34-26.02-11.92-4.56-5.97-9-16.75-4.25-34.23l2.88-10.38c2.43-9.66,6.02-17.68,10.68-23.85.05-.07.1-.14.16-.2,9.01-11.38,22.9-17.91,38.11-17.91,9.63,0,18.16,3.66,24.02,10.31,5.73,6.5,8.39,15.15,7.3,23.74,0,.06-.02.13-.03.19-1.33,9.21-6.48,16.83-14.89,22.05-1.51.94-3.08,1.77-4.7,2.51.7.09,1.4.25,2.09.48l.76.25c3.19,1.06,5.73,3.53,6.87,6.7,1.14,3.17.77,6.68-1,9.54-9.1,14.64-24.01,22.71-41.98,22.71Zm4.4-35.32l-1.85,6.8c-.69,2.51-.9,4.33-.92,5.5,12.13-.28,18.28-7.31,20.89-11.53.47-.76,1.02-1.44,1.63-2.05-6.65,1.57-13.53,1.87-19.75,1.28Zm8.22-30.61l-2,7.59c1.85-.26,3.49-.79,4.81-1.58,2.62-1.56,4.31-4.35,5.18-8.51.59-2.92.32-5.68-.08-7.03-4.89.46-7.24,7.26-7.9,9.53Z"/><path class="cls-2" d="m239.8,250.24c-8.86,0-13.71-3.92-16.23-7.2-5.71-7.46-4.13-17.17-1.82-25.69,1.51-5.59,2.99-11.13,4.46-16.66,1.48-5.55,2.97-11.11,4.48-16.72,1.12-4.17,1.21-7.31,1.01-9.01-5.24.62-9.62,5.67-10.29,7.53l-15.72,58.73c-1.45,5.43-6.76,8.9-12.32,8.02-3.49-.54-6.21-.56-8.31-.05-3.76.91-7.73-.22-10.44-2.99s-3.77-6.75-2.79-10.5c2.94-11.2,3.59-13.61,6.31-23.73,1.97-7.31,5.03-18.7,10.82-40.33-1.59-2.61-2.04-5.79-1.18-8.76l.25-.88c1.35-4.72,5.67-7.97,10.57-7.97,8.57,0,11.78-.13,14.32-.58,2.51-.45,5.06,0,7.24,1.19,14.59-6.07,32.51-1.75,40.37,10.5,4.96,7.71,5.86,18.16,2.63,30.22-3.88,14.51-6.03,22.52-7.21,26.9,0,.02-.01.05-.02.07,2.41.85,4.49,2.53,5.83,4.8,1.98,3.36,2.03,7.51.13,10.92-4.25,7.64-12.51,12.21-22.09,12.21Z"/><path class="cls-2" d="m274.57,250.24c-8.83,0-13.67-3.9-16.17-7.17-6.44-8.41-3.28-20.1-1.76-25.73l12.2-45.71c-1.59-2.61-2.04-5.79-1.19-8.76l.25-.88c1.35-4.72,5.67-7.98,10.58-7.98,2.19,0,4.04,0,5.61-.03-4.66-3.22-7.66-8.66-7.66-14.93,0-9.98,7.82-17.8,17.8-17.8s17.8,7.82,17.8,17.8c0,7.48-4.27,13.76-10.53,16.53.47.37.91.77,1.32,1.22,2.55,2.77,3.5,6.65,2.53,10.28l-14.72,55.19c2.44.84,4.54,2.53,5.88,4.82,1.98,3.36,2.03,7.51.14,10.92-4.25,7.65-12.51,12.21-22.09,12.21Zm19.66-115.12c-2.24,0-4.2,1.84-4.2,3.94,0,2.23,1.96,4.2,4.2,4.2s4.2-1.96,4.2-4.2c0-2.1-1.96-3.94-4.2-3.94Z"/><path class="cls-2" d="m325.73,250.37c-14.46,0-22.71-6.83-27.08-12.56-7.55-9.89-9.58-24.81-5.45-39.9l.18-.65c1.36-4.88,4.55-16.31,11.49-25.84,9.29-12.54,22.9-19.4,38.38-19.4,11.71,0,21.32,4.11,27.06,11.57,4.8,6.23,6.34,14.36,4.24,22.28-2.66,9.73-14.12,18.26-26.35,15.09-9.17-2.38-14.1-11.17-11.72-20.9.02-.09.05-.19.07-.28,0-.03.02-.06.02-.08-1.36,2.17-2.21,4.67-2.73,6.59l-9.32,34.89c-.86,3.27-.51,5.48-.18,6.17.21.07.67.16,1.4.16,10.24,0,16.3-6.14,19.58-11.29,2.71-4.26,7.97-6.13,12.76-4.53l.76.25c3.25,1.08,5.8,3.61,6.92,6.85s.66,6.8-1.22,9.66c-9.63,14.56-22.68,21.94-38.79,21.94Z"/><path class="cls-2" d="m51.81,163.78h-19.4c-3.26,0-6.34-1.51-8.32-4.1-1.99-2.58-2.66-5.94-1.83-9.1l20.54-77.37c3.84-14.19,12.03-27.08,23.07-36.35,11.48-9.63,25.59-14.93,39.75-14.93h1.13c17.94,0,27.67,7.81,32.67,14.36,8.62,11.29,10.6,28.62,5.43,47.54-6.45,23.57-28.78,48.94-62.55,48.94-6.24,0-11.87-1.35-16.61-3.83l-4.81,17.94c1.27,2.07,1.8,4.54,1.45,6.98l-.13.88c-.74,5.17-5.17,9.01-10.39,9.01Zm20.52-59.5c.27,2.49,1.72,6.35,10.12,6.62,12.45-.05,16.88-5.94,23.6-31.26,0-.02.01-.05.02-.07l4.91-18.02c2.67-10.04,1.64-15.01.61-16.35-.6-.79-2.46-1.25-4.97-1.25h-1.13c-11.79,0-20.09,11.54-22.22,19.74l-10.94,40.6Z"/><path class="cls-2" d="m195.95,142.74c-8.65,0-13.38-3.81-15.83-7.01-5.58-7.29-4.01-16.86-1.74-25.26l8.94-33.49c1.11-4.12,1.27-7.74.98-9.58-5.7.35-10.12,5.66-11.16,7.57l-15.77,59.09c-1.38,5.19-6.46,8.49-11.77,7.67-3.55-.55-6.34-.57-8.51-.04-3.6.87-7.4-.22-9.99-2.87-2.59-2.65-3.59-6.47-2.63-10.05l26.11-97.48c-1.61-2.52-2.07-5.63-1.24-8.53l.25-.88c1.29-4.51,5.41-7.62,10.1-7.62,8.6,0,11.84-.13,14.41-.59,3.54-.63,7.16.59,9.59,3.24s3.33,6.36,2.4,9.83l-5.14,19.05c1.36-.19,2.72-.28,4.08-.28,14.58,0,22.22,5.98,26.05,10.99,4.14,5.41,8.14,15.26,3.74,31.49l-7.39,27.63c2.51.75,4.69,2.42,6.05,4.74,1.89,3.21,1.94,7.17.13,10.42-4.16,7.49-12.25,11.95-21.65,11.95Zm2.5-22.31c-.06.1-.12.21-.17.31.06-.11.11-.21.17-.31Zm-21.43-45.23h0Zm.33-1.09s0,0,0,0c0,0,0,0,0,0Z"/><path class="cls-2" d="m246.73,142.87c-15.15,0-23.41-6.62-27.68-12.17-7.25-9.45-8.9-23.42-4.65-39.35,0,0,0,0,0,0,7.45-27.85,28.15-45.84,52.73-45.84,14.99,0,23.21,6.6,27.48,12.14,7.3,9.48,9.02,23.37,4.85,39.1-3.24,12.1-9.62,23.24-17.97,31.4-9.87,9.63-21.89,14.72-34.77,14.72Zm-2.3-22.15c.36.11,1.11.26,2.42.26,5.07,0,10.26-1.88,13.93-15.53l6.43-23.94h0c2.42-8.97,2.45-12.55,2.25-13.9-.48-.11-1.29-.22-2.57-.22-5.65,0-10.03,1.4-14.94,19.58l-6.42,23.93c-1.69,6.31-1.31,9.01-1.1,9.83Z"/><path class="cls-2" d="m310.36,142.74c-8.65,0-13.38-3.81-15.83-7.01-5.58-7.29-4.01-16.86-1.74-25.26l11.44-42.87c-.95-.64-1.8-1.44-2.5-2.38-1.98-2.63-2.62-6.04-1.71-9.21l.25-.88c1.22-4.27,4.97-7.28,9.34-7.59l3.84-14.3c1.08-4.03,4.45-7.04,8.58-7.66,4.28-.64,7.93-1.75,10.27-3.11,3.68-2.14,8.29-1.84,11.67.75,3.38,2.59,4.85,6.97,3.74,11.08l-3.63,13.37c2.81.5,5.33,2.13,6.92,4.56,1.94,2.95,2.28,6.67.89,9.92l-.38.88c-1.66,3.86-5.45,6.36-9.65,6.36h-3.66c-6.16,23.06-9.56,35.75-11.42,42.7-.37,1.39-.68,2.55-.94,3.52,2.5.75,4.68,2.42,6.04,4.74,1.89,3.21,1.94,7.17.13,10.42-4.16,7.49-12.25,11.95-21.65,11.95Z"/><path class="cls-2" d="m362.65,142.87c-15.15,0-23.41-6.62-27.68-12.17-7.25-9.45-8.9-23.42-4.64-39.35h0c7.45-27.85,28.15-45.84,52.73-45.84,14.99,0,23.21,6.6,27.48,12.14,7.3,9.48,9.02,23.37,4.85,39.1-3.24,12.1-9.62,23.24-17.97,31.4-9.87,9.63-21.89,14.72-34.77,14.72Zm-2.3-22.15c.37.11,1.11.26,2.42.26,5.07,0,10.26-1.88,13.93-15.53l6.43-23.94h0c2.42-8.97,2.45-12.55,2.25-13.9-.48-.11-1.29-.22-2.57-.22-5.65,0-10.03,1.4-14.94,19.58l-6.42,23.93c-1.69,6.31-1.31,9.01-1.1,9.83Z"/><path class="cls-2" d="m448.2,110.36h-29.99c-3.26,0-6.34-1.52-8.33-4.1-1.99-2.59-2.66-5.95-1.82-9.1l2.02-7.56c1.23-4.6,5.39-7.79,10.15-7.79h30.12c3.29,0,6.39,1.54,8.38,4.17,1.98,2.62,2.62,6.03,1.73,9.19l-2.14,7.56c-1.28,4.52-5.41,7.64-10.1,7.64Z"/><path class="cls-2" d="m56.47,286.03c-28,0-37.97-14.28-37.97-27.64,0-7.28,3.53-15.6,10.27-21.65-1.11-2.9-1.7-6.18-1.7-9.72,0-6.74,2.22-13.15,6.24-18.03,1.54-1.87,3.66-3.91,6.55-5.68-2.36-6.65-2.67-14.22-.45-21.18,5.77-18,22.01-29.61,41.38-29.61,6.21,0,11.66,1.24,16.3,3.69,6.82-5.44,15.42-8.36,22.99-5.11.04.02.08.04.13.06,3.99,1.78,6.98,4.95,8.41,8.93,1.48,4.13,1.16,8.84-.89,12.93-.02.04-.04.07-.06.11-2.97,5.77-9.29,8.95-15.57,8.19.46,7.5-1.42,15.05-5.6,21.94-3.7,6.09-8.92,11.13-14.92,14.69,3.83,1.42,7.05,3.53,9.62,6.33,4.86,5.29,6.94,12.54,6.18,21.54,0,.1-.02.2-.03.3-2.84,25.01-21.86,39.94-50.88,39.94Zm-5.17-36.04c-6.48,0-10.95,4.42-11.05,8.54-.02.82.2,1.35.78,1.96.83.86,4.36,3.66,14.68,3.66,14.04.07,24.83-4.88,26.94-12.38l.23-.81c.09-.33.14-.61.18-.85-.39-.07-.89-.12-1.52-.12h-30.24Zm-1.16-27.01s0,0,0,0c0,0,0,0,0,0Zm19.77-21.08h.04c.35,0,3.6-.45,9.03-16.04l.61-2.03c1.27-5.29,1.39-8.08,1.3-9.44-.11,0-.23,0-.36,0-1.04,0-4.85,2.91-8.56,15.83l-1,3.52c-1.15,4.18-1.22,6.84-1.06,8.16Z"/><path class="cls-2" d="m136.1,249.74c-10.59,0-19.93-4.27-25.62-11.72-4.49-5.88-8.86-16.51-4.17-33.79l2.88-10.38c2.41-9.6,5.98-17.56,10.59-23.68.05-.07.1-.13.15-.19,8.91-11.26,22.66-17.72,37.72-17.72,9.48,0,17.88,3.6,23.65,10.15,5.55,6.3,8.24,15.03,7.18,23.35,0,.06-.02.12-.03.19-1.31,9.06-6.38,16.56-14.65,21.69-2.16,1.34-4.44,2.46-6.79,3.39,1.41-.13,2.87.02,4.29.49l.76.25c3.05,1.02,5.47,3.37,6.56,6.4,1.09,3.02.74,6.38-.96,9.11-9.01,14.49-23.77,22.47-41.55,22.47Zm4.03-35.35l-1.96,7.2c-.8,2.94-.97,4.96-.94,6.14,12.71-.09,19.12-7.41,21.82-11.78.87-1.41,2.03-2.55,3.37-3.39-7.43,2.11-15.3,2.53-22.28,1.82Zm8.11-30.2l-2.19,8.3c2.22-.23,4.19-.81,5.74-1.74,2.75-1.64,4.52-4.53,5.41-8.84.68-3.33.27-6.39-.22-7.65-5.48.15-8.04,7.51-8.73,9.92Z"/><path class="cls-2" d="m239.8,249.74c-8.65,0-13.38-3.81-15.83-7.01-5.58-7.29-4.01-16.86-1.74-25.26,1.51-5.59,2.99-11.13,4.46-16.67,1.48-5.55,2.97-11.11,4.48-16.72,1.25-4.66,1.24-8.04.95-9.68-5.67.39-10.54,5.99-11.19,7.91l-15.73,58.75c-1.39,5.18-6.46,8.49-11.76,7.66-3.55-.56-6.34-.57-8.51-.04-3.59.87-7.38-.21-9.97-2.85-2.59-2.64-3.6-6.44-2.66-10.02,2.94-11.2,3.59-13.61,6.31-23.73,1.97-7.34,5.05-18.77,10.87-40.54-1.61-2.53-2.07-5.64-1.24-8.54l.25-.88c1.29-4.5,5.41-7.61,10.09-7.61,8.6,0,11.83-.13,14.41-.59,2.48-.45,5,.02,7.12,1.25,14.41-6.13,32.21-1.9,39.98,10.22,4.88,7.59,5.76,17.9,2.56,29.82-3.88,14.51-6.03,22.52-7.21,26.9-.05.18-.1.36-.14.53,2.49.75,4.65,2.42,6.01,4.72,1.89,3.21,1.94,7.17.13,10.43-4.16,7.48-12.25,11.95-21.65,11.95Z"/><path class="cls-2" d="m274.57,249.74c-8.62,0-13.34-3.79-15.77-6.97-6.29-8.21-3.17-19.75-1.67-25.29l12.25-45.92c-1.61-2.52-2.08-5.63-1.25-8.54l.25-.88c1.29-4.51,5.41-7.62,10.1-7.62,3.04,0,5.41-.02,7.31-.06-5.33-2.96-8.87-8.68-8.87-15.4,0-9.7,7.6-17.3,17.3-17.3s17.3,7.6,17.3,17.3c0,7.6-4.53,13.92-11.05,16.42.72.47,1.38,1.03,1.98,1.68,2.43,2.64,3.34,6.34,2.42,9.81l-14.84,55.65c2.51.75,4.69,2.42,6.06,4.74,1.89,3.21,1.94,7.17.13,10.42-4.16,7.48-12.25,11.95-21.65,11.95Zm2.5-22.31c-.06.1-.12.21-.17.31.06-.11.11-.21.17-.31Zm17.15-91.81c-1.93,0-3.7,1.64-3.7,3.44,0,1.97,1.73,3.7,3.7,3.7s3.7-1.73,3.7-3.7c0-1.8-1.76-3.44-3.7-3.44Z"/><path class="cls-2" d="m325.73,249.87c-14.26,0-22.38-6.72-26.69-12.37-7.45-9.77-9.46-24.52-5.36-39.47l.18-.65c1.35-4.85,4.53-16.22,11.41-25.68,9.19-12.4,22.65-19.19,37.98-19.19,11.55,0,21.02,4.04,26.66,11.38,4.7,6.11,6.21,14.07,4.15,21.85-2.6,9.5-13.8,17.83-25.74,14.73-9.04-2.34-13.71-10.69-11.36-20.29.02-.09.05-.18.07-.27.3-1.09.68-2.1,1.12-3.02-2.6,2.54-4.05,6.49-4.79,9.26l-9.32,34.89c-1.03,3.93-.38,6.3-.03,6.71h0s.48.24,1.73.24c10.47,0,16.65-6.26,20-11.52,2.59-4.07,7.61-5.85,12.18-4.32l.76.25c3.1,1.03,5.54,3.45,6.61,6.54s.63,6.5-1.17,9.22c-9.54,14.41-22.44,21.72-38.37,21.72Z"/><path d="m61.01,105.9l-12.47,46.5h3.4l-.13.88h-19.4l20.54-77.37c6.68-24.7,28.23-43.47,52.67-43.47h1.13c29.74,0,34.27,25.58,27.97,48.64-5.8,21.17-25.08,41.2-52.42,41.2-11.84,0-19.78-6.3-21.29-16.38Zm55.19-23.56l4.91-18.02c3.65-13.73,4.41-30.87-14.49-30.87h-1.13c-17.01,0-29.11,14.99-32.38,27.6l-11.34,42.09c.13,9.7,6.43,17.89,20.54,18.27,22.18,0,27.97-16.76,33.9-39.06Z"/><path d="m166.97,25.64h-3.53l.25-.88c8.82,0,12.73-.13,16.25-.76l-11.97,44.35c4.79-7.06,12.73-12.35,21.04-12.35,19.53,0,24.07,12.98,19.66,29.23l-8.69,32.51c-2.39,9.2-3.15,12.22.76,12.22,2.9,0,5.8-2.39,6.8-4.28h.88c-1.89,3.4-6.05,6.55-12.47,6.55-11.21,0-9.95-9.7-7.43-19.03l8.95-33.52c1.76-6.55,4.28-22.81-8.57-22.81s-21.17,12.1-21.8,15l-15.88,59.48c-4.03-.63-8.44-.88-12.6.13l28.35-105.85Z"/><path d="m224.55,94.06c5.29-19.78,20.16-38.05,42.59-38.05s27.22,19.03,22.18,38.05c-5.29,19.78-20.92,38.31-42.59,38.31s-27.47-18.52-22.18-38.31Zm52.8-9.83c4.28-15.88,5.04-27.34-10.46-27.34s-20.79,11.47-25.08,27.34l-6.43,23.94c-2.77,10.33-3.78,23.31,11.47,23.31s21.29-12.98,24.07-23.31l6.43-23.94Z"/><path d="m315.15,129.97c2.9,0,5.8-2.39,6.8-4.28h.88c-1.89,3.4-6.05,6.55-12.47,6.55-11.21,0-9.95-9.7-7.43-19.03l14.49-54.31h-7.31l.25-.88h7.31l5.92-22.05c5.04-.76,10.08-2.14,13.99-4.41l-7.18,26.46h11.84l-.38.88h-11.72c-16.63,62.25-15.75,58.85-15.75,58.85-2.39,9.2-3.15,12.22.76,12.22Z"/><path d="m340.47,94.06c5.29-19.78,20.16-38.05,42.59-38.05s27.22,19.03,22.18,38.05c-5.29,19.78-20.92,38.31-42.59,38.31s-27.47-18.52-22.18-38.31Zm52.8-9.83c4.28-15.88,5.04-27.34-10.46-27.34s-20.79,11.47-25.08,27.34l-6.43,23.94c-2.77,10.33-3.78,23.31,11.47,23.31s21.29-12.98,24.07-23.31l6.43-23.94Z"/><path d="m418.21,99.86l2.02-7.56h30.12l-2.14,7.56h-29.99Z"/><path d="m57.48,209.75c-10.58.13-16.51,5.42-17.64,11.21-.63,3.15,2.65,5.29,8.57,5.29h29.61c18.4,0,19.53,11.21,18.9,18.65-2.77,24.45-23.44,30.62-40.45,30.62-18.27,0-27.47-6.8-27.47-17.14,0-7.18,5.92-16.63,17.14-19.03-6.55-1.13-8.57-7.18-8.57-12.35,0-7.18,3.91-17.14,19.03-17.89-6.93-4.66-9.95-15.12-7.18-23.82,4.28-13.36,16.51-22.3,31.38-22.3,6.3,0,12.6,1.51,17.26,7.43,4.16-6.17,12.6-11.97,17.89-9.7,3.4,1.51,3.65,5.04,2.39,7.56-2.14,4.16-9.32,3.28-8.32-2.27.25-1.39.76-2.52.13-2.9-2.27-1.26-8.69,3.02-11.59,7.94,10.71,20.67-8.06,42.21-27.6,42.21-8.32,0-10.96-2.02-13.48-3.53Zm35.53,43.98c2.77-10.46-4.03-14.24-11.47-14.24h-30.24c-12.1,0-21.29,8.82-21.55,18.78-.25,8.69,7.56,16.38,25.96,16.38,18.02.13,33.39-7.06,37.05-20.04l.25-.88Zm-3.28-67.16c3.15-12.98,2.77-22.68-9.2-22.68-8.57,0-14.49,8.95-18.65,23.44l-1.01,3.53c-3.02,10.96-2.27,21.55,9.07,21.55,9.32,0,14.62-10.58,19.03-23.31l.76-2.52Z"/><path d="m132.57,202.19l-4.54,16.63c-2.65,9.7-2.02,19.41,8.95,19.41,15.62,0,25.71-8.19,31-16.76l.76.25c-5.8,9.32-16.13,17.51-32.64,17.51-13.23,0-25.96-9.07-19.66-32.26l2.9-10.46c.88-3.53,3.4-12.85,8.82-20.04,7.18-9.07,18.27-13.74,29.49-13.74,14.74,0,21.67,11.72,20.41,21.67-2.77,19.15-30.49,22.68-45.49,17.77Zm24.57-38.43c-11.72,0-17.14,10.96-19.03,17.64l-5.29,20.04c13.1,3.91,30.62,2.02,34.65-17.39,1.51-7.43.63-20.29-10.33-20.29Z"/><path d="m195.07,238.36c-4.03-.63-8.44-.88-12.6.13,5.29-20.16,3.02-11.34,19.4-72.58h-3.53l.25-.88c8.82,0,12.73-.13,16.25-.76l-2.9,10.96c2.52-3.78,5.8-6.8,9.45-8.95,10.08-6.05,24.45-3.65,29.86,4.79,3.4,5.29,3.53,12.98,1.26,21.42-11.21,41.96-7.94,29.49-8.69,32.26-2.39,9.2-3.15,12.22.76,12.22,2.9,0,5.8-2.39,6.8-4.28h.88c-1.89,3.4-6.05,6.55-12.47,6.55-11.21,0-9.96-9.7-7.43-19.03,3.02-11.21,5.92-22.18,8.95-33.39,2.65-9.83,2.77-22.93-8.57-22.93s-20.29,9.7-21.92,15.62l-15.75,58.85Z"/><path d="m278.23,165.9l.25-.88c8.82,0,12.73-.13,16.25-.76l-16.13,60.48c-2.39,9.2-3.15,12.22.76,12.22,2.9,0,5.8-2.39,6.8-4.28h.88c-1.89,3.4-6.05,6.55-12.47,6.55-11.21,0-9.83-9.7-7.31-19.03l14.49-54.31h-3.53Zm9.2-26.84c0-3.78,2.9-6.8,6.8-6.8s6.8,3.02,6.8,6.8-2.9,7.06-6.8,7.06-6.8-3.15-6.8-7.06Z"/><path d="m355.34,222.36c-5.67,8.57-14.36,17.01-29.61,17.01-21.29,0-26.97-20.16-21.92-38.56,1.13-4.03,3.91-14.62,9.95-22.93,7.56-10.21,18.02-14.87,29.49-14.87,15.88,0,23.44,9.58,20.67,20.04-2.52,9.2-19.53,10.96-16.76-.38,1.51-5.54,8.44-5.8,9.7-8.69,3.02-6.93-6.43-10.08-12.85-10.08-14.36,0-19.4,14.37-20.79,19.53l-9.32,34.9c-2.65,10.08.25,20.16,11.84,20.16,14.24,0,23.56-8.06,28.86-16.38l.76.25Z"/></g></svg>