<?xml version="1.0" encoding="UTF-8"?><svg id="Layer_2" xmlns="http://www.w3.org/2000/svg" viewBox="0 0 627.89 139.36"><defs><style>.cls-1{fill:#d9414e;}</style></defs><g id="exported"><path d="m101.53,139.36c-.15,0-.3,0-.45,0l-30.99-1.15c-4.05-.15-7.76-2.34-9.85-5.82l-9.31-15.51-.26,7.74c-.22,6.47-5.52,11.59-11.99,11.59H12c-3.26,0-6.37-1.32-8.63-3.66C1.11,130.2-.11,127.04,0,123.78L3.59,20.91c.23-6.62,5.77-11.82,12.39-11.58l43.04,1.43c14.53.51,26.89,5.5,35.74,14.43,8.12,8.19,12.59,18.99,12.59,30.42,0,13.3-6,25.73-15.99,34.28l20.2,30.9c2.46,3.75,2.61,8.57.4,12.47-2.13,3.78-6.13,6.1-10.45,6.1Zm-24.05-24.9l1.31.05-14.13-21.62c-1.93-2.96-2.47-6.62-1.45-10,.25-.85.6-1.66,1.02-2.42-2,.81-4.16,1.38-6.43,1.68.57.61,1.08,1.28,1.52,2.01l18.18,30.29Zm-53.06-2.26h2.66l.75-22.27c.14-4.25,2.48-7.92,5.91-9.94-.71-.49-1.36-1.05-1.96-1.68-2.19-2.33-3.35-5.44-3.23-8.64l1-27.55c.12-3.23,1.5-6.12,3.67-8.2l-6.07-.2-2.74,78.48Zm47.76-74.12c4.6,4.56,7.34,10.99,7.34,18.4,0,6.34-1.91,11.94-5.22,16.3,4.79-3.51,9.06-9.32,9.06-17.16,0-6.71-3.54-13.58-11.17-17.54Zm-19.2,20.31c.34,0,.69,0,1.05,0,.6,0,.98-.07,1.16-.13.11-.22.33-.82.33-1.79,0-.66-.14-1.15-.24-1.38-.15-.04-.44-.1-.9-.11l-1.27-.04-.13,3.45Z"/><path d="m114.87,130.03c-3.03,0-5.95-1.14-8.17-3.21-2.34-2.17-3.71-5.18-3.82-8.37l-3.59-103.02c-.11-3.19,1.05-6.28,3.23-8.61,2.18-2.33,5.19-3.69,8.38-3.8l26.54-.86c6.6-.21,12.15,4.96,12.38,11.58l3.59,102.87c.23,6.61-4.93,12.16-11.54,12.41l-26.54,1c-.15,0-.3,0-.45,0Zm8.82-103.41l2.75,78.97,2.56-.1-2.75-78.95-2.56.08Z"/><path d="m280.45,135.91c-.24,0-.48,0-.72-.02l-26.26-1.58c-6.26-.38-11.18-5.51-11.28-11.79l-.07-4.32-2.93,7.21c-1.93,4.75-6.67,7.74-11.77,7.47l-21.09-1.15c-5.13-.28-9.51-3.79-10.9-8.73l-2.18-7.77-.62,4.77c-.81,6.21-6.23,10.74-12.49,10.44l-26.11-1.29c-3.38-.17-6.54-1.76-8.69-4.38-2.15-2.62-3.09-6.02-2.59-9.37l15.21-102.44c.91-6.12,6.32-10.53,12.49-10.22l30.42,1.58c5.2.27,9.63,3.86,10.97,8.89l9.56,35.87,13.27-34.5c1.86-4.85,6.63-7.94,11.82-7.68l30.56,1.58c6.2.32,11.13,5.32,11.37,11.52l4.02,103.45c.13,3.39-1.17,6.67-3.6,9.04-2.25,2.2-5.27,3.42-8.39,3.42Zm-14.44-24.89l1.93.12-3.08-79.25-10.92-.56-6.65,17.29c2.39-1.35,5.24-1.87,8.1-1.34,5.61,1.05,9.7,5.9,9.79,11.61l.83,52.15Zm-49.8-2.79l3.97.22,3.87-9.52c-1.65.71-3.48,1.04-5.36.95-1.89-.1-3.68-.64-5.25-1.53l2.78,9.88Zm-47.78-2.4l1.83.09,6.75-52c.73-5.65,5.34-10.01,11.03-10.42,2.76-.2,5.41.56,7.57,2.02l-4.71-17.69-10.8-.56-11.66,78.56Z"/><path d="m316.7,135.19c-8.72,0-16.77-2.74-22.95-7.89-6.68-5.57-10.65-13.47-11.48-22.85-.82-8.52,1.74-16.92,7.22-23.54.26-.32.53-.63.81-.94l-6.29-11.38c-3.04-5.5-1.32-12.42,3.94-15.85,10.93-7.13,22.94-11.43,35.71-12.79.07,0,.15-.01.22-.02,15.48-1.36,29.06,3.5,37.24,13.31.13.16.26.32.38.48,1.89,2.52,4.54,6.47,6.04,11.97.85,2.5,1.43,5.67,1.9,10.39l3.74,40.26c.29,3.17-.68,6.33-2.72,8.78s-4.96,3.99-8.13,4.28l-23.39,2.15c-1.48.13-2.94,0-4.3-.38-4.31,2.08-9,3.38-13.94,3.82-1.35.13-2.68.19-4,.19Zm29.05-28.65c.08.09.17.18.25.27l2.16-.2-2.62-28.22c-.35-3.44-.65-4.66-.73-4.95-.16-.42-.29-.85-.4-1.28-.31-1.23-.85-2.3-1.92-3.76-.35-.39-.73-.76-1.15-1.11,2.14,3.18,3.46,7.07,3.96,11.63l.13,1.04c.38,3.04-.42,6.06-2.15,8.48,2.1,2.64,3.44,5.83,3.77,9.39.28,3.1-.2,6.05-1.3,8.71Zm-19.47-1.81h0Zm-.86-9.68l.91,9.67c1.01-.26,3.05-2.41,2.79-5.17-.22-2.45-2.46-4.3-3.7-4.49Zm-.07,0c-.93.49-2.42,2.52-2.19,4.99.22,2.34,1.76,4.03,2.81,4.58l-.62-9.57h0Zm19.49-21.53s.01.03.02.04c0-.01-.01-.03-.02-.04Z"/><path d="m438.13,134.19c-.51,0-1.02-.03-1.53-.1l-24.53-3.16c-3.44-.44-6.35-2.3-8.23-4.92-.09.07-.18.14-.27.21-2.52,1.95-5.71,2.81-8.87,2.41l-24.54-3.16c-6.57-.85-11.21-6.85-10.37-13.42l8.47-66.29c.4-3.17,2.05-6.04,4.58-7.99,2.53-1.95,5.73-2.81,8.89-2.39l22.81,3.01c1.86.25,3.57.91,5.04,1.88,5.19-1.27,10.85-1.6,16.54-.89,9.05,1.13,17.04,5.11,22.51,11.21.11.12.21.24.31.36,6.06,7.32,8.29,16.43,6.82,27.84l-5.74,44.89c-.4,3.16-2.05,6.03-4.57,7.97-2.11,1.63-4.7,2.5-7.34,2.5Zm-11.1-25.53l.72.09,4.22-33c.79-6.14-.57-8.31-1.33-9.27-.92-.96-2.24-1.78-3.79-2.37.49.62.94,1.28,1.35,1.97.23.39.44.79.63,1.21,1.35,2.97,2.62,6.84,1.85,13.06,0,.01,0,.03,0,.04l-3.64,28.27Zm-41.91-5.45l.73.09,3.5-27.4s0-.07.01-.1c.43-3.18,1.35-7.73,4.3-11.58-.84-.99-1.5-2.11-1.98-3.3l-1.15-.15-5.42,42.44Zm33.64-24.35h0,0Z"/><path d="m460.36,134.91c-2.94,0-5.79-1.08-7.99-3.05-2.38-2.12-3.81-5.1-3.99-8.28l-3.73-66.86c-.15-2.69.61-5.34,2.14-7.53-3.08-4.23-4.88-9.48-4.88-15.23,0-14.21,11.56-25.77,25.77-25.77.08,0,.15,0,.23,0,14.25.27,25.4,11.65,25.4,25.92,0,4.47-1.17,8.67-3.22,12.33,1.93,2,3.18,4.67,3.35,7.66l3.73,66.72c.37,6.61-4.68,12.27-11.29,12.65l-24.82,1.43c-.23.01-.46.02-.69.02Zm8.92-67.5l2.39,42.83.86-.05-2.39-42.82-.86.04Zm-1.71-35.22c-.93.06-1.66.83-1.66,1.77,0,1.42,1.02,1.63,1.63,1.63.85,0,1.77-.47,1.77-1.49s-.74-1.84-1.74-1.91Z"/><path d="m558.21,131.47c-.42,0-.84-.02-1.26-.07l-23.1-2.44c-1.56-.17-3.02-.62-4.34-1.32-3.26.82-6.62,1.24-10.04,1.24-17.89,0-36.39-12.59-36.39-33.67,0-10.67,5.07-20.04,13.14-26.17l-3.98-12.72c-1.86-5.95,1.14-12.33,6.9-14.69,9.72-3.98,19.7-5.92,30.52-5.92,26.58,0,45.14,15.38,45.14,37.4,0,1.81-.17,3.63-.31,5.25-.05.61-.11,1.21-.15,1.78,0,.13-.02.25-.03.38l-4.16,40.17c-.33,3.17-1.9,6.08-4.38,8.09-2.15,1.74-4.82,2.68-7.56,2.68Zm-12.86-25.42l2.16.23,2.9-28.03c.05-.66.11-1.34.17-2.03.1-1.11.21-2.36.21-3.09,0-2.61-.74-4.72-1.94-6.41,1.03,2.61,1.55,5.52,1.55,8.71,0,2.32-.32,4.46-.45,5.27-.43,2.6-1.7,4.94-3.55,6.71,1.2,2.44,1.85,5.18,1.85,8.1,0,3.88-1.1,7.38-3.06,10.28.05.08.11.17.16.26Zm-18.33-5.82s0,0,0,0h0Zm.4-9.79c-1.2.46-3.17,2.56-3.17,5.07s1.59,4.2,2.56,4.64c1.29-.34,3.5-2.47,3.5-4.93s-1.77-4.42-2.9-4.78Z"/><path d="m600.68,130.03c-15,0-27.21-12.21-27.21-27.21,0-5.13,1.43-9.94,3.91-14.04-.83-1.3-1.43-2.77-1.71-4.38l-11.91-66.86c-.58-3.26.21-6.61,2.19-9.27,1.98-2.66,4.96-4.38,8.25-4.76l29.84-3.44c3.3-.38,6.62.63,9.15,2.78,2.53,2.15,4.06,5.26,4.21,8.58l3.16,67.87c.07,1.51-.14,2.98-.6,4.34,4.9,4.92,7.93,11.7,7.93,19.18,0,15-12.21,27.21-27.21,27.21Zm0-30.42c-1.83,0-3.21,1.38-3.21,3.21s1.38,3.21,3.21,3.21,3.21-1.38,3.21-3.21-1.38-3.21-3.21-3.21Zm-11.06-73.71l5.99,33.63-1.59-34.14-4.4.51Z"/><path d="m103.53,126.36c-.06,0-.12,0-.19,0l-30.99-1.15c-1.69-.06-3.23-.97-4.1-2.42l-20.07-33.44h-1.52l-.98,29.03c-.09,2.69-2.3,4.83-5,4.83H14c-1.36,0-2.65-.55-3.6-1.53-.94-.98-1.45-2.29-1.4-3.65L12.59,15.15c.1-2.76,2.41-4.93,5.16-4.82l43.04,1.43c12.71.44,23.43,4.72,31,12.36,6.81,6.87,10.56,15.92,10.56,25.49,0,13.26-7.09,25.5-18.47,32.56l23.83,36.44c1.02,1.56,1.09,3.57.17,5.2-.89,1.57-2.55,2.54-4.35,2.54Zm-28.1-11.04l18.62.69-21.54-32.94c-.81-1.23-1.03-2.76-.61-4.17.42-1.41,1.44-2.56,2.79-3.15,8.15-3.55,17.66-12.52,17.66-26.12,0-18.38-16.54-27.32-31.9-27.86l-38.05-1.27-3.23,92.71h16.68l.98-29.03c.09-2.69,2.3-4.83,5-4.83h9.18c1.76,0,3.38.92,4.29,2.43l20.13,33.54Zm-19.39-45.92c-4.22,0-7.45-.1-11.18-.21l-2.45-.07c-1.33-.04-2.59-.61-3.5-1.58-.91-.97-1.4-2.27-1.35-3.6l1-27.55c.1-2.75,2.42-4.9,5.16-4.81l13.2.43c12.1.38,17.61,9.85,17.61,18.48,0,11.14-7.6,18.92-18.49,18.92Zm-8.31-10.13c2.66.08,5.22.13,8.31.13,7.66,0,8.49-6.24,8.49-8.92,0-2.48-.77-8.27-7.93-8.49l-8.23-.27-.64,17.54Z"/><path d="m116.87,117.03c-1.26,0-2.48-.48-3.4-1.34-.97-.9-1.55-2.16-1.59-3.49l-3.59-103.02c-.05-1.33.44-2.62,1.34-3.59s2.16-1.54,3.49-1.58l26.54-.86c2.76-.06,5.06,2.07,5.16,4.82l3.59,102.87c.1,2.75-2.05,5.07-4.81,5.17l-26.54,1c-.06,0-.13,0-.19,0Zm1.58-103.18l3.24,93,16.55-.63-3.24-92.91-16.55.54Z"/><path d="m282.45,122.91c-.1,0-.2,0-.3,0l-26.26-1.58c-2.61-.16-4.66-2.3-4.7-4.91l-.61-38.71-15.87,39.08c-.8,1.98-2.76,3.25-4.9,3.11l-21.09-1.15c-2.14-.12-3.96-1.58-4.54-3.64l-11.46-40.73-5.03,38.73c-.33,2.58-2.59,4.46-5.21,4.35l-26.11-1.29c-1.41-.07-2.72-.73-3.62-1.82s-1.29-2.51-1.08-3.91l15.21-102.44c.38-2.55,2.62-4.4,5.21-4.26l30.42,1.58c2.17.11,4.01,1.61,4.57,3.71l15.12,56.71,21.01-54.63c.78-2.02,2.79-3.32,4.92-3.2l30.56,1.58c2.58.13,4.64,2.21,4.74,4.8l4.02,103.45c.05,1.41-.49,2.78-1.5,3.77-.94.92-2.19,1.43-3.5,1.43Zm-21.33-11.29l16.12.97-3.63-93.37-22.38-1.16-25.24,65.63c-.78,2.02-2.79,3.32-4.93,3.2-2.16-.12-4.01-1.61-4.56-3.71l-18.15-68.08-22.25-1.15-13.73,92.49,15.99.79,7.58-58.41c.31-2.36,2.23-4.17,4.6-4.34,2.37-.17,4.53,1.35,5.18,3.63l17.11,60.83,13.96.76,23.77-58.53c.89-2.2,3.22-3.47,5.55-3.03,2.34.44,4.04,2.46,4.08,4.84l.93,58.64Z"/><path d="m318.71,122.19c-7.1,0-13.57-2.18-18.49-6.27-5.22-4.35-8.33-10.6-8.99-18.08-.65-6.71,1.35-13.28,5.64-18.46,1.26-1.52,2.69-2.9,4.29-4.12-.27-.29-.51-.62-.71-.98l-8.32-15.06c-1.27-2.29-.55-5.17,1.64-6.6,9.99-6.52,20.96-10.45,32.62-11.69,13.46-1.18,24.55,2.66,31.34,10.81.05.07.11.13.16.2,1.7,2.27,3.79,5.42,4.94,9.83.7,1.96,1.2,4.77,1.63,9.03l3.73,40.21c.12,1.32-.29,2.64-1.13,3.66s-2.07,1.66-3.39,1.78l-23.39,2.15c-1.45.14-2.82-.37-3.83-1.29-4.32,2.65-9.19,4.26-14.4,4.73-1.13.11-2.25.16-3.36.16Zm4.26-43.75c-.99,0-1.98.04-2.96.12-6.59.61-12.09,3.16-15.43,7.2-2.61,3.15-3.78,7.01-3.38,11.16.43,4.88,2.26,8.68,5.43,11.32,3.57,2.97,8.86,4.37,14.52,3.84,5.55-.5,10.54-2.83,14.44-6.74,1.33-1.33,3.3-1.8,5.1-1.21,1.79.59,3.1,2.14,3.38,4v.07s13.72-1.26,13.72-1.26l-3.27-35.19c-.45-4.45-.89-6.11-1.12-6.7-.07-.19-.13-.38-.18-.58-.69-2.75-2.01-4.79-3.23-6.43-4.64-5.49-12.68-8.03-22.62-7.17-8.48.9-16.6,3.49-24.16,7.71l3.56,6.45c6.26-3.3,11.82-5.18,16.55-5.61,4.49-.39,8.26.5,11.25,2.63.06.04.12.09.18.14,3.22,2.53,5.06,6.31,5.61,11.54l.14,1.1c.21,1.71-.47,3.41-1.81,4.5-1.34,1.09-3.14,1.41-4.78.85-3.31-1.14-7.11-1.73-10.94-1.73Zm4.19,27.6c-3.41,0-6.51-1.04-8.87-2.99-2.39-1.98-3.8-4.72-4.09-7.93-.35-3.72.99-7.16,3.76-9.67,2.25-2.04,5.37-3.33,8.79-3.65.05,0,.1,0,.15-.01,8.21-.53,14.57,3.97,15.2,10.69.63,6.92-5.07,12.71-13.26,13.48-.56.05-1.12.08-1.67.08Zm.45-14.28c-1.21.13-2.31.54-2.94,1.11-.42.38-.56.74-.51,1.33.06.69.3.97.52,1.15.5.42,1.6.81,3.21.65,1.87-.18,4.38-1.18,4.25-2.61-.1-1.08-2.46-1.75-4.53-1.64Z"/><path d="m440.13,121.19c-.21,0-.42-.01-.64-.04l-24.53-3.16c-2.74-.35-4.67-2.86-4.32-5.6l5.16-40.16c.25-2.02.05-2.76-.3-3.58-.63-.84-1.85-1.19-2.79-1.33-1.51-.21-2.84.53-3.56,1.25-.12.16-.59.96-.94,3.52l-5.02,39.27c-.17,1.32-.85,2.51-1.9,3.32-1.05.81-2.38,1.17-3.7,1l-24.54-3.16c-2.74-.35-4.67-2.86-4.32-5.59l8.47-66.29c.17-1.32.86-2.52,1.91-3.33,1.05-.81,2.38-1.17,3.71-1l22.81,3.01c1.75.23,3.19,1.35,3.89,2.87,5.25-1.97,11.44-2.66,17.74-1.87,7.37.92,13.83,4.1,18.17,8.94.04.05.09.1.13.15,4.75,5.75,6.48,13.1,5.27,22.48l-5.74,44.9c-.17,1.32-.85,2.51-1.9,3.32-.88.68-1.96,1.04-3.06,1.04Zm-18.94-12.48l14.61,1.88,5.1-39.94c1.09-8.45-1.01-12.33-2.99-14.75-2.7-2.97-7.03-5.01-11.9-5.62-6.99-.87-13.82.67-17.83,4.04-.9.75-2.04,1.17-3.21,1.17h-.14c-1.35,0-2.64-.54-3.58-1.51-.94-.96-1.45-2.26-1.42-3.61l.04-1.68-13.39-1.77-7.2,56.35,14.62,1.88,4.39-34.35c.56-4.11,1.59-6.82,3.35-8.83.03-.04.07-.07.1-.11,3.11-3.34,7.85-5.04,12.38-4.42,4.5.67,8.05,2.89,10.07,6.26.1.16.18.33.26.5.92,2.03,1.86,4.59,1.27,9.29,0,0,0,.01,0,.02l-4.53,35.21Zm-.43-35.85h0,0Z"/><path d="m462.36,121.91c-1.22,0-2.41-.45-3.33-1.27-.99-.88-1.59-2.13-1.66-3.45l-3.73-66.86c-.07-1.33.38-2.63,1.27-3.62s2.13-1.58,3.46-1.65l3.26-.17c-6.39-2.92-10.73-9.33-10.73-16.93,0-10.35,8.42-18.77,18.77-18.77.03,0,.06,0,.09,0,10.39.2,18.54,8.5,18.54,18.92,0,6.82-3.57,12.67-9.01,15.87l3.89-.2c2.76-.16,5.1,1.96,5.25,4.71l3.73,66.72c.15,2.75-1.95,5.11-4.7,5.27l-24.82,1.43c-.1,0-.19,0-.29,0Zm1.54-67.13l3.17,56.85,14.84-.86-3.17-56.76-14.84.77Zm5.73-35.6c-4.82.03-8.73,3.95-8.73,8.77s3.71,8.63,8.63,8.63,8.77-3.73,8.77-8.49-3.81-8.8-8.68-8.92Z"/><path d="m560.21,118.47c-.17,0-.35,0-.53-.03l-23.1-2.44c-1.5-.16-2.78-.97-3.58-2.12-3.67,1.32-7.56,2.01-11.53,2.01-7.23,0-14.44-2.44-19.78-6.71-6.2-4.94-9.61-12.03-9.61-19.96,0-10.27,5.71-18.84,14.54-23.31-.23-.36-.41-.75-.54-1.16l-5.17-16.5c-.78-2.48.47-5.14,2.88-6.12,8.86-3.63,17.97-5.39,27.87-5.39s18.41,2.34,25.07,6.6c8.55,5.46,13.07,13.69,13.07,23.8,0,1.49-.14,3.08-.28,4.62-.06.65-.12,1.29-.16,1.91,0,.05,0,.11-.01.16l-4.16,40.17c-.14,1.32-.79,2.53-1.83,3.37-.89.73-2.01,1.12-3.15,1.12Zm-18.1-11.94l13.64,1.44,3.64-35.11c.05-.65.11-1.33.17-2.01.12-1.32.24-2.68.24-3.72,0-19.82-25.26-20.4-28.14-20.4-6.97,0-13.48,1.01-19.78,3.07l2.21,7.06c5.33-1.63,10.29-2.48,14.55-2.48,5.5,0,10.21,1.78,13.25,5.02,2.38,2.62,3.51,5.88,3.51,10.03,0,1.85-.27,3.62-.36,4.12-.27,1.61-1.31,2.99-2.79,3.69-1.48.7-3.21.64-4.62-.18-5.23-2.99-10.77-4.51-16.46-4.51-10.89,0-19.1,7.16-19.1,16.67,0,10.82,9.99,16.67,19.39,16.67,4.62,0,9.09-1.31,12.92-3.79,1.54-1,3.5-1.07,5.11-.19,1.61.88,2.61,2.56,2.61,4.39v.23Zm-12.75-5.13c-8,0-14.04-5.23-14.04-12.17s5.48-12.03,13.32-12.03c8.47,0,14.61,5.18,14.61,12.32s-5.71,11.89-13.9,11.89Zm-.72-14.2c-3.32,0-3.32,1.47-3.32,2.03,0,1.26,1.7,2.17,4.04,2.17.4,0,3.9-.05,3.9-1.89,0-1.45-2.35-2.32-4.61-2.32Z"/><path d="m602.68,117.03c-11.14,0-20.21-9.07-20.21-20.21,0-6.23,2.84-11.82,7.29-15.53-2.5.17-4.75-1.61-5.2-4.12l-11.91-66.86c-.24-1.36.09-2.76.91-3.86.82-1.11,2.07-1.82,3.44-1.98l29.84-3.44c1.38-.16,2.76.26,3.81,1.16,1.06.9,1.69,2.19,1.75,3.58l3.16,67.87c.11,2.44-1.54,4.57-3.87,5.1,6.63,3.32,11.19,10.18,11.19,18.08,0,11.14-9.07,20.21-20.21,20.21Zm0-30.42c-5.72,0-10.21,4.48-10.21,10.21s4.48,10.21,10.21,10.21,10.21-4.48,10.21-10.21-4.48-10.21-10.21-10.21Zm-19.25-72.81l10.15,57,11.78-1.36-2.69-57.85-19.24,2.22Z"/><path class="cls-1" d="m51.02,84.34h-9.18l-1.15,33.86H14l3.59-102.87,43.04,1.43c24.68.86,36.73,17.22,36.73,32.86,0,14.63-9.47,25.83-20.66,30.7l26.83,41.04-30.99-1.15-21.52-35.87Zm5.02-19.94c9.47,0,13.49-6.89,13.49-13.92,0-6.31-3.59-13.2-12.77-13.49l-13.2-.43-1,27.55c4.88.14,8.47.29,13.49.29Z"/><path class="cls-1" d="m116.87,112.03l-3.59-103.02,26.54-.86,3.59,102.87-26.54,1Z"/><path class="cls-1" d="m208.98,113.75l-18.08-64.28-8.18,62.99-26.11-1.29,15.21-102.44,30.42,1.58,19.08,71.6,26.54-69.01,30.56,1.58,4.02,103.45-26.26-1.58-1-63.27-25.11,61.84-21.09-1.15Z"/><path class="cls-1" d="m335.53,75.45l-.14-1.15c-.43-4.16-1.72-6.6-3.73-8.18-2.01-1.44-4.59-2.01-7.89-1.72-4.74.43-11.05,2.73-18.94,7.46l-8.32-15.06c10.33-6.74,20.95-9.9,30.42-10.9,11.48-1,21.23,2.15,26.97,9.04,1.72,2.29,3.3,4.88,4.16,8.32.72,1.87,1.15,5.17,1.43,8.04l3.73,40.17-23.39,2.15-.72-4.74c-5.02,5.02-11.19,7.6-17.5,8.18-12.2,1.15-24.1-5.02-25.4-19.66-1.15-11.91,7.75-22.38,23.39-23.82,5.31-.43,10.9.14,15.93,1.87Zm-8.32,11.33c-4.59.43-8.47,3.3-8.04,7.89.43,4.74,4.74,6.74,9.18,6.31,4.59-.43,9.18-3.3,8.75-8.04-.43-4.59-5.45-6.46-9.9-6.17Z"/><path class="cls-1" d="m420.76,72.86c.43-3.44-.14-5.02-.86-6.6-1.29-2.15-3.59-3.44-6.46-3.87-3.16-.43-6.17.86-8.04,2.87-1,1.15-1.72,3.01-2.15,6.17l-5.02,39.31-24.54-3.16,8.47-66.29,22.81,3.01-.14,6.17h.14c5.31-4.45,13.63-6.17,21.67-5.17,5.74.72,11.33,3.16,15.06,7.32,3.44,4.16,5.31,9.76,4.16,18.65l-5.74,44.91-24.53-3.16,5.17-40.17Z"/><path class="cls-1" d="m469.68,14.18c7.6.14,13.63,6.31,13.63,13.92s-6.17,13.49-13.77,13.49-13.63-5.88-13.63-13.63,6.17-13.77,13.77-13.77Zm-7.32,102.73l-3.73-66.86,24.82-1.29,3.73,66.72-24.82,1.43Z"/><path class="cls-1" d="m540.13,72.72c.14-.86.29-2.15.29-3.3,0-3.01-.72-5.02-2.15-6.6-2.3-2.44-6.03-3.44-9.61-3.44-4.59,0-10.62,1.15-17.79,3.87l-5.17-16.5c8.75-3.59,17.36-5.02,25.97-5.02,15.5,0,33.14,7.03,33.14,25.4,0,1.87-.29,4.16-.43,6.17l-4.16,40.17-23.1-2.44v-4.73c-4.88,3.16-10.33,4.59-15.64,4.59-11.91,0-24.39-7.75-24.39-21.67,0-12.63,10.76-21.67,24.1-21.67,6.46,0,12.91,1.72,18.94,5.17Zm-11.48,9.47c-4.16,0-8.32,2.01-8.32,7.03,0,4.02,3.59,7.17,9.04,7.17,4.16,0,8.9-1.87,8.9-6.89,0-4.59-4.45-7.32-9.61-7.32Z"/><path class="cls-1" d="m610.58,73.87l-21.09,2.44-11.91-66.86,29.84-3.44,3.16,67.87Zm-7.89,7.75c8.47,0,15.21,6.74,15.21,15.21s-6.74,15.21-15.21,15.21-15.21-6.74-15.21-15.21,6.74-15.21,15.21-15.21Z"/></g></svg>