<?xml version="1.0" encoding="UTF-8"?><svg id="Layer_2" xmlns="http://www.w3.org/2000/svg" xmlns:xlink="http://www.w3.org/1999/xlink" viewBox="0 0 512.94 134.45"><defs><style>.cls-1{fill:none;}.cls-2{clip-path:url(#clippath);}.cls-3{fill:#fff;}.cls-4{fill:#ba0c2f;}.cls-5{fill:#231f20;}.cls-6{fill:#1a1a1a;}.cls-7{clip-path:url(#clippath-1);}.cls-8{clip-path:url(#clippath-4);}.cls-9{clip-path:url(#clippath-3);}.cls-10{clip-path:url(#clippath-2);}.cls-11{clip-path:url(#clippath-7);}.cls-12{clip-path:url(#clippath-8);}.cls-13{clip-path:url(#clippath-6);}.cls-14{clip-path:url(#clippath-5);}.cls-15{clip-path:url(#clippath-9);}.cls-16{clip-path:url(#clippath-20);}.cls-17{clip-path:url(#clippath-21);}.cls-18{clip-path:url(#clippath-24);}.cls-19{clip-path:url(#clippath-23);}.cls-20{clip-path:url(#clippath-22);}.cls-21{clip-path:url(#clippath-25);}.cls-22{clip-path:url(#clippath-44);}.cls-23{clip-path:url(#clippath-45);}.cls-24{clip-path:url(#clippath-40);}.cls-25{clip-path:url(#clippath-42);}.cls-26{clip-path:url(#clippath-41);}.cls-27{clip-path:url(#clippath-47);}.cls-28{clip-path:url(#clippath-43);}.cls-29{clip-path:url(#clippath-46);}.cls-30{clip-path:url(#clippath-48);}.cls-31{clip-path:url(#clippath-49);}.cls-32{clip-path:url(#clippath-27);}.cls-33{clip-path:url(#clippath-28);}.cls-34{clip-path:url(#clippath-26);}.cls-35{clip-path:url(#clippath-29);}.cls-36{clip-path:url(#clippath-34);}.cls-37{clip-path:url(#clippath-35);}.cls-38{clip-path:url(#clippath-36);}.cls-39{clip-path:url(#clippath-37);}.cls-40{clip-path:url(#clippath-39);}.cls-41{clip-path:url(#clippath-33);}.cls-42{clip-path:url(#clippath-32);}.cls-43{clip-path:url(#clippath-30);}.cls-44{clip-path:url(#clippath-38);}.cls-45{clip-path:url(#clippath-31);}.cls-46{clip-path:url(#clippath-50);}.cls-47{clip-path:url(#clippath-51);}.cls-48{clip-path:url(#clippath-52);}.cls-49{clip-path:url(#clippath-14);}.cls-50{clip-path:url(#clippath-13);}.cls-51{clip-path:url(#clippath-12);}.cls-52{clip-path:url(#clippath-10);}.cls-53{clip-path:url(#clippath-15);}.cls-54{clip-path:url(#clippath-17);}.cls-55{clip-path:url(#clippath-16);}.cls-56{clip-path:url(#clippath-19);}.cls-57{clip-path:url(#clippath-11);}.cls-58{clip-path:url(#clippath-18);}</style><clipPath id="clippath"><path class="cls-1" d="m1.5,127.54V1.5h62.87c2.68,0,5.51.03,8.66.08,2.81.05,5.64.08,8.41.08h18.2c4.71,0,8.71,2.34,10.68,6.27.97,1.96,1.45,3.96,1.45,6.01,0,7.55-5.48,13.03-13.03,13.03-1.23,0-2.76-.06-4.69-.17-1.54-.09-2.83-.13-3.81-.13h-21.86v4.42h34.3c7.2,0,12.43,5.29,12.43,12.58,0,5.98-3.15,9.08-5.02,10.39-2.21,1.55-4.96,2.34-8.16,2.34-.55,0-1.77-.02-3.64-.08-1.64-.05-3.74-.07-6.22-.07-2.77,0-5.81-.03-9.03-.08-3.28-.05-6.62-.08-9.93-.08h-4.71v71.45H1.5Z"/></clipPath><clipPath id="clippath-1"><rect class="cls-1" x="85.51" y="-4.92" width="56.69" height="56.69"/></clipPath><clipPath id="clippath-2"><rect class="cls-1" x="85.51" y="51.78" width="56.69" height="56.69"/></clipPath><clipPath id="clippath-3"><rect class="cls-1" x="85.51" y="108.47" width="56.69" height="56.69"/></clipPath><clipPath id="clippath-4"><rect class="cls-1" x="28.82" y="-4.92" width="56.69" height="56.69"/></clipPath><clipPath id="clippath-5"><rect class="cls-1" x="28.82" y="51.78" width="56.69" height="56.69"/></clipPath><clipPath id="clippath-6"><rect class="cls-1" x="28.82" y="108.47" width="56.69" height="56.69"/></clipPath><clipPath id="clippath-7"><rect class="cls-1" x="-27.88" y="-4.92" width="56.69" height="56.69"/></clipPath><clipPath id="clippath-8"><rect class="cls-1" x="-27.88" y="51.78" width="56.69" height="56.69"/></clipPath><clipPath id="clippath-9"><rect class="cls-1" x="-27.88" y="108.47" width="56.69" height="56.69"/></clipPath><clipPath id="clippath-10"><path class="cls-1" d="m90.11,127.54V55.44h40.94c2.93-1.24,5.99-1.87,9.17-1.87,1.22,0,2.51.12,3.82.34,1.59.28,3.1.74,4.5,1.37,2.08.94,3.85,2.29,5.27,4.02,1.9,2.35,2.9,5.21,2.9,8.29,0,3.65-1.45,7.05-4.09,9.56-2.51,2.38-5.82,3.69-9.35,3.69-1.85,0-3.7-.42-5.74-1.33-.46.25-.89.58-1.34.99-.68.62-1.3,1.35-1.85,2.16-.29.42-.56.86-.82,1.3v43.56h-43.39Z"/></clipPath><clipPath id="clippath-11"><rect class="cls-1" x="142.2" y="51.78" width="56.69" height="56.69"/></clipPath><clipPath id="clippath-12"><rect class="cls-1" x="142.2" y="108.47" width="56.69" height="56.69"/></clipPath><clipPath id="clippath-13"><rect class="cls-1" x="85.51" y="51.78" width="56.69" height="56.69"/></clipPath><clipPath id="clippath-14"><rect class="cls-1" x="85.51" y="108.47" width="56.69" height="56.69"/></clipPath><clipPath id="clippath-15"><path class="cls-1" d="m143.09,127.54V59.27c-.7-1.86-.88-3.57-.88-4.84,0-3.27,1.12-9.4,8.59-13.65,3.88-2.21,8.65-3.33,14.19-3.33s10.24,1.08,14.09,3.22c7.56,4.2,8.69,10.24,8.69,13.46,0,1.51-.25,3.63-1.28,5.89v67.51h-43.39Z"/></clipPath><clipPath id="clippath-16"><rect class="cls-1" x="142.2" y="-4.92" width="56.69" height="56.69"/></clipPath><clipPath id="clippath-17"><rect class="cls-1" x="142.2" y="51.78" width="56.69" height="56.69"/></clipPath><clipPath id="clippath-18"><rect class="cls-1" x="142.2" y="108.47" width="56.69" height="56.69"/></clipPath><clipPath id="clippath-19"><path class="cls-1" d="m215.51,130.39c-4.98,0-9.83-.97-14.42-2.88-4.5-1.88-8.53-4.51-11.98-7.82-3.44-3.31-6.23-7.22-8.28-11.64-2.15-4.62-3.24-9.63-3.24-14.88s1.02-10.42,3.02-15.1c1.99-4.64,4.78-8.73,8.31-12.17,3.49-3.4,7.6-6.1,12.24-8.02,4.68-1.94,9.78-2.93,15.14-2.93,3.02,0,6.09.41,9.14,1.22,3.18.84,6.17,2.13,8.91,3.82,5.86,3.68,10.3,8.21,13.21,13.49,2.8,5.07,4.46,11.26,4.96,18.4l.05.68-.05.68c-.17,2.56-1.08,4.83-2.55,6.65.79,1.63,1.2,3.41,1.2,5.26,0,1.3-.22,2.59-.71,4.04l-.37,1.11-.61.99c-3.63,5.88-8.51,10.58-14.5,13.97-6.02,3.4-12.57,5.13-19.47,5.13Zm3.91-24.03c1.18-.35,2.31-.86,3.39-1.52.31-.19.62-.39.91-.6h-4.31v2.12Z"/></clipPath><clipPath id="clippath-20"><rect class="cls-1" x="198.89" y="51.78" width="56.69" height="56.69"/></clipPath><clipPath id="clippath-21"><rect class="cls-1" x="198.89" y="108.47" width="56.69" height="56.69"/></clipPath><clipPath id="clippath-22"><rect class="cls-1" x="142.2" y="51.78" width="56.69" height="56.69"/></clipPath><clipPath id="clippath-23"><rect class="cls-1" x="142.2" y="108.47" width="56.69" height="56.69"/></clipPath><clipPath id="clippath-24"><rect class="cls-1" x="198.89" y="51.78" width="56.69" height="56.69"/></clipPath><clipPath id="clippath-25"><path class="cls-1" d="m242.37,127.54V55.44h43.39v1.16c4.2-1.42,8.46-2.14,12.71-2.14,3.13,0,6.23.46,9.22,1.36,3.16.96,6.06,2.4,8.62,4.29,2.83,2.1,5.14,4.79,6.85,7.99,1.8,3.37,2.71,7.2,2.71,11.4v48.04h-83.5Z"/></clipPath><clipPath id="clippath-26"><rect class="cls-1" x="312.27" y="51.78" width="56.69" height="56.69"/></clipPath><clipPath id="clippath-27"><rect class="cls-1" x="312.27" y="108.47" width="56.69" height="56.69"/></clipPath><clipPath id="clippath-28"><rect class="cls-1" x="255.58" y="51.78" width="56.69" height="56.69"/></clipPath><clipPath id="clippath-29"><rect class="cls-1" x="255.58" y="108.47" width="56.69" height="56.69"/></clipPath><clipPath id="clippath-30"><rect class="cls-1" x="198.89" y="51.78" width="56.69" height="56.69"/></clipPath><clipPath id="clippath-31"><rect class="cls-1" x="198.89" y="108.47" width="56.69" height="56.69"/></clipPath><clipPath id="clippath-32"><path class="cls-1" d="m352.72,129.8c-4.72,0-9.34-.88-13.74-2.61-4.41-1.74-8.38-4.25-11.82-7.46-3.48-3.25-6.28-7.21-8.33-11.74-2.09-4.62-3.14-9.77-3.14-15.32s1.04-10.48,3.1-15.17c1.98-4.52,4.65-8.53,7.94-11.91,3.35-3.44,7.27-6.16,11.65-8.08,4.47-1.96,9.2-2.96,14.05-2.96,2.55,0,5.09.3,7.59.89v-14.36h43.39v86.45h-39.04c-3.8,1.5-7.72,2.26-11.65,2.26Z"/></clipPath><clipPath id="clippath-33"><rect class="cls-1" x="368.96" y="-4.92" width="56.69" height="56.69"/></clipPath><clipPath id="clippath-34"><rect class="cls-1" x="368.96" y="51.78" width="56.69" height="56.69"/></clipPath><clipPath id="clippath-35"><rect class="cls-1" x="368.96" y="108.47" width="56.69" height="56.69"/></clipPath><clipPath id="clippath-36"><rect class="cls-1" x="312.27" y="-4.92" width="56.69" height="56.69"/></clipPath><clipPath id="clippath-37"><rect class="cls-1" x="312.27" y="51.78" width="56.69" height="56.69"/></clipPath><clipPath id="clippath-38"><rect class="cls-1" x="312.27" y="108.47" width="56.69" height="56.69"/></clipPath><clipPath id="clippath-39"><rect class="cls-1" x="396.19" y="41.09" width="43.39" height="86.45"/></clipPath><clipPath id="clippath-40"><rect class="cls-1" x="425.65" y="-4.92" width="56.69" height="56.69"/></clipPath><clipPath id="clippath-41"><rect class="cls-1" x="425.65" y="51.78" width="56.69" height="56.69"/></clipPath><clipPath id="clippath-42"><rect class="cls-1" x="425.65" y="108.47" width="56.69" height="56.69"/></clipPath><clipPath id="clippath-43"><rect class="cls-1" x="368.96" y="-4.92" width="56.69" height="56.69"/></clipPath><clipPath id="clippath-44"><rect class="cls-1" x="368.96" y="51.78" width="56.69" height="56.69"/></clipPath><clipPath id="clippath-45"><rect class="cls-1" x="368.96" y="108.47" width="56.69" height="56.69"/></clipPath><clipPath id="clippath-46"><path class="cls-1" d="m456.72,132.95c-.85,0-1.75-.05-2.75-.15-1.71-.17-3.37-.61-4.93-1.3-1.62-.72-3.04-1.65-4.27-2.79-2.48-2.28-3.85-5.49-3.85-9.01,0-3.78,1.63-7.27,4.48-9.58,2.18-1.77,4.81-2.75,7.62-2.86l-31.29-52.01h50.58l10.02,17.29.69-1.07c.5-.83,1.07-1.83,1.7-2.98.72-1.31,1.43-2.6,2.12-3.85.9-1.63,1.77-3.01,2.65-4.21,3.25-4.44,7.01-5.37,9.59-5.37,2.26,0,4.47.63,6.58,1.87,3.62,2.14,5.78,5.87,5.78,10,0,1.74-.38,3.39-1.13,4.91l-.11.22-.12.22c-.85,1.53-1.67,2.84-2.49,3.98-.47.65-.97,1.41-1.5,2.26-1.35,2.18-2.85,4.57-4.45,7.04-1.55,2.4-3.29,5.1-5.23,8.09-1.93,2.98-4.1,6.34-6.52,10.1-2.43,3.79-5.27,8.14-8.49,13.08-.81,1.21-1.74,2.52-2.83,3.97-1.39,1.85-3.05,3.63-4.93,5.29-2.02,1.78-4.29,3.3-6.76,4.54-3.1,1.55-6.52,2.33-10.17,2.33Z"/></clipPath><clipPath id="clippath-47"><rect class="cls-1" x="482.34" y="51.78" width="56.69" height="56.69"/></clipPath><clipPath id="clippath-48"><rect class="cls-1" x="482.34" y="108.47" width="56.69" height="56.69"/></clipPath><clipPath id="clippath-49"><rect class="cls-1" x="425.65" y="51.78" width="56.69" height="56.69"/></clipPath><clipPath id="clippath-50"><rect class="cls-1" x="425.65" y="108.47" width="56.69" height="56.69"/></clipPath><clipPath id="clippath-51"><rect class="cls-1" x="368.96" y="51.78" width="56.69" height="56.69"/></clipPath><clipPath id="clippath-52"><rect class="cls-1" x="368.96" y="108.47" width="56.69" height="56.69"/></clipPath></defs><g id="exported_Friendly"><path class="cls-3" d="m69.88,129.04H0V0h64.37c2.69,0,5.53.03,8.68.08,2.81.05,5.62.07,8.38.07h18.2c5.29,0,9.79,2.65,12.02,7.09,1.08,2.17,1.6,4.4,1.6,6.68,0,8.42-6.11,14.53-14.53,14.53-1.26,0-2.82-.06-4.77-.17-1.51-.09-2.77-.13-3.72-.13h-20.36v1.42h32.8c7.94,0,13.93,6.05,13.93,14.08,0,6.66-3.55,10.14-5.66,11.62-2.47,1.73-5.51,2.61-9.02,2.61-.56,0-1.79-.02-3.68-.08-1.62-.05-3.71-.07-6.18-.07-2.78,0-5.83-.03-9.06-.08-3.27-.05-6.61-.08-9.91-.08h-3.21v71.45Zm-46.88-23h23.88V23h-23.88v83.04Z"/><path class="cls-3" d="m135,129.04h-46.39V53.94h42.13c3.03-1.24,6.19-1.87,9.47-1.87,1.31,0,2.68.12,4.08.37,1.71.3,3.34.8,4.86,1.48,2.3,1.04,4.25,2.53,5.81,4.44,2.12,2.62,3.23,5.81,3.23,9.24,0,4.07-1.62,7.85-4.56,10.64-2.79,2.65-6.47,4.1-10.38,4.1-1.83,0-3.64-.37-5.59-1.14-.16.12-.32.26-.48.41-.6.55-1.14,1.18-1.63,1.9-.19.28-.38.57-.56.87v44.65Zm-23.39-23h.39v-29.1h-.39v29.1Zm24.25-25.64s0,0,0,0c0,0,0,0,0,0Z"/><path class="cls-3" d="m187.98,129.04h-46.39V59.56c-.7-1.96-.88-3.77-.88-5.12,0-6.12,3.41-11.57,9.34-14.96,4.11-2.34,9.13-3.52,14.93-3.52s10.74,1.15,14.82,3.41c8.54,4.75,9.46,11.91,9.46,14.77,0,1.33-.2,3.61-1.28,6.13v68.77Zm-23.39-23h.39v-29.1h-.39v29.1Z"/><path class="cls-3" d="m215.51,131.89c-5.18,0-10.23-1.01-15-3-4.68-1.95-8.86-4.68-12.44-8.12-3.57-3.43-6.47-7.5-8.6-12.09-2.24-4.82-3.38-10.04-3.38-15.51s1.06-10.82,3.14-15.69c2.07-4.82,4.97-9.08,8.64-12.65,3.62-3.53,7.9-6.33,12.71-8.33,4.87-2.02,10.15-3.04,15.71-3.04,3.14,0,6.35.43,9.53,1.27,3.32.88,6.45,2.22,9.31,4,6.09,3.82,10.69,8.53,13.74,14.04,2.9,5.26,4.63,11.66,5.14,19.02l.05.78-.05.78c-.17,2.5-1,4.79-2.34,6.71.65,1.6.99,3.33.99,5.1,0,1.47-.25,2.9-.79,4.51l-.42,1.27-.7,1.14c-3.77,6.1-8.83,10.98-15.04,14.49-6.25,3.53-13.05,5.32-20.21,5.32Zm31.87-22.02h0s0,0,0,0h0Z"/><path class="cls-3" d="m327.36,129.04h-86.5V53.94h46.39v.62c6.95-1.99,14.14-2.2,20.86-.18,3.33,1,6.38,2.52,9.07,4.52,3.01,2.23,5.46,5.09,7.28,8.49,1.92,3.59,2.88,7.66,2.88,12.11v49.54Zm-23.39-23h.39v-26.54c0-.94-.17-1.26-.17-1.27-.08-.15-.15-.27-.23-.37v28.18Zm-40.1,0h.39v-29.1h-.39v29.1Z"/><path class="cls-3" d="m352.72,131.3c-4.91,0-9.71-.91-14.29-2.72-4.58-1.8-8.72-4.42-12.29-7.76-3.62-3.39-6.54-7.5-8.67-12.22-2.17-4.82-3.28-10.18-3.28-15.93s1.09-10.89,3.23-15.78c2.05-4.69,4.83-8.84,8.24-12.35,3.49-3.58,7.56-6.41,12.12-8.41,4.67-2.05,9.59-3.08,14.65-3.08,2.04,0,4.08.18,6.09.55v-14.02h46.39v89.45h-40.26c-3.9,1.5-7.9,2.26-11.94,2.26Zm28.8-25.26h.39v-43.45h-.39v43.45Zm-41.18-23.26c-.7,1.01-1.31,2.12-1.85,3.35-.87,1.99-1.29,4.13-1.29,6.54s.41,4.62,1.24,6.47c.54,1.2,1.17,2.27,1.9,3.22v-19.58Z"/><path class="cls-3" d="m441.09,129.04h-46.39V39.59h46.39v89.45Zm-23.39-23h.39v-43.45h-.39v43.45Z"/><path class="cls-3" d="m456.72,134.45c-.9,0-1.84-.05-2.9-.15-1.88-.19-3.68-.66-5.39-1.42-1.77-.79-3.33-1.81-4.68-3.06-2.79-2.56-4.33-6.16-4.33-10.12,0-4.23,1.84-8.15,5.04-10.75,1.8-1.46,3.87-2.44,6.09-2.9l-31.47-52.31h54.09l9.2,15.86c.32-.56.67-1.18,1.04-1.84.72-1.31,1.43-2.6,2.12-3.85.93-1.69,1.83-3.12,2.75-4.37,3.62-4.95,7.87-5.99,10.8-5.99,2.53,0,5,.7,7.34,2.07,4.09,2.41,6.52,6.63,6.52,11.29,0,1.97-.43,3.85-1.28,5.57l-.26.5c-.88,1.58-1.73,2.94-2.58,4.13-.45.62-.93,1.35-1.45,2.18-1.35,2.18-2.86,4.58-4.46,7.06-1.55,2.4-3.29,5.1-5.23,8.09-1.93,2.97-4.1,6.34-6.52,10.09-2.44,3.79-5.27,8.15-8.5,13.09l-.06.09c-.78,1.17-1.7,2.47-2.82,3.96-1.45,1.93-3.18,3.79-5.14,5.52-2.11,1.86-4.5,3.46-7.08,4.75-3.31,1.65-6.96,2.49-10.84,2.49Zm3.04-57.7l4.55,7.56-4.38-7.56h-.16Z"/><path class="cls-4" d="m1.5,127.54V1.5h62.87c2.68,0,5.51.03,8.66.08,2.81.05,5.64.08,8.41.08h18.2c4.71,0,8.71,2.34,10.68,6.27.97,1.96,1.45,3.96,1.45,6.01,0,7.55-5.48,13.03-13.03,13.03-1.23,0-2.76-.06-4.69-.17-1.54-.09-2.83-.13-3.81-.13h-21.86v4.42h34.3c7.2,0,12.43,5.29,12.43,12.58,0,5.98-3.15,9.08-5.02,10.39-2.21,1.55-4.96,2.34-8.16,2.34-.55,0-1.77-.02-3.64-.08-1.64-.05-3.74-.07-6.22-.07-2.77,0-5.81-.03-9.03-.08-3.28-.05-6.62-.08-9.93-.08h-4.71v71.45H1.5Z"/><path class="cls-4" d="m90.11,127.54V55.44h40.94c2.93-1.24,5.99-1.87,9.17-1.87,1.22,0,2.51.12,3.82.34,1.59.28,3.1.74,4.5,1.37,2.08.94,3.85,2.29,5.27,4.02,1.9,2.35,2.9,5.21,2.9,8.29,0,3.65-1.45,7.05-4.09,9.56-2.51,2.38-5.82,3.69-9.35,3.69-1.85,0-3.7-.42-5.74-1.33-.46.25-.89.58-1.34.99-.68.62-1.3,1.35-1.85,2.16-.29.42-.56.86-.82,1.3v43.56h-43.39Z"/><path class="cls-4" d="m143.09,127.54V59.27c-.7-1.86-.88-3.57-.88-4.84,0-3.27,1.12-9.4,8.59-13.65,3.88-2.21,8.65-3.33,14.19-3.33s10.24,1.08,14.09,3.22c7.56,4.2,8.69,10.24,8.69,13.46,0,1.51-.25,3.63-1.28,5.89v67.51h-43.39Z"/><path class="cls-4" d="m215.51,130.39c-4.98,0-9.83-.97-14.42-2.88-4.5-1.88-8.53-4.51-11.98-7.82-3.44-3.31-6.23-7.22-8.28-11.64-2.15-4.62-3.24-9.63-3.24-14.88s1.02-10.42,3.02-15.1c1.99-4.64,4.78-8.73,8.31-12.17,3.49-3.4,7.6-6.1,12.24-8.02,4.68-1.94,9.78-2.93,15.14-2.93,3.02,0,6.09.41,9.14,1.22,3.18.84,6.17,2.13,8.91,3.82,5.86,3.68,10.3,8.21,13.21,13.49,2.8,5.07,4.46,11.26,4.96,18.4l.05.68-.05.68c-.17,2.56-1.08,4.83-2.55,6.65.79,1.63,1.2,3.41,1.2,5.26,0,1.3-.22,2.59-.71,4.04l-.37,1.11-.61.99c-3.63,5.88-8.51,10.58-14.5,13.97-6.02,3.4-12.57,5.13-19.47,5.13Zm3.91-24.03c1.18-.35,2.31-.86,3.39-1.52.31-.19.62-.39.91-.6h-4.31v2.12Z"/><path class="cls-4" d="m242.37,127.54V55.44h43.39v1.16c4.2-1.42,8.46-2.14,12.71-2.14,3.13,0,6.23.46,9.22,1.36,3.16.96,6.06,2.4,8.62,4.29,2.83,2.1,5.14,4.79,6.85,7.99,1.8,3.37,2.71,7.2,2.71,11.4v48.04h-83.5Z"/><path class="cls-4" d="m352.72,129.8c-4.72,0-9.34-.88-13.74-2.61-4.41-1.74-8.38-4.25-11.82-7.46-3.48-3.25-6.28-7.21-8.33-11.74-2.09-4.62-3.14-9.77-3.14-15.32s1.04-10.48,3.1-15.17c1.98-4.52,4.65-8.53,7.94-11.91,3.35-3.44,7.27-6.16,11.65-8.08,4.47-1.96,9.2-2.96,14.05-2.96,2.55,0,5.09.3,7.59.89v-14.36h43.39v86.45h-39.04c-3.8,1.5-7.72,2.26-11.65,2.26Z"/><rect class="cls-4" x="396.19" y="41.09" width="43.39" height="86.45"/><path class="cls-4" d="m456.72,132.95c-.85,0-1.75-.05-2.75-.15-1.71-.17-3.37-.61-4.93-1.3-1.62-.72-3.04-1.65-4.27-2.79-2.48-2.28-3.85-5.49-3.85-9.01,0-3.78,1.63-7.27,4.48-9.58,2.18-1.77,4.81-2.75,7.62-2.86l-31.29-52.01h50.58l10.02,17.29.69-1.07c.5-.83,1.07-1.83,1.7-2.98.72-1.31,1.43-2.6,2.12-3.85.9-1.63,1.77-3.01,2.65-4.21,3.25-4.44,7.01-5.37,9.59-5.37,2.26,0,4.47.63,6.58,1.87,3.62,2.14,5.78,5.87,5.78,10,0,1.74-.38,3.39-1.13,4.91l-.11.22-.12.22c-.85,1.53-1.67,2.84-2.49,3.98-.47.65-.97,1.41-1.5,2.26-1.35,2.18-2.85,4.57-4.45,7.04-1.55,2.4-3.29,5.1-5.23,8.09-1.93,2.98-4.1,6.34-6.52,10.1-2.43,3.79-5.27,8.14-8.49,13.08-.81,1.21-1.74,2.52-2.83,3.97-1.39,1.85-3.05,3.63-4.93,5.29-2.02,1.78-4.29,3.3-6.76,4.54-3.1,1.55-6.52,2.33-10.17,2.33Z"/><g class="cls-2"><g class="cls-7"><rect class="cls-5" x="127.87" y="51.53" width=".3" height="57.19"/><rect class="cls-5" x="99.53" y="51.53" width=".3" height="57.19"/><rect class="cls-5" x="141.95" y="9.11" width="57.19" height=".3"/><rect class="cls-5" x="141.95" y="37.45" width="57.19" height=".3"/><rect class="cls-5" x="85.26" y="9.11" width="57.19" height=".3"/><rect class="cls-5" x="85.26" y="37.45" width="57.19" height=".3"/><rect class="cls-5" x="127.87" y="-5.17" width=".3" height="57.19"/><rect class="cls-5" x="99.53" y="-5.17" width=".3" height="57.19"/><rect class="cls-5" x="28.56" y="9.11" width="57.19" height=".3"/><rect class="cls-5" x="28.56" y="37.45" width="57.19" height=".3"/></g><g class="cls-10"><rect class="cls-5" x="127.87" y="108.22" width=".3" height="57.19"/><rect class="cls-5" x="99.53" y="108.22" width=".3" height="57.19"/><rect class="cls-5" x="141.95" y="65.8" width="57.19" height=".3"/><rect class="cls-5" x="141.95" y="94.14" width="57.19" height=".3"/><rect class="cls-5" x="85.26" y="65.8" width="57.19" height=".3"/><rect class="cls-5" x="85.26" y="94.14" width="57.19" height=".3"/><rect class="cls-5" x="127.87" y="51.53" width=".3" height="57.19"/><rect class="cls-5" x="99.53" y="51.53" width=".3" height="57.19"/><rect class="cls-5" x="28.56" y="65.8" width="57.19" height=".3"/><rect class="cls-5" x="28.56" y="94.14" width="57.19" height=".3"/><rect class="cls-5" x="127.87" y="-5.17" width=".3" height="57.19"/><rect class="cls-5" x="99.53" y="-5.17" width=".3" height="57.19"/></g><g class="cls-9"><rect class="cls-5" x="141.95" y="122.49" width="57.19" height=".3"/><rect class="cls-5" x="85.26" y="122.49" width="57.19" height=".3"/><rect class="cls-5" x="127.87" y="108.22" width=".3" height="57.19"/><rect class="cls-5" x="99.53" y="108.22" width=".3" height="57.19"/><rect class="cls-5" x="28.56" y="122.49" width="57.19" height=".3"/><rect class="cls-5" x="127.87" y="51.53" width=".3" height="57.19"/><rect class="cls-5" x="99.53" y="51.53" width=".3" height="57.19"/></g><g class="cls-8"><rect class="cls-5" x="71.18" y="51.53" width=".3" height="57.19"/><rect class="cls-5" x="42.84" y="51.53" width=".3" height="57.19"/><rect class="cls-5" x="85.26" y="9.11" width="57.19" height=".3"/><rect class="cls-5" x="85.26" y="37.45" width="57.19" height=".3"/><rect class="cls-5" x="28.56" y="9.11" width="57.19" height=".3"/><rect class="cls-5" x="28.56" y="37.45" width="57.19" height=".3"/><rect class="cls-5" x="71.18" y="-5.17" width=".3" height="57.19"/><rect class="cls-5" x="42.84" y="-5.17" width=".3" height="57.19"/><rect class="cls-5" x="-28.13" y="9.11" width="57.19" height=".3"/><rect class="cls-5" x="-28.13" y="37.45" width="57.19" height=".3"/></g><g class="cls-14"><rect class="cls-5" x="71.18" y="108.22" width=".3" height="57.19"/><rect class="cls-5" x="42.84" y="108.22" width=".3" height="57.19"/><rect class="cls-5" x="85.26" y="65.8" width="57.19" height=".3"/><rect class="cls-5" x="85.26" y="94.14" width="57.19" height=".3"/><rect class="cls-5" x="28.56" y="65.8" width="57.19" height=".3"/><rect class="cls-5" x="28.56" y="94.14" width="57.19" height=".3"/><rect class="cls-5" x="71.18" y="51.53" width=".3" height="57.19"/><rect class="cls-5" x="42.84" y="51.53" width=".3" height="57.19"/><rect class="cls-5" x="-28.13" y="65.8" width="57.19" height=".3"/><rect class="cls-5" x="-28.13" y="94.14" width="57.19" height=".3"/><rect class="cls-5" x="71.18" y="-5.17" width=".3" height="57.19"/><rect class="cls-5" x="42.84" y="-5.17" width=".3" height="57.19"/></g><g class="cls-13"><rect class="cls-5" x="85.26" y="122.49" width="57.19" height=".3"/><rect class="cls-5" x="28.56" y="122.49" width="57.19" height=".3"/><rect class="cls-5" x="71.18" y="108.22" width=".3" height="57.19"/><rect class="cls-5" x="42.84" y="108.22" width=".3" height="57.19"/><rect class="cls-5" x="-28.13" y="122.49" width="57.19" height=".3"/><rect class="cls-5" x="71.18" y="51.53" width=".3" height="57.19"/><rect class="cls-5" x="42.84" y="51.53" width=".3" height="57.19"/></g><g class="cls-11"><rect class="cls-5" x="14.49" y="51.53" width=".3" height="57.19"/><rect class="cls-5" x="28.56" y="9.11" width="57.19" height=".3"/><rect class="cls-5" x="28.56" y="37.45" width="57.19" height=".3"/><rect class="cls-5" x="-28.13" y="9.11" width="57.19" height=".3"/><rect class="cls-5" x="-28.13" y="37.45" width="57.19" height=".3"/><rect class="cls-5" x="14.49" y="-5.17" width=".3" height="57.19"/></g><g class="cls-12"><rect class="cls-5" x="14.49" y="108.22" width=".3" height="57.19"/><rect class="cls-5" x="28.56" y="65.8" width="57.19" height=".3"/><rect class="cls-5" x="28.56" y="94.14" width="57.19" height=".3"/><rect class="cls-5" x="-28.13" y="65.8" width="57.19" height=".3"/><rect class="cls-5" x="-28.13" y="94.14" width="57.19" height=".3"/><rect class="cls-5" x="14.49" y="51.53" width=".3" height="57.19"/><rect class="cls-5" x="14.49" y="-5.17" width=".3" height="57.19"/></g><g class="cls-15"><rect class="cls-5" x="28.56" y="122.49" width="57.19" height=".3"/><rect class="cls-5" x="-28.13" y="122.49" width="57.19" height=".3"/><rect class="cls-5" x="14.49" y="108.22" width=".3" height="57.19"/><rect class="cls-5" x="14.49" y="51.53" width=".3" height="57.19"/></g></g><g class="cls-52"><g class="cls-57"><rect class="cls-5" x="184.57" y="108.22" width=".3" height="57.19"/><rect class="cls-5" x="156.22" y="108.22" width=".3" height="57.19"/><rect class="cls-5" x="198.64" y="65.8" width="57.19" height=".3"/><rect class="cls-5" x="198.64" y="94.14" width="57.19" height=".3"/><rect class="cls-5" x="141.95" y="65.8" width="57.19" height=".3"/><rect class="cls-5" x="141.95" y="94.14" width="57.19" height=".3"/><rect class="cls-5" x="184.57" y="51.53" width=".3" height="57.19"/><rect class="cls-5" x="156.22" y="51.53" width=".3" height="57.19"/><rect class="cls-5" x="85.26" y="65.8" width="57.19" height=".3"/><rect class="cls-5" x="85.26" y="94.14" width="57.19" height=".3"/><rect class="cls-5" x="184.57" y="-5.17" width=".3" height="57.19"/><rect class="cls-5" x="156.22" y="-5.17" width=".3" height="57.19"/></g><g class="cls-51"><rect class="cls-5" x="198.64" y="122.49" width="57.19" height=".3"/><rect class="cls-5" x="141.95" y="122.49" width="57.19" height=".3"/><rect class="cls-5" x="184.57" y="108.22" width=".3" height="57.19"/><rect class="cls-5" x="156.22" y="108.22" width=".3" height="57.19"/><rect class="cls-5" x="85.26" y="122.49" width="57.19" height=".3"/><rect class="cls-5" x="184.57" y="51.53" width=".3" height="57.19"/><rect class="cls-5" x="156.22" y="51.53" width=".3" height="57.19"/></g><g class="cls-50"><rect class="cls-5" x="127.87" y="108.22" width=".3" height="57.19"/><rect class="cls-5" x="99.53" y="108.22" width=".3" height="57.19"/><rect class="cls-5" x="141.95" y="65.8" width="57.19" height=".3"/><rect class="cls-5" x="141.95" y="94.14" width="57.19" height=".3"/><rect class="cls-5" x="85.26" y="65.8" width="57.19" height=".3"/><rect class="cls-5" x="85.26" y="94.14" width="57.19" height=".3"/><rect class="cls-5" x="127.87" y="51.53" width=".3" height="57.19"/><rect class="cls-5" x="99.53" y="51.53" width=".3" height="57.19"/><rect class="cls-5" x="28.56" y="65.8" width="57.19" height=".3"/><rect class="cls-5" x="28.56" y="94.14" width="57.19" height=".3"/><rect class="cls-5" x="127.87" y="-5.17" width=".3" height="57.19"/><rect class="cls-5" x="99.53" y="-5.17" width=".3" height="57.19"/></g><g class="cls-49"><rect class="cls-5" x="141.95" y="122.49" width="57.19" height=".3"/><rect class="cls-5" x="85.26" y="122.49" width="57.19" height=".3"/><rect class="cls-5" x="127.87" y="108.22" width=".3" height="57.19"/><rect class="cls-5" x="99.53" y="108.22" width=".3" height="57.19"/><rect class="cls-5" x="28.56" y="122.49" width="57.19" height=".3"/><rect class="cls-5" x="127.87" y="51.53" width=".3" height="57.19"/><rect class="cls-5" x="99.53" y="51.53" width=".3" height="57.19"/></g></g><g class="cls-53"><g class="cls-55"><rect class="cls-5" x="184.57" y="51.53" width=".3" height="57.19"/><rect class="cls-5" x="156.22" y="51.53" width=".3" height="57.19"/><rect class="cls-5" x="198.64" y="9.11" width="57.19" height=".3"/><rect class="cls-5" x="198.64" y="37.45" width="57.19" height=".3"/><rect class="cls-5" x="141.95" y="9.11" width="57.19" height=".3"/><rect class="cls-5" x="141.95" y="37.45" width="57.19" height=".3"/><rect class="cls-5" x="184.57" y="-5.17" width=".3" height="57.19"/><rect class="cls-5" x="156.22" y="-5.17" width=".3" height="57.19"/><rect class="cls-5" x="85.26" y="9.11" width="57.19" height=".3"/><rect class="cls-5" x="85.26" y="37.45" width="57.19" height=".3"/></g><g class="cls-54"><rect class="cls-5" x="184.57" y="108.22" width=".3" height="57.19"/><rect class="cls-5" x="156.22" y="108.22" width=".3" height="57.19"/><rect class="cls-5" x="198.64" y="65.8" width="57.19" height=".3"/><rect class="cls-5" x="198.64" y="94.14" width="57.19" height=".3"/><rect class="cls-5" x="141.95" y="65.8" width="57.19" height=".3"/><rect class="cls-5" x="141.95" y="94.14" width="57.19" height=".3"/><rect class="cls-5" x="184.57" y="51.53" width=".3" height="57.19"/><rect class="cls-5" x="156.22" y="51.53" width=".3" height="57.19"/><rect class="cls-5" x="85.26" y="65.8" width="57.19" height=".3"/><rect class="cls-5" x="85.26" y="94.14" width="57.19" height=".3"/><rect class="cls-5" x="184.57" y="-5.17" width=".3" height="57.19"/><rect class="cls-5" x="156.22" y="-5.17" width=".3" height="57.19"/></g><g class="cls-58"><rect class="cls-5" x="198.64" y="122.49" width="57.19" height=".3"/><rect class="cls-5" x="141.95" y="122.49" width="57.19" height=".3"/><rect class="cls-5" x="184.57" y="108.22" width=".3" height="57.19"/><rect class="cls-5" x="156.22" y="108.22" width=".3" height="57.19"/><rect class="cls-5" x="85.26" y="122.49" width="57.19" height=".3"/><rect class="cls-5" x="184.57" y="51.53" width=".3" height="57.19"/><rect class="cls-5" x="156.22" y="51.53" width=".3" height="57.19"/></g></g><g class="cls-56"><g class="cls-16"><rect class="cls-5" x="241.26" y="108.22" width=".3" height="57.19"/><rect class="cls-5" x="212.91" y="108.22" width=".3" height="57.19"/><rect class="cls-5" x="255.33" y="65.8" width="57.19" height=".3"/><rect class="cls-5" x="255.33" y="94.14" width="57.19" height=".3"/><rect class="cls-5" x="198.64" y="65.8" width="57.19" height=".3"/><rect class="cls-5" x="198.64" y="94.14" width="57.19" height=".3"/><rect class="cls-5" x="241.26" y="51.53" width=".3" height="57.19"/><rect class="cls-5" x="212.91" y="51.53" width=".3" height="57.19"/><rect class="cls-5" x="141.95" y="65.8" width="57.19" height=".3"/><rect class="cls-5" x="141.95" y="94.14" width="57.19" height=".3"/><rect class="cls-5" x="241.26" y="-5.17" width=".3" height="57.19"/><rect class="cls-5" x="212.91" y="-5.17" width=".3" height="57.19"/></g><g class="cls-17"><rect class="cls-5" x="255.33" y="122.49" width="57.19" height=".3"/><rect class="cls-5" x="198.64" y="122.49" width="57.19" height=".3"/><rect class="cls-5" x="241.26" y="108.22" width=".3" height="57.19"/><rect class="cls-5" x="212.91" y="108.22" width=".3" height="57.19"/><rect class="cls-5" x="141.95" y="122.49" width="57.19" height=".3"/><rect class="cls-5" x="241.26" y="51.53" width=".3" height="57.19"/><rect class="cls-5" x="212.91" y="51.53" width=".3" height="57.19"/></g><g class="cls-20"><rect class="cls-5" x="184.57" y="108.22" width=".3" height="57.19"/><rect class="cls-5" x="156.22" y="108.22" width=".3" height="57.19"/><rect class="cls-5" x="198.64" y="65.8" width="57.19" height=".3"/><rect class="cls-5" x="198.64" y="94.14" width="57.19" height=".3"/><rect class="cls-5" x="141.95" y="65.8" width="57.19" height=".3"/><rect class="cls-5" x="141.95" y="94.14" width="57.19" height=".3"/><rect class="cls-5" x="184.57" y="51.53" width=".3" height="57.19"/><rect class="cls-5" x="156.22" y="51.53" width=".3" height="57.19"/><rect class="cls-5" x="85.26" y="65.8" width="57.19" height=".3"/><rect class="cls-5" x="85.26" y="94.14" width="57.19" height=".3"/><rect class="cls-5" x="184.57" y="-5.17" width=".3" height="57.19"/><rect class="cls-5" x="156.22" y="-5.17" width=".3" height="57.19"/></g><g class="cls-19"><rect class="cls-5" x="198.64" y="122.49" width="57.19" height=".3"/><rect class="cls-5" x="141.95" y="122.49" width="57.19" height=".3"/><rect class="cls-5" x="184.57" y="108.22" width=".3" height="57.19"/><rect class="cls-5" x="156.22" y="108.22" width=".3" height="57.19"/><rect class="cls-5" x="85.26" y="122.49" width="57.19" height=".3"/><rect class="cls-5" x="184.57" y="51.53" width=".3" height="57.19"/><rect class="cls-5" x="156.22" y="51.53" width=".3" height="57.19"/></g><g class="cls-18"><rect class="cls-5" x="241.26" y="108.22" width=".3" height="57.19"/><rect class="cls-5" x="212.91" y="108.22" width=".3" height="57.19"/><rect class="cls-5" x="255.33" y="65.8" width="57.19" height=".3"/><rect class="cls-5" x="255.33" y="94.14" width="57.19" height=".3"/><rect class="cls-5" x="198.64" y="65.8" width="57.19" height=".3"/><rect class="cls-5" x="198.64" y="94.14" width="57.19" height=".3"/><rect class="cls-5" x="241.26" y="51.53" width=".3" height="57.19"/><rect class="cls-5" x="212.91" y="51.53" width=".3" height="57.19"/><rect class="cls-5" x="141.95" y="65.8" width="57.19" height=".3"/><rect class="cls-5" x="141.95" y="94.14" width="57.19" height=".3"/><rect class="cls-5" x="241.26" y="-5.17" width=".3" height="57.19"/><rect class="cls-5" x="212.91" y="-5.17" width=".3" height="57.19"/></g></g><g class="cls-21"><g class="cls-34"><rect class="cls-5" x="354.64" y="108.22" width=".3" height="57.19"/><rect class="cls-5" x="326.29" y="108.22" width=".3" height="57.19"/><rect class="cls-5" x="368.71" y="65.8" width="57.19" height=".3"/><rect class="cls-5" x="368.71" y="94.14" width="57.19" height=".3"/><rect class="cls-5" x="312.02" y="65.8" width="57.19" height=".3"/><rect class="cls-5" x="312.02" y="94.14" width="57.19" height=".3"/><rect class="cls-5" x="354.64" y="51.53" width=".3" height="57.19"/><rect class="cls-5" x="326.29" y="51.53" width=".3" height="57.19"/><rect class="cls-5" x="255.33" y="65.8" width="57.19" height=".3"/><rect class="cls-5" x="255.33" y="94.14" width="57.19" height=".3"/><rect class="cls-5" x="354.64" y="-5.17" width=".3" height="57.19"/><rect class="cls-5" x="326.29" y="-5.17" width=".3" height="57.19"/></g><g class="cls-32"><rect class="cls-5" x="368.71" y="122.49" width="57.19" height=".3"/><rect class="cls-5" x="312.02" y="122.49" width="57.19" height=".3"/><rect class="cls-5" x="354.64" y="108.22" width=".3" height="57.19"/><rect class="cls-5" x="326.29" y="108.22" width=".3" height="57.19"/><rect class="cls-5" x="255.33" y="122.49" width="57.19" height=".3"/><rect class="cls-5" x="354.64" y="51.53" width=".3" height="57.19"/><rect class="cls-5" x="326.29" y="51.53" width=".3" height="57.19"/></g><g class="cls-33"><rect class="cls-5" x="297.95" y="108.22" width=".3" height="57.19"/><rect class="cls-5" x="269.6" y="108.22" width=".3" height="57.19"/><rect class="cls-5" x="312.02" y="65.8" width="57.19" height=".3"/><rect class="cls-5" x="312.02" y="94.14" width="57.19" height=".3"/><rect class="cls-5" x="255.33" y="65.8" width="57.19" height=".3"/><rect class="cls-5" x="255.33" y="94.14" width="57.19" height=".3"/><rect class="cls-5" x="297.95" y="51.53" width=".3" height="57.19"/><rect class="cls-5" x="269.6" y="51.53" width=".3" height="57.19"/><rect class="cls-5" x="198.64" y="65.8" width="57.19" height=".3"/><rect class="cls-5" x="198.64" y="94.14" width="57.19" height=".3"/><rect class="cls-5" x="297.95" y="-5.17" width=".3" height="57.19"/><rect class="cls-5" x="269.6" y="-5.17" width=".3" height="57.19"/></g><g class="cls-35"><rect class="cls-5" x="312.02" y="122.49" width="57.19" height=".3"/><rect class="cls-5" x="255.33" y="122.49" width="57.19" height=".3"/><rect class="cls-5" x="297.95" y="108.22" width=".3" height="57.19"/><rect class="cls-5" x="269.6" y="108.22" width=".3" height="57.19"/><rect class="cls-5" x="198.64" y="122.49" width="57.19" height=".3"/><rect class="cls-5" x="297.95" y="51.53" width=".3" height="57.19"/><rect class="cls-5" x="269.6" y="51.53" width=".3" height="57.19"/></g><g class="cls-43"><rect class="cls-5" x="241.26" y="108.22" width=".3" height="57.19"/><rect class="cls-5" x="212.91" y="108.22" width=".3" height="57.19"/><rect class="cls-5" x="255.33" y="65.8" width="57.19" height=".3"/><rect class="cls-5" x="255.33" y="94.14" width="57.19" height=".3"/><rect class="cls-5" x="198.64" y="65.8" width="57.19" height=".3"/><rect class="cls-5" x="198.64" y="94.14" width="57.19" height=".3"/><rect class="cls-5" x="241.26" y="51.53" width=".3" height="57.19"/><rect class="cls-5" x="212.91" y="51.53" width=".3" height="57.19"/><rect class="cls-5" x="141.95" y="65.8" width="57.19" height=".3"/><rect class="cls-5" x="141.95" y="94.14" width="57.19" height=".3"/><rect class="cls-5" x="241.26" y="-5.17" width=".3" height="57.19"/><rect class="cls-5" x="212.91" y="-5.17" width=".3" height="57.19"/></g><g class="cls-45"><rect class="cls-5" x="255.33" y="122.49" width="57.19" height=".3"/><rect class="cls-5" x="198.64" y="122.49" width="57.19" height=".3"/><rect class="cls-5" x="241.26" y="108.22" width=".3" height="57.19"/><rect class="cls-5" x="212.91" y="108.22" width=".3" height="57.19"/><rect class="cls-5" x="141.95" y="122.49" width="57.19" height=".3"/><rect class="cls-5" x="241.26" y="51.53" width=".3" height="57.19"/><rect class="cls-5" x="212.91" y="51.53" width=".3" height="57.19"/></g></g><g class="cls-42"><g class="cls-41"><rect class="cls-5" x="411.33" y="51.53" width=".3" height="57.19"/><rect class="cls-5" x="382.98" y="51.53" width=".3" height="57.19"/><rect class="cls-5" x="425.4" y="9.11" width="57.19" height=".3"/><rect class="cls-5" x="425.4" y="37.45" width="57.19" height=".3"/><rect class="cls-5" x="368.71" y="9.11" width="57.19" height=".3"/><rect class="cls-5" x="368.71" y="37.45" width="57.19" height=".3"/><rect class="cls-5" x="411.33" y="-5.17" width=".3" height="57.19"/><rect class="cls-5" x="382.98" y="-5.17" width=".3" height="57.19"/><rect class="cls-5" x="312.02" y="9.11" width="57.19" height=".3"/><rect class="cls-5" x="312.02" y="37.45" width="57.19" height=".3"/></g><g class="cls-36"><rect class="cls-5" x="411.33" y="108.22" width=".3" height="57.19"/><rect class="cls-5" x="382.98" y="108.22" width=".3" height="57.19"/><rect class="cls-5" x="425.4" y="65.8" width="57.19" height=".3"/><rect class="cls-5" x="425.4" y="94.14" width="57.19" height=".3"/><rect class="cls-5" x="368.71" y="65.8" width="57.19" height=".3"/><rect class="cls-5" x="368.71" y="94.14" width="57.19" height=".3"/><rect class="cls-5" x="411.33" y="51.53" width=".3" height="57.19"/><rect class="cls-5" x="382.98" y="51.53" width=".3" height="57.19"/><rect class="cls-5" x="312.02" y="65.8" width="57.19" height=".3"/><rect class="cls-5" x="312.02" y="94.14" width="57.19" height=".3"/><rect class="cls-5" x="411.33" y="-5.17" width=".3" height="57.19"/><rect class="cls-5" x="382.98" y="-5.17" width=".3" height="57.19"/></g><g class="cls-37"><rect class="cls-5" x="425.4" y="122.49" width="57.19" height=".3"/><rect class="cls-5" x="368.71" y="122.49" width="57.19" height=".3"/><rect class="cls-5" x="411.33" y="108.22" width=".3" height="57.19"/><rect class="cls-5" x="382.98" y="108.22" width=".3" height="57.19"/><rect class="cls-5" x="312.02" y="122.49" width="57.19" height=".3"/><rect class="cls-5" x="411.33" y="51.53" width=".3" height="57.19"/><rect class="cls-5" x="382.98" y="51.53" width=".3" height="57.19"/></g><g class="cls-38"><rect class="cls-5" x="354.64" y="51.53" width=".3" height="57.19"/><rect class="cls-5" x="326.29" y="51.53" width=".3" height="57.19"/><rect class="cls-5" x="368.71" y="9.11" width="57.19" height=".3"/><rect class="cls-5" x="368.71" y="37.45" width="57.19" height=".3"/><rect class="cls-5" x="312.02" y="9.11" width="57.19" height=".3"/><rect class="cls-5" x="312.02" y="37.45" width="57.19" height=".3"/><rect class="cls-5" x="354.64" y="-5.17" width=".3" height="57.19"/><rect class="cls-5" x="326.29" y="-5.17" width=".3" height="57.19"/><rect class="cls-5" x="255.33" y="9.11" width="57.19" height=".3"/><rect class="cls-5" x="255.33" y="37.45" width="57.19" height=".3"/></g><g class="cls-39"><rect class="cls-5" x="354.64" y="108.22" width=".3" height="57.19"/><rect class="cls-5" x="326.29" y="108.22" width=".3" height="57.19"/><rect class="cls-5" x="368.71" y="65.8" width="57.19" height=".3"/><rect class="cls-5" x="368.71" y="94.14" width="57.19" height=".3"/><rect class="cls-5" x="312.02" y="65.8" width="57.19" height=".3"/><rect class="cls-5" x="312.02" y="94.14" width="57.19" height=".3"/><rect class="cls-5" x="354.64" y="51.53" width=".3" height="57.19"/><rect class="cls-5" x="326.29" y="51.53" width=".3" height="57.19"/><rect class="cls-5" x="255.33" y="65.8" width="57.19" height=".3"/><rect class="cls-5" x="255.33" y="94.14" width="57.19" height=".3"/><rect class="cls-5" x="354.64" y="-5.17" width=".3" height="57.19"/><rect class="cls-5" x="326.29" y="-5.17" width=".3" height="57.19"/></g><g class="cls-44"><rect class="cls-5" x="368.71" y="122.49" width="57.19" height=".3"/><rect class="cls-5" x="312.02" y="122.49" width="57.19" height=".3"/><rect class="cls-5" x="354.64" y="108.22" width=".3" height="57.19"/><rect class="cls-5" x="326.29" y="108.22" width=".3" height="57.19"/><rect class="cls-5" x="255.33" y="122.49" width="57.19" height=".3"/><rect class="cls-5" x="354.64" y="51.53" width=".3" height="57.19"/><rect class="cls-5" x="326.29" y="51.53" width=".3" height="57.19"/></g></g><g class="cls-40"><g class="cls-24"><rect class="cls-5" x="468.02" y="51.53" width=".3" height="57.19"/><rect class="cls-5" x="439.67" y="51.53" width=".3" height="57.19"/><rect class="cls-5" x="482.09" y="9.11" width="57.19" height=".3"/><rect class="cls-5" x="482.09" y="37.45" width="57.19" height=".3"/><rect class="cls-5" x="425.4" y="9.11" width="57.19" height=".3"/><rect class="cls-5" x="425.4" y="37.45" width="57.19" height=".3"/><rect class="cls-5" x="468.02" y="-5.17" width=".3" height="57.19"/><rect class="cls-5" x="439.67" y="-5.17" width=".3" height="57.19"/><rect class="cls-5" x="368.71" y="9.11" width="57.19" height=".3"/><rect class="cls-5" x="368.71" y="37.45" width="57.19" height=".3"/></g><g class="cls-26"><rect class="cls-5" x="468.02" y="108.22" width=".3" height="57.19"/><rect class="cls-5" x="439.67" y="108.22" width=".3" height="57.19"/><rect class="cls-5" x="482.09" y="65.8" width="57.19" height=".3"/><rect class="cls-5" x="482.09" y="94.14" width="57.19" height=".3"/><rect class="cls-5" x="425.4" y="65.8" width="57.19" height=".3"/><rect class="cls-5" x="425.4" y="94.14" width="57.19" height=".3"/><rect class="cls-5" x="468.02" y="51.53" width=".3" height="57.19"/><rect class="cls-5" x="439.67" y="51.53" width=".3" height="57.19"/><rect class="cls-5" x="368.71" y="65.8" width="57.19" height=".3"/><rect class="cls-5" x="368.71" y="94.14" width="57.19" height=".3"/><rect class="cls-5" x="468.02" y="-5.17" width=".3" height="57.19"/><rect class="cls-5" x="439.67" y="-5.17" width=".3" height="57.19"/></g><g class="cls-25"><rect class="cls-5" x="482.09" y="122.49" width="57.19" height=".3"/><rect class="cls-5" x="425.4" y="122.49" width="57.19" height=".3"/><rect class="cls-5" x="468.02" y="108.22" width=".3" height="57.19"/><rect class="cls-5" x="439.67" y="108.22" width=".3" height="57.19"/><rect class="cls-5" x="368.71" y="122.49" width="57.19" height=".3"/><rect class="cls-5" x="468.02" y="51.53" width=".3" height="57.19"/><rect class="cls-5" x="439.67" y="51.53" width=".3" height="57.19"/></g><g class="cls-28"><rect class="cls-5" x="411.33" y="51.53" width=".3" height="57.19"/><rect class="cls-5" x="382.98" y="51.53" width=".3" height="57.19"/><rect class="cls-5" x="425.4" y="9.11" width="57.19" height=".3"/><rect class="cls-5" x="425.4" y="37.45" width="57.19" height=".3"/><rect class="cls-5" x="368.71" y="9.11" width="57.19" height=".3"/><rect class="cls-5" x="368.71" y="37.45" width="57.19" height=".3"/><rect class="cls-5" x="411.33" y="-5.17" width=".3" height="57.19"/><rect class="cls-5" x="382.98" y="-5.17" width=".3" height="57.19"/><rect class="cls-5" x="312.02" y="9.11" width="57.19" height=".3"/><rect class="cls-5" x="312.02" y="37.45" width="57.19" height=".3"/></g><g class="cls-22"><rect class="cls-5" x="411.33" y="108.22" width=".3" height="57.19"/><rect class="cls-5" x="382.98" y="108.22" width=".3" height="57.19"/><rect class="cls-5" x="425.4" y="65.8" width="57.19" height=".3"/><rect class="cls-5" x="425.4" y="94.14" width="57.19" height=".3"/><rect class="cls-5" x="368.71" y="65.8" width="57.19" height=".3"/><rect class="cls-5" x="368.71" y="94.14" width="57.19" height=".3"/><rect class="cls-5" x="411.33" y="51.53" width=".3" height="57.19"/><rect class="cls-5" x="382.98" y="51.53" width=".3" height="57.19"/><rect class="cls-5" x="312.02" y="65.8" width="57.19" height=".3"/><rect class="cls-5" x="312.02" y="94.14" width="57.19" height=".3"/><rect class="cls-5" x="411.33" y="-5.17" width=".3" height="57.19"/><rect class="cls-5" x="382.98" y="-5.17" width=".3" height="57.19"/></g><g class="cls-23"><rect class="cls-5" x="425.4" y="122.49" width="57.19" height=".3"/><rect class="cls-5" x="368.71" y="122.49" width="57.19" height=".3"/><rect class="cls-5" x="411.33" y="108.22" width=".3" height="57.19"/><rect class="cls-5" x="382.98" y="108.22" width=".3" height="57.19"/><rect class="cls-5" x="312.02" y="122.49" width="57.19" height=".3"/><rect class="cls-5" x="411.33" y="51.53" width=".3" height="57.19"/><rect class="cls-5" x="382.98" y="51.53" width=".3" height="57.19"/></g></g><g class="cls-29"><g class="cls-27"><rect class="cls-5" x="496.36" y="108.22" width=".3" height="57.19"/><rect class="cls-5" x="482.09" y="65.8" width="57.19" height=".3"/><rect class="cls-5" x="482.09" y="94.14" width="57.19" height=".3"/><rect class="cls-5" x="496.36" y="51.53" width=".3" height="57.19"/><rect class="cls-5" x="425.4" y="65.8" width="57.19" height=".3"/><rect class="cls-5" x="425.4" y="94.14" width="57.19" height=".3"/><rect class="cls-5" x="496.36" y="-5.17" width=".3" height="57.19"/></g><g class="cls-30"><rect class="cls-5" x="482.09" y="122.49" width="57.19" height=".3"/><rect class="cls-5" x="496.36" y="108.22" width=".3" height="57.19"/><rect class="cls-5" x="425.4" y="122.49" width="57.19" height=".3"/><rect class="cls-5" x="496.36" y="51.53" width=".3" height="57.19"/></g><g class="cls-31"><rect class="cls-5" x="468.02" y="108.22" width=".3" height="57.19"/><rect class="cls-5" x="439.67" y="108.22" width=".3" height="57.19"/><rect class="cls-5" x="482.09" y="65.8" width="57.19" height=".3"/><rect class="cls-5" x="482.09" y="94.14" width="57.19" height=".3"/><rect class="cls-5" x="425.4" y="65.8" width="57.19" height=".3"/><rect class="cls-5" x="425.4" y="94.14" width="57.19" height=".3"/><rect class="cls-5" x="468.02" y="51.53" width=".3" height="57.19"/><rect class="cls-5" x="439.67" y="51.53" width=".3" height="57.19"/><rect class="cls-5" x="368.71" y="65.8" width="57.19" height=".3"/><rect class="cls-5" x="368.71" y="94.14" width="57.19" height=".3"/><rect class="cls-5" x="468.02" y="-5.17" width=".3" height="57.19"/><rect class="cls-5" x="439.67" y="-5.17" width=".3" height="57.19"/></g><g class="cls-46"><rect class="cls-5" x="482.09" y="122.49" width="57.19" height=".3"/><rect class="cls-5" x="425.4" y="122.49" width="57.19" height=".3"/><rect class="cls-5" x="468.02" y="108.22" width=".3" height="57.19"/><rect class="cls-5" x="439.67" y="108.22" width=".3" height="57.19"/><rect class="cls-5" x="368.71" y="122.49" width="57.19" height=".3"/><rect class="cls-5" x="468.02" y="51.53" width=".3" height="57.19"/><rect class="cls-5" x="439.67" y="51.53" width=".3" height="57.19"/></g><g class="cls-47"><rect class="cls-5" x="411.33" y="108.22" width=".3" height="57.19"/><rect class="cls-5" x="382.98" y="108.22" width=".3" height="57.19"/><rect class="cls-5" x="425.4" y="65.8" width="57.19" height=".3"/><rect class="cls-5" x="425.4" y="94.14" width="57.19" height=".3"/><rect class="cls-5" x="368.71" y="65.8" width="57.19" height=".3"/><rect class="cls-5" x="368.71" y="94.14" width="57.19" height=".3"/><rect class="cls-5" x="411.33" y="51.53" width=".3" height="57.19"/><rect class="cls-5" x="382.98" y="51.53" width=".3" height="57.19"/><rect class="cls-5" x="312.02" y="65.8" width="57.19" height=".3"/><rect class="cls-5" x="312.02" y="94.14" width="57.19" height=".3"/><rect class="cls-5" x="411.33" y="-5.17" width=".3" height="57.19"/><rect class="cls-5" x="382.98" y="-5.17" width=".3" height="57.19"/></g><g class="cls-48"><rect class="cls-5" x="425.4" y="122.49" width="57.19" height=".3"/><rect class="cls-5" x="368.71" y="122.49" width="57.19" height=".3"/><rect class="cls-5" x="411.33" y="108.22" width=".3" height="57.19"/><rect class="cls-5" x="382.98" y="108.22" width=".3" height="57.19"/><rect class="cls-5" x="312.02" y="122.49" width="57.19" height=".3"/><rect class="cls-5" x="411.33" y="51.53" width=".3" height="57.19"/><rect class="cls-5" x="382.98" y="51.53" width=".3" height="57.19"/></g></g><path class="cls-3" d="m59.88,119.04H10V10h54.37c2.63,0,5.42.02,8.52.08,2.85.05,5.73.08,8.55.08h18.2c1.89,0,2.72.86,3.08,1.58.36.72.54,1.46.54,2.19,0,2.84-1.69,4.53-4.53,4.53-1.05,0-2.46-.05-4.18-.15-1.74-.1-3.15-.15-4.31-.15h-30.36v21.42h42.8c2.46,0,3.93,1.52,3.93,4.08,0,1.62-.47,2.78-1.4,3.43-.77.54-1.85.8-3.29.8-.51,0-1.64-.02-3.38-.08-3.57-.1-9.21-.05-15.38-.15-3.33-.05-6.71-.08-10.06-.08h-8.12c-1.84,0-3.55.03-5.1.09v71.37Zm-46.88-3h43.88V44.82l1.42-.07c1.96-.1,4.21-.15,6.68-.15h8.12c3.37,0,6.77.03,10.11.08,6.18.1,11.82.05,15.42.15,1.7.05,2.79.08,3.29.08,1.11,0,1.49-.21,1.56-.26h0s.12-.24.12-.97c0-1.04-.28-1.08-.93-1.08h-45.8V15.16h33.36c1.22,0,2.69.05,4.49.16,1.67.1,3.02.15,4.01.15,1.19,0,1.53-.34,1.53-1.53,0-.23-.05-.47-.17-.73-.07-.02-.22-.04-.46-.04h-18.2c-2.84,0-5.73-.03-8.6-.08-3.08-.05-5.85-.08-8.47-.08H13v103.04Z"/><path class="cls-3" d="m125,119.04h-26.39v-55.1h26.39v6.77c1.65-1.9,3.42-3.59,5.3-5.03,3.11-2.39,6.44-3.6,9.91-3.6.74,0,1.54.07,2.37.22.88.15,1.71.41,2.47.75.86.39,1.59.94,2.17,1.65.65.8.98,1.78.98,2.92,0,1.32-.5,2.5-1.45,3.4-.94.89-2.12,1.35-3.49,1.35-.78,0-1.71-.28-2.93-.9-.78-.39-1.56-.58-2.38-.58-1.4,0-2.72.3-3.91.88-1.27.62-2.49,1.46-3.62,2.51-1.15,1.06-2.2,2.28-3.12,3.62-.87,1.28-1.64,2.62-2.3,4.01v37.14Zm-23.39-3h20.39v-34.8l.14-.3c.75-1.64,1.66-3.24,2.68-4.74,1.04-1.53,2.24-2.92,3.57-4.14,1.35-1.24,2.81-2.25,4.34-3,1.61-.79,3.37-1.18,5.23-1.18,1.28,0,2.53.3,3.72.9,1.1.55,1.52.58,1.59.58.6,0,1.05-.17,1.42-.52.36-.34.52-.72.52-1.22,0-.58-.17-.86-.3-1.02-.28-.34-.63-.61-1.07-.81-.53-.24-1.13-.42-1.76-.53-.66-.12-1.29-.17-1.85-.17-2.83,0-5.47.97-8.08,2.98-2.72,2.09-5.21,4.75-7.4,7.88l-2.73,3.9v-12.89h-20.39v49.1Z"/><path class="cls-3" d="m177.98,119.04h-26.39v-55.1h26.39v55.1Zm-23.39-3h20.39v-49.1h-20.39v49.1Zm10.39-53.72c-4.04,0-7.38-.71-9.95-2.1-2.87-1.56-4.32-3.5-4.32-5.79,0-2.53,1.45-4.64,4.3-6.27,2.58-1.47,5.94-2.21,9.98-2.21s7.39.72,9.97,2.15c2.86,1.59,4.31,3.62,4.31,6.03s-1.45,4.44-4.31,6.03c-2.57,1.43-5.92,2.15-9.97,2.15Zm0-13.37c-3.52,0-6.38.61-8.5,1.82-2.78,1.58-2.78,3.15-2.78,3.66,0,1.1.93,2.16,2.75,3.15,2.13,1.15,4.99,1.73,8.53,1.73s6.39-.6,8.51-1.78c2.77-1.54,2.77-2.94,2.77-3.41s0-1.87-2.77-3.41c-2.12-1.18-4.99-1.78-8.51-1.78Z"/><path class="cls-3" d="m215.51,121.89c-3.85,0-7.6-.75-11.14-2.23-3.53-1.47-6.68-3.53-9.36-6.1-2.68-2.58-4.85-5.64-6.46-9.1-1.62-3.49-2.45-7.29-2.45-11.3s.79-8.13,2.33-11.75c1.54-3.61,3.71-6.78,6.43-9.43,2.71-2.64,5.93-4.75,9.56-6.26,3.64-1.51,7.64-2.28,11.88-2.28,2.28,0,4.63.31,6.97.93,2.36.63,4.58,1.58,6.6,2.83,4.59,2.88,8.04,6.37,10.25,10.38,2.19,3.98,3.51,8.98,3.92,14.87v.1s0,.1,0,.1c-.12,1.7-1.27,2.85-3.09,3.06h-.17s-29.86,0-29.86,0v19.32c1.33.26,2.77.39,4.3.39,4.35,0,8.4-1.13,12.04-3.37,3.68-2.26,6.74-5.32,9.1-9.1h0c.6-.96,1.58-1.49,2.75-1.49.92,0,1.78.37,2.48,1.08.71.71,1.08,1.6,1.08,2.58,0,.37-.08.79-.27,1.36l-.15.31c-2.87,4.65-6.72,8.36-11.45,11.03-4.73,2.67-9.87,4.03-15.29,4.03Zm-7.59-54.23c-.8.24-1.58.53-2.35.84-3.28,1.36-6.18,3.26-8.62,5.64-2.43,2.37-4.37,5.22-5.76,8.46-1.39,3.24-2.09,6.79-2.09,10.57,0,3.56.73,6.94,2.17,10.03,1.45,3.12,3.41,5.88,5.82,8.2,2.41,2.32,5.25,4.17,8.43,5.5,3.18,1.33,6.54,2,9.99,2,4.89,0,9.54-1.22,13.81-3.64,4.23-2.39,7.68-5.7,10.28-9.84.06-.21.07-.29.07-.29,0-.12-.04-.26-.2-.43-.2-.2-.31-.2-.36-.2-.11,0-.15.02-.15.02l-1.32-.73,1.27.79c-2.61,4.18-5.99,7.57-10.07,10.07-4.12,2.53-8.7,3.81-13.61,3.81-2.22,0-4.29-.25-6.18-.74l-1.12-.29v-24.68h32.76c.26-.04.35-.11.35-.11,0,0,0-.03.02-.08-.39-5.4-1.58-9.94-3.54-13.51-1.96-3.56-5.06-6.68-9.21-9.28-1.76-1.09-3.71-1.92-5.78-2.47-1.81-.48-3.62-.75-5.38-.82.77.05,1.54.13,2.29.24,1.45.21,2.91.61,4.32,1.17l.94.38v24.14h-16.76v-24.74Zm3,21.74h10.76v-19.08c-.89-.3-1.8-.51-2.7-.64-1.25-.18-2.53-.28-3.81-.28-1.45.1-2.88.29-4.25.58v19.42Z"/><path class="cls-3" d="m317.36,119.04h-26.39v-48.52c-2.45.71-4.82,1.75-7.07,3.09-2.62,1.57-4.85,3.52-6.64,5.81v39.62h-26.39v-55.1h26.39v6.83c2.5-1.99,5.32-3.68,8.42-5.03,4.23-1.84,8.53-2.78,12.79-2.78,2.3,0,4.57.34,6.77,1,2.22.67,4.24,1.67,6.01,2.98,1.81,1.34,3.29,3.08,4.41,5.17,1.13,2.11,1.7,4.6,1.7,7.39v39.54Zm-23.39-3h20.39v-36.54c0-2.29-.45-4.3-1.35-5.98-.91-1.69-2.1-3.1-3.55-4.17-1.49-1.1-3.2-1.95-5.09-2.52-1.92-.58-3.9-.87-5.91-.87-3.84,0-7.74.85-11.59,2.53-3.88,1.69-7.26,3.93-10.07,6.68l-2.55,2.49v-10.71h-20.39v49.1h20.39v-37.63l.3-.4c2.08-2.77,4.7-5.11,7.8-6.97,3.07-1.84,6.36-3.16,9.79-3.91l1.82-.4v49.32Z"/><path class="cls-3" d="m352.72,121.3c-3.65,0-7.22-.68-10.62-2.02-3.41-1.34-6.48-3.28-9.12-5.75-2.66-2.48-4.81-5.52-6.39-9.03-1.59-3.52-2.39-7.49-2.39-11.82s.8-8.15,2.39-11.76c1.57-3.59,3.67-6.75,6.25-9.39,2.58-2.65,5.6-4.74,8.97-6.22,6.4-2.81,13.6-3.05,20.3-.26,2.21.92,4.37,2.25,6.42,3.96v-19.41h26.39v69.45h-26.39v-3.77c-1.99,1.66-4.08,2.98-6.25,3.94-3.13,1.39-6.35,2.09-9.55,2.09Zm-.29-55.24c-3.25,0-6.42.67-9.42,1.99-3.02,1.32-5.72,3.2-8.03,5.57-2.32,2.38-4.22,5.24-5.65,8.5-1.42,3.23-2.13,6.78-2.13,10.55s.72,7.46,2.13,10.59c1.42,3.15,3.34,5.86,5.7,8.07,2.37,2.22,5.12,3.95,8.17,5.16,3.05,1.2,6.26,1.81,9.53,1.81,2.79,0,5.59-.62,8.34-1.84,2.76-1.23,5.42-3.14,7.89-5.67l2.57-2.64v7.89h20.39v-63.45h-20.39v23.51l-2.57-2.63c-2.53-2.59-5.23-4.5-8.01-5.66-2.79-1.16-5.65-1.75-8.51-1.75Zm-.59,52h-1.5v-51.66h1.5c3.42,0,6.86.81,10.23,2.41,3.4,1.62,6.5,4.4,9.19,8.26l.27.39v29.75l-.28.39c-1.05,1.47-2.35,2.86-3.85,4.11-1.48,1.24-3.08,2.33-4.76,3.26-1.69.93-3.48,1.69-5.3,2.24-1.87.56-3.71.85-5.5.85Zm1.5-48.59v45.51c1.02-.11,2.07-.32,3.13-.64,1.62-.49,3.21-1.16,4.72-1.99,1.51-.83,2.95-1.82,4.28-2.93,1.17-.98,2.2-2.05,3.05-3.18v-27.83c-2.32-3.23-4.93-5.55-7.74-6.89-2.46-1.17-4.96-1.86-7.44-2.06Z"/><path class="cls-3" d="m431.09,119.04h-26.39V49.59h26.39v69.45Zm-23.39-3h20.39v-63.45h-20.39v63.45Z"/><path class="cls-3" d="m456.72,124.45c-.57,0-1.19-.03-1.92-.11-.81-.08-1.59-.29-2.33-.61-.74-.33-1.39-.75-1.94-1.25-.51-.47-1.12-1.33-1.12-2.77,0-1.57.73-2.49,1.34-2.98.8-.65,1.74-.97,2.81-.97.92,0,1.73.2,2.41.59,1.06.6,1.57.84,1.81.94.14.05.48.14,1.18.14.54,0,1.53-.24,3.16-1.4,1.24-.88,2.56-2.08,3.93-3.57l-29.3-48.7h30.65l14.54,25.07,8.3-12.88c.54-.91,1.19-2.05,1.91-3.35.72-1.31,1.43-2.59,2.12-3.84.72-1.3,1.41-2.41,2.07-3.31.64-.88,1.54-1.89,2.73-1.89.72,0,1.49.24,2.28.7,1.02.6,1.58,1.55,1.58,2.67,0,.42-.08.81-.25,1.15-.71,1.29-1.37,2.35-2,3.21-.57.8-1.18,1.71-1.81,2.72-1.34,2.17-2.82,4.51-4.38,6.95-1.54,2.39-3.28,5.08-5.21,8.06s-4.11,6.36-6.53,10.12c-2.43,3.77-5.25,8.12-8.46,13.03-.68,1.01-1.52,2.19-2.51,3.52-1.04,1.39-2.3,2.74-3.75,4.01-1.47,1.29-3.13,2.41-4.94,3.31-1.91.95-4.05,1.44-6.37,1.44Zm-3.15-5.7c-.37,0-.67.1-.92.3-.07.06-.23.19-.23.65,0,.28.05.47.15.57.3.28.68.52,1.12.72.45.2.91.32,1.41.37.62.06,1.15.09,1.62.09,1.85,0,3.54-.38,5.03-1.12,1.58-.79,3.02-1.76,4.3-2.88,1.29-1.14,2.41-2.34,3.33-3.56.96-1.28,1.77-2.42,2.41-3.37,3.2-4.9,6.02-9.24,8.44-13,2.42-3.77,4.61-7.14,6.54-10.13,1.93-2.98,3.67-5.66,5.21-8.05,1.56-2.42,3.02-4.74,4.36-6.91.67-1.07,1.32-2.04,1.93-2.89.52-.72,1.08-1.61,1.66-2.65-.02-.01-.04-.03-.07-.05-.24-.14-.42-.21-.55-.25-.11.1-.28.29-.53.63-.58.79-1.21,1.8-1.86,2.99-.69,1.24-1.39,2.52-2.11,3.83-.75,1.36-1.4,2.5-1.99,3.49l-10.99,17.04-16.13-27.81h-23.61l27.7,46.04-.71.82c-1.78,2.05-3.52,3.69-5.18,4.86-1.85,1.31-3.45,1.95-4.9,1.95-.91,0-1.65-.11-2.25-.34-.51-.2-1.23-.57-2.22-1.13-.23-.13-.54-.2-.93-.2Zm46.37-51.83s0,.01,0,.01c0,0,0,0,0-.01Z"/><path class="cls-6" d="m11.5,11.5c15.63,0,31.25,0,46.88,0,1.31,0,3.31,0,5.99,0,2.68,0,5.51.03,8.5.08,2.98.05,5.84.08,8.57.08h18.2c.91,0,1.49.25,1.74.76.25.51.38,1.01.38,1.52,0,2.02-1.01,3.03-3.03,3.03-1.01,0-2.38-.05-4.1-.15-1.72-.1-3.19-.15-4.4-.15h-31.86c0,8.14,0,16.28,0,24.42h44.3c1.62,0,2.43.86,2.43,2.58,0,1.11-.25,1.85-.76,2.2-.51.36-1.32.53-2.43.53-.51,0-1.62-.02-3.34-.08-1.72-.05-3.89-.08-6.52-.08-2.63,0-5.59-.02-8.87-.08-3.29-.05-6.65-.08-10.09-.08-2.93,0-5.64,0-8.12,0-2.48,0-4.68.05-6.6.15,0,23.77,0,47.53,0,71.3H11.5V11.5Z"/><path class="cls-6" d="m100.11,65.44h23.39v9.63c2.29-3.28,4.87-6.01,7.72-8.21,2.85-2.19,5.85-3.29,8.99-3.29.65,0,1.36.07,2.11.2.75.13,1.46.34,2.11.64.65.3,1.19.71,1.62,1.23.43.53.64,1.18.64,1.97,0,.92-.33,1.69-.98,2.31-.66.62-1.47.93-2.46.93-.53,0-1.28-.25-2.26-.74-.98-.49-2-.74-3.05-.74-1.64,0-3.16.34-4.57,1.03-1.41.69-2.74,1.61-3.98,2.75-1.25,1.15-2.36,2.44-3.34,3.88-.98,1.44-1.84,2.95-2.56,4.52v35.98h-23.39v-52.1Z"/><path class="cls-6" d="m152.21,54.44c0-1.97,1.18-3.62,3.54-4.96,2.36-1.34,5.44-2.02,9.24-2.02,3.8,0,6.88.66,9.24,1.97,2.36,1.31,3.54,2.88,3.54,4.72,0,1.83-1.18,3.41-3.54,4.72-2.36,1.31-5.44,1.97-9.24,1.97-3.8,0-6.88-.64-9.24-1.92-2.36-1.28-3.54-2.77-3.54-4.47Zm.88,11.01h23.39v52.1h-23.39v-52.1Z"/><path class="cls-6" d="m237.62,103.78c.33-.52.82-.79,1.47-.79.52,0,1,.21,1.42.64.43.43.64.93.64,1.52,0,.2-.07.49-.2.88-2.75,4.46-6.39,7.96-10.91,10.52-4.52,2.56-9.37,3.83-14.55,3.83-3.67,0-7.19-.71-10.57-2.11-3.38-1.41-6.34-3.34-8.9-5.8-2.56-2.46-4.6-5.34-6.14-8.65-1.54-3.31-2.31-6.86-2.31-10.67,0-4,.74-7.72,2.21-11.16,1.47-3.44,3.5-6.42,6.09-8.94,2.59-2.52,5.62-4.5,9.09-5.95,3.47-1.44,7.24-2.16,11.3-2.16,2.16,0,4.36.29,6.59.88,2.23.59,4.29,1.47,6.19,2.65,4.39,2.75,7.63,6.03,9.73,9.83,2.1,3.8,3.34,8.55,3.74,14.25-.07.98-.66,1.54-1.77,1.67h-31.36v22.02c1.77.46,3.7.69,5.8.69,4.65,0,8.93-1.19,12.83-3.59,3.9-2.39,7.09-5.59,9.58-9.58Zm-22.51-35.88c-1.97.13-3.87.43-5.7.88v22.12h13.76v-21.62c-1.31-.52-2.64-.88-3.98-1.08-1.34-.2-2.7-.29-4.08-.29Z"/><path class="cls-6" d="m292.47,68.59c-3.28.72-6.39,1.97-9.34,3.74-2.95,1.77-5.41,3.96-7.37,6.58v38.63h-23.39v-52.1h23.39v8.65c2.95-2.88,6.45-5.21,10.52-6.98,4.06-1.77,8.12-2.65,12.19-2.65,2.16,0,4.28.31,6.34.93,2.06.62,3.91,1.54,5.55,2.75,1.64,1.21,2.96,2.77,3.98,4.67,1.02,1.9,1.52,4.13,1.52,6.68v38.04h-23.39c0-16.32,0-32.63,0-48.95Z"/><path class="cls-6" d="m393.42,117.54h-23.39v-5.7c-2.62,2.69-5.41,4.69-8.35,6-2.95,1.31-5.93,1.97-8.95,1.97-3.47,0-6.83-.64-10.08-1.92-3.24-1.28-6.13-3.1-8.65-5.46-2.52-2.36-4.54-5.21-6.04-8.55-1.51-3.34-2.26-7.08-2.26-11.21,0-4,.75-7.72,2.26-11.16,1.51-3.44,3.49-6.42,5.95-8.95,2.46-2.52,5.29-4.49,8.5-5.9,3.21-1.41,6.55-2.11,10.03-2.11,3.08,0,6.11.62,9.09,1.87,2.98,1.25,5.81,3.24,8.5,6v-21.33h23.39v66.45Zm-23.39-39.61c-2.56-3.67-5.42-6.26-8.6-7.77-3.18-1.51-6.37-2.26-9.58-2.26v48.66c1.64,0,3.33-.26,5.06-.79,1.73-.52,3.41-1.23,5.01-2.11,1.61-.88,3.11-1.92,4.52-3.1,1.41-1.18,2.61-2.46,3.59-3.83v-28.8Z"/><path class="cls-6" d="m406.19,51.09h23.39v66.45h-23.39V51.09Z"/><path class="cls-6" d="m466.55,65.25l15.33,26.44c3.21-4.98,6.42-9.96,9.63-14.94.59-.98,1.24-2.13,1.97-3.44.72-1.31,1.42-2.59,2.11-3.83.69-1.24,1.34-2.29,1.97-3.15.62-.85,1.13-1.28,1.52-1.28.46,0,.97.17,1.52.49.56.33.84.79.84,1.38,0,.2-.03.36-.1.49-.66,1.18-1.28,2.18-1.87,3-.59.82-1.21,1.75-1.87,2.8-1.38,2.23-2.83,4.54-4.37,6.93-1.54,2.39-3.28,5.08-5.21,8.06-1.93,2.98-4.11,6.36-6.54,10.12-2.42,3.77-5.24,8.11-8.45,13.02-.66.98-1.47,2.13-2.46,3.44-.98,1.31-2.16,2.57-3.54,3.78-1.38,1.21-2.92,2.24-4.62,3.1-1.7.85-3.61,1.28-5.7,1.28-.53,0-1.11-.03-1.77-.1-.66-.07-1.28-.23-1.87-.49-.59-.26-1.1-.59-1.52-.98-.43-.39-.64-.95-.64-1.67,0-.79.26-1.39.79-1.82.52-.42,1.15-.64,1.87-.64.65,0,1.21.13,1.67.39.92.52,1.59.87,2.01,1.03.43.16,1,.24,1.72.25,1.11,0,2.46-.56,4.03-1.67,1.57-1.11,3.21-2.65,4.91-4.62-9.5-15.79-19-31.58-28.5-47.38,9.04,0,18.09,0,27.13,0Z"/><path class="cls-6" d="m11.5,11.5c15.63,0,31.25,0,46.88,0,1.31,0,3.31,0,5.99,0,2.68,0,5.51.03,8.5.08,2.98.05,5.84.08,8.57.08h18.2c.91,0,1.49.25,1.74.76.25.51.38,1.01.38,1.52,0,2.02-1.01,3.03-3.03,3.03-1.01,0-2.38-.05-4.1-.15-1.72-.1-3.19-.15-4.4-.15h-31.86c0,8.14,0,16.28,0,24.42h44.3c1.62,0,2.43.86,2.43,2.58,0,1.11-.25,1.85-.76,2.2-.51.36-1.32.53-2.43.53-.51,0-1.62-.02-3.34-.08-1.72-.05-3.89-.08-6.52-.08-2.63,0-5.59-.02-8.87-.08-3.29-.05-6.65-.08-10.09-.08-2.93,0-5.64,0-8.12,0-2.48,0-4.68.05-6.6.15,0,23.77,0,47.53,0,71.3H11.5V11.5Z"/><path class="cls-6" d="m100.11,65.44h23.39v9.63c2.29-3.28,4.87-6.01,7.72-8.21,2.85-2.19,5.85-3.29,8.99-3.29.65,0,1.36.07,2.11.2.75.13,1.46.34,2.11.64.65.3,1.19.71,1.62,1.23.43.53.64,1.18.64,1.97,0,.92-.33,1.69-.98,2.31-.66.62-1.47.93-2.46.93-.53,0-1.28-.25-2.26-.74-.98-.49-2-.74-3.05-.74-1.64,0-3.16.34-4.57,1.03-1.41.69-2.74,1.61-3.98,2.75-1.25,1.15-2.36,2.44-3.34,3.88-.98,1.44-1.84,2.95-2.56,4.52v35.98h-23.39v-52.1Z"/><path class="cls-6" d="m152.21,54.44c0-1.97,1.18-3.62,3.54-4.96,2.36-1.34,5.44-2.02,9.24-2.02,3.8,0,6.88.66,9.24,1.97,2.36,1.31,3.54,2.88,3.54,4.72,0,1.83-1.18,3.41-3.54,4.72-2.36,1.31-5.44,1.97-9.24,1.97-3.8,0-6.88-.64-9.24-1.92-2.36-1.28-3.54-2.77-3.54-4.47Zm.88,11.01h23.39v52.1h-23.39v-52.1Z"/><path class="cls-6" d="m237.62,103.78c.33-.52.82-.79,1.47-.79.52,0,1,.21,1.42.64.43.43.64.93.64,1.52,0,.2-.07.49-.2.88-2.75,4.46-6.39,7.96-10.91,10.52-4.52,2.56-9.37,3.83-14.55,3.83-3.67,0-7.19-.71-10.57-2.11-3.38-1.41-6.34-3.34-8.9-5.8-2.56-2.46-4.6-5.34-6.14-8.65-1.54-3.31-2.31-6.86-2.31-10.67,0-4,.74-7.72,2.21-11.16,1.47-3.44,3.5-6.42,6.09-8.94,2.59-2.52,5.62-4.5,9.09-5.95,3.47-1.44,7.24-2.16,11.3-2.16,2.16,0,4.36.29,6.59.88,2.23.59,4.29,1.47,6.19,2.65,4.39,2.75,7.63,6.03,9.73,9.83,2.1,3.8,3.34,8.55,3.74,14.25-.07.98-.66,1.54-1.77,1.67h-31.36v22.02c1.77.46,3.7.69,5.8.69,4.65,0,8.93-1.19,12.83-3.59,3.9-2.39,7.09-5.59,9.58-9.58Zm-22.51-35.88c-1.97.13-3.87.43-5.7.88v22.12h13.76v-21.62c-1.31-.52-2.64-.88-3.98-1.08-1.34-.2-2.7-.29-4.08-.29Z"/><path class="cls-6" d="m292.47,68.59c-3.28.72-6.39,1.97-9.34,3.74-2.95,1.77-5.41,3.96-7.37,6.58v38.63h-23.39v-52.1h23.39v8.65c2.95-2.88,6.45-5.21,10.52-6.98,4.06-1.77,8.12-2.65,12.19-2.65,2.16,0,4.28.31,6.34.93,2.06.62,3.91,1.54,5.55,2.75,1.64,1.21,2.96,2.77,3.98,4.67,1.02,1.9,1.52,4.13,1.52,6.68v38.04h-23.39c0-16.32,0-32.63,0-48.95Z"/><path class="cls-6" d="m393.42,117.54h-23.39v-5.7c-2.62,2.69-5.41,4.69-8.35,6-2.95,1.31-5.93,1.97-8.95,1.97-3.47,0-6.83-.64-10.08-1.92-3.24-1.28-6.13-3.1-8.65-5.46-2.52-2.36-4.54-5.21-6.04-8.55-1.51-3.34-2.26-7.08-2.26-11.21,0-4,.75-7.72,2.26-11.16,1.51-3.44,3.49-6.42,5.95-8.95,2.46-2.52,5.29-4.49,8.5-5.9,3.21-1.41,6.55-2.11,10.03-2.11,3.08,0,6.11.62,9.09,1.87,2.98,1.25,5.81,3.24,8.5,6v-21.33h23.39v66.45Zm-23.39-39.61c-2.56-3.67-5.42-6.26-8.6-7.77-3.18-1.51-6.37-2.26-9.58-2.26v48.66c1.64,0,3.33-.26,5.06-.79,1.73-.52,3.41-1.23,5.01-2.11,1.61-.88,3.11-1.92,4.52-3.1,1.41-1.18,2.61-2.46,3.59-3.83v-28.8Z"/><path class="cls-6" d="m406.19,51.09h23.39v66.45h-23.39V51.09Z"/><path class="cls-6" d="m466.55,65.25l15.33,26.44c3.21-4.98,6.42-9.96,9.63-14.94.59-.98,1.24-2.13,1.97-3.44.72-1.31,1.42-2.59,2.11-3.83.69-1.24,1.34-2.29,1.97-3.15.62-.85,1.13-1.28,1.52-1.28.46,0,.97.17,1.52.49.56.33.84.79.84,1.38,0,.2-.03.36-.1.49-.66,1.18-1.28,2.18-1.87,3-.59.82-1.21,1.75-1.87,2.8-1.38,2.23-2.83,4.54-4.37,6.93-1.54,2.39-3.28,5.08-5.21,8.06-1.93,2.98-4.11,6.36-6.54,10.12-2.42,3.77-5.24,8.11-8.45,13.02-.66.98-1.47,2.13-2.46,3.44-.98,1.31-2.16,2.57-3.54,3.78-1.38,1.21-2.92,2.24-4.62,3.1-1.7.85-3.61,1.28-5.7,1.28-.53,0-1.11-.03-1.77-.1-.66-.07-1.28-.23-1.87-.49-.59-.26-1.1-.59-1.52-.98-.43-.39-.64-.95-.64-1.67,0-.79.26-1.39.79-1.82.52-.42,1.15-.64,1.87-.64.65,0,1.21.13,1.67.39.92.52,1.59.87,2.01,1.03.43.16,1,.24,1.72.25,1.11,0,2.46-.56,4.03-1.67,1.57-1.11,3.21-2.65,4.91-4.62-9.5-15.79-19-31.58-28.5-47.38,9.04,0,18.09,0,27.13,0Z"/></g></svg>